<?xml version="1.0" standalone="no"?>
<!DOCTYPE svg PUBLIC "-//W3C//DTD SVG 1.1//EN" "http://www.w3.org/Graphics/SVG/1.1/DTD/svg11.dtd" >
<svg xmlns="http://www.w3.org/2000/svg" xmlns:xlink="http://www.w3.org/1999/xlink" version="1.1" viewBox="-10 0 1697 2048">
  <g transform="scale(1, -1)"  transform-origin="center">
   <path fill="currentColor"
d="M1468 1173q0 -73 -112 -469q-23 -82 -31 -158l34 -4v-362l84 -67l144 -28v-85h-160l-219 68l-348 -51q-112 -17 -172 -17q-52 0 -90 25l-80 -25h-150v85l140 28l23 19l-1 10v10q0 76 113 136l-90 317q-11 40 -11 67q0 60 30 97.5t78 37.5q25 0 55.5 -12.5t52.5 -35.5
l240 -253l26 106l-34 290l-83 100l-125 -122l-56 -3l-392 426v-382h-136v417h-98v712h739v-87h538v-129h-119q61 -21 101.5 -65t40.5 -107q0 -53 -27.5 -105.5t-73.5 -122.5v-70l82 -34q44 -17 65.5 -51t21.5 -106zM665 1432l-6 -13l79 -60l25 -79l-11 -9l-79 39l-5 -9
l388 -416h30l235 213l7 -40l-229 -209l-50 -2l-16 18l28 -251l-28 -132l253 61q8 87 52 248q18 64 50.5 209t32.5 172q0 58 -15.5 84.5t-44.5 38.5l-103 44v88l-83 78q43 68 49.5 81.5t6.5 19.5q0 27 -19 27q-13 0 -20 -6t-15 -18l-145 93l-69 -173l33 -2l36 -105l75 28
l28 -120l-130 -31q-42 -10 -118 -103l84 -87l31 30l7 -71l32 -32l109 105l36 37q64 71 124 89l-2 -39q-37 -9 -104 -80q-23 -25 -161 -156l-220 224l-30 101l-37 61zM334 1489l3 6l124 -68l45 -68l23 -82l200 -207l57 63l-154 167l27 41l67 -33l-15 48l-84 62l27 47l123 -68
l46 -68l18 -83l23 -25q29 36 63 68t78 44l91 25l-11 50l-68 -28l-41 120l-53 3l84 210q8 51 25 78.5t47 42.5h-745v-345zM138 1376h98v-417h60v913h1043v53h-536v87h-665v-636zM1321 514h-14l-288 -69l-376 -194l72 -100l606 38v325zM1546 62l-124 17l-98 79l-626 -39
l-85 116q-48 -30 -48 -80q0 -55 33 -85.5t93 -30.5q56 0 127 11l395 55l218 -70h115v27zM770 914l115 112l-78 83l-78 -87l-222 225l-30 100l-38 62l-90 53l-6 -13l78 -60l25 -79l-10 -10l-79 40l-6 -10l387 -416h32zM1269 1459q56 86 73 129t17 82q0 40 -28 73t-76 52.5
t-94 19.5q-96 0 -120 -82l133 -86q18 20 40 20q23 0 35 -18t12 -40q0 -11 -8.5 -28t-41.5 -66zM982 466l-257 271l-43 -100l99 -276zM695 759q-17 11 -45 11q-34 0 -54 -26.5t-20 -71.5q0 -12 2.5 -25.5t96.5 -343.5l74 42l-103 295zM566 51q-15 19 -24 44l-20 -16l-123 -17
v-27h115zM334 1430v-71l9 11l67 -32l-17 48zM1113 1597l-40 -4q-33 0 -58 23q12 18 44 18q19 0 31 -8.5t23 -28.5z" />
  </g>

</svg>
