<?xml version="1.0" standalone="no"?>
<!DOCTYPE svg PUBLIC "-//W3C//DTD SVG 1.1//EN" "http://www.w3.org/Graphics/SVG/1.1/DTD/svg11.dtd" >
<svg xmlns="http://www.w3.org/2000/svg" xmlns:xlink="http://www.w3.org/1999/xlink" version="1.1" viewBox="-10 0 1983 2048">
  <g transform="scale(1, -1)"  transform-origin="center">
   <path fill="currentColor"
d="M1757 1779q0 72 -27.5 124.5t-83.5 80.5t-129 28q-145 0 -182 -88l160 -92q26 21 49 21q26 0 41 -19.5t15 -42.5q0 -20 -12 -43t-28 -33q-35 -63 -35 -104q0 -52 23 -98l-1 -42q-62 0 -130.5 -43t-118 -107.5t-53.5 -112.5l-63 -682l-25 -10l-240 298q-22 27 -49.5 50
t-62.5 23q-38 0 -60.5 -25t-22.5 -63q0 -37 19 -117l108 -518l-218 -98v-26h1202v26l-160 70v1283q0 61 13 106.5t29 86t29 80t13 87.5zM380 892l16 681l-221 -681h205zM1324 1890l-82 -186l39 -2l42 -113l96 30l17 -137q40 19 73 27q-7 10 -11 25q-11 29 -11 76
q0 48 39 115q21 17 29.5 36t8.5 27q0 29 -23 29q-22 0 -42 -26zM1711 1430q2 -64 33 -122t61 -58q21 0 21 20v3q-1 13 -22.5 36t-46.5 58q-31 41 -46 75v-12zM800 927q23 0 43 -5l-40 58h-82l-6 -11l18 -64l-2 -2q30 24 69 24zM1422 1778l-48 -5q-41 0 -71 26q6 8 23 13.5
t31 5.5q23 0 37 -9t28 -31zM1303 1937q43 113 212 113q137 0 208.5 -69.5t71.5 -200.5q0 -50 -9 -86t-21.5 -67.5t-25.5 -61.5t-21 -68q35 -73 90 -129q31 -33 44.5 -54t13.5 -41q0 -33 -18 -48.5t-45 -15.5q-52 0 -92 74v-1126l162 -68v-89h-1282v89l212 90l-100 475
q-21 98 -21 146q0 39 20 70l-36 119l18 31h45l-291 596l-20 -832h-40l1 68h-88l-12 -68h-40l12 68h-89l-22 -68h-40l298 924h39l295 -606l-20 356q-65 12 -102 53t-37 100q0 58 38.5 98t97.5 40q57 0 96.5 -40t39.5 -90q0 -42 -17 -68l41 -25l-20 -33l-49 29q-14 8 -14 18
t4 22q15 33 15 57q0 35 -28 62.5t-68 27.5q-45 0 -70.5 -27.5t-25.5 -70.5q0 -51 39 -82.5t98 -31.5l27 -477h47l124 -183l204 -251l52 621q6 70 51.5 133t146.5 125l-13 109l-45 -16l-112 -153l-72 61l131 119l-34 89l-64 3l101 225l-20 12q-44 20 -44 45q0 17 7.5 26
t7.5 16q0 10 -13 10h-19q-15 0 -15 8q0 5 16.5 16.5t46.5 11.5q23 0 34 -13t11 -25q0 -15 -10 -25q-11 -11 -11 -21q0 -15 18 -26z" />
  </g>

</svg>
