<?xml version="1.0" standalone="no"?>
<!DOCTYPE svg PUBLIC "-//W3C//DTD SVG 1.1//EN" "http://www.w3.org/Graphics/SVG/1.1/DTD/svg11.dtd" >
<svg xmlns="http://www.w3.org/2000/svg" xmlns:xlink="http://www.w3.org/1999/xlink" version="1.1" viewBox="-10 0 1311 2048">
  <g transform="scale(1, -1)"  transform-origin="center">
   <path fill="currentColor"
d="M868 1389l-34 -268q46 -66 64 -125.5t18 -127.5q0 -34 -5 -62q-7 -41 -7 -102q0 -17 9 -51l12 -56q59 -247 59 -452q0 -75 -10 -145h-294v88l113 23q60 12 60 48v11q0 4 -104 366l-9 61h-163l-190 -597h-287v88q86 15 132.5 22.5t61.5 82.5l63 240l-3 86l28 78h-22
l214 485l-74 307h-7l-96 -253l-65 -272l14 -142l-31 -79l-58 22l20 50l-1 30l-7 2l-20 -49l-9 -56l26 -65l-58 -18l-35 72l-6 66l45 157l50 332l75 271q41 108 146 122l106 13v101l-32 58q-42 69 -42 126q0 75 51.5 124.5t139.5 49.5q79 0 122 -29t43 -83l-3 -40l65 -142
l-48 -6l-16 -104l-88 -6v-40q80 -13 105 -22q52 -7 89 -39.5t56 -82.5l75 -271l50 -332l45 -157l-6 -66l-35 -72l-58 18l26 65l-9 56l-20 49l-7 -2l-1 -30l20 -50l-58 -22l-31 79l14 142l-65 272l-97 253h-6zM880 633q-17 38 -17 61q0 56 12 129l2 43q0 54 -17.5 118
t-61.5 118l-187 -33l-187 -436h456zM362 37l179 560h-119l-30 -83v-85l-65 -248q-13 -49 -33 -71t-49 -29l-113 -17v-27h230zM780 597l9 -59l100 -355l3 -28q0 -59 -89 -74l-85 -17v-27h222q8 45 8 118q0 190 -63 442h-105zM665 1741l-34 51q-10 12 -16.5 31t-6.5 34
q0 22 14 42t40 20q21 0 31 -10h133l3 29q0 35 -32.5 54.5t-93.5 19.5q-66 0 -108 -40t-42 -101q0 -52 30 -98l44 -68zM746 1837q25 25 53 25q14 0 27 -6t13 -16q0 -20 -45 -20q-24 0 -48 17zM839 1429h55l111 -283l65 -284l-23 -145l20 -49l16 5l-14 38l5 75l31 10l39 -88
l8 -65l-23 -53l18 -5l22 53l5 58l-53 142l-53 326l-73 271q-20 57 -51.5 82.5t-75.5 30.5q-25 8 -54 10.5t-67 7.5v101l96 6l15 104l27 4l-40 93h-147q-11 11 -25 11q-27 0 -27 -34q0 -6 6.5 -21.5t54.5 -94.5l-87 -77v-95l-120 -15q-44 -5 -75.5 -30.5t-51.5 -82.5
l-73 -271l-53 -326l-53 -142l5 -58l22 -53l18 5l-23 53l8 65l39 88l31 -10l5 -75l-14 -38l16 -5l20 49l-23 145l65 284l110 283h56l76 -329l194 35z" />
  </g>

</svg>
