<?xml version="1.0" standalone="no"?>
<!DOCTYPE svg PUBLIC "-//W3C//DTD SVG 1.1//EN" "http://www.w3.org/Graphics/SVG/1.1/DTD/svg11.dtd" >
<svg xmlns="http://www.w3.org/2000/svg" xmlns:xlink="http://www.w3.org/1999/xlink" version="1.1" viewBox="-10 0 2142 2048">
  <g transform="matrix(1 0 0 -1 0 1638)">
   <path fill="currentColor"
d="M1352 1521l-13 53l-83 -29l-49 129l-64 3l102 226l4 27q15 58 57 89t122 31q118 0 198 -57t80 -146q0 -47 -25 -98t-97 -146v-78l210 -50q33 -7 54.5 -31t29.5 -55l154 -529l-73 -360v-200l-85 -27v-28l-85 -18v156l31 88l30 388l-126 377l-83 -323l-25 -325l41 -5v-389
l102 -72l173 -30v-92h-182l-278 78l-404 -59q-127 -19 -208 -19q-63 0 -109 27l-96 -27h-182v92l173 30l28 20l-1 11v11q0 82 136 146l-110 400q-4 13 -7.5 35.5t-4.5 37.5q0 62 35.5 103.5t93.5 41.5q30 0 63 -13.5t56 -39.5l307 -345l30 188l-118 510l-282 -214h-60
l-370 292l-14 34l-117 -902q54 -15 81 -56.5t28 -99.5q0 -88 -54 -166t-140 -116q-56 44 -90.5 113t-34.5 135q0 83 39 138.5t111 58.5l124 942l-13 -1l-91 105l57 137l21 -14l16 32l41 -18l49 377l59 -7l-51 -394l22 -9l55 -73l28 -89l252 -205l235 182q76 59 186 85z
M1179 1280l131 -560l-34 -202l304 67l26 338l92 351l48 -3l144 -414l-36 -390l-33 -87v-115l26 5v31l71 23v163l74 382l-138 473q-15 50 -30 70.5t-35 26.5l-243 61v95l-100 85q55 76 61.5 88.5t6.5 19.5q0 29 -23 29q-22 0 -42 -26l-175 99l-82 -186l39 -2l42 -113l92 30
l31 -125l-151 -33q-91 -20 -169 -81l-251 -192l-277 214l-38 107l-45 66l-81 36l-7 -15l67 -42l35 -83l-37 -62l26 -74l351 -281h38l300 226h22zM1622 553h-17l-347 -74l-451 -209l86 -107l729 41v349zM1893 67l-148 18l-119 86l-754 -43l-102 124q-59 -31 -59 -85
q0 -58 40 -92.5t112 -34.5q42 0 111.5 8t510.5 72l270 -82h138v29zM1224 502l-325 359l-49 -111l121 -362zM1559 1629q64 85 86.5 135t22.5 92q0 44 -35 79.5t-91 56t-112 20.5q-117 0 -145 -88l160 -92q26 21 49 21q26 0 41 -19.5t15 -42.5q0 -20 -31 -65l-29 -36zM233 56
q58 32 98.5 93.5t40.5 127.5q0 54 -30 86t-81 32q-52 0 -82.5 -41.5t-30.5 -104.5q0 -47 22.5 -100.5t62.5 -92.5zM868 876q-21 12 -54 12q-40 0 -64.5 -28.5t-24.5 -76.5q0 -9 1.5 -20t117.5 -437l90 44l-124 378zM447 1481l-26 57l-79 45l-38 -87l66 -75l46 2zM713 56
q-18 20 -29 46l-24 -17l-148 -18v-29h138zM1372 1778l-48 -5q-41 0 -71 26q6 8 23 13.5t31 5.5q23 0 37 -9t28 -31z" />
  </g>

</svg>
