<?xml version="1.0" standalone="no"?>
<!DOCTYPE svg PUBLIC "-//W3C//DTD SVG 1.1//EN" "http://www.w3.org/Graphics/SVG/1.1/DTD/svg11.dtd" >
<svg xmlns="http://www.w3.org/2000/svg" xmlns:xlink="http://www.w3.org/1999/xlink" version="1.1" viewBox="-10 0 1977 2048">
  <g transform="matrix(1 0 0 -1 0 1638)">
   <path fill="currentColor"
d="M100 719q0 54 21.5 119t76.5 161l-4 32q0 20 10 56l18 7l-2 8q-48 70 -84 176t-36 189q0 55 10.5 104.5t32 97.5t50.5 107q51 92 51 180h97v-777l80 -9l52 -51l288 38l165 245q25 38 75.5 57.5t117.5 35.5l111 26l-13 53l-61 -21l-109 -72l-37 82l107 27l-32 84l-64 3
l102 226l4 27q15 58 57 89t122 31q45 0 87 -10l33 55q20 34 58 81t63.5 63.5t57.5 16.5q61 0 61 -50q0 -30 -31.5 -48.5t-68.5 -18.5q4 -9 8.5 -28.5t5.5 -38.5q0 -31 -14 -42q-18 -12 -44 -12q-31 0 -83 24l-7 -13q66 -23 109 -69.5t43 -112.5q0 -57 -28 -129t-84 -147
l-28 7l-2 -53l132 -27l145 201l49 -33l-132 -183l36 -8q34 -7 55.5 -31t31 -62.5t108.5 -438.5l-69 -84l-281 15l-10 -183h2v-325h68l41 -190q4 -17 4 -33q0 -35 -19.5 -63t-83 -54t-93.5 -26l-29 79l60 31q15 10 15 20q0 9 -42 100l-431 -171q-150 -59 -243 -59
q-76 0 -127 44t-51 115v9l1 9l-26 -42l-18 -135h-392v92l166 24l77 24l40 57q101 466 125.5 539t58.5 107q14 14 49.5 24t54.5 10q99 0 218 -74.5t196 -176.5l22 146l-6 25l-47 -65l-47 38l76 105v3l-18 15l-6 58l5 6l-61 271l-198 -224l-408 -14l-30 -38l-69 -11v-711h-97
q0 88 -51 181q-12 21 -22 41.5t-29.5 66t-30 91.5t-11.5 109zM1068 1305l67 -316l40 48l8 -6l20 30l43 -19l306 425l-148 33l2 105l-82 75q55 76 61.5 88.5t6.5 19.5q0 29 -23 29q-22 0 -42 -26l-175 99l-82 -186l39 -2l42 -113l92 30l31 -125l-157 -34
q-53 -11 -101.5 -34.5t-63.5 -47.5l-173 -260l-316 -29l-53 51l-69 5v-23l75 -28l20 -71l33 3l367 17zM714 837q-17 0 -46 -12t-36 -19q-29 -29 -53 -116q-48 -192 -119 -509l-52 -71l-86 -23l-140 -20v-29h319l14 97q33 48 86.5 167.5t71.5 201t25 174.5l22 10
q23 -6 49 -30.5t56 -61t89 -124.5l184 128q-94 111 -195.5 174t-188.5 63zM707 276l70 -99q134 74 315.5 124.5t378.5 63.5v295l-323 -72zM1786 900l41 52l-95 390q-18 84 -65 97l-53 13l-314 -435l67 -33l136 11l73 279l48 -3l93 -277l-11 -18l-347 -25l-75 41l-18 -26
l16 -15l-15 -18l-86 71l-52 -63l3 -32l61 -52l70 -7l86 63zM1448 33q50 16 94 40t44 77l-3 26l-36 152q-422 -4 -779 -199l-92 121q-29 -16 -44.5 -41t-15.5 -51q0 -51 41.5 -84.5t101.5 -33.5q78 0 240 63l445 176l52 -111q9 -20 9 -38q0 -30 -19 -40l-50 -26zM296 1170
v740h-13q-5 -73 -49 -152q-30 -53 -59 -131.5t-29 -159.5q0 -74 27 -160.5t70 -156.5zM233 979l-29 -59q-58 -114 -58 -201q0 -133 88 -290q46 -83 48 -153h14v674l-40 12zM1457 1614q89 121 89 242q0 44 -35 79.5t-91 56t-112 20.5q-117 0 -145 -88l160 -92q26 21 49 21
q26 0 41 -19.5t15 -42.5q0 -20 -31 -65l-29 -36zM1188 774l-24 -141l311 65l7 178l-126 7l-90 -65l-81 10l-12 9l-1 -1zM621 260q26 27 75 60l186 130q-41 65 -82.5 115.5t-68.5 66.5q0 -37 -9 -89t-22 -94.5t-79 -188.5zM1670 1009l-68 227l-61 -238zM1521 2159
q-30 -36 -64 -88q33 -16 56 -16q14 0 26 6q5 5 5 14q0 31 -23 84zM229 1043l9 -36l33 -16l72 -24l46 13l22 27l-24 68l-45 20l-1 -1l-111 -22zM1202 1773q-41 0 -71 26q6 8 23 13.5t31 5.5q23 0 37 -9t28 -31zM1526 2165q34 0 66.5 11.5t32.5 27.5t-20 16q-30 0 -79 -55z
M275 1105l21 4v26l-36 -10zM1210 1031l-6 -9l19 -16l10 13z" />
  </g>

</svg>
