<?xml version="1.0" standalone="no"?>
<!DOCTYPE svg PUBLIC "-//W3C//DTD SVG 1.1//EN" "http://www.w3.org/Graphics/SVG/1.1/DTD/svg11.dtd" >
<svg xmlns="http://www.w3.org/2000/svg" xmlns:xlink="http://www.w3.org/1999/xlink" version="1.1" viewBox="-10 0 1715 2048">
  <g transform="matrix(1 0 0 -1 0 1638)">
   <path fill="currentColor"
d="M984 1075l-86 283l-418 -149l-56 34l-12 63l302 369l26 57l54 41l126 11l13 -46l-88 -24l-23 -36l67 6l17 -43l-125 -59l-127 -169l168 93q28 27 63.5 43t163.5 46v76l-74 -6l-14 116l-51 16l130 164l9 22q36 68 114 68q99 0 174 -61t75 -135q0 -47 -28 -89.5
t-124 -120.5l-3 -42l153 -41q62 -18 83 -101l112 -393l-55 -293l30 -54v-68l-59 -111l-48 16l31 86l-16 40l-34 -59l-51 11l24 125l24 302l-97 297l-73 -256l-8 -147l33 -192q0 -56 -27.5 -92.5t-78.5 -41.5l-73 -5q-223 -14 -283 -22q50 -89 101 -239t71 -270l-298 -97
l-30 93l111 64q49 28 49 60q0 23 -11 39q-146 212 -173.5 255.5t-38.5 102.5l-205 -612h-320v98l151 22q52 9 75 94l72 316l9 88q27 99 39 115q30 42 83 77.5t139 67.5t127 43q78 21 122 40.5t62 45.5zM503 742q183 -29 316 -102l156 11l221 18q21 2 34.5 11.5t22 23.5
t12 30t3.5 31l-33 186l11 161l87 282h45l107 -328l-28 -301l-19 -111l10 -3l39 70h15l25 -63l-27 -82l11 -5l42 85l-6 59l-31 58l50 303l-109 374q-21 68 -52 77l-183 46v72l-62 90l50 43q30 24 30 43q0 20 -25 20q-13 0 -30 -15l-125 118l-103 -136l30 -9l11 -103l82 8
v-136l-110 -25q-38 -8 -75 -26t-51 -36l-247 -131l-11 21l178 230l111 53l-3 10l-80 -8l-9 12l37 57l83 25l-2 12l-94 -15l-45 -39l-29 -59l-284 -352l4 -33l39 -21l433 159l96 -323l-6 -92q-24 -29 -69 -50.5t-122 -42.5q-223 -61 -321 -152zM613 682q-69 28 -133 32
q-30 -84 -34 -101l-12 -87l-74 -325q-26 -101 -91 -111l-134 -19v-30h264zM652 669q3 -23 16 -70t22 -61l179 -270q18 -26 18 -57q0 -44 -74 -87l-84 -47l10 -29l234 76q-18 109 -66.5 244.5t-104.5 234.5q-60 42 -150 66zM1242 1671q67 56 89.5 81t36 51t13.5 53
q0 42 -33.5 78t-86 60t-91.5 24q-63 0 -93 -48l113 -109q15 8 32 8q24 0 35.5 -16t11.5 -34q0 -15 -11 -30.5t-60 -53.5zM1119 1832q-40 2 -60 12t-34 30q10 7 27 7q31 0 45 -11.5t22 -37.5z" />
  </g>

</svg>
