<?xml version="1.0" standalone="no"?>
<!DOCTYPE svg PUBLIC "-//W3C//DTD SVG 1.1//EN" "http://www.w3.org/Graphics/SVG/1.1/DTD/svg11.dtd" >
<svg xmlns="http://www.w3.org/2000/svg" xmlns:xlink="http://www.w3.org/1999/xlink" version="1.1" viewBox="-10 0 1774 2048">
  <g transform="matrix(1 0 0 -1 0 1638)">
   <path fill="currentColor"
d="M279 288v1144h-4l-49 38l-26 53l-4 21l31 68l20 12l14 -7l15 24l3 -2v412h70v-442l22 -9l38 -54l20 -64l188 -154q56 71 115 132.5t99 82.5t88 28l-38 62h-77l-39 87l-47 -5l39 196v23q2 56 43 88t113 32q83 0 136.5 -46t53.5 -122q0 -24 -5 -49t-48 -134l27 -37h50
q101 -2 171 -60l223 -184l75 -331l44 -34l24 -56l-6 -111l-46 -5l-7 81l-27 27l-6 -61l-39 -2l-27 108l-86 281l-159 114l75 -268l17 -70q41 -59 55 -94t14 -111q0 -23 -12 -66q-23 -83 -23 -147l4 -80q59 -247 59 -452q0 -75 -10 -145h-294v88l113 23q60 12 60 48v11
q0 4 -104 366l-9 61h-163l-190 -597h-287v88l135 23q23 5 36.5 20.5t22.5 61.5l67 240l-7 86l28 78h-22l254 507l-187 282l-232 -226l-46 -2l-266 232v-1100l180 -290h-74l-141 226l-140 -226h-74zM900 1441l219 -328l197 5l-99 356l24 12l202 -139l89 -300l18 -97l8 1l6 72
l14 5l42 -41l8 -77h10l5 82l-27 48l-47 36l-79 327l-224 182q-33 26 -71.5 35t-108.5 9q-15 0 -24.5 5.5t-9.5 6.5l-37 52l-81 58l25 57q8 21 8 35q0 20 -15 20q-12 0 -25 -25l-139 61l-29 -150l24 2l39 -91l78 5l68 -116q-78 -11 -115.5 -30t-98 -82t-133.5 -151l-208 168
l-30 83l-26 37l-77 45l-6 -14l69 -46l18 -52l-12 -18v-53l272 -239h29zM1350 633l-1 17v17q0 37 4 70t17 83q13 48 13 68q0 69 -15 111.5t-49 83.5h-1l1 1l-211 -4l-221 -447h463zM828 37l179 560h-119l-30 -83v-85l-65 -248q-13 -83 -82 -100l-113 -17v-27h230zM1246 597
l9 -59l100 -355l3 -28q0 -59 -89 -74l-85 -17v-27h222q8 45 8 118q0 190 -63 442h-105zM1021 1725l31 82q12 34 12 72q0 59 -42 98t-110 39q-47 0 -79.5 -20.5t-39.5 -59.5l124 -60q18 23 35 23q20 0 32.5 -19.5t12.5 -39.5q0 -22 -25 -76zM249 1594l-25 -51l2 -13l23 -49
l30 -17l24 1l29 51l-11 34zM885 1821q-30 -12 -52 -12q-13 0 -28.5 6t-15.5 11q0 10 15 17.5t31 7.5q22 0 32 -8t18 -22z" />
  </g>

</svg>
