<?xml version="1.0" standalone="no"?>
<!DOCTYPE svg PUBLIC "-//W3C//DTD SVG 1.1//EN" "http://www.w3.org/Graphics/SVG/1.1/DTD/svg11.dtd" >
<svg xmlns="http://www.w3.org/2000/svg" xmlns:xlink="http://www.w3.org/1999/xlink" version="1.1" viewBox="-10 0 2120 2048">
  <g transform="matrix(1 0 0 -1 0 1638)">
   <path fill="currentColor"
d="M277 1950l-35 -151h37l38 -27l102 -88l200 -235l220 121q42 22 112 22l37 2v47l-88 6l-16 104l-48 6l65 142l-3 27v13q0 53 43 82.5t122 29.5q87 0 139 -49t52 -125q0 -57 -42 -126l-32 -58v-99l37 -2q70 0 112 -22l200 -121l190 235l102 88l38 27l31 -1l-17 152l40 4
l19 -156h46v-32h15l13 -15l4 -74l-55 -58l-6 -2q25 -292 32.5 -422.5t7.5 -238.5q0 -356 -97.5 -563t-314 -300t-613.5 -93q-356 0 -534 85.5t-254 285.5t-76 583q0 276 70 678l-42 45l4 74l13 15h15v32h42l35 156zM140 954q0 -290 38 -455t121.5 -264t222.5 -139v42
q86 15 132.5 22.5t61.5 82.5l63 240l-3 85l28 58h-22l203 466l-83 299l-332 -118l-252 326l-23 24l-28 1l-44 -15l-17 4q-66 -376 -66 -659zM1265 1391l-20 -260q58 -83 75.5 -131t17.5 -103q0 -34 -5 -62q-7 -41 -7 -102q0 -17 9 -51l12 -56q59 -229 59 -431q0 -69 -7 -122
q211 57 326.5 160.5t169.5 277.5t54 445q0 98 -12.5 270.5t-29.5 384.5l-36 13l-28 -1l-23 -24l-242 -326zM1565 1320l231 302l37 34l21 3l-4 56l36 42l63 8v11l-71 -2l-36 -24l-88 -79l-218 -266l-222 132q-31 17 -119 23l-46 3v95l-87 77l38 62q6 9 14.5 27.5t8.5 26.5
q0 34 -27 34q-14 0 -25 -11h-147l-40 -93l27 -4l15 -104l96 -6v-104l-48 -3q-88 -4 -120 -23l-242 -132l-228 266l-88 79l-36 24l-71 2v-11l63 -8l36 -42l-4 -56l21 -3l37 -34l241 -302l347 118l86 -328l194 35l21 297zM964 40q142 0 266 10h-128v88l113 23q60 12 60 48v11
l-2 11l-102 354l-9 41h-163l-190 -576h-64q100 -10 219 -10zM1302 662q-17 38 -17 61q0 56 12 129l2 43q0 107 -90 217l-191 -36l-172 -414h456zM784 87l179 539h-119l-30 -63v-84l-65 -248q-13 -49 -33 -71t-49 -29l-113 -17v-27h230zM1202 626l9 -39l100 -354l3 -28
q0 -59 -89 -74l-85 -17v-27h222q8 45 8 118q0 191 -63 421h-105zM1142 1705l44 68q30 46 30 98q0 62 -42.5 101.5t-107.5 39.5q-61 0 -93.5 -19.5t-32.5 -54.5l3 -29h133q10 10 31 10q26 0 40 -20t14 -42q0 -15 -6.5 -34t-16.5 -31l-34 -51zM161 1738l-4 -46l45 -48l21 -6
l35 10l4 59l-23 24zM1880 1707l4 -59l35 -10l21 6l45 48l-4 46l-78 -7zM1023 1837q-24 -17 -48 -17q-45 0 -45 20q0 10 13 16t27 6q28 0 53 -25z" />
  </g>

</svg>
