<?xml version="1.0" standalone="no"?>
<!DOCTYPE svg PUBLIC "-//W3C//DTD SVG 1.1//EN" "http://www.w3.org/Graphics/SVG/1.1/DTD/svg11.dtd" >
<svg xmlns="http://www.w3.org/2000/svg" xmlns:xlink="http://www.w3.org/1999/xlink" version="1.1" viewBox="-10 0 1513 2048">
  <g transform="matrix(1 0 0 -1 0 1638)">
   <path fill="currentColor"
d="M854 1890l-82 -186l39 -2l42 -113l96 30l22 -177q-81 -55 -115.5 -87.5t-55.5 -68t-25 -78.5t-63 -682l-25 -10l-240 298q-22 27 -49.5 50t-62.5 23q-38 0 -60.5 -25t-22.5 -63q0 -37 19 -117l108 -518l-218 -98v-26h1202v26l-160 70v1312h-152l5 277q21 17 29.5 36
t8.5 27q0 29 -23 29q-22 0 -42 -26zM1025 1832q26 21 49 21q26 0 41 -19.5t15 -42.5q0 -20 -12 -43t-28 -33l3 -229h217l-37 340q-14 82 -86 134t-177 52q-117 0 -145 -88zM276 1055q-11 264 -63 382q-34 73 -62 73q-11 0 -11 -47q0 -59 20 -136t53 -148t63 -124zM330 927
q19 0 44 -5l-41 58h-82l-6 -11l18 -64q30 22 67 22zM952 1778l-48 -5q-41 0 -71 26q6 8 23 13.5t31 5.5q23 0 37 -9t28 -31zM723 1677l102 226l4 27q15 58 57 89t122 31q124 0 203.5 -58.5t99.5 -164.5l41 -379h-111v-1291l162 -68v-89h-1282v89l212 90l-100 475
q-21 98 -21 146q0 39 20 70l-36 119l18 31h39q-81 139 -117 244t-36 199q0 36 11 61t35 25q38 0 77.5 -53.5t62 -152.5t31.5 -323h37l126 -186l202 -248l52 621q9 119 135 210l63 48l-13 109l-45 -16l-112 -153l-72 61l131 119l-34 89z" />
  </g>

</svg>
