<?xml version="1.0" standalone="no"?>
<!DOCTYPE svg PUBLIC "-//W3C//DTD SVG 1.1//EN" "http://www.w3.org/Graphics/SVG/1.1/DTD/svg11.dtd" >
<svg xmlns="http://www.w3.org/2000/svg" xmlns:xlink="http://www.w3.org/1999/xlink" version="1.1" viewBox="-10 0 2495 2048">
  <g transform="matrix(1 0 0 -1 0 1638)">
   <path fill="currentColor"
d="M2356 1448v-430h29v-194q-24 -32 -52.5 -104t-28.5 -108q0 -61 56 -147l18 -32l-21 -273l-33 -48l-13 -112h-201l106 215l3 159l-114 296v214h-1601l-59 -239l56 -246l-75 -79l-58 3l-98 -111v-212h-123v288l143 153v46l-75 329v186q-52 42 -83.5 109.5t-31.5 144.5
q0 80 31 122t89 57l27 4l226 102l3 -64l89 -34l119 131l61 -72l-154 -112l-15 -45l110 -14q99 79 283 79q80 0 123 -9l992 -196q18 -5 51 -5q27 0 42 14.5t25 51.5l49 182h105zM2316 1413h-33l-44 -159q-16 -56 -38 -74t-55 -18q-19 0 -64 8l-986 191q-45 9 -128 9
q-86 0 -154.5 -19t-105.5 -54l-177 22l30 92l-113 42l-2 39l-186 -82l99 -175q-26 -20 -26 -42q0 -23 29 -23q8 0 27 8.5t36 29.5l515 48v-238h1376v395zM363 948q-58 0 -108 27v-152l75 -329v-67l-143 -157v-230h43v190l122 130l59 -3l48 54l-54 236l68 277h1672v-227
l115 -316l-3 -174l-91 -173h107l13 93l32 47l19 249q-43 67 -58.5 111t-15.5 78q0 75 82 223v143h-1405v-30h-577zM226 1399q-88 -28 -88 -145q0 -58 31.5 -124t82.5 -106.5t112 -40.5h536v228l-465 -37q-10 -16 -33 -28t-43 -12q-23 0 -42.5 15t-19.5 41q0 23 21 49z
M372 1312q-22 14 -31 28t-9 37q0 15 5.5 31t13.5 23q26 -30 26 -71z" />
  </g>

</svg>
