<?xml version="1.0" standalone="no"?>
<!DOCTYPE svg PUBLIC "-//W3C//DTD SVG 1.1//EN" "http://www.w3.org/Graphics/SVG/1.1/DTD/svg11.dtd" >
<svg xmlns="http://www.w3.org/2000/svg" xmlns:xlink="http://www.w3.org/1999/xlink" version="1.1" viewBox="-10 0 2219 2048">
  <g transform="matrix(1 0 0 -1 0 1638)">
   <path fill="currentColor"
d="M1054 953q-90 -44 -171.5 -54.5t-144.5 -10.5l-50 1l-47 25q8 99 83 250t147 238q29 35 83.5 56t121.5 37l111 26l-13 53l-83 -29l-49 129l-64 3l102 226l4 27q15 58 57 89t122 31q118 0 198 -57t80 -146q0 -47 -25 -98t-97 -146v-78l30 1q47 0 97.5 -10t215.5 -54
q126 -35 157 -40q-15 87 -15 153l1 40l16 171l-68 204l57 19l36 -82l14 43l-41 116l65 25l72 -148l-29 -96q24 -313 82 -590l-31 -20q-45 -6 -96 -6q-145 0 -420 43l-86 -381l-12 -222h2v-325h68l41 -190q4 -17 4 -33q0 -35 -19.5 -63t-83 -54t-93.5 -26l-29 79l60 31
q15 10 15 20q0 9 -42 100l-431 -171q-150 -59 -243 -59q-76 0 -127 44t-51 115v9l1 9l-26 -42l-18 -135h-392v92l166 24l77 24l40 57l123 481q13 43 27 73.5t31.5 51t56 31t55.5 10.5q102 0 220 -63.5t189 -154.5l11 148zM1014 1294l43 -187l165 49l77 64l165 -9l2 -70
l-123 -7l-34 -30l89 -1l5 -60l-215 -17l-100 -55l46 -195l-13 -143l311 65l9 225l95 414q268 -46 438 -46q50 0 91 4q-61 346 -71 576l29 86l-51 111l-15 -6l36 -97l-30 -82l-20 -4l-41 92l-14 -5l62 -173q-9 -138 -9 -191q0 -78 22 -203l-36 -16l-54 13q-199 55 -289.5 75
t-149.5 20q-34 0 -53 -5v109l-100 85q55 76 61.5 88.5t6.5 19.5q0 29 -23 29q-22 0 -42 -26l-175 99l-82 -186l39 -2l42 -113l92 30l31 -125l-157 -34q-51 -10 -104 -34.5t-73 -47.5q-74 -88 -140 -222t-82 -221l26 -10l48 -2q209 0 435 133l183 10l-1 15l-100 1l-4 21
l63 59l104 5l-1 16l-122 4l-67 -61q-182 -62 -238 -77t-100 -23t-92 -11q39 102 192 279h13zM664 276l70 -99q134 74 315.5 124.5t378.5 63.5v295l-323 -72zM676 804q-17 0 -46 -12t-36 -19q-29 -29 -53 -116l-124 -476l-52 -71l-86 -23l-140 -20v-29h319l14 97
q29 42 78 148t77.5 198.5t32.5 163.5l22 10q64 -16 189 -183l184 128q-85 96 -184.5 150t-194.5 54zM1405 33q50 16 94 40t44 77l-3 26l-36 152q-422 -4 -779 -199l-92 121q-29 -16 -44.5 -41t-15.5 -51q0 -51 41.5 -84.5t101.5 -33.5q78 0 240 63l445 176l52 -111
q9 -20 9 -38q0 -30 -19 -40l-50 -26zM1394 1629q64 85 86.5 135t22.5 92q0 44 -35 79.5t-91 56t-112 20.5q-117 0 -145 -88l160 -92q26 21 49 21q26 0 41 -19.5t15 -42.5q0 -20 -31 -65l-29 -36zM578 260q26 27 75 60l185 129q-97 123 -145 150q-1 -57 -28.5 -134
t-86.5 -205zM871 1062q47 6 149 34l-31 132q-52 -65 -76 -98t-42 -68zM1159 1773q-41 0 -71 26q6 8 23 13.5t31 5.5q23 0 37 -9t28 -31z" />
  </g>

</svg>
