<?xml version="1.0" standalone="no"?>
<!DOCTYPE svg PUBLIC "-//W3C//DTD SVG 1.1//EN" "http://www.w3.org/Graphics/SVG/1.1/DTD/svg11.dtd" >
<svg xmlns="http://www.w3.org/2000/svg" xmlns:xlink="http://www.w3.org/1999/xlink" version="1.1" viewBox="-10 0 1712 2048">
  <g transform="matrix(1 0 0 -1 0 1638)">
   <path fill="currentColor"
d="M1518 457l32 -88l-5 -91l-75 -127l-51 28l40 92l-15 54l-46 -74l-50 17l104 502l-132 293l-77 -475l41 -5v-389l102 -72l173 -30v-92h-182l-278 78l-404 -59q-127 -19 -208 -19q-63 0 -109 27l-96 -27h-182v92l173 30l28 20l-1 11v11q0 82 136 146l-110 400
q-4 13 -7.5 35.5t-4.5 37.5q0 62 35.5 103.5t93.5 41.5q30 0 63 -13.5t56 -39.5l307 -345l30 188l-101 467l-337 203v78l252 329l11 93l41 82l132 98l14 -18h354l-90 -188q69 -23 113.5 -70t44.5 -115q0 -47 -25 -98t-97 -146v-78l170 -50q27 -8 44.5 -22.5t28.5 -31.5
t27 -65l121 -401zM1296 1104l44 -3l150 -326l-106 -483l11 -4l53 89l17 -1l23 -88l-36 -89l15 -8l51 92l-1 80l-37 96l82 335l-114 378q-26 84 -72 97l-203 61v95l-100 85q55 76 61.5 88.5t6.5 19.5q0 29 -23 29q-22 0 -42 -26l-175 99l-82 -186l39 -2l42 -113l92 30
l23 -161h-31l-381 142l166 295l139 165l-9 9l-85 -60l-15 9l14 89l81 79l-1 3l-8 11l-97 -77l-32 -73l-18 -112l-242 -309l2 -49l338 -208l101 -482l-34 -202l304 67zM1249 553h-17l-347 -74l-451 -209l86 -107l729 41v349zM1514 67l-142 18l-119 86l-754 -43l-102 124
q-59 -31 -59 -85q0 -58 40 -92.5t112 -34.5q49 0 115 6t515 67l262 -75h132v29zM851 502l-325 359l-49 -111l121 -362zM1186 1459q64 85 86.5 135t22.5 92q0 44 -35 79.5t-91 56t-112 20.5q-117 0 -145 -88l160 -92q26 21 49 21q26 0 41 -19.5t15 -42.5q0 -20 -31 -65
l-29 -36zM495 876q-21 12 -54 12q-40 0 -64.5 -28.5t-24.5 -76.5q0 -9 1.5 -20t117.5 -437l90 44l-124 378zM649 1446l331 -125l-14 83l-83 -29l-49 129l-64 3l102 226l4 27q20 78 91 106l-63 130l-58 -56l-9 -55l73 49l39 -37l-157 -197zM930 2019l67 -135h151l66 135h-284
zM340 56q-18 20 -29 46l-24 -17l-142 -18v-29h132zM999 1608l-48 -5q-41 0 -71 26q6 8 23 13.5t31 5.5q23 0 37 -9t28 -31z" />
  </g>

</svg>
