<?xml version="1.0" standalone="no"?>
<!DOCTYPE svg PUBLIC "-//W3C//DTD SVG 1.1//EN" "http://www.w3.org/Graphics/SVG/1.1/DTD/svg11.dtd" >
<svg xmlns="http://www.w3.org/2000/svg" xmlns:xlink="http://www.w3.org/1999/xlink" version="1.1" viewBox="-10 0 2370 2048">
  <g transform="matrix(1 0 0 -1 0 1638)">
   <path fill="currentColor"
d="M419 0q0 266 -79.5 474.5t-239.5 340.5l16 44q161 0 295 -60.5t226.5 -178.5t127.5 -260h962q111 0 204.5 -27.5t164.5 -78.5t117.5 -123t46.5 -131h-1841zM2213 40q-29 83 -100 148.5t-170 98.5t-216 33h-994q-29 132 -108 246.5t-198.5 177.5t-266.5 72
q295 -270 299 -776h1754z" />
  </g>

</svg>
