<?xml version="1.0" standalone="no"?>
<!DOCTYPE svg PUBLIC "-//W3C//DTD SVG 1.1//EN" "http://www.w3.org/Graphics/SVG/1.1/DTD/svg11.dtd" >
<svg xmlns="http://www.w3.org/2000/svg" xmlns:xlink="http://www.w3.org/1999/xlink" version="1.1" viewBox="-10 0 1548 2048">
  <g transform="scale(1, -1)"  transform-origin="center">
   <path fill="currentColor"
d="M1253 1038h-74l-53 -234l-4 -216l41 -5v-389l102 -72l173 -30v-92h-182l-278 78l-404 -59q-127 -19 -202 -19q-90 0 -141.5 45t-51.5 120q0 33 13 56t43 45t144 73l93 395l-372 258l22 32l359 -249l60 256l38 -10l-63 -270l156 -109l32 91q63 166 63 247v14l-127 146
l228 350l-23 84l-83 -29l-49 129l-64 3l102 226l4 27q15 58 57 89t122 31q174 0 234 -94q57 85 119 85q37 0 59 -18.5t22 -51.5q0 -44 -48.5 -77.5t-114.5 -35.5q30 -27 73.5 -51t73.5 -30l-5 -44q-57 11 -134 64zM686 1141l126 -139q-1 -63 -21 -129t-44 -132.5
t-44.5 -133.5t-21.5 -131l405 109l5 229l51 224h-237l47 642q55 76 61.5 88.5t6.5 19.5q0 29 -23 29q-22 0 -42 -26l-175 99l-82 -186l39 -2l42 -113l92 30l36 -134zM954 1078h257l-34 616q-3 61 -7 118t-25 101.5t-69 71.5t-140 27q-117 0 -145 -88l160 -92q26 21 49 21
q26 0 41 -19.5t15 -42.5q0 -13 -11 -32.5t-58 -82.5zM1128 553h-17l-396 -109l-402 -174l86 -107l729 41v349zM1399 67l-148 18l-119 86l-754 -43l-102 124q-59 -31 -59 -85q0 -58 40 -92.5t112 -34.5q42 0 111.5 8t510.5 72l270 -82h138v29zM645 458l-1 28q0 53 17 117
l-155 107l-82 -351zM1287 2001q-20 0 -47 -25t-50 -64l7 -19q42 6 83.5 30t41.5 47q0 31 -35 31zM878 1778l-48 -5q-41 0 -71 26q6 8 23 13.5t31 5.5q23 0 37 -9t28 -31z" />
  </g>

</svg>
