<?xml version="1.0" standalone="no"?>
<!DOCTYPE svg PUBLIC "-//W3C//DTD SVG 1.1//EN" "http://www.w3.org/Graphics/SVG/1.1/DTD/svg11.dtd" >
<svg xmlns="http://www.w3.org/2000/svg" xmlns:xlink="http://www.w3.org/1999/xlink" version="1.1" viewBox="-10 0 1088 2048">
  <g transform="scale(1, -1)"  transform-origin="center">
   <path fill="currentColor"
d="M718 1628q50 -13 50 -55q0 -17 -9 -32v-117q0 -51 -25 -107l45 -29q52 -58 113 -163t67 -143v-54q-11 -45 -119 -175q41 -54 73 -108t39 -77v-67q0 -28 -143 -309q-18 -35 -18 -43q0 -14 21 -22l166 -59v-68h-359v94q12 23 21 63.5t20 90.5q14 68 29.5 134.5t42.5 113.5
q-37 18 -94 58.5t-78 69.5h-2v-351q17 -11 27.5 -40t10.5 -65q0 -48 -17.5 -80t-40.5 -32q-25 0 -41 32.5t-16 79.5q0 38 10.5 67t28.5 40v349h-2q-22 -29 -74.5 -66.5t-97.5 -61.5q27 -47 42.5 -113.5t29.5 -134.5q11 -50 20 -90.5t21 -63.5v-94h-359v68l166 59q21 8 21 22
l-1 7l-84 173q-76 155 -76 172v67q7 26 45.5 89t66.5 96q-29 32 -70.5 89t-48.5 86v54q7 40 72 150.5t108 155.5l49 33q-22 53 -22 103v117q-9 15 -9 32q0 43 50 55l-13 65q-62 89 -149 176q19 47 53.5 80t66.5 33q33 0 42 -14q13 35 40 57.5t65 22.5q42 0 71 -29
q29 29 71 29q37 0 64.5 -22.5t40.5 -57.5q9 14 42 14t67.5 -33.5t52.5 -79.5q-37 -37 -82.5 -90t-66.5 -86zM717 1284q-54 -95 -147 -120v142l-31 4l-24 -3v-143q-92 24 -150 123l-39 -26q-45 -51 -104 -150.5t-65 -133.5v-49q6 -17 36.5 -59t69.5 -87l47 51l-67 116v20
l99 117h8l92 -166v-10q-69 -60 -154 -157h1q-27 -29 -70 -95.5t-55 -95.5v-62l158 -330q4 -9 4 -18q0 -14 -12.5 -31t-45.5 -28l-137 -47v-13h290v51q-17 35 -41 156q-27 125 -44 173t-38 83l-1 20q72 36 128.5 77.5t67.5 68.5h92q11 -27 69 -69.5t127 -76.5l-1 -20
q-21 -33 -38 -83t-44 -173q-24 -121 -41 -156v-51h290v13l-137 47q-33 11 -45.5 28t-12.5 31q0 9 4 18l158 330v62q-13 32 -58 99.5t-67 91.5h1q-85 97 -154 157v10l92 166h8l99 -117v-20l-67 -116l47 -51q87 100 106 146v49q-7 35 -66.5 135t-102.5 149zM570 1344v52
q58 31 82 71l13 21q7 13 20 24q45 42 45 61q0 13 -15.5 17.5t-57.5 4.5h-229q-42 0 -57.5 -4.5t-15.5 -17.5q0 -19 45 -61q13 -11 21 -24q20 -36 37 -53.5t57 -38.5v-50l24 2zM561 1693h40q17 127 90 254q-8 24 -27 44.5t-50 20.5q-34 0 -53 -23v-296zM525 1989
q-19 23 -53 23q-31 0 -50 -20.5t-27 -44.5q73 -127 90 -254h40v296zM638 1693h51q18 32 61 85.5t88 99.5q-14 31 -34.5 49.5t-41.5 18.5q-26 0 -38 -14q-67 -121 -86 -239zM324 1946q-20 0 -41 -18.5t-35 -49.5q43 -43 87 -97.5t62 -87.5h51q-19 118 -86 239q-12 14 -38 14z
M604 1372v-155q39 14 74.5 71.5t42.5 118.5v87l-10 -8q-11 -9 -25 -38q-24 -42 -82 -76zM364 1407q7 -59 42.5 -117.5t74.5 -72.5v155q-58 34 -82 76q-9 19 -14.5 26.5t-20.5 19.5v-87zM280 957l56 -96l61 61l-58 104zM681 922l61 -61l56 96l-59 69zM691 1632l6 31h-308
l6 -31h296zM511 168q0 -35 8 -58.5t19 -23.5q12 0 20 23.5t8 58.5q0 34 -8 57t-19 25h-2q-11 -2 -18.5 -25t-7.5 -57zM476 1546q28 0 41 -26q-12 -26 -41 -26t-41 26q13 26 41 26zM609 1546q28 0 41 -26q-12 -26 -41 -26t-41 26q13 26 41 26z" />
  </g>

</svg>
