<?xml version="1.0" standalone="no"?>
<!DOCTYPE svg PUBLIC "-//W3C//DTD SVG 1.1//EN" "http://www.w3.org/Graphics/SVG/1.1/DTD/svg11.dtd" >
<svg xmlns="http://www.w3.org/2000/svg" xmlns:xlink="http://www.w3.org/1999/xlink" version="1.1" viewBox="-10 0 1397 2048">
  <g transform="scale(1, -1)"  transform-origin="center">
   <path fill="currentColor"
d="M587 1851q0 84 60 142.5t142 58.5t142 -58.5t60 -142.5q0 -76 -48 -130q114 60 153 189l60 -1q-4 -118 -71 -198t-178 -109q145 -43 220.5 -173t75.5 -344v-296h-78v-632l162 -68v-89h-1187v89l212 90l-93 364q-21 98 -21 146q0 51 34 89t82 38q47 0 79.5 -23t59.5 -56
l213 -262l34 314h-85v64q0 70 26.5 155.5t64.5 133.5l-289 250h-46l176 144q63 51 111 69q-108 31 -172 111.5t-66 192.5l60 1q39 -130 156 -190q-49 55 -49 131zM1087 136v712q0 108 -46 168t-130 60q-67 0 -108.5 -56t-53.5 -159l-53 -446l-25 -10l-240 298
q-22 27 -49.5 50t-62.5 23q-38 0 -60.5 -25t-22.5 -63q0 -30 26 -151l96 -373l-218 -98v-26h1107v26zM653 829h51l4 36q13 118 68.5 184.5t137.5 66.5q97 0 154 -72.5t57 -196.5v-18h40v256q0 202 -74.5 327.5t-237.5 162.5q22 -19 36 -61.5t14 -80.5q0 -56 -23 -106
t-60 -98l-66 -87q-47 -62 -74 -148.5t-27 -164.5zM556 1430v-38h-75l248 -218l77 100q24 32 40.5 81.5t16.5 81.5q0 71 -33.5 108.5t-92.5 37.5q-49 0 -86.5 -22.5t-69.5 -48.5l-100 -82h75zM625 1851q0 -68 49 -115.5t115 -47.5t115 47.5t49 115.5t-49 115.5t-115 47.5
t-115 -47.5t-49 -115.5zM788 1623q131 0 222 64.5t108 174.5q-43 -96 -132.5 -154.5t-197.5 -58.5t-197.5 58.5t-132.5 154.5q17 -109 108 -174t222 -65zM624 1475q0 16 11 27t27 11q17 0 28 -11t11 -27q0 -17 -11 -28t-28 -11q-16 0 -27 11t-11 28z" />
  </g>

</svg>
