<?xml version="1.0" standalone="no"?>
<!DOCTYPE svg PUBLIC "-//W3C//DTD SVG 1.1//EN" "http://www.w3.org/Graphics/SVG/1.1/DTD/svg11.dtd" >
<svg xmlns="http://www.w3.org/2000/svg" xmlns:xlink="http://www.w3.org/1999/xlink" version="1.1" viewBox="-10 0 1397 2048">
  <g transform="scale(1, -1)"  transform-origin="center">
   <path fill="currentColor"
d="M932 1814q-19 -33 -48 -52q134 -30 202.5 -138.5t68.5 -291.5v-302h-49q13 -50 19 -128l37 -509l-36 -236l161 -68v-89h-1187v89l212 90l-93 364q-21 98 -21 146q0 51 34 89t82 38q47 0 79.5 -23t59.5 -56l213 -262l30 330l-102 130l74 95h-38v94q0 67 49 112t49 92
q0 44 -21 69l-150 -53q-20 -7 -40 -7q-47 0 -62 35q-20 54 -20 63l1 6q-9 5 -31 56t-22 74q0 33 19.5 60.5t47.5 38.5q146 57 176.5 67.5t75.5 23.5q-18 13 -30 28q-17 -5 -36 -5q-59 0 -99.5 45t-40.5 97q0 20 14.5 37.5t40.5 22.5h-5q-14 0 -28 8t-14 19t16 22t44 11
q27 0 44.5 -16.5t17.5 -38.5q0 -27 -8 -48t-8 -50q0 -25 7.5 -35.5t14.5 -10.5l8 2q-5 17 -5 43q0 64 46 111.5t113 47.5q65 0 112 -47.5t47 -111.5l-2 -24l85 -94l-14 -27l-90 66v1zM1081 136l38 236l-33 531q-11 137 -54 197.5t-121 60.5q-83 0 -194 -145q-56 -73 -67 -84
l84 -114l-38 -403l-25 -10l-240 298q-22 27 -49.5 50t-62.5 23q-38 0 -60.5 -25t-22.5 -63q0 -30 26 -151l96 -373l-218 -98v-26h1107v26zM884 1633q0 -14 -3.5 -29t-13 -28t-34.5 -24q13 -34 13 -47q0 -22 -18.5 -46.5t-82.5 -47.5q21 -29 21 -83q0 -58 -49 -101
q-49 -44 -49 -103v-56h31q117 133 215 133q71 0 114 -33t67 -100h22v264q0 342 -262 390q23 -50 26 -63.5t3 -25.5zM764 1730q-33 0 -129 -32l-164 -61q-29 -11 -39 -32t-10 -36t6 -30l29 -69l137 53l14 -35l-136 -54q19 -48 26.5 -54t17.5 -6q11 0 28 6l202 72q56 20 56 58
q0 11 -20 63q43 15 53.5 29.5t10.5 31.5q0 25 -19.5 59t-62.5 37zM675 1892q0 -49 35.5 -84t83.5 -35q49 0 84 35.5t35 83.5q0 49 -35.5 84t-83.5 35q-49 0 -84 -35.5t-35 -83.5zM636 1819q-21 0 -39 19.5t-18 54.5q0 29 7 55t7 43q0 32 -29 32q-27 0 -27 -10q0 -7 20.5 -12
t26.5 -6v-20q-52 -18 -52 -49q0 -51 28.5 -83t74.5 -32l18 3l-4 7zM654 1637q0 12 8 20t20 8t20 -8t8 -20t-8 -20t-20 -8t-20 8t-8 20z" />
  </g>

</svg>
