<?xml version="1.0" standalone="no"?>
<!DOCTYPE svg PUBLIC "-//W3C//DTD SVG 1.1//EN" "http://www.w3.org/Graphics/SVG/1.1/DTD/svg11.dtd" >
<svg xmlns="http://www.w3.org/2000/svg" xmlns:xlink="http://www.w3.org/1999/xlink" version="1.1" viewBox="-10 0 1502 2048">
  <g transform="matrix(1 0 0 -1 0 1638)">
   <path fill="currentColor"
d="M742 525l34 301q19 160 107 220l-12 98l-45 -16l-112 -153l-72 61l131 119l-34 89l-64 3l101 221l-15 79l7 10l10 -1l128 338q31 75 49.5 99.5t46 40.5t66.5 16q66 0 101 -42q38 42 99 42q33 0 70.5 -14.5t53.5 -35.5l-196 -634l30 2q47 0 74.5 -32.5t27.5 -93.5v-1049
l-40 7v1036q0 40 -16.5 67t-53.5 27q-16 0 -35 -7l-54 -180l-32 7l-13 -101q109 -66 109 -241v-651l162 -68v-89h-1187v89l212 90l-93 425q-21 98 -21 146q0 40 20 72l-33 110l18 31h38v455q0 70 -19.5 101.5t-51.5 42.5q-58 -97 -58 -205h-53q-12 30 -19 67t-7 62
q0 36 18.5 88.5t51.5 106.5q47 78 57.5 115t10.5 74v10h53q32 -51 32 -122q0 -34 -11.5 -64.5t-36.5 -73.5q45 -21 71 -76.5t26 -131.5v-449h38l120 -178zM1343 1982q-8 11 -30 20.5t-51 9.5q-37 0 -63 -27.5t-52 -96.5l-130 -340l188 -7zM982 1077q32 0 62 -9l13 92l-64 16
l23 133q21 17 29.5 36t8.5 27q0 29 -23 29q-22 0 -42 -26l-194 57l-71 -158l39 -2l42 -113l92 30l18 -126q34 14 67 14zM1142 1973q-17 39 -80 39q-37 0 -63.5 -27.5t-52.5 -96.5l-126 -333l156 -6zM1194 1504l-388 15l9 -52l170 -51q26 21 49 21q26 0 41 -19.5t15 -42.5
q0 -20 -11 -43t-28 -33l-19 -94l72 -18zM856 1343q-41 0 -71 26q6 8 23 13.5t31 5.5q23 0 37 -9t28 -31zM741 465l-242 299q-22 27 -49.5 50t-62.5 23q-38 0 -60.5 -25t-22.5 -63q0 -37 19 -117l103 -468l-218 -98v-26h1107v26l-160 70v673q0 108 -46 168t-130 60
q-67 0 -108.5 -56t-53.5 -159l-46 -347zM269 1813q-3 -54 -53 -137q-47 -77 -61.5 -120t-14.5 -100q0 -27 4 -50h10l-1 15q0 56 37 142q9 24 48 82q43 65 43 127l-3 41h-9zM382 877q25 0 43 -4l-35 50h-82l-6 -11l16 -56q29 21 64 21z" />
  </g>

</svg>
