<?xml version="1.0" standalone="no"?>
<!DOCTYPE svg PUBLIC "-//W3C//DTD SVG 1.1//EN" "http://www.w3.org/Graphics/SVG/1.1/DTD/svg11.dtd" >
<svg xmlns="http://www.w3.org/2000/svg" xmlns:xlink="http://www.w3.org/1999/xlink" version="1.1" viewBox="-10 0 1397 2048">
  <g transform="matrix(1 0 0 -1 0 1638)">
   <path fill="currentColor"
d="M718 983h-77v54q0 16 72 148q56 101 56 150q0 26 -11 48.5t-32 31.5l-324 15q-16 0 -39.5 29t-23.5 59v42q133 19 176.5 29.5t70.5 34.5q53 46 92 69t77 23h86q14 101 14 188q0 75 -14 147h63q20 -33 40.5 -81t24.5 -82q21 69 21 123l-2 28h62q19 -53 30.5 -113.5
t11.5 -96.5q0 -98 -47 -187q77 -139 110.5 -267.5t33.5 -273.5v-118h-69q5 -50 5 -83v-743l162 -68v-89h-1187v89l212 90l-103 465q-17 79 -17 146q0 50 35.5 88.5t86.5 38.5q37 0 63 -11t48 -35.5t241 -294.5l46 373zM1087 136v756q0 137 -43 197.5t-126 60.5
q-78 0 -117.5 -61.5t-51.5 -183.5l-53 -389l-25 -10l-240 298q-22 27 -49.5 50t-62.5 23q-38 0 -63.5 -25t-25.5 -63q0 -48 22 -151l106 -474l-218 -98v-26h1107v26zM921 1190q157 0 192 -167h36v78q0 291 -150 541q21 38 37 89.5t16 96.5q0 44 -12 89l-16 63
q-8 -100 -47.5 -183t-99.5 -118h-124q-34 0 -103 -54l-52 -40q-23 -18 -41.5 -24.5t-44.5 -12t-131 -23.5q0 -25 12.5 -38.5t29.5 -14.5l312 -17q35 -14 54.5 -48t19.5 -72q0 -44 -26.5 -102t-56.5 -110q-45 -79 -45 -87v-13h46q51 167 194 167zM883 2010q11 -62 11 -124
q0 -77 -13 -157q47 40 65 84q-17 128 -63 197zM869 1607q-16 -11 -28.5 -18t-31.5 -7q-32 0 -67 20q28 33 65 33q32 0 62 -28z" />
  </g>

</svg>
