<?xml version="1.0" standalone="no"?>
<!DOCTYPE svg PUBLIC "-//W3C//DTD SVG 1.1//EN" "http://www.w3.org/Graphics/SVG/1.1/DTD/svg11.dtd" >
<svg xmlns="http://www.w3.org/2000/svg" xmlns:xlink="http://www.w3.org/1999/xlink" version="1.1" viewBox="-10 0 1639 2048">
  <g transform="matrix(1 0 0 -1 0 1638)">
   <path fill="currentColor"
d="M191 131h277v39l87 18q30 6 54.5 20.5t24.5 25.5l-47 292l-12 45l-19 202q-2 14 -8 17t-19 8l-145 46q-37 13 -37 48q0 16 14 27t29 11l19 -3q43 -14 141 -37q-5 82 -45.5 200.5t-85.5 163.5l-29 -19l-34 46q67 35 89 56.5t30 46.5l-10 67l-37 5l50 109l-2 21v10v6
q0 20 12 37l144 348q14 32 32.5 48t53.5 16q20 0 33.5 -13.5t13.5 -30.5v-5q19 37 54 37q25 0 39 -16.5t14 -41.5t-13 -59l-118 -292q29 -14 40 -44q99 -4 131.5 -51t32.5 -191v-35l152 -1l32 209l-4 53l-95 -244l-27 11l191 498l335 -440l-160 -93l-121 307l-30 -96
l-41 -341l-232 -7v-1034h193v-131h-1038zM673 231q0 -20 -27.5 -38t-73.5 -28l-66 -13v-21h227q6 32 6 91q0 104 -10 269q5 85 38 295l5 46q0 75 -26 129l21 239l383 8l38 302l43 101l-3 42l-15 38l-12 -4l15 -38l-5 -45l-30 -61l-21 7l-3 52l10 25l-11 6l-13 -34l9 -95
l-33 -235l-260 7q-28 7 -185 24l-4 102q-19 10 -19 54q0 25 13 54q-10 25 -11 39h-144l-35 -75l21 -3l12 -80l74 -5v-87h-101l-26 -26q96 -129 133 -362l3 -27q0 -26 -18 -26h-4q-70 6 -168 39l-7 1q-10 0 -10 -8q0 -9 14 -15l164 -48q19 -5 26 -13.5t9 -28.5l18 -214
l13 -43l44 -275zM906 1163l-102 -5l-19 -182q29 -62 29 -144q0 -26 -21 -145q-23 -129 -24 -196l3 -74q4 -72 4 -203q0 -33 -5 -83h135v1032zM170 38h930v55h-892zM786 1541q0 -47 -23 -92.5t-57 -51.5v-62l78 -9l88 -14l34 -2v34q0 93 -10 129.5t-33.5 53.5t-76.5 21v-7z
M1224 1744l159 -402l104 62zM614 1652q-97 0 -97 -57v-9h137q4 29 31 42q-26 24 -71 24zM699 1664l23 -11l112 279q10 25 12 47q0 16 -10 26zM708 2023q-19 0 -29.5 -15.5t-19.5 -38.5l-116 -291l29 9zM755 1541v8h-70q2 -13 13 -36q-15 -34 -15 -57q0 -15 0.5 -23t11.5 -8
q22 0 41 34.5t19 81.5zM688 1771q12 -7 19 -19l104 256q-29 -2 -51 -57zM637 1781l14 1l13 -1l68 168q12 34 12 49q0 16 -9 24zM614 1717q0 -14 10.5 -26t28.5 -12q14 0 25.5 10.5t11.5 28.5q0 15 -10.5 26.5t-27.5 11.5q-27 0 -35 -24zM1187 1634l-14 -35l1 -21l3 -1l15 33
l7 39l-17 47l29 8l-17 42l-39 -100zM554 1329v37l-38 3q-10 -31 -16 -40h54zM581 1517q-21 -13 -37 -13q-34 0 -34 16q0 8 10 12.5t21 4.5q20 0 40 -20zM715 1610q-26 0 -30 -24h63q-11 24 -33 24z" />
  </g>

</svg>
