<?xml version="1.0" standalone="no"?>
<!DOCTYPE svg PUBLIC "-//W3C//DTD SVG 1.1//EN" "http://www.w3.org/Graphics/SVG/1.1/DTD/svg11.dtd" >
<svg xmlns="http://www.w3.org/2000/svg" xmlns:xlink="http://www.w3.org/1999/xlink" version="1.1" viewBox="-10 0 2565 2048">
  <g transform="matrix(1 0 0 -1 0 1638)">
   <path fill="currentColor"
d="M135 759q266 250 555 398.5t544 148.5q149 0 284.5 -36t265.5 -100.5t336 -206.5q91 -63 169 -111t150 -62l-8 -40q-78 14 -207 96l-61 -17q-267 -77 -487.5 -126.5t-346.5 -63.5l712 -949q72 -99 166 -99q74 0 125.5 45.5t51.5 118.5q0 65 -42 114.5t-106 49.5
q-54 0 -91.5 -35.5t-48.5 -91.5l-40 6q16 70 62.5 115.5t117.5 45.5q81 0 134.5 -62t53.5 -142q0 -89 -61.5 -146.5t-155.5 -57.5q-56 0 -102.5 24.5t-99.5 95t-723 964.5h-3v-1084h-90q-21 212 -93.5 438.5t-153.5 299.5v59q81 17 130.5 44.5t72 71t31.5 173.5
q-95 8 -271 39t-382 76.5t-268 62.5l-92 -84zM941 969q0 -121 85.5 -206.5t206.5 -85.5t206.5 85.5t85.5 206.5t-85.5 206.5t-206.5 85.5t-206.5 -85.5t-85.5 -206.5zM2098 930q-189 129 -284 179t-197 88t-212 55q72 -44 116 -118t44 -165q0 -84 -40.5 -158.5
t-111.5 -120.5q286 46 768 184l-83 57v-1zM901 969q0 88 41 160t109 117q-174 -36 -366 -136.5t-391 -262.5q148 -37 378 -85t377 -69q-67 45 -107.5 117t-40.5 159zM100 902q73 97 218.5 222.5t297 211.5t308.5 133.5t311 47.5q129 0 286.5 -42t319 -121t295.5 -168
q66 -44 172 -109.5t147 -87.5l-20 -34q-27 15 -152 90.5t-173 110.5q-121 83 -285.5 162.5t-314 119t-275.5 39.5q-148 0 -296.5 -44.5t-292 -124.5t-287.5 -201t-227 -229zM1239 -409v1043h-11l-12 1q-6 -119 -26 -172.5t-70.5 -88.5t-134.5 -53v-13q78 -78 149.5 -295
t91.5 -422h13z" />
  </g>

</svg>
