<?xml version="1.0" standalone="no"?>
<!DOCTYPE svg PUBLIC "-//W3C//DTD SVG 1.1//EN" "http://www.w3.org/Graphics/SVG/1.1/DTD/svg11.dtd" >
<svg xmlns="http://www.w3.org/2000/svg" xmlns:xlink="http://www.w3.org/1999/xlink" version="1.1" viewBox="-10 0 1264 2048">
  <g transform="matrix(1 0 0 -1 0 1638)">
   <path fill="currentColor"
d="M386 431q0 -18 8 -29t17 -11q41 0 79.5 36t104.5 151t66 146q0 12 -20 12l-11 -1l-48 -13l-25 -4q-63 0 -100.5 57.5t-37.5 144.5q0 109 49 206t137 153t201 56q162 0 255 -108t93 -293q0 -111 -49.5 -228.5t-148 -233.5t-210.5 -192l-62 -41q-133 -86 -175 -149
q-95 -190 -229 -190q-88 0 -134 45.5t-46 131.5q0 58 93 192l27 40q48 72 48 105q0 51 45 105t113 90h18l35 -59l-3 -21q-42 -21 -66 -48.5t-24 -49.5zM662 779q36 -4 36 -45q0 -56 -66 -169.5t-117.5 -163.5t-105.5 -50l-20 2q-11 -46 -49 -97q-29 -39 -36.5 -53.5
t-7.5 -40.5q1 -35 46 -35q26 0 48 20t40 41q26 30 44 42q228 139 324.5 291.5t96.5 340.5q0 76 -39.5 129.5t-100.5 53.5q-67 0 -111.5 -43.5t-44.5 -105.5q0 -52 38 -118l12 1h13zM556 759q-29 24 -48.5 66.5t-19.5 83.5q0 144 90.5 241.5t224.5 97.5q114 0 182 -82.5
t68 -218.5q0 -124 -67.5 -258.5t-202 -268t-289.5 -224.5q-11 -6 -34 -34q-63 -75 -118 -75q-87 0 -87 78l1 20q3 31 52 95q44 57 44 97l-1 15q-5 18 -5 40q0 30 24.5 66t60.5 55l-6 12q-54 -32 -85.5 -72.5t-31.5 -78.5q0 -25 -16.5 -60.5t-66.5 -106.5
q-50 -73 -67.5 -109.5t-17.5 -60.5q0 -66 35.5 -101.5t104.5 -35.5q109 0 193 168q41 68 249 204q96 63 191.5 174.5t148 227t52.5 220.5q0 166 -82 263.5t-226 97.5q-101 0 -179.5 -50.5t-123 -138t-44.5 -186.5q0 -69 26.5 -115t70.5 -46zM559 896q0 80 57 134.5t139 54.5
q79 0 129.5 -64.5t50.5 -158.5q0 -153 -77 -305q155 197 155 390q0 118 -55.5 189.5t-154.5 71.5q-72 0 -135.5 -41t-102.5 -110.5t-39 -139.5q0 -46 15 -81.5t54 -67.5h1q-37 74 -37 128z" />
  </g>

</svg>
