<?xml version="1.0" standalone="no"?>
<!DOCTYPE svg PUBLIC "-//W3C//DTD SVG 1.1//EN" "http://www.w3.org/Graphics/SVG/1.1/DTD/svg11.dtd" >
<svg xmlns="http://www.w3.org/2000/svg" xmlns:xlink="http://www.w3.org/1999/xlink" version="1.1" viewBox="-10 0 1534 2048">
  <g transform="matrix(1 0 0 -1 0 1638)">
   <path fill="currentColor"
d="M1200 944q44 0 67 -20.5t23 -75.5q0 -56 -18 -84q-12 -27 -63 -77t-77 -63h-16q-14 -58 -111 -206l-21 -14v-147q31 -41 168.5 -95.5t271.5 -72.5v-89h-1324v89q132 18 270.5 72.5t169.5 95.5v147l-21 14q-97 148 -111 206h-16q-24 12 -75.5 62t-64.5 78q-18 28 -18 84
q0 55 23 75.5t67 20.5l13 -7q11 115 61.5 183.5t141 103.5t222.5 38q129 -3 220.5 -37.5t142.5 -103.5t62 -184zM1124 664q19 10 63 55.5t50 65.5q13 20 13 63q0 56 -40 56l-59 -32l-1 10q-48 48 -84 65t-87.5 26.5t-123.5 9.5l-93 -3l-93 3q-72 0 -123.5 -9.5t-87.5 -26
t-84 -65.5h-1v-10l-59 32q-40 0 -40 -56q0 -43 13 -63q6 -21 50.5 -66.5t62.5 -54.5h44q2 -55 104 -218q22 -15 63 -31.5t77 -25.5h148q10 0 65.5 21.5t74.5 35.5q99 159 104 218h44zM762 1020l93 3q101 0 171 -18.5t118 -61.5q-22 143 -118 208.5t-264 70.5
q-346 -9 -382 -279q49 44 118.5 62t170.5 18zM625 80v87l45 187l-40 13l-50 18v-152q-32 -46 -174.5 -106t-267.5 -76v-11h1248v11q-126 17 -268.5 76.5t-173.5 105.5v152q-23 -10 -91 -31l46 -187v-87h-274zM859 120v47l-46 182h-102l-46 -182v-47h194zM790 863l28 55
l104 -5v-25l-80 -10l-12 -23v-242h-136v242l-12 23l-80 10v25l104 5l28 -55v-210h56v210zM441 823l20 12q43 29 99 29q67 0 111 -39v-34q-8 -6 -37.5 -17.5t-73.5 -11.5q-69 0 -119 35v26zM762 570q11 0 31 14q17 -16 59 -25t64 -11v-35q-57 -9 -154 -9t-154 9v35l40 7
q63 11 83 29q18 -14 31 -14zM762 541l-11 -1q-14 0 -22 6q-46 -11 -68 -11h-21v-3l122 -3l122 3v3h-21q-22 0 -68 11q-9 -6 -22 -6zM543 814q0 -18 18 -18t18 18t-18 18h-1q-17 -2 -17 -18zM519 814l2 15q-22 -4 -46 -16v-6l22 -6l26 -6q-4 8 -4 19zM639 814q-15 9 -39 14
l3 -14l-3 -17q23 3 39 11v6zM1083 797q-50 -35 -119 -35q-44 0 -73.5 11.5t-37.5 17.5v34q44 39 111 39q56 0 100 -29l19 -12v-26zM981 814q0 16 -17 18h-1q-18 0 -18 -18t18 -18t18 18zM1005 814q0 -11 -4 -19l26 6l22 6v6q-24 12 -46 16zM885 808q16 -8 39 -11l-3 17l3 14
q-23 -5 -39 -14v-6z" />
  </g>

</svg>
