<?xml version="1.0" standalone="no"?>
<!DOCTYPE svg PUBLIC "-//W3C//DTD SVG 1.1//EN" "http://www.w3.org/Graphics/SVG/1.1/DTD/svg11.dtd" >
<svg xmlns="http://www.w3.org/2000/svg" xmlns:xlink="http://www.w3.org/1999/xlink" version="1.1" viewBox="-10 0 1820 2048">
  <g transform="matrix(1 0 0 -1 0 1638)">
   <path fill="currentColor"
d="M1158 1741h100l71 -41l381 -783v-94l-311 -720l-37 -182l-78 -124l-109 -79l-104 -36l-32 65l106 78q21 15 43.5 68t26.5 75t4 41l-17 3l-4 -16q-14 -58 -37 -89t-59 -50l-44 50l24 27q28 32 34 83l7 44l85 79l247 712v61l-261 485l-55 106h-54l-88 -39h-184l-88 39h-54
l-55 -106l-261 -485v-61l247 -712l85 -79l8 -44q5 -51 34 -83l23 -27l-44 -50q-29 15 -49.5 38t-33.5 58.5t-17 58.5l-17 -3q0 -20 4 -41t25.5 -73t40.5 -67.5t110 -80.5l-32 -65l-104 36l-109 79l-78 124l-37 182l-311 720v94l381 783l71 41h100l180 -54h146zM1089 1547h77
l65 -126l268 -502v-61l-258 -735l-89 -75l-8 -44q-6 -47 -30 -78l-17 -22l11 -12q26 13 42.5 46.5t34.5 96.5l62 -6l2 -23q0 -19 -5.5 -46.5t-25.5 -73.5t-39 -67t-104 -82l12 -21l72 30l97 70l75 116l29 181l311 722v64l-369 762l-49 34h-95l-180 -52h-146l-180 52h-95
l-49 -34l-369 -762v-64l311 -722l29 -181l75 -116l97 -70l72 -30l12 21l-78 59q-22 15 -36.5 34.5t-37 75t-22.5 100.5l2 23l62 6q15 -54 32 -92t45 -51l11 12l-17 22q-24 31 -30 78l-8 44l-89 75l-258 735v61l268 502l65 126h77l96 -43h176z" />
  </g>

</svg>
