<?xml version="1.0" standalone="no"?>
<!DOCTYPE svg PUBLIC "-//W3C//DTD SVG 1.1//EN" "http://www.w3.org/Graphics/SVG/1.1/DTD/svg11.dtd" >
<svg xmlns="http://www.w3.org/2000/svg" xmlns:xlink="http://www.w3.org/1999/xlink" version="1.1" viewBox="-10 0 2496 2048">
  <g transform="matrix(1 0 0 -1 0 1638)">
   <path fill="currentColor"
d="M455 1347q203 0 355 -61q-48 -327 -58 -618h458l33 71q210 458 307 591h154l589 -698l14 -34l-26 -697l17 -46h88v-66h-82v-32l-38 -60h-154l-17 38h-52l-12 54h-788q-12 -41 -51 -67t-96 -26q-51 0 -85 26t-45 67h-49v66h48q9 44 42.5 68.5t88.5 24.5q54 0 93.5 -27
t52.5 -66h785l73 149l5 531l-452 519h-16l-45 -99q-107 -233 -223 -438l-59 -50h-560q3 -219 19.5 -458.5t29.5 -338.5h-688q18 147 33.5 400t15.5 444t-17.5 400.5t-42.5 371.5q153 61 355 61zM753 -290q-13 105 -28 349t-15 455q0 354 56 746q-131 47 -311 47t-311 -47
q56 -392 56 -746q0 -363 -43 -804h596zM750 507h550l39 38q63 108 125 231t147 318h65l469 -549l-12 -554l-66 -136h25l8 17l28 -1l-13 -34l-3 -35l5 -29l14 -40h116l19 35v74l-23 55l27 691l-11 22l-582 680h-111q-83 -137 -249 -491l-81 -171h-485l-1 -57v-64zM1002 -178
q0 -36 25 -61t69 -25q52 0 82 25t30 61q0 33 -33.5 59.5t-78.5 26.5q-51 0 -72.5 -25t-21.5 -61zM2084 -211h-20l6 -26h20z" />
  </g>

</svg>
