<?xml version="1.0" standalone="no"?>
<!DOCTYPE svg PUBLIC "-//W3C//DTD SVG 1.1//EN" "http://www.w3.org/Graphics/SVG/1.1/DTD/svg11.dtd" >
<svg xmlns="http://www.w3.org/2000/svg" xmlns:xlink="http://www.w3.org/1999/xlink" version="1.1" viewBox="-10 0 3094 2048">
  <g transform="matrix(1 0 0 -1 0 1638)">
   <path fill="currentColor"
d="M805 354l154 -69l950 53l628 -9l25 20l54 839h324l44 -1062l-62 -82h-1948l-224 -44h-288l-201 88l-161 154l66 94l55 -38l244 930h68l222 -880zM525 109l-84 23q-89 26 -117 46l-151 103l-25 -36l132 -120l189 -85h279l221 44h1934l42 59l-40 1005h-251l-53 -825
l-41 -34l-653 9l-965 -50l-149 66l-29 -4l39 -152l-19 -22l-183 -18zM375 198l102 386l57 -1l109 -423l115 14l-255 1016h-6l-241 -916l92 -62q9 -7 27 -14zM528 149l76 6l-97 388l-97 -357l103 -33l11 -3z" />
  </g>

</svg>
