<?xml version="1.0" standalone="no"?>
<!DOCTYPE svg PUBLIC "-//W3C//DTD SVG 1.1//EN" "http://www.w3.org/Graphics/SVG/1.1/DTD/svg11.dtd" >
<svg xmlns="http://www.w3.org/2000/svg" xmlns:xlink="http://www.w3.org/1999/xlink" version="1.1" viewBox="-10 0 3094 2048">
  <g transform="matrix(1 0 0 -1 0 1638)">
   <path fill="currentColor"
d="M516 893q110 0 162.5 -20t52.5 -74q0 -24 -13 -42t-19 -23q69 -45 110 -118t41 -161q0 -47 -14 -94h70l103 -76l900 53l628 -9l25 20l54 839h324l44 -1062l-62 -82h-1948l-224 -44h-288l-201 88l-161 154l66 94l54 -36q-38 70 -38 155q0 88 41 161t110 118q-6 5 -19 23
t-13 42q0 54 53.5 74t161.5 20zM854 234v-75l-19 -22l-310 -28l-62 16q-41 7 -80 23.5t-52.5 25t-157.5 107.5l-25 -36l132 -120l189 -85h279l221 44h1934l42 59l-40 1005h-251l-53 -825l-41 -34l-653 9l-915 -50l-97 75h-73l-15 -31zM501 161h15q122 0 208 85.5t86 208.5
q0 122 -85.5 208t-208.5 86q-122 0 -208 -85.5t-86 -208.5q0 -69 29 -128t79 -100l45 -29l111 -36zM516 789q78 0 150 -35q25 17 25 47q0 28 -40.5 40t-134.5 12q-90 0 -132.5 -12t-42.5 -40q0 -30 25 -47q72 35 150 35zM815 176v46l-31 34q-45 -59 -106 -93z" />
  </g>

</svg>
