<?xml version="1.0" standalone="no"?>
<!DOCTYPE svg PUBLIC "-//W3C//DTD SVG 1.1//EN" "http://www.w3.org/Graphics/SVG/1.1/DTD/svg11.dtd" >
<svg xmlns="http://www.w3.org/2000/svg" xmlns:xlink="http://www.w3.org/1999/xlink" version="1.1" viewBox="-10 0 2598 2048">
  <g transform="matrix(1 0 0 -1 0 1638)">
   <path fill="currentColor"
d="M2488 226q-242 39 -308 39q-69 0 -125 -19.5t-114 -47.5q-185 -87 -283.5 -115.5t-223.5 -42t-288 -13.5h-261q-97 0 -190.5 0.5t-176.5 9t-153 27t-120.5 55t-79 94t-28.5 142.5v309q0 137 64 232t169 122q-116 21 -193 89t-77 150q0 75 49 113q62 -39 182.5 -63
t229.5 -24l30 1l221 11q291 16 365 16q132 0 226.5 -23t171.5 -70t195 -171q40 -42 73.5 -74.5t75.5 -54.5t100.5 -33t148.5 -11q99 0 163.5 10.5t109.5 19.5l47 8v-686zM2448 864q-147 -30 -280 -30q-96 0 -159 12t-108 35t-81 58t-79 80h1q-117 121 -189 165.5t-161 65.5
t-215 21q-84 0 -178 -5q-377 -23 -437 -23q-104 0 -220.5 22.5t-183.5 54.5q-18 -25 -18 -63q0 -154 320 -222h600v-40h-594q-125 0 -207 -95.5t-82 -235.5v-309q0 -150 123 -219t415 -69h431q260 0 414 31.5t363 135.5q105 48 153.5 59.5t103.5 11.5q58 0 268 -30v589z" />
  </g>

</svg>
