<?xml version="1.0" standalone="no"?>
<!DOCTYPE svg PUBLIC "-//W3C//DTD SVG 1.1//EN" "http://www.w3.org/Graphics/SVG/1.1/DTD/svg11.dtd" >
<svg xmlns="http://www.w3.org/2000/svg" xmlns:xlink="http://www.w3.org/1999/xlink" version="1.1" viewBox="-10 0 2530 2048">
  <g transform="matrix(1 0 0 -1 0 1638)">
   <path fill="currentColor"
d="M2420 -37v-141h-327q-38 1 -119 22q-75 19 -111 19q-20 0 -78 -20q-59 -21 -96 -21h-111q-45 36 -63 73t-24 77q31 124 31 156q0 36 -10 91q-198 257 -243 339q-71 125 -154.5 302.5t-96.5 214.5q-20 -54 -140 -272l-71 -130q-22 -42 -166 -252q-119 -174 -119 -220
q0 -64 139 -122t389 -116v-141h-327q-38 1 -119 22q-75 19 -111 19q-20 0 -78 -20q-59 -21 -96 -21h-131q-35 27 -61 70.5t-26 79.5l20 68q40 147 75 227l26 61q109 261 188.5 436.5t255 469t273.5 410.5h200q192 -303 316 -534.5t166 -344.5l33 -88q177 -482 295 -556
q99 -66 471 -158zM996 1120h46l-1 -2q0 -5 91 -201.5t171 -338.5q48 -87 245 -342l7 -37q7 -56 7 -71q0 -26 -12 -81.5t-17 -71.5q4 -38 25 -68.5t40 -44.5h84q31 0 93 21q61 20 88 20q34 0 121 -20q83 -20 124 -20l274 -1v70q-368 96 -455 155q-50 32 -96.5 103.5
t-92.5 171t-122 301.5q-48 133 -91.5 225.5t-108.5 212.5t-168.5 292t-130.5 211h-160q-104 -128 -253 -378t-222 -403q-18 -36 -40.5 -86.5t-47.5 -107t-50 -115t-46.5 -110t-38.5 -92.5t-26 -62q-27 -69 -53.5 -154.5t-36.5 -120.5q10 -72 65 -113h104q31 0 93 21
q61 20 88 20q34 0 121 -20q83 -20 124 -20l274 -1v70q-110 27 -208 57t-166 57.5t-113.5 64.5t-45.5 77q0 35 41 117q17 35 111 174l141 214q25 38 117 212t107 215z" />
  </g>

</svg>
