<?xml version="1.0" standalone="no"?>
<!DOCTYPE svg PUBLIC "-//W3C//DTD SVG 1.1//EN" "http://www.w3.org/Graphics/SVG/1.1/DTD/svg11.dtd" >
<svg xmlns="http://www.w3.org/2000/svg" xmlns:xlink="http://www.w3.org/1999/xlink" version="1.1" viewBox="-10 0 2326 2048">
  <g transform="matrix(1 0 0 -1 0 1638)">
   <path fill="currentColor"
d="M1673 -41l-62 67q-72 74 -114 139.5t-62 133.5q-24 31 -78 65.5t-103.5 50.5t-211.5 54q-38 -84 -76 -166t-73 -168l-74 -325l-123 -59h-179v101l166 78q16 58 30.5 179t37.5 427l20 253q-82 202 -91 243l-9 41q-33 157 -73 207.5t-124 50.5q-35 0 -66 -11t-63 -25
q-16 -8 -47 -19t-47 -11q-36 0 -55 15l-31 -29l-65 58q144 174 268 249q36 22 81 67q38 38 75.5 53.5t139.5 27.5l122 340l143 -46l-48 -110l88 100l119 -105l-196 -191q-37 -35 -37 -56q0 -25 128 -201q150 -205 183 -270q33 -38 120 -92.5t320 -170.5l88 -44
q97 -50 183.5 -166.5t125.5 -254.5l3 130q0 145 -7 334l-16 415l94 115h47l92 -106q-71 -919 -163 -1396q-17 -72 -77.5 -120.5t-128.5 -48.5h-435q-88 0 -148 10l-9 -21h-193v91q17 35 49.5 54.5t67.5 19.5q46 0 126 -19zM2049 1338l-26 -33q23 -332 23 -643
q0 -253 -15 -403l-40 1q-3 107 -46.5 222t-118 209t-150.5 133l-167 84q-307 153 -375 236q-39 83 -184 281q-135 184 -135 212q0 22 6 36.5t25 31.5l184 179l-57 49q-56 -67 -136 -148t-126 -111q-139 -22 -176 -38t-66 -47q-34 -37 -82 -63q-40 -21 -77.5 -52t-69 -63
t-55.5 -59.5t-36 -40.5l17 -14q49 49 149 111l17 -23q-58 -32 -109 -77q7 -5 19 -5q29 0 89 26q35 15 68.5 28.5t74.5 13.5q45 0 90.5 -20t72.5 -55q38 -58 62 -162l28 -120l59 -157q26 109 71 184l34 -20q-61 -109 -82 -251q-5 -32 -10 -116q-27 -451 -77 -740l-169 -80
v-45h23v35h23v-35h29v35h23v-35h35l99 44l70 316q43 109 121 271.5t115 216.5l33 -15q-31 -53 -64 -117l51 -11q83 -19 136.5 -35t103 -44.5t87.5 -61.5q3 69 27 125t55 87l28 -28q-28 -28 -49 -81t-21 -120q0 -54 31 -108.5t75 -107t90.5 -100.5t78.5 -87
q-51 -10 -103.5 -19t-344.5 -54q-80 16 -126 16q-22 0 -42.5 -12.5t-34.5 -32.5v-40h26v35h23v-35h29v35h23v-35h24l12 30q68 -19 173 -19h435q57 0 107 41.5t60 96.5q77 396 163 1375l-28 30l-14 -260l-26 2l16 285l-20 23l-12 1l-20 -26l16 -283l-26 -2zM714 1726
q38 30 97 91l70 159l-69 20zM488 1517q6 22 24.5 37t39.5 15q31 0 50 -12q-9 -20 -27.5 -37t-44.5 -17q-28 0 -42 14z" />
  </g>

</svg>
