<?xml version="1.0" standalone="no"?>
<!DOCTYPE svg PUBLIC "-//W3C//DTD SVG 1.1//EN" "http://www.w3.org/Graphics/SVG/1.1/DTD/svg11.dtd" >
<svg xmlns="http://www.w3.org/2000/svg" xmlns:xlink="http://www.w3.org/1999/xlink" version="1.1" viewBox="-10 0 1408 2048">
  <g transform="matrix(1 0 0 -1 0 1638)">
   <path fill="currentColor"
d="M927 -448h-169q4 21 9 40q5 17 11.5 34t17.5 30q5 7 15 16t20 17q11 9 23 18l7 462q-1 3 -3.5 20.5t-6.5 43t-8.5 57t-8 61t-6 55t-2.5 40.5q-27 -2 -54.5 -2t-55.5 4l-119 12q-11 -39 -20 -72t-11 -58q-2 -23 -2 -50t0.5 -53t1 -48.5t0.5 -35.5q0 -16 -3.5 -41.5
t-7 -53.5t-6.5 -54.5t-3 -43.5q0 -11 0.5 -28t1 -35.5t1 -35t0.5 -25.5q0 -45 -6 -74.5t-10 -46.5q-2 -10 -6 -21t-7 -21q-4 -11 -8 -23l-1 -59l-9 -29h-169q4 21 9 40q5 17 11.5 34t17.5 30q6 7 14.5 17.5t17 24t16 29.5t11.5 35q-1 37 -1 69v88q0 16 -3 51.5t-7 73.5
t-7.5 70t-5.5 43q-1 4 -2 9.5t-2 12.5q-8 -23 -17.5 -51t-18.5 -54.5t-15.5 -47.5t-8.5 -30q-4 -14 -6.5 -36t-4.5 -47q-2 -17 -4 -33.5t-4 -32.5q-3 -19 -7.5 -45.5t-8.5 -51.5q-4 -29 -9 -59h-2l-6 -18t-5 -17q-3 -9 -6 -16l-1 -59l-9 -29h-169q4 21 9 40q5 17 11.5 34
t17.5 30q6 7 14.5 17.5t17 24t16 29.5t11.5 35h1q5 19 13 50.5t14.5 64.5t11.5 63.5t4 49.5q-1 26 1.5 66t7 84t10.5 86.5t11 72.5q5 27 11.5 58t12.5 60q8 35 13 60.5t6 32.5l6 144q-6 13 -16.5 37.5t-20.5 54.5t-17 63t-7 63q0 28 8 56.5t20 56t25.5 52.5t24.5 45
q8 14 12.5 23t7.5 16q3 9 4.5 28t1.5 43q0 28 -1 59t-3 60q-1 17 -2 33t-1 29q-1 22 -0.5 69.5t1.5 102t3.5 108t5.5 87.5q-17 -9 -35.5 -19t-37 -18t-36 -13t-31.5 -5q-11 0 -22.5 1.5t-21 7.5t-16 17.5t-6.5 30.5q0 25 11.5 55.5t28.5 61.5t35.5 61t32.5 53
q8 14 18.5 29.5t22.5 31.5q-9 7 -19.5 18t-19.5 23.5t-15 25.5t-6 26q0 24 12.5 42.5t26.5 18.5q20 0 36 -10t27.5 -24.5t19 -31.5t10.5 -31l15 4v1q-1 4 -4.5 12.5t-3.5 17.5q0 8 5 14.5t21 6.5t22.5 -6t6.5 -15t-2.5 -17t-3.5 -15v-1q14 -3 31 -11l2 6q1 3 2.5 10.5
t4.5 14.5t9 12.5t15 5.5q23 0 28.5 -11.5t5.5 -20.5q0 -15 -11 -22.5t-18 -14.5l-3 -3l9 -9l9 -9q23 26 51 47.5t67 21.5q10 0 21.5 -2t21.5 -6.5t16.5 -12.5t6.5 -19q0 -35 -37 -65t-104 -41q11 -33 11 -59q0 -15 0.5 -59t2.5 -104.5t5 -129t7 -131t9.5 -112.5t13.5 -72
q17 -38 34 -68.5t30 -52.5q5 -9 10 -17t9 -16l-1 1q11 -20 22.5 -42t21.5 -42q11 -22 19.5 -40.5t16.5 -31.5q12 -18 36.5 -37.5t56 -38t66.5 -37t67 -35.5q50 -26 93 -51.5t60 -45.5q27 -31 43.5 -74.5t25.5 -86.5t12.5 -77t3.5 -46q0 -11 0.5 -38t2.5 -56q2 -33 4 -73
q1 -3 6 -19.5t11 -39t12.5 -48t10.5 -44.5q4 -20 8 -47t3 -51t-10 -40.5t-32 -16.5q-21 0 -36 13.5t-25.5 33.5t-16.5 43t-9 42q-2 12 -5 34.5t-5 48t-3 51t1 44.5l-11 138q-1 9 -2 22.5t-2.5 28t-3.5 28t-4 22.5q-9 -21 -20.5 -48t-22.5 -54t-20.5 -50t-14.5 -34
q-5 -9 -12 -26l70 -425q2 -6 10 -35.5t18 -62.5q11 -39 26 -86v-74l3 -59l-11 -29h-171q3 21 9 41q5 17 14.5 35t24.5 30l4 56l-67 239q-2 -46 -3.5 -92t-3.5 -83q-2 -44 -3 -84l-26 -54l-1 -59zM619 702q7 -41 7 -67q0 -75 -19 -135q12 -2 26.5 -3.5t30 -3t30.5 -3t26 -2.5
q27 -3 54 -2.5t56 1.5q5 23 13 44t16 37q10 18 20 35l34 -22q-13 -20 -24 -43q-9 -20 -16 -44t-7 -47q0 -10 1.5 -27t3.5 -38t5.5 -44.5t6.5 -46.5q8 -54 18 -116l-15 -484q-6 -5 -12 -11q-5 -5 -12.5 -11.5t-14.5 -14.5h52q2 8 6.5 17.5t8.5 17.5q4 10 9 19q0 10 1.5 40.5
t3 71.5t3.5 88t4 90t4 77.5t3 50.5q2 26 11.5 60t21 67.5t24 63.5t20.5 48q4 9 11 24t15 33.5t17.5 39.5t18.5 41q21 48 45 102h20q6 -15 15 -55.5t14 -112.5q0 -9 2 -32.5t4 -48.5q3 -29 5 -64q2 -33 6 -64q3 -26 6.5 -55t6.5 -49q3 -17 6.5 -35.5t9 -34t13.5 -25.5t19 -10
q7 0 8.5 13.5t0.5 32t-3.5 37t-3.5 28.5q-2 10 -8 35.5t-13 51.5q-8 31 -18 67q-2 41 -4 76q-2 30 -2.5 59t-0.5 40t-3 39.5t-12.5 66t-26.5 78.5t-45 76q-13 17 -52 38t-87 47q-35 18 -72 37.5t-70.5 40t-60 42t-39.5 44.5q-10 17 -19 35.5t-19 38.5t-21 41t-22 41
q-4 8 -8 15.5t-9 16.5q-14 22 -31 53.5t-35 71.5q-9 20 -15.5 69.5t-11.5 114t-7.5 136t-4.5 134t-2.5 109t-0.5 61.5q0 19 -8 45.5t-23.5 49.5t-39 39.5t-54.5 16.5q-16 0 -31.5 -11t-29.5 -26.5t-26 -33.5t-21 -32q-23 -35 -42 -68.5t-40 -77.5q18 -9 30.5 -25t12.5 -34
q0 -7 -2 -17q21 4 42.5 14.5t42 23t38 27t29.5 26.5l26 -14q-12 -15 -19 -26.5t-10 -24t-4 -28t-2 -38.5q-1 -38 -2.5 -85t-3 -93t-2 -84t-0.5 -56q0 -13 1 -28t2 -32q2 -29 3 -62t1 -59q0 -28 -2 -50t-7 -36l-24 -46q-11 -18 -23 -41t-23 -47.5t-18 -50t-7 -49.5
q0 -23 6 -50t15 -53.5t19 -51t18 -42.5q2 -5 7.5 -20.5t12.5 -38t15 -49t14.5 -53t10.5 -49.5t4 -39q0 -13 1.5 -36t4 -49.5t5.5 -54.5t5.5 -53t5 -43.5t3.5 -26.5q1 -10 5 -43.5t8 -73t7 -75t4 -49.5q1 -22 1 -50t-1 -54q-1 -30 -2 -62q0 -13 -5 -28t-11.5 -29t-14.5 -26
t-15 -19h57q8 17 12 28.5t7 25.5q4 18 10.5 48t6.5 65q0 7 -1.5 24t-3.5 37.5t-3 39.5t-1 31q1 32 4 62t6.5 55t6 44.5t3.5 30.5q1 18 0.5 41t-1 47.5t-1 49.5t1.5 48q3 34 16 78.5t30.5 107.5t17.5 113q0 24 -8 72h37zM261 -308q5 32 10 62q4 26 8.5 53t7.5 46q2 15 4 31.5
t4 32.5q2 22 5 43.5t8 43.5q4 17 16 53t25 75.5t25.5 75t18.5 52.5q-3 23 -5 47t-3.5 46t-2.5 41t-1 32q0 26 -8.5 64t-19.5 74q-1 -17 -2 -32.5t-1 -23.5q-2 -13 -6.5 -40t-12.5 -59q-6 -28 -12.5 -59t-11.5 -57q-5 -29 -11 -70.5t-10.5 -84t-7 -82t-1.5 -64.5t-4.5 -62.5
t-13 -75t-15 -69t-11.5 -44.5q-5 -25 -18 -49.5t-26 -37.5h57q11 24 15 38zM1129 -286q-12 37 -23 71q-9 29 -18.5 59.5t-14.5 49.5l-59 355q-12 -33 -21 -66t-11 -59l-3 -44l103 -366l-5 -60h52v60zM644 2076q-32 0 -58 -21t-44 -44l6 -11q22 4 43 10.5t37.5 14.5t26 17
t9.5 18q0 16 -20 16zM284 2134q0 -8 5 -18t12 -20t15.5 -19t16.5 -16l15 12q-2 10 -7 23.5t-13 26t-18.5 21t-21.5 8.5q-2 0 -3 -5t-1 -13zM1129 -408v29h-78q-6 -11 -9 -19l-4 -10h91zM474 -379h-78l-13 -29h90zM899 -379h-78l-13 -29h90zM241 -379h-78l-13 -29h90z
M326 1913l14.5 14.5t25.5 9.5t26 -8l15 -12q-8 -8 -20.5 -16.5t-24.5 -8.5q-15 0 -23 8zM200 1742q0 -9 6 -12.5t14 -4.5q7 10 7 23q0 8 -6 14.5t-14 11.5q-4 -10 -5.5 -18.5t-1.5 -13.5z" />
  </g>

</svg>
