<?xml version="1.0" standalone="no"?>
<!DOCTYPE svg PUBLIC "-//W3C//DTD SVG 1.1//EN" "http://www.w3.org/Graphics/SVG/1.1/DTD/svg11.dtd" >
<svg xmlns="http://www.w3.org/2000/svg" xmlns:xlink="http://www.w3.org/1999/xlink" version="1.1" viewBox="-10 0 2266 2048">
  <g transform="matrix(1 0 0 -1 0 1638)">
   <path fill="currentColor"
d="M1933 -449h-184l77 95l74 177l-1 293l-226 199l-15 -97q-26 -68 -67 -178t-60 -177.5t-39 -139.5l-31 -79l-12 -24l-28 -69h-200l64 80l96 134l101 403v72q-35 132 -41 207l-51 2l-528 -14l4 -108l65 -298q15 -75 49 -325l-42 -84l-28 -69h-184l72 89l49 69v107l-159 459
q-23 -54 -54 -133t-41.5 -107.5t-84.5 -297.5v-70l-41 -47l-33 -69h-184l136 169l60 263l24 115l69 358q-64 40 -109 128t-45 189l9 341q0 144 -53 144q-19 0 -104 -41q-61 -29 -74 -29q-26 0 -44.5 18.5t-18.5 57.5q0 42 60 106l146 150l-1 -1q45 48 123 59q5 38 32 80
l99 146q12 17 25 47t13 50q0 28 -7 77l-6 49q0 35 34 35q27 0 43 -20.5t28.5 -60t12.5 -70.5q0 -73 -42 -160l-28 -60l-33 -86q51 24 123 24q57 0 94 -26v-2q0 -32 -48.5 -72.5t-117.5 -49.5q1 -5 6 -39.5t13 -84.5t18 -108.5t21.5 -113t22.5 -97.5t21 -61
q30 -54 175.5 -89.5t299.5 -35.5q89 0 223 14q99 11 159 11q59 0 149.5 -23.5t131.5 -51.5q80 21 115 43q56 39 59 101q0 83 35 83q21 0 39 -36t18 -74q0 -73 -59 -136t-166 -105v-15q0 -54 -20 -165v-85q10 -42 30 -82.5t43 -64.5q59 -62 89 -113v-70l-65 -270l-4 -113
l-31 -54l-12 -24zM539 1561q36 103 83 204q24 50 32 82t8 64q0 64 -33 111h-13q7 -16 14 -54.5t7 -66.5q0 -66 -46 -123q-23 -28 -64 -91.5t-50.5 -84.5t-9.5 -62q-35 0 -73 -12t-60 -36l-146 -150q-48 -52 -48 -78l2 -19l44 38l15 -18l-37 -37l55 25q87 45 122 45
q93 0 93 -184l-9 -356q0 -90 47 -169.5t106 -108.5q-34 54 -43.5 85t-17 71.5t-7.5 83.5v10h40v-10q0 -32 5 -63.5t14.5 -68.5t48 -97t82.5 -125l187 -544l-3 -128l-24 -34h56l23 49q-2 12 -7 50.5t-12 86.5t-15 96t-14 79q-34 165 -65 298l-9 155q-4 22 -19 65
q-27 80 -30 120l40 4q4 -47 28 -110q18 -51 23 -78l531 14q12 0 24.5 -0.5t138.5 -9.5q-30 84 -30 176v22l3 29l40 -6l-3 -26v-19q0 -103 36.5 -179.5t78.5 -111.5l261 -230l1 -321l-69 -154h64l29 52l4 108l65 268v54q-30 48 -77 95q-26 26 -49 74.5t-36 100.5v91
q20 111 20 159l-3 43q109 39 171 95t62 118q0 27 -6 47.5t-13 20.5q-4 0 -4 -20v-38q-3 -35 -26.5 -70t-72.5 -58.5t-117 -40.5q-33 27 -124.5 52t-148.5 25q-56 0 -155 -11q-134 -14 -224 -14q-158 0 -317.5 42t-196.5 103q-37 70 -103 518l-40 -1v7l-2 31q35 1 83 9.5
t80 28.5t38 37q-14 6 -56 6q-39 -2 -72.5 -12t-85.5 -40zM1481 445q7 -79 41 -203v-76l-105 -419l-63 -88h70l31 80l61 211l103 280l19 117q-34 34 -65 90zM669 332q-37 80 -91 104l-68 -344q-10 -55 -86 -388l-36 -44h62l18 22v56l73 267q19 61 50 136zM355 1422
q33 33 58 33q31 0 57 -30q-32 -32 -61 -32q-22 0 -34 10t-20 19zM1362 -422h34l21 42h-32zM312 -422h35l27 42h-29zM789 -422h35l27 42h-29zM1287 -422h35l27 42h-29zM382 -422h30l21 42h-27zM1815 -422h31l27 42h-25zM859 -422h26l21 42h-24zM1883 -422h25l21 42h-23z" />
  </g>

</svg>
