<?xml version="1.0" standalone="no"?>
<!DOCTYPE svg PUBLIC "-//W3C//DTD SVG 1.1//EN" "http://www.w3.org/Graphics/SVG/1.1/DTD/svg11.dtd" >
<svg xmlns="http://www.w3.org/2000/svg" xmlns:xlink="http://www.w3.org/1999/xlink" version="1.1" viewBox="-10 0 2617 2048">
  <g transform="matrix(1 0 0 -1 0 1638)">
   <path fill="currentColor"
d="M576 -450l-191 1l86 109q24 32 51.5 78.5t43.5 79.5t56 144.5t125 366.5q-50 50 -95.5 116t-66.5 127v-1l-16 54q-26 84 -38 115q-15 -43 -27.5 -57t-35.5 -14q-11 0 -19 13t-8 30q0 44 29 111q-10 5 -19 5q-48 0 -117 -26l1 -19q0 -56 -35.5 -107.5t-88.5 -63.5v164
q-38 6 -74.5 25.5t-36.5 36.5v58q2 14 15.5 30t30.5 35q34 34 47 56l45 89q57 112 123 171l-16 247v18q0 150 67.5 266t187 179.5t264.5 63.5q86 0 158.5 -23t122 -63t68 -71.5t18.5 -52.5q0 -19 -17 -21q-17 0 -42 16.5t-55 37.5q-95 65 -204 65q-69 0 -147.5 -31.5
t-115.5 -77.5q50 34 117 54t121 20q91 0 175 -30t148.5 -86t64.5 -113q0 -21 -15 -21q-18 0 -39.5 12t-61.5 41q-113 80 -239 80q-123 0 -201 -95.5t-78 -240.5v-126l22 -8q65 46 164 46q27 0 27 -33t-24 -88.5t-58 -68.5q36 -80 73.5 -138.5t65.5 -78.5q66 -47 173.5 -75.5
t216.5 -28.5q114 0 294 49q204 64 438 64q97 0 189 -41t152.5 -94.5t95.5 -124.5t35 -135q0 -22 -6.5 -34.5t-14.5 -12.5q-11 0 -23 12t-38 50l-26 35q-21 24 -50.5 47t-38.5 26q24 -91 29 -128t5 -79l-3 -75q-13 -26 -13 -65q0 -59 23.5 -135t46.5 -106v-70l-37 -224v-167
l-60 -24l-28 -69h-184l75 95l76 177l-28 293l-105 108l-4 -109q-78 -112 -109 -171q-46 -84 -146 -251l-34 -73l-34 -1l-28 -69l-191 1l62 81l136 151l167 374l7 205q-56 -40 -127.5 -68.5t-136.5 -42.5l-5 23q-46 -31 -89.5 -48t-94.5 -24t-158 -7l-14 -30l-1 -142
q20 -61 40 -156t26 -193l-81 -54l-28 -70l-191 1l156 197l-2 64l-7 28q-19 80 -52 168.5t-116 201.5l-40 3q-42 -38 -113 -118t-101.5 -135.5t-169.5 -339.5h-23zM599 1192l-32 28l19 21l44 46q-42 14 -112 14q-54 0 -99.5 -32t-83.5 -82t-87 -150l-21 -40q-12 -20 -51 -62
l-27 -29h39v-29l-42 -33l21 -11l73 37l10 -21l-45 -31l33 -4q9 0 60 18q105 36 153 36q97 0 165 -259q15 -59 60 -128.5t102 -126t105 -74t140 -27.5l-44 65q-83 117 -121 290l38 10q22 -93 56.5 -172.5t89.5 -152.5l8 -10q26 -33 81.5 -118.5t86.5 -176.5t48 -170l-3 -95
l-52 -63l73 -1l47 34q-15 120 -23 157l-42 170l3 153l20 45l-83 113l32 24l89 -120q117 0 174 12t108 40.5t114 84.5l26 -30l-50 -42q134 34 227 107q-64 97 -64 248v22l3 29l40 -6l-3 -26v-19q0 -82 28 -159.5t87 -131.5l234 -230l28 -321l-69 -154h64l46 16v144l37 222v54
q-29 37 -48.5 112.5t-19.5 145.5q0 43 10 68l2 46q0 101 -40 223q-11 32 -15 56h23q41 -3 97 -49.5t106 -121.5l1 12q0 41 -39 103.5t-97 115.5t-144 86t-159 33q-201 0 -416 -58q-175 -55 -316 -55q-139 0 -264.5 40t-181 100.5t-125.5 219.5l-42 9q-21 0 -39 -22l-7 -8
l-20 19q14 18 34 33t37 15q23 0 36.5 -4t26.5 -4q16 0 25 14.5t17 37.5h-10q-48 0 -99.5 -18.5t-90.5 -51.5zM468 1335v146q0 132 59.5 246.5t161 180t218.5 65.5q83 0 151.5 -33.5t136.5 -92.5l11 9q-115 163 -335 163q-133 0 -245.5 -59.5t-176.5 -167.5t-64 -250v-16
l15 -220q33 21 68 29zM518 1341q42 0 84 -7v117q0 162 88 265.5t229 103.5q77 0 163.5 -35.5t161.5 -103.5l10 8q-50 83 -143.5 130.5t-198.5 47.5q-183 0 -293.5 -103t-110.5 -273v-151zM779 299q-28 -87 -93.5 -275t-93 -240.5t-60.5 -105.5l-12 -19h86l62 129l89 182
q21 42 77.5 110.5t127.5 139.5q-61 10 -102.5 26.5t-80.5 52.5zM1703 -341h81l26 50l65 110q113 195 188 308l-3 129q-51 46 -87 88l-8 -189l-173 -398zM379 1105q33 33 58 33q31 0 57 -30q-32 -32 -61 -32q-22 0 -34 10t-20 19zM795 1326q-41 0 -89 -24t-84 -61l4 -4
q87 58 178 58h10l2 14q0 17 -21 17zM249 775v-94q20 11 33 42t13 60v5zM1204 -423h34l21 43h-32zM517 -423h34l21 43h-32zM1692 -423h34l21 42h-32zM1626 -422h35l27 42h-29zM451 -422h35l27 42h-29zM1138 -422h35l27 42h-29zM2154 -422h31l27 42h-25zM2222 -422h25l21 42
h-23z" />
  </g>

</svg>
