<?xml version="1.0" standalone="no"?>
<!DOCTYPE svg PUBLIC "-//W3C//DTD SVG 1.1//EN" "http://www.w3.org/Graphics/SVG/1.1/DTD/svg11.dtd" >
<svg xmlns="http://www.w3.org/2000/svg" xmlns:xlink="http://www.w3.org/1999/xlink" version="1.1" viewBox="-10 0 3009 2048">
  <g transform="matrix(1 0 0 -1 0 1638)">
   <path fill="currentColor"
d="M1297 565q103 0 330 61q309 82 376.5 97.5t121 24t91.5 8.5q74 0 149.5 -34.5t144.5 -103t108 -143t67 -216.5l6 -30q6 -28 18 -43.5t23 -15.5q22 0 43 41l6 12q31 62 64 62q54 0 54 -84q0 -49 -25.5 -99t-69.5 -80t-107 -30q-46 0 -123 42l-35 -34h-447l-130 14h-50
l-51 -32h-161l1 90l8 19q-159 -86 -254 -86q-60 0 -130 20t-111 45v-26l-91 -44h-715l-82 19h-30l-31 -37h-165v114l100 55h323l301 43q-12 72 -26.5 106t-46 70t-62.5 58.5t-49 22.5q-24 0 -110 -39h-59l-135 117q3 35 48.5 125t100 157t113.5 105t119 38l10 -1
q33 81 90.5 141.5t138.5 101t219.5 68t307.5 27.5h61l153 -6q108 0 262 38q-38 -83 -158 -136q111 7 169 15q-67 -81 -168.5 -148.5t-216.5 -107t-384 -73.5l-154 -20q-24 -3 -72 -15q60 -63 101 -147q29 -62 82 -93.5t139 -32.5zM789 863l-30 26l19 19q-29 6 -61 6
q-51 0 -100.5 -30.5t-96 -85t-88.5 -131.5t-53 -123v-1l23 24l28 -28l-22 -22l37 -33l68 71l28 -28l-67 -69l10 -9l35 3q32 16 67.5 27.5t53.5 11.5q23 0 58 -22t71.5 -60t51 -65t28 -77t19.5 -107l-340 -49l-317 1l-72 -41v-31l44 39l13 -16l-47 -41h30l65 57l13 -16
l-47 -41h37l31 37h55l82 -19h698l61 30l1 21q0 57 -11 120h40l9 -75l1 -19q28 -26 102.5 -49t138.5 -23q110 0 272 96l80 49q169 107 314 126q-51 69 -51 119q0 39 12 95l40 -6q-12 -57 -12 -89q0 -88 296 -329h-653l-12 -32v-36l46 41l13 -16l-47 -41h30l65 57l13 -16
l-47 -41h31l55 32h65l130 -14h428l27 26q-4 26 -28 66t-98 130l-35 41l32 24l17 -20q29 -31 87 -108t65 -127q67 -40 107 -40q51 0 86.5 24.5t55.5 63.5t20 81q0 44 -14 44q-10 0 -26 -34q-17 -36 -40.5 -58.5t-46.5 -22.5q-27 0 -50.5 29.5t-30.5 63.5l-6 29
q-13 60 -34.5 132.5t-63 131t-94.5 103.5t-114 71t-123 26q-97 0 -319 -59q-369 -98 -459 -115t-141 -17q-95 1 -155 36t-95 103q-13 26 -28 49t-40.5 60t-46.5 54q-62 -21 -86 -32l-18 36q89 45 213 62q228 28 352 50t199.5 51.5t146.5 69.5t134 87l-99 -7
q-184 -8 -288 -15.5t-218 -24t-201.5 -53t-170 -96.5t-107.5 -92zM769 950l44 -10q114 102 265.5 161.5t569.5 77.5q140 23 221 88q-108 -22 -172 -22l-155 6h-59q-281 0 -460.5 -69t-253.5 -232zM2290 146q-75 61 -139 132q-159 -16 -343 -132h482zM859 890q70 53 125 81
t117 42t196 22q234 15 416 85l9 -22q-198 -89 -423 -103q-115 -6 -213.5 -33t-211.5 -92zM593 737q0 15 17.5 26.5t37.5 11.5q28 0 51 -13q-8 -25 -30 -40t-45 -15q-20 1 -26 14q-5 8 -5 16z" />
  </g>

</svg>
