<?xml version="1.0" standalone="no"?>
<!DOCTYPE svg PUBLIC "-//W3C//DTD SVG 1.1//EN" "http://www.w3.org/Graphics/SVG/1.1/DTD/svg11.dtd" >
<svg xmlns="http://www.w3.org/2000/svg" xmlns:xlink="http://www.w3.org/1999/xlink" version="1.1" viewBox="-10 0 2465 2048">
  <g transform="matrix(1 0 0 -1 0 1638)">
   <path fill="currentColor"
d="M1636 519q-36 45 -99 140l-33 46l-70 -19l-11 32l59 17l-6 7q-226 7 -339 25q-71 13 -153 70l-7 -39l-225 -208l-90 -170l-71 -303l-21 -29l-8 -58l-130 -82l-58 21v91l93 76l103 414l70 146l-125 -99l-87 -157l-107 -323l-22 -29l-8 -58l-130 -82l-61 21v91l88 76
l110 368l52 115l282 328q-67 93 -67 223q0 113 32.5 242.5t81.5 282.5l-41 -5q-57 -67 -151 -67q-55 0 -74 14q-10 53 -10 76q0 49 17 71q39 48 162 121l52 34l7 15l15 26l-94 139q-7 11 -7 24q0 14 9 22.5t22 8.5q19 0 33 -19l83 -123l21 15l-38 102l-2 12q0 15 8.5 25
t21.5 10q25 0 37 -26l38 -101l26 2l30 -2l17 53l32 -11l-15 -51l22 -9l33 44l27 -22l-31 -40l27 -21l35 34l23 -24l-35 -35l12 -14l38 31l21 -28l-40 -32l15 -26l43 26l18 -29l-47 -28l15 -36l51 15l11 -32l-51 -15l7 -28l47 9l7 -34l-47 -9l5 -26l1 -13l46 5l4 -34l-48 -5
l2 -40l50 1v-34l-50 -1l-1 -39l44 -2l-1 -35l-45 3l-3 -49l44 -2l-2 -34l-46 2l-1 -24q0 -35 14 -73l16 -13q39 -31 98 -53.5t120 -22.5q72 0 151 23.5t159 50.5q77 26 148 47.5t134 21.5q97 0 157 -58q45 54 108 54q72 0 122 -65t50 -190q0 -29 -10.5 -75.5t-42.5 -153.5
q-19 -61 -34 -111.5t-15 -84.5q0 -181 40 -325h-59q-49 101 -62.5 139.5t-21.5 81t-8 93.5q0 59 25.5 144t95.5 243q35 78 35 134q-1 51 -34.5 90.5t-80.5 39.5q-53 0 -85 -43q28 -37 41.5 -77t13.5 -70q0 -62 -9.5 -109.5t-27 -88t-68.5 -116.5q-51 -75 -67 -106v-11v-11
q0 -35 8.5 -59t40.5 -64l35 -48v-72l-226 -410l-7 -52l-137 -82l-54 21v91l73 55l8 25l194 334l1 60q-163 98 -235 178q62 -132 98 -180l-2 -61l-309 -389l-7 -52l-143 -82l-53 21v91l89 62l10 29l269 338zM413 47v-52l16 -8l95 63l6 48l25 33l67 299l98 181l219 203l17 100
q37 -40 88.5 -70.5t99.5 -38t143.5 -15t209.5 -12.5l21 -35l123 35l-2 14q-14 67 -14 138q0 106 42 218l37 -13q-40 -113 -40 -205q0 -65 16 -145q48 -96 276 -230l-2 -89l-188 -331l-9 -31l-77 -57l1 -52l16 -8l98 63l5 42l227 410v52q-58 74 -66.5 91.5t-13 38t-4.5 51.5
v17l1 16q26 48 71 115q46 68 63 106.5t26.5 85t9.5 102.5q0 44 -25.5 90.5t-70 75t-100.5 28.5q-70 0 -199 -43q-176 -59 -260.5 -79t-132.5 -20q-71 0 -141 28t-125 77q-20 41 -20 95l1 28l5 54q5 60 5 120q0 155 -65 280.5t-172 125.5q-50 0 -89.5 -31.5t-61.5 -84.5
q-7 -9 -37 -28q-150 -98 -167.5 -118t-17.5 -52l6 -61q14 -4 41 -4q86 0 139 66h17q98 0 156 31.5t58 104.5q0 34 -5 51h34q6 -16 6 -46q0 -69 -38 -113q-38 -38 -137 -56l-45 -158q-38 -131 -53.5 -214t-15.5 -154q0 -91 45.5 -172.5t119.5 -128.5l-162 -331l-11 -43
l-91 -377zM721 860q-29 21 -62 61l-276 -322l-46 -108l-108 -373l-87 -71v-52l17 -8l94 63l7 48l24 33l105 320l94 167l188 141zM1304 47l1 -52l16 -8l102 63l6 42l311 391l1 40q-38 55 -114 215l-86 -25l134 -181l-2 -52l-273 -345l-9 -31zM2313 1127l-21 -52
q-54 -123 -82.5 -210.5t-28.5 -148.5q0 -111 59 -241q-26 142 -26 252q0 46 35 157q51 160 64 243zM653 1871q0 19 14 32t32 13q20 0 33 -13t13 -32q0 -18 -13 -32.5t-33 -14.5q-18 0 -32 14.5t-14 32.5zM681 2013l-86 126q-3 6 -7 6h-2l-2 -5l1 -5l89 -131zM679 1871
q0 -8 6 -14t14 -6t13.5 6t5.5 14q0 19 -19 19q-8 0 -14 -5.5t-6 -13.5zM759 2062l-36 98q-2 8 -8 8q-4 0 -4 -5l39 -104z" />
  </g>

</svg>
