<?xml version="1.0" standalone="no"?>
<!DOCTYPE svg PUBLIC "-//W3C//DTD SVG 1.1//EN" "http://www.w3.org/Graphics/SVG/1.1/DTD/svg11.dtd" >
<svg xmlns="http://www.w3.org/2000/svg" xmlns:xlink="http://www.w3.org/1999/xlink" version="1.1" viewBox="-10 0 1704 2048">
  <g transform="scale(1, -1)"  transform-origin="center">
   <path fill="currentColor"
d="M100 701l81 40l-47 98q-34 70 -34 120q0 30 17.5 55.5t57.5 25.5q22 0 42.5 -14.5t38 -40t79.5 -155.5l40 27l-68 149q-34 73 -34 120q0 32 20 55.5t52 23.5q68 0 132 -143l31 -72q174 181 314 291t263 175t251 101.5t258 36.5q0 -234 -54.5 -418.5t-154.5 -314
t-248.5 -204.5t-299.5 -75q-40 0 -115 9l-69 6q-65 0 -159 -44.5t-186 -121.5l-32 10q-11 48 -64 113t-111 105zM149 680q57 -42 99 -99.5t57 -100.5q90 71 185 114t163 43l35 -2q117 -13 149 -13q141 0 280 68t234.5 187t147.5 287.5t55 388.5q-237 -6 -489.5 -151
t-560.5 -473q-85 -90 -108 -106q-86 -62 -247 -143zM854 724q-76 24 -169 24q-38 0 -112 -9q123 197 223.5 318.5t196.5 205t204.5 146t232.5 97.5l10 -38q-113 -31 -211.5 -85.5t-186 -127t-176 -175t-213.5 -292.5h32q99 0 181 -26zM478 960l-52 114q-43 91 -80 91
q-33 0 -33 -39q0 -55 63 -178l30 -63l70 72zM217 760q51 27 84 48l-48 99q-20 43 -43 67t-41 24q-29 0 -29 -39q0 -42 30 -102z" />
  </g>

</svg>
