<?xml version="1.0" standalone="no"?>
<!DOCTYPE svg PUBLIC "-//W3C//DTD SVG 1.1//EN" "http://www.w3.org/Graphics/SVG/1.1/DTD/svg11.dtd" >
<svg xmlns="http://www.w3.org/2000/svg" xmlns:xlink="http://www.w3.org/1999/xlink" version="1.1" viewBox="-10 0 863 2048">
  <g transform="matrix(1 0 0 -1 0 1638)">
   <path fill="currentColor"
d="M317 151q9 72 87 111v1044q-19 -3 -45 -12q-84 -24 -110 -24q-45 0 -95 35.5t-54 82.5v90l66 37l60 56q18 14 58 39l15 29q-68 37 -111 100.5t-43 131.5q0 52 29.5 110t63.5 58q8 0 20.5 -5t12.5 -16q0 -13 -9 -45.5t-9 -75.5q0 -61 32 -96.5t87 -61.5q9 8 29.5 13.5
t37.5 5.5q43 0 66 -20q130 106 130 209v62q0 11 11.5 20.5t20.5 9.5q30 0 51 -39.5t21 -93.5q0 -117 -81 -198q31 8 50 8l24 -2v-7q0 -28 -7.5 -58.5t-21.5 -43.5q12 -24 12 -78q0 -79 -56 -135t-159 -76v-1054q77 -38 86 -111h167v-38h-167q-4 -33 -27.5 -69t-54.5 -58
l-42 24q37 61 41 103h-102q4 -42 41 -103l-42 -24q-28 17 -53.5 56t-29.5 71h-176v38h176zM677 1539q0 28 -12 50q-32 -19 -83 -20l-1 34q104 0 110 80q-78 -2 -136 -66l-16 13q7 8 13 20.5t15 20.5l-5 9q138 75 138 205q0 40 -8.5 72t-20.5 41l2 -31v-33q0 -62 -27 -111.5
t-116 -120.5q-3 -3 -7.5 -7t-9 -10t-7 -12t-2.5 -12v-4h-38v6q0 14 7.5 29.5t12.5 15.5q-18 11 -42 11q-30 0 -50.5 -13.5t-33.5 -31.5t-54 -89q-12 -12 -28 -20q-31 -16 -93 -78v1l-48 -33v-37q49 -62 117 -62h15l18 1l23 1v-27l-56 -3q-32 0 -57.5 8.5t-53.5 37.5
q12 -27 43 -46t63 -19q24 0 76 16q72 21 83 21q129 0 199 50.5t70 142.5zM452 217q24 0 48 -16.5t32 -49.5h24q-6 35 -33.5 60t-58.5 31v1068l-24 -2v-1066q-33 -7 -60 -32.5t-32 -58.5h24q7 33 31 49.5t49 16.5zM345 1707q-55 24 -92.5 76t-37.5 111q0 57 18 109
q-20 -11 -35 -53t-15 -79q0 -46 16.5 -80t43 -59.5t81.5 -54.5zM364 1524q29 57 64 57q21 0 37.5 -17.5t22.5 -43.5l-26 -6l-3 8q-16 -8 -31 -8t-36 9l-5 -8zM452 188q-13 0 -27.5 -9.5t-21.5 -27.5h97q-6 18 -21 27.5t-27 9.5zM220 1374q-16 0 -25.5 9.5t-9.5 21.5
q0 14 10.5 23.5t24.5 9.5h14v-23q-23 0 -23 -10q0 -8 23 -8v-23h-14zM507 22q25 25 35 45t15 46h-24q-4 -27 -14 -46.5t-21 -39.5zM406 27q-11 20 -21.5 39.5t-13.5 46.5h-24q4 -24 15 -45.5t35 -45.5zM428 1558q-9 0 -22 -13q6 -5 22 -5q14 0 22 4q-11 14 -22 14z" />
  </g>

</svg>
