<?xml version="1.0" standalone="no"?>
<!DOCTYPE svg PUBLIC "-//W3C//DTD SVG 1.1//EN" "http://www.w3.org/Graphics/SVG/1.1/DTD/svg11.dtd" >
<svg xmlns="http://www.w3.org/2000/svg" xmlns:xlink="http://www.w3.org/1999/xlink" version="1.1" viewBox="-10 0 2320 2048">
  <g transform="matrix(1 0 0 -1 0 1638)">
   <path fill="currentColor"
d="M898 0q0 47 -23 97.5t-63 79.5l-64 39q-134 77 -192.5 125t-87 98t-51 127t-40 171t-48.5 316q-20 164 -48 250t-71 160.5t-110 154.5l75 46q109 -100 171.5 -203.5t89.5 -221.5l32 -156q90 -481 144 -548q41 -49 134 -90.5t214 -63.5q76 -14 125 -36v576h-25
q-110 0 -169.5 53.5t-59.5 147.5t59.5 147.5t169.5 53.5h25v467q0 75 33.5 137t95.5 93t149 31q78 0 136 -34.5t58 -83.5q0 -31 -20 -49.5t-45 -18.5q-20 0 -43 17q-41 29 -90 29q-134 0 -134 -144v-1422q49 22 125 36q123 23 215 64t133 90q54 67 144 548
q34 185 67.5 269.5t89 160.5t136.5 151l75 -46q-172 -203 -210 -433q-7 -37 -19 -132q-39 -284 -67 -403.5t-58 -183.5t-90 -115.5t-204 -134.5l-64 -39q-40 -30 -63 -80.5t-23 -96.5h-514zM1175 40h198q4 47 30.5 92t71.5 77l67 41q211 119 261 201q71 114 124 505l24 178
q36 272 198 474l-12 8q-90 -83 -143.5 -177.5t-81.5 -209.5l-30 -154q-86 -480 -154 -566q-45 -56 -149.5 -103t-222.5 -65q-181 -28 -181 -123v-178zM1135 222q-4 91 -181 119q-116 18 -221 65t-151 103q-66 79 -154 566l-30 154q-28 115 -81.5 209.5t-143.5 177.5l-12 -8
q147 -183 189 -415q7 -34 19 -134q60 -483 138 -608q50 -82 261 -201l38 -22q61 -36 93.5 -85t37.5 -103h198v182zM1125 1283h-65q-91 0 -140 -42.5t-49 -118.5t49 -118.5t140 -42.5h65v-640q16 -13 30 -31q14 18 30 31v1446q0 92 46 138t128 46q45 0 70 -12t42 -23
q15 -11 21 -11q10 0 17.5 7.5t7.5 20.5q0 32 -45.5 55t-108.5 23q-75 0 -128 -26.5t-81.5 -78.5t-28.5 -116v-507zM945 1122q0 -40 27 -63.5t77 -23.5h36v174h-36q-50 0 -77 -23.5t-27 -63.5zM1125 995h-76q-67 0 -105.5 33.5t-38.5 93.5t38 93.5t106 33.5h76v-254z" />
  </g>

</svg>
