<?xml version="1.0" standalone="no"?>
<!DOCTYPE svg PUBLIC "-//W3C//DTD SVG 1.1//EN" "http://www.w3.org/Graphics/SVG/1.1/DTD/svg11.dtd" >
<svg xmlns="http://www.w3.org/2000/svg" xmlns:xlink="http://www.w3.org/1999/xlink" version="1.1" viewBox="-10 0 2372 2048">
  <g transform="matrix(1 0 0 -1 0 1638)">
   <path fill="currentColor"
d="M1238 599l16 -18l11 22l93 15l16 -15l11 20l48 11l41 11l17 -15l4 22l95 38l18 -13l4 24l42 28q43 28 60 45l-6 502q0 154 41.5 244t123.5 90q81 0 81 -105l-1 -22v-13l-15 -280q0 -67 105 -84l98 -17q86 -14 104 -47l-1 1q17 -31 17 -76q0 -72 -44 -209v-313
q-4 -74 -87.5 -168t-235.5 -181.5t-234 -87.5q-42 0 -181 22q-222 35 -310 35q-86 0 -337 -39q-185 -28 -223 -28q-91 0 -186.5 44t-164.5 120t-94 168l3 2l-67 146l4 21l72 36l22 -10l4 24l63 31l19 -14l-1 23l76 40l17 -5l55 -115l68 2q20 -29 121.5 -53t212.5 -24
q80 0 285 41v92l21 20zM208 316q24 -78 88 -142.5t148.5 -100t164.5 -35.5q34 0 217 28q251 39 343 39q88 0 316 -35q142 -22 175 -22q73 0 212 80t218 168.5t87 150.5v318l18 56q26 77 27 142q0 35 -13 60q-9 18 -122 34q-83 13 -117 29.5t-53 43t-19 67.5l16 292v16
q0 65 -41 65q-59 0 -92 -77t-33 -221l6 -613q-41 -73 -82 -119t-66 -47q-47 -17 -205 -33.5t-256 -20.5q-11 -5 -133.5 -25t-178.5 -20q-106 0 -213.5 24t-139.5 53l-36 -2l-49 -47l-36 -7l-37 -30l-49 -11zM1634 555l-37 94l-81 -32l35 -98q33 6 44 13q14 0 39 23z
M1410 499l101 13l-33 93l-79 -19zM1282 488l88 7l-10 83l-83 -14zM145 474l53 -115l42 39l-46 100zM323 437l-48 104l-46 -25l47 -100l30 8zM1158 480l84 5l-5 73l-79 -10v-68zM400 482l-47 99l-43 -22l47 -103l20 4zM1714 722q-31 -26 -80 -54l30 -78q27 34 51 79z" />
  </g>

</svg>
