<?xml version="1.0" standalone="no"?>
<!DOCTYPE svg PUBLIC "-//W3C//DTD SVG 1.1//EN" "http://www.w3.org/Graphics/SVG/1.1/DTD/svg11.dtd" >
<svg xmlns="http://www.w3.org/2000/svg" xmlns:xlink="http://www.w3.org/1999/xlink" version="1.1" viewBox="-10 0 2125 2048">
  <g transform="matrix(1 0 0 -1 0 1638)">
   <path fill="currentColor"
d="M801 197q12 113 12 141q0 49 -19 201l-30 165q-132 -48 -226 -48q-64 0 -131 19.5t-131.5 71t-119.5 144.5t-55 145q0 21 12 34t25 13q23 0 51 -39q77 -113 149 -163.5t180 -50.5q94 0 210 49q31 31 153 132l-1 22l2 67q0 122 -49.5 239.5t-126.5 180.5l-97 75
q-32 26 -32 43q0 13 15 23.5t40 10.5q54 0 130.5 -41.5t147.5 -113t110 -156t46 -170.5q34 77 81 121q67 -59 87 -110q90 22 216 22q80 0 188.5 -25.5t224 -71t152.5 -76.5l-3 -32q-182 -103 -299.5 -326.5t-214.5 -674.5l-34 -2q-88 273 -199 348q-60 -105 -102 -152
t-91 -71t-109 -24h-5q-40 0 -82.5 22t-74.5 58zM1411 723q-37 -156 -128 -326q109 -75 193 -291q92 399 205 612t284 319q-95 56 -252 101.5t-263 45.5q-114 0 -206 -23l1 -18q0 -73 -76 -177l-32 24q67 88 67 150q0 32 -10.5 57.5t-42.5 58.5q-38 -50 -56 -112t-18 -99
q0 -36 7 -77l-41 -8q-6 32 -6 90l-21 6l8 60l2 43q0 78 -30.5 161t-98 154.5t-144 117t-121.5 45.5l-15 -2q66 -40 126.5 -96t101.5 -132t61 -171t20 -222v-16q0 -37 34 -57l-25 -32q-37 25 -47 59q-79 -64 -121 -103q42 -164 64 -300t22 -227q0 -30 -10 -127l19 -16
q85 1 137.5 27.5t88.5 71.5l64 89l31 -25l-64 -90q-66 -87 -197 -105q8 -6 55 -6q73 0 148 73t145 219.5t101 281.5zM756 743l-20 93q-110 -47 -225 -47t-190.5 53t-179.5 201l-2 -12q0 -43 53.5 -126.5t112 -129t118 -63t116.5 -17.5q93 0 217 48zM980 673q-14 45 -14 79
q0 88 92 88q31 0 66 -13l-13 -37l-15 5q-17 -68 -84 -99l2 -12zM991 255q-29 0 -46 13.5t-17 35.5q0 11 8 26.5t25 23.5l31 14l14 -34q-27 -12 -27 -25q0 -8 6.5 -13t14.5 -5q9 0 23 6l13 -30q-30 -12 -45 -12zM1002 749l1 -14q20 6 35 26t20 39h-7q-49 0 -49 -51z" />
  </g>

</svg>
