<?xml version="1.0" standalone="no"?>
<!DOCTYPE svg PUBLIC "-//W3C//DTD SVG 1.1//EN" "http://www.w3.org/Graphics/SVG/1.1/DTD/svg11.dtd" >
<svg xmlns="http://www.w3.org/2000/svg" xmlns:xlink="http://www.w3.org/1999/xlink" version="1.1" viewBox="-10 0 2419 2048">
  <g transform="matrix(1 0 0 -1 0 1638)">
   <path fill="currentColor"
d="M981 726q139 45 330 71t362 26q258 0 447 -43t189 -108t-188.5 -108t-447.5 -43q-192 0 -386.5 29t-305.5 67l-82 -31l4 -36q0 -43 -23 -67.5t-61 -24.5q-54 0 -92 67l-67 -21v-7q0 -47 -22 -74.5t-64 -27.5q-58 0 -91 73l-7 -1h-7l-51 4q-42 -80 -100 -80
q-37 0 -57.5 25t-20.5 65q0 31 9 62q-19 18 -32 36q-117 14 -117 93t117 93q13 18 32 36q-9 31 -9 62q0 41 21 65.5t57 24.5q58 0 100 -80l51 4h7l7 -1q33 73 91 73q42 0 64 -27t22 -75v-7l67 -21q38 67 92 67q37 0 60.5 -25t23.5 -67l-4 -36zM2269 672q0 24 -87 51
t-226.5 43.5t-282.5 16.5q-150 0 -324 -22t-307 -59l72 -30l-72 -30q126 -35 296 -58t335 -23q149 0 287 16.5t223.5 43.5t85.5 51zM1015 672q-405 165 -546 165q-97 0 -168.5 -46.5t-71.5 -118.5t71.5 -118.5t168.5 -46.5q75 0 231.5 48.5t314.5 116.5zM956 672
q-349 -144 -479 -144q-101 0 -160.5 38.5t-59.5 105.5t59.5 105.5t160.5 38.5q130 0 479 -144zM853 672q-166 63 -245 83.5t-131 20.5q-83 0 -131.5 -27.5t-48.5 -76.5t48.5 -76.5t131.5 -27.5q52 0 132 20.5t244 83.5zM280 863q0 -19 4 -36q42 25 92 38q-28 48 -58 48
q-20 0 -29 -15t-9 -35zM280 481q0 -20 9 -35t29 -15q30 0 58 48q-50 12 -92 38q-4 -17 -4 -36zM861 773v3l1 16q0 53 -43 53q-27 0 -53 -39zM766 538q26 -39 53 -39q43 0 43 53l-1 16v3zM140 672q0 -36 56 -49q-7 21 -7 49t7 49q-56 -13 -56 -49zM574 435q43 0 46 58
l-94 -21q19 -37 48 -37zM574 909q-29 0 -48 -37l94 -21q-3 58 -46 58z" />
  </g>

</svg>
