<?xml version="1.0" standalone="no"?>
<!DOCTYPE svg PUBLIC "-//W3C//DTD SVG 1.1//EN" "http://www.w3.org/Graphics/SVG/1.1/DTD/svg11.dtd" >
<svg xmlns="http://www.w3.org/2000/svg" xmlns:xlink="http://www.w3.org/1999/xlink" version="1.1" viewBox="-10 0 746 2048">
  <g transform="matrix(1 0 0 -1 0 1638)">
   <path fill="currentColor"
d="M434 2040v-161h192v-113h-192v-964q98 -54 150 -150t52 -215q0 -105 -20 -183.5t-55 -134t-88.5 -88.5t-104.5 -33q-69 0 -135 55.5t-99.5 154t-33.5 229.5q0 118 51.5 214.5t150.5 151.5v963h-192v113h192v161h132zM342 2000v-1222l-19 -9l1 1q-64 -38 -99.5 -81
t-60 -104.5t-24.5 -147.5q0 -166 51 -266q23 98 69.5 152t107.5 54q60 0 107 -55t70 -151q51 100 51 266q0 86 -24 147.5t-60 104t-100 81.5l1 -1l-19 9v1222h-52zM222 121q29 -38 70 -60.5t76 -22.5q34 0 75.5 22.5t69.5 60.5q-5 51 -25 102.5t-50.5 82.5t-69.5 31
q-40 0 -70 -31.5t-50 -82.5t-25 -102h-1zM368 573q119 0 181 -125l-38 -12q-19 43 -58 70t-85 27t-85 -26.5t-58 -70.5l-38 12q63 125 181 125zM434 1806h152v33h-152v-33zM302 1839h-152v-33h152v33z" />
  </g>

</svg>
