<?xml version="1.0" standalone="no"?>
<!DOCTYPE svg PUBLIC "-//W3C//DTD SVG 1.1//EN" "http://www.w3.org/Graphics/SVG/1.1/DTD/svg11.dtd" >
<svg xmlns="http://www.w3.org/2000/svg" xmlns:xlink="http://www.w3.org/1999/xlink" version="1.1" viewBox="-10 0 2401 2048">
  <g transform="scale(1, -1)"  transform-origin="center">
   <path fill="currentColor"
d="M634 598q-6 160 -29 300q-231 36 -368 99t-137 136q0 50 67.5 97t193.5 84q-52 74 -74.5 147t-22.5 158q0 220 77 431h492q74 -188 83 -368q61 -19 135 -62t127 -92q97 -37 164 -130v-1q235 -18 407.5 -58.5t263.5 -94t91 -111.5q0 -64 -109 -122t-308 -97l604 -847
l-104 -87l-271 277l112 -244l-413 34l-203 393l-106 64l39 -210l-38 -15l-163 87v-251h197q70 0 98 -44l56 -80l-41 -27l-23 36h-742l-26 -36l-38 27l6 9h-362l-26 -36l-38 27l57 80q27 44 97 44h275v483zM1137 860h-35q-160 0 -330 17l142 -172q62 -76 86 -149t24 -177
v-264l-43 -35h-234l-32 -45h690l-32 45h-221l-48 35v284l19 27l172 -93l-39 211l24 21l166 -98l199 -380l314 -28l-126 277zM987 1557q52 0 96 -6q-132 85 -207 107q0 76 -19.5 171t-52.5 181h-434q-66 -194 -66 -403q0 -150 99 -282q95 27 273 53q11 83 95.5 131t215.5 48z
M714 1343q0 -45 19.5 -84.5t58.5 -79t133 -108.5l228 -171q237 4 467 42l-298 417q-126 7 -220 7q-202 0 -388 -23zM2241 76l-595 830q-208 -37 -442 -45l663 -495l324 -336zM2064 1133q0 43 -92.5 89.5t-250 81t-349.5 51.5l289 -405q191 37 297 86.5t106 96.5zM650 891
q24 -132 24 -279v-497l-43 -35h-304l-32 -45h362l23 33q26 41 74 45v362l36 26l194 -158v38q0 98 -22 165.5t-76 132.5l-170 204zM674 1338q-142 -21 -244 -47l306 -371q180 -20 348 -20l-258 194q-145 108 -152 244zM387 1279q-116 -33 -181.5 -71.5t-65.5 -74.5
q0 -53 131 -107t326 -86q-12 63 -31 125zM1102 1406q95 0 188 -6q-101 119 -292 119q-121 0 -192.5 -35t-87.5 -101q192 23 384 23zM984 115v172l-190 156v-328h190zM376 1841q0 29 20.5 50t50.5 21q29 0 50 -21t21 -50q0 -30 -21 -50.5t-50 -20.5q-30 0 -50.5 20.5
t-20.5 50.5zM656 1841q0 29 20.5 50t50.5 21q29 0 50 -21t21 -50q0 -30 -21 -50.5t-50 -20.5q-30 0 -50.5 20.5t-20.5 50.5zM662 1771l-58 -186h-32l-67 182l36 15l47 -127l40 127zM689 1841q0 -16 11 -27t27 -11q15 0 26.5 11t11.5 27q0 15 -11.5 26.5t-26.5 11.5
q-16 0 -27 -11.5t-11 -26.5zM409 1841q0 -16 11 -27t27 -11q15 0 26.5 11t11.5 27q0 15 -11.5 26.5t-26.5 11.5q-16 0 -27 -11.5t-11 -26.5zM626 992l15 -59l38 -6z" />
  </g>

</svg>
