<?xml version="1.0" standalone="no"?>
<!DOCTYPE svg PUBLIC "-//W3C//DTD SVG 1.1//EN" "http://www.w3.org/Graphics/SVG/1.1/DTD/svg11.dtd" >
<svg xmlns="http://www.w3.org/2000/svg" xmlns:xlink="http://www.w3.org/1999/xlink" version="1.1" viewBox="-10 0 2028 2048">
  <g transform="matrix(1 0 0 -1 0 1638)">
   <path fill="currentColor"
d="M140 29q16 36 53.5 57.5t84.5 25.5l241 19q44 87 70 234t26 284v3q0 39 -17.5 213t-28.5 203q-37 81 -86 223t-49 207q0 66 36 174q19 55 19 74q0 29 -14 53.5t-44 25.5l-251 10q-19 0 -26 -11l-5 -12h-49v47q0 27 20.5 54.5t63.5 36.5l413 90h164q63 0 100 -25t51 -83
l36 -155l145 -147l26 -36q298 -408 416 -614l383 -910l-16 -56h-69l-105 103l16 -49q-53 -63 -116 -63q-83 0 -145 50t-104 164l-113 307l-93 -229l-134 58l-39 -225l19 -17h273q41 0 75 -22.5t51 -59.5l-38 -14q-9 18 -25 32q-5 -17 -22 -32.5t-49 -15.5l-183 11l-149 7
l-201 -7l-196 -9q-10 0 -25 10.5t-23 19.5q-26 -18 -42 -20l-22 3q-22 4 -56 4q-31 0 -86 -11l-42 -6q-52 0 -58 43q-17 -15 -23 -31zM993 73l-37 45l47 294l150 -63l88 234l-274 279q-151 163 -244.5 313t-93.5 247q0 44 25.5 69.5t68.5 25.5l25 -2q80 -12 104 -12l67 5
l58 4l64 -4l35 -3l-4 -40l-34 3l-61 4l-54 -4q-43 -5 -71 -5q-27 0 -80 8l-49 6q-24 0 -39 -15t-15 -40q0 -85 88.5 -226.5t239.5 -305.5h-1l852 -839l25 3l5 13l-378 894q-105 188 -374 554l-67 93l-149 151l-38 165q-9 42 -36 59t-75 17h-162l-127 -26q11 -32 65 -88
l-17 -23q-19 11 -30 14t-27 4t-180 3q-115 0 -141 -26v-4q32 9 57 9h234h4q40 0 66 -33.5t26 -83.5q0 -26 -21 -87v1q-34 -99 -34 -162q0 -66 52.5 -219t78.5 -195l273 -486v1q78 -124 78 -212l-3 -143q-2 -98 -31.5 -136.5t-109.5 -40.5l-229 -7l-43 -5q10 -12 15 -12
l195 9l202 7l150 -7l182 -11q17 0 25 7t8 13q0 12 -30 12h-294zM836 402l31 144l-241 418q9 -69 19 -191t10 -156q0 -146 -30.5 -289.5t-76.5 -230.5l40 3l102 383zM714 423l-85 -321l181 5q58 2 79.5 32.5t23.5 104.5l3 137q0 43 -20 106l-31 -147zM1699 76l-32 100
l-356 349l106 -292q68 -188 211 -188q33 0 71 31zM142 1891v-8q51 28 141 28l185 1q-20 26 -29 55l-235 -49q-45 -10 -62 -27zM556 1929q0 19 13.5 32.5t32.5 13.5t32.5 -13.5t13.5 -32.5t-13.5 -32.5t-32.5 -13.5t-32.5 13.5t-13.5 32.5zM471 57v6q0 19 14 24l-219 -16
q-26 -5 -26 -12q0 -16 19 -16l13 2q78 15 115 15q8 0 80 -6zM584 1929q0 -18 18 -18t18 18t-18 18t-18 -18z" />
  </g>

</svg>
