<?xml version="1.0" standalone="no"?>
<!DOCTYPE svg PUBLIC "-//W3C//DTD SVG 1.1//EN" "http://www.w3.org/Graphics/SVG/1.1/DTD/svg11.dtd" >
<svg xmlns="http://www.w3.org/2000/svg" xmlns:xlink="http://www.w3.org/1999/xlink" version="1.1" viewBox="-10 0 3123 2048">
  <g transform="matrix(1 0 0 -1 0 1638)">
   <path fill="currentColor"
d="M1605 1857q0 43 35.5 88t96 71t138.5 26q98 0 204 -67.5t168.5 -168t62.5 -203.5q0 -60 -40.5 -172t-115.5 -256q-93 -178 -117 -242.5t-24 -104.5l1 -16q36 11 69 11q64 0 122 -48q91 25 184.5 42t150.5 17q64 0 114 -24.5t78 -65t28 -79.5q0 -23 -14 -97
q35 -53 62.5 -107.5t56 -108t63 -106t85.5 -102.5l-54 -40q-63 26 -134 102t-114 171q-23 48 -60 87q-30 -233 -184 -354.5t-418 -121.5q-225 0 -371.5 88t-203.5 262q-57 -174 -203 -262t-372 -88q-267 0 -420 122t-183 361h25l54 78l62 27h243q40 110 64 227.5t24 213.5
q0 123 -34 259q-48 138 -116 190l-63 39q-141 79 -141 228q0 29 14 68l-46 -5q-45 0 -133 19.5t-103 27.5l-14 -18h-32v60q0 34 30 69.5t66 41.5l64 10q68 10 134 34q41 15 68 15q65 0 102.5 -31t37.5 -84v-4q48 45 101 45q71 0 245 -135l104 -78l82 -50q116 -70 191 -124.5
t112.5 -100t86.5 -145t91.5 -213t42.5 -141.5q0 -35 -38 -73q17 -66 36 -220.5t21 -229.5h151q-43 22 -64.5 53t-21.5 64q0 57 38 102q-34 65 -34 157q0 78 19 233q14 126 14 152q0 28 -10 60.5t-21 66.5q-12 37 -23 74t-11 74q0 184 114 274q-51 -6 -90 -6q-73 0 -103 21
t-30 61zM964 523v-31h-56l-20 -15l6 -5h263l36 17l28 -17h17l-24 64h-193l23 209l92 -56l75 204q351 -337 399 -393h27q-14 224 -55 409q-28 3 -52.5 20t-31.5 39l-13 40q-20 62 -60 161.5t-83 172.5t-80 107q-94 84 -255 195l-35 24l-82 67q-129 112 -170 112
q-36 0 -61 -33t-25 -79q0 -65 15 -112q-56 12 -87.5 47.5t-31.5 77.5q0 26 12.5 72.5t19.5 61.5v50q0 83 -100 83q-21 0 -62 -15q-23 -8 -35 -12.5t-66 -15.5q-13 -23 -13 -43q0 -16 14 -30l50 -15l-9 -27q-66 24 -115 24q-31 0 -45 -5q41 -15 101.5 -27.5t99.5 -12.5
q78 0 123 32l15 -29q-15 -15 -45 -26q-1 -3 -11 -23.5t-10 -56.5q0 -132 135 -206l57 -35q35 -27 72 -90.5t54 -115.5l80 -69q35 -57 96.5 -247.5t61.5 -279.5q0 -50 -12.5 -85t-43.5 -69h-208l71 247l69 -76l67 89q-14 75 -63.5 220t-71.5 183l-32 25q22 -102 22 -207
q0 -103 -27 -234t-71 -247h-268l-38 -19l-13 -19l23 -26h48l23 17v1l45 33h69v-31h-56l-18 -14l9 -6h101l43 30v-1l30 22h67v-31h-56l-28 -20h129l30 18l47 33h67zM1645 1857q0 -20 19.5 -31t73.5 -11t140 14q85 14 124 14q49 0 82 -12l-14 -38q-32 10 -68 10
q-111 0 -179.5 -83t-68.5 -213q0 -42 32 -135v1q12 -36 22.5 -71.5t10.5 -69.5l-4 -70q-15 -127 -22 -190.5t-7 -124.5q0 -116 62.5 -180t174.5 -64q49 0 237 51t239 51q64 0 123.5 -26.5t92.5 -67.5q5 28 5 54q0 31 -23 61.5t-63 49t-94 18.5q-98 0 -314 -54
q-49 -11 -87 -20t-58 -9q-48 0 -78 30t-30 87q0 85 92 261q130 250 167.5 353t37.5 161q0 97 -59.5 190t-154 151t-181.5 58q-69 0 -120.5 -21.5t-80.5 -56t-29 -67.5zM899 28q232 0 378 107.5t171 295.5h-1098q25 -188 171 -295.5t378 -107.5zM2049 28q232 0 378 107.5
t171 295.5h-1098q25 -188 171 -295.5t378 -107.5zM703 1941q-57 0 -95 -56.5t-38 -136.5q0 -46 31 -69q-7 28 -7 56q0 32 17.5 69.5t45 60t63.5 22.5q25 0 65 -24t127 -98q51 -44 80 -65l35 -24h-1q155 -105 264 -203q56 -56 121 -187t126 -310q6 -24 47 -35q34 20 34 53
q0 20 -36.5 121t-87.5 206t-88 152q-38 43 -113.5 98.5t-218.5 140.5l-48 29l-44 32l-54 42q-163 126 -225 126zM1235 576l39 -105h64q-7 91 -17.5 175t-20.5 109q-54 57 -73 72l-68 -190l-88 55l-14 -116h178zM2499 665q-20 0 -75 -12q113 -36 198.5 -106t124.5 -152
q42 -89 97 -154.5t111 -96.5l8 7q-43 36 -75.5 87t-119.5 224q-52 101 -117.5 152t-151.5 51zM2023 563q-149 0 -220 92q-21 -26 -21 -67q0 -44 55 -76t139 -32q104 0 238 67q-29 19 -51 39q-94 -23 -140 -23zM2351 635l-139 -37q73 -55 155 -87t161 -32q48 0 90 18
q-109 100 -267 138zM1503 558q-32 35 -109 107l-41 39q10 -64 26 -224h124v78zM937 576q17 21 25 46t8 68q0 35 -6 70l-78 -102l-51 52l-39 -134h141zM340 1948q23 20 39 28.5t36 8.5q51 0 51 -37q0 -16 -12.5 -27.5t-38.5 -11.5q-33 0 -75 39zM132 1877h8q18 23 40.5 27.5
t45.5 4.5l35 -3q-4 9 -4 23q0 17 7 36l-65 -9q-25 -4 -46 -25.5t-21 -41.5v-12zM2253 523q-40 -26 -115 -52h223q-58 21 -108 52zM1760 1916q0 14 9 23t23 9t23 -9t9 -23t-9 -23t-23 -9t-23 9t-9 23zM2081 751q18 0 73 12q-33 20 -71 20q-26 0 -54 -9q17 -23 52 -23z
M1543 471h46l-46 48v-48zM370 1948q12 -11 27 -15q-6 6 -6 14q0 9 7 16q-14 -4 -28 -15zM444 1948q0 11 -22 16q9 -5 9 -17q0 -11 -8 -16q21 3 21 17zM369 471h1v1z" />
  </g>

</svg>
