<?xml version="1.0" standalone="no"?>
<!DOCTYPE svg PUBLIC "-//W3C//DTD SVG 1.1//EN" "http://www.w3.org/Graphics/SVG/1.1/DTD/svg11.dtd" >
<svg xmlns="http://www.w3.org/2000/svg" xmlns:xlink="http://www.w3.org/1999/xlink" version="1.1" viewBox="-10 0 1750 2048">
  <g transform="matrix(1 0 0 -1 0 1638)">
   <path fill="currentColor"
d="M143 575h209q30 48 90 58l117 19q30 5 56.5 27.5t40.5 50.5l75 147l-65 186q-43 28 -56 43l-24 16q-116 74 -193 156.5t-77 142.5q0 88 111 206q70 77 85 105.5t15 59.5l-1 18q-106 -5 -197.5 -71.5t-183.5 -209.5h-45q0 92 40.5 172.5t135 154.5t158.5 100
q14 43 31.5 61.5t46.5 31t72 12.5q57 0 98.5 -42.5t41.5 -110.5q0 -41 -13 -73.5t-28 -62.5l-83 -158q-22 -44 -22 -54q0 -5 5 -5q8 0 17 7l66 45q14 9 33 18t57 9q154 0 307 -134q28 -25 90 -72.5t90.5 -69t57.5 -42t51.5 -36.5t37.5 -23q83 -46 250 -144
q-6 -18 -19.5 -32.5t-29.5 -17.5q-11 -36 -57 -62t-134 -26q-48 0 -104 10q-42 7 -65 7h-10q-100 -10 -165 -10v-44l9 -41l7 -44l-3 -44l-4 -66q0 -34 10 -94q26 -32 46 -74h111v-105h-169v-470h-106v88l-391 382h-423v105zM1035 1068q8 -14 17 -48l42 2l139 9q18 0 74 -8
q58 -9 81 -9q68 0 96.5 6.5t53.5 26.5l-883 245q-57 17 -89 53t-32 79q0 41 50 72.5t137 46.5l5 -38q-153 -28 -153 -81q0 -30 23.5 -56t57.5 -37l882 -247l11 -1q26 0 37 17q-151 91 -208 121q-33 16 -162.5 113t-169.5 134q-85 70 -155 98.5t-133 28.5q-38 0 -75 -23
q-82 -51 -92 -55.5t-14 -4.5q-20 1 -28.5 16t-8.5 32q0 15 23 61l86 165q4 9 10.5 22.5t12.5 30t10 36t4 39.5q0 45 -28.5 76t-71.5 31q-36 0 -58 -10t-36 -26.5t-21 -53.5q2 -41 28.5 -64t61.5 -39l4 -36q0 -40 -24 -81.5t-81 -104.5q-37 -39 -69.5 -91.5t-32.5 -83.5
q0 -54 72 -131t199 -160l103 -61l134 -82q77 -53 110 -136.5t36 -210.5q0 -24 -29 -28l-136 -23q-16 -4 -37 -18l4 -3l18 -3h251q-10 23 -43 59q-10 58 -10 109l5 110l-16 81q-1 49 -4 75.5t-13 41.5zM712 621q17 -17 22 -46h24q32 48 91 58l107 19q13 3 13 11v2
q-6 112 -27.5 171.5t-61.5 97.5l-41 -61l9 -32l-41 -46zM413 581l5 -3q6 -3 24 -3h244l2 4q0 13 -27 38q28 42 111 197l33 36l-8 27l54 84q-72 43 -136 87l57 -174l-73 -142q-23 -46 -57 -76.5t-68 -35.5l-125 -21q-27 -5 -36 -18zM720 470l237 -233v233h-237zM183 510h1009
v25h-1009v-25zM622 470l335 -327v38l-293 289h-42zM1023 40v430h-26v-430h26zM122 1556q16 61 65.5 132.5t116.5 123.5t142 70q-8 13 -12 39q-174 -91 -241.5 -190.5t-70.5 -174.5zM487 1835q-12 9 -23 23q-86 -15 -166 -85t-137 -177q63 99 147.5 162.5t178.5 76.5z
M510 1946q0 14 11 25t26 11q14 0 25 -11t11 -25q0 -15 -11 -26t-25 -11q-15 0 -26 11t-11 26zM533 1946q0 -14 14 -14q13 0 13 14q0 13 -13 13q-14 0 -14 -13z" />
  </g>

</svg>
