<?xml version="1.0" standalone="no"?>
<!DOCTYPE svg PUBLIC "-//W3C//DTD SVG 1.1//EN" "http://www.w3.org/Graphics/SVG/1.1/DTD/svg11.dtd" >
<svg xmlns="http://www.w3.org/2000/svg" xmlns:xlink="http://www.w3.org/1999/xlink" version="1.1" viewBox="-10 0 2429 2048">
  <g transform="matrix(1 0 0 -1 0 1638)">
   <path fill="currentColor"
d="M560 -35q33 127 126 143q168 24 207.5 49t87.5 110l159 285l-55 350q-169 53 -309 145.5t-220.5 203.5t-80.5 216q-31 -11 -58.5 -54t-41.5 -106q-8 -53 -16.5 -73t-24 -31.5t-40.5 -11.5q-28 0 -50.5 28t-22.5 84q0 55 45 112.5t113 95.5l169 94l168 147q34 30 34 45
q0 26 -99 26h-14l-512 -196l-25 54l306 182l157 95q59 59 110.5 82.5t103.5 23.5q76 0 131.5 -51t56.5 -128q0 -101 -81 -180l-161 -159q-50 -50 -50 -59q0 -7 8 -7l87 29q138 48 259 48q130 0 300 -67t442 -236q58 -36 91 -55t454 -220v-51l-44 -4l49 -53l-204 -137
l-185 74q-8 4 -55 15.5t-72 11.5l-38 -5q-70 -10 -116 -10q-60 0 -127 30h-1q26 -108 133 -462l-6 -247l67 -22q58 -20 90.5 -55t51.5 -99h-32q-45 48 -260 48q-58 0 -165.5 -11.5t-122.5 -18t-25 -18.5h-32q33 127 126 143l175 32l-9 203q0 49 -17.5 103.5t-57.5 102
t-115 125.5l-59 -168l-238 -376q78 -27 116 -63.5t56 -101.5h-32q-45 48 -260 48q-58 0 -165.5 -11.5t-122.5 -18t-25 -18.5h-32zM1563 105l-203 -36l-4 -32q168 16 209 16l100 -5l55 -5l-4 34l-109 37l7 273l-141 488l52 21q58 -36 124 -36q40 0 110 10l44 5q29 0 92 -15
l49 -14l165 -66l148 97l-40 43l-169 -5q-159 0 -412.5 18t-478.5 75t-357 128.5t-132 134.5q0 50 32.5 91t88.5 63l12 -38q-42 -16 -67.5 -47t-25.5 -69q0 -55 132.5 -118t343 -112t411.5 -65q315 -21 453 -21h221l-399 193h1q-33 16 -221 132q-385 237 -623 237
q-112 0 -249 -46q-93 -32 -100 -32q-45 0 -45 48q0 25 62 87l161 159q69 69 69 148q0 67 -44 105t-104 38q-45 0 -90 -22t-79 -56q3 -36 33 -82l23 1q57 0 91.5 -19.5t34.5 -48.5q0 -32 -63 -89l-160 -138l-168 -93q-62 -35 -100 -84t-38 -90q0 -36 10 -54t23 -18
q27 0 36 52l5 30q13 80 65 138t114 58h4l-1 -20q0 -103 78 -212t217 -200.5t303 -141.5q12 -12 41 -40t66.5 -65t79.5 -79t80 -82t68.5 -74t44.5 -55q27 -41 42 -94t15 -101zM696 37q168 16 209 16l100 -5l55 -5l-4 34l-14 9l-41 16q-18 4 -18 18q0 10 13 31l229 368l65 187
l-158 157l50 -317l-176 -317q-47 -89 -91 -109q-58 -25 -215 -51zM144 1661l458 191q-18 28 -29 65q-42 -27 -437 -240zM1157 -1q-10 24 -28 41t-37 23l4 -27q31 -7 61 -37zM1817 -1q-10 24 -28 41t-37 23l4 -27q31 -7 61 -37zM1325 63q-19 -6 -37.5 -23.5t-27.5 -40.5
q30 30 61 37zM665 63q-19 -6 -37.5 -23.5t-27.5 -40.5q30 30 61 37zM704 1954q0 13 9 22t22 9t22 -9t9 -22t-9 -22t-22 -9t-22 9t-9 22z" />
  </g>

</svg>
