<?xml version="1.0" standalone="no"?>
<!DOCTYPE svg PUBLIC "-//W3C//DTD SVG 1.1//EN" "http://www.w3.org/Graphics/SVG/1.1/DTD/svg11.dtd" >
<svg xmlns="http://www.w3.org/2000/svg" xmlns:xlink="http://www.w3.org/1999/xlink" version="1.1" viewBox="-10 0 2469 2048">
  <g transform="matrix(1 0 0 -1 0 1638)">
   <path fill="currentColor"
d="M2295 802l-66 -3l-155 -5l285 -172l-12 -34q-213 31 -285 31q-32 0 -32 -7q0 -16 51.5 -84.5t122.5 -147.5l-23 -28l-554 321q-159 93 -365 127l34 -62q8 -14 9 -31q0 -17 -11 -43l-60 -155q-4 -10 -4 -21q0 -33 26 -41l120 -38l6 -81l-89 7l-141 7l-169 -7l-98 -7l2 11
l-75 3l-169 -7l-98 -7l19 82l154 30q39 7 60.5 25t45.5 54l82 124q18 29 18 48q0 16 -9 35l-125 257l-226 165q-69 51 -104 90t-58.5 86t-23.5 102q0 45 16 96q8 24 8 33q0 29 -16 56t-33 52l-7 8l-243 24l-3 31l229 88q25 38 82 66t146 28q60 0 104.5 -16t80 -44t95.5 -109
q63 -89 103 -122l51 -37l180 -125q64 -48 354 -305q79 -70 191.5 -141t156.5 -85q48 -15 162.5 -30.5t259.5 -24.5v-67zM2002 791l-246 -4q-225 0 -448.5 57t-410.5 159t-308 225t-121 212q0 56 39 88t101 32q65 0 146 -27l-14 -38q-68 25 -132 25q-41 0 -70.5 -19.5
t-29.5 -60.5q0 -83 115 -197.5t298 -211t398.5 -150.5t436.5 -54h72l436 4q-83 3 -201 18t-179.5 31t-182 92.5t-202.5 147.5l-100 88q-216 190 -251 215h1l-105 73v-1q-111 75 -130 91q-42 38 -104 122q-53 70 -87 99t-74 45t-92 16q-89 0 -148 -32t-59 -81q0 -18 35 -68
q20 -29 38.5 -61.5t18.5 -70.5q0 -23 -10 -47q-14 -39 -14 -82q0 -61 43 -124t127 -122l509 -372q85 -59 98 -96l60 15l-67 123q131 -17 250.5 -54.5t208.5 -88.5l455 -264q-82 103 -100 134t-18 48q0 34 78 34q33 0 185 -16zM1066 684q0 -24 -19 -47l-120 -151
q-9 -11 -9 -22q0 -9 7 -15t55 -23l89 20q45 9 59 70l22 99q10 45 10 64q0 26 -21 43l-104 81l25 -86q6 -19 6 -33zM1191 478q0 22 10 49l63 169l-58 -14l-42 -182q-17 -77 -74 -88l-156 -31l-4 -19q183 17 222 17q40 0 189 -17l-1 15l-87 30q-62 15 -62 71zM812 379l83 -5
l9 35q-35 11 -35 36t25 59l133 168l-61 -2l-100 -160q-20 -35 -53 -65.5t-62 -35.5l-157 -28l-4 -19q183 17 222 17zM855 935l108 -231l58 1l-37 136zM310 1755v7l1 7l-118 -46l129 -13q-12 22 -12 45zM436 1746q0 13 9 22t22 9t22 -9t9 -22t-9 -22t-22 -9t-22 9t-9 22z" />
  </g>

</svg>
