<?xml version="1.0" standalone="no"?>
<!DOCTYPE svg PUBLIC "-//W3C//DTD SVG 1.1//EN" "http://www.w3.org/Graphics/SVG/1.1/DTD/svg11.dtd" >
<svg xmlns="http://www.w3.org/2000/svg" xmlns:xlink="http://www.w3.org/1999/xlink" version="1.1" viewBox="-10 0 2473 2048">
  <g transform="matrix(1 0 0 -1 0 1638)">
   <path fill="currentColor"
d="M993 218q0 84 -22.5 118.5t-90.5 88.5q-304 68 -473 176t-169 242q0 90 43.5 149t125.5 78l-6 4l-192 -36q-26 -5 -45 -5q-24 0 -44 10.5t-20 33.5q0 24 12.5 39.5t43.5 30.5l199 95q30 101 108 158.5t182 57.5q97 0 170 -39t112.5 -117t39.5 -158q46 18 110 18
q159 0 539 -145q153 -60 448 -127l153 -37v-67l-75 -35q221 -57 221 -136q0 -42 -87.5 -81t-237 -69.5t-440.5 -69.5q-12 -33 -22 -77.5t-10 -68.5q0 -40 33 -148l4 -25q0 -42 -26 -59t-76 -17h-316l-56 80l85 73l200 -13q18 0 24.5 12t6.5 35v31q0 55 -32.5 93t-149.5 63
q-45 0 -105 6l-40 -96v-144h-1q0 -86 -9.5 -104t-33 -27t-60.5 -9h-316l-56 80l85 73l235 -13q18 0 24.5 12t6.5 35v31zM456 1034q-83 -2 -130.5 -53t-47.5 -138q0 -76 69.5 -145t208.5 -129t329.5 -104t341.5 -56q-75 47 -118 88l26 30q39 -37 99 -76t92 -51
q87 -22 123 -69.5t36 -112.5v-31q0 -49 -12 -68t-44 -20l-207 14l-29 -22l169 -5v-28l-176 8l20 -26h295q62 0 62 36q0 12 -12 48q-25 88 -25 125q0 62 42 184q354 40 554.5 88.5t200.5 93.5q0 25 -50.5 51t-192.5 60q-181 -70 -364.5 -105.5t-346.5 -35.5
q-237 0 -378.5 70.5t-141.5 189.5q0 47 38.5 99t103.5 96l22 -34q-55 -36 -89.5 -79.5t-34.5 -81.5q0 -101 130.5 -160.5t349.5 -59.5q160 0 308 26t279.5 67.5t224.5 89.5v17l-145 35q-295 66 -434 119q-368 143 -525 143q-70 0 -151 -44l-4 46q-2 75 -28.5 145
t-89.5 109.5t-159 39.5q-77 0 -134.5 -36t-91.5 -93.5t-34 -109.5q0 -24 18 -51t43.5 -42.5t88 -23t183.5 -7.5v-40q-177 0 -262 19zM1033 187q0 -49 -12 -68t-44 -20l-242 14l-29 -22l204 -5l-35 -28l-176 8l20 -26h295q62 0 62 36v14l2 61v139l39 94q-99 14 -158 25
q37 -37 49.5 -59t18.5 -58.5t6 -72.5v-19v-13zM579 1277q0 21 15 35.5t37 14.5q21 0 35.5 -14.5t14.5 -35.5q0 -22 -14.5 -37t-35.5 -15q-22 0 -37 15t-15 37zM345 1187l1 9l-174 -83q-25 -13 -30 -23l205 67l-2 11v19zM370 1107l-13 20l-190 -54l36 3zM612 1277
q0 -19 19 -19q18 0 18 19q0 18 -18 18q-19 0 -19 -18z" />
  </g>

</svg>
