<?xml version="1.0" standalone="no"?>
<!DOCTYPE svg PUBLIC "-//W3C//DTD SVG 1.1//EN" "http://www.w3.org/Graphics/SVG/1.1/DTD/svg11.dtd" >
<svg xmlns="http://www.w3.org/2000/svg" xmlns:xlink="http://www.w3.org/1999/xlink" version="1.1" viewBox="-10 0 2722 2048">
  <g transform="matrix(1 0 0 -1 0 1638)">
   <path fill="currentColor"
d="M2037 375q40 0 88 13t155 60q-2 -40 -47 -110t-87 -110q51 -44 89.5 -116.5t40.5 -127.5q-43 28 -117.5 53.5t-129.5 25.5q-155 0 -327 -70l-71 -29l129 -134q-115 -31 -210 -31q-150 0 -248 40q-196 -60 -343 -60l-68 3q43 -89 80 -147q-72 17 -197.5 87t-172.5 110
q-140 37 -279 94.5t-207 100.5l45 57q-12 9 -60 41q37 43 92 87q-34 65 -34 145q0 41 34.5 191.5t54.5 221.5q-23 38 -23 109v19q0 55 13 98.5t39 82.5t101 114q18 18 40.5 58t27.5 56l7 37q38 247 64 351.5t49 137.5q51 63 166.5 120t271.5 91.5t337 34.5q215 0 552 -182
l90 -46q214 -112 332.5 -150t214.5 -38q34 0 83 7v-94q-54 -18 -173 -41l145 -65l-130 -228q-263 126 -350 126q-77 0 -485 -102l44 -232l-25 -48v-490l95 -24q79 -31 112 -92q80 -5 192 -5zM1623 1039l-52 255q449 114 533 114q32 0 102 -22t234 -93l88 159l-155 71
q-165 -30 -362.5 -52.5t-317.5 -22.5q-194 0 -331 25.5t-228.5 64t-144.5 84.5t-80 87t-34 71t-7 38q0 43 36 79l28 -28q-24 -24 -24 -51q0 -7 7 -33.5t32.5 -63.5t76 -78t137.5 -75.5t217 -57t315 -22.5q162 0 468.5 41t407.5 71l2 29l-21 -1h-22q-73 0 -148 17t-148 44.5
t-212 97.5l-146 74q-191 102 -312.5 140t-221.5 38q-174 0 -324 -32t-262 -86t-157 -112q-39 -53 -94 -402l-11 -73l-9 -41q-11 -30 -35 -69.5t-43 -58.5q-70 -70 -94 -106t-35.5 -75t-11.5 -86v-17q0 -44 11.5 -77.5t39.5 -33.5q31 0 57.5 24t47.5 60t48 113q8 24 24 117
q12 68 19 87q61 154 87 237q8 26 24 114q17 101 35 136.5t41 35.5q16 0 144 -90q183 -130 228.5 -161.5t66.5 -39.5t69.5 -20t102.5 -22l247 -291q-10 -43 -10 -63q0 -9 13 -29.5t17 -24.5l-27 -490l-242 -29l-5 -31q151 8 228 8h21l115 -8l70 -7l-3 34l-136 41l2 525z
M253 265v-8q119 82 259 138q59 59 125 72l198 36q60 13 86.5 28t33.5 34l89 187l89 221v-1q8 25 15 90t7 150q0 79 -7 145q-24 7 -44 17q-50 28 -212 145l-66 48q-103 77 -121 77q-16 0 -26 -33.5t-25 -136.5q-7 -44 -19.5 -83t-85.5 -233v1l-17 -83q-16 -84 -23 -109.5
t-24.5 -65t-35.5 -69.5t-39 -53q-71 -165 -114 -306t-43 -208zM1525 372q-35 0 -135.5 -4.5t-138.5 -9.5t-56 -24l-32 1l1 5l-66 -2q-38 0 -106 20q-68 19 -107 19l-166 -10l-208 -15l-28 -12q32 -48 52.5 -110t20.5 -111q0 -116 -46 -220l113 -33h1l1 -1q182 -46 334 -46
q87 0 179 18.5t187.5 50t362.5 143.5q136 54 268 68q30 34 30 110q0 81 -31 126l-162 9q-63 23 -198 26zM1127 672l-60 -127q-13 -27 -13 -47q0 -25 40 -41l103 -46q38 55 97 63l222 27l20 440l-8 13q-22 31 -22 53q0 8 8 52l-145 172l-86 -217l3 -30q0 -20 -6 -32
l-151 -281zM171 45q133 -73 301 -133q14 24 29 87t15 120q0 97 -68 204q-78 -37 -162.5 -92t-130.5 -104q8 -10 47 -40zM1102 708l142 262l2 11l-5 37l98 248l-49 59q-34 2 -101 20q6 -66 6 -133q0 -175 -24 -253l-96 -239h-2l-82 -171q-32 -63 -147 -83q-62 -10 -183 -34
l-5 -28l137 9l92 4q44 0 111 -17q100 -25 155 -25l27 1l4 9q-9 0 -67 21t-79.5 41t-21.5 51q0 24 18.5 67t68.5 144zM2020 337h-22q28 -54 28 -128q0 -63 -21 -107l12 1h12q82 0 185 -36q-61 116 -140 160q24 7 74 62t72 97q-93 -49 -200 -49zM1592 -52q-137 -58 -224 -87
q81 -22 182 -22q69 0 135 12zM349 734l-15 -5l-16 1q-47 -177 -72.5 -271.5t-22.5 -148.5v-22l2 -21q1 67 36.5 198.5t87.5 268.5zM189 331q0 -38 9 -65l-1 22v22q0 72 23 157l71 266l-19 9q-56 -235 -69.5 -306.5t-13.5 -104.5zM701 -192q103 -69 182 -105q-5 9 -38 82
q-81 9 -144 23zM291 873q0 14 10.5 24.5t24.5 10.5t24.5 -10.5t10.5 -24.5t-10.5 -24.5t-24.5 -10.5t-24.5 10.5t-10.5 24.5zM327 146q0 14 9.5 23.5t23.5 9.5t23.5 -9.5t9.5 -23.5t-9.5 -23.5t-23.5 -9.5t-23.5 9.5t-9.5 23.5zM1272 430q-49 -19 -68 -62q8 8 27 20t36 15z
M1811 369q-19 45 -43 45l3 -27q16 -5 24.5 -7.5t15.5 -10.5zM620 424q-39 -15 -52 -28l48 5z" />
  </g>

</svg>
