<?xml version="1.0" standalone="no"?>
<!DOCTYPE svg PUBLIC "-//W3C//DTD SVG 1.1//EN" "http://www.w3.org/Graphics/SVG/1.1/DTD/svg11.dtd" >
<svg xmlns="http://www.w3.org/2000/svg" xmlns:xlink="http://www.w3.org/1999/xlink" version="1.1" viewBox="-10 0 3159 2048">
  <g transform="matrix(1 0 0 -1 0 1638)">
   <path fill="currentColor"
d="M1443 104l1 12l-44 -1q-32 -2 -66 -27l-7 1v16l2 13l-124 5q-33 0 -90.5 -3t-88 -7t-63.5 -27l-14 4l-1 14l1 12l-44 -1q-29 -2 -60 -24l-13 4q1 31 10.5 51t23 32t51.5 28t67.5 22.5t110.5 13.5q63 13 90.5 28t52 40.5t44.5 71.5l66 153l-78 159l-18 8v-1
q-174 70 -263.5 124.5t-168 116.5t-116.5 110l1 -1q-43 56 -75 78t-65 22t-68.5 -39t-59.5 -95t-24 -89q0 -27 39 -214q17 -82 17 -115q0 -28 -32 -181h-1q4 -73 49 -285l-51 -19q-137 184 -166 250q-76 58 -122 125t-46 128q0 75 44.5 244t94 281.5t98.5 192t110.5 123
t147 73t205 48t286.5 18.5q138 0 283 -14.5t240 -41.5q97 -30 555 -230q285 -128 346 -146q112 -41 429 -201v-56q-34 -11 -146 -27l256 -183v-55q-76 -62 -174 -62q-94 0 -198 24t-189 64q-109 -43 -254 -69.5t-277 -26.5q-75 0 -210 21l64 -95l-27 -189l-2 -54
q0 -8 172 -69v-80q-24 4 -105 10t-149 6q-45 0 -115.5 -4.5t-89.5 -12t-38 -21.5l-12 3zM2732 874q-198 -22 -483 -39t-395 -17q-175 0 -377 60t-381.5 165.5t-236.5 198.5l34 20q53 -86 224 -186.5t368 -159t369 -58.5q175 0 572 24.5t476 49.5v12q-298 149 -404 183
q-77 26 -350 148q-346 150 -442.5 188t-153 51t-134 23t-162 15t-170.5 5q-224 0 -393 -42t-264 -124q-40 -43 -91.5 -139t-92.5 -199q-23 -56 -64 -209t-41 -227q0 -42 36.5 -98t93.5 -107l71 43l66 -3q6 20 14 69.5t8 77.5q0 36 -27 154q-29 132 -29 175q0 42 32 108.5
t76 110.5t84 44q42 0 82.5 -25.5t89.5 -91.5q35 -44 105.5 -100t158.5 -110t267 -126q133 -54 190 -82.5t124 -86.5t138 -136l-9 -112q-4 -45 -30 -78t-71 -44q-29 -12 -39 -20.5t-15 -16t-7 -14.5q72 11 153 11q92 0 212 -15v19l-43 15q-129 38 -129 78v19l1 18l1 20
l28 177l-112 158q228 -35 297 -35q131 0 273.5 27t261.5 73q72 -41 177.5 -66.5t205.5 -25.5q87 0 134 40v16zM1356 265q0 -16 13 -33t39 -28q67 33 182 38q39 8 59.5 32.5t22.5 54.5l6 91q-33 38 -90 90t-98 80l1 -62l-100 -178q-31 -62 -33 -73zM1054 148q72 11 153 11
q36 0 132 -8q13 24 33 36q-26 16 -39 32.5t-13 44.5q0 12 8.5 34t122.5 241l-1 43v32q-50 25 -123 56l61 -135l-75 -169q-22 -49 -49.5 -80.5t-58.5 -51t-90 -35.5q-29 -12 -39 -20.5t-15 -16t-7 -14.5zM300 384q35 -86 111 -189q-62 149 -74 212zM440 195q-6 26 -19 104.5
t-15 117.5l-40 -1q17 -83 74 -221zM234 536q0 14 10 24t24 10t24 -10t10 -24t-10 -24t-24 -10t-24 10t-10 24zM1442 141q25 35 92 67q-44 -7 -78.5 -25t-50.5 -42h37zM947 141q25 35 92 67q-44 -7 -78.5 -25t-50.5 -42h37zM1041 180q-64 -34 -68 -64q12 12 44 23
q11 26 24 41zM1536 180q-64 -34 -68 -64q12 12 44 23q11 26 24 41zM1350 118q17 17 33 19q7 22 20 37q-45 -13 -53 -56zM855 118q17 17 33 19q7 22 20 37q-45 -13 -53 -56z" />
  </g>

</svg>
