<?xml version="1.0" standalone="no"?>
<!DOCTYPE svg PUBLIC "-//W3C//DTD SVG 1.1//EN" "http://www.w3.org/Graphics/SVG/1.1/DTD/svg11.dtd" >
<svg xmlns="http://www.w3.org/2000/svg" xmlns:xlink="http://www.w3.org/1999/xlink" version="1.1" viewBox="-10 0 3035 2048">
  <g transform="matrix(1 0 0 -1 0 1638)">
   <path fill="currentColor"
d="M1698 1312q178 0 417 -51q72 54 183 87l408 121l40 -100q-143 -197 -190 -244q179 -77 274 -164t95 -177q0 -89 -117.5 -169.5t-321.5 -139.5l52 -44q11 -60 48 -136t67 -117l-54 -73q-75 19 -195 70t-213.5 107.5t-139.5 107.5q-144 -15 -283 -15q-208 0 -364 28
q63 -159 111 -222l-62 -64q-162 83 -290 197t-162 212q-182 87 -231.5 104.5t-97 27.5t-97.5 10q-130 0 -210 -66.5t-80 -172.5q0 -48 45 -105t133.5 -115t146.5 -74q18 7 68.5 16.5t94.5 9.5q97 0 173 -34.5t126.5 -103.5t64.5 -149l21 -15q65 -44 121 -96.5t68 -82.5
l3 -24q0 -27 -13 -72l-330 170q-22 -8 -44 -8q-80 0 -190.5 64.5t-153.5 127.5q-73 8 -171.5 61.5t-178 127t-124.5 158t-45 168.5q0 165 114 291t335 197q113 91 179 133t147 80.5t177 68.5q34 85 151.5 184.5t313.5 200.5l62 -64q-24 -29 -67 -109t-66 -135q139 12 252 12
zM2514 1134q42 47 73 86t114 155l-20 46l-371 -111q-108 -32 -171 -82t-63 -103q0 -54 48 -106l-28 -28q-26 28 -43 65.5t-17 68.5q0 56 44 104q-219 43 -382 43q-136 0 -270 -13q-28 -72 -31 -104l-40 6q8 66 65 188t104 193l-17 18q-430 -229 -430 -403q0 -56 48 -74
l-12 -38q-34 13 -55 43t-21 69v10l1 10q-216 -72 -391 -208l-82 -64q-210 -66 -318.5 -184t-108.5 -268q0 -77 43.5 -155.5t122.5 -148.5t175.5 -119.5t159.5 -53.5q37 -61 142 -125.5t180 -64.5q32 0 68.5 23t65.5 60q-12 72 -55 131t-112 90t-157 31q-73 0 -161 -28
q-70 19 -168 85t-148.5 130t-50.5 121q0 117 95 198t235 81q50 0 100.5 -10t107.5 -31t207 -92l-1 8v8q0 38 19.5 70t55.5 53l18 -36q-53 -30 -53 -87q0 -93 116.5 -210.5t299.5 -214.5l17 18q-43 71 -91.5 193.5t-55.5 179.5l40 6q5 -40 32 -116q173 -32 381 -32
q125 0 254 12q-22 35 -22 66q0 86 70 138l22 -34q-24 -17 -38 -44.5t-14 -59.5q0 -53 76.5 -119.5t220.5 -135t248 -95.5l18 35q-28 43 -59.5 113t-43.5 121l-73 63l10 24q448 123 448 285q0 166 -363 317zM1101 -186l219 -158q0 24 -40.5 64.5t-153.5 121.5zM1076 -207
l-32 -23l226 -116zM894 -46q0 20 14.5 34.5t35.5 14.5q20 0 34.5 -14.5t14.5 -34.5q0 -21 -14.5 -35.5t-34.5 -14.5q-21 0 -35.5 14.5t-14.5 35.5zM925 -46q0 -19 19 -19q18 0 18 19q0 18 -18 18q-19 0 -19 -18z" />
  </g>

</svg>
