<?xml version="1.0" standalone="no"?>
<!DOCTYPE svg PUBLIC "-//W3C//DTD SVG 1.1//EN" "http://www.w3.org/Graphics/SVG/1.1/DTD/svg11.dtd" >
<svg xmlns="http://www.w3.org/2000/svg" xmlns:xlink="http://www.w3.org/1999/xlink" version="1.1" viewBox="-10 0 2535 2048">
  <g transform="matrix(1 0 0 -1 0 1638)">
   <path fill="currentColor"
d="M572 1710v35q0 36 9.5 62.5t24.5 46.5t60 53l52 52q19 42 78.5 67t144.5 25q81 0 138 -23t98.5 -67.5t102.5 -171.5l125 -65q143 -138 449 -554q0 -6 141 -169.5t169 -182.5q8 27 35 145h83v-52q0 -97 -17 -191l160 -148l-50 -63l-143 91l-17 -48l93 -137l-303 -194
l-7 12q-134 -120 -335 -189t-474 -69q-337 0 -580 110.5t-376 323.5t-133 502v52h79q62 -292 215 -454t419 -218q40 25 114 31l170 12l28 172l2 49q0 161 -123 485l-92 118q-94 121 -127.5 193t-33.5 133v154q0 53 -20 82t-55 29q-25 0 -44.5 -12t-22.5 -27h-37zM941 2011
q-63 0 -102 -10.5t-62 -27t-27 -33.5l-61 -59q-43 -32 -59 -57t-20 -57q15 31 40.5 49.5t53.5 18.5q38 0 72 -29l9 -1q12 0 12 11l-1 12q-20 0 -34 14.5t-14 34.5q0 19 14 34.5t38 15.5h76q58 0 95.5 -35.5t37.5 -86.5q0 -81 -119 -144l-19 -1q-13 0 -17 14h-16v-23h-23
q-13 68 -42.5 110t-68.5 42q-23 0 -44 -19l16 1q55 0 85 -38.5t30 -108.5v-154q0 -53 34.5 -124.5t126.5 -189.5q125 -164 249 -297q77 -82 123.5 -178.5t46.5 -165.5l-13 -230q-94 -3 -156 -9v-32h54q171 4 309 32q-92 8 -146 8v229q69 -14 144 -58v343q59 0 106 -25
t84 -63t85 -119l185 -331l235 156l-174 253q-252 145 -684 372l-365 186q-52 29 -108 78t-89 98.5t-33 92.5q0 48 45.5 96t123.5 80.5t168 38.5l1 -40q-126 -8 -212 -60t-86 -115q0 -38 31.5 -83t84.5 -88.5t95 -63.5q574 -287 1062 -565q103 -57 249 -153l7 10l-228 209
l-29 25q-22 17 -165 187l-132 160q-295 404 -444 547l-129 67q-56 118 -93.5 161t-87.5 65.5t-125 22.5zM1911 391q-151 -101 -313 -137.5t-409 -36.5q-263 0 -429.5 42.5t-284 127.5t-200.5 218.5t-126 317.5h-9q0 -278 123 -482.5t359 -315t567 -110.5q268 0 463.5 69
t324.5 188zM1640 308q145 39 253 117l-90 163q-50 89 -99.5 131t-104.5 53v-378q-97 69 -142 80v-140q42 0 95 -7.5t88 -18.5zM1139 322l50 1l40 222q56 -14 100 -37l1 27q0 63 -43 149.5t-116 164.5l-95 107q55 -159 73 -246.5t18 -154.5l-3 -54zM929 1738v-8l-2 -11
q50 35 50 86q0 38 -28 64.5t-73 26.5h-32q4 -9 4 -19q0 -14 -7.5 -27t-19.5 -18q9 -13 9 -26q0 -12 -5 -17t-26 -11q21 -28 29 -63l-1 20q0 22 14.5 39t37.5 17t36.5 -16t13.5 -37zM1325 470q-18 18 -66 33q-7 -26 -30 -176l87 7zM2225 754q13 91 13 169h-9
q-17 -74 -39 -138zM879 1764q-29 0 -29 -34q0 -17 10.5 -26t18.5 -9q26 0 26 35q0 34 -26 34zM777 1877q0 -21 20 -21q21 0 21 21q0 20 -21 20q-8 0 -14 -6t-6 -14zM1170 285q-28 0 -48 -27l18 -1h18l12 1v27zM991 265l17 -1q20 20 38 30l-55 -4v-25zM2151 649l35 -53l8 26z
M1102 284q-37 0 -58 -23l33 -2q8 13 25 25zM962 285q-22 0 -41 -12l41 -5v17zM885 289q-13 0 -28 -5l19 -5z" />
  </g>

</svg>
