<?xml version="1.0" standalone="no"?>
<!DOCTYPE svg PUBLIC "-//W3C//DTD SVG 1.1//EN" "http://www.w3.org/Graphics/SVG/1.1/DTD/svg11.dtd" >
<svg xmlns="http://www.w3.org/2000/svg" xmlns:xlink="http://www.w3.org/1999/xlink" version="1.1" viewBox="-10 0 2865 2048">
  <g transform="matrix(1 0 0 -1 0 1638)">
   <path fill="currentColor"
d="M973 50v97q0 102 21 179t74.5 166.5t187.5 258.5q152 190 203.5 262t80 127t28.5 95q0 36 -8.5 59t-36.5 42q-65 -20 -171 -20q-42 0 -166.5 20.5t-229.5 44.5l-682 -89q-23 -5 -57 -5q-55 0 -86 19.5t-31 55.5q0 43 52 79t154 59l554 115q51 112 156.5 178t244.5 66
q98 0 194 -46q213 -88 440.5 -140t391.5 -52t337 34l42 5q64 0 64 -47q0 -29 -33.5 -45t-105.5 -29t-157 -22t-138 -9q-86 0 -199.5 13t-187.5 33q179 -91 291.5 -130t231.5 -61t245 -22q32 0 55 -12t23 -35q0 -42 -49 -56.5t-155 -14.5q-163 0 -376.5 77.5t-416.5 210.5
q46 -93 46 -181q0 -67 -24.5 -143.5t-64.5 -158.5t-136 -240q-105 -167 -170.5 -336t-65.5 -281q0 -33 7 -121h-377zM1306 90l-3 81q0 111 61 273.5t181 363.5q124 199 171.5 318.5t47.5 203.5q0 107 -76 226t-192 191t-235 72q-120 0 -217.5 -59t-146.5 -162
q52 -96 68 -178q39 -14 187 -39t200 -25q97 0 177 24q37 -15 58 -53.5t21 -91.5q0 -40 -30 -99.5t-83 -136.5t-207 -272q-135 -173 -183.5 -254.5t-70 -156.5t-21.5 -170v-56h293zM142 1375l758 122l-34 77l-552 -114q-153 -36 -172 -85zM1690 1622l38 -45
q233 -152 446.5 -233t376.5 -81q95 0 129.5 6.5t34.5 20.5q0 11 -45 11q-203 0 -423.5 69t-556.5 252zM2296 1548q125 0 258 22.5t133 45.5q0 6 -7 7q-11 0 -54 -9q-165 -33 -339 -33q-139 0 -318 35.5t-372 102.5l44 -42q308 -129 655 -129zM217 1327q24 0 47 5l661 85
l-11 41l-755 -122q20 -9 58 -9zM1001 1610q0 30 21 51t51 21t51 -21t21 -51t-21 -51t-51 -21t-51 21t-21 51zM1033 1610q0 -17 11.5 -28.5t28.5 -11.5t28 11.5t11 28.5t-11 28t-28 11t-28.5 -11t-11.5 -28z" />
  </g>

</svg>
