<?xml version="1.0" standalone="no"?>
<!DOCTYPE svg PUBLIC "-//W3C//DTD SVG 1.1//EN" "http://www.w3.org/Graphics/SVG/1.1/DTD/svg11.dtd" >
<svg xmlns="http://www.w3.org/2000/svg" xmlns:xlink="http://www.w3.org/1999/xlink" version="1.1" viewBox="-10 0 1193 2048">
  <g transform="matrix(1 0 0 -1 0 1638)">
   <path fill="currentColor"
d="M800 1427q134 0 208.5 -76t74.5 -208q0 -76 -47.5 -160.5t-161 -206t-173.5 -178.5q-58 -54 -86 -109q24 19 59.5 30t70.5 11q66 0 118 -34t80.5 -90t28.5 -118q0 -90 -46.5 -155.5t-124 -101t-168.5 -35.5t-174.5 47.5t-132.5 129.5t-49 180q0 71 41.5 156.5
t143.5 204.5l262 265h-16l-15 2q-51 10 -112 30q-47 16 -96 20q-168 11 -211.5 16.5t-87.5 12.5l-16 -24l-9 -13h-61v54q0 58 28.5 115.5t73.5 88.5t174 49l87 15l27 8q111 42 147.5 51.5t76.5 16t86 6.5zM529 370q0 57 42 126t144 171q170 175 221.5 241t79 123t27.5 112
q0 114 -65.5 179t-177.5 65q-83 0 -147.5 -19.5t-112.5 -38.5q-43 -17 -79 -25q-8 -37 -8 -78q0 -42 7 -69q32 -8 92 -28l-16 -38q-106 38 -178 38q-70 0 -132 -34q104 -16 193 -21q70 -4 93.5 -7t106.5 -26q63 -20 122 -20q27 0 53 11.5t75 46.5l20 -34q-60 -43 -105 -61
l-294 -298q-69 -82 -100.5 -131.5t-52 -100.5t-20.5 -101q0 -86 43 -158.5t117.5 -115.5t155.5 -43q80 0 148.5 30.5t109.5 87.5t41 134q0 81 -54 141.5t-133 60.5q-73 0 -124.5 -39t-51.5 -92q0 -31 19.5 -59.5t49.5 -37.5l-12 -38q-40 12 -68.5 53t-28.5 93zM143 1063
q24 41 50.5 60.5t67.5 32.5t97 13q24 0 59 -5l-4 62q0 45 6 70l-37 -6q-113 -16 -152 -38.5t-64.5 -70.5t-25.5 -104v-14h3zM539 1252l82 24q8 30 32.5 50t57.5 20q39 0 65.5 -26.5t26.5 -65.5t-26.5 -65.5t-65.5 -26.5q-36 0 -61.5 23t-30.5 58l-72 -21zM650 1254
q0 -25 18 -43t43 -18t42.5 18t17.5 43t-17.5 42.5t-42.5 17.5t-43 -17.5t-18 -42.5zM678 1254q0 14 9.5 23t23.5 9t23 -9t9 -23t-9 -23.5t-23 -9.5t-23.5 9.5t-9.5 23.5zM699 1254q0 -12 12 -12q11 0 11 12q0 11 -11 11q-12 0 -12 -11z" />
  </g>

</svg>
