<?xml version="1.0" standalone="no"?>
<!DOCTYPE svg PUBLIC "-//W3C//DTD SVG 1.1//EN" "http://www.w3.org/Graphics/SVG/1.1/DTD/svg11.dtd" >
<svg xmlns="http://www.w3.org/2000/svg" xmlns:xlink="http://www.w3.org/1999/xlink" version="1.1" viewBox="-10 0 2992 2048">
  <g transform="scale(1, -1)"  transform-origin="center">
   <path fill="currentColor"
d="M147 1063q19 0 38 -16l177 -172l178 172q19 16 38 16q17 0 28.5 -12.5t12.5 -30.5q0 -17 -12 -29l-143 -136q93 -37 153 -114l66 -88q54 -78 116 -78q48 0 124 22.5t191 61.5q124 41 217 41q70 0 148.5 -21.5t281.5 -111.5q223 -100 473 -100q128 0 217 7t196 23l8 1
q16 0 27 -12.5t11 -28.5q0 -31 -29 -46q-187 -92 -442 -92q-118 0 -314 22q-218 24 -296.5 31.5t-135.5 7.5q-99 0 -308 -31q-182 -30 -303 -30q-73 0 -119.5 9t-81 30t-76.5 71l-78 96q-51 66 -76 66l-19 -2q-55 -14 -73.5 -16.5t-41.5 -2.5q-95 0 -147.5 34t-52.5 93
q0 106 160 159l-142 135q-13 11 -13 29q0 17 12.5 30t29.5 13zM366 833q-59 0 -111 -20t-83.5 -52t-31.5 -64q0 -38 45 -62t115 -24q50 0 87 10q29 9 47 9q39 0 85 -55l97 -119q45 -55 102 -76.5t147 -21.5q92 0 297 30q205 32 314 32q71 0 325 -27q112 -13 215 -24t206 -11
q92 0 183 16t166 42t76 33v3q-1 4 -10 4l-10 -1q-107 -17 -198.5 -22.5t-194.5 -5.5q-124 0 -251 28.5t-230 74.5q-173 76 -263 102.5t-159 26.5q-87 0 -260 -55q-86 -28 -152.5 -48.5t-119.5 -20.5q-28 0 -50 9t-39.5 22.5t-56.5 61.5l-66 89q-93 116 -221 116zM425 866
l146 139q13 13 13 18q0 7 -7 7t-17 -11l-154 -150zM141 1023q0 -6 12 -18l146 -139l19 2l-153 151q-11 11 -17 11q-7 0 -7 -7zM315 768q0 14 9 23t23 9q13 0 21.5 -9t8.5 -23q0 -13 -8.5 -21.5t-21.5 -8.5q-14 0 -23 8.5t-9 21.5zM2754 1015v-895h-2589v-80h2677v1056h-1165
v-80zM1637 975v161h1245v-1136h-2757v160h2589v815h-1077z" />
  </g>

</svg>
