<?xml version="1.0" standalone="no"?>
<!DOCTYPE svg PUBLIC "-//W3C//DTD SVG 1.1//EN" "http://www.w3.org/Graphics/SVG/1.1/DTD/svg11.dtd" >
<svg xmlns="http://www.w3.org/2000/svg" xmlns:xlink="http://www.w3.org/1999/xlink" version="1.1" viewBox="-10 0 1222 2048">
  <g transform="matrix(1 0 0 -1 0 1638)">
   <path fill="currentColor"
d="M1112 1080q0 -184 -91 -354t-260.5 -299t-397.5 -208q17 111 17 175q0 167 -69 333t-211 340v26q143 176 211.5 341.5t68.5 331.5q0 65 -17 175q229 -80 398 -208.5t260 -298.5t91 -354zM142 1080q141 -176 209.5 -345t68.5 -341q0 -49 -7 -114q197 74 344.5 193
t231 279.5t83.5 327.5q0 165 -83.5 326t-230.5 280.5t-345 193.5q7 -65 7 -114q0 -174 -69 -342.5t-209 -343.5z" />
  </g>

</svg>
