<?xml version="1.0" standalone="no"?>
<!DOCTYPE svg PUBLIC "-//W3C//DTD SVG 1.1//EN" "http://www.w3.org/Graphics/SVG/1.1/DTD/svg11.dtd" >
<svg xmlns="http://www.w3.org/2000/svg" xmlns:xlink="http://www.w3.org/1999/xlink" version="1.1" viewBox="-10 0 2524 2048">
  <g transform="scale(1, -1)"  transform-origin="center">
   <path fill="currentColor"
d="M1818 1015q0 103 72 175.5t176 72.5q103 0 175.5 -72t72.5 -176q0 -66 -31.5 -121t-83.5 -88h206v-133h-832q53 -86 53 -151q0 -86 -52.5 -131.5t-155.5 -45.5q-39 0 -81 14v-214h1077v-40h-225v-170h225v-40h-225v-170h225v-40h-2295v40h230v170h-230v40h230v170h-230
v40h1098v274q-61 39 -132.5 102.5t-119.5 115.5l-34 36h-351q-42 -54 -113 -90t-143 -36q-73 0 -122 31.5t-75.5 83.5t-26.5 108q0 119 42.5 185.5t117.5 66.5q62 0 151.5 -65t156.5 -151h1364q-52 33 -83 88t-31 121zM971 1428q0 69 73 99t221 32l-82 80q149 39 330 39
q122 0 317 -73q78 -29 153 -45t173.5 -31t176.5 -23v-142h-325l-114 -18q-247 -43 -536 -43q-180 0 -283.5 33t-103.5 92zM413 2116h503v-103h-151q-33 -50 -56 -121t-23 -133v-346q86 -1 130 -12t62.5 -34.5t18.5 -76.5q0 -68 -42 -178.5t-95 -181t-94 -70.5t-94 70.5
t-95 181t-42 178.5q0 73 43.5 97t167.5 26v346q0 64 -23 134.5t-56 119.5h-154v103zM2333 1946v-180h-943q-74 0 -161.5 50t-146 112.5t-58.5 104.5q0 80 76 80q21 0 48.5 -13.5t88.5 -64.5q102 -89 181 -89h915zM1811 1484q-319 35 -534 35q-136 0 -201 -20.5t-65 -70.5
q0 -35 105 -60t242 -25q275 0 516 40l130 20h291v65q-33 4 -183 30.5t-220 43.5l-76 25q-109 41 -178.5 56t-124.5 15q-110 0 -155 -4.5t-96 -15.5l61 -60q259 -6 492 -34zM1280 1179q125 0 213 -92t99 -230h-624q11 138 99 230t213 92zM1418 1906q-34 0 -66 11t-61.5 28.5
t-78.5 59.5q-32 26 -60.5 47t-51.5 21q-36 0 -36 -40q0 -35 53.5 -87t130.5 -96t142 -44h903v100h-875zM214 766q7 -16 35 -53h2116v53h-2151zM1280 1139q-102 0 -174 -67t-92 -175h531q-20 108 -91 175t-174 67zM2149 -275v170h-410v-170h410zM1249 -275v170h-410v-170h410
zM799 -65v170h-410v-170h410zM1699 -275v170h-410v-170h410zM1249 -65v170h-410v-170h410zM1699 -65v170h-410v-170h410zM2149 -65v170h-410v-170h410zM799 -275v170h-410v-170h410zM857 1290q0 47 -33.5 64t-137.5 19v-468q57 30 114 167.5t57 217.5zM475 1290
q0 -87 59 -222.5t112 -162.5v468q-102 -2 -136.5 -18.5t-34.5 -64.5zM1934 1176q-17 -14 -30 -30l130 -131l-130 -132q14 -17 31 -30l131 129l131 -129q16 13 31 31l-129 131l129 131q-14 17 -31 30l-131 -129zM1563 490q0 32 -58 90.5t-125 92.5h-43v-171q36 -24 68 -36.5
t71 -12.5q38 0 62.5 10.5t24.5 26.5zM1556 433q-36 -19 -93 -19q-56 0 -126.5 37.5t-151 107t-111.5 114.5h-75q21 -21 49.5 -50t62 -61t71 -63.5t77 -57t80 -41t79.5 -15.5q96 0 138 48zM180 885q0 -31 22 -79h198q-66 70 -104 95t-66 25q-50 0 -50 -41zM343 617
q-67 0 -122 66t-75 159q-4 -30 -4 -58q0 -89 52.5 -143t134.5 -54q50 0 102.5 22.5t93.5 63.5h-53q-20 -25 -53.5 -40.5t-75.5 -15.5zM1858 1015q0 -55 24 -98l97 98l-97 97q-24 -44 -24 -97zM2066 1223q-50 0 -98 -24l98 -97l97 97q-48 24 -97 24zM2066 807q53 0 97 24
l-97 96l-97 -96q43 -24 97 -24zM2274 1015q0 49 -24 97l-96 -97l96 -97q24 48 24 97zM260 982q-41 0 -69 -30q21 9 51 9q35 0 101 -49t110 -106h63q-72 83 -141 129.5t-115 46.5zM1297 375l-40 20v-250h40v230zM1257 560l40 -30v143h-40v-113zM1585 539q-6 28 -23 67t-36 67
h-72q86 -65 131 -134zM1132 673q26 -28 85 -80v80h-85zM343 657q40 0 67 16h-124q24 -16 57 -16zM453 2053h140q50 -75 73 -173q23 98 73 173h137v23h-423v-23z" />
  </g>

</svg>
