<?xml version="1.0" standalone="no"?>
<!DOCTYPE svg PUBLIC "-//W3C//DTD SVG 1.1//EN" "http://www.w3.org/Graphics/SVG/1.1/DTD/svg11.dtd" >
<svg xmlns="http://www.w3.org/2000/svg" xmlns:xlink="http://www.w3.org/1999/xlink" version="1.1" viewBox="-10 0 1942 2048">
  <g transform="matrix(1 0 0 -1 0 1638)">
   <path fill="currentColor"
d="M1012 2003q14 20 43.5 33t70.5 13q53 0 104.5 -37.5t91 -106t39.5 -111.5q0 -75 -64 -116q17 -19 17 -49l-9 -59l-8 -42l444 -929q41 -87 56.5 -137t25 -108t9.5 -129q0 -108 -38.5 -205t-105.5 -154t-147 -57q-115 0 -234.5 110.5t-212 304.5t-128.5 410
q-36 -216 -128.5 -410t-212.5 -304.5t-234 -110.5q-80 0 -147.5 57.5t-105.5 155t-38 203.5q0 70 9.5 128t24.5 106.5t57 139.5l444 929q-17 75 -17 101q0 30 17 49q-64 41 -64 116q0 43 39.5 111.5t91 106t104.5 37.5q41 0 70.5 -13t43.5 -33h92zM1281 1469l-98 -342
q-29 -98 -50 -129.5t-55.5 -46t-91.5 -15.5v-70q0 -235 80.5 -472.5t211.5 -391t263 -153.5q104 0 177.5 111.5t73.5 264.5q0 86 -19 170t-68 186zM140 225q0 -151 73 -263.5t178 -112.5q132 0 263 153.5t211.5 391t80.5 472.5v70q-58 1 -91.5 15.5t-55 46t-50.5 129.5
l-98 342l-424 -888q-50 -103 -68.5 -187t-18.5 -169zM766 1214q32 -116 44.5 -145.5t32 -49.5t49.5 -30.5t74 -12.5q76 3 114 35.5t65 127.5l21 75h-400zM1036 1963q-13 -35 -13 -66q0 -39 21.5 -81t63.5 -69q78 -18 156 -45q26 13 41.5 37.5t15.5 54.5q0 37 -34 96
t-75.5 89t-85.5 30q-30 0 -54 -13t-35 -33h-1zM895 1963q-10 20 -34.5 33t-54.5 13q-44 0 -85.5 -30t-75.5 -89t-34 -96q0 -30 15.5 -54.5t41.5 -37.5q78 27 156 45q42 27 63.5 69t21.5 81q0 31 -13 66h-1zM1073 1713q-66 17 -107 17q-46 0 -107 -17l63 -313l44 3l44 -3z
M1163 1254q-53 109 -197 109t-197 -109h394zM1274 1629q0 9 -12.5 22.5t-44.5 24.5l-74 -329q27 -23 46 -55l67 235q18 90 18 102zM658 1629q0 -12 18 -102l67 -235q19 32 46 55l-74 329q-32 -11 -44.5 -24.5t-12.5 -22.5zM754 1688l72 -317q24 14 56 22l-63 312zM1113 1705
l-63 -312q32 -8 56 -22l72 317zM938 1963q11 -29 11 -66q0 -73 -50 -135q36 9 67 9q34 0 67 -9q-50 62 -50 135q0 37 11 66h-56z" />
  </g>

</svg>
