<?xml version="1.0" standalone="no"?>
<!DOCTYPE svg PUBLIC "-//W3C//DTD SVG 1.1//EN" "http://www.w3.org/Graphics/SVG/1.1/DTD/svg11.dtd" >
<svg xmlns="http://www.w3.org/2000/svg" xmlns:xlink="http://www.w3.org/1999/xlink" version="1.1" viewBox="-10 0 1134 2048">
  <g transform="matrix(1 0 0 -1 0 1638)">
   <path fill="currentColor"
d="M562 2051q155 0 277.5 -31t184.5 -85v-73q-122 0 -159 -77q-63 -121 -108 -225q-27 -63 -112 -95q25 -133 58.5 -350.5t51.5 -394.5t18 -288q0 -174 -28 -317.5t-77.5 -226t-105.5 -82.5t-105.5 82.5t-77.5 224.5t-28 319q0 104 17.5 279.5t50 389t60.5 364.5
q-85 32 -112 95q-27 61 -80 168l-28 57q-37 77 -159 77v73q62 54 185.5 85t276.5 31zM562 -154q40 0 80.5 79.5t65.5 213.5t25 293q0 143 -34 418t-102 650q40 2 75 23t49 53q50 116 108 227q22 44 62 68.5t93 24.5v22q-48 42 -162 67.5t-260 25.5q-147 0 -260.5 -25.5
t-161.5 -67.5v-22q54 0 94 -25t61 -68q13 -27 28 -57t29.5 -60t27.5 -58.5t23 -51.5q14 -33 49.5 -54t74.5 -22q-67 -370 -101.5 -646t-34.5 -422q0 -155 25 -290.5t65.5 -215.5t80.5 -80z" />
  </g>

</svg>
