<?xml version="1.0" standalone="no"?>
<!DOCTYPE svg PUBLIC "-//W3C//DTD SVG 1.1//EN" "http://www.w3.org/Graphics/SVG/1.1/DTD/svg11.dtd" >
<svg xmlns="http://www.w3.org/2000/svg" xmlns:xlink="http://www.w3.org/1999/xlink" version="1.1" viewBox="-10 0 2129 2048">
  <g transform="matrix(1 0 0 -1 0 1638)">
   <path fill="currentColor"
d="M1053 2051q155 0 277.5 -31t184.5 -85v-73q-122 0 -159 -77q-63 -122 -108 -225q-27 -63 -112 -95l2 -10q98 12 150 12q326 0 489 -126t163 -373q0 -70 -11.5 -132.5t-25 -127t-24.5 -135t-11 -155.5q0 -97 21.5 -177t57.5 -133q72 -106 72 -167q0 -38 -34 -38
q-23 0 -79 59t-101.5 136t-71 158.5t-25.5 160.5q0 52 32 243q32 190 32 274q0 135 -44 204t-142.5 100t-276.5 31q-48 0 -138 -9q40 -240 66.5 -466.5t26.5 -361.5q0 -174 -28 -317.5t-77.5 -226t-105.5 -82.5t-105.5 82.5t-77.5 224.5t-28 319q0 119 23.5 336.5
t64.5 462.5q-270 -35 -405 -35q-187 0 -187 146q0 71 25 146q-51 -8 -109 -8q-74 0 -114 27t-40 69q0 46 26 84.5t75 62t127 23.5q97 0 152.5 -38t55.5 -108q0 -39 -26 -89q-26 -51 -26 -81q0 -32 17 -53t42 -21h20q41 0 139 16l261 53l7 40q-85 32 -112 95q-27 61 -80 168
l-28 57q-37 77 -159 77v73q62 54 185.5 85t276.5 31zM1053 -154q40 0 80.5 79.5t65.5 213.5t25 293q0 143 -34 418t-102 650q40 2 75 23t49 53q50 116 108 227q22 44 62 68.5t93 24.5v22q-48 42 -162 67.5t-260 25.5q-147 0 -260.5 -25.5t-161.5 -67.5v-22q54 0 94 -25
t61 -68q13 -27 28 -57t29.5 -60t27.5 -58.5t23 -51.5q14 -33 49.5 -54t74.5 -22q-67 -370 -101.5 -646t-34.5 -422q0 -155 25 -290.5t65.5 -215.5t80.5 -80zM1144 1416q10 -46 20 -116q88 9 145 9q137 0 232.5 -19.5t154 -58t87.5 -105t29 -192.5q0 -94 -32 -283t-32 -234
q0 -64 17 -125t43 -115.5t59.5 -104.5t70 -90.5t41.5 -40.5q4 0 4 6q0 27 -10.5 50.5t-56.5 92.5q-39 58 -63.5 145t-24.5 183q0 89 11 162.5t24.5 138t25 125t11.5 124.5q0 459 -612 459q-58 0 -144 -11zM955 1383l-247 -51q-91 -17 -165 -17q-49 0 -74 33t-25 82
q0 43 26 94q26 50 26 76q0 50 -44.5 78t-123.5 28q-65 0 -105 -18t-61.5 -47t-21.5 -65q0 -21 41.5 -38.5t105.5 -17.5q59 0 128 21q-37 -148 -37 -193q0 -60 38 -86t117 -26q139 0 404 36zM277 1630q0 14 10.5 24.5t27.5 10.5q14 0 25 -8t11 -22q0 -13 -11 -23.5t-28 -10.5
q-13 0 -23 7t-12 19v3z" />
  </g>

</svg>
