<?xml version="1.0" standalone="no"?>
<!DOCTYPE svg PUBLIC "-//W3C//DTD SVG 1.1//EN" "http://www.w3.org/Graphics/SVG/1.1/DTD/svg11.dtd" >
<svg xmlns="http://www.w3.org/2000/svg" xmlns:xlink="http://www.w3.org/1999/xlink" version="1.1" viewBox="-10 0 1380 2048">
  <g transform="matrix(1 0 0 -1 0 1638)">
   <path fill="currentColor"
d="M518 195h42l-120 155l-58 -124q19 -21 19 -63q0 -61 -29.5 -125t-77 -109t-84.5 -45q-19 0 -32.5 29.5t-13.5 68.5q0 82 38.5 162.5t92.5 98.5l115 247l26 5l174 -227l-219 858q-82 14 -146 174l-14 29q-21 36 -96 36l-20 -1l-15 60q51 44 205.5 86t248.5 42l34 -3l5 -56
q-75 -29 -75 -91l6 -115q0 -104 -50 -139l168 -657v1172q-72 29 -93 172l-5 33q-5 36 -19 51.5t-38.5 26t-53.5 15.5v63q71 32 252 32t252 -32l-9 -55q-37 -5 -62.5 -23.5t-32.5 -47.5l-6 -30q-17 -102 -40.5 -146t-58.5 -59v-1172l168 657q-49 35 -49 139l5 115
q0 61 -75 91l5 56l34 3q93 0 242 -40t212 -88l-15 -60l-20 1q-75 0 -96 -36l-14 -29q-64 -160 -146 -174l-219 -857l174 226l26 -5l115 -247q36 -12 66 -54t47.5 -99t17.5 -108q0 -39 -13.5 -68.5t-32.5 -29.5q-37 0 -84.5 45t-77 109t-29.5 125q0 42 19 63l-58 124
l-121 -155h43l111 -397h-556zM458 -162h454l-90 317h-274zM685 2016q-114 0 -212 -17v-6l26 -8q61 -20 76 -77l14 -66q13 -85 36.5 -116t59.5 -31q28 0 45.5 15.5t27.5 38.5t23 93l14 66q12 53 102 87v2q-76 19 -212 19zM814 1513v-2q19 -13 34.5 -28.5t29.5 -37.5t14 -60
l-6 -109q0 -111 79 -111q28 0 53 24.5t57 97.5l30 60q30 58 120 58l1 6q-72 34 -203.5 68t-208.5 34zM144 1411l1 -6q90 0 120 -58l30 -60q27 -60 43.5 -81.5t34 -31t32.5 -9.5q79 0 79 107l-5 113q0 39 13 61t29 37.5t35 27.5v2q-72 0 -201 -32t-211 -70zM327 215
q-52 0 -90.5 -73.5t-38.5 -159.5q0 -26 3.5 -45t8.5 -19q30 0 68.5 38.5t63.5 95t25 111.5q0 52 -40 52zM1043 215q-40 0 -40 -52q0 -54 24.5 -110.5t63 -95.5t69.5 -39q5 0 8.5 19t3.5 45q0 86 -38.5 159.5t-90.5 73.5zM676 1655v-1460h18v1460h-18zM927 1132l-199 -781
v-70l216 846zM426 1127l216 -846v70l-199 781zM432 414l170 -219h23l-197 256l-94 -202l20 -4zM744 195h24l170 219l78 -169l20 4l-94 202z" />
  </g>

</svg>
