<?xml version="1.0" standalone="no"?>
<!DOCTYPE svg PUBLIC "-//W3C//DTD SVG 1.1//EN" "http://www.w3.org/Graphics/SVG/1.1/DTD/svg11.dtd" >
<svg xmlns="http://www.w3.org/2000/svg" xmlns:xlink="http://www.w3.org/1999/xlink" version="1.1" viewBox="-10 0 2207 2048">
  <g transform="matrix(1 0 0 -1 0 1638)">
   <path fill="currentColor"
d="M1322 139h196v215q0 35 12 53t47 18q59 0 59 -71v-215h169v124q0 96 -29 145.5t-88 64.5l-226 58l187 1519l210 -84q46 -19 74.5 -70.5t28.5 -118.5v-1638h135v-139h-1997v139h138v215q0 35 12 53t47 18q59 0 59 -71v-215h169v124q0 96 -29 145.5t-88 64.5l-226 58
l187 1519l210 -84q46 -19 74.5 -70.5t28.5 -118.5v-1638h196v215q0 35 12 53t47 18q59 0 59 -71v-215h169v124q0 96 -29 145.5t-88 64.5l-226 58l187 1519l210 -84q46 -19 74.5 -70.5t28.5 -118.5v-1638zM1596 354q0 31 -19 31t-19 -31v-255h-276v1678q0 55 -21.5 96
t-58.5 57l-162 62l-176 -1431l208 -58q133 -36 133 -223v-181h-249v255q0 31 -19 31t-19 -31v-255h-276v1678q0 55 -21.5 96t-58.5 57l-162 62l-176 -1431l208 -58q133 -36 133 -223v-181h-249v255q0 31 -19 31t-19 -31v-255h-138v-59h1917v59h-135v1678q0 55 -21.5 96
t-58.5 57l-162 62l-176 -1431l208 -58q133 -36 133 -223v-181h-249v255z" />
  </g>

</svg>
