<?xml version="1.0" standalone="no"?>
<!DOCTYPE svg PUBLIC "-//W3C//DTD SVG 1.1//EN" "http://www.w3.org/Graphics/SVG/1.1/DTD/svg11.dtd" >
<svg xmlns="http://www.w3.org/2000/svg" xmlns:xlink="http://www.w3.org/1999/xlink" version="1.1" viewBox="-10 0 936 2048">
  <g transform="matrix(1 0 0 -1 0 1638)">
   <path fill="currentColor"
d="M477 267q86 -24 138 -108t58 -204h-532q3 117 55.5 203t142.5 109v754q-239 19 -239 187q0 85 50.5 130.5t188.5 56.5v404q0 65 35 125t97.5 96t142.5 36q53 0 101.5 -19t79.5 -48.5t31 -55.5q0 -69 -76 -69q-19 0 -49 21l1 -1q-42 31 -80 31q-67 0 -106 -52t-39 -142
v-1454zM407 276l30 -2v1447q0 106 49.5 170t135.5 64q35 0 59 -12.5t43 -25.5q18 -13 26 -13q36 0 36 29t-55 56t-117 27q-67 0 -120.5 -29.5t-84 -80t-30.5 -107.5v-1525zM407 236q-94 0 -153.5 -65t-70.5 -176h448q-11 112 -71 176.5t-153 64.5zM188 1208q0 -95 151 -100
v200q-151 -10 -151 -100zM130 1208q0 -142 209 -157v26q-181 5 -181 131t181 131v25q-84 -6 -124.5 -23t-62.5 -49.5t-22 -83.5z" />
  </g>

</svg>
