<?xml version="1.0" standalone="no"?>
<!DOCTYPE svg PUBLIC "-//W3C//DTD SVG 1.1//EN" "http://www.w3.org/Graphics/SVG/1.1/DTD/svg11.dtd" >
<svg xmlns="http://www.w3.org/2000/svg" xmlns:xlink="http://www.w3.org/1999/xlink" version="1.1" viewBox="-10 0 2820 2048">
  <g transform="matrix(1 0 0 -1 0 1638)">
   <path fill="currentColor"
d="M2402 540q99 0 167 -48.5t104.5 -133t36.5 -187.5q0 -107 -39.5 -194.5t-108 -131t-160.5 -43.5h-1994q-93 0 -160.5 43.5t-107.5 130.5t-40 195q0 104 36.5 188t104.5 132.5t167 48.5h1994zM2402 -158q84 0 143 43.5t92 119.5t33 166q0 88 -32.5 164t-91.5 120.5
t-144 44.5h-1994q-84 0 -143 -43.5t-92 -119.5t-33 -166q0 -88 32.5 -164t91.5 -120.5t144 -44.5h1994zM2402 1390q99 0 167 -48.5t104.5 -133t36.5 -187.5q0 -107 -39.5 -194.5t-108 -131t-160.5 -43.5h-1994q-93 0 -160.5 43.5t-107.5 130.5t-40 195q0 104 36.5 188
t104.5 132.5t167 48.5h1994zM2402 692q84 0 143 43.5t92 119.5t33 166q0 88 -32.5 164t-91.5 120.5t-144 44.5h-1994q-84 0 -143 -43.5t-92 -119.5t-33 -166q0 -88 32.5 -164t91.5 -120.5t144 -44.5h1994z" />
  </g>

</svg>
