<?xml version="1.0" standalone="no"?>
<!DOCTYPE svg PUBLIC "-//W3C//DTD SVG 1.1//EN" "http://www.w3.org/Graphics/SVG/1.1/DTD/svg11.dtd" >
<svg xmlns="http://www.w3.org/2000/svg" xmlns:xlink="http://www.w3.org/1999/xlink" version="1.1" viewBox="-10 0 2946 2048">
  <g transform="matrix(1 0 0 -1 0 1638)">
   <path fill="currentColor"
d="M1468 983q68 0 120.5 -32.5t95.5 -85t78.5 -119.5t69.5 -135q70 -143 108 -197t78.5 -84t88.5 -30t94 34t91.5 95t134.5 218q91 163 157.5 227t129.5 64q58 0 90 -31t32 -84v-1009h-2736v1009q0 53 31.5 84t90.5 31q64 0 130.5 -65t156.5 -226q87 -154 133 -216t92 -96.5
t95 -34.5q48 0 88 29.5t77.5 82.5t109.5 199q34 68 69.5 135t78.5 119.5t95.5 85t120.5 32.5zM2796 791q0 65 -20 86t-62 21q-34 0 -70.5 -27.5t-74 -76t-106.5 -167.5q-88 -154 -141.5 -222.5t-106.5 -106.5t-108 -38q-58 0 -105 32t-89.5 89.5t-116.5 211.5
q-32 64 -65 127t-72 112.5t-86 80t-105 30.5q-62 0 -112.5 -35.5t-96.5 -99.5t-119 -215q-75 -155 -117 -212.5t-89.5 -89t-104.5 -31.5q-55 0 -108.5 38.5t-107.5 107.5t-140 221q-93 161 -149 216t-102 55q-42 0 -62 -20.5t-20 -86.5v-937h2656v937z" />
  </g>

</svg>
