<?xml version="1.0" standalone="no"?>
<!DOCTYPE svg PUBLIC "-//W3C//DTD SVG 1.1//EN" "http://www.w3.org/Graphics/SVG/1.1/DTD/svg11.dtd" >
<svg xmlns="http://www.w3.org/2000/svg" xmlns:xlink="http://www.w3.org/1999/xlink" version="1.1" viewBox="-10 0 2412 2048">
  <g transform="matrix(1 0 0 -1 0 1638)">
   <path fill="currentColor"
d="M645 770q0 192 96.5 360t264.5 264.5t360 96.5t360 -96.5t264.5 -264.5t96.5 -360q0 -41 -7 -95h1q0 -38 16.5 -123t36.5 -149.5t67.5 -139.5t62.5 -90q38 -49 38 -81q0 -25 -30 -25q-47 0 -103.5 45.5t-103 129t-68.5 179.5q-94 -170 -263.5 -271t-367.5 -101
q-158 0 -301.5 66.5t-241.5 180.5q-48 -89 -88.5 -132.5t-93 -72t-116.5 -28.5q-99 0 -164.5 37t-100 101t-34.5 148q0 50 10 127q10 78 10 129q0 36 -27 206t-27 204q0 98 75 166l-55 -6q-62 0 -87 15.5t-25 45.5q0 32 31.5 70t80 62t93.5 24q76 0 155.5 -51.5
t133.5 -131.5t54 -143q0 -107 -106 -337q-69 -151 -91 -231t-22 -139q0 -66 33 -108t82 -42q53 0 102 55t90 156q-91 161 -91 350zM685 770q0 -182 91 -340t249 -249.5t341 -91.5q182 0 340 91t249.5 249t91.5 341q0 182 -91 340t-249 249.5t-341 91.5q-182 0 -340 -91
t-249.5 -249t-91.5 -341zM795 330q-19 22 -35 49q-37 -95 -95 -152.5t-121 -57.5q-67 0 -111 55.5t-44 134.5q0 70 24 155t93 231q69 151 85.5 212t16.5 109q0 57 -52.5 130t-121.5 114.5t-129 41.5q-57 0 -111 -38.5t-54 -77.5q0 -21 51 -21h21q26 0 89 13q62 12 92 12
q43 0 73 -16l-20 -34q-18 10 -53 10q-64 0 -112.5 -56t-48.5 -129q0 -53 27 -202q27 -150 27 -208q0 -48 -10 -126q-10 -77 -10 -130q0 -113 70 -179.5t189 -66.5q60 0 108 30t85 73.5t77 123.5zM1215 770q0 62 44.5 106.5t106.5 44.5t106.5 -44.5t44.5 -106.5t-44.5 -106.5
t-106.5 -44.5t-106.5 44.5t-44.5 106.5zM1255 770q0 -45 33 -78t78 -33t78 33t33 78t-33 78t-78 33t-78 -33t-33 -78zM2056 561l-29 -79q15 -107 53 -189.5t91.5 -133t87.5 -50.5l1 1q0 7 -39 59q-54 71 -78 113t-46 113.5t-41 165.5z" />
  </g>

</svg>
