<?xml version="1.0" standalone="no"?>
<!DOCTYPE svg PUBLIC "-//W3C//DTD SVG 1.1//EN" "http://www.w3.org/Graphics/SVG/1.1/DTD/svg11.dtd" >
<svg xmlns="http://www.w3.org/2000/svg" xmlns:xlink="http://www.w3.org/1999/xlink" version="1.1" viewBox="-10 0 1660 2048">
  <g transform="matrix(1 0 0 -1 0 1638)">
   <path fill="currentColor"
d="M210 1377q0 164 82.5 307t225.5 225.5t307 82.5t307 -82.5t225.5 -225.5t82.5 -307q0 -141 -60.5 -265t-162.5 -208l333 -1300h-1450l333 1300q-103 85 -163 208.5t-60 264.5zM250 1377q0 -153 77.5 -286.5t211 -211t286.5 -77.5t286.5 77.5t211 211t77.5 286.5
t-77.5 286.5t-211 211t-286.5 77.5t-286.5 -77.5t-211 -211t-77.5 -286.5zM1188 856l-254 -463l368 -749h198zM462 857l-312 -1213h198l368 749zM479 -356h692l-346 705zM825 762q-105 0 -202 34l202 -363l202 363q-97 -34 -202 -34zM698 1377q0 51 36.5 89t90.5 38
q52 0 89.5 -37.5t37.5 -89.5q0 -54 -38 -90.5t-89 -36.5q-53 0 -90 37t-37 90zM1135 846l-54 -28l3 -1l-237 -423l369 -750h41l-369 751zM568 818l-53 28l247 -451l-369 -751h41l369 750l-237 423zM738 1377q0 -36 25.5 -61.5t61.5 -25.5t61.5 25.5t25.5 61.5t-25.5 61.5
t-61.5 25.5t-61.5 -25.5t-25.5 -61.5z" />
  </g>

</svg>
