<?xml version="1.0" standalone="no"?>
<!DOCTYPE svg PUBLIC "-//W3C//DTD SVG 1.1//EN" "http://www.w3.org/Graphics/SVG/1.1/DTD/svg11.dtd" >
<svg xmlns="http://www.w3.org/2000/svg" xmlns:xlink="http://www.w3.org/1999/xlink" version="1.1" viewBox="-10 0 2524 2048">
  <g transform="scale(1, -1)"  transform-origin="center">
   <path fill="currentColor"
d="M1930 2199q123 0 188 -23v-55q-66 -15 -74 -44l-8 -46q-13 -99 -65 -121v-610l98 294q-34 24 -34 99l3 81q0 21 -15 39t-39 26l7 50l32 2q66 0 180 -31t155 -60l-14 -53l-17 1q-48 0 -66 -25l-9 -21q-46 -114 -103 -124l-136 -409l93 110l29 -3l78 -175q45 -15 71 -73
t26 -124q0 -25 -14 -47t-28 -22q-51 0 -99.5 63.5t-48.5 134.5q0 42 11 55l-27 69l-79 -101h23l70 -250h287v-133h-832q53 -86 53 -151q0 -86 -52.5 -131.5t-155.5 -45.5q-39 0 -81 14v-214h1077v-40h-225v-170h225v-40h-225v-170h225v-40h-2295v40h230v170h-230v40h230v170
h-230v40h1098v274q-61 39 -132.5 102.5t-119.5 115.5l-34 36h-351q-42 -54 -113 -90t-143 -36q-73 0 -122 31.5t-75.5 83.5t-26.5 108q0 119 42.5 185.5t117.5 66.5q62 0 151.5 -65t156.5 -151h132l-3 910q0 27 4 47l-8 15h-12q-59 0 -111 70t-52 141l3 34l-77 46
q13 36 61 64.5t101 28.5q20 0 42 -4l-26 -79q57 -14 102.5 -66t49.5 -119q85 67 210 67q126 0 209 -66q4 64 47 116.5t105 67.5l-26 79q22 4 42 4q53 0 101 -28.5t61 -64.5l-77 -46l3 -34q0 -70 -51.5 -140.5t-111.5 -70.5h-12l-7 -14q2 -11 3 -22.5t4 -935.5h468l70 250h23
l-79 101l-27 -69q11 -13 11 -55q0 -72 -48.5 -135t-99.5 -63q-14 0 -28 22.5t-14 46.5q0 71 26.5 127t70.5 70l78 175l29 3l93 -110l-136 409q-56 10 -94 103l-18 42q-18 25 -65 25l-18 -1l-14 53q41 30 154.5 60.5t180.5 30.5l32 -2l7 -50q-24 -7 -39 -24.5t-15 -40.5
l3 -81q0 -75 -34 -99l98 -294v610q-52 22 -65 121l-8 46q-11 30 -74 44v55q65 23 188 23zM983 1317l241 453q-19 72 -84.5 111.5t-155.5 39.5q-92 0 -158 -40.5t-83 -111.5zM214 766q7 -16 35 -53h2116v53h-2151zM1006 1274l228 -428l-3 851zM737 1695l3 -837l220 416z
M1032 943q69 -12 140 -67l-189 354l-188 -354q71 55 140 67l6 -40q-74 -15 -168 -97h420q-87 81 -167 97zM389 -275h410v170h-410v-170zM1739 -275h410v170h-410v-170zM839 -65h410v170h-410v-170zM389 -65h410v170h-410v-170zM1289 -65h410v170h-410v-170zM1289 -275h410
v170h-410v-170zM839 -275h410v170h-410v-170zM1739 -65h410v170h-410v-170zM1780 806h300l-59 211h-182zM1563 490q0 32 -58 90.5t-125 92.5h-43v-171q36 -24 68 -36.5t71 -12.5q38 0 62.5 10.5t24.5 26.5zM2021 1854v-1q55 -44 55 -80l-3 -91q0 -76 55 -76q18 0 35.5 16
t42.5 70q24 56 47 70t60 14l1 5q-52 24 -144 48t-149 25zM1546 1781l1 -5q64 0 85 -40l22 -44q24 -52 42 -69t36 -17q55 0 55 76l-3 91q0 39 55 80v1q-53 0 -147.5 -24.5t-145.5 -48.5zM1930 1933q26 0 42.5 22.5t24.5 81.5l11 47q11 45 72 60v4q-68 12 -150 12t-150 -12v-4
q35 -10 51 -25t21 -35l11 -47q8 -58 24.5 -81t42.5 -23zM681 1818q23 0 38 18t15 49q0 60 -43 108.5t-93 48.5q-40 0 -40 -53q0 -56 39.5 -113.5t83.5 -57.5zM1286 1818q44 0 83.5 57t39.5 114q0 53 -40 53q-50 0 -93 -48t-43 -109q0 -31 15 -49t38 -18zM1556 433
q-36 -19 -93 -19q-56 0 -126.5 37.5t-151 107t-111.5 114.5h-75q21 -21 49.5 -50t62 -61t71 -63.5t77 -57t80 -41t79.5 -15.5q96 0 138 48zM180 885q0 -31 22 -79h198q-66 70 -104 95t-66 25q-50 0 -50 -41zM343 617q-67 0 -122 66t-75 159q-4 -30 -4 -58q0 -89 52.5 -143
t134.5 -54q50 0 102.5 22.5t93.5 63.5h-53q-20 -25 -53.5 -40.5t-75.5 -15.5zM1676 1071q-37 0 -64 -52t-27 -115q0 -18 4 -26t7 -8q35 0 71.5 51t36.5 112q0 38 -28 38zM2184 1071q-28 0 -28 -38q0 -61 36.5 -112t71.5 -51q3 0 7 8t4 26q0 61 -27 114t-64 53zM260 982
q-41 0 -69 -30q21 9 51 9q35 0 101 -49t110 -106h63q-72 83 -141 129.5t-115 46.5zM1936 1904h-12v-848h12v848zM1297 375l-40 20v-250h40v230zM1746 1579l153 -462v50l-141 415zM2102 1582l-141 -415v-50l153 462zM1257 560l40 -30v143h-40v-113zM2161 1102l15 2l-64 134
l-140 -182h17l120 156zM1751 1212l120 -156h17l-140 182l-64 -134l15 -2zM1585 539q-6 28 -23 67t-36 67h-72q86 -65 131 -134zM1132 673q26 -28 85 -80v80h-85zM343 657q40 0 67 16h-124q24 -16 57 -16z" />
  </g>

</svg>
