<?xml version="1.0" standalone="no"?>
<!DOCTYPE svg PUBLIC "-//W3C//DTD SVG 1.1//EN" "http://www.w3.org/Graphics/SVG/1.1/DTD/svg11.dtd" >
<svg xmlns="http://www.w3.org/2000/svg" xmlns:xlink="http://www.w3.org/1999/xlink" version="1.1" viewBox="-10 0 2555 2048">
  <g transform="scale(1, -1)"  transform-origin="center">
   <path fill="currentColor"
d="M1237 2107q0 27 19.5 46.5t46.5 19.5t46.5 -19.5t19.5 -46.5q0 -44 -34 -60q10 -29 10 -138q0 -76 -19 -123.5t-64 -79.5v-24l97 -27q33 -10 47 -56l61 -220l-29 -159l21 -34v-39l-33 -74l-54 12l21 57l-9 23l-19 -43l-49 6l16 80l14 168l-44 117l-29 -94l-4 -82l18 -107
q0 -31 -17.5 -56.5t-46.5 -27.5l-174 -17q28 -53 54.5 -130.5t38.5 -149.5l-89 -23h1352v-133h-832q53 -86 53 -151q0 -86 -52.5 -131.5t-155.5 -45.5q-39 0 -81 14v-214h1077v-40h-225v-170h225v-40h-225v-170h225v-40h-2295v40h230v170h-230v40h230v170h-230v40h1098v274
q-61 39 -132.5 102.5t-119.5 115.5l-34 36h-351q-42 -54 -113 -90t-143 -36q-73 0 -122 31.5t-75.5 83.5t-26.5 108q0 119 42.5 185.5t117.5 66.5q62 0 151.5 -65t156.5 -151h29v42l84 12q29 4 43 52l40 167l4 49l5 21q8 51 12 57q22 32 68 55t133 46q50 12 71.5 22.5
t31.5 23.5l3 34l-42 126l-230 -83l-56 43l-4 38l176 198l14 31l30 33l90 5l6 -39l-46 -12l-6 -10l38 4l11 -35l-73 -37l-50 -58l62 38q14 12 30.5 20.5t95.5 29.5v33l-41 -3l-7 68l-49 9l67 92q12 29 65 96t84 84q-20 20 -20 49zM1699 1810q73 0 156 -87q100 -104 146 -136
q81 -58 110 -88.5t48.5 -66t19.5 -78.5q0 -40 -7 -89l-2 -13q0 -4 5 -14t23 -10q10 0 33 12t45.5 39t40 71t17.5 107q0 45 -17.5 109t-45.5 103q-39 32 -61 64t-22 54q0 33 22 55.5t53 22.5q35 0 66 -37.5t42 -93.5q74 -155 74 -277q0 -110 -46 -198t-125 -142h-804
q0 60 33.5 97t89.5 37q63 0 91 -28h107q-95 92 -151 200.5t-56 199.5q0 89 30 138t85 49zM1940 1291q102 -134 228 -134h96q32 18 64.5 61t54.5 102t22 137q0 61 -22 138.5t-51 130.5q-6 36 -26 67.5t-43 31.5q-11 0 -23 -10t-12 -28q0 -32 75 -93q33 -54 52 -121t19 -116
q0 -75 -22 -126t-51.5 -83t-59 -46t-43.5 -14q-31 0 -49.5 17t-18.5 47l1 6v6l1 6q7 49 7 84q0 46 -37.5 95.5t-122.5 104.5q-34 22 -107 95l-42 43q-77 78 -131 78q-34 0 -54.5 -38.5t-20.5 -108.5q0 -65 35 -141.5t105.5 -163t132.5 -135.5h-230q-28 28 -74 28
q-62 0 -74 -54h512q-67 40 -123 110zM854 1206q71 -10 157 -56l197 16q40 5 40 44l-19 104l7 90l43 157h43l60 -183l-19 -168l-11 -63h3l18 39h25l18 -40l-15 -44l9 -2l19 46l-6 36l-24 33l28 169l-60 199q-10 37 -29 43l-115 34v37l-26 58l17 14q10 8 10 16q0 10 -13 21
l-66 63l-46 -67l19 -11l4 -50l50 3v-99l-77 -13q-55 -16 -71 -35l-138 -73l-5 24l103 120l61 29l-2 6l-45 -5l-5 7l21 32l37 12l-1 7l-42 -7l-27 -22l-15 -32q-36 -46 -162 -189l2 -17l20 -15l253 92l53 -180l-3 -56q-24 -30 -105 -51q-14 -4 -29 -8.5t-63.5 -21.5
t-77.5 -43zM214 766q7 -16 35 -53h2116v53h-2151zM839 -65h410v170h-410v-170zM1289 -65h410v170h-410v-170zM1289 -275h410v170h-410v-170zM1739 -275h410v170h-410v-170zM1739 -65h410v170h-410v-170zM839 -275h410v170h-410v-170zM389 -275h410v170h-410v-170zM389 -65
h410v170h-410v-170zM1563 490q0 32 -58 90.5t-125 92.5h-43v-171q36 -24 68 -36.5t71 -12.5q38 0 62.5 10.5t24.5 26.5zM1556 433q-36 -19 -93 -19q-56 0 -126.5 37.5t-151 107t-111.5 114.5h-75q21 -21 49.5 -50t62 -61t71 -63.5t77 -57t80 -41t79.5 -15.5q96 0 138 48z
M811 806h114l-12 35l62 33q27 16 27 34q0 12 -6 22l-36 49q-45 65 -50 77t-5 23zM1240 1733q64 51 64 178l1 44q0 56 -2.5 70.5t-8.5 14.5q-16 0 -53.5 -41.5t-75.5 -97.5l64 -61q29 -28 29 -55q0 -16 -13 -29l-11 -11zM891 1164q-42 16 -65 17l-14 -57l-7 -47l-41 -182
q-15 -56 -51 -62l-74 -10v-17h132zM180 885q0 -31 22 -79h198q-66 70 -104 95t-66 25q-50 0 -50 -41zM930 1147q12 -57 16 -65l98 -152q9 -11 9 -31q0 -22 -45 -49l-42 -21l6 -16l124 37q-14 74 -40.5 144.5t-54.5 118.5q-23 19 -71 34zM343 617q-67 0 -122 66t-75 159
q-4 -30 -4 -58q0 -89 52.5 -143t134.5 -54q50 0 102.5 22.5t93.5 63.5h-53q-20 -25 -53.5 -40.5t-75.5 -15.5zM260 982q-41 0 -69 -30q21 9 51 9q35 0 101 -49t110 -106h63q-72 83 -141 129.5t-115 46.5zM1297 375l-40 20v-250h40v230zM1257 560l40 -30v143h-40v-113z
M1585 539q-6 28 -23 67t-36 67h-72q86 -65 131 -134zM1132 673q26 -28 85 -80v80h-85zM1271 2107q0 -14 9 -23t23 -9t23 9t9 23t-9 23t-23 9t-23 -9t-9 -23zM343 657q40 0 67 16h-124q24 -16 57 -16zM1178 1805q-38 3 -53 24l16 3q17 0 24.5 -6t12.5 -21z" />
  </g>

</svg>
