<?xml version="1.0" standalone="no"?>
<!DOCTYPE svg PUBLIC "-//W3C//DTD SVG 1.1//EN" "http://www.w3.org/Graphics/SVG/1.1/DTD/svg11.dtd" >
<svg xmlns="http://www.w3.org/2000/svg" xmlns:xlink="http://www.w3.org/1999/xlink" version="1.1" viewBox="-10 0 2524 2048">
  <g transform="scale(1, -1)"  transform-origin="center">
   <path fill="currentColor"
d="M1373 1893q5 12 19.5 22.5t34.5 10.5q68 0 68 -81l-5 -61l-30 -254l-29 3q48 -23 70.5 -64t33.5 -85q91 -25 150 -59t136 -99q166 -139 208.5 -166t123 -55t141.5 -45q40 -13 73 -37t38 -44v-206h-832q53 -86 53 -151q0 -86 -52.5 -131.5t-155.5 -45.5q-39 0 -81 14v-214
h1077v-40h-225v-170h225v-40h-225v-170h225v-40h-2295v40h230v170h-230v40h230v170h-230v40h1098v274q-61 39 -132.5 102.5t-119.5 115.5l-34 36h-351q-42 -54 -113 -90t-143 -36q-73 0 -122 31.5t-75.5 83.5t-26.5 108q0 119 42.5 185.5t117.5 66.5q62 0 151.5 -65
t156.5 -151h14l268 1238h36l268 -1238h27v73h98q75 29 179 58q-67 30 -130.5 78.5t-100 100.5t-36.5 105q0 14 5 34l4 24v17q0 66 -44 66q-33 0 -42 -28h-28v30q0 37 15.5 66t45.5 42q39 65 121 78l-60 6l29 251q15 128 81 128q47 0 55 -42zM1537 927q-68 -18 -165 -48h985
q-20 31 -83 51l-46 14q-35 10 -107 35.5t-114.5 52.5t-215.5 173q-51 42 -90 67.5t-76.5 42t-124.5 41.5q-36 172 -176 172q-51 0 -89.5 -20.5t-56.5 -55.5q-47 -14 -53 -67l13 7q4 35 40 35q23 0 45 -11l-1 7q-19 7 -19 28q0 11 8.5 19.5t21.5 8.5l11 -2q18 5 36 5
q34 0 53 -18t19 -47q0 -22 -16.5 -46t-42.5 -43l-11 13q18 20 18 42q0 20 -14 20q-18 0 -18 -33q0 -15 4 -35l-21 -7q-11 29 -34 53.5t-39 24.5q-12 0 -16 -11q31 0 52.5 -30t21.5 -69v-17q0 -17 -4 -29l-3 -29q0 -74 93.5 -155t214.5 -128v-11zM868 1933l-245 -1127h489z
M214 766q7 -16 35 -53h2116v53h-2151zM1739 -65h410v170h-410v-170zM1739 -275h410v170h-410v-170zM389 -275h410v170h-410v-170zM1289 -275h410v170h-410v-170zM839 -65h410v170h-410v-170zM1289 -65h410v170h-410v-170zM839 -275h410v170h-410v-170zM389 -65h410v170h-410
v-170zM1227 806h1132v37h-1132v-37zM1563 490q0 32 -58 90.5t-125 92.5h-43v-171q36 -24 68 -36.5t71 -12.5q38 0 62.5 10.5t24.5 26.5zM1556 433q-36 -19 -93 -19q-56 0 -126.5 37.5t-151 107t-111.5 114.5h-75q21 -21 49.5 -50t62 -61t71 -63.5t77 -57t80 -41t79.5 -15.5
q96 0 138 48zM1460 1838q0 53 -35 53q-34 0 -40 -57l-33 -269l78 -8l26 229zM1244 1576l77 -8l33 283q0 51 -35 51q-22 0 -32 -29.5t-15 -68.5zM180 885q0 -31 22 -79h198q-66 70 -104 95t-66 25q-50 0 -50 -41zM343 617q-67 0 -122 66t-75 159q-4 -30 -4 -58
q0 -89 52.5 -143t134.5 -54q50 0 102.5 22.5t93.5 63.5h-53q-20 -25 -53.5 -40.5t-75.5 -15.5zM260 982q-41 0 -69 -30q21 9 51 9q35 0 101 -49t110 -106h63q-72 83 -141 129.5t-115 46.5zM1297 375l-40 20v-250h40v230zM1257 560l40 -30v143h-40v-113zM1585 539
q-6 28 -23 67t-36 67h-72q86 -65 131 -134zM1280 1461h-10l-10 -2l2 -8q0 -21 -18 -28v-16l1 -6l-19 2l27 -34v8q0 46 33 46q32 0 32 -33v-7q12 16 12 34q0 19 -13.5 31.5t-36.5 12.5zM1132 673q26 -28 85 -80v80h-85zM343 657q40 0 67 16h-124q24 -16 57 -16zM1224 1451
q0 -10 9 -10q10 0 10 10q0 9 -10 9q-9 0 -9 -9z" />
  </g>

</svg>
