<?xml version="1.0" standalone="no"?>
<!DOCTYPE svg PUBLIC "-//W3C//DTD SVG 1.1//EN" "http://www.w3.org/Graphics/SVG/1.1/DTD/svg11.dtd" >
<svg xmlns="http://www.w3.org/2000/svg" xmlns:xlink="http://www.w3.org/1999/xlink" version="1.1" viewBox="-10 0 2524 2048">
  <g transform="scale(1, -1)"  transform-origin="center">
   <path fill="currentColor"
d="M2405 673h-832q53 -86 53 -151q0 -86 -52.5 -131.5t-155.5 -45.5q-39 0 -81 14v-214h1077v-40h-225v-170h225v-40h-225v-170h225v-40h-2295v40h230v170h-230v40h230v170h-230v40h1098v274q-61 39 -132.5 102.5t-119.5 115.5l-34 36h-351q-42 -54 -113 -90t-143 -36
q-73 0 -122 31.5t-75.5 83.5t-26.5 108q0 119 42.5 185.5t117.5 66.5q62 0 151.5 -65t156.5 -151h1837v-133zM1264 946q-16 0 -24.5 -10.5t-8.5 -25.5q0 -38 24 -62l-22 -23q-82 36 -82 97q0 32 20 59t58 37v712q-105 -93 -118 -230h-37q-13 70 -13 153q0 75 15 116t38 76
q66 100 85.5 139.5t20.5 90.5h28q35 -37 35 -165l-3 -51h13q24 65 74 118.5t93 53.5q35 0 54 -17.5t19 -47.5q0 -29 -16.5 -53t-54.5 -51q-43 -30 -64.5 -60t-28.5 -67q62 -39 96.5 -91t34.5 -101q0 -56 -36 -92t-89 -36q-15 0 -42.5 6t-33.5 13v-416q38 -10 58 -37t20 -59
q0 -29 -22 -54.5t-60 -42.5l-22 23q24 24 24 62q0 15 -8.5 25.5t-24.5 10.5zM214 766q7 -16 35 -53h2116v53h-2151zM1699 -65v170h-410v-170h410zM1249 -275v170h-410v-170h410zM799 -65v170h-410v-170h410zM799 -275v170h-410v-170h410zM1249 -65v170h-410v-170h410z
M1699 -275v170h-410v-170h410zM2149 -275v170h-410v-170h410zM2149 -65v170h-410v-170h410zM1563 490q0 32 -58 90.5t-125 92.5h-43v-171q36 -24 68 -36.5t71 -12.5q38 0 62.5 10.5t24.5 26.5zM1556 433q-36 -19 -93 -19q-56 0 -126.5 37.5t-151 107t-111.5 114.5h-75
q21 -21 49.5 -50t62 -61t71 -63.5t77 -57t80 -41t79.5 -15.5q96 0 138 48zM180 885q0 -31 22 -79h198q-66 70 -104 95t-66 25q-50 0 -50 -41zM343 617q-67 0 -122 66t-75 159q-4 -30 -4 -58q0 -89 52.5 -143t134.5 -54q50 0 102.5 22.5t93.5 63.5h-53q-20 -25 -53.5 -40.5
t-75.5 -15.5zM1318 1542q0 -58 50 -58q17 0 32.5 19t15.5 57q0 29 -24.5 67.5t-73.5 79.5v-165zM260 982q-41 0 -69 -30q21 9 51 9q35 0 101 -49t110 -106h63q-72 83 -141 129.5t-115 46.5zM1229 1959q-5 -36 -47 -99q-37 -57 -60.5 -117t-23.5 -99h15q8 54 77 162
q54 81 54 153h-15zM1297 375l-40 20v-250h40v230zM1257 560l40 -30v143h-40v-113zM1336 1752q8 52 40 96.5t74 65.5h-5q-29 0 -35 15q-31 -29 -59.5 -81t-32.5 -86zM1585 539q-6 28 -23 67t-36 67h-72q86 -65 131 -134zM1132 673q26 -28 85 -80v80h-85zM343 657q40 0 67 16
h-124q24 -16 57 -16zM1445 1964q0 -8 6 -14t14 -6t14 6t6 14t-6 14t-14 6t-14 -6t-6 -14z" />
  </g>

</svg>
