<?xml version="1.0" standalone="no"?>
<!DOCTYPE svg PUBLIC "-//W3C//DTD SVG 1.1//EN" "http://www.w3.org/Graphics/SVG/1.1/DTD/svg11.dtd" >
<svg xmlns="http://www.w3.org/2000/svg" xmlns:xlink="http://www.w3.org/1999/xlink" version="1.1" viewBox="-10 0 2538 2048">
  <g transform="scale(1, -1)"  transform-origin="center">
   <path fill="currentColor"
d="M644 806q-41 11 -65 28v71q76 34 122 34q48 0 88.5 -5t77.5 -5q63 0 120.5 9t71.5 20q19 13 28 100l4 34q-29 51 -56 107.5t-34 116.5q-10 56 -19.5 76t-25 32.5t-37.5 12.5q-54 0 -180 -56h-84q0 35 17 76t60 79.5t88 61.5q32 45 53.5 60t52.5 20l-138 131l110 108
l146 -208l143 203l95 -108l-135 -142q40 -62 78 -140q54 -106 88 -147.5t73.5 -63t93.5 -21.5q76 0 262 31q160 24 191 24q101 0 158 -23q89 75 117 303l13 94q19 142 26 166q5 18 41.5 49.5t55.5 31.5q21 0 52.5 -37t31.5 -62q0 -39 -22.5 -112.5t-71.5 -208t-88 -202
t-81 -102.5q12 -36 12 -119q0 -51 5 -70.5t52 -89.5q39 -60 39 -88q0 -21 -20.5 -41t-66.5 -28h219v-133h-832q53 -86 53 -151q0 -86 -52.5 -131.5t-155.5 -45.5q-39 0 -81 14v-214h1077v-40h-225v-170h225v-40h-225v-170h225v-40h-2295v40h230v170h-230v40h230v170h-230v40
h1098v274q-61 39 -132.5 102.5t-119.5 115.5l-34 36h-351q-42 -54 -113 -90t-143 -36q-73 0 -122 31.5t-75.5 83.5t-26.5 108q0 119 42.5 185.5t117.5 66.5q62 0 151.5 -65t156.5 -151h76zM1838 1183q11 -90 86 -157t181 -97v-39q-13 -4 -88.5 -10t-122.5 -6
q-48 0 -91.5 4.5t-94.5 4.5q-25 0 -36 -17l-5 -17l35 -7l193 11q59 0 118.5 -5.5t124.5 -5.5q36 0 65.5 11t29.5 24q-3 18 -38 72q-45 67 -51.5 90.5t-6.5 83.5q0 35 -3.5 72.5t-23.5 70.5q-39 39 -177 39q-33 0 -129 -15q-246 -40 -324 -40q-60 0 -103 20.5t-76 55t-59 81
t-53 97.5q-54 102 -96 164l138 139l-38 43l-142 -198q-27 0 -80.5 -8t-72 -21t-50.5 -53l-47 -32q-92 -56 -98 -122q43 50 128 86l10 -26q-49 -20 -87 -50q31 14 84 32.5t81 18.5q50 0 80 -35t42 -121q8 -70 64 -173q16 63 50 120l33 -20q-47 -81 -61 -188q-6 -51 -17 -88.5
t-23.5 -47.5t-44.5 -17.5t-83 -12t-65 -4.5l-26 -1q-35 0 -75.5 5t-91.5 5q-32 0 -84 -21v-11q10 -12 43 -21.5t55 -9.5q46 0 98.5 8.5t101.5 8.5q102 0 224 -12q83 109 126.5 153.5t95.5 81.5l24 -32l-58 -43q65 -26 135 -26q73 0 176 27.5t188 66.5q-28 59 -28 114h40z
M214 766q7 -16 35 -53h2116v53h-2151zM1462 935q-78 0 -166 35q-35 -32 -68.5 -77.5t-64.5 -86.5h511l-58 12q5 44 27.5 74.5t57.5 30.5q47 0 94.5 -4.5t98.5 -4.5q61 0 108 13q-95 44 -150 109q-86 -42 -199 -71.5t-191 -29.5zM389 -65h410v170h-410v-170zM839 -275h410
v170h-410v-170zM1739 -275h410v170h-410v-170zM1739 -65h410v170h-410v-170zM1289 -275h410v170h-410v-170zM1289 -65h410v170h-410v-170zM839 -65h410v170h-410v-170zM389 -275h410v170h-410v-170zM2127 1302q10 -8 21 -22q39 38 76.5 110t100.5 250.5t63 226.5
q0 14 -18 36.5t-30 22.5q-10 0 -31 -21t-24 -32l-5 -26l-32 -228q-28 -228 -121 -317zM1563 490q0 32 -58 90.5t-125 92.5h-43v-171q36 -24 68 -36.5t71 -12.5q38 0 62.5 10.5t24.5 26.5zM1556 433q-36 -19 -93 -19q-56 0 -126.5 37.5t-151 107t-111.5 114.5h-75
q21 -21 49.5 -50t62 -61t71 -63.5t77 -57t80 -41t79.5 -15.5q96 0 138 48zM180 885q0 -31 22 -79h198q-66 70 -104 95t-66 25q-50 0 -50 -41zM343 617q-67 0 -122 66t-75 159q-4 -30 -4 -58q0 -89 52.5 -143t134.5 -54q50 0 102.5 22.5t93.5 63.5h-53q-20 -25 -53.5 -40.5
t-75.5 -15.5zM260 982q-41 0 -69 -30q21 9 51 9q35 0 101 -49t110 -106h63q-72 83 -141 129.5t-115 46.5zM1297 375l-40 20v-250h40v230zM1008 1693l-116 163l-46 -46l129 -122zM1257 560l40 -30v143h-40v-113zM1585 539q-6 28 -23 67t-36 67h-72q86 -65 131 -134zM893 1531
l-9 21q6 26 24 39t40 13q16 0 33 -10l3 -33q-32 -3 -51.5 -9t-39.5 -21zM1132 673q26 -28 85 -80v80h-85zM1895 813q-86 0 -142 -7h280q-48 7 -138 7zM343 657q40 0 67 16h-124q24 -16 57 -16zM915 813q-68 0 -103 -7h219q-35 7 -116 7z" />
  </g>

</svg>
