<?xml version="1.0" standalone="no"?>
<!DOCTYPE svg PUBLIC "-//W3C//DTD SVG 1.1//EN" "http://www.w3.org/Graphics/SVG/1.1/DTD/svg11.dtd" >
<svg xmlns="http://www.w3.org/2000/svg" xmlns:xlink="http://www.w3.org/1999/xlink" version="1.1" viewBox="-10 0 2524 2048">
  <g transform="scale(1, -1)"  transform-origin="center">
   <path fill="currentColor"
d="M953 806q25 50 38.5 82.5t20 73.5t27.5 244q-30 30 -73.5 84.5t-111.5 175.5q-29 -19 -61 -36.5t-70 -17.5q-67 0 -67 49q0 44 47 95l150 166q17 152 100.5 276.5t198.5 176.5l79 -74q-91 -73 -147.5 -154t-78.5 -192q23 20 51.5 34.5t44.5 14.5q32 0 32 -24
q0 -19 -30 -53.5t-89 -66.5q16 -60 40 -100.5t54 -56.5t87.5 -29t125 -20t118.5 -7l69 2l172 9q93 0 136 -13t63 -39q49 -22 86 -71t37 -98q0 -30 -10.5 -46.5t-24.5 -16.5q-20 0 -28 14t-14 28q-13 26 -31 42l-10 -34l92 -205l-20 -142l8 -71h441v-133h-832q53 -86 53 -151
q0 -86 -52.5 -131.5t-155.5 -45.5q-39 0 -81 14v-214h1077v-40h-225v-170h225v-40h-225v-170h225v-40h-2295v40h230v170h-230v40h230v170h-230v40h1098v274q-61 39 -132.5 102.5t-119.5 115.5l-34 36h-351q-42 -54 -113 -90t-143 -36q-73 0 -122 31.5t-75.5 83.5t-26.5 108
q0 119 42.5 185.5t117.5 66.5q62 0 151.5 -65t156.5 -151h385zM1285 859q0 -15 -24 -53h52v14q0 76 -10 155q-27 199 -27 229v10q0 65 20 138l38 -10q-18 -72 -18 -128v-21l2 -21l21 -1h17q57 0 150 11t145 22q7 72 26 122l38 -14q-16 -45 -22 -100q-18 -264 -32 -306
q-7 -24 -23.5 -55.5t-25.5 -44.5h47l12 88q38 91 72 144q67 107 93.5 174.5t26.5 111.5q0 49 -37 71.5t-147 22.5l-45 -1q-147 -10 -195 -10q-117 0 -230 24t-151.5 60.5t-66 111t-27.5 133.5q0 34 13 77t35.5 89t68.5 100t101 98l-12 12q-204 -147 -232 -404l-27 3
q18 142 71 236t169 182l-12 11q-91 -65 -128.5 -112.5t-68 -115t-41 -119t-10.5 -84.5l-158 -180q43 -15 56 -57q31 15 78 50q58 -101 100.5 -167.5t109.5 -134.5q-22 -270 -35 -310q-20 -48 -48 -104h64l9 91l12 53q42 153 48 224h48q-32 86 -59 134l29 20
q57 -101 98.5 -268.5t41.5 -200.5zM214 766q7 -16 35 -53h2116v53h-2151zM1353 806h210q15 22 37 62.5t26 64.5t13 110l10 117v2q-178 -31 -293 -31h-17l-16 1v-2l30 -310v-14zM1289 -275h410v170h-410v-170zM389 -65h410v170h-410v-170zM1289 -65h410v170h-410v-170z
M1739 -275h410v170h-410v-170zM839 -65h410v170h-410v-170zM839 -275h410v170h-410v-170zM389 -275h410v170h-410v-170zM1739 -65h410v170h-410v-170zM1563 490q0 32 -58 90.5t-125 92.5h-43v-171q36 -24 68 -36.5t71 -12.5q38 0 62.5 10.5t24.5 26.5zM1098 806h122
q25 35 25 53q0 26 -17.5 111.5t-38.5 164.5l-32 -1q0 -12 -14 -70l-41 -174zM1699 806h134l21 74l8 119l-49 75l-36 -58q-23 -36 -66 -129zM1556 433q-36 -19 -93 -19q-56 0 -126.5 37.5t-151 107t-111.5 114.5h-75q21 -21 49.5 -50t62 -61t71 -63.5t77 -57t80 -41
t79.5 -15.5q96 0 138 48zM180 885q0 -31 22 -79h198q-66 70 -104 95t-66 25q-50 0 -50 -41zM343 617q-67 0 -122 66t-75 159q-4 -30 -4 -58q0 -89 52.5 -143t134.5 -54q50 0 102.5 22.5t93.5 63.5h-53q-20 -25 -53.5 -40.5t-75.5 -15.5zM260 982q-41 0 -69 -30q21 9 51 9
q35 0 101 -49t110 -106h63q-72 83 -141 129.5t-115 46.5zM1862 1170l-26 -54l68 -108l-7 -127l-21 -75h49l-9 70l19 138zM1297 375l-40 20v-250h40v230zM1257 560l40 -30v143h-40v-113zM1585 539q-6 28 -23 67t-36 67h-72q86 -65 131 -134zM1132 673q26 -28 85 -80v80h-85z
M864 1592q-16 0 -24 8.5t-8 16.5q0 28 48 28q26 0 44 -9v-15l-16 3q-9 -32 -44 -32zM1895 1306q28 -21 55 -64q5 -8 8 -16.5t6 -8.5q5 0 5 12q0 35 -22.5 69t-54.5 52l4 -21zM1009 1696q13 7 45.5 33t32.5 35q0 4 -5 4q-8 0 -32 -16.5t-42 -33.5zM713 1493
q-6 -2 -10.5 -11.5t-4.5 -19.5q0 -16 14 -16q13 0 33 10q-2 12 -11.5 24.5t-20.5 12.5zM343 657q40 0 67 16h-124q24 -16 57 -16z" />
  </g>

</svg>
