<?xml version="1.0" standalone="no"?>
<!DOCTYPE svg PUBLIC "-//W3C//DTD SVG 1.1//EN" "http://www.w3.org/Graphics/SVG/1.1/DTD/svg11.dtd" >
<svg xmlns="http://www.w3.org/2000/svg" xmlns:xlink="http://www.w3.org/1999/xlink" version="1.1" viewBox="-10 0 2524 2048">
  <g transform="scale(1, -1)"  transform-origin="center">
   <path fill="currentColor"
d="M1062 806q32 43 103 48l113 8q20 131 20 144q0 82 -55 245l-171 -107q-106 -67 -203 -67q-41 0 -88 10.5t-79 32.5t-57.5 49t-25.5 34l443 330q-17 34 -17 70v123q0 43 -38 43q-22 0 -32.5 -9.5t-11.5 -15.5h-38v35q0 32 12.5 58t50.5 57l35 32q17 31 61 47t103 16
q56 0 98 -18t73 -52t67 -110l35 -19l469 368q7 -3 24.5 -32.5t30.5 -64.5t13 -69q0 -92 -32.5 -159t-99.5 -129l-174 -160l89 -123l319 -510l-166 -105h472v-133h-832q53 -86 53 -151q0 -86 -52.5 -131.5t-155.5 -45.5q-39 0 -81 14v-214h1077v-40h-225v-170h225v-40h-225
v-170h225v-40h-2295v40h230v170h-230v40h230v170h-230v40h1098v274q-61 39 -132.5 102.5t-119.5 115.5l-34 36h-351q-42 -54 -113 -90t-143 -36q-73 0 -122 31.5t-75.5 83.5t-26.5 108q0 119 42.5 185.5t117.5 66.5q62 0 151.5 -65t156.5 -151h494zM1187 1951q-55 0 -93 -12
t-38 -28l-41 -40q-15 -13 -31.5 -29t-20.5 -48q8 17 30 31.5t43 14.5t45 -21h5q11 0 11 8l-1 9q-13 0 -23 9t-10 23q0 13 10 23t26 10h59q38 0 63.5 -23t25.5 -60q0 -50 -88 -94l-13 -1q-9 0 -11 8h-11v-15h-21q0 40 -22 71t-54 31q-14 0 -32 -15h4l8 1q37 0 56.5 -26
t19.5 -72v-103q0 -30 20 -62.5t62 -77.5l38 -45q84 -108 166 -192q110 -119 110 -237l-10 -155q-52 0 -105 -7v-21h243v21q-56 7 -98 7v169q36 -7 79 -39v217q116 0 195 -140l120 -214l151 96l-308 484l-64 88q-126 176 -205 250l-86 46q-35 74 -61 103t-60.5 43t-82.5 14z
M214 766q7 -16 35 -53h2116v53h-2151zM839 -275h410v170h-410v-170zM1739 -275h410v170h-410v-170zM839 -65h410v170h-410v-170zM389 -65h410v170h-410v-170zM1289 -65h410v170h-410v-170zM1739 -65h410v170h-410v-170zM389 -275h410v170h-410v-170zM1289 -275h410v170h-410
v-170zM1706 806h166l-123 224q-28 49 -63 79t-65 30v-241q-51 51 -81 56v-84q32 -2 68.5 -7t54.5 -14.5t43 -42.5zM1620 1638l47 -60l170 156q60 54 90 116t30 142q0 59 -36 109l-86 -68q22 -44 22 -90q0 -53 -28 -98.5t-88 -98.5zM1195 1359l-129 -85q-98 -66 -169 -66
q-35 0 -72 14.5t-61 38.5l-89 -65q43 -50 94.5 -64t95.5 -14q91 0 187 59l177 113l-15 43zM1595 1669l120 107q102 92 102 167q0 34 -14 65l-305 -238l11 -6q42 -43 86 -95zM1083 1499l-286 -215q10 -6 24.5 -15.5t34.5 -15.5q17 -5 35 -5q59 0 153 58l128 84l-18 26z
M1563 490q0 32 -58 90.5t-125 92.5h-43v-171q36 -24 68 -36.5t71 -12.5q38 0 62.5 10.5t24.5 26.5zM1556 433q-36 -19 -93 -19q-56 0 -126.5 37.5t-151 107t-111.5 114.5h-75q21 -21 49.5 -50t62 -61t71 -63.5t77 -57t80 -41t79.5 -15.5q96 0 138 48zM1383 1016
q24 -3 60 -24v7q0 95 -102 207l-64 72l21 -65q40 -122 40 -207q0 -19 -19 -144l37 2zM180 885q0 -31 22 -79h198q-66 70 -104 95t-66 25q-50 0 -50 -41zM343 617q-67 0 -122 66t-75 159q-4 -30 -4 -58q0 -89 52.5 -143t134.5 -54q50 0 102.5 22.5t93.5 63.5h-53
q-20 -25 -53.5 -40.5t-75.5 -15.5zM260 982q-41 0 -69 -30q21 9 51 9q35 0 101 -49t110 -106h63q-72 83 -141 129.5t-115 46.5zM1297 375l-40 20v-250h40v230zM1188 1775q0 -8 -4 -12q35 26 35 55q0 27 -19.5 45.5t-48.5 18.5h-23q4 -7 4 -15q0 -17 -15 -28l5 -14
q0 -16 -24 -22q15 -24 20 -44l-1 12q0 17 9.5 28t25.5 11q18 0 27 -13t9 -22zM1257 560l40 -30v143h-40v-113zM1585 539q-6 28 -23 67t-36 67h-72q86 -65 131 -134zM1445 949q-25 14 -38 18l-19 -102l52 5zM1132 673q26 -28 85 -80v80h-85zM343 657q40 0 67 16h-124
q24 -16 57 -16zM1152 1789q-16 0 -16 -19q0 -11 5.5 -16.5t10.5 -5.5q14 0 14 22q0 19 -14 19zM1082 1868q0 -14 15 -14q14 0 14 14q0 15 -14 15q-15 0 -15 -15zM1198 825q-21 0 -38 -19h38v19zM1340 825q-21 0 -33 -19h33v19zM1227 806q13 17 29 26l-37 -5v-21h8zM1295 824
q-30 0 -43 -18h24q3 4 19 18zM1147 824q-28 0 -41 -18h23zM1631 806h33q-11 10 -33 17v-17z" />
  </g>

</svg>
