<?xml version="1.0" standalone="no"?>
<!DOCTYPE svg PUBLIC "-//W3C//DTD SVG 1.1//EN" "http://www.w3.org/Graphics/SVG/1.1/DTD/svg11.dtd" >
<svg xmlns="http://www.w3.org/2000/svg" xmlns:xlink="http://www.w3.org/1999/xlink" version="1.1" viewBox="-10 0 2524 2048">
  <g transform="scale(1, -1)"  transform-origin="center">
   <path fill="currentColor"
d="M2405 806v-133h-832q53 -86 53 -151q0 -86 -52.5 -131.5t-155.5 -45.5q-39 0 -81 14v-214h1077v-40h-225v-170h225v-40h-225v-170h225v-40h-2295v40h230v170h-230v40h230v170h-230v40h1098v274q-61 39 -132.5 102.5t-119.5 115.5l-34 36h-351q-42 -54 -113 -90t-143 -36
q-73 0 -122 31.5t-75.5 83.5t-26.5 108q0 119 42.5 185.5t117.5 66.5q62 0 151.5 -65t156.5 -151h1837zM214 766q7 -16 35 -53h2116v53h-2151zM389 -65h410v170h-410v-170zM389 -275h410v170h-410v-170zM839 -65h410v170h-410v-170zM1289 -65h410v170h-410v-170zM1739 -65
h410v170h-410v-170zM1289 -275h410v170h-410v-170zM839 -275h410v170h-410v-170zM1739 -275h410v170h-410v-170zM1563 490q0 32 -58 90.5t-125 92.5h-43v-171q36 -24 68 -36.5t71 -12.5q38 0 62.5 10.5t24.5 26.5zM1556 433q-36 -19 -93 -19q-56 0 -126.5 37.5t-151 107
t-111.5 114.5h-75q21 -21 49.5 -50t62 -61t71 -63.5t77 -57t80 -41t79.5 -15.5q96 0 138 48zM180 885q0 -31 22 -79h198q-66 70 -104 95t-66 25q-50 0 -50 -41zM343 617q-67 0 -122 66t-75 159q-4 -30 -4 -58q0 -89 52.5 -143t134.5 -54q50 0 102.5 22.5t93.5 63.5h-53
q-20 -25 -53.5 -40.5t-75.5 -15.5zM260 982q-41 0 -69 -30q21 9 51 9q35 0 101 -49t110 -106h63q-72 83 -141 129.5t-115 46.5zM1297 375l-40 20v-250h40v230zM1257 560l40 -30v143h-40v-113zM1585 539q-6 28 -23 67t-36 67h-72q86 -65 131 -134zM1132 673q26 -28 85 -80v80
h-85zM343 657q40 0 67 16h-124q24 -16 57 -16zM302 1572q17 0 31 -14l146 -141l146 141q15 14 32 14q13 0 23 -10.5t10 -24.5q0 -15 -9 -25l-118 -112q40 -14 77.5 -41.5t54.5 -52.5l55 -73q27 -37 47 -50.5t42 -13.5q38 0 91.5 15.5t122.5 38.5q147 49 223 49t163 -31
t191 -78q78 -37 181 -60t209 -23q128 0 252 18l94 12q13 0 22 -11.5t9 -29.5q0 -31 -23 -42q-150 -77 -364 -77q-92 0 -259 19q-290 33 -355 33q-98 0 -254 -26q-173 -26 -249 -26q-85 0 -133 18t-95 74l-77 96q-30 37 -50 37q-13 0 -31 -5q-41 -11 -79 -11q-75 0 -123.5 30
t-48.5 80q0 84 139 132l-117 111q-10 10 -10 24t10 25t24 11zM482 1375q-78 0 -132 -33t-54 -73q0 -31 37 -50.5t95 -19.5q46 0 92 14l18 2q21 0 47 -19t46 -46l64 -79q41 -49 83.5 -65t114.5 -16q85 0 244 26q63 9 126.5 17.5t132.5 8.5q50 0 119.5 -7.5t147.5 -15.5
q93 -11 177.5 -20t169.5 -9q70 0 146 10.5t139 31.5t63 29v4q-1 6 -8 6l-7 -1q-171 -30 -323 -30q-203 0 -396 85q-164 72 -229.5 89.5t-118.5 17.5q-70 0 -170 -32q-185 -59 -215 -64.5t-52 -5.5q-32 0 -59 15.5t-61 60.5l-54 73q-84 96 -183 96zM534 1410l117 114
q11 11 11 16t-6 5q-8 0 -14 -9l-126 -124zM297 1540q0 -7 10 -16l116 -114l19 1l-124 125q-9 9 -15 9t-6 -5zM440 1328q0 12 8 19.5t19 7.5q10 0 17 -7.5t7 -19.5q0 -10 -7 -16.5t-17 -6.5q-11 0 -19 6.5t-8 16.5zM1721 1522q-214 0 -339 205q-23 38 -39 79
q-58 145 -71.5 169.5t-29.5 37.5t-34 13q-26 0 -36.5 -19.5t-10.5 -42.5v-559h1120v559q0 23 -10.5 42.5t-36.5 19.5q-27 0 -49.5 -28t-55.5 -118q-45 -112 -69 -153q-125 -205 -339 -205zM1721 1562q98 0 172.5 44.5t132.5 140.5q23 39 65 147q38 106 69 139t74 33
q41 0 64 -27t23 -75v-599h-1200v599q0 47 22.5 74.5t64.5 27.5q30 0 51.5 -14.5t39 -41.5t52.5 -116q42 -108 65 -147q107 -185 305 -185z" />
  </g>

</svg>
