<?xml version="1.0" standalone="no"?>
<!DOCTYPE svg PUBLIC "-//W3C//DTD SVG 1.1//EN" "http://www.w3.org/Graphics/SVG/1.1/DTD/svg11.dtd" >
<svg xmlns="http://www.w3.org/2000/svg" xmlns:xlink="http://www.w3.org/1999/xlink" version="1.1" viewBox="-10 0 2518 2048">
  <g transform="scale(1, -1)"  transform-origin="center">
   <path fill="currentColor"
d="M100 806h18v64q19 28 53 46.5t68 18.5q43 0 91 -24l410 51l-7 54l-24 19q-88 69 -120 151t-95 336l-266 70q-46 12 -75.5 35t-29.5 52v53l169 6q32 41 92.5 77.5t93.5 40.5q27 79 27 231h44q44 -73 58 -130q11 64 11 130h45q22 -39 37 -86t15 -84q0 -59 -32 -121
q35 -46 97 -170l45 -115q40 -108 79 -120q39 -13 85 -18t124 -5q50 0 170 22q131 23 212.5 36t135.5 11q143 0 277 -87t250 -264t183 -390t67 -389q0 -17 -10 -84q-75 35 -131 104.5t-103.5 190t-70.5 203.5l-55 195q-50 178 -95 238h-5l78 -255q8 -29 8 -39q0 -28 -16 -54
h52v-133h-505q53 -86 53 -151q0 -86 -52.5 -131.5t-155.5 -45.5q-39 0 -81 14v-214h1077v-40h-225v-170h225v-40h-225v-170h225v-40h-2295v40h230v170h-230v40h230v170h-230v40h1098v274q-61 39 -132.5 102.5t-119.5 115.5l-34 36h-813v133zM618 1774q57 62 57 143
q0 44 -22 99q-10 -146 -73 -244l-32 22l14 26q-78 0 -135.5 -26t-112.5 -92l-151 -2v-21l1 -9l135 -1v-24l-95 -5q13 -8 33 -12l293 -75l40 -161q29 -116 54 -183t108 -140l-1 16v17q0 84 23 145l35 -15q-18 -38 -18 -130q0 -35 15 -170l-465 -64q-42 27 -82 27
q-48 0 -84 -40v-48h19v32h22v-32h27v32h22v-32h13l20 29q73 -30 126 -30h460q59 3 91 28.5t32 65.5v209h40v-130h57q87 0 197.5 39t208.5 103q-8 17 -20.5 60t-12.5 61h37q0 -13 8.5 -47.5t18.5 -51.5q22 -42 98.5 -116.5t118.5 -91.5l-5 -32q-122 0 -268 -31l-61 -11
q-71 25 -120 25q-45 0 -72 -42v-37h24v32h22v-32h27v32h22v-32h21l12 27q91 -25 150 -28h448q21 2 35 18t14 36l-6 27l-77 246q0 72 19 91q37 -27 67.5 -77t57.5 -123t81 -275q15 -56 62 -187.5t86 -191t90 -88.5l1 13v12q0 168 -66.5 377t-171.5 373t-231 252t-268 88
q-61 0 -132 -11.5t-152 -26.5q-161 -31 -234 -31q-145 0 -220 23q-39 16 -73.5 76t-69.5 157q-34 96 -93 180l-14 -20zM2020 713v53h-1880v-53h1880zM371 -65h410v170h-410v-170zM821 -275h410v170h-410v-170zM821 -65h410v170h-410v-170zM1721 -275h410v170h-410v-170z
M1271 -65h410v170h-410v-170zM371 -275h410v170h-410v-170zM1721 -65h410v170h-410v-170zM1271 -275h410v170h-410v-170zM1027 900q0 -62 -41 -94h188v48q8 25 40.5 47.5t69.5 22.5q54 0 129 -24q32 4 96.5 16.5t155.5 17.5q-33 24 -81 69.5t-73 82.5q-77 -57 -200.5 -101
t-226.5 -44h-57v-41zM1545 490q0 32 -58 90.5t-125 92.5h-43v-171q36 -24 68 -36.5t71 -12.5q38 0 62.5 10.5t24.5 26.5zM1538 433q-36 -19 -93 -19q-56 0 -126.5 37.5t-151 107t-111.5 114.5h-75q21 -21 49.5 -50t62 -61t71 -63.5t77 -57t80 -41t79.5 -15.5q96 0 138 48z
M1279 375l-40 20v-250h40v230zM541 2023q-4 -101 -25 -166h55l3 46q0 27 -11 63t-22 57zM1239 560l40 -30v143h-40v-113zM1567 539q-6 28 -23 67t-36 67h-72q86 -65 131 -134zM1114 673q26 -28 85 -80v80h-85zM442 1744q0 18 28 18q11 0 19.5 -5t8.5 -13q0 -9 -8.5 -15
t-19.5 -6q-12 0 -20 6t-8 15z" />
  </g>

</svg>
