<?xml version="1.0" standalone="no"?>
<!DOCTYPE svg PUBLIC "-//W3C//DTD SVG 1.1//EN" "http://www.w3.org/Graphics/SVG/1.1/DTD/svg11.dtd" >
<svg xmlns="http://www.w3.org/2000/svg" xmlns:xlink="http://www.w3.org/1999/xlink" version="1.1" viewBox="-10 0 2854 2048">
  <g transform="scale(1, -1)"  transform-origin="center">
   <path fill="currentColor"
d="M2744 1981v-2514h-2644v2514h2644zM2704 -493v2434h-2564v-2434h2564zM1960 1801h-1680v-2154h2284v1621h-604v533zM2140 1801v-353h424v353h-424zM2604 1841v-433h-504v433h504zM2000 1308h604v-1701h-2364v2234h1760v-533zM862 306q40 63 120 85q-13 108 -13 224
q0 213 59.5 401t162.5 303.5t241 146.5l-13 -632q167 201 299.5 291.5t252.5 90.5q37 0 203 -17l-376 -575q-81 -103 -234 -250q-114 52 -205 52q-75 0 -135 -39q109 -34 149 -94q35 53 109 53q115 0 249 -75.5t233.5 -194.5t99.5 -207q0 -62 -22 -119h-46q0 43 -15.5 82
t-42 53t-194.5 34q30 -33 86 -74q36 -27 47.5 -42.5t15.5 -34.5l-9 -8q-15 12 -29 12q-17 0 -27 -20q-76 50 -119 90.5t-75 95.5q-86 29 -159.5 72.5t-117.5 86.5q-13 -15 -31 -25q29 -61 29 -77q0 -100 -40 -249h-84q-15 0 -21 3t-10 3l-2 -6h-99q-34 0 -45 17l-10 -17h-85
q-22 0 -37 10l-7 -10h-92q-23 0 -37.5 10.5t-14.5 30.5q0 16 15.5 27.5t38.5 11.5h38q49 85 62.5 117t13.5 50q0 8 -22 51l-30 59l-16 15q-18 -96 -57 -133h-29q-62 56 -97 126t-35 141q0 66 8 126l-2 11l-109 145q-135 171 -135 272q0 62 6 110h48q12 -122 42 -180.5
t109 -158.5l55 -77l-8 65q-8 41 -41 166q-29 107 -29 149q0 67 44 122l33 -11q-8 -48 -8 -80q0 -22 29 -122q42 -144 56 -266q5 -50 15.5 -84t30 -64t65.5 -69zM1051 325l33 49q-101 -2 -160 -45.5t-59 -115.5q0 -89 132 -133l-12 19l-5 7l27 18q67 -115 67 -131
q0 -23 -14.5 -69t-52.5 -129h-45q-26 0 -26 -8q0 -10 23 -10h69l14 35q20 44 35.5 96.5t15.5 86.5q0 22 -69 135l26 17l17 -27l33 -59l20 -1h19q58 0 95 10l-16 26l-6 10l27 18q68 -111 68 -131q0 -37 -11.5 -102t-24.5 -96h-54q-26 0 -26 -8q0 -10 23 -10h75q36 120 36 218
q0 22 -69 135l27 17l28 -48l27 23l-2 27l152 16l23 1q23 0 36.5 -7t27.5 -35q53 -97 74 -144l8 -17q24 -47 62 -88t106 -86q6 10 18 10l6 -1l-79 63q-38 28 -63.5 61.5t-66.5 124.5q-37 80 -68 125q-7 15 -44 15l-23 -1l-86 -8l-66 -8l-3 32h5l14 2q0 30 -10 47
q-37 82 -164 113q-29 -24 -67 -67l-23 22q69 74 100.5 97t68 36t85.5 13q63 0 197 -42q54 51 106.5 101.5t102.5 113.5l349 530q-13 1 -30.5 3t-37 3.5t-39 2.5t-36.5 1q-161 0 -376.5 -208.5t-509.5 -659.5zM1105 405q142 216 276 381l12 633q-113 -32 -201.5 -146
t-136.5 -289t-48 -369q0 -73 5 -131.5t7 -85.5q35 7 74 7h12zM1393 254q5 -18 7 -48q80 11 126 11q21 0 40.5 -3.5t28.5 -19.5q29 -44 92 -179l32 -62q167 -20 213 -32q73 -27 92 -126q10 32 10 74q0 83 -94 193.5t-221 181.5t-237 71q-38 0 -61 -16t-28 -45zM835 213
q0 38 11 65q-58 45 -85.5 99t-40.5 143q-10 103 -54 260q-26 78 -26 125q0 25 5 42h-3q-14 -28 -14 -67q0 -35 30 -151l22 -90q24 -95 34 -215l-20 -7q-25 49 -61 94q-87 109 -125.5 172t-50.5 127l-11 76h-3l-3 -53v-26q0 -82 118 -232l44 -58q87 -113 89 -128l1 -13
q-7 -65 -7 -124q0 -122 100 -228v66h32v-51q24 45 29 116q-11 25 -11 58zM1376 122q40 -42 110.5 -84t126.5 -62l-64 133q-7 17 -16 21.5t-28 5.5l-127 -13l-1 -1h-1zM939 71q30 -63 30 -78q0 -17 -13 -48.5t-78 -149.5h-53q-25 0 -25 -8q0 -10 23 -10h74l9 15q3 15 13 22
q69 113 69 181q0 12 -24 65zM1128 29l-14 1q9 -21 9 -35q0 -57 -44 -173q9 4 22 4h33q9 29 17 80t8 83q0 7 -19 40h-12zM1228 36q12 -24 12 -41q0 -69 -21 -169h30q11 36 18.5 83t7.5 80q0 9 -26 52zM1178 30q12 -29 12 -37q0 -37 -12 -104t-21 -94h-56q-25 0 -25 -8
q0 -10 23 -10h62v10q0 24 25 33q23 92 23 175q0 6 -13 37zM1005 48q13 -34 13 -53q0 -55 -57 -169h27q55 116 55 167q0 10 -25 49zM743 222q39 0 39 -44q0 -22 -10.5 -31.5t-22.5 -9.5q-22 0 -30 14t-8 28t7.5 28.5t24.5 14.5zM743 198q-7 0 -7 -19t13 -19q7 0 7 18
q0 20 -13 20z" />
  </g>

</svg>
