<?xml version="1.0" standalone="no"?>
<!DOCTYPE svg PUBLIC "-//W3C//DTD SVG 1.1//EN" "http://www.w3.org/Graphics/SVG/1.1/DTD/svg11.dtd" >
<svg xmlns="http://www.w3.org/2000/svg" xmlns:xlink="http://www.w3.org/1999/xlink" version="1.1" viewBox="-10 0 2520 2048">
  <g transform="scale(1, -1)"  transform-origin="center">
   <path fill="currentColor"
d="M213 1497h89q-17 51 -17 110q0 104 55.5 194t148.5 135t215 45q98 0 224 -28t317 -99l1007 -357h48v-111h-9l-128 -220q29 -3 44 -22.5t15 -48.5q0 -23 -14.5 -45t-41.5 -27v-1365h121l123 -191h-2310l123 191h121v1365q-27 5 -41.5 27t-14.5 45q0 30 16 49.5t45 21.5
l-128 220h-8v111zM2037 -342v1364h-1564v-1364h1564zM1346 0l46 -178v-87h-274v87l45 178q-37 12 -78.5 25t-72.5 39q-97 148 -111 206h-16q-24 12 -75.5 62t-64.5 78q-18 28 -18 84q0 55 23 75.5t67 20.5l13 -7q11 115 61.5 183.5t141 103.5t222.5 38q129 -3 220.5 -37.5
t142.5 -103.5t62 -184l13 7q44 0 67 -20.5t23 -75.5q0 -56 -18 -84q-12 -27 -63 -77t-77 -63h-16q-14 -58 -111 -206q-104 -52 -152 -64zM325 1607q0 -57 19 -110h1787l-900 319q-333 125 -527 125q-118 0 -203 -45t-130.5 -122t-45.5 -167zM2119 1167l126 219h-1978
l127 -219h1725zM1617 310q19 10 63 55.5t50 65.5q13 20 13 63q0 56 -40 56l-59 -32l-1 10q-48 48 -84 65t-87.5 26.5t-123.5 9.5l-93 -3l-93 3q-72 0 -123.5 -9.5t-87.5 -26t-84 -65.5h-1v-10l-59 32q-40 0 -40 -56q0 -43 13 -63q6 -21 50.5 -66.5t62.5 -54.5h44
q2 -55 104 -218q22 -15 63 -31.5t77 -25.5h148q10 0 65.5 21.5t74.5 35.5q99 159 104 218h44zM433 -382v1404h-49v-1404h-139l-71 -111h2162l-71 111h-139v1404h-49v-1404h-1644zM1255 666l93 3q101 0 171 -18.5t118 -61.5q-22 143 -118 208.5t-264 70.5q-346 -9 -382 -279
q49 44 118.5 62t170.5 18zM358 1127q-14 0 -22 -9t-8 -23q0 -11 8 -22t22 -11h1794q14 0 22 11t8 22q0 14 -8 23t-22 9h-1794zM253 1426h2007v31h-2007v-31zM1352 -225v47l-46 173h-102l-46 -173v-47h194zM1283 509l28 55l104 -5v-25l-80 -10l-12 -23v-242h-136v242l-12 23
l-80 10v25l104 5l28 -55v-210h56v210zM1576 443q-50 -35 -119 -35q-44 0 -73.5 11.5t-37.5 17.5v34q44 39 111 39q56 0 100 -29l19 -12v-26zM934 469l20 12q43 29 99 29q67 0 111 -39v-34q-8 -6 -37.5 -17.5t-73.5 -11.5q-69 0 -119 35v26zM1255 216q11 0 31 14
q17 -16 59 -25t64 -11v-35q-57 -9 -154 -9t-154 9v35l40 7q63 11 83 29q18 -14 31 -14zM1255 187l-11 -1q-15 0 -22 6q-46 -11 -68 -11h-21v-3l122 -3l122 3v3h-21q-22 0 -68 11q-9 -6 -22 -6zM1474 460q0 16 -17 18h-1q-18 0 -18 -18t18 -18t18 18zM1036 460q0 -18 18 -18
t18 18t-18 18h-1q-17 -2 -17 -18zM1012 460l2 15q-22 -4 -46 -16v-6l22 -6l26 -6q-4 8 -4 19zM1498 460q0 -11 -4 -19l26 6l22 6v6q-24 12 -46 16zM1378 454q16 -8 39 -11l-3 17l3 14q-24 -5 -39 -14v-6zM1132 460q-16 9 -39 14l3 -14l-3 -17q23 3 39 11v6z" />
  </g>

</svg>
