<?xml version="1.0" standalone="no"?>
<!DOCTYPE svg PUBLIC "-//W3C//DTD SVG 1.1//EN" "http://www.w3.org/Graphics/SVG/1.1/DTD/svg11.dtd" >
<svg xmlns="http://www.w3.org/2000/svg" xmlns:xlink="http://www.w3.org/1999/xlink" version="1.1" viewBox="-10 0 1500 2048">
  <g transform="scale(1, -1)"  transform-origin="center">
   <path fill="currentColor"
d="M1286 477q-17 -131 -27 -173l107 -41l-148 -365l-96 36q-29 -47 -66 -92l65 -94l-328 -220l-66 98q-38 -7 -135 -10v-114h-394v113h-98v116h510q161 0 295.5 124.5t205 338t70.5 480.5q0 269 -71 482t-205.5 337t-294.5 124h-510v116h98v113h394v-114q87 -3 135 -11
l66 99l328 -220l-65 -94q29 -33 65 -92l97 36l148 -366l-107 -40q10 -42 27 -173h104v-394h-104zM1350 831h-100l-5 42q-12 116 -32 197l101 38l-118 290l-94 -35q-48 85 -97 139l60 86l-260 176l-58 -87q-67 15 -195 15v114h-314v-113h-98v-36h470q169 0 310.5 -124.5
t221 -348.5t79.5 -510q0 -288 -80 -511.5t-221.5 -347.5t-309.5 -124h-470v-36h98v-113h314v114q122 0 194 16l59 -88l260 176l-60 86q18 18 49 63t48 76l94 -35l118 291l-101 37q20 81 32 197l5 42h100v314z" />
  </g>

</svg>
