<?xml version="1.0" standalone="no"?>
<!DOCTYPE svg PUBLIC "-//W3C//DTD SVG 1.1//EN" "http://www.w3.org/Graphics/SVG/1.1/DTD/svg11.dtd" >
<svg xmlns="http://www.w3.org/2000/svg" xmlns:xlink="http://www.w3.org/1999/xlink" version="1.1" viewBox="-10 0 2745 2048">
  <g transform="matrix(1 0 0 -1 0 1638)">
   <path fill="currentColor"
d="M1820 977l425 -5l22 17l45 691h277l46 -889l-52 -69h-763v-1255h-880v1255h-111l-186 -36h-240l-168 74l-135 128l55 83l151 -104q15 -9 62.5 -25t88.5 -26l210 17l-5 32q-8 -1 -52 -3.5t-58 -2.5q-31 0 -88.5 8t-85.5 21l21 105q14 -5 67 -9.5t77 -4.5q10 0 24.5 1
t59.5 5.5t62 8.5l128 -58l123 5v562h66l27 45q-20 18 -20 47q0 41 37 58q-42 75 -42 147q0 41 11 78t54 109h6q44 -74 54.5 -111.5t10.5 -75.5q0 -72 -41 -147q38 -18 38 -58q0 -29 -21 -47l28 -45h60l27 45q-20 18 -20 47q0 41 37 58q-42 75 -42 147q0 41 11 78t54 109h6
q44 -74 54.5 -111.5t10.5 -75.5q0 -72 -41 -147q38 -18 38 -58q0 -29 -21 -47l28 -45h60l27 45q-20 18 -20 47q0 41 37 58q-42 75 -42 147q0 41 11 78t54 109h6q44 -74 54.5 -111.5t10.5 -75.5q0 -72 -41 -147q38 -18 38 -58q0 -29 -21 -47l28 -45h60l27 45q-20 18 -20 47
q0 41 37 58q-42 75 -42 147q0 41 11 78t54 109h6q44 -74 54.5 -111.5t10.5 -75.5q0 -72 -41 -147q38 -18 38 -58q0 -29 -21 -47l28 -45h66v-526zM1780 -493v814h-800v-814h800zM2352 1640l-44 -680l-34 -28l-626 7l-845 -41l-124 55l-25 -2q-88 -13 -112 -13
q-20 0 -65.5 3.5t-58.5 7.5l-6 -35q22 -10 65.5 -16t74.5 -6q110 0 140 5l17 -94l-255 -21q-134 34 -167 57l-125 86l-22 -31l110 -98l158 -72h234l184 38h1733l36 48l-44 830h-199zM980 943l337 16l425 421h-762v-437zM1780 607v115h-645l-116 -115h761zM1780 977v385
l-405 -401l79 4l196 14zM980 484h800v83h-800v-83zM980 361h800v83h-800v-83zM980 1420h800v43h-800v-43zM1654 1800q1 -66 28 -114q27 48 28 114q-1 66 -28 114q-27 -48 -28 -114zM1452 1800q1 -66 28 -114q27 48 28 114q-1 66 -28 114q-27 -48 -28 -114zM1048 1800
q1 -66 28 -114q27 48 28 114q-1 66 -28 114q-27 -48 -28 -114zM1250 1800q1 -66 28 -114q27 48 28 114q-1 66 -28 114q-27 -48 -28 -114zM980 722v-98l98 98h-98zM1659 1595q0 -10 7 -17t17 -7t17 7t7 17t-7 17t-17 7t-17 -7t-7 -17zM1053 1595q0 -10 7 -17t17 -7t17 7t7 17
t-7 17t-17 7t-17 -7t-7 -17zM1255 1595q0 -10 7 -17t17 -7t17 7t7 17t-7 17t-17 7t-17 -7t-7 -17zM1457 1595q0 -10 7 -17t17 -7t17 7t7 17t-7 17t-17 7t-17 -7t-7 -17zM1456 1503h49l-18 28h-13zM1658 1503h49l-18 28h-13zM1254 1503h49l-18 28h-13zM1052 1503h49l-18 28
h-13z" />
  </g>

</svg>
