<?xml version="1.0" standalone="no"?>
<!DOCTYPE svg PUBLIC "-//W3C//DTD SVG 1.1//EN" "http://www.w3.org/Graphics/SVG/1.1/DTD/svg11.dtd" >
<svg xmlns="http://www.w3.org/2000/svg" xmlns:xlink="http://www.w3.org/1999/xlink" version="1.1" viewBox="-10 0 2789 2048">
  <g transform="matrix(1 0 0 -1 0 1638)">
   <path fill="currentColor"
d="M2679 31h-855q-49 -57 -103.5 -81.5t-119.5 -24.5q-79 0 -135.5 34.5t-76.5 93.5q-20 -59 -76.5 -93.5t-134.5 -34.5q-64 0 -119.5 24.5t-103.5 81.5h-855v162h855q49 57 103.5 81.5t119.5 24.5q78 0 134.5 -34.5t76.5 -93.5q20 59 76.5 93.5t135.5 34.5
q64 0 119.5 -24.5t103.5 -81.5h855v-162zM2639 153h-833l-27 30q-32 34 -79 55t-99 21q-81 0 -131 -41.5t-50 -105.5t50 -105.5t131 -41.5q53 0 99.5 21t78.5 55l27 30h833v82zM140 71h833q48 -58 97.5 -82t107.5 -24q81 0 131 41.5t50 105.5t-50 105.5t-131 41.5
q-57 0 -106 -23.5t-99 -82.5h-833v-82z" />
  </g>

</svg>
