<?xml version="1.0" standalone="no"?>
<!DOCTYPE svg PUBLIC "-//W3C//DTD SVG 1.1//EN" "http://www.w3.org/Graphics/SVG/1.1/DTD/svg11.dtd" >
<svg xmlns="http://www.w3.org/2000/svg" xmlns:xlink="http://www.w3.org/1999/xlink" version="1.1" viewBox="-10 0 1280 2048">
  <g transform="matrix(1 0 0 -1 0 1638)">
   <path fill="currentColor"
d="M361 1645h548v-1956h-548v1956zM401 -271h468v1876h-468v-1876zM140 461h141v-651h-141v-301h342v111h306v-111h342v301h-141v651h141v412h-141v651h141v301h-342v-111h-306v111h-342v-301h141v-651h-141v-412zM100 913h141v571h-141v381h422v-111h226v111h422v-381h-141
v-571h141v-492h-141v-571h141v-381h-422v111h-226v-111h-422v381h141v571h-141v492z" />
  </g>

</svg>
