<?xml version="1.0" standalone="no"?>
<!DOCTYPE svg PUBLIC "-//W3C//DTD SVG 1.1//EN" "http://www.w3.org/Graphics/SVG/1.1/DTD/svg11.dtd" >
<svg xmlns="http://www.w3.org/2000/svg" xmlns:xlink="http://www.w3.org/1999/xlink" version="1.1" viewBox="-10 0 2780 2048">
  <g transform="matrix(1 0 0 -1 0 1638)">
   <path fill="currentColor"
d="M2670 86v-135h-2570v135h410v538q-26 17 -58 52t-51 83h-301v112h286q9 86 58 143t117 57q66 0 115.5 -56.5t58.5 -143.5h91q9 86 58 143t117 57q66 0 115.5 -56.5t58.5 -143.5h91q9 86 58 143t117 57q66 0 115.5 -56.5t58.5 -143.5h91q9 86 58 143t117 57
q66 0 115.5 -56.5t58.5 -143.5h91q9 86 58 143t117 57q66 0 115.5 -56.5t58.5 -143.5h175v-112h-190q-33 -81 -108 -135v-538h298zM612 624v-538h338v538q-26 17 -58 52t-51 83h-121q-33 -81 -108 -135zM1052 624v-538h338v538q-26 17 -58 52t-51 83h-121q-33 -81 -108 -135
zM1492 624v-538h338v538q-26 17 -58 52t-51 83h-121q-33 -81 -108 -135zM1932 624v-538h338v538q-26 17 -58 52t-51 83h-121q-33 -81 -108 -135zM140 46v-55h2490v55h-2490zM2321 1037q-62 0 -102 -58.5t-40 -138.5q0 -56 38.5 -112.5t86.5 -83.5v-555h34v555q30 17 60 49
t46 66h-34q-29 -59 -81 -90h-16q-43 25 -72 72.5t-29 98.5q0 72 31.5 118.5t77.5 46.5q42 0 71 -37t36 -97h33q-9 75 -47.5 120.5t-92.5 45.5zM1441 1037q-62 0 -102 -58.5t-40 -138.5q0 -56 38.5 -112.5t86.5 -83.5v-555h34v555q30 17 60 49t46 66h-34q-29 -59 -81 -90h-16
q-43 25 -72 72.5t-29 98.5q0 72 31.5 118.5t77.5 46.5q42 0 71 -37t36 -97h33q-9 75 -47.5 120.5t-92.5 45.5zM561 1037q-62 0 -102 -58.5t-40 -138.5q0 -56 38.5 -112.5t86.5 -83.5v-555h34v555q30 17 60 49t46 66h-34q-29 -59 -81 -90h-16q-43 25 -72 72.5t-29 98.5
q0 72 31.5 118.5t77.5 46.5q42 0 71 -37t36 -97h33q-9 75 -47.5 120.5t-92.5 45.5zM1001 1037q-62 0 -102 -58.5t-40 -138.5q0 -56 38.5 -112.5t86.5 -83.5v-555h34v555q30 17 60 49t46 66h-34q-29 -59 -81 -90h-16q-43 25 -72 72.5t-29 98.5q0 72 31.5 118.5t77.5 46.5
q42 0 71 -37t36 -97h33q-9 75 -47.5 120.5t-92.5 45.5zM1881 1037q-62 0 -102 -58.5t-40 -138.5q0 -56 38.5 -112.5t86.5 -83.5v-555h34v555q30 17 60 49t46 66h-34q-29 -59 -81 -90h-16q-43 25 -72 72.5t-29 98.5q0 72 31.5 118.5t77.5 46.5q42 0 71 -37t36 -97h33
q-9 75 -47.5 120.5t-92.5 45.5zM2252 799h378v32h-384q0 -8 6 -32zM2321 971q-27 0 -47.5 -27.5t-25.5 -72.5h146q-6 45 -26 72.5t-47 27.5zM1441 971q-27 0 -47.5 -27.5t-25.5 -72.5h146q-6 45 -26 72.5t-47 27.5zM561 971q-27 0 -47.5 -27.5t-25.5 -72.5h146
q-6 45 -26 72.5t-47 27.5zM1001 971q-27 0 -47.5 -27.5t-25.5 -72.5h146q-6 45 -26 72.5t-47 27.5zM1881 971q-27 0 -47.5 -27.5t-25.5 -72.5h146q-6 45 -26 72.5t-47 27.5zM1372 799h337l-4 32h-339q0 -8 6 -32zM492 799h337l-4 32h-339q0 -8 6 -32zM932 799h337l-4 32
h-339q0 -8 6 -32zM1812 799h337l-4 32h-339q0 -8 6 -32zM385 831h-245v-32h249zM561 704q35 25 51 55h-103q20 -34 52 -55zM2321 704q35 25 51 55h-103q20 -34 52 -55zM1441 704q35 25 51 55h-103q20 -34 52 -55zM1881 704q35 25 51 55h-103q20 -34 52 -55zM1001 704
q35 25 51 55h-103q20 -34 52 -55z" />
  </g>

</svg>
