<?xml version="1.0" standalone="no"?>
<!DOCTYPE svg PUBLIC "-//W3C//DTD SVG 1.1//EN" "http://www.w3.org/Graphics/SVG/1.1/DTD/svg11.dtd" >
<svg xmlns="http://www.w3.org/2000/svg" xmlns:xlink="http://www.w3.org/1999/xlink" version="1.1" viewBox="-10 0 2650 2048">
  <g transform="matrix(1 0 0 -1 0 1638)">
   <path fill="currentColor"
d="M1320 1313q113 0 219 22t209 58.5t324 140.5q61 29 102.5 48.5t67.5 19.5q35 0 60 -24t25 -57q0 -42 -54 -78q-31 -21 -240 -128q-299 -153 -329 -174q-99 -64 -144.5 -117.5t-68 -123t-22.5 -167.5q0 -167 94.5 -284t275.5 -165q106 -27 283 -48q207 -25 274 -38.5
t105.5 -59.5t38.5 -107v-80h-2440v80q0 60 38 106.5t99 58.5q82 17 281 41q242 29 344 66.5t168 97t103.5 142.5t37.5 190q0 163 -69 262.5t-245 190.5q-375 193 -435 225.5t-77 49t-24.5 30.5t-7.5 30q0 32 25 56.5t60 24.5q26 0 67.5 -19.5t102.5 -48.5
q198 -95 308.5 -135t220 -63t223.5 -23zM1320 1273q-121 0 -232.5 22t-229.5 66t-355 161q-83 40 -105 40q-16 0 -30.5 -11t-14.5 -30q0 -22 27 -39q109 -66 356 -188q159 -78 222 -119q107 -69 155.5 -127.5t73 -135t24.5 -179.5q0 -183 -100.5 -307.5t-299.5 -179.5
q-107 -28 -281 -50l-142 -18q-147 -18 -178 -32t-50.5 -45t-19.5 -70v-40h2360v40q0 48 -29 82.5t-76 42.5q-69 13 -285 40q-238 30 -347.5 71.5t-181 104.5t-112 152.5t-40.5 208.5q0 104 24.5 179.5t72.5 134t156 128.5q63 41 222 119q203 100 282 144.5t90 56.5t11 26
q0 19 -14.5 30t-30.5 11q-22 0 -104 -40q-241 -118 -357.5 -161.5t-227 -65.5t-233.5 -22z" />
  </g>

</svg>
