<?xml version="1.0" standalone="no"?>
<!DOCTYPE svg PUBLIC "-//W3C//DTD SVG 1.1//EN" "http://www.w3.org/Graphics/SVG/1.1/DTD/svg11.dtd" >
<svg xmlns="http://www.w3.org/2000/svg" xmlns:xlink="http://www.w3.org/1999/xlink" version="1.1" viewBox="-10 0 2624 2048">
  <g transform="matrix(1 0 0 -1 0 1638)">
   <path fill="currentColor"
d="M977 1873h624v-120h-121q-21 -13 -44.5 -41.5t-36.5 -57.5q154 -26 200 -132q54 0 88 -25.5t34 -66.5q0 -44 -33 -71t-84 -30q-4 -14 -9 -29t-114 -296h423q-53 33 -84 88.5t-31 122.5q0 105 73 178t178 73t178 -73t73 -178q0 -67 -31.5 -122.5t-83.5 -88.5h338
q0 -76 -36.5 -144t-102 -107t-145.5 -39h-772q-16 -140 -16 -402q0 -118 28 -232t111 -292q62 -129 91 -237h-730q25 94 91 237q83 175 111 290t28 234q0 262 -16 402h-772q-81 0 -146 39.5t-101.5 107t-36.5 143.5h277q-115 92 -115 407q0 218 56.5 332.5t184.5 114.5
t184.5 -114.5t56.5 -332.5q0 -316 -116 -407h468l-82 213q-30 76 -41 112q-53 4 -84.5 31t-31.5 70q0 41 34 66.5t87 25.5q49 106 201 132q-14 29 -37.5 57.5t-44.5 41.5h-120v120zM141 964q9 -90 76 -150t167 -60h1846q98 0 166 59.5t77 150.5h-2332zM1402 312
q0 222 15 402h-221q16 -144 16 -402q0 -92 -14.5 -174t-40 -158.5t-88.5 -209.5q-51 -106 -75 -179h626q-24 73 -75 179q-63 134 -88.5 210.5t-40 158.5t-14.5 173zM1000 1428q0 -54 16.5 -101t35.5 -96l86 -227h300l88 227q23 59 37.5 105t14.5 92q0 96 -76.5 145.5
t-212.5 49.5q-137 0 -213 -49.5t-76 -145.5zM302 1411q0 -199 47 -303t154 -104t154 104t47 303t-47 303t-154 104t-154 -104t-47 -303zM1829 1215q0 -90 63.5 -150.5t155.5 -60.5q82 2 142.5 63.5t60.5 147.5q0 88 -61.5 149.5t-149.5 61.5t-149.5 -61.5t-61.5 -149.5z
M1017 1793h544v40h-544v-40zM1289 1663q37 0 69 -4q19 49 62 94h-262q43 -47 61 -94q34 4 70 4zM1618 1428q0 -23 -5 -58q28 3 48 18.5t20 41.5q0 25 -21.5 37t-47.5 14q6 -26 6 -53zM960 1428q0 31 5 53q-25 -2 -46.5 -14t-21.5 -37t19 -41t48 -19q-4 28 -4 58z" />
  </g>

</svg>
