<?xml version="1.0" standalone="no"?>
<!DOCTYPE svg PUBLIC "-//W3C//DTD SVG 1.1//EN" "http://www.w3.org/Graphics/SVG/1.1/DTD/svg11.dtd" >
<svg xmlns="http://www.w3.org/2000/svg" xmlns:xlink="http://www.w3.org/1999/xlink" version="1.1" viewBox="-10 0 2799 2048">
  <g transform="matrix(1 0 0 -1 0 1638)">
   <path fill="currentColor"
d="M1188 1909h430v-116h-131q-24 -59 -31 -107q94 -17 144.5 -95t50.5 -203q0 -85 -30 -235q-99 -464 -132 -657h418q-62 48 -95 160t-33 278q0 235 64 356.5t184 121.5t184 -121t64 -357q0 -338 -129 -438h281l262 -917h-162l-111 387h-2043l-111 -387h-162l262 917h257
q-57 35 -91 94.5t-34 131.5q0 110 78 188t188 78t188 -78t78 -188q0 -72 -34.5 -131.5t-91.5 -94.5h416l-82 423l-49 234q-30 133 -30 235q0 124 50.5 202.5t144.5 95.5q-9 51 -32 107h-130v116zM1611 1388q0 124 -55 193.5t-153 69.5q-99 0 -153.5 -70t-54.5 -193
q0 -97 30 -227q81 -370 130 -665l23 -132q5 -28 5 -52q0 -75 -37.5 -126t-94.5 -88h304q-58 37 -95 88t-37 126l5 52l22 132q29 197 131 665q30 146 30 227zM1482 456l-8 -52h858l98 -346h-2071l98 346h875l-9 52h-931l-240 -837h80l111 387h2103l111 -387h80l-240 837h-915
zM1819 934q0 -216 54.5 -327t153.5 -111q100 0 154 111.5t54 326.5q0 216 -54.5 327t-153.5 111q-100 0 -154 -111.5t-54 -326.5zM411 98h759q92 46 132.5 97t40.5 117l-5 52h-851zM1468 364l-5 -52q0 -66 41 -117.5t132 -96.5h742l-76 266h-834zM534 722q0 -94 66 -160
t160 -66t160 66t66 160t-66 160t-160 66t-160 -66t-66 -160zM1228 1833h350v36h-350v-36zM1390 1690l13 1l13 -1q4 38 27 103h-81q20 -51 28 -103z" />
  </g>

</svg>
