<?xml version="1.0" standalone="no"?>
<!DOCTYPE svg PUBLIC "-//W3C//DTD SVG 1.1//EN" "http://www.w3.org/Graphics/SVG/1.1/DTD/svg11.dtd" >
<svg xmlns="http://www.w3.org/2000/svg" xmlns:xlink="http://www.w3.org/1999/xlink" version="1.1" viewBox="-10 0 2062 2048">
  <g transform="matrix(1 0 0 -1 0 1638)">
   <path fill="currentColor"
d="M1026 640q196 0 297.5 116t101.5 341q0 65 -14.5 116t-39.5 93t-90 110q-47 47 -66 81.5t-20 67.5q-43 -59 -68.5 -138t-25.5 -162q0 -100 27 -197l-38 -10q-19 72 -24 114.5t-5 92.5q0 116 40 217.5t112 162t165 60.5q143 0 276 -107t215.5 -294t82.5 -385
q0 -247 -118 -446t-339 -320t-469 -121q-247 0 -468 121t-339.5 320t-118.5 446q0 199 82.5 386t215.5 293.5t276 106.5q92 0 164.5 -60t112.5 -162t40 -218q0 -48 -5 -92t-24 -115l-38 10q27 97 27 197q0 81 -25.5 160.5t-68.5 139.5q-2 -34 -21 -68.5t-65 -80.5
q-64 -67 -89 -109t-40 -93.5t-15 -116.5q0 -224 101.5 -340.5t297.5 -116.5zM1026 72q234 0 445 114t326 305t115 428q0 159 -54 308.5t-146 259.5l-307 -161q60 -99 60 -229q0 -241 -111.5 -369t-327.5 -128q-217 0 -328 128t-111 369q0 130 60 229l-307 161
q-93 -112 -146.5 -261.5t-53.5 -306.5q0 -237 115 -428.5t326.5 -305t444.5 -113.5zM674 1665q-165 0 -306 -147l302 -158q19 28 73 84q30 31 51 58t21 56q0 50 -37 78.5t-104 28.5zM1378 1665q-67 0 -104 -28.5t-37 -78.5q0 -29 21 -56t51 -58q54 -56 73 -84l302 158
q-141 147 -306 147z" />
  </g>

</svg>
