<?xml version="1.0" standalone="no"?>
<!DOCTYPE svg PUBLIC "-//W3C//DTD SVG 1.1//EN" "http://www.w3.org/Graphics/SVG/1.1/DTD/svg11.dtd" >
<svg xmlns="http://www.w3.org/2000/svg" xmlns:xlink="http://www.w3.org/1999/xlink" version="1.1" viewBox="-10 0 2381 2048">
  <g transform="matrix(1 0 0 -1 0 1638)">
   <path fill="currentColor"
d="M2271 673q0 -164 -107.5 -253.5t-298.5 -89.5h-1359q-191 0 -298.5 89.5t-107.5 253.5t107.5 253.5t298.5 89.5h1359q191 0 298.5 -89.5t107.5 -253.5zM1865 370q113 0 198 37t126.5 105t41.5 161q0 146 -96.5 224.5t-269.5 78.5h-1359q-113 0 -198 -37t-126.5 -104.5
t-41.5 -161.5q0 -146 96.5 -224.5t269.5 -78.5h1359z" />
  </g>

</svg>
