<?xml version="1.0" standalone="no"?>
<!DOCTYPE svg PUBLIC "-//W3C//DTD SVG 1.1//EN" "http://www.w3.org/Graphics/SVG/1.1/DTD/svg11.dtd" >
<svg xmlns="http://www.w3.org/2000/svg" xmlns:xlink="http://www.w3.org/1999/xlink" version="1.1" viewBox="-10 0 1755 2048">
  <g transform="matrix(1 0 0 -1 0 1638)">
   <path fill="currentColor"
d="M1645 672l-36 -16l-43 94l-80 -31l32 -102l-37 -11l-32 99l-79 -31l15 -88l-40 -6l-160 970l-272 -621q108 -14 181 -96t73 -192q0 -119 -84 -203h70v-108h-551v108h66q-82 84 -82 203q0 108 71.5 191.5t181.5 97.5l-272 620l-159 -970l-40 6l14 88l-79 30l-31 -98
l-37 11l31 102l-86 33l-44 -96l-36 16l459 998l317 -727l317 727zM954 403q73 19 122 85t49 153q0 102 -73.5 175.5t-175.5 73.5q-101 0 -174.5 -72.5t-73.5 -176.5q0 -81 51 -150.5t122 -87.5v-5h-159v-28h471v28h-159v5zM663 641q0 89 62.5 151.5t150.5 62.5t151 -62.5
t63 -151.5q0 -87 -62 -150t-152 -63q-89 0 -151 62t-62 151zM703 641q0 -72 51 -122.5t122 -50.5t122.5 50.5t51.5 122.5t-51 123t-123 51q-73 0 -123 -51.5t-50 -122.5zM389 715l128 781l-320 -707zM1364 715l185 72l-309 683z" />
  </g>

</svg>
