<?xml version="1.0" standalone="no"?>
<!DOCTYPE svg PUBLIC "-//W3C//DTD SVG 1.1//EN" "http://www.w3.org/Graphics/SVG/1.1/DTD/svg11.dtd" >
<svg xmlns="http://www.w3.org/2000/svg" xmlns:xlink="http://www.w3.org/1999/xlink" version="1.1" viewBox="-10 0 2228 2048">
  <g transform="matrix(1 0 0 -1 0 1638)">
   <path fill="currentColor"
d="M484 1118l2 40l-120 -3q-135 0 -200.5 30t-65.5 86q0 39 31.5 63.5t82.5 24.5q29 0 60.5 -9.5t227.5 -94.5q10 38 26 78l-115 20q-115 19 -177.5 58t-62.5 91q0 36 28 59t69 23q28 0 55 -9t60.5 -29t186.5 -125l38 56l-113 51q-92 41 -145.5 89.5t-53.5 94.5q0 38 28 60
t65 22q28 0 54 -13.5t53.5 -39t175.5 -195.5l58 46l-70 70q-59 59 -91.5 113.5t-32.5 93.5q0 38 23 62t59 24q34 0 59 -17t44 -45.5t34 -68t66 -180.5q139 63 319 63l103 -3q138 50 311 80t292 30q128 0 199 -37.5t71 -112.5q0 -64 -57.5 -105t-151.5 -41q-88 0 -199 38
q-172 58 -221.5 70.5t-107 22t-131.5 15.5q-460 -165 -460 -546t460 -546q104 8 199 28.5t261 79.5q107 38 199 38q95 0 152 -41t57 -105q0 -75 -69.5 -112.5t-197.5 -37.5q-125 0 -297.5 30.5t-308.5 79.5l-103 -3q-180 0 -319 63l-38 -106q-36 -98 -56 -132t-46 -53.5
t-63 -19.5t-59.5 24t-22.5 62q0 39 32 93t92 114l70 70q-32 21 -58 46q-151 -173 -177.5 -197.5t-52 -37.5t-53.5 -13q-38 0 -65.5 22t-27.5 60q0 46 53 94t146 90l113 51l-38 55q-174 -118 -202 -133t-52 -22t-48 -7q-42 0 -69.5 23t-27.5 59q0 53 61.5 91t178.5 58l115 19
q-17 42 -26 79l-116 -50q-57 -25 -96.5 -39.5t-75.5 -14.5q-52 0 -83 24.5t-31 63.5q0 55 65 85.5t201 30.5l120 -4zM750 1118q0 183 100 322t303 227q-144 0 -258 -40t-194 -112.5t-128.5 -181.5t-48.5 -215q0 -105 48.5 -214t128.5 -182t194 -113t258 -40
q-203 88 -303 227t-100 322zM1909 1558q75 0 122 29.5t47 76.5q0 55 -61 82.5t-166 27.5q-82 0 -226.5 -21.5t-277.5 -58.5q132 -18 251 -58q162 -56 212 -67t99 -11zM1347 542q131 -37 277 -58.5t227 -21.5q106 0 166.5 27.5t60.5 82.5q0 46 -46 76t-123 30q-83 0 -187 -36
q-162 -56 -235 -73.5t-140 -26.5zM339 1709q0 -65 174 -144l124 -56l9 9l-97 112q-67 78 -99.5 101t-58.5 23q-20 0 -36 -13t-16 -32zM391 482q25 0 57 22.5t93 92.5t105 121l-9 9l-124 -56q-174 -79 -174 -144q0 -19 15.5 -32t36.5 -13zM494 1215l-151 66q-53 23 -79 30.5
t-53 7.5q-32 0 -51.5 -13t-19.5 -35q0 -36 57.5 -56t168.5 -20l125 3zM349 1041q-98 0 -153.5 -20t-55.5 -56q0 -22 19 -35t52 -13q22 0 38.5 4t41.5 13t203 86l-3 17zM546 1371l7 15l-115 79q-44 31 -74 48t-48.5 24t-46.5 7q-24 0 -40 -12t-16 -31q0 -34 54 -62.5
t153 -45.5zM553 849l-7 15l-126 -21q-99 -17 -153 -45.5t-54 -62.5q0 -19 16 -31t40 -12q33 0 72 20t212 137zM787 1626l-40 112q-40 113 -65.5 145t-55.5 32q-21 0 -34.5 -12t-13.5 -34q0 -34 33.5 -84.5t78.5 -94.5l76 -76zM766 622l-76 -76q-50 -50 -81 -98t-31 -81
q0 -22 13.5 -34t34.5 -12q29 0 54 30t60 127.5t47 130.5z" />
  </g>

</svg>
