<?xml version="1.0" standalone="no"?>
<!DOCTYPE svg PUBLIC "-//W3C//DTD SVG 1.1//EN" "http://www.w3.org/Graphics/SVG/1.1/DTD/svg11.dtd" >
<svg xmlns="http://www.w3.org/2000/svg" xmlns:xlink="http://www.w3.org/1999/xlink" version="1.1" viewBox="-10 0 2517 2048">
  <g transform="matrix(1 0 0 -1 0 1638)">
   <path fill="currentColor"
d="M100 1987q0 28 19.5 45.5t54.5 17.5q24 0 45.5 -6.5t70.5 -27.5l1734 -732q88 -37 181.5 -125.5t147.5 -186.5t54 -174q0 -86 -34 -123.5t-103 -37.5q-63 0 -128 44t-119 127t-85 190q-123 -46 -206 -62q60 -111 105.5 -214.5t109.5 -263.5t71.5 -183t14.5 -50l31 -109
q0 -29 -18.5 -61.5t-45.5 -54.5h-96q-27 0 -70 16t-57 16q-27 0 -81 -14q-62 -17 -88 -18h-239v109q196 48 291 90.5t95 91.5q0 36 -86 171q-113 176 -128 204q-108 203 -128 247l-39 3q-86 -200 -166 -351q-44 -77 -178 -259q-7 -28 -7 -71q0 -40 23 -119q0 -61 -64 -116
h-80q-28 0 -71 16t-58 16q-27 0 -80 -14q-59 -17 -87 -18h-240v109q272 70 345 120q84 58 216 427q52 152 156 353q-58 35 -115 90l-793 777q-36 35 -55.5 59t-19.5 52zM1475 952q119 0 227 19.5t266 80.5q18 -104 67 -189t114 -135.5t119 -50.5q51 0 75 25.5t24 95.5
q0 71 -54.5 164.5t-136.5 170t-166 113.5l-1738 733q-39 16 -59.5 23.5t-39.5 7.5q-33 0 -33 -23q0 -14 13.5 -31.5t47.5 -50.5l793 -776q183 -177 481 -177zM1333 922q-121 18 -216 67q-95 -187 -127 -277q-158 -444 -253 -514q-67 -48 -331 -120v-39l188 1q29 0 92 16
q62 16 87 16q21 0 65 -16t67 -16h58q43 31 43 71v7l-4 19q-19 59 -19 98t13 94q86 109 149.5 210t187.5 383zM1459 912q96 -198 123 -240l47 -75q130 -208 148 -250.5t18 -65.5q0 -51 -78 -96.5t-309 -107.5v-37l189 1q30 0 92 15q66 15 88 15q18 0 65 -15q46 -16 67 -16h69
q41 29 46 78l-31 98q-19 64 -53 152.5t-103 252.5t-147 307q-92 -16 -215 -16h-16z" />
  </g>

</svg>
