<?xml version="1.0" standalone="no"?>
<!DOCTYPE svg PUBLIC "-//W3C//DTD SVG 1.1//EN" "http://www.w3.org/Graphics/SVG/1.1/DTD/svg11.dtd" >
<svg xmlns="http://www.w3.org/2000/svg" xmlns:xlink="http://www.w3.org/1999/xlink" version="1.1" viewBox="-10 0 972 2048">
  <g transform="scale(1, -1)"  transform-origin="center">
   <path fill="currentColor"
d="M347 1763l-41 149q-13 42 -13 72q0 66 67 66q26 0 44.5 -19t39.5 -84l10 -36q38 40 71 40q26 0 44.5 -18.5t18.5 -41.5q0 -37 -57 -112l-29 -41l172 -611q66 -9 66 -65q0 -32 -32 -57l142 -507q12 -39 12 -73q0 -27 -14.5 -48t-50.5 -21q-27 0 -49.5 26.5t-35.5 77.5
l-143 509q-35 5 -53 26l-184 -58q-5 -35 -46 -63v-3q0 -192 24 -386t61 -332q34 -129 38 -153t4 -37q0 -32 -19 -47.5t-48 -15.5q-37 0 -60.5 47t-47.5 143t-45.5 239.5t-34.5 290t-13 232.5q-45 19 -45 59q0 17 13 34.5t34 30.5q19 483 200 787zM405 1557
q-99 -234 -116 -559q25 -8 34 -25l181 56v3q0 28 33 52zM548 1892q0 20 -20 20q-27 0 -81 -72q-262 -348 -262 -954h6q24 0 55 11v18l1 23q12 296 69.5 493t181.5 371q50 70 50 90zM246 855q-32 -9 -61 -9q2 -189 31.5 -409.5t78.5 -401.5q15 -55 26 -75t27 -20q25 0 25 28
q0 26 -16 84q-51 175 -81 390t-30 413zM475 1696l-44 -81l169 -607q31 3 62 16zM673 986q-23 -11 -62 -16l140 -500q15 -49 21 -59t12.5 -15t15.5 -5q23 0 23 34q0 21 -11 61zM424 1877l-17 62q-18 71 -46 71t-28 -28q1 -11 3 -21.5t40 -151.5zM700 1061q0 17 -14 23l10 -35
zM544 1031q0 -14 13 -19l-8 30q-5 -5 -5 -11zM140 916q0 -11 5 -16v30q-5 -5 -5 -14zM292 947l-5 11v-32q5 10 5 21z" />
  </g>

</svg>
