<?xml version="1.0" standalone="no"?>
<!DOCTYPE svg PUBLIC "-//W3C//DTD SVG 1.1//EN" "http://www.w3.org/Graphics/SVG/1.1/DTD/svg11.dtd" >
<svg xmlns="http://www.w3.org/2000/svg" xmlns:xlink="http://www.w3.org/1999/xlink" version="1.1" viewBox="-10 0 2524 2048">
  <g transform="scale(1, -1)"  transform-origin="center">
   <path fill="currentColor"
d="M2405 806v-133h-832q53 -86 53 -151q0 -86 -52.5 -131.5t-155.5 -45.5q-39 0 -81 14v-214h1077v-40h-225v-170h225v-40h-225v-170h225v-40h-2295v40h230v170h-230v40h230v170h-230v40h1098v274q-61 39 -132.5 102.5t-119.5 115.5l-34 36h-351q-42 -54 -113 -90t-143 -36
q-73 0 -122 31.5t-75.5 83.5t-26.5 108q0 119 42.5 185.5t117.5 66.5q62 0 151.5 -65t156.5 -151h1837zM748 2038q114 0 232 -63l-18 -36l-22 3q-27 0 -61.5 -47t-69.5 -118.5t-35 -100.5q0 -21 24 -139l20 -108q42 -224 42 -325q0 -76 -18 -141t-45.5 -101.5t-55.5 -36.5
q-27 0 -55 36t-46 100.5t-18 142.5q0 101 42 325l20 108q24 118 24 139q0 22 -22 73t-56 106.5t-52.5 71t-35.5 15.5l-22 -3l-18 36q118 63 232 63h14zM1658 1156q125 0 213 -92t99 -230h-624q11 138 99 230t213 92zM214 766q7 -16 35 -53h2116v53h-2151zM1658 1116
q-102 0 -174 -67t-92 -175h531q-20 108 -91 175t-174 67zM741 881q27 0 53 70.5t26 152.5q0 93 -42 317l-37 200l-37 -200q-42 -224 -42 -317q0 -80 25 -151.5t54 -71.5zM389 -275h410v170h-410v-170zM1289 -275h410v170h-410v-170zM839 -275h410v170h-410v-170zM839 -65
h410v170h-410v-170zM1739 -275h410v170h-410v-170zM1289 -65h410v170h-410v-170zM389 -65h410v170h-410v-170zM1739 -65h410v170h-410v-170zM741 1722q32 78 72.5 145.5t76.5 103.5q-77 27 -149 27q-73 0 -149 -27q36 -36 76.5 -103.5t72.5 -145.5zM1563 490q0 32 -58 90.5
t-125 92.5h-43v-171q36 -24 68 -36.5t71 -12.5q38 0 62.5 10.5t24.5 26.5zM1556 433q-36 -19 -93 -19q-56 0 -126.5 37.5t-151 107t-111.5 114.5h-75q21 -21 49.5 -50t62 -61t71 -63.5t77 -57t80 -41t79.5 -15.5q96 0 138 48zM180 885q0 -31 22 -79h198q-66 70 -104 95
t-66 25q-50 0 -50 -41zM343 617q-67 0 -122 66t-75 159q-4 -30 -4 -58q0 -89 52.5 -143t134.5 -54q50 0 102.5 22.5t93.5 63.5h-53q-20 -25 -53.5 -40.5t-75.5 -15.5zM260 982q-41 0 -69 -30q21 9 51 9q35 0 101 -49t110 -106h63q-72 83 -141 129.5t-115 46.5zM1297 375
l-40 20v-250h40v230zM1257 560l40 -30v143h-40v-113zM1585 539q-6 28 -23 67t-36 67h-72q86 -65 131 -134zM1132 673q26 -28 85 -80v80h-85zM343 657q40 0 67 16h-124q24 -16 57 -16zM1238 1994q-99 0 -99 -48q0 -13 24 -24.5t52 -13.5q78 -7 78 -58q0 -22 -17 -67
q-15 -40 -15 -57q0 -26 24 -45t66 -19q54 0 188 13q133 13 199 13q201 0 304 -30.5t149 -103t46 -241.5l-4 -156q0 -96 32.5 -202t56.5 -106l2 3l-23 77q-31 105 -31 203q0 51 17 175q17 123 17 177q0 86 -47 147.5t-131.5 94t-194.5 32.5q-115 0 -229.5 -8.5t-232.5 -8.5
h-50q-100 0 -100 66q0 19 11 57q11 39 11 59q0 29 -28.5 50t-74.5 21zM1238 2034q42 0 74 -15t50.5 -41.5t18.5 -54.5q0 -19 -11 -60t-11 -56q0 -13 20 -19.5t90 -6.5q113 0 226 8.5t236 8.5q192 0 302.5 -84t110.5 -230q0 -52 -17 -182t-17 -170q0 -116 28 -200
q17 -49 17 -86q-2 -37 -33 -37q-40 0 -84.5 114.5t-44.5 233.5l4 150q0 153 -35 217t-137.5 94t-286.5 30q-66 0 -191 -13t-196 -13q-58 0 -94 30t-36 74q0 24 14 57q15 35 15 48q0 35 -45 39t-75.5 25t-30.5 49q0 90 139 90z" />
  </g>

</svg>
