<?xml version="1.0" standalone="no"?>
<!DOCTYPE svg PUBLIC "-//W3C//DTD SVG 1.1//EN" "http://www.w3.org/Graphics/SVG/1.1/DTD/svg11.dtd" >
<svg xmlns="http://www.w3.org/2000/svg" xmlns:xlink="http://www.w3.org/1999/xlink" version="1.1" viewBox="-10 0 2029 2048">
  <g transform="matrix(1 0 0 -1 0 1638)">
   <path fill="currentColor"
d="M955 668q207 89 412 102v861q77 37 124.5 85t47.5 98q0 45 -22 71t-60 26q-44 0 -65.5 -21.5t-21.5 -50.5q0 -40 18 -83l-183 -93l-66 120l95 47l-2 19q0 62 30.5 107t81.5 69.5t113 24.5q99 0 160 -65.5t61 -170.5q0 -88 -46.5 -160t-125.5 -106v-778q206 -13 413 -102
v-554q-97 -36 -165 -54t-150 -30.5t-167 -12.5q-84 0 -160 11.5t-145 28.5t-177 57v554zM1879 640q-101 39 -158.5 54t-124 26t-139.5 13v-676q107 1 220 24.5t202 59.5v499zM995 142q219 -82 422 -85v676q-98 -3 -201.5 -24.5t-220.5 -68.5v-498zM1451 773l15 -1v804
q6 2 33.5 18.5t58.5 46.5t55.5 73t24.5 100q0 85 -52 140.5t-129 55.5q-74 0 -129.5 -42.5t-55.5 -99.5q0 -32 5 -60l-84 -42l28 -49l121 61q-12 24 -12 61q0 49 36 80.5t91 31.5q54 0 88 -35.5t34 -101.5q0 -62 -48.5 -119t-123.5 -93v-830l15 1h29zM249 217
q93 -19 169 -49t145.5 -94t98.5 -134l-25 -29q-170 31 -271.5 107.5t-140.5 168.5zM455 479q93 -19 169 -49t145.5 -94t98.5 -134l-25 -29q-170 31 -271.5 107.5t-140.5 168.5zM124 -59q93 -19 169 -49t145.5 -94t98.5 -134l-25 -29q-170 31 -271.5 107.5t-140.5 168.5z
M274 177q30 -66 120 -129.5t182 -86.5l37 -10q-14 32 -42 63t-74 64t-82.5 51t-140.5 48zM480 439q30 -66 120 -129.5t182 -86.5l37 -10q-14 32 -42 63t-74 64t-82.5 51t-140.5 48zM149 -99q30 -66 120 -129.5t182 -86.5l37 -10q-14 32 -42 63t-74 64t-82.5 51t-140.5 48z
" />
  </g>

</svg>
