<?xml version="1.0" standalone="no"?>
<!DOCTYPE svg PUBLIC "-//W3C//DTD SVG 1.1//EN" "http://www.w3.org/Graphics/SVG/1.1/DTD/svg11.dtd" >
<svg xmlns="http://www.w3.org/2000/svg" xmlns:xlink="http://www.w3.org/1999/xlink" version="1.1" viewBox="-10 0 2610 2048">
  <g transform="matrix(1 0 0 -1 0 1638)">
   <path fill="currentColor"
d="M1074 833l-514 594q107 214 107 251q0 43 -42.5 90t-105 78t-111.5 31q-54 0 -133 -97q-24 -29 -46.5 -51.5t-50.5 -22.5q-78 0 -78 78q0 47 47.5 113t117 109.5t137.5 43.5q90 0 193.5 -54.5t171.5 -142.5t68 -173q0 -78 -71 -231l394 -456q141 256 303 511h200
q82 -97 224 -328t269 -475q83 -175 225 -513v-1l29 -67q28 -68 91 -288q0 -37 -26 -80t-61 -70h-131q-37 0 -95 21q-59 20 -79 20q-36 0 -110 -19q-82 -21 -120 -22h-327v141q240 55 384 114t144 124q0 46 -118 220q-145 210 -167 252q-145 265 -173 320.5t-38 81.5l-27 -62
q-58 -132 -130 -277.5t-122.5 -222.5t-214.5 -294q-10 -55 -10 -91q0 -46 31 -156q-6 -40 -24 -77t-63 -73h-111q-37 0 -95 21q-59 20 -79 20q-36 0 -110 -19q-82 -21 -120 -22h-327v141q372 92 471 158q59 38 129.5 170.5t198.5 473.5q31 82 95 208zM2121 48
q0 -38 -43 -74.5t-107.5 -63.5t-163 -57.5t-219.5 -60.5v-70l274 1q41 0 124 20q87 20 121 20q27 0 89 -20q61 -21 92 -21h104q55 41 65 113q-62 203 -90 275q-9 21 -26 62t-38.5 92.5t-46.5 110t-50 115t-48 107t-40 86.5q-70 147 -220 399t-255 382h-160
q-33 -49 -135.5 -219.5t-167.5 -291t-108 -212.5t-88 -218q-78 -207 -122 -302t-87.5 -163t-87.5 -101t-159 -73.5t-310 -91.5v-70l274 1q41 0 124 20q87 20 121 20q27 0 89 -20q61 -21 92 -21h84q19 14 40 44.5t25 68.5q-7 25 -18 78t-11 75q0 42 14 108q187 247 245 342
q59 105 134.5 261.5t116.5 252.5l11 26l-1 2h46q16 -43 108.5 -218t115.5 -209l89 -136q114 -172 140 -213.5t45 -86t19 -69.5zM1138 956l-422 488q79 150 79 236q0 76 -59 152t-153 127t-181 51q-59 0 -119 -36.5t-101.5 -93.5t-41.5 -96q0 -38 38 -38q13 0 29 18t36 42
l33 39q61 72 132 72q57 0 131 -39.5t121 -94.5t47 -105q0 -37 -99 -246l485 -560z" />
  </g>

</svg>
