<?xml version="1.0" standalone="no"?>
<!DOCTYPE svg PUBLIC "-//W3C//DTD SVG 1.1//EN" "http://www.w3.org/Graphics/SVG/1.1/DTD/svg11.dtd" >
<svg xmlns="http://www.w3.org/2000/svg" xmlns:xlink="http://www.w3.org/1999/xlink" version="1.1" viewBox="-10 0 2045 2048">
  <g transform="matrix(1 0 0 -1 0 1638)">
   <path fill="currentColor"
d="M1249 553h-17l-347 -74l-451 -209l86 -107l729 41v349zM1520 67l-148 18l-119 86l-754 -43l-102 124q-59 -31 -59 -85q0 -58 40 -92.5t112 -34.5q42 0 111.5 8t510.5 72l270 -82h138v29zM851 502l-325 359l-49 -111l121 -362zM1136 1579q64 85 86.5 135t22.5 92
q0 44 -35 79.5t-91 56t-112 20.5q-117 0 -145 -88l160 -92q26 21 49 21q26 0 41 -19.5t15 -42.5q0 -20 -31 -65l-29 -36zM495 876q-21 12 -54 12q-40 0 -64.5 -28.5t-24.5 -76.5q0 -9 1.5 -20t117.5 -437l90 44l-124 378zM340 56q-18 20 -29 46l-24 -17l-148 -18v-29h138z
M949 1728l-48 -5q-41 0 -71 26q6 8 23 13.5t31 5.5q23 0 37 -9t28 -31zM1693 1243l98 438l103 190l-12 12l-71 -75l-16 6l-4 90l65 94l-14 12l-80 -95l-16 -78l2 -131l-138 -351l-487 77v113l-100 85q55 76 61.5 88.5t6.5 19.5q0 29 -23 29q-22 0 -42 -26l-175 99l-82 -186
l39 -2l42 -113l92 30l31 -134l-478 -80l-138 351l2 131l-16 78l-80 95l-14 -12l65 -94l-4 -90l-16 -6l-71 75l-12 -12l103 -190l98 -438l409 8l116 -531l-34 -202l304 67l26 338l92 328zM1243 588l41 -5v-389l102 -72l173 -30v-92h-182l-278 78l-404 -59q-127 -19 -208 -19
q-63 0 -109 27l-96 -27h-182v92l173 30l28 20l-1 11v11q0 82 136 146l-110 400q-4 13 -7.5 35.5t-4.5 37.5q0 62 35.5 103.5t93.5 41.5q30 0 63 -13.5t56 -39.5l307 -345l30 188l-109 493l-410 -9l-97 469l-113 215l48 35l62 -63l-2 54l-68 98l54 41l109 -123l24 -87
l-6 -125l129 -320l411 69l-15 59l-83 -29l-49 129l-64 3l102 226l4 27q15 58 57 89t122 31q118 0 198 -57t80 -146q0 -47 -25 -98t-97 -146v-88l424 -69l129 320l-6 125l24 87l109 123l54 -41l-68 -98l-2 -54l62 63l48 -35l-113 -215l-97 -469l-374 9l-83 -298z" />
  </g>

</svg>
