<?xml version="1.0" standalone="no"?>
<!DOCTYPE svg PUBLIC "-//W3C//DTD SVG 1.1//EN" "http://www.w3.org/Graphics/SVG/1.1/DTD/svg11.dtd" >
<svg xmlns="http://www.w3.org/2000/svg" xmlns:xlink="http://www.w3.org/1999/xlink" version="1.1" viewBox="-10 0 1718 2048">
  <g transform="matrix(1 0 0 -1 0 1638)">
   <path fill="currentColor"
d="M581 1560l-71 -51l-100 69l-42 -34l-84 225l-16 24q-20 36 -20 73q0 70 73.5 127t155.5 57q72 0 127.5 -48.5t78.5 -153.5l21 -113l45 -16q36 9 59 9q83 0 133 -31q72 -46 251 -200t208 -192q91 -38 132 -94t41 -139q0 -24 -15 -79q-25 -92 -25 -176l3 -98
q71 -291 71 -544q0 -98 -12 -175h-339v106l136 28q73 15 73 58l-3 26l-123 428l-10 73h-213l-228 -719h-304v106l137 28q28 6 45 27.5t26 70.5l81 290l-8 103l34 94h-33l259 428l-300 136l-31 -296l-217 -380l-53 11l5 79l-42 -33l-29 -107l-57 3l19 148l48 72l77 56l88 166
l-355 -362l-44 17l20 79l-46 -25l-49 -99l-59 15l47 141l62 59l105 32l188 211l39 214q20 111 37.5 143t63.5 76l20 19zM687 1333l-25 -357l-81 -146l-88 -71l-48 -59l-17 -112h16l28 101l70 56l16 -8l-7 -93l12 -1l197 354l28 342l368 -161l193 127q-134 119 -256.5 220.5
t-164.5 130.5t-106 29q-33 0 -69 -8l-72 28l-119 9l-12 75q-9 54 -34 54q-19 0 -19 -28v-8l1 -9l-180 -24l65 -173l24 17l98 -67l75 53l138 -79l-44 -46q-62 -69 -75 -112t-56 -308l-194 -214l-121 -40l-59 -51l-35 -106l17 -3l46 90l80 44l14 -10l-25 -92l11 -2l350 372
l21 289zM1494 759l-1 67q0 28 3.5 60.5t21.5 101.5q15 56 15 82q0 65 -37 121.5t-116 84.5l-1 1l-212 -140l-231 -378h558zM865 44l215 675h-143l-36 -100l5 -102l-83 -299q-19 -102 -99 -120l-102 -21v-33h243zM1369 719l10 -71l121 -427q4 -13 4 -34q0 -68 -108 -89
l-102 -21v-33h267q10 65 10 146q0 110 -20.5 252t-55.5 277h-126zM666 1742l-21 105q-17 73 -59 116t-97 43q-76 0 -137.5 -47t-61.5 -106q0 -19 9 -40l165 19q5 51 44 51q32 0 51 -27t24 -71l4 -34zM377 1697h-7q-5 0 -5 4q0 27 20 45.5t44 18.5q15 0 38 -9
q-43 -59 -90 -59z" />
  </g>

</svg>
