<?xml version="1.0" standalone="no"?>
<!DOCTYPE svg PUBLIC "-//W3C//DTD SVG 1.1//EN" "http://www.w3.org/Graphics/SVG/1.1/DTD/svg11.dtd" >
<svg xmlns="http://www.w3.org/2000/svg" xmlns:xlink="http://www.w3.org/1999/xlink" version="1.1" viewBox="-10 0 1797 2048">
  <g transform="matrix(1 0 0 -1 0 1638)">
   <path fill="currentColor"
d="M216 556l-4 88l185 95h77l327 -64q-48 186 -48 294q0 60 21 123l116 324v42q-8 21 -35 38t-78 17q-57 0 -141 11q-28 5 -61.5 42.5t-41.5 72.5l-2 27q0 87 73 126l106 45l4 8l20 27q24 15 60 24q13 60 47.5 100t79.5 40q39 0 64 -5q27 10 89 10q81 0 150 -33t109 -93.5
t40 -136.5q0 -96 -23 -251q-15 -95 -15 -130q0 -52 17.5 -119t38.5 -139q23 -78 43 -155t20 -141v-288q0 -115 28 -257.5t68 -252.5q-8 62 -49 257q-28 128 -28 224q0 59 26.5 140t68 142t72.5 61q47 0 47 -47q0 -43 -42 -113q-52 -104 -52 -238l8 -58q23 -137 47 -297.5
t24 -203.5q0 -347 -358 -347q-85 0 -166 47.5t-135 127.5l-400 545q18 -168 18 -269q0 -97 -18 -270l22 -42v-139h-113l-32 34h-22l-69 -34h-299v95l255 58l75 56v24l1 15q-73 258 -111 436.5t-35 302.5v27zM371 577l7 19l60 23l-4 12l-108 -38l-1 -23v-18
q0 -158 48.5 -363.5t97.5 -370.5l-1 -64l-99 -71l-231 -54v-24h249l69 31h46l35 -31h56v89l-24 45q20 157 20 277q0 91 -27 349l31 12l451 -614q49 -72 120.5 -115t147.5 -43q318 0 318 307q0 58 -62 437l-17 122q0 77 13 136t43 120q38 68 38 95q0 7 -7 7q-19 0 -51.5 -55
t-54 -126t-21.5 -122q0 -41 7 -97.5t34 -182.5q39 -161 39 -287q0 -115 -29 -203l-40 12q25 55 25 160v21l-11 47q-52 118 -88 277t-36 282v288q0 76 -39 209q-55 187 -67.5 242t-12.5 103q0 36 15 136q23 155 23 245q0 98 -75 160.5t-184 62.5q-40 0 -64 -8l6 -10
q8 -12 14 -32.5t6 -40.5v-8h-34v6q0 36 -22.5 62t-58.5 26q-32 0 -55 -29.5t-40 -108.5q-54 -4 -66 -16q-6 -4 -11 -16l1 1q-5 -8 -9 -15t-15 -13q-104 -37 -129.5 -62t-25.5 -65v-8l18 -1h18q139 0 212 30l14 -38q-77 -32 -226 -32h-28q11 -23 29.5 -40.5t32.5 -18.5
q77 -11 136 -11t100 -23.5t53 -69.5l-1 -51l-117 -329q0 -1 -3 -12t-6.5 -27.5t-6.5 -35.5t-3 -36q0 -99 51 -303l172 -33q-10 68 -10 191q0 179 29 255l38 -14q-27 -67 -27 -241q0 -148 21 -243l-600 118h-59l-161 -75l1 -18l180 61l36 -10l14 -54l-62 -26l9 -22l98 39h49
q143 -55 310 -108.5t237 -53.5q52 0 72.5 47t21.5 154v354h40v-354q0 -125 -30 -183t-104 -58q-127 0 -551 164h-42l-108 -40l-25 7zM1086 1888q21 34 48.5 59t48.5 25q30 0 54 -42t24 -97q0 -35 -17 -68.5t-43.5 -53.5t-49.5 -20q-25 0 -43 11l-19 12l26 30l9 -7
q15 -6 23 -6q24 0 49 31.5t25 70.5q0 28 -12.5 59t-23.5 40q-25 -5 -65 -66zM862 1873q9 17 24.5 30t31.5 13q33 0 77 -51q-28 -16 -51 -16q-34 0 -82 24z" />
  </g>

</svg>
