<?xml version="1.0" standalone="no"?>
<!DOCTYPE svg PUBLIC "-//W3C//DTD SVG 1.1//EN" "http://www.w3.org/Graphics/SVG/1.1/DTD/svg11.dtd" >
<svg xmlns="http://www.w3.org/2000/svg" xmlns:xlink="http://www.w3.org/1999/xlink" version="1.1" viewBox="-10 0 2473 2048">
  <g transform="matrix(1 0 0 -1 0 1638)">
   <path fill="currentColor"
d="M1666 733h-40q-118 0 -225 25t-192.5 81t-160.5 122l-407 24l-38 -22l-22 -137l-31 -104l-29 -36l-22 -109l-197 3l34 119l37 43l38 95l50 228q46 75 68 87l28 9l-50 12l-41 -14l-54 -124l-52 -96l-30 -34l-44 -93l-186 15l51 128l45 34l56 86l95 213q56 62 84 71l26 3
l47 -3l322 -58l-40 190l-21 44l-15 -30q-9 -18 -26.5 -35t-39.5 -17q-24 0 -39.5 16.5t-15.5 36.5q0 32 18.5 63t36.5 64l-89 39l-131 -9l-47 32l-66 23l22 92q179 157 212 175q35 21 80 37q43 86 53.5 122t13.5 78l42 -19q37 -83 37 -139l-2 -28q23 -2 42 -4.5t39 -17.5
q40 46 73 113l42 -22q10 -50 10 -91q0 -56 -19 -106l30 -60q86 -196 170 -301t183 -157q102 -53 223.5 -85.5t200.5 -47.5q228 -46 339 -159q17 0 51.5 19.5t46.5 42.5q40 78 40 147v11l-1 11q40 -32 62 -79.5t22 -97.5q0 -138 -174 -209q-25 -10 -39 -24t-38 -65l34 -121
l150 -201l-4 -192l17 -215l-11 -26l-8 -24l-12 -75h-197l25 94l43 59l-19 342l-37 38l31 -61q-13 -84 -13 -130l3 -61l-5 -127l-69 -75l-8 -79h-193l25 94l83 121l-4 98q-1 7 -2 21t-6 33.5t-17.5 44t-37.5 52.5q-47 54 -85 89t-65 63t-43.5 54.5t-20.5 62.5zM2323 1163
q0 37 -15 66q-6 -35 -32 -87q-16 -31 -64 -55.5t-85 -24.5l-10 2q-28 36 -82.5 64t-126 52t-301.5 82q-131 33 -245 91t-207 176t-160 281l-22 49l-27 -42l-33 23q50 70 62 157q-19 -55 -74 -117l-17 21q54 58 77 141q-52 -75 -101 -114l-24 31l29 26q-37 20 -69 20
q-52 0 -114.5 -21t-115 -61.5t-159.5 -133.5l-9 -45l21 -7q61 21 108 25l3 -33q-33 -4 -70 -15l17 -13l130 7l132 -54l81 -132l12 -50q21 -117 31 -161t24 -81q28 33 44 64l34 -20q-42 -72 -87 -108t-86 -39l-145 1q-85 -4 -100 -12q-17 -9 -52 -71l-40 -220l-44 -100
l-19 -23l93 -6l37 49l24 90l21 152l66 37l424 -23l90 58l22 -34l-76 -48q103 -86 170 -124t163.5 -59t199.5 -21h21l18 1q5 78 55 157l34 -22q-49 -75 -49 -148q0 -47 29.5 -90.5t104.5 -109.5q86 -76 115 -134.5t29 -108.5l4 -103l-59 -97l89 -5l49 58l7 112l-1 36l-1 16
l11 131l-83 166l14 84l73 180q28 68 95 92q68 24 105 73t37 102zM791 1167q32 2 67 32l-21 60l-335 60l-33 3l-27 -2q-19 -6 -65 -59l-84 -207l-63 -89l-24 -19l90 -24l41 45l42 83l56 140l72 23l189 -46h95zM2042 646l127 -134l18 -370l-19 -23l99 2l1 1l-16 218l4 180
l-146 195l-23 77l-35 -87zM626 1823l23 44l30 15l88 -45l-15 -30l-58 13l-43 -10zM2240 40l6 46l-100 -2l-13 -44h107zM741 1578l-20 38q-50 -83 -50 -107q0 -16 10 -16q6 0 16 8.5t17 22.5zM462 616l9 45l-94 8l-14 -51zM258 852l18 38l-98 27l-21 -56zM1994 40l5 38l-97 2
l-11 -40h103zM720 2037q24 4 49 4l1 11v12q0 32 -11 69q-14 -46 -38 -93zM501 1790l-49 -18l-8 30l51 12z" />
  </g>

</svg>
