<?xml version="1.0" standalone="no"?>
<!DOCTYPE svg PUBLIC "-//W3C//DTD SVG 1.1//EN" "http://www.w3.org/Graphics/SVG/1.1/DTD/svg11.dtd" >
<svg xmlns="http://www.w3.org/2000/svg" xmlns:xlink="http://www.w3.org/1999/xlink" version="1.1" viewBox="-10 0 2081 2048">
  <g transform="matrix(1 0 0 -1 0 1638)">
   <path fill="currentColor"
d="M828 1538h41v44l-76 6l-16 104l-48 6l65 142l-3 27v13q0 53 43 82.5t122 29.5q87 0 139 -49t52 -125q0 -62 -42 -126l-53 -80v-60l339 29l146 207l31 69l-11 21l13 36l-241 119l18 36l218 -108l-6 57l15 1q18 0 34.5 -8t22.5 -43l33 14l49 -19l32 -28l-1 -62l227 -112
l-18 -36l-217 107l-5 -14l-69 -53l-157 -321l-233 -44q-87 -7 -110 -88l-40 -138l-7 -72q58 -56 78 -101t20 -101q0 -37 -11 -72q-14 -41 -19 -95t-5 -72l4 -95q27 -97 43 -210.5t16 -207.5q0 -57 -6 -109l-11 -39h-286l-1 91l113 23q60 12 60 48v11l-2 11l-102 321l-9 61
h-123l-197 -566h-280v91l128 23q37 7 51 55l75 233l-7 86l202 595l-10 88l-52 134l-130 -299l-348 -97l-14 -18l-69 -48l-38 -8l-20 3l-58 48l-7 22l28 26l-26 22l71 70l44 17l71 1l261 87l104 284q45 123 175 123zM1686 1820l-59 5l-32 21l-22 -61l-152 -240l-369 -33
q-34 0 -34 43v62l-63 59l38 62q6 9 14.5 27.5t8.5 26.5q0 34 -27 34q-14 0 -25 -11h-147l-40 -93l27 -4l15 -104l84 -6v-105h-76q-48 0 -85.5 -23t-52.5 -64l-112 -312l-266 -86h-93l-43 -20l-39 -40l12 -11l41 33l55 8l50 -49l330 94l139 318l41 3l69 -186l7 -75l201 22
l6 71l40 148q24 99 138 108l205 40l159 300zM1174 898q0 53 -23 93t-66 88l-207 -21l-151 -456h414l-1 67q0 83 23 160q11 37 11 69zM659 40l179 526h-122l-30 -83l5 -85l-67 -214q-13 -49 -32.5 -72t-49.5 -28l-113 -17v-27h230zM1037 566l9 -59l100 -321l3 -28
q0 -59 -89 -74l-85 -17v-27h222q8 45 8 118q0 193 -63 408h-105zM1032 1646l44 68q30 46 30 98q0 62 -42.5 101.5t-107.5 39.5q-61 0 -93.5 -19.5t-32.5 -54.5l3 -29h133q10 10 31 10q26 0 40 -20t14 -42q0 -15 -6.5 -34t-16.5 -31l-34 -51zM1702 1846l6 35l2 45l-12 15
l-36 9l-45 -23l-22 -43l41 -30zM196 955l-65 -52l39 -32l22 -7l15 4l59 37l2 17l-33 33h-39zM916 1778q-24 -17 -48 -17q-45 0 -45 20q0 10 13 16t27 6q28 0 53 -25zM1607 1958q-1 4 -2 10.5t-3 12.5t-6 10.5t-11 4.5l5 -44z" />
  </g>

</svg>
