<?xml version="1.0" standalone="no"?>
<!DOCTYPE svg PUBLIC "-//W3C//DTD SVG 1.1//EN" "http://www.w3.org/Graphics/SVG/1.1/DTD/svg11.dtd" >
<svg xmlns="http://www.w3.org/2000/svg" xmlns:xlink="http://www.w3.org/1999/xlink" version="1.1" viewBox="-10 0 2818 2048">
  <g transform="matrix(1 0 0 -1 0 1638)">
   <path fill="currentColor"
d="M584 1917q34 0 66.5 -13.5t67.5 -45t113 -135.5l75 -22l60 39q45 30 122 30q42 0 92 -10.5t122 -42.5q228 -102 318 -120q43 -9 202 -18q168 -10 219 -19q194 -34 194 -233q0 -134 -310 -599l31 -15q71 -6 166.5 -21.5t164 -30t280.5 -88.5l71 -1l70 -70l-20 -327h-89
q-31 146 -43 187t-19 47q-11 7 -80 20t-113 17l54 -50l74 -36l25 -63l-156 -239l-103 -57h-140l-10 82l106 23l45 50l16 124l-431 238q-91 43 -144.5 103t-53.5 122q0 63 64 205.5t133 249.5q-84 -6 -152 -6q-126 0 -300 24l-278 39q0 -119 -14 -244.5t-43 -196.5t-66 -78
q-116 -25 -545 -61l-39 21h-43l-27 -30l-59 -1v-171h-51v184l-42 19l-20 19l-24 103l25 27v35l61 14v91l-7 1l-68 39l-17 22l-14 94l14 28l18 2l1 38l73 12v203q0 111 31 166.5t115 88.5l6 22q29 96 90.5 155.5t135.5 59.5zM1091 1734q-69 -2 -109 -31l-63 -46l-91 27
l-110 -71q-58 76 -69.5 87t-31.5 12q-10 0 -15 -10t-5 -20q0 -13 15 -34l-145 -139l155 -132l13 36l120 8l-2 97l155 -8l-13 -160v-57l2 -94l7 -250q0 -42 -35 -74t-89 -36l-346 -32l-99 50l-57 18l-97 -21v-17l-21 -26l17 -71l12 -11l59 -28h51l22 26l55 3l46 -20
q450 35 539 63q42 13 65.5 140.5t23.5 357.5l7 26l335 -48q145 -21 294 -21l204 4q-105 -171 -165.5 -300t-60.5 -189q0 -24 9 -47t32 -49.5t58.5 -50t536.5 -297.5l-35 -171l-63 -53l-72 -14l3 -25h96l86 50l137 209l-17 42l-42 18l-83 71l-123 102q-74 55 -165 108
t-152 76q134 202 229 375.5t95 239.5q0 173 -159 195q-84 12 -191 17.5t-230 26.5q-81 13 -309 112q-88 38 -114.5 44t-53 9t-46.5 3zM257 1227l87 -28l71 -59l453 -151l-8 288l2 85l7 113l-80 5l4 -88l-138 -10l-21 -60l-187 163l-25 11q-73 45 -77 125q-44 -23 -60 -46
t-22 -61.5t-6 -97.5v-189zM2624 211h32l15 277l-46 42l-62 4q-81 33 -137 52t-95.5 29.5t-146 30.5t-155.5 25q72 -41 130 -78t140 -109q72 -5 160 -20t102 -25q16 -12 63 -228zM799 1707q-78 104 -125.5 138.5t-91.5 35.5q-43 0 -87.5 -37t-76.5 -97.5t-32 -112.5
q0 -70 52 -105l134 127q-8 22 -8 36q0 24 14.5 40t43.5 16q14 0 25 -5.5t27.5 -22.5t46.5 -62zM776 873q40 4 63.5 26.5t28.5 51.5l-457 155l-86 67l-56 21l-12 -1v-24h7l56 -47l3 -79l35 4l35 -26q377 -147 381 -147zM278 911l79 -20l85 -50l250 24l-302 121l-47 28l-25 4
l-39 -39l-22 2v-75zM130 1143l10 -79l13 -13l64 -40l48 1l29 21l-7 81l-39 31zM548 1462q-5 10 -5 34q1 29 13.5 47t46.5 27q-7 -49 -18 -69.5t-37 -38.5zM156 1168l50 1v23l-53 -2z" />
  </g>

</svg>
