<?xml version="1.0" standalone="no"?>
<!DOCTYPE svg PUBLIC "-//W3C//DTD SVG 1.1//EN" "http://www.w3.org/Graphics/SVG/1.1/DTD/svg11.dtd" >
<svg xmlns="http://www.w3.org/2000/svg" xmlns:xlink="http://www.w3.org/1999/xlink" version="1.1" viewBox="-10 0 3552 2048">
  <g transform="matrix(1 0 0 -1 0 1638)">
   <path fill="currentColor"
d="M1411 264q-7 79 -36 226q-51 -70 -90.5 -154t-50.5 -131q-5 -23 -12.5 -72.5t-7.5 -69.5q0 -74 -63 -74q-20 0 -42 25q-20 -25 -43 -25q-19 0 -40 24q-22 -24 -47 -24q-19 0 -31 17l-12 17q-29 -34 -55 -34t-39.5 19t-13.5 45q0 23 44 105q70 116 83 158
q45 108 64.5 153.5t32.5 69.5t41.5 68.5t127.5 190.5q-41 26 -74 26q-72 0 -145 -44l-22 32q-151 -254 -286.5 -363.5t-284.5 -109.5q-43 0 -121.5 16.5t-123.5 33.5l-34 -5q-12 0 -21 9t-9 21q0 11 12 26q12 17 12 26t-5.5 26.5t-5.5 33.5q0 27 25 27q9 0 28 -14
q40 -32 81 -51t100 -19q88 0 178.5 109t158.5 285q-68 24 -140.5 81t-120 123.5t-47.5 99.5q0 44 34 44q13 0 45.5 -24.5t51.5 -43.5q30 -30 95.5 -72.5t120.5 -65.5q43 251 109 409.5t160 237t270 107.5q24 57 43.5 78t37.5 23q24 0 56 -22l18 -11q9 -5 44 -6q29 -2 39 -20
l1 -8v-8l2 -15l280 -4q168 0 610 27q171 -5 321 -63t272 -163.5t212 -254t124 -296.5q46 -210 65 -363q28 -80 41.5 -147t13.5 -111q0 -108 -80 -108q-60 0 -92.5 89t-33.5 202q0 65 10 128q-10 129 -42 267.5t-85.5 252.5t-114.5 176l44 -71q72 -119 72 -273
q0 -43 -25 -196q-32 -187 -44 -318t-12 -241q0 -60 39 -171v1q18 -52 18 -70q0 -27 -15 -50.5t-53 -23.5q-20 0 -42 25q-20 -25 -48 -25q-23 0 -50 24q-22 -24 -52 -24q-19 0 -38 17l-18 17q-29 -34 -60 -34q-26 0 -39.5 19t-13.5 45q0 17 19 67q37 91 37 144q-4 56 -59 384
q-117 -242 -177 -380q-8 -19 -15 -35.5t-10 -33t-3 -32.5q0 -17 6 -35v1q18 -52 18 -70q0 -27 -15 -50.5t-53 -23.5q-20 0 -42 25q-20 -25 -48 -25q-23 0 -50 24q-22 -24 -52 -24q-19 0 -38 17l-18 17q-29 -34 -60 -34q-26 0 -39.5 19t-13.5 45q0 39 59 150l43 84
q14 34 34 84.5t39.5 101t36 94t24.5 63.5q-167 7 -451 50q-25 -41 -67 -41q-15 0 -28 6l-15 -76q-22 -106 -22 -266q0 -60 39 -171v1q18 -52 18 -70q0 -74 -63 -74q-20 0 -42 25q-20 -25 -43 -25t-50 24q-22 -24 -47 -24q-19 0 -38 17l-18 17q-29 -34 -55 -34t-39.5 19
t-13.5 45q0 17 19 67q37 91 37 144zM913 974q69 0 130 8q11 15 24.5 32t26.5 17q17 0 22 -10.5t5 -30.5q0 -12 -39 -67.5t-68 -91.5q18 10 61 21t72 11q37 0 83.5 -26t76.5 -58l-25 82l39 17q15 -38 50.5 -178.5t57.5 -259.5t22 -175q0 -57 -39 -159q-17 -44 -17 -53
q0 -24 13 -24t45 55l29 2q20 -57 37 -57q11 0 20.5 18.5t18.5 35.5l22 1q21 -55 36 -55q9 0 28 37l10 17l19 1q21 -55 28 -55q23 0 23 34l-8 26q-49 119 -49 214q0 83 6 148.5t34 220.5l-21 27l26 19q12 -17 30.5 -31t32.5 -14q20 0 37.5 35t28.5 101l35 -2q-6 -51 -19 -89
q42 -7 215.5 -28t248.5 -21q107 0 328 41q-27 85 -76 170.5t-101 139.5l28 28q154 -158 197 -369q58 -292 66 -414q0 -24 -6 -53t-33 -106q-17 -44 -17 -53q0 -24 13 -24q18 0 50 55l29 2q20 -57 37 -57q6 0 14.5 8t29.5 46l22 1q21 -55 36 -55q9 0 43 54l19 1
q21 -55 28 -55q28 0 28 34q0 9 -29 98q-28 82 -28 142q0 178 19 319.5t37 245.5q25 139 25 190q0 90 -28 177.5t-105 204.5l44 32q84 -95 157.5 -237t96.5 -258q32 -163 41 -276q-10 -56 -10 -118q0 -64 13 -129t29 -96t44 -31q37 0 39 64q0 55 -15 132t-39 122
q-8 101 -58 332t-188 411.5t-324.5 271.5t-405.5 91l-131 -5l-331 -18l-124 -1l-258 2q14 -17 30 -28q11 -11 11 -20v-5l-20 -47l23 -27q25 -27 30 -36.5t5 -18.5q0 -13 -24 -73l-5 -18q0 -11 21 -48q19 -34 19 -48q0 -13 -26 -39q-17 -14 -18 -24q0 -5 21 -26
q29 -35 29 -52q0 -11 -6.5 -20.5t-44.5 -34.5q-25 -14 -27 -20v-1l5 -11q18 -28 18 -51q0 -17 -16.5 -34.5t-59.5 -21.5q-50 -6 -77 -39q-15 -16 -32.5 -28.5t-45.5 -12.5h-5q-26 1 -44.5 49t-24.5 128q-3 37 -27.5 78.5t-56.5 86.5l32 24q35 -50 61.5 -96t30.5 -91
q9 -90 15.5 -114.5t18.5 -24.5q15 0 26 9t22 20q41 45 103 51q13 2 25 3.5t17 14.5l1 3l-4 8q-21 30 -21 53q0 12 8 22t59 44l10 8q-1 7 -9.5 13t-15.5 15q-8 11 -16.5 23.5t-8.5 25.5q0 22 18 39l26 23q0 5 -14 28q-26 46 -26 68q0 18 18 57q11 25 11 31v2l-47 52
q-11 12 -11 23t6.5 27t17.5 24q-18 11 -36.5 33t-24.5 66l-3 15l-32 -2q-38 0 -69 27q-11 9 -20 9q-20 0 -40 -56q-16 -46 -135 -331l-36 16l111 266q-90 -16 -153 -46.5t-108.5 -81t-82.5 -124.5t-70 -178.5t-70 -293.5l19 -5q51 -12 131 -12zM2632 665q-187 -36 -300 -36
l-136 -341q-12 -30 -43 -91q-33 -65 -42 -91t-17 -53q0 -24 13 -24q18 0 50 55l29 2q20 -57 37 -57q6 0 14.5 8t29.5 46l22 1q21 -55 36 -55q9 0 43 54l19 1q21 -55 28 -55q28 0 28 34q0 10 -16 56q-9 25 -9 49q0 40 29 100q107 228 185 397zM1364 541q-22 105 -39 167
q-29 32 -68 65l-16 -22q-60 -81 -106.5 -150t-55.5 -89l-89 -214q-14 -44 -39 -82q-38 -58 -57 -99.5t-26 -63.5q0 -24 13 -24t45 55l29 2l10 -38q4 -19 14 -19q11 0 20.5 18.5t18.5 35.5l22 1q7 -18 11.5 -36.5t14.5 -18.5q9 0 28 37l10 17l19 1q21 -55 28 -55q23 0 23 34
q0 11 7 58t16.5 90.5t47 125.5t76.5 140zM409 379q96 0 181 47.5t163.5 132t195.5 270.5q-138 0 -226 23q-44 -114 -107.5 -213t-131.5 -154.5t-137 -55.5q-41 0 -78 11.5t-112 55.5l5 -15l2 -15q0 -13 -4 -19t-9 -15q89 -30 130.5 -38.5t72.5 -11.5t55 -3zM422 1165
q-6 0 -6 -6q0 -21 57.5 -92t126.5 -118t156 -63.5t183 -16.5h50l35 42l20 30q-84 -7 -131 -7q-98 0 -163.5 19.5t-149 72t-118.5 88.5q-51 51 -60 51zM933 1207q0 62 42 121t99 85l16 -37l-7 -3q8 -20 8 -47q0 -49 -25.5 -74t-67.5 -26l-24 -1l-1 -9v-9h-40zM1042 1343
q-39 -34 -56 -76q43 0 56 23q6 13 6 26q-1 13 -6 27z" />
  </g>

</svg>
