<?xml version="1.0" standalone="no"?>
<!DOCTYPE svg PUBLIC "-//W3C//DTD SVG 1.1//EN" "http://www.w3.org/Graphics/SVG/1.1/DTD/svg11.dtd" >
<svg xmlns="http://www.w3.org/2000/svg" xmlns:xlink="http://www.w3.org/1999/xlink" version="1.1" viewBox="-10 0 2514 2048">
  <g transform="matrix(1 0 0 -1 0 1638)">
   <path fill="currentColor"
d="M100 328q265 250 555.5 399t543.5 149q149 0 284.5 -36t265.5 -100.5t336 -206.5q91 -63 169 -111t150 -62l-8 -40q-78 14 -207 96q-34 -11 -275 -75.5t-427.5 -100.5t-273.5 -36q-83 0 -259 28t-420.5 81t-313.5 72q-67 -58 -96 -90zM906 539q0 -121 85.5 -206.5
t206.5 -85.5t206.5 85.5t85.5 206.5t-85.5 206.5t-206.5 85.5t-206.5 -85.5t-85.5 -206.5zM2063 500q-189 129 -284 179t-197 88t-212 55q72 -44 116 -118t44 -165q0 -84 -40.5 -158.5t-111.5 -120.5q286 46 768 184l-83 57v-1zM866 539q0 88 41 160t109 117
q-174 -36 -366 -136.5t-391 -262.5q148 -37 378 -85t377 -69q-67 45 -107.5 117t-40.5 159zM179 219q73 41 137 41q25 0 67 -11.5t102 -28.5q254 -73 420.5 -98.5t323.5 -25.5q165 0 492 84l353 91q93 23 134 23q71 0 174 -41l-9 -40q-27 15 -76.5 28t-98.5 13
q-39 0 -204 -44q-320 -85 -493 -119.5t-272 -34.5q-120 0 -234.5 14t-222.5 36.5t-297 75.5q-54 15 -95.5 26.5t-63.5 11.5q-48 0 -114 -33z" />
  </g>

</svg>
