<?xml version="1.0" standalone="no"?>
<!DOCTYPE svg PUBLIC "-//W3C//DTD SVG 1.1//EN" "http://www.w3.org/Graphics/SVG/1.1/DTD/svg11.dtd" >
<svg xmlns="http://www.w3.org/2000/svg" xmlns:xlink="http://www.w3.org/1999/xlink" version="1.1" viewBox="-10 0 1849 2048">
  <g transform="matrix(1 0 0 -1 0 1638)">
   <path fill="currentColor"
d="M1351 583v-389l102 -72l173 -30v-92h-182l-278 78l-404 -59q-127 -19 -208 -19q-63 0 -109 27l-96 -27h-182v92l173 30l28 20l-1 11v11q0 82 136 146l-110 400q-4 13 -7.5 35.5t-4.5 37.5q0 62 35.5 103.5t93.5 41.5q30 0 63 -13.5t56 -39.5l307 -345l30 188l-62 496
l-236 -208l-60 -3l-502 487l32 44l81 -35l-19 52l-100 66l26 51l148 -73l55 -73l28 -89l241 -227l127 125l44 47q89 98 166 117l111 26l-13 53l-83 -29l-49 129l-64 3l102 226l4 27q15 58 57 89t122 31q118 0 198 -57t80 -146q0 -47 -25 -98t-97 -146v-78l210 -50
q33 -7 54.5 -31t29.5 -55l167 -525l-69 -84l-335 133l-25 -325zM1658 821l41 52l-151 469q-15 50 -30 70.5t-35 26.5l-243 61v95l-100 85q55 76 61.5 88.5t6.5 19.5q0 29 -23 29q-22 0 -42 -26l-175 99l-82 -186l39 -2l42 -113l92 30l31 -125l-157 -34q-45 -9 -141 -109
l-189 -192l-266 243l-38 107l-45 66l-109 58l-7 -15l95 -64l30 -85l-13 -11l-95 43l-7 -10l467 -448h38l279 242l72 -565l-34 -202l304 67l26 338l-295 127l17 51l87 -8l-34 44l-98 25l9 57l146 -17l75 -53l42 -79l68 -23l81 227l42 -3l156 -321l-11 -18l-348 107l-54 89
l-63 48l-105 16l-2 -17l93 -25l55 -72l-9 -14l-104 11l-3 -11l275 -112zM1316 553h-17l-347 -74l-451 -209l86 -107l729 41v349zM1587 67l-148 18l-119 86l-754 -43l-102 124q-59 -31 -59 -85q0 -58 40 -92.5t112 -34.5q49 0 115 6t515 67l262 -75h138v29zM918 502l-325 359
l-49 -111l121 -362zM1253 1629q64 85 86.5 135t22.5 92q0 44 -35 79.5t-91 56t-112 20.5q-117 0 -145 -88l160 -92q26 21 49 21q26 0 41 -19.5t15 -42.5q0 -20 -31 -65l-29 -36zM562 876q-21 12 -54 12q-40 0 -64.5 -28.5t-24.5 -76.5q0 -9 1.5 -20t117.5 -437l90 44
l-124 378zM1551 980l-133 256l-66 -198zM407 56q-18 20 -29 46l-24 -17l-148 -18v-29h138zM1066 1778l-48 -5q-41 0 -71 26q6 8 23 13.5t31 5.5q23 0 37 -9t28 -31z" />
  </g>

</svg>
