<?xml version="1.0" standalone="no"?>
<!DOCTYPE svg PUBLIC "-//W3C//DTD SVG 1.1//EN" "http://www.w3.org/Graphics/SVG/1.1/DTD/svg11.dtd" >
<svg xmlns="http://www.w3.org/2000/svg" xmlns:xlink="http://www.w3.org/1999/xlink" version="1.1" viewBox="-10 0 1637 2048">
  <g transform="scale(1, -1)" transform-origin="center">
   <path fill="currentColor"
d="M731 1372q0 -51 -49 -66l-14 32q23 12 23 28l-4 16q-144 -20 -159 -20q-63 0 -97 51q-145 -86 -218 -221.5t-73 -310.5q0 -106 40 -209t118.5 -193t160.5 -145l275 124l-1 24q0 96 61 246q62 156 62 249v17l-127 146l228 350l-23 84l-83 -29l-49 129l-64 3l102 226l4 27
q15 58 57 89t122 31q147 0 209.5 -56.5t69.5 -196.5l40 -759h-74l-53 -234l-4 -216l41 -5v-389l102 -72l173 -30v-92h-182l-278 78l-404 -59q-127 -19 -202 -19q-90 0 -141.5 45t-51.5 120q0 52 37.5 86t110.5 64q-152 114 -234 261t-82 305q0 186 81 333.5t233 233.5
q-7 20 -7 39q0 51 41 92l102 93q-9 18 -24 18q-11 0 -23 -6l-15 33q20 14 40 14q55 0 129 -147t74 -212zM775 1141l126 -139q-1 -63 -21 -129t-44 -132.5t-44.5 -133.5t-21.5 -131l405 109l5 229l51 224h-237l47 642q55 76 61.5 88.5t6.5 19.5q0 29 -23 29q-22 0 -42 -26
l-175 99l-82 -186l39 -2l42 -113l92 30l36 -134zM1043 1078h257l-34 616q-3 61 -7 118t-25 101.5t-69 71.5t-140 27q-117 0 -145 -88l160 -92q26 21 49 21q26 0 41 -19.5t15 -42.5q0 -13 -11 -32.5t-58 -82.5zM1217 553h-17l-396 -109l-402 -174l86 -107l729 41v349z
M1488 67l-148 18l-119 86l-754 -43l-102 124q-59 -31 -59 -85q0 -58 40 -92.5t112 -34.5q42 0 111.5 8t510.5 72l270 -82h138v29zM526 1403h20l133 24q-34 91 -49.5 122t-51.5 88l-102 -87q-29 -29 -29 -66q0 -32 23 -56t56 -25zM967 1778l-48 -5q-41 0 -71 26q6 8 23 13.5
t31 5.5q23 0 37 -9t28 -31z" />
  </g>

</svg>
