<?xml version="1.0" standalone="no"?>
<!DOCTYPE svg PUBLIC "-//W3C//DTD SVG 1.1//EN" "http://www.w3.org/Graphics/SVG/1.1/DTD/svg11.dtd" >
<svg xmlns="http://www.w3.org/2000/svg" xmlns:xlink="http://www.w3.org/1999/xlink" version="1.1" viewBox="-10 0 1769 2048">
  <g transform="matrix(1 0 0 -1 0 1638)">
   <path fill="currentColor"
d="M979 1521l-13 53l-83 -29l-49 129l-64 3l102 226l4 27q15 58 57 89t122 31q118 0 198 -57t80 -146q0 -47 -25 -98t-97 -146v-78l210 -50q33 -7 54.5 -31t29.5 -55l154 -529l-73 -360v-200l-85 -27v-28l-85 -18v156l31 88l30 388l-126 377l-83 -323l-25 -325l41 -5v-389
l102 -72l173 -30v-92h-182l-278 78l-404 -59q-127 -19 -208 -19q-63 0 -109 27l-96 -27h-182v92l173 30l28 20l-1 11v11q0 82 136 146l-110 400q-4 13 -7.5 35.5t-4.5 37.5q0 62 35.5 103.5t93.5 41.5q30 0 63 -13.5t56 -39.5l307 -345l30 188l-118 510l-534 -190l-67 43
l-17 73l384 479l76 36h171l28 -78l-37 -74l-165 -21q-49 -66 -173 -222l235 136q69 57 186 85zM937 720l-34 -202l304 67l26 338l92 351l48 -3l144 -414l-36 -390l-33 -87v-115l26 5v31l71 23v163l74 382l-138 473q-15 50 -30 70.5t-35 26.5l-243 61v95l-100 85
q55 76 61.5 88.5t6.5 19.5q0 29 -23 29q-22 0 -42 -26l-175 99l-82 -186l39 -2l42 -113l92 30l31 -125l-157 -34q-45 -9 -91.5 -31t-67.5 -48l-312 -165l-14 26l218 287l161 19v2l20 43l-7 20l-8 22h-132l-55 -32l-50 -63l-320 -391l5 -42l49 -26l547 200zM1249 553h-17
l-347 -74l-451 -209l86 -107l729 41v349zM1520 67l-148 18l-119 86l-754 -43l-102 124q-59 -31 -59 -85q0 -58 40 -92.5t112 -34.5q49 0 115 6t515 67l262 -75h138v29zM851 502l-325 359l-49 -111l121 -362zM1186 1629q64 85 86.5 135t22.5 92q0 44 -35 79.5t-91 56
t-112 20.5q-117 0 -145 -88l160 -92q26 21 49 21q26 0 41 -19.5t15 -42.5q0 -20 -31 -65l-29 -36zM495 876q-21 12 -54 12q-40 0 -64.5 -28.5t-24.5 -76.5q0 -9 1.5 -20t117.5 -437l90 44l-124 378zM340 56q-18 20 -29 46l-24 -17l-148 -18v-29h138zM951 1773q-41 0 -71 26
q6 8 23 13.5t31 5.5q23 0 37 -9t28 -31z" />
  </g>

</svg>
