<?xml version="1.0" standalone="no"?>
<!DOCTYPE svg PUBLIC "-//W3C//DTD SVG 1.1//EN" "http://www.w3.org/Graphics/SVG/1.1/DTD/svg11.dtd" >
<svg xmlns="http://www.w3.org/2000/svg" xmlns:xlink="http://www.w3.org/1999/xlink" version="1.1" viewBox="-10 0 1502 2048">
  <g transform="matrix(1 0 0 -1 0 1638)">
   <path fill="currentColor"
d="M1081 963h38v449q0 77 26 132.5t71 75.5q-24 41 -36 72t-12 66q0 71 32 122h53v-10q0 -38 10.5 -74t57.5 -115q70 -124 70 -200q0 -50 -26 -124h-53q0 108 -58 205q-32 -11 -51.5 -42.5t-19.5 -101.5v-455h38l18 -31l-33 -110q20 -32 20 -72q0 -38 -9 -86t-105 -485
l212 -90v-89h-1187v89l162 68v651q0 175 109 241l-13 101l-32 -7l-54 180q-19 7 -35 7q-37 0 -53.5 -27t-16.5 -67v-1036l-40 -7v1049q0 61 27.5 93.5t74.5 32.5l30 -2l-196 634q16 21 54 35.5t70 14.5q61 0 99 -42q35 42 101 42q39 0 66 -16t45.5 -39.5t30 -51t20.5 -49.5
l128 -338l10 1l7 -10l-15 -79l101 -221l-64 -3l-34 -89l131 -119l-72 -61l-112 153l-45 16l-12 -98q88 -60 107 -220l34 -301l211 260zM287 1541l188 7l-130 340q-26 69 -52 96.5t-63 27.5q-29 0 -51 -9.5t-30 -20.5zM510 1077q33 0 67 -14l18 126l92 -30l42 113l39 2
l-71 158l-194 -57q-20 26 -42 26q-23 0 -23 -29q0 -8 8.5 -27t29.5 -36l23 -133l-64 -16l13 -92q30 9 62 9zM516 1549l156 6l-126 333q-26 69 -52.5 96.5t-63.5 27.5q-63 0 -80 -39zM388 1187l72 18l-19 94q-17 11 -28 33.5t-11 42.5q0 23 15 42.5t41 19.5q23 0 49 -21
l170 51l9 52l-388 -15zM653 1388q15 0 31 -5.5t23 -13.5q-30 -26 -71 -26l-48 5q14 22 28 31t37 9zM513 1037q-84 0 -130 -60.5t-46 -167.5v-673l-160 -70v-26h1107v26l-218 98l96 434q26 121 26 151q0 38 -22.5 63t-60.5 25q-35 0 -62.5 -23t-49.5 -50l-242 -299l-30 10
l-46 347q-12 105 -54.5 160t-107.5 55zM1214 1813l-3 -41q0 -48 30 -106l13 -21q17 -24 34 -53t33.5 -82t16.5 -93v-11h10q4 23 4 50q0 60 -17 106t-42 85q-68 109 -70 166h-9zM1110 877q35 0 64 -21l16 56l-6 11h-82l-35 -50q18 4 43 4z" />
  </g>

</svg>
