<?xml version="1.0" standalone="no"?>
<!DOCTYPE svg PUBLIC "-//W3C//DTD SVG 1.1//EN" "http://www.w3.org/Graphics/SVG/1.1/DTD/svg11.dtd" >
<svg xmlns="http://www.w3.org/2000/svg" xmlns:xlink="http://www.w3.org/1999/xlink" version="1.1" viewBox="-10 0 1488 2048">
  <g transform="matrix(1 0 0 -1 0 1638)">
   <path fill="currentColor"
d="M210 1401l63 -19l51 -42l312 -110l132 264q23 46 53.5 66.5t70.5 31.5v49l-98 6l-16 104l-48 6l65 142l-3 27v13q0 53 43 82.5t122 29.5q87 0 139 -49t52 -125q0 -57 -42 -126l-32 -58v-74q77 -9 128.5 -65t60.5 -150q10 -130 10 -234l2 -34q39 -55 57 -110.5t18 -135.5
q0 -23 -12 -66q-23 -83 -23 -147l4 -80q59 -247 59 -452q0 -75 -10 -145h-294v88l113 23q60 12 60 48v11q0 4 -104 366l-9 61h-163l-190 -597h-287v88l135 23q23 5 36.5 20.5t22.5 61.5l67 240l-7 86l28 78h-22l251 501l-137 224l-166 -267l-373 -45l-28 15h-31l-18 -21
l-9 -1l12 -126l-35 -3l-13 128h-4l-58 24l-15 15l-16 71l17 18v25l60 13l-5 57l-16 1l-48 31l-12 15l-10 66l10 20l12 1v30l47 9l-21 239q0 62 9.5 87.5t31 44.5t48.5 27l4 -41q-30 -11 -43.5 -35t-13.5 -68l3 -52l18 -200zM880 1374l167 -256l191 41l-7 89l-9 153
q-5 60 -31.5 102t-65 64.5t-82.5 22.5v68l-87 77l38 62q6 9 14.5 27.5t8.5 26.5q0 34 -27 34q-14 0 -25 -11h-147l-40 -93l27 -4l15 -104l106 -6v-101q-35 0 -73 -24.5t-57 -61.5l-174 -351l-287 -31l-70 40l-40 13l-69 -15v-12l-14 -19l12 -49l10 -11l40 -17h36l15 23l39 2
l32 -14l358 43l172 292h24zM1278 633l-1 17v17q0 37 4 70t17 83q13 48 13 68q0 150 -70 236h-1l1 1l-205 -40l-221 -452h463zM756 37l179 560h-119l-30 -83v-85l-65 -248q-13 -83 -82 -100l-113 -17v-27h230zM1174 597l9 -59l100 -355l3 -28q0 -59 -89 -74l-85 -17v-27h222
q8 45 8 118q0 190 -63 442h-105zM174 1377l-35 -5v-14h72l43 -34l3 -48l24 2l24 -18l238 -108l54 4l24 48l-302 108l-61 48l-40 17h-44zM340 1127l154 17l-190 85l-30 21l-25 -4l-27 -21l5 -50l53 -13zM121 1338l7 -54l10 -10l44 -28h34l20 15l-5 58l-27 19h-83zM917 1837
q-24 -17 -48 -17q-45 0 -45 20q0 10 13 16t27 6q28 0 53 -25zM1036 1705l44 68q30 46 30 98q0 62 -42.5 101.5t-107.5 39.5q-61 0 -93.5 -19.5t-32.5 -54.5l3 -29h133q10 10 31 10q26 0 40 -20t14 -42q0 -15 -6.5 -34t-16.5 -31l-34 -51z" />
  </g>

</svg>
