<?xml version="1.0" standalone="no"?>
<!DOCTYPE svg PUBLIC "-//W3C//DTD SVG 1.1//EN" "http://www.w3.org/Graphics/SVG/1.1/DTD/svg11.dtd" >
<svg xmlns="http://www.w3.org/2000/svg" xmlns:xlink="http://www.w3.org/1999/xlink" version="1.1" viewBox="-10 0 1463 2048">
  <g transform="scale(1, -1)" transform-origin="center">
   <path fill="currentColor"
d="M1006 1157l-9 -36q37 -32 59.5 -73.5t22.5 -109.5q0 -59 -36 -151q-35 -89 -35 -190l-6 -159l179 -119l90 -6l29 -81l-100 -195l-75 -37h-110v81l79 19l42 48l-5 32l-133 88l-1 -61v-62q0 -75 -10 -145h-294v88l113 23q60 12 60 48l-23 210l-322 203l-26 61v46l238 407
l-4 72l-74 232q-185 -29 -223.5 -32t-61.5 -3l-68 5l-25 16q-69 149 -92 213t-39 129t-22 136l-24 78l58 119l53 -20l-33 -94l11 -35l29 67l47 -16l-36 -165q30 -83 73 -158t84 -118l112 33q157 47 263 53v43l-88 6l-16 104l-48 6l65 142l-3 27v13q0 53 43 82.5t122 29.5
q87 0 139 -49t52 -125q0 -57 -42 -126l-32 -58v-98q162 -20 213 -84q67 -83 124 -202t63 -193l-38 -21l-41 -1q-73 0 -136.5 14t-131.5 49zM922 1658l-87 77l38 62q6 9 14.5 27.5t8.5 26.5q0 34 -27 34q-14 0 -25 -11h-147l-40 -93l27 -4l15 -104l96 -6v-111l-29 2
q-67 0 -131.5 -12.5t-197.5 -56.5l-50 -13l-30 13q-49 59 -92.5 147.5t-58.5 157.5l30 140l-11 4l-33 -74l-17 3l-24 66l29 79l-12 5l-41 -90l23 -70q24 -195 163 -463l60 -3q92 0 310 38l22 -73l129 7l62 -51q61 -24 105 -35l46 146h20q61 -69 100.5 -131t54.5 -95
q-45 2 -104.5 17t-235.5 73l-54 50l-103 -3l2 -13l86 -4l51 -48l-4 -17l-81 -1v-12l148 -4q171 -107 337 -107l30 1l21 8q-16 79 -68.5 183.5t-107.5 170.5q-21 25 -79 46t-138 27v94zM960 633q0 47 12.5 86.5t26.5 75.5t26 70.5t12 70.5q0 105 -79 166l-188 -36l-229 -389
v-11zM862 538l43 -383q0 -59 -89 -74l-85 -17v-27h222q8 45 8 118q0 204 7 442l-106 8v-67zM989 1871q0 62 -42.5 101.5t-107.5 39.5q-61 0 -93.5 -19.5t-32.5 -54.5l3 -29h133q10 10 31 10q26 0 40 -20t14 -42q0 -15 -6.5 -34t-16.5 -31l-34 -51l38 -36l44 68q30 46 30 98z
M1162 205v-76l-62 -60l-53 -10v-26h71l62 36l45 88l36 76l-20 49l-67 -3l-173 116l-3 -81zM723 1297l37 -121l5 -77l195 36l12 41q-34 19 -48 30l-175 14l4 49l73 1l-28 24zM834 421l-11 94l-128 101l-145 13l11 -38zM1161 1236l-10 17q-20 38 -85 117l-33 -106
q90 -24 128 -28zM796 1837q-24 -17 -48 -17q-45 0 -45 20q0 10 13 16t27 6q28 0 53 -25zM757 612l65 -47l-2 43z" />
  </g>

</svg>
