<?xml version="1.0" standalone="no"?>
<!DOCTYPE svg PUBLIC "-//W3C//DTD SVG 1.1//EN" "http://www.w3.org/Graphics/SVG/1.1/DTD/svg11.dtd" >
<svg xmlns="http://www.w3.org/2000/svg" xmlns:xlink="http://www.w3.org/1999/xlink" version="1.1" viewBox="-10 0 2644 2048">
  <g transform="matrix(1 0 0 -1 0 1638)">
   <path fill="currentColor"
d="M721 896l-90 -11l-33 -80l-121 5l-18 -52l-191 148l-26 11q-75 43 -75 122q0 55 31 113.5t81.5 91t106.5 32.5q95 0 179 -93l78 -84l40 13l18 13q30 24 76.5 45t86.5 21q65 0 185.5 -23.5t208.5 -52.5l557 97v-50l719 65v-345h-106l-28 136q-11 55 -58 55l-26 -3
l-501 -117v-77l719 -178v-304h-106l-28 137q-6 28 -27.5 45t-69.5 25.5t-291 51.5l-103 -8l-94 34v-33l-521 168l-198 -22l-70 -284l-331 -478l-54 20l16 78l-46 -27l-43 -101l-58 12l38 143l60 63l84 44l147 234l54 213l-156 -250l-460 -456l-44 34l37 80l-51 -18l-68 -99
l-51 27l76 146l73 54l91 27l220 237l75 141q75 150 78 180zM136 44l14 -6l66 93l85 30l11 -14l-44 -94l10 -6l432 436l192 316l382 50l-63 235q-83 21 -195 43t-160 22q-75 0 -150 -75l-77 -13l-105 -55l-50 57q-27 27 -36 29l-13 2q-15 0 -15 -18q0 -15 16 -33l-141 -115
l146 -113l12 28l119 -5l34 84l158 20l-15 -164l-155 -306l-224 -239l-109 -35l-66 -44zM1769 712v453l-500 -89l62 -233zM2490 675l-675 165v-123l102 -36l100 5l299 -53q104 -19 120 -99l21 -102h33v243zM1815 1121v-128l498 115l34 4q41 0 60.5 -23.5t28.5 -66.5l21 -102
h33v267zM542 34l16 -2l41 96l78 45l15 -9l-20 -92l11 -3l310 454l64 265l-110 -14l-68 -287l-152 -237l-100 -54l-55 -53zM606 1085l-72 77q-34 38 -75 56.5t-72 19.5q-63 0 -118 -64.5t-55 -135.5q0 -59 44 -87l130 103q-9 20 -9 31q0 19 13.5 32t39.5 13q24 0 42.5 -14.5
t61.5 -64.5zM432 991l-8 -46q-12 -38 -48 -57q-9 11 -9 33q0 27 14 45t51 25z" />
  </g>

</svg>
