<?xml version="1.0" standalone="no"?>
<!DOCTYPE svg PUBLIC "-//W3C//DTD SVG 1.1//EN" "http://www.w3.org/Graphics/SVG/1.1/DTD/svg11.dtd" >
<svg xmlns="http://www.w3.org/2000/svg" xmlns:xlink="http://www.w3.org/1999/xlink" version="1.1" viewBox="-10 0 1742 2048">
  <g transform="matrix(1 0 0 -1 0 1638)">
   <path fill="currentColor"
d="M157 0v71q-3 13 -12 27.5t-18.5 31t-17.5 35t-8 39.5q0 16 12 36t26.5 39t26.5 35.5t12 27.5q0 17 -30 65q-33 51 -33 78q0 18 29 45q30 29 30 45q0 18 -33 76q-34 57 -34 75t15 39.5t33 42t33 39t15 30.5t-12 31t-26 41.5t-25 45.5t-11 45q0 20 20.5 42t77.5 72
q18 15 18 25q0 19 -30 69q-31 50 -31 71q0 16 18 37.5t40 42.5t40 38.5t18 26.5q0 12 -6 28q-25 57 -25 75q0 26 22 38.5t75 27.5q79 23 85 31t6 30l-7 99q0 13 4.5 21.5t25.5 9.5l89 -1q24 0 34 14t23 58q15 49 28 56l10 2q39 0 188 -58l20 -6l10 -1q21 0 46.5 12t51.5 21
q-14 35 -36 77l32 18l32 -65q30 36 93 59t139 23q106 0 180.5 -41.5t74.5 -97.5q0 -46 -53.5 -84.5t-141.5 -50.5q65 -20 105 -65t40 -104q0 -39 -17.5 -79.5t-83.5 -138.5v-67l82 -32q34 -13 52.5 -32.5t26.5 -43.5t8 -75q0 -69 -112 -449q-23 -78 -31 -151l34 -3v-347
l84 -64l144 -27v-81h-160l-219 65l-348 -49q-117 -16 -172 -16q-50 0 -90 24l-80 -24h-150v81l140 27l23 18l-1 10v9q0 71 113 131l-90 303q-11 37 -11 64q0 57 30 93t78 36q25 0 55.5 -12t52.5 -34l240 -242l26 102l-34 277l-83 96l-125 -117l-56 -3l-412 431l29 41l67 -31
l-17 46l-79 60l23 44l124 -65l45 -65l23 -78l200 -198l57 60l-154 160l27 39l67 -31l-15 45l-84 60l27 45l123 -65l46 -65l18 -80l23 -24q29 34 63 65t78 42l91 24l-11 48l-68 -27l-41 115l-54 3l82 201q10 58 33.5 86.5t63.5 39.5q-97 21 -138 72q-15 -40 -32 -65l-32 18
q34 60 41 92q-24 -10 -62.5 -21.5t-53.5 -11.5q-16 0 -104 32q-67 24 -82 24l-7 -2q-9 -12 -26 -59q-15 -41 -26 -51t-30 -10l-79 3q-14 0 -17 -9t-3 -23l4 -85q0 -25 -7.5 -32.5t-30.5 -13.5q-111 -33 -127 -42.5t-16 -28.5l3 -14l11 -30q14 -33 14 -44q0 -19 -26 -42
q-61 -56 -78.5 -75t-17.5 -31q0 -18 32 -72q28 -48 28 -70v-3q-1 -16 -19 -35t-39.5 -37.5t-38.5 -34t-17 -25.5v-1q1 -17 40 -84q33 -57 33 -76v-4q-4 -23 -52 -77q-43 -48 -43 -70q0 -16 12 -35q34 -55 44 -77t10 -45q0 -17 -30 -49q-29 -30 -29 -43t12 -31
q24 -37 37.5 -63t13.5 -46q0 -29 -40 -74q-37 -42 -37 -61q0 -17 30 -69q26 -47 26 -56v-1v-77h-40zM710 1370l-6 -12l79 -58l25 -75l-11 -9l-79 37l-5 -8l388 -398h30l235 204l7 -39l-229 -200l-50 -2l-16 18l28 -240l-28 -127l253 59q8 83 52 236q16 56 49.5 197.5
t33.5 167.5q0 55 -15 80.5t-45 37.5l-103 42v84l-83 75q35 53 45.5 70.5t10.5 26.5q0 26 -19 26q-18 0 -35 -23l-145 89l-69 -166l33 -2l36 -100l75 26l28 -114l-130 -30q-23 -5 -57.5 -36t-60.5 -63l84 -83l31 29l7 -68l32 -31l109 101l36 36q62 66 124 84l-2 -37
q-35 -9 -103 -77l-162 -149l-220 215l-30 96l-37 59zM1366 492h-14l-288 -66l-376 -186l72 -96l606 37v311zM1591 59l-124 17l-98 75l-626 -37l-85 111q-48 -28 -48 -77q0 -53 33 -82t93 -29q56 0 127 11l395 52l218 -67h115v26zM1240 1992q-77 0 -138 -24t-70 -59h-23v-30
h24q14 -36 72 -59.5t135 -23.5q90 0 150.5 29.5t60.5 68.5t-60.5 68.5t-150.5 29.5zM815 875l115 107l-78 79l-78 -83l-222 215l-30 96l-38 59l-90 51l-6 -13l78 -57l25 -76l-10 -9l-79 38l-6 -9l387 -398h32zM1314 1396q56 83 73 122.5t17 79.5t-29 71.5t-77 49.5t-92 18
q-96 0 -120 -79l133 -82q19 19 40 19q23 0 35 -17.5t12 -37.5q0 -11 -8.5 -27.5t-41.5 -62.5zM1027 446l-257 259l-43 -95l99 -265zM740 726q-17 11 -45 11q-34 0 -54 -25.5t-20 -68.5q0 -11 2 -23t97 -330l74 40l-103 282zM611 49q-14 17 -24 42l-20 -15l-123 -17v-26h115z
M1158 1528l-40 -4q-32 0 -58 22q5 7 18.5 12t25.5 5q19 0 31 -7.5t23 -27.5z" />
  </g>

</svg>
