<?xml version="1.0" standalone="no"?>
<!DOCTYPE svg PUBLIC "-//W3C//DTD SVG 1.1//EN" "http://www.w3.org/Graphics/SVG/1.1/DTD/svg11.dtd" >
<svg xmlns="http://www.w3.org/2000/svg" xmlns:xlink="http://www.w3.org/1999/xlink" version="1.1" viewBox="-10 0 1848 2048">
  <g transform="matrix(1 0 0 -1 0 1638)">
   <path fill="currentColor"
d="M1075 2050h663l-20 -730q-8 -278 -52 -764q-30 -330 -40.5 -504t-10.5 -204q0 -13 6.5 -58t40.5 -217q-17 -116 -87 -173h-181q-36 0 -162 26q-126 25 -145 25q-37 0 -178 -24q-153 -26 -187 -27h-622v188l58 6q152 22 225 52l74 31q108 45 149 56l125 30
q134 29 182.5 42.5t69.5 27.5q105 70 142.5 138.5t37.5 182.5l-12 369zM1203 162q0 -140 -43.5 -220.5t-154.5 -148.5q-19 -12 -87.5 -28.5t-176.5 -40.5l-131 -31q-43 -11 -147 -56q-101 -44 -137 -52q-123 -30 -188 -30v-115l569 1q46 0 192 25q151 25 188 25
q27 0 155 -25q127 -26 159 -26h154q22 17 42 60t23 76q-45 225 -45 272q0 134 10.5 307.5t27.5 308.5l28 317q20 211 34 453l23 776h-581l23 -471l51 -1014z" />
  </g>

</svg>
