<?xml version="1.0" standalone="no"?>
<!DOCTYPE svg PUBLIC "-//W3C//DTD SVG 1.1//EN" "http://www.w3.org/Graphics/SVG/1.1/DTD/svg11.dtd" >
<svg xmlns="http://www.w3.org/2000/svg" xmlns:xlink="http://www.w3.org/1999/xlink" version="1.1" viewBox="-10 0 1886 2048">
  <g transform="matrix(1 0 0 -1 0 1638)">
   <path fill="currentColor"
d="M132 -370v77q1 37 30 104q27 65 27 86q0 15 -14 35t-30.5 44t-30.5 51.5t-14 57.5q0 34 21 58.5t46.5 43.5t46.5 35t21 34q0 29 -33 72q-34 43 -34 75q0 29 19.5 54t43.5 47t43.5 40t19.5 32t-16 62t-16 77q0 44 40 78.5t101 34.5q47 0 73 17t26 37q0 13 -14 51
q-14 37 -14 60q0 37 26 64.5t69 27.5l104 -8q38 0 55 13.5t28 51.5q25 84 86 84q34 0 52.5 -11t35.5 -26q27 -23 52 -29.5t56 -6.5q39 0 174 35q-52 86 -74.5 138.5t-22.5 86.5v13q0 96 65 96q23 0 41 -16t39 -39q51 -57 78 -75q39 -27 108 -48t145 -30q91 -11 138 -47.5
t47 -92.5q0 -58 -49.5 -95.5t-135.5 -44.5q-65 -5 -138.5 -27.5t-114.5 -50.5q-27 -18 -78 -75q-21 -23 -39 -39t-41 -16q-65 0 -65 98v12q0 30 27 90.5t62 118.5q-126 -32 -166 -32q-57 0 -82.5 11.5t-41.5 26.5q-22 21 -37 28t-35 7q-21 0 -31.5 -19.5t-17.5 -40.5
q-16 -47 -42.5 -68t-77.5 -21l-104 8q-29 0 -42 -17.5t-13 -34.5q0 -15 14 -52q14 -38 14 -59q0 -43 -35.5 -68.5t-103.5 -25.5q-43 0 -72 -23t-29 -50q0 -16 16 -64t16 -75q0 -24 -19.5 -46t-43.5 -43.5t-43.5 -42.5t-19.5 -41t10.5 -36t23 -32t23 -35t10.5 -44
q0 -29 -21 -49.5t-46.5 -39.5t-46.5 -38t-21 -44q0 -27 14 -52t30.5 -48.5t30.5 -45t14 -42.5q0 -24 -27 -90q-29 -71 -30 -101v-76h-40zM1736 1174q0 41 -39 67t-106 33q-84 11 -160.5 35t-114.5 51q-42 27 -89 83q-34 39 -47 39q-25 0 -25 -56q0 -26 17.5 -75t51.5 -113
t39 -64q-108 -174 -108 -241v-11q0 -56 25 -56q10 0 22 12t28 30q49 55 89.5 82.5t120 51t151.5 32.5q79 11 112 36t33 64z" />
  </g>

</svg>
