<?xml version="1.0" standalone="no"?>
<!DOCTYPE svg PUBLIC "-//W3C//DTD SVG 1.1//EN" "http://www.w3.org/Graphics/SVG/1.1/DTD/svg11.dtd" >
<svg xmlns="http://www.w3.org/2000/svg" xmlns:xlink="http://www.w3.org/1999/xlink" version="1.1" viewBox="-10 0 1450 2048">
  <g transform="matrix(1 0 0 -1 0 1638)">
   <path fill="currentColor"
d="M720 -33q-122 0 -134 212q-159 22 -258.5 106t-153.5 240t-74 431h1240q-21 -279 -75 -433t-154 -238t-258 -106q-12 -212 -133 -212zM720 210q193 0 311 69t180.5 215t84.5 422h-1152q22 -279 85 -424t181 -213.5t310 -68.5zM720 7q39 0 63 37.5t30 129.5q-46 -4 -93 -4
q-49 0 -93 4q6 -167 93 -167z" />
  </g>

</svg>
