<?xml version="1.0" standalone="no"?>
<!DOCTYPE svg PUBLIC "-//W3C//DTD SVG 1.1//EN" "http://www.w3.org/Graphics/SVG/1.1/DTD/svg11.dtd" >
<svg xmlns="http://www.w3.org/2000/svg" xmlns:xlink="http://www.w3.org/1999/xlink" version="1.1" viewBox="-10 0 1492 2048">
  <g transform="matrix(1 0 0 -1 0 1638)">
   <path fill="currentColor"
d="M723 2015q-15 0 -15 8q0 5 16.5 16.5t46.5 11.5q23 0 34 -13t11 -25q0 -15 -10 -25q-11 -11 -11 -21q0 -15 18 -26q17 57 74.5 83t136.5 26q137 0 208.5 -69.5t71.5 -200.5q0 -50 -9 -86t-21.5 -67.5t-25.5 -61.5t-21 -68q35 -73 90 -129q31 -33 44.5 -54t13.5 -41
q0 -33 -18 -48.5t-45 -15.5q-52 0 -92 74v-1126l162 -68v-89h-1282v89l212 90l-100 475q-21 98 -21 146q0 53 34.5 90t83.5 37q37 0 63.5 -11t52.5 -41.5t236 -288.5l52 621q6 70 51.5 133t146.5 125l-13 109l-45 -16l-112 -153l-72 61l131 119l-34 89l-64 3l102 229l-20 12
q-44 20 -44 45q0 17 7.5 26t7.5 16q0 10 -13 10h-19zM1266 1779q0 72 -27.5 124.5t-83.5 80.5t-129 28q-65 0 -117.5 -24.5t-64.5 -63.5l160 -92q26 21 49 21q26 0 41 -19.5t15 -42.5q0 -20 -12 -43t-28 -33q-35 -63 -35 -104q0 -52 23 -98l-1 -42q-62 0 -130.5 -43
t-118 -107t-53.5 -113l-63 -682l-25 -10l-240 298q-22 27 -49.5 50t-62.5 23q-38 0 -60.5 -25t-22.5 -63q0 -37 19 -117l108 -518l-218 -98v-26h1202v26l-160 70v1283q0 61 13 106.5t29 86t29 80t13 87.5zM833 1890l-82 -186l39 -2l42 -113l96 30l17 -137q40 19 73 27
q-7 10 -11 25q-11 29 -11 76q0 48 39 115q21 17 29.5 36t8.5 27q0 29 -23 29q-22 0 -42 -26zM1220 1430q2 -64 33 -122t61 -58q21 0 21 20v3q-1 13 -22.5 36t-46.5 58q-31 41 -46 75v-12zM931 1778l-48 -5q-41 0 -71 26q6 8 23 13.5t31 5.5q23 0 37 -9t28 -31z" />
  </g>

</svg>
