<?xml version="1.0" standalone="no"?>
<!DOCTYPE svg PUBLIC "-//W3C//DTD SVG 1.1//EN" "http://www.w3.org/Graphics/SVG/1.1/DTD/svg11.dtd" >
<svg xmlns="http://www.w3.org/2000/svg" xmlns:xlink="http://www.w3.org/1999/xlink" version="1.1" viewBox="-10 0 3234 2048">
  <g transform="matrix(1 0 0 -1 0 1638)">
   <path fill="currentColor"
d="M100 524q0 111 38.5 196.5t117.5 136t167 50.5h451q-94 27 -150.5 96.5t-56.5 157.5q0 73 77 73q26 0 52 -11.5t56 -27.5q83 -44 129 -56t92 -12q56 0 268 31l104 15q180 25 279 25q133 -1 272.5 -33t269.5 -91t222 -118l73 -47l563 98v-722l-454 86l-76 -53
q-99 -72 -233 -115t-288 -43h-1655q-155 0 -236.5 94t-81.5 270zM1289 980q103 0 263 -52l64 -21h193v-40h-1386q-33 0 -81 -14t-93 -52t-77 -105t-32 -172q0 -157 71.5 -240.5t206.5 -83.5h1655q305 0 548 188l42 30l421 -82v619l-532 -86l-76 48q-96 60 -221 117.5
t-262.5 89.5t-268.5 34q-97 0 -377 -40q-220 -31 -274 -31t-104 13t-136 59h1q-68 35 -90 35q-37 0 -37 -34q0 -62 36.5 -115t98.5 -82.5t132 -29.5q31 0 62.5 7.5t68.5 16t81.5 16t102.5 7.5zM1289 940q-68 0 -118 -11.5t-93 -21.5h406q-119 33 -195 33z" />
  </g>

</svg>
