<?xml version="1.0" standalone="no"?>
<!DOCTYPE svg PUBLIC "-//W3C//DTD SVG 1.1//EN" "http://www.w3.org/Graphics/SVG/1.1/DTD/svg11.dtd" >
<svg xmlns="http://www.w3.org/2000/svg" xmlns:xlink="http://www.w3.org/1999/xlink" version="1.1" viewBox="-10 0 2848 2048">
  <g transform="matrix(1 0 0 -1 0 1638)">
   <path fill="currentColor"
d="M1217 544l-49 -66l-353 -73l218 19l182 46l27 -39l32 16l60 50l168 -235l-175 -6l-76 57l-59 4l-588 -55l-76 16l-16 122l60 69l301 120l-95 111l-91 160l-60 53q-20 -40 -50 -67l-63 -45l-35 -23q-113 -113 -201 -113q-49 0 -84.5 28t-47.5 73v46q57 166 72 250l28 187
q19 38 64 75q-47 41 -75.5 112.5t-36.5 133.5l-22 154q-20 139 -76 281h89q31 -50 52.5 -97t36.5 -91t39 -151q22 -101 42 -141.5t51 -73t72 -63.5l46 2l35 -1q49 10 127 59t123 96l75 83q135 151 231 201l32 -79q-79 -70 -149 -182q-102 -156 -194 -225l100 -32
q171 -57 330 -97t217 -40h12q549 70 699 70q109 0 198.5 -25.5t142.5 -70.5t84 -143.5t37 -186.5q7 -89 40 -213l20 -43q50 -94 50 -148q0 -82 -13 -121l-29 -3q-34 36 -58.5 90t-24.5 96l-1 50q0 35 8 72q-33 118 -38 199q-7 57 -25 141l-60 -157l-17 -100l4 -78
q3 -32 15.5 -60t30.5 -40q63 -41 91 -115l-37 -109h-171q-118 29 -163 29q-24 0 -78.5 -11.5t-74.5 -17.5l-59 3l-23 28l-25 -7l-14 -43h-233l58 135l143 25l102 -3l-67 96l-160 -2l-121 -1q-79 0 -211 20t-276 54zM363 773q-37 -29 -61 -66q34 8 78 38.5t74 63.5
q61 36 97 67q23 20 45.5 67.5t22.5 82.5v5h39v-13q0 -13 -3 -34.5t-8 -28.5l72 -70l92 -162l24 -29l-30 113l-3 160h40l4 -165l52 -186l35 -42l-336 -137l-40 -45l10 -80l42 -10l585 55l71 -8l75 -54l82 3l-96 141l-34 -28l-59 -12l-32 27l-159 -35l-257 -16l-9 49l370 91
l29 40l-13 84l-13 145l37 169l40 -8l-37 -166l14 -152q114 -32 252.5 -55t242.5 -23h85l218 3l83 -128l203 14q-97 118 -154 233.5t-70 216.5l40 4q23 -199 265 -490l-300 -19l-117 4l-111 -22l-36 -72l143 6l14 41l67 7l25 -29h41q38 11 88 20t67 9q53 0 168 -29l143 -7
l19 75q-21 45 -71 82q-58 41 -65 132l-5 82l20 109l72 196v7q0 97 -100.5 153t-263.5 56q-146 0 -695 -70l-17 -1q-76 0 -285 59t-274 81l-130 42l-37 -27l28 -3l90 -87l-131 -54l-91 28l12 39l75 -24l61 25l-36 37q-32 2 -62 8l-43 -25l-20 36l57 28q75 37 145 104t155 188
l19 28q35 54 107 126l-9 21q-93 -63 -185 -179q-81 -102 -142 -147.5t-156 -89.5l-67 3q-98 0 -164.5 -31t-85.5 -78l1 2l-28 -186q-13 -76 -73 -252l1 -38q5 -21 24.5 -37.5t44.5 -21.5q46 73 83 93zM348 1348q36 18 74 28q-57 47 -99 130q-24 50 -46 152
q-28 125 -52.5 192.5t-55.5 118.5h-11q45 -123 68 -313q16 -117 26 -148q28 -97 96 -160zM379 1031l-35 57l9 33l115 64l20 -34l-65 -48l-10 -56z" />
  </g>

</svg>
