<?xml version="1.0" standalone="no"?>
<!DOCTYPE svg PUBLIC "-//W3C//DTD SVG 1.1//EN" "http://www.w3.org/Graphics/SVG/1.1/DTD/svg11.dtd" >
<svg xmlns="http://www.w3.org/2000/svg" xmlns:xlink="http://www.w3.org/1999/xlink" version="1.1" viewBox="-10 0 2146 2048">
  <g transform="scale(1, -1)" transform-origin="center">
   <path fill="currentColor"
d="M1115 1214l-27 72l-64 -40l-66 107l-55 -7l44 189l-1 24q6 75 66 125.5t136 50.5q105 0 166 -51.5t61 -139.5q0 -38 -26 -96t-53 -96l20 -79l95 -9q72 -7 170.5 -113t250.5 -349l68 -111h23v-325h68l41 -190q4 -17 4 -33q0 -35 -19.5 -63t-83 -54t-93.5 -26l-29 79l60 31
q15 10 15 20q0 9 -42 100l-431 -171q-150 -59 -243 -59q-76 0 -127 44t-51 115q0 44 26 80.5t92 80.5l421 300l7 1q-35 82 -89 145t-113 100l-137 -316l-26 -48l-282 -325l-121 -162l-43 33l39 69l-40 -15l-70 -102l-47 30l70 141l91 36l73 53l194 326l143 356l-60 18
l-132 -315l-31 -50l-326 -418l-121 -162l-43 33l39 69l-40 -15l-70 -102l-47 30l70 141l91 36l73 53l248 431l161 415q22 60 59 77zM381 42l15 -9l56 87l78 30l12 -9l-45 -78l13 -9l99 145l324 420l31 50l131 339l101 -30l23 45q52 102 102 127v-53q-32 -19 -104 -177.5
t-143 -347.5l-208 -332l-84 -60l-83 -30l-58 -108l15 -9l56 87l78 30l12 -9l-45 -78l13 -9l99 145l280 337l15 26l184 414l34 -16l-29 -57q150 -92 225 -273l272 61q-148 232 -200.5 304.5t-97 121.5t-83.5 78t-72 32l-113 9l-28 115l-93 41q29 78 32.5 89.5t3.5 18.5
q0 27 -19 27q-25 0 -36 -29l-166 33l-38 -152l34 5l57 -93l72 40l56 -135l-83 -42q-43 -23 -60 -99l-150 -379l-260 -436l-84 -60l-83 -30zM918 1837q-15 -40 -32 -65l-32 18q34 60 41 92q-24 -10 -62.5 -21.5t-53.5 -11.5q-16 0 -104 32q-67 24 -82 24l-7 -2
q-9 -12 -26 -59q-15 -41 -26 -51t-30 -10l-79 3q-14 0 -17 -9t-3 -23l4 -85q0 -20 -5.5 -29t-18.5 -17q-42 -27 -54 -40t-13 -31l3 -14l11 -30q14 -33 14 -44q0 -19 -26 -42q-61 -56 -78.5 -75t-17.5 -31q0 -18 32 -72q28 -48 28 -70v-3q-1 -16 -19 -35t-39.5 -37.5
t-38.5 -34t-17 -25.5v-1q1 -17 40 -84q33 -57 33 -76v-4q-4 -23 -52 -77q-43 -48 -43 -70q0 -16 12 -35q34 -55 44 -77t10 -45q0 -17 -30 -49q-29 -30 -29 -43t12 -31q24 -37 37.5 -63t13.5 -46q0 -29 -40 -74q-37 -42 -37 -61q0 -17 30 -69q26 -47 26 -56v-1v-77h-40v71
q-3 13 -12 27.5t-18.5 31t-17.5 35t-8 39.5q0 16 12 36t26.5 39t26.5 35.5t12 27.5q0 17 -30 65q-33 51 -33 78q0 18 29 45q30 29 30 45q0 18 -33 76q-34 57 -34 75t15 39.5t33 42t33 39t15 30.5t-12 31t-26 41.5t-25 45.5t-11 45q0 20 20.5 42t77.5 72q18 15 18 25
q0 19 -30 69q-31 50 -31 71q0 16 18 37.5t40 42.5t40 38.5t18 26.5q0 12 -6 28q-25 57 -25 75q0 16 9.5 30t42.5 36q31 20 36 25.5t7.5 15.5t2.5 20l-7 99q0 13 4.5 21.5t25.5 9.5l89 -1q24 0 34 14t23 58q15 49 28 56l10 2q39 0 188 -58l20 -6l10 -1q21 0 46.5 12t51.5 21
q-14 36 -36 77l32 18l32 -65q30 36 93 59t139 23q106 0 180.5 -41.5t74.5 -97.5t-74.5 -97.5t-180.5 -41.5q-77 0 -140 23.5t-92 58.5zM1870 654l-327 -73l-422 -305l70 -99q134 74 315.5 124.5t378.5 63.5v289h-15zM1862 33q50 16 94 40t44 77l-3 26l-36 152
q-422 -4 -779 -199l-92 121q-29 -16 -44.5 -41t-15.5 -51q0 -51 41.5 -84.5t101.5 -33.5q78 0 240 63l445 176l52 -111q9 -20 9 -38q0 -30 -19 -40l-50 -26zM1150 1992q-77 0 -138 -24t-70 -59h-23v-30h24q14 -36 72 -59.5t135 -23.5q90 0 150.5 29.5t60.5 68.5t-60.5 68.5
t-150.5 29.5zM1268 1383q38 62 51 97.5t13 62.5q0 69 -50 110.5t-134 41.5q-59 0 -110 -39.5t-57 -94.5l153 -28q17 26 49 26q22 0 35.5 -15.5t13.5 -36.5q0 -13 -29 -96zM1081 1473q-39 -14 -58 -14q-23 0 -46 13q6 12 22 19t19 7l15 1q25 0 48 -26z" />
  </g>

</svg>
