<?xml version="1.0" standalone="no"?>
<!DOCTYPE svg PUBLIC "-//W3C//DTD SVG 1.1//EN" "http://www.w3.org/Graphics/SVG/1.1/DTD/svg11.dtd" >
<svg xmlns="http://www.w3.org/2000/svg" xmlns:xlink="http://www.w3.org/1999/xlink" version="1.1" viewBox="-10 0 1797 2048">
  <g transform="matrix(1 0 0 -1 0 1638)">
   <path fill="currentColor"
d="M956 1577l-36 64l-86 6l-16 104l-48 6l65 142l-3 27v13q0 53 43 82.5t122 29.5q87 0 139 -49t52 -125q0 -57 -42 -126l-48 -66l17 -27l53 1q122 0 186 -53l232 -247l33 -335l44 -34l24 -56l-7 -113l-45 -3l-7 81l-25 23l-6 -59h-41l-27 108l-44 285l-168 177l79 -290
q46 -66 64 -125.5t18 -127.5q0 -23 -12 -66q-23 -83 -23 -147q0 -52 4 -80q59 -247 59 -452q0 -75 -10 -145h-294v88l113 23q60 12 60 48v11q0 4 -104 366l-9 61h-163l-190 -597h-287v88l135 23q23 5 36.5 20.5t22.5 61.5l67 240l-7 86l28 78h-22l254 507l-178 262
l-295 -198l-346 49l-28 15l-29 -7l70 -253l-48 -10l-72 257l-19 -1l-58 25l-15 18l-16 71l17 47l43 10l-39 139q-23 83 -23 125q0 73 42.5 115.5t114.5 42.5q38 0 63.5 -13t34.5 -24l-25 -41q-6 7 -26.5 18.5t-52.5 11.5q-47 0 -72.5 -30t-25.5 -79q0 -13 10 -68.5t15 -68.5
l32 -116l5 1l53 -13l60 -35l276 -40l264 218q38 33 88 45zM1167 1122l194 35l-88 317l36 15l206 -208l40 -301l18 -97l8 1l6 72l14 5l42 -41l8 -77h10l5 82l-27 48l-47 36l-37 331l-233 245q-29 23 -88 30t-138 7l-85 123l23 52q6 9 14.5 27.5t8.5 26.5q0 34 -27 34
q-14 0 -25 -11h-147l-42 -93l29 -4l15 -104l84 -6l59 -110q-60 -11 -119 -53l-265 -226l-296 40l-74 38l-38 11l-65 -13l-12 -29l12 -47l10 -11l36 -15h34l56 12l32 -14l347 -44l309 215zM1406 633l-1 17v17q0 37 4 70t17 83q13 48 13 68q0 145 -73 235l-200 -35l-223 -455
h463zM884 37l179 560h-119l-30 -83v-85l-65 -248q-13 -83 -82 -100l-113 -17v-27h230zM1302 597l9 -59l100 -355l3 -28q0 -59 -89 -74l-85 -17v-27h222q8 45 8 118q0 190 -63 442h-105zM1077 1706l43 67q30 46 30 98q0 62 -42.5 101.5t-107.5 39.5q-61 0 -93.5 -19.5
t-32.5 -54.5l3 -29h133q10 10 31 10q26 0 40 -20t14 -42q0 -15 -6.5 -34t-16.5 -31l-22 -46zM957 1837q-24 -17 -48 -17q-45 0 -45 20q0 10 13 16t27 6q28 0 53 -25z" />
  </g>

</svg>
