<?xml version="1.0" standalone="no"?>
<!DOCTYPE svg PUBLIC "-//W3C//DTD SVG 1.1//EN" "http://www.w3.org/Graphics/SVG/1.1/DTD/svg11.dtd" >
<svg xmlns="http://www.w3.org/2000/svg" xmlns:xlink="http://www.w3.org/1999/xlink" version="1.1" viewBox="-10 0 1927 2048">
  <g transform="matrix(1 0 0 -1 0 1638)">
   <path fill="currentColor"
d="M1344 2050q118 0 198 -57t80 -146q0 -47 -25 -98t-97 -146v-78l61 -12q63 -12 99 -65.5t36 -146.5q0 -70 -75 -327q35 27 74 27q46 0 80.5 -28t36.5 -70q0 -40 -26.5 -72.5t-59.5 -34.5q79 -50 91 -133l-78 -30q-8 43 -54.5 95t-106.5 79l-5 -1l-28 -115h2v-325h68
l41 -190q4 -17 4 -33q0 -35 -19.5 -63t-83 -54t-93.5 -26l-29 79l60 31q15 10 15 20q0 9 -42 100l-431 -171q-150 -59 -243 -59q-76 0 -127 44t-51 115v9l1 9l-26 -42l-18 -135h-392v92l166 24l77 24l40 57l123 481q13 43 27 73.5t31.5 51t56 31t55.5 10.5q102 0 220 -63.5
t189 -154.5l11 148l-103 451q-109 -123 -213 -205.5t-153 -82.5q-12 0 -21 5q-76 40 -369 238l-14 34l-27 21l-32 -4l-23 33l-87 -106l-35 31l94 114l-14 28l-3 22l37 75l47 28l43 -19l43 55l-21 61l1 22l39 65l23 10l12 -8l25 30l48 -25l387 472l288 -243l12 27l4 27
q15 58 57 89t122 31zM1655 1300q0 68 -33.5 122t-83.5 59l-76 9v105l-100 85q55 76 61.5 88.5t6.5 19.5q0 29 -23 29q-22 0 -42 -26l-175 99l-82 -186l39 -2l42 -113l92 30l31 -125l-157 -34q-133 -28 -190 -100l-123 -154q-48 -60 -77.5 -82t-63.5 -22q-38 0 -94 32
l-207 121l-33 89l-27 40l-71 37l-34 -17l-24 -52v-13l24 -48l19 -29l29 13l35 -25l19 -37q334 -235 373 -235q34 0 107 55t157.5 139t123.5 134l113 -516l170 41l178 45q65 250 80.5 325t15.5 99zM786 1191l161 200q52 66 210 104l111 26l-13 53l-83 -29l-49 129l-64 3
l48 107q-210 70 -377 102l-218 -266l39 -63l15 -72zM745 276l70 -99q134 74 315.5 124.5t378.5 63.5v295l-323 -72zM757 804q-17 0 -46 -12t-36 -19q-29 -29 -53 -116l-124 -476l-52 -71l-86 -23l-140 -20v-29h319l14 97q29 42 78 148t77.5 198.5t32.5 163.5l22 10
q64 -16 189 -183l184 128q-85 96 -184.5 150t-194.5 54zM1486 33q50 16 94 40t44 77l-3 26l-36 152q-422 -4 -779 -199l-92 121q-29 -16 -44.5 -41t-15.5 -51q0 -51 41.5 -84.5t101.5 -33.5q78 0 240 63l445 176l52 -111q9 -20 9 -38q0 -30 -19 -40l-50 -26zM1475 1629
q64 85 86.5 135t22.5 92q0 44 -35 79.5t-91 56t-112 20.5q-117 0 -145 -88l160 -92q26 21 49 21q26 0 41 -19.5t15 -42.5q0 -20 -31 -65l-29 -36zM698 1137q37 0 59 30l-214 295l-18 85l-33 48l-12 -13l12 -66l-34 -45l24 -16l8 -35q153 -270 162 -273q25 -10 46 -10z
M865 2051l-108 -132q205 -36 366 -99l10 21l-268 211l-1 -1h1zM659 260q26 27 75 60l185 129q-97 123 -145 150q-1 -57 -28.5 -134t-86.5 -205zM1536 797l-327 -80l-7 -84l311 65zM591 1180l-124 215l-15 43l-14 14h-44l-12 8l-38 -47l15 -7l39 -52l27 -75q93 -52 166 -99z
M385 1626l-34 -55v-17l19 -55l33 -24h29l34 51l-8 41zM1627 872q34 -14 66 -14q37 1 37 36q0 14 -11 24t-26 10q-27 0 -66 -56zM1240 1773q-41 0 -71 26q6 8 23 13.5t31 5.5q23 0 37 -9t28 -31zM413 1629l29 -21l17 20l-30 21z" />
  </g>

</svg>
