<?xml version="1.0" standalone="no"?>
<!DOCTYPE svg PUBLIC "-//W3C//DTD SVG 1.1//EN" "http://www.w3.org/Graphics/SVG/1.1/DTD/svg11.dtd" >
<svg xmlns="http://www.w3.org/2000/svg" xmlns:xlink="http://www.w3.org/1999/xlink" version="1.1" viewBox="-10 0 1911 2048">
  <g transform="scale(1, -1)" transform-origin="center">
   <path fill="currentColor"
d="M1716 938l43 69l-176 315q-62 106 -100 117l-58 14q-139 -151 -212 -342l80 -36l37 -3l55 202h36l213 -214l-7 -32l-347 14l-77 41l-11 -31l5 -4l-15 -18l-75 65l-52 -63l3 -32l61 -52l70 -7l86 63l56 -22zM1253 1629q64 85 86.5 135t22.5 92q0 44 -35 79.5t-91 56
t-112 20.5q-117 0 -145 -88l160 -92q26 21 49 21q26 0 41 -19.5t15 -42.5q0 -20 -31 -65l-29 -36zM1591 1060l-181 179l-44 -170zM1066 1778l-48 -5q-41 0 -71 26q6 8 23 13.5t31 5.5q23 0 37 -9t28 -31zM1131 1104l23 -20l7 22l-21 11zM145 1633l-7 -15l95 -64l30 -85
l-13 -11l-95 43l-7 -10l467 -448h38l255 221h27l69 -544l-33 -202l304 67l30 372l-30 13l-83 -61l-81 10l-77 65l-6 58l73 86l8 -6l18 27l43 -19q69 184 201 337l-131 33v95l-100 85q55 76 61.5 88.5t6.5 19.5q0 29 -23 29q-22 0 -42 -26l-175 99l-82 -186l39 -2l42 -113
l92 30l31 -125l-157 -34q-45 -9 -141 -109l-177 -180l-278 231l-38 107l-45 66zM1317 553h-17l-347 -74l-451 -209l86 -107l729 41v349zM1588 67l-148 18l-119 86l-754 -43l-102 124q-59 -31 -59 -85q0 -58 40 -92.5t112 -34.5q49 0 115 6t515 67l262 -75h138v29zM919 502
l-325 359l-49 -111l121 -362zM563 876q-21 12 -54 12q-40 0 -63.5 -28.5t-23.5 -76.5q0 -13 2.5 -29t114.5 -428l90 44l-124 378zM408 56q-18 20 -29 46l-24 -17l-148 -18v-29h138zM1046 1521l-13 53l-83 -29l-49 129l-64 3l102 226l4 27q15 58 57 89t122 31q118 0 198 -57
t80 -146q0 -47 -25 -98t-97 -146v-78l120 -29q148 160 354 259l20 -42q-180 -85 -319 -230l35 -8q64 -14 106 -94l207 -374l-64 -103l-397 46l-29 -362l41 -5v-389l102 -72l173 -30v-92h-182l-278 78l-404 -59q-127 -19 -208 -19q-63 0 -109 27l-96 -27h-182v92l173 30
l28 20l-1 11v11q0 82 136 146l-110 400q-4 13 -7.5 35.5t-4.5 37.5q0 62 35.5 103.5t93.5 41.5q30 0 63 -13.5t56 -39.5l307 -345l29 188l-62 496l-236 -208l-60 -3l-502 487l32 44l81 -35l-19 52l-100 66l26 51l148 -73l55 -73l28 -89l253 -215l115 113l44 47
q89 98 166 117z" />
  </g>

</svg>
