<?xml version="1.0" standalone="no"?>
<!DOCTYPE svg PUBLIC "-//W3C//DTD SVG 1.1//EN" "http://www.w3.org/Graphics/SVG/1.1/DTD/svg11.dtd" >
<svg xmlns="http://www.w3.org/2000/svg" xmlns:xlink="http://www.w3.org/1999/xlink" version="1.1" viewBox="-10 0 1538 2048">
  <g transform="matrix(1 0 0 -1 0 1638)">
   <path fill="currentColor"
d="M1428 1210l-63 -234l36 -95l-12 -74l-69 -119l-53 20l33 92l-8 43l-35 -62l-53 18l48 212l24 198l-86 136l6 -121h-60l-43 -191l-3 -176l33 -4v-308l74 -59l141 -24v-93h-148l-194 53l91 -137l-98 -144l11 -55l-24 -86l-57 7l11 66l-14 12l-26 -36l-48 35l126 190
l-103 144l-5 -1v-40q23 -32 36.5 -54.5t13.5 -44.5q0 -44 -32.5 -70.5t-81.5 -26.5q-31 0 -55 18t-31 54l-41 93l35 1l9 35l44 3v17l-63 -9l-88 -120l124 -188l-46 -37l-26 36l-13 -12l9 -66l-54 -6l-24 85l11 55l-100 144l60 90l-78 -5q-72 0 -120 40t-48 103q0 44 33 73
t88 52l287 121q2 51 14.5 111.5t27 120.5t26.5 114t12 92l-46 44l-167 -167l-202 -117l-118 -154l-44 23l25 68l-37 -18l-49 -85l-51 24l52 123l57 49l73 30l206 176l129 181q74 128 115.5 173.5t90.5 61.5l33 10l-9 38l-68 -22l-41 109l-52 3l83 184l3 22q27 98 155 98
q122 0 176.5 -46t59.5 -136l14 -279l52 -16q52 -12 77 -77zM131 827l13 -6l47 81l68 29l9 -11l-30 -77l14 -6l104 144l198 117l164 172l-31 38l95 143l35 -13l-82 -129l95 -107q-5 -56 -40 -204q-36 -151 -41 -225l302 82l4 187l42 182h-193l38 524l37 52q18 21 18 36
q0 24 -18 24q-20 0 -35 -21l-142 80l-67 -151l32 -2l34 -92l72 24l25 -102l-57 -17q-42 -13 -87.5 -67.5t-105.5 -156.5l-132 -184l-206 -177l-85 -36l-52 -39zM944 1257h209l-23 504q-3 57 -6 103.5t-21 78.5t-58 49.5t-116 17.5q-87 0 -109 -57l121 -75q20 17 40 17
q22 0 36 -18.5t14 -37.5q0 -11 -6.5 -27t-45.5 -67zM1086 821h-14l-323 -87l-324 -135l68 -81l593 35v268zM1307 432l-121 15l-97 70l-615 -35l-84 101q-48 -26 -48 -69q0 -51 35 -81t89 -30q56 0 163 16l345 49l220 -66h113v30zM1316 1214l-30 -211l-45 -185l12 -6l40 73
l14 -1l21 -69l-31 -89l13 -6l43 91l8 64l-36 99l62 243l-102 233q-36 80 -69 88l-37 13l9 -123zM1006 277l-132 -192l10 -10l29 38l39 -28l-9 -62l11 -2l15 63l-16 55l95 145l-96 146l-50 -6zM526 283l95 -145l-16 -55l15 -63l11 2l-9 62l39 28l29 -38l10 10l-132 192
l78 109l-56 -7zM721 330h-20l29 -68l73 41q5 -10 15 -10q11 0 11 11q0 7 -7 16l-25 35l34 25v33l-49 -8v-38l-54 -3zM828 348l11 -17q3 -6 7.5 -13t4.5 -13q0 -12 -6.5 -22.5t-20.5 -10.5q-9 0 -20 9l-64 -37q14 -35 54 -35q36 0 62 18.5t26 46.5q0 23 -11.5 42.5
t-27.5 42.5zM882 1828l-40 -4q-33 0 -58 21q14 16 45 16q19 0 30.5 -7.5t22.5 -25.5zM774 304q-11 -15 -26 -15q-14 0 -20 8q10 9 26 9z" />
  </g>

</svg>
