<?xml version="1.0" standalone="no"?>
<!DOCTYPE svg PUBLIC "-//W3C//DTD SVG 1.1//EN" "http://www.w3.org/Graphics/SVG/1.1/DTD/svg11.dtd" >
<svg xmlns="http://www.w3.org/2000/svg" xmlns:xlink="http://www.w3.org/1999/xlink" version="1.1" viewBox="-10 0 1303 2048">
  <g transform="matrix(1 0 0 -1 0 1638)">
   <path fill="currentColor"
d="M944 2051q30 0 57 -25t46 -69q-20 -36 -49 -59l85 -256h-13q-30 0 -80 -6.5t-85 -20.5v-53q114 -11 157 -88q4 23 20.5 37t43.5 14q35 0 49.5 -20t14.5 -42q0 -49 -60 -66q27 -50 42.5 -110t20.5 -154h-94l21 -440h-90v-567l131 -54v-72h-971v72l178 72l-81 311
q-18 83 -18 117q0 28 11 52l-45 115l16 19l31 -7l-43 131l-90 -59l-31 70l93 25l-62 56q-49 44 -49 93q0 32 19.5 56t59.5 24q51 0 70 -37t19 -105v-69l80 57l31 -66l-106 -29l87 -159l53 -10l19 -64q16 -10 29 -24t191 -222l38 300l-78 110l161 241l-22 128l-70 -8l-32 74
l-51 2l82 180q36 118 184 118h1v406q7 22 26.5 47.5t52.5 33.5zM904 1370q0 20 -18 23h-194l-47 -103l31 -1l26 -70l75 10l36 -165l-155 -236l68 -91l-48 -386l-21 -8l-193 241q-47 58 -91 58q-30 0 -48 -20t-18 -51q0 -12 2.5 -28t5.5 -33t6.5 -33t5.5 -27l81 -322
l-179 -74v-22h893v22l-129 52v587h-161l41 622l5 12q26 36 26 43zM1048 1393h-113q4 -9 4 -21q0 -25 -29 -54l-32 -585h201zM944 2021q-20 -9 -32.5 -29.5t-16.5 -33.5v-312q26 12 71 19.5t73 7.5l-78 235q31 24 50 51l-9 17q-24 45 -58 45zM709 1431h156v94
q-123 0 -152 -86zM178 1110q-19 0 -31 -11t-12 -33q0 -31 39 -70l60 -55l-1 66q0 56 -11 79.5t-44 23.5zM1097 1165h62q0 50 -18 118t-48 110h-7zM1040 1431q-24 74 -135 91v-91h135zM369 681l24 -2l-6 19l-106 17l22 -60q28 26 66 26zM1096 1463l5 -15l10 -20q45 6 45 35
q0 28 -30 28q-14 0 -22 -8.5t-8 -19.5zM788 1345l-38 -4q-34 0 -57 21q15 15 44 15q18 0 29 -7t22 -25z" />
  </g>

</svg>
