<?xml version="1.0" standalone="no"?>
<!DOCTYPE svg PUBLIC "-//W3C//DTD SVG 1.1//EN" "http://www.w3.org/Graphics/SVG/1.1/DTD/svg11.dtd" >
<svg xmlns="http://www.w3.org/2000/svg" xmlns:xlink="http://www.w3.org/1999/xlink" version="1.1" viewBox="-10 0 1490 2048">
  <g transform="matrix(1 0 0 -1 0 1638)">
   <path fill="currentColor"
d="M303 1004v-521h142l-10 -483h-325l-10 483h142v524l-45 19l-15 15l-16 71l17 18v25l59 12v54h-6l-46 32l-15 15l-10 70l13 20l12 1l1 34l47 9h4v529h61v-533l39 -12l51 -42l288 -110l89 260q23 46 53.5 66.5t70.5 31.5v49l-98 6l-16 104l-48 6l65 142l-3 27v13
q0 53 43 82.5t122 29.5q87 0 139 -49t52 -125q0 -57 -42 -126l-32 -58v-74q77 -9 128.5 -65t60.5 -150q10 -130 10 -234l2 -34q39 -55 57 -110.5t18 -135.5q0 -23 -12 -66q-23 -83 -23 -147l4 -80q59 -247 59 -452q0 -75 -10 -145h-294v88l113 23q60 12 60 48v11
q0 4 -104 366l-9 61h-163l-190 -597h-287v88l135 23q23 5 36.5 20.5t22.5 61.5l67 240l-7 86l28 78h-22l251 501l-137 224l-109 -292l-380 -20l-28 15h-31l-18 -21h-1zM877 1381l162 -264l201 42l-7 89l-9 153q-5 60 -31.5 102t-65 64.5t-82.5 22.5v68l-87 77l38 62
q6 9 14.5 27.5t8.5 26.5q0 34 -27 34q-14 0 -25 -11h-147l-40 -93l27 -4l15 -104l106 -6v-101q-42 -1 -74 -28t-48 -58l-128 -354l-291 -28l-70 40l-40 13l-69 -15v-12l-14 -19l12 -49l10 -11l40 -17h36l15 23l39 2l32 -14l358 20l114 318zM1280 633l-1 17v17q0 37 4 70
t17 83q13 48 13 68q0 150 -70 236h-1l1 1l-205 -40l-221 -452h463zM150 40h245l10 403h-265zM758 37l179 560h-119l-30 -83v-85l-65 -248q-13 -83 -82 -100l-113 -17v-27h230zM1176 597l9 -59l100 -355l3 -28q0 -59 -89 -74l-85 -17v-27h222q8 45 8 118q0 190 -63 442h-105z
M1038 1705l44 68q30 46 30 98q0 62 -42.5 101.5t-107.5 39.5q-61 0 -93.5 -19.5t-32.5 -54.5l3 -29h133q10 10 31 10q26 0 40 -20t14 -42q0 -15 -6.5 -34t-16.5 -31l-34 -51zM242 1377l-35 -5v-14h72l43 -34l3 -48l24 2l24 -18l222 -108l58 4l16 48l-282 108l-61 48l-40 17
h-44zM303 1231v-62l29 -7l60 -35l149 17l-169 81l-30 21l-25 -4zM190 1335l6 -51l10 -10l44 -28h34l20 15l-4 55l-27 19h-83zM919 1837q-24 -17 -48 -17q-45 0 -45 20q0 10 13 16t27 6q28 0 53 -25z" />
  </g>

</svg>
