<?xml version="1.0" standalone="no"?>
<!DOCTYPE svg PUBLIC "-//W3C//DTD SVG 1.1//EN" "http://www.w3.org/Graphics/SVG/1.1/DTD/svg11.dtd" >
<svg xmlns="http://www.w3.org/2000/svg" xmlns:xlink="http://www.w3.org/1999/xlink" version="1.1" viewBox="-10 0 1457 2048">
  <g transform="matrix(1 0 0 -1 0 1638)">
   <path fill="currentColor"
d="M1347 0h-1247v89l212 90l-103 465q-17 79 -17 146q0 50 35.5 88.5t86.5 38.5q37 0 63 -11t48 -35.5t241 -294.5l32 454h-119v112q0 80 15 149q-48 11 -77 42t-29 79t18.5 103.5t40 108t40 95.5t18.5 66q0 37 -25 49.5t-98 12.5q-55 0 -98.5 -8.5t-84 -27t-165.5 -101.5
l-25 38l229 154q135 89 219.5 118.5t168.5 29.5q174 0 300.5 -65t197.5 -197t71 -299v-459h-110v-873l162 -68v-89zM1147 136v1023q0 120 -54.5 189t-151.5 69q-78 0 -130 -61.5t-62 -183.5l-53 -656l-25 -10l-240 298q-22 27 -49.5 50t-62.5 23q-38 0 -63.5 -25t-25.5 -63
q0 -48 22 -151l106 -474l-218 -98v-26h1167v26zM708 1470q-38 -57 -63.5 -142t-25.5 -186v-77h81l8 111q8 123 72.5 202t163.5 79q108 0 174.5 -81.5t66.5 -217.5v-93h70v426q0 208 -115 350t-303 162q32 -42 32 -100q0 -59 -96 -173q-97 -114 -97 -182q0 -26 10.5 -44
t21.5 -34zM528 1417q0 -29 20.5 -53t55.5 -34q16 56 33 91t25 52q-26 26 -26 85q0 63 97 180q96 117 96 171q0 47 -34 73.5t-95 26.5q-40 0 -79 -10t-76.5 -25.5t-218.5 -116.5q63 19 94 23.5t67 4.5q86 0 122 -21.5t36 -78.5q0 -40 -58 -173q-59 -134 -59 -195zM653 1939
q0 16 11 27t27 11q17 0 28 -11t11 -27q0 -17 -11 -28t-28 -11q-16 0 -27 11t-11 28z" />
  </g>

</svg>
