<?xml version="1.0" standalone="no"?>
<!DOCTYPE svg PUBLIC "-//W3C//DTD SVG 1.1//EN" "http://www.w3.org/Graphics/SVG/1.1/DTD/svg11.dtd" >
<svg xmlns="http://www.w3.org/2000/svg" xmlns:xlink="http://www.w3.org/1999/xlink" version="1.1" viewBox="-10 0 1521 2048">
  <g transform="matrix(1 0 0 -1 0 1638)">
   <path fill="currentColor"
d="M862 1890l-82 -186l39 -2l42 -113l96 30l22 -177q-81 -55 -115.5 -87.5t-55.5 -68t-25 -78.5t-63 -682l-25 -10l-240 298q-22 27 -49.5 50t-62.5 23q-38 0 -60.5 -25t-22.5 -63q0 -37 19 -117l108 -518l-218 -98v-26h1202v26l-160 70v1312h-152l5 277q21 17 29.5 36
t8.5 27q0 29 -23 29q-22 0 -42 -26zM1033 1832q26 21 49 21q26 0 41 -19.5t15 -42.5q0 -20 -12 -43t-28 -33l3 -229h217l-37 340q-14 82 -86 134t-177 52q-117 0 -145 -88zM271 1229l83 9q54 6 83 31.5t29 60.5q0 21 -16 35t-42 14q-29 0 -55.5 -21.5t-53.5 -75.5zM338 927
q19 0 44 -5l-41 58h-82l-6 -11l18 -64q30 22 67 22zM960 1778l-48 -5q-41 0 -71 26q6 8 23 13.5t31 5.5q23 0 37 -9t28 -31zM731 1677l102 226l4 27q15 58 57 89t122 31q124 0 203.5 -58.5t99.5 -164.5l41 -379h-111v-1291l162 -68v-89h-1282v89l212 90l-100 475
q-21 98 -21 146q0 39 20 70l-36 119l18 31h51l-42 134l-51 -98l-36 18l56 107l-96 -10l-4 40l110 11l-34 112q-20 72 -20 113q0 49 20.5 76t57.5 27q47 0 68 -36l-34 -20q-9 16 -33 16q-39 0 -39 -62q0 -22 5.5 -50.5t39.5 -139.5l22 42q60 119 145 119q43 0 70.5 -22.5
t27.5 -66.5q0 -56 -41.5 -91t-106.5 -41l-96 -10l53 -168h47l126 -186l202 -248l52 621q9 119 135 210l63 48l-13 109l-45 -16l-112 -153l-72 61l131 119l-34 89z" />
  </g>

</svg>
