<?xml version="1.0" standalone="no"?>
<!DOCTYPE svg PUBLIC "-//W3C//DTD SVG 1.1//EN" "http://www.w3.org/Graphics/SVG/1.1/DTD/svg11.dtd" >
<svg xmlns="http://www.w3.org/2000/svg" xmlns:xlink="http://www.w3.org/1999/xlink" version="1.1" viewBox="-10 0 2522 2048">
  <g transform="matrix(1 0 0 -1 0 1638)">
   <path fill="currentColor"
d="M580 521q-14 -51 -32.5 -219t-18.5 -268v-10h187l99 137l46 296l35 226q-115 109 -149 170q-124 213 -142 238q-23 -14 -46 -27.5t-53 -17.5q-26 -15 -42.5 -23t-39.5 -8q-31 0 -55.5 23.5t-24.5 46.5q0 22 34.5 76t77.5 97l47 56q76 98 121 125q19 114 63.5 227
t118.5 220t147 168l34 -27q-148 -174 -205 -321q65 112 155.5 210t150.5 131l26 -31q-78 -73 -151 -169t-116.5 -189t-83.5 -205q38 45 105 77t118 32l17 -1q4 -9 4 -19q0 -45 -53.5 -103.5t-145.5 -80.5l15 -25q30 -60 73.5 -126.5t66.5 -83.5q58 -43 210 -55l93 -9
q193 -25 287 -25l150 4l140 3q172 0 283 -88t111 -226q0 -31 -11.5 -49.5t-29.5 -18.5t-28 13t-19 58q-12 68 -49 98v-6q0 -64 -35 -137q15 -39 39.5 -88.5t53.5 -89t64 -82.5l-45 -201l2 -55l11 -44l-28 -47l-9 -54h259v-40h-168v-177h168v-40h-168v-176h168v-40h-2312v40
h168v176h-168v40h168v177h-168v40h137v10q0 102 -19 270t-32 217h394zM1240 180l-16 -80h56q-19 151 -27 181q-8 33 -27 198q31 167 31 234q0 58 -26 136l39 8q25 -89 25 -146q0 -55 -8 -89h17q51 0 160 19q85 14 140 20.5t174 15.5q9 65 39 163l38 -9q-31 -112 -38 -162
l-8 -77q-20 -159 -20 -206q0 -25 -17 -94t-32 -102l-45 -90h43l28 23l-1 39v24q57 138 72.5 167t34.5 61.5t119 202.5q74 114 74 226l-3 45q93 -24 117 -151q11 -46 17 -46t9.5 14t3.5 25q0 60 -45.5 130.5t-127 106t-192.5 35.5l-142 -4l-148 -4q-95 0 -190 13.5t-193 20.5
q-165 10 -236 62q-45 31 -153 238q-47 91 -109 91q-43 0 -137 -124l-51 -60q-31 -31 -60 -70t-37 -62h36q-2 -9 -30 -37l12 -7q15 19 41 39.5t44 28.5l6 -15q-9 -4 -26 -22t-23 -31q6 2 49 28q46 6 126 55q3 -5 13.5 -21.5t25.5 -40.5t32.5 -53t34.5 -58t32 -55t25 -44
q21 -38 105.5 -118.5t127.5 -107.5q17 -10 48 -12q-47 67 -64.5 113t-17.5 87v7h41v-6q0 -75 60 -160l28 -40q16 -55 74 -207l10 -47q40 -180 42 -199zM1306 24h291l44 59l63 122q16 39 30.5 97.5t14.5 83.5l8 95l17 157q-24 -2 -54 -4t-61.5 -5t-63 -7t-58.5 -9
q-167 -29 -215 -29l-38 2q-12 -81 -18 -109q16 -145 26 -188q14 -65 33 -220h-12zM863 24h279l39 50q1 6 4.5 21t6.5 31.5t5.5 30.5t2.5 20q0 19 -22 116l-29 127l-65 171q-13 0 -40 5l-83 -266l-31 -230l-45 -31h-16zM237 481q14 -73 27 -212.5t13 -234.5v-10h212v10
q0 88 12.5 227t27.5 220h-292zM1760 24h233l44 56l35 87v232l-86 125q-28 -45 -52.5 -86.5t-52.5 -90t-74 -169.5v-69l-40 -33zM1760 -193h202v177h-202v-177zM2002 -193h202v177h-202v-177zM308 -193h202v177h-202v-177zM550 -193h202v177h-202v-177zM792 -193h202v177
h-202v-177zM1034 -193h202v177h-202v-177zM1276 -193h202v177h-202v-177zM1518 -193h202v177h-202v-177zM2002 -409h202v176h-202v-176zM308 -409h202v176h-202v-176zM550 -409h202v176h-202v-176zM792 -409h202v176h-202v-176zM1034 -409h202v176h-202v-176zM1276 -409h202
v176h-202v-176zM1760 -409h202v176h-202v-176zM1518 -409h202v176h-202v-176zM1005 607q-24 16 -71 57l-79 -515l-38 -49h50l24 19l30 216zM2110 408l-1 -246l-23 -62h47l18 31l-11 35l-2 58l43 185l-12 17q-51 70 -73 110t-50 103l-43 -71zM703 1449l25 -8
q75 211 155.5 337t198.5 231l-7 11q-100 -75 -204 -221.5t-142 -270.5zM662 1451l11 1h1q55 185 90 267t80.5 154.5t111.5 143.5l-8 8q-70 -64 -135.5 -169t-97 -192.5t-53.5 -212.5zM780 1386q62 12 100 34t61.5 54t23.5 52h-5q-37 0 -93 -31.5t-100 -89.5zM585 1302
q7 4 17 14.5t27 10.5t27.5 -8.5t16.5 -13.5q-27 -24 -48 -24q-19 0 -40 21zM807 24h29l8 42h-19zM749 24h32l21 42h-20zM1239 24h29l8 42h-19zM1181 24h32l21 42h-20zM1693 24h29l8 42h-19zM1635 24h32l21 42h-20zM2090 24h29l8 42h-19zM2032 24h32l21 42h-20z" />
  </g>

</svg>
