<?xml version="1.0" standalone="no"?>
<!DOCTYPE svg PUBLIC "-//W3C//DTD SVG 1.1//EN" "http://www.w3.org/Graphics/SVG/1.1/DTD/svg11.dtd" >
<svg xmlns="http://www.w3.org/2000/svg" xmlns:xlink="http://www.w3.org/1999/xlink" version="1.1" viewBox="-10 0 1922 2048">
  <g transform="matrix(1 0 0 -1 0 1638)">
   <path fill="currentColor"
d="M812 854l60 -80l32 -81l-13 -148l-56 8l-6 111l-2 2q-27 -38 -77 -65t-98 -33q29 -29 50 -78t21 -112q0 -53 -44 -157.5t-108 -220.5h-204q-63 113 -107.5 219t-44.5 159q0 63 21 112t50 78q-56 8 -111 41t-75 76v69h101l27 79l62 59l105 32l171 186q51 285 70 332
q16 41 96 75l30 15l-57 28l-71 -51l-100 69l-42 -34l-84 225l-16 24q-20 36 -20 73q0 70 73.5 127t155.5 57q72 0 127.5 -48.5t78.5 -153.5l21 -113l45 -16q36 9 59 9q83 0 133 -31q121 -77 316 -218t223 -174q91 -38 132 -94t41 -139q0 -24 -15 -79q-25 -92 -25 -176l3 -98
q71 -291 71 -544q0 -98 -12 -175h-339v106l136 28q73 15 73 58l-3 26l-123 428l-10 73h-143l-50 -172l-90 -547h-322v106l140 28q66 14 71 98l11 290l-8 103l31 94h-33l189 428l-252 89l-16 -157zM1360 1178l193 127q-119 105 -509 356q-39 24 -98 24q-33 0 -69 -8l-72 28
l-119 9l-12 75q-9 54 -34 54q-19 0 -19 -28v-8l1 -9l-180 -24l65 -173l24 17l98 -67l75 53l138 -79q-63 -19 -102.5 -39t-55.5 -38t-28 -69t-49 -280l-177 -189l-121 -40l-59 -51l-22 -65h26l24 46l80 44l14 -10l-22 -80h21l320 333l104 300l113 -42l10 166h39l-27 -414
l-229 -210l-14 -37l20 -173l19 -1l20 107l17 5l86 -103l6 -104l16 -3l6 113l-34 67l-78 98l257 237l42 410h40l-23 -222zM1698 759l-1 67q0 28 3.5 60.5t21.5 101.5q15 56 15 82q0 65 -37 121.5t-116 84.5l-1 1l-212 -140l-161 -378h488zM549 40q64 123 99 212t35 126
q0 47 -18 91.5t-44.5 70.5t-47.5 26h-208q-22 0 -48.5 -26.5t-44 -71t-17.5 -90.5q0 -41 36 -132t98 -206h160zM1223 44l79 510l48 165h-139l-33 -100l5 -102l-13 -299q-3 -99 -99 -120l-105 -21v-33h257zM1573 719l10 -71l121 -427q4 -13 4 -34q0 -68 -108 -89l-102 -21
v-33h267q10 65 10 146q0 110 -20.5 252t-55.5 277h-126zM408 754h260l-16 97l21 57l221 215l11 174l-80 29l-102 -261zM686 645l-12 69h-534v-19q21 -35 71.5 -61.5t98.5 -26.5h318q48 0 99 26.5t71 61.5v5l-12 14h-27l-19 -69h-54zM790 1742l-21 105q-17 73 -59 116t-97 43
q-76 0 -137.5 -47t-61.5 -106q0 -19 9 -40l165 19q5 51 44 51q32 0 51 -27t24 -71l4 -34zM501 1697h-7q-5 0 -5 4q0 27 20 45.5t44 18.5q15 0 38 -9q-43 -59 -90 -59zM335 801l-46 -25l-11 -22h45z" />
  </g>

</svg>
