<?xml version="1.0" standalone="no"?>
<!DOCTYPE svg PUBLIC "-//W3C//DTD SVG 1.1//EN" "http://www.w3.org/Graphics/SVG/1.1/DTD/svg11.dtd" >
<svg xmlns="http://www.w3.org/2000/svg" xmlns:xlink="http://www.w3.org/1999/xlink" version="1.1" viewBox="-10 0 3420 2048">
  <g transform="matrix(1 0 0 -1 0 1638)">
   <path fill="currentColor"
d="M115 1481l1399 -475l-6 349q0 93 17.5 148t59.5 114t124 141.5t347 323.5l273 -336l-152 -133q-186 -161 -223 -209t-47 -108l22 -82q48 -166 50 -360l365 -125q201 -68 348 -150t251.5 -171t175 -186t114 -193t77.5 -252l-323 -30l-384 586l-69 -4q-212 -13 -494 -13
q-58 0 -106 5q-15 -108 -27 -197t-26.5 -204t-14.5 -132q0 -33 40 -240q-14 -95 -81 -148h-157q-29 0 -123 22q-93 22 -108 22q-29 0 -117 -20q-98 -23 -126 -24h-448v161l58 11l142 30q28 7 99 33q74 27 103 35l153 34q61 11 90 31q91 62 124.5 126.5t33.5 169.5l-14 370
q-295 91 -599.5 271.5t-530.5 392.5t-305 391zM2040 356q358 0 583 21l388 -587l250 22q-41 177 -117 302.5t-181 223.5t-248 183t-318.5 149.5t-435.5 146.5q-586 181 -1788 601q91 -164 314 -362t505.5 -362t551.5 -251t496 -87zM1589 39q0 -134 -38.5 -209.5
t-133.5 -135.5q-27 -16 -172 -42q-96 -18 -198 -55q-76 -28 -104 -35l-157 -37v-84l396 1q34 0 129 21q99 22 126 22q22 0 117 -22q94 -22 119 -22h134q20 15 37 48.5t20 62.5q-5 21 -24 126.5t-15 109.5q0 49 68 536q-147 17 -316 65zM1865 1304q0 55 56.5 127.5
t182.5 179.5l161 139l-215 271q-280 -257 -361 -345.5t-111 -156t-30 -172.5q0 -144 8 -352l379 -128q-5 187 -50 346q-20 70 -20 91z" />
  </g>

</svg>
