<?xml version="1.0" standalone="no"?>
<!DOCTYPE svg PUBLIC "-//W3C//DTD SVG 1.1//EN" "http://www.w3.org/Graphics/SVG/1.1/DTD/svg11.dtd" >
<svg xmlns="http://www.w3.org/2000/svg" xmlns:xlink="http://www.w3.org/1999/xlink" version="1.1" viewBox="-10 0 2555 2048">
  <g transform="matrix(1 0 0 -1 0 1638)">
   <path fill="currentColor"
d="M2142 777q31 0 76.5 34.5t75 88.5t29.5 114q0 113 -73 172.5t-210 59.5q-115 0 -388 -84q-143 -42 -198.5 -54t-82.5 -12q-83 0 -128.5 21t-45.5 46q0 42 113 42q107 0 257 49q190 61 298 84.5t167 23.5q190 0 301.5 -90.5t111.5 -244.5q0 -71 -35.5 -162t-98.5 -183
l1 -20q0 -87 -70 -233t-198 -321l1 -22v-10q69 -175 79 -221l32 -102q20 -64 20 -104q0 -37 -26.5 -62t-79.5 -25h-127l-25 -5q-76 -24 -88 -24q-59 0 -59 62q0 27 70 76q-10 10 -10 19q0 33 67 33l43 -1q32 0 32 22q0 9 -123 291q-138 -172 -208 -343q-13 -39 -41 -67.5
t-68.5 -46.5t-61.5 -27.5t-55 -12.5q-52 0 -52 31l1 15q-14 0 -28 -14q-21 -26 -31.5 -31.5t-26.5 -5.5q-30 0 -57 17t-27 42q0 32 19.5 57.5t55 37.5t148.5 17q35 1 63 36l9 19q92 206 135 317q24 61 119 251q-7 20 -42 20l-18 -1q-64 -5 -366 -70q-75 -13 -247 -24l11 -64
q-57 -226 -61 -269l-5 -36l-15 -123q-7 -65 -14 -91.5t-16.5 -46t-20 -30.5t-59 -32.5t-76.5 -21.5q-52 0 -52 31l1 15q-14 0 -28 -14q-20 -24 -31.5 -30.5t-28.5 -6.5q-34 0 -58 17.5t-24 41.5q0 50 45 80t139 30h16q29 0 44 13t17 51l10 295l-15 23l-134 -129
q-46 -46 -109.5 -145t-91.5 -165q-31 -83 -116 -83h-128l-25 -5q-38 -12 -57.5 -18t-29.5 -6q-59 0 -59 62q0 32 24 64t59 46q-14 7 -14 17q0 38 134 38q25 0 78 -8q18 11 40 40.5t69.5 110t77.5 155.5l53 126q8 45 8 90q0 20 -1.5 46t-5 51t-16.5 81t-35 89q-19 21 -42 21
h-4q-62 -72 -80 -94l-13 -26q-13 -28 -47 -64t-76 -36q-40 0 -74 34l-16 -2q-18 0 -34 17.5t-19 37.5l-20 83q-5 16 -5 38q0 34 1.5 55.5t14.5 85.5q-24 30 -24 155q0 78 57 137t135 59q86 0 205 -56q43 -22 89 -34t73 -12q22 0 92 11q155 23 239 23q236 0 617 -89l150 -38
q274 -70 352 -70zM2142 737q-49 0 -130.5 16.5t-235.5 57.5q-243 63 -436 93t-317 30q-78 0 -233 -23q-73 -11 -98 -11q-51 0 -126 30v-2l-6 3l-33 16q-122 54 -201 54q-59 0 -100 -44t-47 -116q33 28 72 28l28 -4q5 -4 5 -13v-4q-3 -15 -10 -15q-64 0 -103 -56
q2 -52 23 -78q-15 -82 -15 -128l1 -19l12 -59l4 -20q4 -43 23 -58l9 -2q28 2 83 67l19 -14l-56 -69q18 -13 39 -13q27 0 54.5 33t39.5 68q6 7 21.5 26t33 39t34 35.5t25.5 16.5q73 0 100 -66h-1q25 -49 37.5 -127t12.5 -150q0 -58 -10 -84l-26 -63q-25 -64 -46.5 -111.5
t-71 -131.5t-75 -114.5t-49.5 -43.5q-42 13 -122 13q-49 -2 -50 -8v-5q0 -7 9 -8q34 -4 34 -8v-4q-2 -9 -17 -11q-40 -3 -73 -28t-33 -57q0 -22 19 -22q10 0 78 23q16 5 33 6h129q55 0 78 57q29 71 98 175.5t113 148.5l195 185q53 48 84.5 160t31.5 241h40v-12
q0 -153 -49 -279q30 3 72 6.5t87 8.5t88 11t73 12l133 29q185 42 246 42q36 0 71 -6.5t67 -32.5q12 125 23 169l40 -8q-28 -142 -28 -263q0 -92 14 -176l25 -54q41 -91 77.5 -179t36.5 -98q0 -52 -73 -52l-29 4l-37 3q-9 0 -9 -7t6 -8q27 -1 27 -10q-1 -9 -14 -18
q-75 -43 -75 -56q0 -22 19 -22q10 0 78 23q16 5 33 6h129q33 0 49.5 13.5t16.5 33.5q0 35 -19 94l-16 51l-15 51q-27 90 -80 224l-1 20q0 40 21 65l51 77q105 155 149.5 261.5t44.5 189.5v14q62 83 98 172t36 159q0 136 -101.5 215.5t-271.5 79.5q-115 0 -371 -80
q-163 -52 -228 -64.5t-123 -12.5h-49l-24 -2q0 -10 35.5 -18.5t98.5 -8.5q23 0 63.5 8.5t205.5 55.5q280 86 400 86q155 0 239 -69.5t84 -202.5q0 -72 -36.5 -134.5t-91.5 -102.5t-93 -40zM1833 80q-12 65 -12 166v25l1 25q-19 21 -36 31l-14 -30q-84 -167 -110 -235
q-11 -28 -71 -160t-93 -199q-23 -38 -74 -39q-27 -1 -67.5 -3.5t-62.5 -7.5t-41 -24.5t-19 -32.5q0 -9 11 -16t29 -7q15 0 32 23q15 17 30 22.5t42 5.5h70q-8 -11 -20.5 -20t-12.5 -17q0 -9 9 -9h5q36 6 95 41.5t80 87.5q72 155 122 227.5t107 145.5zM633 -403q0 -10 11 -17
t29 -7q15 0 32 23q15 17 30 22.5t42 5.5h70q-8 -11 -20.5 -20t-12.5 -17q0 -10 10 -10q28 0 85 34q38 22 52 141l9 87l10 86l23 104l37 158l-11 63l-37 -2h-13q-5 -23 -29 -60t-44 -52l-27 -24l25 -39l-9 -302q-2 -51 -30 -80t-74 -29q-35 0 -74.5 -5.5t-52.5 -14.5
t-22 -21.5t-9 -23.5zM328 896q0 29 17.5 50t45.5 21q38 0 66 -36t28 -76q0 -30 -18 -52l6 -41q-1 -6 -7 -11t-13 -6q-11 0 -19.5 10t-8.5 24q0 20 26 58q4 7 4 18q-2 34 -37 62q-7 8 -22 8q-33 0 -33 -53l2 -35l-30 26q-7 16 -7 33zM231 734q0 19 21 36.5t57 17.5l13 -1v-6
q0 -26 -19 -50t-47 -24q-10 0 -17.5 8t-7.5 19z" />
  </g>

</svg>
