<?xml version="1.0" standalone="no"?>
<!DOCTYPE svg PUBLIC "-//W3C//DTD SVG 1.1//EN" "http://www.w3.org/Graphics/SVG/1.1/DTD/svg11.dtd" >
<svg xmlns="http://www.w3.org/2000/svg" xmlns:xlink="http://www.w3.org/1999/xlink" version="1.1" viewBox="-10 0 2494 2048">
  <g transform="matrix(1 0 0 -1 0 1638)">
   <path fill="currentColor"
d="M100 463q0 132 78.5 211.5t207.5 79.5h1712q129 0 207.5 -79t78.5 -212v-124q0 -133 -79 -212t-207 -79h-1712q-129 0 -207.5 79.5t-78.5 211.5v124zM382 714q-110 0 -176 -69.5t-66 -181.5v-124q0 -113 66.5 -182t175.5 -69h1720q110 0 176 69.5t66 181.5v124
q0 113 -66.5 182t-175.5 69h-1720zM439 296q184 172 385 274.5t374 102.5q102 0 195 -25t179.5 -67t237.5 -145q64 -43 117 -76.5t103 -43.5l-6 -38q-76 13 -147 58q-40 -17 -302 -82t-366 -65q-146 0 -688 125l-57 -49zM997 432q0 -86 59 -144t141 -58q81 0 142 58t61 144
q0 83 -61 142t-142 59q-84 0 -142 -59.5t-58 -141.5zM1329 625q49 -31 80 -81t31 -112t-29 -112t-77 -82q180 31 436 106l79 22l-44 29l-111 75q-186 126 -365 155zM957 432q0 60 28.5 109t74.5 79q-239 -51 -507 -273q14 -3 43.5 -10t69.5 -16.5t88.5 -20t100 -21.5
t104 -21t100.5 -17q-46 33 -74 82t-28 109zM496 221q33 10 58 10q73 0 198 -36q100 -29 208.5 -39.5t260.5 -10.5q102 0 226 17.5t229 50.5q172 52 245 52q49 0 99 -16l-5 -37q-41 13 -92 13q-63 0 -239 -49q-244 -70 -483 -70q-284 0 -470 55q-12 3 -34.5 9t-47.5 11.5
t-48.5 9t-37.5 3.5q-10 0 -43 -6z" />
  </g>

</svg>
