<?xml version="1.0" standalone="no"?>
<!DOCTYPE svg PUBLIC "-//W3C//DTD SVG 1.1//EN" "http://www.w3.org/Graphics/SVG/1.1/DTD/svg11.dtd" >
<svg xmlns="http://www.w3.org/2000/svg" xmlns:xlink="http://www.w3.org/1999/xlink" version="1.1" viewBox="-10 0 1827 2048">
  <g transform="matrix(1 0 0 -1 0 1638)">
   <path fill="currentColor"
d="M1717 1020l-78 -286l45 -117l-15 -91l-74 -146l-58 25l40 113l-16 53l-43 -76l-56 21l59 260l21 243l-118 186l9 -167h-74l-53 -234l-4 -216l41 -5v-389l102 -72l173 -30v-92h-182l-278 78l-404 -59q-127 -19 -202 -19q-90 0 -141.5 45t-51.5 120q0 48 30.5 79.5
t105.5 65.5l335 150q-34 43 -52.5 92t-18.5 93q0 56 35.5 132.5t124.5 190.5l25 35l-64 67l-200 -212l-244 -144l-145 -194l-54 29l31 83l-51 -22l-61 -104l-56 29l64 151l70 60l100 37l253 215l158 222q81 143 133.5 204.5t118.5 83.5l41 13l-13 53l-83 -29l-49 129l-64 3
l102 226l4 27q15 58 57 89t122 31q99 0 170.5 -39.5t96.5 -104.5l125 115l59 -97l-111 -40l142 -2l-17 -112l-187 57l17 -353l64 -16q33 -7 57.5 -31t40 -60.5t146.5 -346.5zM138 551l16 -7l58 99l83 35l11 -13l-37 -95l17 -7l128 177l243 143l201 211l-38 46l116 176
l30 -18l-100 -157l126 -139l-53 -68q-61 -79 -100.5 -158.5t-39.5 -132.5q0 -89 62 -167l405 109l5 229l51 224h-237l47 642q55 76 61.5 88.5t6.5 19.5q0 29 -23 29q-22 0 -42 -26l-175 99l-82 -186l39 -2l42 -113l92 30l31 -125l-74 -21q-50 -15 -108 -84.5t-128 -190.5
l-162 -226l-252 -216l-105 -44l-64 -48zM1134 1078h257l-32 631l-5 147q0 44 -35 79.5t-91 56t-112 20.5q-117 0 -145 -88l160 -92q26 21 49 21q26 0 41 -19.5t15 -42.5q0 -13 -11 -32.5t-58 -82.5zM1308 553h-17l-396 -109l-402 -174l86 -107l729 41v349zM1579 67l-148 18
l-119 86l-754 -43l-102 124q-59 -31 -59 -85q0 -58 40 -92.5t112 -34.5q42 0 111.5 8t510.5 72l270 -82h138v29zM1582 1017l-28 -250l-56 -227l15 -8l49 90l17 -1l26 -85l-38 -109l16 -7l53 111l10 79l-45 121l73 298l-126 286q-24 52 -31.5 63.5t-16.5 21.5t-17 15t-72 23
l11 -151zM1058 1778l-48 -5q-41 0 -71 26q6 8 23 13.5t31 5.5q23 0 37 -9t28 -31z" />
  </g>

</svg>
