<?xml version="1.0" standalone="no"?>
<!DOCTYPE svg PUBLIC "-//W3C//DTD SVG 1.1//EN" "http://www.w3.org/Graphics/SVG/1.1/DTD/svg11.dtd" >
<svg xmlns="http://www.w3.org/2000/svg" xmlns:xlink="http://www.w3.org/1999/xlink" version="1.1" viewBox="-10 0 2514 2048">
  <g transform="matrix(1 0 0 -1 0 1638)">
   <path fill="currentColor"
d="M937 555q-162 27 -412 80.5t-305 69.5l-92 -84l-28 28q266 250 555 398.5t544 148.5q149 0 284.5 -36t265.5 -100.5t336 -206.5q91 -63 169 -111t150 -62l-8 -40q-78 14 -207 96q-57 -19 -299 -82.5t-433 -99.5l322 -991l-38 -12l-324 996q-125 -23 -200 -23v-973h-40
v974q-76 4 -200 23l-324 -997l-38 12zM906 859q0 -121 85.5 -206.5t206.5 -85.5t206.5 85.5t85.5 206.5t-85.5 206.5t-206.5 85.5t-206.5 -85.5t-85.5 -206.5zM2063 820q-189 129 -284 179t-197 88t-212 55q72 -44 116 -118t44 -165q0 -84 -40.5 -158.5t-111.5 -120.5
q286 46 768 184l-83 57v-1zM866 859q0 88 41 160t109 117q-174 -36 -366 -136.5t-391 -262.5q148 -37 378 -85t377 -69q-67 45 -107.5 117t-40.5 159z" />
  </g>

</svg>
