<?xml version="1.0" standalone="no"?>
<!DOCTYPE svg PUBLIC "-//W3C//DTD SVG 1.1//EN" "http://www.w3.org/Graphics/SVG/1.1/DTD/svg11.dtd" >
<svg xmlns="http://www.w3.org/2000/svg" xmlns:xlink="http://www.w3.org/1999/xlink" version="1.1" viewBox="-10 0 1298 2048">
  <g transform="matrix(1 0 0 -1 0 1638)">
   <path fill="currentColor"
d="M623 1919q-93 0 -179.5 -29t-153.5 -80.5t-108.5 -117.5t-41.5 -115q0 -48 47 -71t163 -23h96q146 0 220 -70.5t74 -203.5q0 -47 -25.5 -126t-96.5 -232l-86 -184q-143 -311 -143 -506q0 -124 49.5 -219.5t148.5 -151t218 -55.5q130 0 208.5 67.5t78.5 175.5q0 61 -44 99
t-112 38q-65 0 -125.5 -45t-103.5 -125q-65 26 -102.5 93t-37.5 164q0 86 45.5 186.5t148.5 238.5l192 255q195 255 195 498q0 145 -70 270t-191.5 197t-263.5 72zM623 1959q153 0 284.5 -78.5t206 -212t74.5 -288.5q0 -253 -203 -522l-192 -255q-99 -129 -142.5 -224
t-43.5 -177q0 -64 22.5 -120.5t58.5 -86.5q44 76 109.5 118t138.5 42q88 0 142 -49t54 -128q0 -81 -40 -146t-114 -101t-173 -36q-131 0 -239.5 61t-162.5 164.5t-54 240.5q0 208 147 522q128 273 153 335.5t38 110t13 80.5q0 116 -65 175t-189 59h-96q-139 0 -194.5 33
t-55.5 101q0 57 46.5 131t119.5 131t164.5 88.5t192.5 31.5z" />
  </g>

</svg>
