<?xml version="1.0" standalone="no"?>
<!DOCTYPE svg PUBLIC "-//W3C//DTD SVG 1.1//EN" "http://www.w3.org/Graphics/SVG/1.1/DTD/svg11.dtd" >
<svg xmlns="http://www.w3.org/2000/svg" xmlns:xlink="http://www.w3.org/1999/xlink" version="1.1" viewBox="-10 0 3258 2048">
  <g transform="matrix(1 0 0 -1 0 1638)">
   <path fill="currentColor"
d="M3148 192h-110q-36 0 -119.5 -18t-342.5 -87q-349 -95 -505.5 -126t-242.5 -31q-89 0 -336.5 61.5t-554.5 159.5q21 89 77.5 142.5t145.5 53.5q101 0 362 -64q205 -48 260 -48q96 0 266 76q-149 125 -331.5 194.5t-368.5 69.5q-202 0 -446 -116.5t-470 -302.5l-332 379
q15 14 66.5 62.5t135.5 112.5t198 134.5t254.5 130t304 98t347.5 38.5q142 0 269 -25.5t245.5 -69t305.5 -141.5q116 -64 231 -104t239.5 -71.5t236.5 -48t201 -16.5h14v-443zM3108 232v363q-150 0 -392.5 58.5t-392.5 127.5l-115 58q-185 98 -298 140t-238 67t-266 25
q-217 0 -443.5 -66t-444.5 -196.5t-363 -275.5l281 -321q134 108 303.5 206t324.5 147.5t284 49.5q203 0 405.5 -84.5t360.5 -227.5q-89 -49 -179 -78.5t-153 -29.5q-65 0 -270 50q-259 62 -352 62q-61 0 -106 -35.5t-64 -96.5q666 -205 838 -205q158 0 536 102l352 96
q238 64 322 64h70z" />
  </g>

</svg>
