<?xml version="1.0" standalone="no"?>
<!DOCTYPE svg PUBLIC "-//W3C//DTD SVG 1.1//EN" "http://www.w3.org/Graphics/SVG/1.1/DTD/svg11.dtd" >
<svg xmlns="http://www.w3.org/2000/svg" xmlns:xlink="http://www.w3.org/1999/xlink" version="1.1" viewBox="-10 0 2032 2048">
  <g transform="matrix(1 0 0 -1 0 1638)">
   <path fill="currentColor"
d="M1774 -288q-60 0 -117.5 33.5t-106.5 92t-73 118.5l-289 164l-48 -42l-49 -5l-70 59l5 43l-24 16l11 29l-494 282l-80 -26l-25 25l-28 1l-75 71l12 40l-223 128l32 56l243 -139l5 3l73 9l443 189l25 39l6 404q-148 103 -228 190t-80 147q0 33 16 50.5t61 17.5
q21 0 206 -37q111 -23 141 -23q54 0 106 13t127 52q33 17 63.5 30t65.5 13q32 0 54.5 -22.5t38 -63.5t39.5 -158q24 -119 35.5 -148t33.5 -58t122 -138h-1q74 -77 96 -107t22 -46q0 -52 -84 -52q-98 0 -224 36l18 -364l-8 -36l-319 -399l-8 -23l287 -164q13 3 48.5 14.5
t89.5 11.5q108 0 192.5 -58t84.5 -131q0 -59 -43.5 -98t-104.5 -39zM1805 1014q0 13 -107 125q-123 129 -149 178.5t-52 185.5q-23 110 -33.5 142t-25 51t-33.5 19q-40 0 -111 -39q-126 -69 -251 -69q-37 0 -149 23l-149 29l-49 8q-37 0 -37 -28q0 -60 129.5 -173.5
t325 -229t362 -175t285.5 -59.5q44 0 44 12zM565 549l488 -278l114 81l179 314l-16 407q-66 29 -202 106l-5 -379l-31 -49l-436 -167l-75 -17zM1047 145l56 -46l18 1l42 35l19 34l16 48l313 395l4 24l-23 376q-62 20 -122 45l14 -407l-188 -315l-115 -80l19 -11l-50 -71z
M1518 -38q39 -89 110.5 -149t146.5 -60q46 0 75.5 25.5t29.5 67.5q0 60 -73 105.5t-164 45.5q-55 0 -115 -17zM1206 139l278 -158l7 12l-280 159zM340 633l12 9l-212 121l-6 -12zM341 575l49 -44l24 -2l130 57l104 30l413 161l22 33l5 390l-120 77l-10 -390l-26 -46
l-468 -203l-77 -8l-37 -32zM451 503l39 16l-14 7l-33 -14zM1038 190l8 11l-13 8l-7 -13zM1061 221l10 11l-549 313l-16 -6z" />
  </g>

</svg>
