<?xml version="1.0" standalone="no"?>
<!DOCTYPE svg PUBLIC "-//W3C//DTD SVG 1.1//EN" "http://www.w3.org/Graphics/SVG/1.1/DTD/svg11.dtd" >
<svg xmlns="http://www.w3.org/2000/svg" xmlns:xlink="http://www.w3.org/1999/xlink" version="1.1" viewBox="-10 0 1424 2048">
  <g transform="matrix(1 0 0 -1 0 1638)">
   <path fill="currentColor"
d="M182 355l27 30l-22 13l16 82h-83l-20 39l122 357l-10 19q39 187 155 276t350 89q301 0 449 -157t148 -479v-484h-210v-140h-531l-26 168l-157 7l-126 -183l-111 26l59 241zM243 480l-18 -85h127l-9 -35h-119l26 -101l-50 -213l50 -12l120 179l209 -10l27 -168h458v105
q-60 0 -124.5 74.5t-102.5 204.5q-16 -12 -37 -12q-86 0 -86 92v61h40v-76q0 -39 46 -39q24 0 68 45.5t74.5 103t30.5 99.5q0 68 -21.5 97t-60.5 29q-46 0 -66.5 -16t-20.5 -67v-81h-126v119q0 38 -10.5 60t-31.5 32t-78 10h-298l-127 -361h141v45l40 7v-63l-24 -24h-47z
M1274 175v450q0 305 -139.5 451t-413.5 146q-148 0 -236.5 -29.5t-141 -93.5t-86.5 -188h301q93 0 126.5 -30.5t33.5 -113.5v-77h46v46q0 60 27 90.5t99 30.5q123 0 123 -145q0 -66 -26.5 -121.5t-116.5 -150.5q18 -78 51.5 -138.5t72.5 -93.5t74 -33h206zM595 711l-52 -13
l-26 5q-89 -31 -134 -31q-35 0 -62 8t-39 8t-36 -12l-14 18q58 63 82 83.5t49 20.5q27 0 68 -19l114 -49l43 6zM368 768q-16 0 -24.5 -11t-8.5 -22q0 -15 10.5 -24t27.5 -9q14 0 23.5 10.5t9.5 22.5t-6 21q-18 12 -32 12zM435 743l1 -10q0 -14 -7 -26q19 3 59 17zM310 711
q-5 13 -5 24l-21 -18z" />
  </g>

</svg>
