<?xml version="1.0" standalone="no"?>
<!DOCTYPE svg PUBLIC "-//W3C//DTD SVG 1.1//EN" "http://www.w3.org/Graphics/SVG/1.1/DTD/svg11.dtd" >
<svg xmlns="http://www.w3.org/2000/svg" xmlns:xlink="http://www.w3.org/1999/xlink" version="1.1" viewBox="-10 0 2527 2048">
  <g transform="matrix(1 0 0 -1 0 1638)">
   <path fill="currentColor"
d="M2381 0h-197l25 94l43 59l-19 342l-37 38l31 -61q-13 -84 -13 -130l3 -61l-5 -127l-69 -75l-8 -79h-193l25 94l83 121l-4 98q-8 56 -33.5 117t-56.5 95q-87 96 -174 183q-69 -29 -143.5 -48.5t-119.5 -19.5q-67 0 -161 23.5t-184 60.5v-7q0 -67 11 -98l41 -132l-22 -78
q26 -128 67 -296l-33 -33l-8 -80h-193l22 89l53 79l-71 234l-69 58l-9 71l-8 -41l-57 -113l-33 -72l-11 -38l-27 -119l-59 -68l-8 -80h-193l25 94l87 126l107 582l-48 61h1q-24 31 -140 251l-25 17v-33q0 -38 -16 -60t-42 -22q-29 0 -44.5 20.5t-15.5 72.5l2 73l-97 -6
l-113 -68l-56 8l-70 -10l-22 92q26 73 63.5 169.5t56 128.5t52.5 67l2 42q0 93 -33 167l46 2q82 -68 107 -133q19 6 42 6l16 -1q13 52 13 122h47q73 -93 82 -180l58 -46q77 -48 227 -115.5t273.5 -102t211.5 -34.5q105 0 190.5 15t157.5 31q130 28 181 28q63 0 156.5 -32
t200.5 -87q13 10 25 38t12 56q0 79 -56 164q80 -18 132.5 -73t52.5 -126q0 -53 -33 -118.5t-84 -122.5l-84 -209l34 -121l150 -201l-4 -192l17 -215l-19 -50zM2176 283l-1 36l-1 16l11 131l-83 166l14 84l149 370q52 47 81.5 105t29.5 109q0 44 -21 84.5t-58 60.5
q24 -37 24 -104q0 -42 -26.5 -91.5t-45.5 -49.5q-101 56 -197 90t-159 34q-53 0 -173 -28q-71 -16 -159 -31t-197 -15q-75 0 -167 22t-188.5 57.5t-218.5 95t-163 86.5l-31 23l-5 -50l-40 6l4 51q0 59 -20 117l3 -35q0 -44 -16 -103l-25 11q12 41 12 88q0 37 -7 73
q-11 -77 -40 -137l-36 16l14 36q-52 0 -103.5 -40t-84.5 -95q-22 -33 -112 -277l12 -44l22 3q52 52 85 71l18 -28q-26 -15 -56 -45l21 -4l113 66l142 11l132 -80q122 -237 142 -260l23 -29q81 -98 107 -139l99 -164l7 -74l68 -54l73 -263l-23 -44l79 -18l22 25v-1l1 1
l-65 289l29 75q-46 116 -51.5 145.5t-5.5 82.5v21l3 51q0 88 -22 163l38 10q24 -90 24 -182v-11q81 -39 175 -64t167 -25q80 0 237 60q-30 49 -30 101q0 85 55 170l34 -22q-49 -75 -49 -148q0 -47 40 -102q119 -119 180 -188q75 -88 100 -233l4 -103l-59 -97l89 -5l49 58z
M822 760l-107 -558l-54 -63l103 -10l25 36l27 117q7 29 24.5 67t75.5 155l15 87l-64 106zM2145 646l127 -134l18 -370l-19 -23l100 3l-16 218l4 180l-146 195l-23 77l-35 -87zM328 1368v50l20 27h99v-34l-57 -15l-34 -28h-28zM731 97l-86 8l-17 -29l-9 -36h103zM2343 40
l6 46l-100 -2l-13 -44h107zM534 1098v16l-1 36v9l-35 24l-2 -53v-35q0 -15 5 -27t15 -12q6 0 12 12.5t6 29.5zM2097 40l5 38l-97 2l-11 -40h103zM1192 40l3 25l-94 16l-12 -41h103zM314 1601q21 16 42 26q-18 45 -51 78q9 -47 9 -100v-4zM223 1238l-35 -38l-21 23l40 34z
" />
  </g>

</svg>
