<?xml version="1.0" standalone="no"?>
<!DOCTYPE svg PUBLIC "-//W3C//DTD SVG 1.1//EN" "http://www.w3.org/Graphics/SVG/1.1/DTD/svg11.dtd" >
<svg xmlns="http://www.w3.org/2000/svg" xmlns:xlink="http://www.w3.org/1999/xlink" version="1.1" viewBox="-10 0 2520 2048">
  <g transform="matrix(1 0 0 -1 0 1638)">
   <path fill="currentColor"
d="M688 354q-29 -18 -58 -35.5t-51 -37.5q-33 -30 -80 -109q-5 -12 -32.5 -62t-42.5 -59l-81 -19l-81 -32l-71 14l-42 90l58 66h116l166 362l-96 127l-44 -41l-74 -3l-44 47l-5 19h-19l-94 97q-12 13 -12 32q0 27 17 44l188 206l-1 19q0 48 18.5 76.5t48.5 28.5q31 0 48 -22
q17 14 57 14q33 0 59 -21t30 -48q69 -14 130.5 -73t85.5 -133q91 -16 205 -16q65 0 250 35q221 40 310 40q109 0 193.5 -22.5t150.5 -63t117.5 -97.5t95 -127.5t130.5 -256.5q45 -93 57 -106h-1q17 -19 70 -60q50 -39 50 -98q0 -38 -19.5 -62t-46.5 -24q-97 0 -126 93l-8 37
q-8 39 -79 187t-117.5 228.5t-96 122.5t-102.5 49q8 -140 28.5 -211t51.5 -89l198 -115l-7 -173l16 -75l-32 -65h-83l-81 -32l-71 14l-42 90l58 66h87l-14 88l-208 81l-11 -63l-40 -112l-19 -110l-93 -22l-81 -32l-71 14l-42 90l58 66h107l21 156l-17 19q-29 29 -91 136
q-88 -30 -207 -49t-230 -19q-76 0 -131 14l15 -31l4 -83l44 -216l-32 -65h-83l-81 -32l-71 14l-42 90l58 66h87l-16 56zM1975 130h-106l-30 -33l3 -6l50 23l7 -15l-50 -24l7 -14l50 23l7 -15l-44 -21l33 -6l77 30h66l15 27l-14 67l11 158l-182 102q-42 23 -68 119.5
t-30 223.5q-30 19 -46 50l25 17q14 -20 24.5 -26.5t27.5 -9.5q63 -11 116.5 -50t93 -92.5t131 -246.5t99.5 -230q12 -58 37 -78t54 -20q15 0 25 14t10 34q0 23 -13 42l-25 23q-41 31 -67.5 55.5t-69.5 123.5q-32 67 -64 133t-69.5 127t-84.5 113t-108.5 90t-141.5 60
t-184 22q-78 0 -219 -25q-172 -31 -232 -40.5t-109 -9.5q-114 0 -195 13q5 -34 5 -59v-13l-34 2v12q0 63 -33 123.5t-73.5 97t-84.5 49.5l2 -22q0 -49 -16 -84l-37 17q13 25 13 62q0 44 -15.5 68.5t-43.5 24.5q-23 0 -38 -8.5t-27 -30.5l-28 -9l-215 -238q6 -20 6 -43
q0 -19 -6 -32l58 -56l10 -3l78 64l20 -21l-71 -69l6 -13l13 -16l8 -9l43 6l164 152l9 34l-22 72l38 12l26 -84l-17 -56l-107 -102l86 -114l10 22l36 -16l-211 -448h-119l-30 -33l3 -6l50 23l7 -15l-50 -24l7 -14l50 23l7 -15l-44 -21l33 -6l77 30l65 13q8 8 27.5 42t27.5 50
q63 122 153 175q105 61 136 93.5t53.5 91t22.5 98.5h40q0 -32 -13.5 -80.5t-24.5 -75.5q76 -27 193 -27q112 0 233.5 21.5t225.5 57.5q-14 33 -24.5 95t-10.5 107h40q0 -77 21.5 -146.5t66 -118t108 -76t281.5 -107.5l28 -142zM1473 490q40 -81 107 -154l-26 -206h-119
l-30 -33l3 -6l50 23l7 -15l-50 -24l7 -14l50 23l7 -15l-44 -21l33 -6l77 30l68 17l17 81l38 108l8 69q-45 19 -95 59.5t-86 89.5zM801 130h-102l-30 -33l3 -6l50 23l7 -15l-50 -24l7 -14l50 23l7 -15l-44 -21l33 -6l77 30h66l15 27l-42 212l-4 78l-17 42l-17 5l-9 4
q-16 -19 -28.5 -30t-50.5 -35l67 -143l24 -88zM291 925q19 26 45 26q29 0 47 -22q-26 -26 -52 -26q-27 0 -40 22zM389 1142q-6 5 -13 5q-32 0 -34 -53z" />
  </g>

</svg>
