<?xml version="1.0" standalone="no"?>
<!DOCTYPE svg PUBLIC "-//W3C//DTD SVG 1.1//EN" "http://www.w3.org/Graphics/SVG/1.1/DTD/svg11.dtd" >
<svg xmlns="http://www.w3.org/2000/svg" xmlns:xlink="http://www.w3.org/1999/xlink" version="1.1" viewBox="-10 0 2132 2048">
  <g transform="matrix(1 0 0 -1 0 1638)">
   <path fill="currentColor"
d="M977 1330l-269 -281l-60 -3l-341 298v-1344h-74v1405h-31l-63 50l-35 69l-4 27l40 89l27 15l17 -8l21 30l28 -14v388h74v-424l20 -9l49 -64l28 -89l246 -204q170 203 240 261l-81 38l-71 -51l-100 69l-42 -34l-84 225l-16 24q-20 36 -20 73q0 70 73.5 127t155.5 57
q72 0 127.5 -48.5t78.5 -153.5l21 -113l45 -16l14 3l55 33q37 22 113 22l63 -4l390 -52l266 -325l59 -19l46 -50l39 -138l-49 -20l-39 96l-39 22l22 -88l-49 -19l-75 129l-256 273l-237 16q79 -64 192 -165t136 -128q91 -38 132 -94t41 -139q0 -53 -55.5 -155.5
t-149.5 -227.5l95 -157q83 -133 111 -241t28 -291h-386v106l136 28q73 15 73 58q0 24 -35 69l-180 255h-138l-184 -516h-334v106l167 28q28 6 45 27.5t26 70.5l91 447l242 342v126zM964 1372l420 -194l197 129l-383 333l356 -24l263 -291l59 -116l18 9l-25 95l11 10l62 -28
l41 -95l11 4l-33 107l-45 39l-60 21l-270 321l-372 44l-51 3q-60 0 -99 -18.5t-67 -47.5l-88 32l-119 9l-12 75q-9 54 -34 54q-19 0 -19 -28v-8l1 -9l-180 -24l65 -173l24 17l98 -67l75 53l138 -79q-138 -127 -291 -311l-271 220l-38 107l-35 50l-100 58l-10 -18l20 -11
l71 -49l23 -68l-8 -12v-98l348 -307h38zM1627 556l-83 143q103 133 160 229.5t57 141.5q0 65 -37 121.5t-116 84.5l-1 1l-212 -140l-1 -133l-238 -334l-24 -114h495zM1491 516l169 -250q36 -48 36 -79q0 -68 -112 -89l-102 -21v-33h310v26q0 114 -27.5 217.5t-77.5 181.5
l-29 47h-167zM1093 44l168 472h-136l-66 -298q-14 -59 -39 -85.5t-60 -34.5l-140 -21v-33h273zM894 1742l-21 105q-17 73 -59 116t-97 43q-76 0 -137.5 -47t-61.5 -106q0 -19 9 -40l165 19q5 51 44 51q32 0 51 -27t24 -71l4 -34zM167 1624l-35 -72l3 -19l32 -68l41 -25l35 2
l40 71l-16 47zM695 1756q-43 -59 -90 -59h-7q-5 0 -5 4q0 27 20 45.5t44 18.5q15 0 38 -9z" />
  </g>

</svg>
