<?xml version="1.0" standalone="no"?>
<!DOCTYPE svg PUBLIC "-//W3C//DTD SVG 1.1//EN" "http://www.w3.org/Graphics/SVG/1.1/DTD/svg11.dtd" >
<svg xmlns="http://www.w3.org/2000/svg" xmlns:xlink="http://www.w3.org/1999/xlink" version="1.1" viewBox="-10 0 1434 2048">
  <g transform="matrix(1 0 0 -1 0 1638)">
   <path fill="currentColor"
d="M1162 157l162 -68v-89h-1224v89l212 90l-103 465q-17 79 -17 146q0 50 35.5 88.5t86.5 38.5q37 0 63 -11t48 -35.5t241 -294.5l42 335q4 36 14 72h-87v71q0 118 57 215q33 56 59.5 86t26.5 39q0 18 -82 18q-87 0 -305 -68q-18 -5 -36 -5q-28 0 -41 14l-30 -1
q-20 0 -34 15t-14 31q0 20 66 82.5t144 114t163.5 87.5t162.5 45l4 318l183 -15l-71 -303l11 -2l121 295l162 -85l-177 -243q117 -55 177.5 -203t60.5 -377v-129h-88q7 -37 7 -83v-743zM1124 136v756q0 125 -48.5 191.5t-137.5 66.5q-155 0 -189 -245l-53 -389l-25 -10
l-240 298q-22 27 -49.5 50t-62.5 23q-38 0 -63.5 -25t-25.5 -63q0 -48 22 -151l106 -474l-218 -98v-26h1144v26zM1122 1922l-82 43l-122 -283q-24 6 -69 8l60 306l-92 8l-9 -313q-68 -3 -144.5 -31.5t-156.5 -76.5t-155.5 -111t-75.5 -74q0 -6 8 -6h26q51 43 147 71l7 -25
q-75 -23 -118 -57l9 -2l25 3q225 70 316 70q74 0 102.5 -14t28.5 -44q0 -12 -32 -51q-54 -68 -68 -94q-52 -100 -52 -195v-31h59q64 167 207 167q74 0 127 -41.5t78 -125.5h58v89q0 231 -65.5 373t-189.5 188zM681 1582q-32 0 -67 20q28 33 65 33q32 0 62 -28
q-16 -11 -28.5 -18t-31.5 -7z" />
  </g>

</svg>
