<?xml version="1.0" standalone="no"?>
<!DOCTYPE svg PUBLIC "-//W3C//DTD SVG 1.1//EN" "http://www.w3.org/Graphics/SVG/1.1/DTD/svg11.dtd" >
<svg xmlns="http://www.w3.org/2000/svg" xmlns:xlink="http://www.w3.org/1999/xlink" version="1.1" viewBox="-10 0 1493 2048">
  <g transform="matrix(1 0 0 -1 0 1638)">
   <path fill="currentColor"
d="M1212 541l37 -46l20 -211l-33 -112l12 -50l16 3l-9 38l17 74l31 5l28 -94l-3 -63l-30 -50l16 -8l30 48l14 58l-30 141l-30 328l-27 28l-380 -9l-29 295l-194 35l-76 -330l-380 9l-27 -28l-30 -328l-30 -141l14 -58l30 -48l16 8l-30 50l-3 63l28 94l31 -5l17 -74l-9 -38
l16 -3l12 50l-33 112l20 211l37 46l195 -14q26 -10 83 -21.5t119 -17.5v-104l-89 -6l-15 -104l-27 -4l40 -93h147q11 -11 25 -11q27 0 27 34q0 5 -3.5 15.5t-9 21.5t-56.5 79l87 77v92q101 8 174 37zM487 1418l183 -433l191 -36q44 54 61.5 118t17.5 118l-2 44
q-12 72 -12 128q0 23 17 61h-456zM195 2014v-27l113 -17q29 -7 49 -29t33 -71l65 -248v-85l30 -83h119l-179 560h-230zM948 1454q63 252 63 442q0 73 -8 118h-222v-27l85 -17q89 -15 89 -74l-3 -28l-100 -355l-9 -59h105zM749 310l42 -51q10 -12 16.5 -31t6.5 -34
q0 -22 -14 -42t-40 -20q-21 0 -31 10h-133l-3 -29q0 -35 32.5 -54.5t93.5 -19.5q66 0 108 40t42 101q0 52 -30 98l-52 68zM676 214q-25 -25 -53 -25q-14 0 -27 6t-13 16q0 20 45 20q24 0 48 -17zM825 450v-92l40 -58q42 -69 42 -126q0 -75 -51.5 -124.5t-139.5 -49.5
q-79 0 -122 29t-43 83v13l3 27l-65 142l48 6l16 104l81 6v49q-31 2 -96.5 13.5t-88.5 19.5l-156 15l-29 -31l-17 -186l25 -109l-18 -82l-62 12l12 53l-5 30l-7 1l-12 -52l-1 -56l35 -60l-54 -26l-45 64l-15 66l21 143l30 349l47 43l365 -6l74 309l-214 485h22l-28 78l3 86
l-63 240q-14 44 -18.5 52.5t-11.5 15t-15.5 10.5t-148.5 27v88h287l190 -597h163l9 61q104 362 104 367v10q0 36 -60 48l-113 23v88h294q10 -70 10 -145q0 -205 -59 -452l-12 -55q-9 -35 -9 -52l3 -70l4 -31q5 -29 5 -63q0 -68 -18 -127.5t-64 -125.5l23 -270l365 6l47 -43
l30 -349l21 -143l-15 -66l-45 -64l-54 26l35 60l-1 56l-12 52l-7 -1l-5 -30l12 -53l-62 -12l-18 82l25 109l-17 186l-29 31l-205 -20q-97 -30 -160 -37z" />
  </g>

</svg>
