<?xml version="1.0" standalone="no"?>
<!DOCTYPE svg PUBLIC "-//W3C//DTD SVG 1.1//EN" "http://www.w3.org/Graphics/SVG/1.1/DTD/svg11.dtd" >
<svg xmlns="http://www.w3.org/2000/svg" xmlns:xlink="http://www.w3.org/1999/xlink" version="1.1" viewBox="-10 0 2358 2048">
  <g transform="matrix(1 0 0 -1 0 1638)">
   <path fill="currentColor"
d="M1187 1521l-13 53l-83 -29l-49 129l-64 3l102 226l4 27q15 58 57 89t122 31q118 0 198 -57t80 -146q0 -47 -25 -98t-97 -146v-78l210 -50q33 -7 54.5 -31t29.5 -55l129 -412l176 -336l70 -57l93 -38l67 -152l-52 -31l-64 106l-40 17l36 -71l-74 -39l-111 179l-264 340
l-120 341l-83 -323l-12 -222h2v-325h68l41 -190q4 -17 4 -33q0 -35 -19.5 -63t-83 -54t-93.5 -26l-29 79l60 31q15 10 15 20q0 9 -42 100l-431 -171q-150 -59 -243 -59q-76 0 -127 44t-51 115v9l1 9l-26 -42l-18 -135h-392v92l166 24l77 24l40 57q27 124 76 341t68 246
l-183 -116l-59 -81l-162 -32l-19 68l118 37l25 37l-86 -21l-19 57l204 69l293 240l244 360q28 36 77 56.5t116 36.5zM1014 1291l120 -515l-13 -143l311 65l9 225l92 351l48 -3l123 -343l262 -352l98 -168l32 18l-45 89l14 13l80 -31l52 -90l15 8l-52 111l-85 32l-81 64
l-190 343l-115 377q-15 50 -30 70.5t-35 26.5l-243 61v95l-100 85q55 76 61.5 88.5t6.5 19.5q0 29 -23 29q-22 0 -42 -26l-175 99l-82 -186l39 -2l42 -113l92 30l31 -125l-157 -34q-47 -9 -97 -33t-68 -49l-239 -360l-313 -244l-175 -54l5 -14l97 23l9 -20l-47 -72l-100 -30
l5 -16l120 26l50 76l411 268l268 330h14zM671 837q-17 0 -46 -12t-36 -19q-29 -29 -53 -116q-48 -192 -119 -509l-52 -71l-86 -23l-140 -20v-29h319l14 97q33 48 86.5 167.5t71.5 201t25 174.5l22 10q23 -6 49 -30.5t56 -61t89 -124.5l184 128q-94 111 -195.5 174t-188.5 63
zM664 276l70 -99q134 74 315.5 124.5t378.5 63.5v295l-323 -72zM1405 33q50 16 94 40t44 77l-3 26l-36 152q-422 -4 -779 -199l-92 121q-29 -16 -44.5 -41t-15.5 -51q0 -51 41.5 -84.5t101.5 -33.5q78 0 240 63l445 176l52 -111q9 -20 9 -38q0 -30 -19 -40l-50 -26z
M1085 626l11 148l-107 454l-245 -306l-71 -45q96 0 216.5 -75t195.5 -176zM1394 1629q64 85 86.5 135t22.5 92q0 44 -35 79.5t-91 56t-112 20.5q-117 0 -145 -88l160 -92q26 21 49 21q26 0 41 -19.5t15 -42.5q0 -20 -31 -65l-29 -36zM578 260q26 27 75 60l186 130
q-41 65 -82.5 115.5t-68.5 66.5q0 -37 -9 -89t-22 -94.5t-79 -188.5zM1159 1773q-41 0 -71 26q6 8 23 13.5t31 5.5q23 0 37 -9t28 -31z" />
  </g>

</svg>
