<?xml version="1.0" standalone="no"?>
<!DOCTYPE svg PUBLIC "-//W3C//DTD SVG 1.1//EN" "http://www.w3.org/Graphics/SVG/1.1/DTD/svg11.dtd" >
<svg xmlns="http://www.w3.org/2000/svg" xmlns:xlink="http://www.w3.org/1999/xlink" version="1.1" viewBox="-10 0 1703 2048">
  <g transform="matrix(1 0 0 -1 0 1638)">
   <path fill="currentColor"
d="M786 1977q0 27 33 54l6 8q0 8 -15 8h-8q-25 0 -25 15q0 35 61 35q32 0 51.5 -14.5t19.5 -32.5q0 -21 -6 -33q49 34 128 34q67 0 111 -27.5t64 -71.5q14 7 31 7q32 0 49 -17t17 -46q0 -23 -14 -41t-50 -36l68 -50l-61 -72l-53 75l-66 -101v-60h46q54 0 88 -13.5t51 -41.5
t150 -262v-340l66 -42l9 -58h56v-42h-52v-40l-21 -22l-106 9l-15 19v9l-22 25h-118l-1 -7q-6 -50 -6 -98l4 -110q59 -247 59 -452q0 -75 -10 -145h-294v88l113 23q60 12 60 48v11q0 4 -104 366l-9 61h-123l-190 -597h-287v88l128 23q19 4 31.5 17t26 60.5t68.5 243.5l-7 87
l27 78l70 215h-76q-14 -30 -41.5 -52t-52.5 -22t-52.5 22t-41.5 52h-46v42h45q14 30 41.5 53t53.5 23q24 0 53 -23.5t41 -52.5h90l91 278l-10 88l-52 144l-227 -226l-377 186l-16 -4v-365h71l-71 -137v-818h-70v822l-69 133h69v378l-20 7l-32 21l-11 17l-5 75l11 20h16
l-2 32h43v531h70v-531h20l32 -24l51 -45l278 -111l115 176q26 41 71 68.5t97 27.5h42v44l-44 3l-108 -70l-37 82l107 27l-10 68l-48 6l53 117h-32v33q-39 28 -39 70zM1127 1571q-34 0 -34 43v62l-63 59l38 62q6 9 14.5 27.5t8.5 26.5q0 15 -5 23h-194l-40 -93l27 -4l15 -104
l84 -6v-105h-77q-31 0 -53 -9t-38 -22t-27 -28.5t-20 -27.5l-131 -192l-293 120l-67 59l-43 18l-81 4l1 -16l76 -11l43 -34l-2 -64l358 -177l225 224l30 -5l68 -184l7 -75l201 22l6 71l47 181l30 6l141 -203l11 -294l7 -71h14l5 18l14 1l8 -19l-18 -57l13 -18l75 -6l9 10
l-1 64l-15 54l-73 44v337l-131 227q-21 39 -45 50.5t-65 11.5h-60zM867 854h362q19 68 19 93q0 53 -23 93t-66 88l-209 -21zM1215 633l-1 84q0 44 5 88l1 7h-365l-54 -179h414zM733 37l179 560h-122l-30 -83l5 -86l-67 -247q-13 -49 -32.5 -72t-49.5 -28l-113 -17v-27h230z
M1111 597l9 -59l100 -355l3 -28q0 -59 -89 -74l-85 -17v-27h222q8 45 8 118q0 190 -63 442h-105zM1287 949q0 -21 -20 -95h100l-8 68l-18 294l-108 149l-37 -142l-7 -72q58 -56 78 -101t20 -101zM905 1938v-13l1 -10h268q-13 39 -48 68t-95 29q-61 0 -93.5 -19.5
t-32.5 -54.5zM583 834q12 -23 31.5 -40t30.5 -17q10 0 30.5 17t31.5 40q-12 23 -31.5 40t-30.5 17q-10 0 -30.5 -17t-31.5 -40zM1107 1705l44 68q30 46 30 98v3h-58l3 -17q0 -15 -6.5 -34t-16.5 -31l-34 -51zM129 1447l3 -50l10 -21l14 -8l67 -18l14 10l1 47l-26 28z
M991 1837q-24 -17 -48 -17q-45 0 -45 20q0 10 13 16t27 6q28 0 53 -25z" />
  </g>

</svg>
