<?xml version="1.0" standalone="no"?>
<!DOCTYPE svg PUBLIC "-//W3C//DTD SVG 1.1//EN" "http://www.w3.org/Graphics/SVG/1.1/DTD/svg11.dtd" >
<svg xmlns="http://www.w3.org/2000/svg" xmlns:xlink="http://www.w3.org/1999/xlink" version="1.1" viewBox="-10 0 2486 2048">
  <g transform="matrix(1 0 0 -1 0 1638)">
   <path fill="currentColor"
d="M1072 474q80 0 265 49l107 28q277 77 370 77q71 0 132.5 -32t111.5 -81t85 -113t52 -178l4 -23q3 -14 11.5 -30.5t21.5 -16.5q18 0 35 33l5 10q25 50 51 50q22 0 37.5 -19t15.5 -57t-22.5 -81t-61.5 -69.5t-89 -26.5q-21 0 -50 11t-49 23l-29 -28h-362l-105 11h-40
l-42 -26l-130 8l1 65l6 16q-127 -70 -206 -70q-45 0 -102 18.5t-93 42.5v-21l-73 -44h-580l-66 15h-24l-25 -30h-134v109l81 44h262l243 35q-5 53 -26.5 91t-62 73.5t-60.5 35.5q-19 0 -89 -31l-56 -2l-109 102q3 32 44.5 108t85 127.5t91.5 81.5t96 30l5 -1h3
q37 91 114 149.5t210.5 90t287.5 31.5l173 -5q109 0 213 26q-34 -70 -128 -111l137 13q-61 -79 -150.5 -137.5t-174.5 -84t-400 -66.5l-50 -9l-14 -3q23 -25 47 -66l27 -48q50 -94 172 -94zM658 704l-24 24l15 15q-18 5 -49 5q-41 0 -82 -25t-79.5 -70.5t-71.5 -107.5
t-41 -96v-1l19 19l22 -22l-18 -18l30 -27l55 58l23 -23l-54 -56l8 -7l28 2l15 7q53 25 83 25q33 0 88.5 -45t76.5 -97t28 -126l-283 -40l-257 1l-59 -34v-25l36 32l11 -13l-38 -33h24l53 46l10 -13l-38 -33h30l25 30h45l66 -16h557l50 25q0 74 -8 114h40l8 -72
q24 -22 83.5 -42.5t111.5 -20.5q80 0 221 86l64 39q142 89 251 103q-37 51 -37 88q0 36 9 77l41 -5q-10 -46 -10 -72q0 -39 71.5 -115t168.5 -151h-537l-10 -26v-29l37 33l11 -13l-38 -33h24l53 46l10 -13l-38 -33h25l45 26h53l105 -12h347l21 21q-4 31 -38.5 78t-91.5 114
l26 20q86 -102 109 -139.5t28 -67.5q57 -32 86 -32q41 0 70.5 20t45.5 52.5t16 64.5q0 35 -12 35q-8 0 -21 -27q-30 -66 -70 -66q-30 0 -49 21t-28 79q-15 93 -30 133t-45.5 83t-71.5 78.5t-89 58t-105 22.5q-42 0 -117.5 -14.5t-244.5 -60.5q-179 -49 -259.5 -64.5
t-123.5 -15.5q-76 1 -125 29t-78 83q-47 89 -84 126q-45 -13 -70 -26l-22 34q35 18 84.5 31.5t152.5 26.5q134 17 226 34t144.5 35.5t118 53t120.5 80.5l-160 -12q-215 -9 -340 -29t-215.5 -71t-162.5 -124zM650 785l27 -4q102 88 235.5 131t441.5 55q119 19 179 67
q-44 -8 -76 -14t-64 -6l-173 5q-219 0 -365.5 -52.5t-204.5 -181.5zM1874 134q-73 59 -117 107q-126 -12 -274 -107h391zM715 729q78 61 147 85.5t207 31.5q195 13 337 69l8 -18q-170 -74 -343 -83q-107 -7 -185.5 -30.5t-158.5 -70.5zM499 604q0 13 15 22.5t30 9.5
q23 0 41 -11q-6 -20 -23.5 -32t-37.5 -12q-16 0 -21 11z" />
  </g>

</svg>
