<?xml version="1.0" standalone="no"?>
<!DOCTYPE svg PUBLIC "-//W3C//DTD SVG 1.1//EN" "http://www.w3.org/Graphics/SVG/1.1/DTD/svg11.dtd" >
<svg xmlns="http://www.w3.org/2000/svg" xmlns:xlink="http://www.w3.org/1999/xlink" version="1.1" viewBox="-10 0 1773 2048">
  <g transform="matrix(1 0 0 -1 0 1638)">
   <path fill="currentColor"
d="M195 40h135q-79 190 -126.5 411t-47.5 407q0 280 126 566l-182 324l39 17l164 -294q80 168 182 294l37 -22q-105 -134 -192 -319l179 -318l363 87l9 166q9 147 114 222l-34 60l-86 6l-16 104l-48 6l65 142l-3 27v13q0 53 43 82.5t122 29.5q87 0 139 -49t52 -125
q0 -69 -42 -126l-46 -63l20 -30q63 -2 112 -31.5t76 -79.5l199 -357q60 -110 71.5 -148.5t11.5 -77.5q0 -32 -18 -132q-13 -69 -13 -115v-24q0 -76 4 -96q59 -247 59 -452q0 -75 -10 -145h-294v88l113 23q60 12 60 48v11q0 4 -104 366l-9 61h-119l-190 -597h-287v88
q86 15 132.5 22.5t61.5 82.5l67 240l-7 86l28 78h-22l167 463l-202 248l-37 -343l-151 -232l-29 -20l-48 -73l-10 -7l136 -242l-36 -19l-139 247l-30 -11l-66 30l-29 46l41 84l-84 150l-16 -8l-60 -6l-55 52l-3 21l8 9l-26 25l58 76l-163 289q-113 -266 -113 -518
q0 -169 41.5 -370t133.5 -448h264v-40h-440v40zM646 687l16 -28l43 -21l52 24l18 23l27 41l31 28l141 228l40 378l26 14l237 -286l218 113l-183 335q-26 47 -67.5 68t-105.5 24l-91 117q50 92 50 106q0 34 -27 34q-14 0 -25 -11h-147l-40 -93l27 -4l15 -104l84 -6l57 -98
q-63 -49 -88.5 -98.5t-30.5 -118.5l-25 -329l-116 -226l-79 -29l-33 -35zM1563 633l-1 37v37q0 62 20 170q10 58 10 85q0 43 -14.5 83.5t-64.5 115.5l-223 -112l-146 -416h419zM1085 37l179 560h-119l-30 -83v-85l-65 -248q-13 -49 -33 -71t-49 -29l-113 -17v-27h230z
M1459 597l9 -59l100 -355l3 -28q0 -59 -89 -74l-85 -17v-27h222q8 45 8 118q0 190 -63 442h-105zM863 1043l-220 -43l-19 -20l-20 -44l78 -140l78 33zM1120 1709l41 64q30 46 30 98q0 62 -42.5 101.5t-107.5 39.5q-61 0 -93.5 -19.5t-32.5 -54.5l3 -29h133q10 10 31 10
q26 0 40 -20t14 -42q0 -29 -44 -109zM539 1053l23 1l39 -36l16 14l249 48l4 76l-344 -81zM462 970l33 -33h41l17 4l33 24l10 21l-38 37l-46 -9l-14 -6zM998 1837q-24 -17 -48 -17q-45 0 -45 20q0 10 13 16t27 6q28 0 53 -25zM461 1008l25 23l-9 18l-28 -31z" />
  </g>

</svg>
