<?xml version="1.0" standalone="no"?>
<!DOCTYPE svg PUBLIC "-//W3C//DTD SVG 1.1//EN" "http://www.w3.org/Graphics/SVG/1.1/DTD/svg11.dtd" >
<svg xmlns="http://www.w3.org/2000/svg" xmlns:xlink="http://www.w3.org/1999/xlink" version="1.1" viewBox="-10 0 3601 2048">
  <g transform="matrix(1 0 0 -1 0 1638)">
   <path fill="currentColor"
d="M2219 446l81 23l579 858q44 68 108.5 137t121 101.5t105.5 32.5q119 0 198 -53.5t79 -138.5q0 -31 -13.5 -67.5t-43.5 -88t-86 -132t-309.5 -427.5t-517.5 -638l-147 -32l-1418 172l-213 -53l-224 58l-334 -404l-85 69l318 384l-97 85l17 223l89 39q-48 16 -66.5 53
t-18.5 76l2 26l198 -58l223 -20l2 -2l286 346l85 -69l-282 -341l157 -112l777 -10zM380 700q2 -56 82 -88t221 -38l-3 -31q-172 16 -210 32l-92 -39l-13 -183l113 -100l266 -73l210 53l1426 -172q15 0 124 28l154 179q206 251 341 436l155 212q169 229 233 332t64 158
q0 67 -66 109.5t-171 42.5q-126 0 -301 -253l-587 -870l-107 -29l-433 37l-793 10l-254 183l-202 15zM448 221l-292 -352l23 -19l297 359l-19 5zM800 646l24 -18l258 312l-23 19z" />
  </g>

</svg>
