<?xml version="1.0" standalone="no"?>
<!DOCTYPE svg PUBLIC "-//W3C//DTD SVG 1.1//EN" "http://www.w3.org/Graphics/SVG/1.1/DTD/svg11.dtd" >
<svg xmlns="http://www.w3.org/2000/svg" xmlns:xlink="http://www.w3.org/1999/xlink" version="1.1" viewBox="-10 0 1450 2048">
  <g transform="matrix(1 0 0 -1 0 1638)">
   <path fill="currentColor"
d="M168 1094l-30 1l-38 21q7 75 64 194t123 201q49 62 197 81v49l-88 6l-16 104l-48 6l65 142l-3 27v13q0 53 43 82.5t122 29.5q87 0 139 -49t52 -125q0 -57 -42 -126l-32 -58v-95q67 -5 119 -15t148 -38l111 -33q42 45 84.5 119t72.5 157l-36 165l47 16l29 -67l11 35
l-33 94l53 20l58 -119l-24 -78q-6 -70 -21.5 -134t-38 -126.5t-93.5 -217.5l-25 -16l-67 -5q-27 0 -58.5 2.5t-222.5 32.5l-70 -269q37 -32 59.5 -73.5t22.5 -109.5q0 -59 -36 -151q-35 -89 -35 -190l-6 -159l179 -119l90 -6l29 -81l-100 -195l-75 -37h-110v81l79 19l42 48
l-5 32l-133 88l-1 -61v-62q0 -75 -10 -145h-294v88l113 23q60 12 60 48l-23 210l-322 203l-26 61v46l238 407l-4 72q-155 -64 -284 -64zM674 1239v12l-81 1l-4 17l51 48l85 4l-1 13l-99 3l-54 -50q-167 -56 -230 -72t-110 -18q15 33 54.5 95t100.5 131h17l46 -146l108 35
l62 51l125 -7l20 73q218 -38 305 -38l58 3q139 268 163 463l23 70l-41 90l-12 -5l29 -79l-24 -66l-17 -3l-33 74l-11 -4l30 -140q-20 -82 -60.5 -162t-90.5 -143l-30 -13l-49 13q-139 45 -201.5 57t-127.5 12l-30 -2v102l-87 77l38 62q6 9 14.5 27.5t8.5 26.5q0 34 -27 34
q-14 0 -25 -11h-147l-40 -93l27 -4l15 -104l96 -6v-104l-67 -10q-44 -8 -83 -25.5t-54 -36.5q-55 -66 -108 -171.5t-68 -182.5l21 -8l30 -1q166 0 337 107zM683 633q0 47 12.5 86.5t26.5 75.5t26 70.5t12 70.5q0 105 -79 166l-188 -36l-229 -389v-11zM585 538l43 -383
q0 -59 -89 -74l-85 -17v-27h222q8 45 8 118q0 204 7 442l-106 8v-67zM885 205v-76l-62 -60l-53 -10v-26h71l62 36l45 88l36 76l-20 49l-67 -3l-173 116l-3 -81zM712 1871q0 62 -42.5 101.5t-107.5 39.5q-61 0 -93.5 -19.5t-32.5 -54.5l3 -29h133q10 10 31 10q26 0 40 -20
t14 -42q0 -15 -6.5 -34t-16.5 -31l-34 -51l38 -36l44 68q30 46 30 98zM557 421l-11 94l-128 101l-145 13l11 -38zM729 1298l-74 -4l-28 -24l73 -1l4 -49l-175 -14l-44 -29l6 -77l195 35zM287 1236q38 4 128 28l-33 106q-61 -75 -95 -134zM519 1837q-24 -17 -48 -17
q-45 0 -45 20q0 10 13 16t27 6q28 0 53 -25zM480 612l65 -47l-2 43z" />
  </g>

</svg>
