<?xml version="1.0" standalone="no"?>
<!DOCTYPE svg PUBLIC "-//W3C//DTD SVG 1.1//EN" "http://www.w3.org/Graphics/SVG/1.1/DTD/svg11.dtd" >
<svg xmlns="http://www.w3.org/2000/svg" xmlns:xlink="http://www.w3.org/1999/xlink" version="1.1" viewBox="-10 0 1747 2048">
  <g transform="scale(1, -1)" transform-origin="center">
   <path fill="currentColor"
d="M1365 1595q43 -27 61 -57l106 -201l33 -335l44 -34l28 -56l-7 -119h-52l-7 84l-22 23l-6 -67h-41l-30 116l-44 285l-63 117v-14h-43l-35 -248q50 -72 65 -117.5t15 -107.5q0 -19 -3.5 -51t-35.5 -253l9 -257l21 -197l4 -78l-1 -28h-283v88l97 26q19 5 31.5 26t12.5 51v11
l-26 101h-84l-52 -303h-287v88l135 23q23 5 36.5 20.5t22.5 61.5l-7 110l6 314l64 424v96l-105 133l58 110l-294 -134l-344 141l-27 -7l-37 -29h-5v-93h-40v93h-1l-66 34l-20 72l8 18l14 4l-10 31l75 25v31h-112v40h112v17q-33 4 -69 20.5t-64 39.5q36 24 69 39
q-47 19 -69 39l44 24q-14 16 -22 47h44q3 -17 15 -32l29 9v7q0 50 44 50t44 -50v-10q62 -22 98 -45l-20 -34q-45 26 -78 38v-29q25 -7 56.5 -22.5t51.5 -30.5l-10 -7l-25 -16q17 -14 30 -40l-43 -9q-8 15 -24 30q-29 -14 -61 -18v-17h119v-40h-119v-19l408 -134l186 109
q103 60 166 70v49l-98 6l-16 104l-48 6l65 142l-3 27v13q0 46 59.5 79t146.5 33q102 0 164 -49.5t62 -140.5v-266zM1246 1103l36 234h-167l20 460q6 9 14.5 27.5t8.5 26.5q0 34 -27 34q-14 0 -25 -11h-147l-40 -93l27 -4l15 -104l106 -6v-104q-62 -10 -106.5 -33.5
t-76.5 -42.5l-196 -115l-428 147l-68 -22l5 -10l61 13l48 -28l13 -50h21l344 -131l335 153l23 -31l-73 -140l94 -116v-131l-60 -413l-7 -274h300l-9 225q40 251 40 298q0 54 -16 103.5t-60 103.5zM1325 1866q0 62 -51.5 104t-131.5 42q-70 0 -118.5 -22.5t-48.5 -51.5l3 -29
h133q10 10 31 10q26 0 40 -20t14 -42q0 -15 -6.5 -34t-16.5 -31l-20 -415h172v489zM1365 1550v-126l94 -179l42 -287l18 -97h8l6 73l14 5l42 -41l8 -77h10l5 82l-27 48l-47 36l-37 331l-113 208q-10 14 -23 24zM1032 37l41 266h-76v-122q-13 -83 -82 -100l-113 -17v-27h230z
M1233 303l22 -88l3 -28q0 -34 -19 -65t-54 -38l-69 -20v-27h204l2 39l-8 111l-17 116h-64zM177 1453l12 -45l58 -30l22 1l30 20l-15 56l-30 16zM1058 1837q-24 -17 -48 -17q-45 0 -45 20q0 10 13 16t27 6q28 0 53 -25zM248 1702l-6 -1v-39h5l19 1v38l-13 1h-5zM253 1742
l13 -1v32l-13 2h-11v-33h11zM172 1683q15 -9 38 -15v27zM334 1683q-20 10 -36 13v-26zM174 1758l36 -11v22zM253 1815l13 -1v2q0 18 -12 18t-12 -18v-2z" />
  </g>

</svg>
