<?xml version="1.0" standalone="no"?>
<!DOCTYPE svg PUBLIC "-//W3C//DTD SVG 1.1//EN" "http://www.w3.org/Graphics/SVG/1.1/DTD/svg11.dtd" >
<svg xmlns="http://www.w3.org/2000/svg" xmlns:xlink="http://www.w3.org/1999/xlink" version="1.1" viewBox="-10 0 1570 2048">
  <g transform="matrix(1 0 0 -1 0 1638)">
   <path fill="currentColor"
d="M292 1937q32 -51 32 -122q0 -34 -11.5 -64.5t-36.5 -73.5q45 -21 71 -76.5t26 -131.5v-449h38l126 -186l202 -248l52 621q9 119 135 210l63 48l-13 109l-45 -16l-112 -153l-72 61l131 119l-34 89l-64 3l102 226l4 27q15 58 57 89t122 31q124 0 203.5 -58.5t99.5 -164.5
l41 -767h-111v-903l162 -68v-89h-1282v89l212 90l-100 475q-21 98 -21 146q0 39 20 70l-36 119l18 31h38v455q0 70 -19.5 101.5t-51.5 42.5q-58 -97 -58 -205h-53q-12 30 -19 67t-7 62q0 36 18.5 88.5t51.5 106.5q47 78 57.5 115t10.5 74v10h53zM911 1890l-82 -186l39 -2
l42 -113l96 30l22 -177q-81 -55 -115.5 -87.5t-55.5 -68t-25 -78.5t-63 -682l-25 -10l-240 298q-22 27 -49.5 50t-62.5 23q-38 0 -60.5 -25t-22.5 -63q0 -37 19 -117l108 -518l-218 -98v-26h1202v26l-160 70v924h-199l52 665q21 17 29.5 36t8.5 27q0 29 -23 29
q-22 0 -42 -26zM1082 1832q26 21 49 21q26 0 41 -19.5t15 -42.5q0 -20 -12 -43t-28 -33l-37 -615h257l-37 726q-14 82 -86 134t-177 52q-117 0 -145 -88zM269 1870q-3 -54 -53 -137q-47 -77 -61.5 -120t-14.5 -100q0 -27 4 -50h10l-1 15q0 56 37 142q9 24 48 82
q43 65 43 127l-3 41h-9zM387 927q19 0 44 -5l-41 58h-82l-6 -11l18 -64q30 22 67 22zM1009 1778l-48 -5q-41 0 -71 26q6 8 23 13.5t31 5.5q23 0 37 -9t28 -31z" />
  </g>

</svg>
