<?xml version="1.0" standalone="no"?>
<!DOCTYPE svg PUBLIC "-//W3C//DTD SVG 1.1//EN" "http://www.w3.org/Graphics/SVG/1.1/DTD/svg11.dtd" >
<svg xmlns="http://www.w3.org/2000/svg" xmlns:xlink="http://www.w3.org/1999/xlink" version="1.1" viewBox="-10 0 2058 2048">
  <g transform="matrix(1 0 0 -1 0 1638)">
   <path fill="currentColor"
d="M256 879l-156 28l5 59l130 -5l30 20l-82 12l6 57l179 7l295 29l123 329q45 123 175 123h41v44l-76 6l-16 104l-48 6l65 142l-3 27v13q0 53 43 82.5t122 29.5q87 0 139 -49t52 -125q0 -62 -42 -126l-53 -80v-60l370 -38l154 219l74 164l55 -16l-20 -81l30 21l43 122
l57 -17l-32 -156l-97 -92l-171 -326l-261 12q-52 -4 -70.5 -17.5t-28.5 -51.5l-33 -121l-7 -72q58 -56 78 -101t20 -101q0 -37 -11 -72q-14 -41 -19 -95t-5 -72l4 -95q27 -97 43 -210.5t16 -207.5q0 -57 -6 -109l-11 -39h-286l-1 91l113 23q60 12 60 48v11l-2 11l-102 321
l-9 61h-123l-197 -566h-280v91l128 23q37 7 51 55l75 233l-7 86l202 595l-10 88l-52 134l-153 -350l-398 -17zM937 1354l69 -186l7 -75l201 22l6 71l33 131q10 44 35.5 63.5t87.5 19.5l248 -12l165 307l98 93l31 119l-14 4l-37 -109l-59 -38l-20 11l22 90l-13 3l-68 -165
l-158 -228l-386 37q-17 2 -25.5 11t-8.5 32v62l-63 59l38 62q6 9 14.5 27.5t8.5 26.5q0 34 -27 34q-14 0 -25 -11h-147l-40 -93l27 -4l15 -104l84 -6v-105h-76q-48 0 -85.5 -23t-52.5 -64l-129 -360l-305 -28l-177 -2l-3 -14l92 -12l3 -23l-58 -41l-115 7l-2 -15l123 -15
l120 58l367 17l158 363zM1307 898q0 53 -23 93t-66 88l-209 -21l-149 -456h414l-1 67q0 83 23 160q11 37 11 69zM792 40l179 526h-122l-30 -83l5 -85l-67 -214q-13 -49 -32.5 -72t-49.5 -28l-113 -17v-27h230zM1170 566l9 -59l100 -321l3 -28q0 -59 -89 -74l-85 -17v-27h222
q8 45 8 118q0 193 -63 408h-105zM1165 1646l44 68q30 46 30 98q0 62 -42.5 101.5t-107.5 39.5q-61 0 -93.5 -19.5t-32.5 -54.5l3 -29h133q10 10 31 10q26 0 40 -20t14 -42q0 -15 -6.5 -34t-16.5 -31l-34 -51zM340 1595l36 -20l-62 -96l-35 21zM431 1715l34 -23l-72 -89
l-33 24zM140 1173l40 -8l-24 -111l-40 8zM193 1324l39 -13l-41 -106l-38 13zM263 1462l37 -17l-53 -101l-36 18zM1103 2097l9 -40l-112 -18l-8 39zM949 2065l16 -38l-108 -36l-14 37zM540 1827l30 -27l-82 -79l-29 28zM662 1927l27 -30l-91 -70l-25 31zM1267 2100l2 -41
h-113l-2 39zM802 2010l22 -34l-100 -55l-20 34zM1416 2089l-1 -41l-113 10l2 39zM1708 2011l-12 -39l-106 38l11 37zM1838 1947l-18 -36l-100 52l17 35zM1566 2059l-7 -40l-110 25l7 38zM1049 1778q-24 -17 -48 -17q-45 0 -45 20q0 10 13 16t27 6q28 0 53 -25z" />
  </g>

</svg>
