<?xml version="1.0" standalone="no"?>
<!DOCTYPE svg PUBLIC "-//W3C//DTD SVG 1.1//EN" "http://www.w3.org/Graphics/SVG/1.1/DTD/svg11.dtd" >
<svg xmlns="http://www.w3.org/2000/svg" xmlns:xlink="http://www.w3.org/1999/xlink" version="1.1" viewBox="-10 0 2517 2048">
  <g transform="matrix(1 0 0 -1 0 1638)">
   <path fill="currentColor"
d="M1174 -29l-9 38l-12 -3l-15 72l-35 84l-3 91q-12 12 -26 36l-2 -31q0 -38 11 -76q5 -18 5 -44q0 -31 -24 -31t-24 66l3 38l3 49q0 65 13 126t65 80l140 42q130 38 158.5 65t48.5 69q-21 28 -21 51q0 37 54 43l-6 21l-223 -80l-233 -23l5 -40q-2 -28 -44 -57.5t-85 -29.5
h-10l-106 60l-42 -143l-10 -338l-41 -4l-16 -26l3 -19l-24 -57l-109 -10l-47 24l49 100l8 5l56 82l-1 296l-20 159l-11 4l-29 -120l-111 -193l-139 -261l-28 6l-13 -15l3 -20l-24 -57l-109 -10l-47 24l49 100h1l189 301l100 332q-168 125 -168 275q0 188 159 253
q-14 54 -27.5 139.5t-13.5 128.5v11l51 14l107 -262q58 8 142 8q94 0 260 -13q154 -12 211 -12l40 1l46 17l8 -12q83 11 179 31q330 67 405 78t158 11q76 0 129 -24t87 -67t54.5 -117.5t30.5 -250.5q7 -89 40 -213l20 -43q50 -94 50 -148q0 -82 -13 -121l-29 -3
q-34 36 -58.5 90t-24.5 96l-1 50q0 35 8 72q-33 118 -38 199q-6 85 -13 142q-41 -128 -41 -214q0 -33 16 -79t44 -105l-24 -464l3 -60l-32 -100l-8 2l-24 -57l-109 -10l-47 24l41 84l44 175l-8 220l-105 168l-41 -14l2 -63h-38l-2 57l-15 -1h-16l-8 -51l-38 6l9 54l-23 10
l-18 -49l-13 5l-149 -248l47 -60l52 -77l34 -54l-5 -16l-67 -21l-30 55l-55 77l-44 38l2 -19l111 -154l-3 -15l-77 -23l-21 38l-43 56l-108 -122l2 -13l-24 -57l-109 -10l-47 24l35 72l-57 70l-14 26l-13 -35l37 -111l16 -38l-6 -16zM1821 1011q21 -84 68 -162.5t112 -138.5
l129 -206l4 -256l-33 -128l83 -19l12 67l-1 13v33l24 458l-10 24q-50 109 -50 149q0 124 72 329q-17 93 -77.5 147t-157.5 54q-96 0 -354 -49q-99 -19 -194.5 -38t-171.5 -29l7 -10q-116 -86 -135.5 -104.5t-70.5 -88.5q-32 -43 -66.5 -87.5t-77.5 -73.5l100 -204l235 24
l304 109l75 -2l95 -71q99 -73 146 -73q37 0 76 16q-137 139 -179 307zM587 1050l-37 -54l47 -13l-10 -36l-61 19l-79 -53l10 -18l5 -9h47l61 26l14 -34l-71 -30l-70 5l-48 71l111 74l35 52q-29 33 -57.5 85t-43.5 102q-131 -59 -131 -215q0 -95 81 -180.5t219 -145.5
l188 -67l-3 11l23 3l18 -32l85 -47h5q26 0 53.5 16t30.5 34l-7 55l-171 353l-71 60l-125 14q-66 59 -121 191t-83 238l-11 -4q10 -92 36 -197.5t56 -163t75 -110.5zM1596 167l24 11l-75 100l-18 175l20 6l9 -57l11 5l8 4l1 73l20 91q5 24 13 32t62 22l15 2l4 8l2 10l-1 5
q-7 13 -48.5 38.5t-60.5 25.5l-16 -2l-23 -23l-18 22q-11 -1 -26 -6.5t-15 -15.5q0 -14 9 -27l59 7v-15l-43 -19q-14 -34 -35.5 -64.5t-44.5 -45.5q-30 -22 -213 -74l-79 -25q-43 -16 -43 -82q0 -39 41 -80l-1 -103l33 -86l11 -44l32 9l-44 107q26 52 42.5 111t20.5 95
l31 -8l-11 -57q126 27 199 64l2 70h28l5 -80q2 -13 10 -35t15 -33zM689 1276q-81 0 -126 -7q43 -86 88 -137l123 -13l88 -75l15 -33q45 29 72.5 58.5t52.5 58.5q46 54 74 80.5t56 43.5q-73 2 -185 11q-166 13 -258 13zM560 675q-43 20 -87 49l-100 -325l-186 -279l72 -17
l25 27l16 -8l124 244l108 186zM767 600l-119 42l18 -141l1 -312l-56 -71l57 -14l25 33l30 2l-1 309zM1231 1272q-59 -26 -99.5 -57t-102.5 -109l-26 -31q-43 -53 -109 -98l22 -46q38 27 71 68.5t60 78.5q62 82 82.5 102.5t51.5 41t58 35.5zM1612 400l165 282l-18 12l-29 -45
q0 -13 -4.5 -22t-6.5 -14q-13 -20 -19 -20q-58 -4 -62 -11q-4 -6 -15 -54l-10 -44l-7 -78zM1288 261l11 -60l34 -51l129 172l-2 7q-39 -25 -71.5 -38t-100.5 -30zM1350 117l60 -14l105 120l-40 54zM1534 770l7 -28q19 14 41 14q16 0 54.5 -20.5t73.5 -47.5l17 27
q-44 28 -94 71h-55zM788 846l-34 28l-57 15v34h99l20 -27v-50h-28zM1583 378l-13 -6l-6 -2l1 -20l70 -64l56 -80l20 11l-48 74zM1231 223l23 -54l45 -63l13 18l-38 62l-16 69l-20 -5zM928 675l31 -53l-66 -15l-2 56zM1334 82l-21 -47h69l11 32zM656 67l-59 15l-21 -47h69z
M240 67l-59 15l-21 -47h69zM2156 67l-59 15l-21 -47h69zM1183 14l7 -23l43 7l-10 27zM1639 162l-37 -17l11 -21l42 11zM1698 186l10 -21l39 10l-14 28zM1592 674q0 18 19 18q18 0 18 -18q0 -19 -18 -19q-8 0 -13.5 5.5t-5.5 13.5z" />
  </g>

</svg>
