<?xml version="1.0" standalone="no"?>
<!DOCTYPE svg PUBLIC "-//W3C//DTD SVG 1.1//EN" "http://www.w3.org/Graphics/SVG/1.1/DTD/svg11.dtd" >
<svg xmlns="http://www.w3.org/2000/svg" xmlns:xlink="http://www.w3.org/1999/xlink" version="1.1" viewBox="-10 0 2473 2048">
  <g transform="matrix(1 0 0 -1 0 1638)">
   <path fill="currentColor"
d="M412 933q-109 176 -111 401q0 126 30.5 222.5t89.5 146.5q-35 66 -35 129q0 81 55 181h47q0 -62 12 -139q7 30 25.5 70.5t35.5 68.5h47q0 -161 29 -246q37 -4 104 -47t94 -79l177 -6v-56q0 -32 -30 -56.5t-79 -36.5l-288 -74q15 -89 42.5 -135.5t75 -65.5t166.5 -19
q56 0 181 23q120 22 207.5 36.5t163.5 14.5q115 0 229.5 -51.5t222 -153.5t201.5 -245t152.5 -297.5t82.5 -253.5t24 -170q0 -42 -7 -89q-106 49 -186 151.5t-142 279.5l-46 134q-100 297 -165 383h-6q16 -108 69 -245.5t107 -214.5q-3 -197 -20 -330l-5 -93l-108 -72h-159
v85l140 105l1 23v19q0 99 -20 249l-22 23l6 -39l-167 -381l-122 -84h-159v85l179 111l72 283v44q-125 151 -180 262q-64 59 -99 111q-81 -58 -214.5 -105t-240.5 -50l-74 -2l43 -77l10 -138l-1 -52q0 -141 13 -226l10 -70h1v-1l-2 -101l-115 -74h-159v85l128 96
q-11 57 -51.5 209t-91.5 260l-5 -28q-106 -258 -117 -301q-12 -43 -24 -99t-38 -125l-137 -97h-159v85l192 121zM549 709q-44 81 -105 175l-120 -700l-188 -118v-29h23v35h23v-35h29v35h23v-35h13l115 82l58 211q14 57 115 298zM1518 701q29 -45 61 -83.5t64 -83.5l-1 -61
l-79 -300l-175 -107v-29h23v35h23v-35h29v35h23v-35h13l100 69l28 59l131 303l-10 76q-33 26 -117 80q-80 51 -113 77zM442 1669q-54 -54 -77.5 -141.5t-23.5 -216.5q0 -74 14.5 -138t41 -123.5t60 -113.5t69.5 -111q74 -119 114.5 -215t79.5 -245t46 -203h-1l-134 -96v-29
h23v35h23v-35h29v35h23v-35h13l89 59l1 79q-4 12 -14.5 91t-10.5 195l1 63l-3 54q-3 59 -7 81l-125 205l40 2l62 -88l94 2q90 1 207 41.5t226 110.5q-9 15 -22.5 61t-13.5 68h40q0 -25 15 -73t63 -107t114 -115.5t128 -94.5q103 -63 150.5 -99t77.5 -76q22 -165 22 -265v-31
l-1 -30l-144 -104v-29h23v35h23v-35h29v35h23v-35h13l82 57l5 91q15 121 18 298q-53 85 -100.5 207.5t-71.5 241.5q0 78 20 98q124 -126 221 -429q82 -259 149 -370t157 -163l1 14v13q0 50 -12 109t-30.5 121t-68 194t-136 267.5t-188.5 236t-213.5 152t-223.5 51.5
q-90 0 -302 -40q-194 -35 -284 -35q-112 0 -167 28.5t-84.5 89t-44.5 172.5l324 83l36 12l-101 6v26l143 2l1 9v22l-160 2q-61 70 -120 97.5t-144 27.5l14 -28l-34 -22q-64 96 -78 260q-24 -66 -24 -106q0 -43 18 -83.5t44 -68.5l-26 -32zM568 1949q-15 -30 -25 -68t-10 -60
q0 -27 4 -49h58q-23 69 -27 177zM675 1647q0 -9 -8 -15t-21 -6t-22 6t-9 15q0 8 9 14t22 6t21 -6t8 -14z" />
  </g>

</svg>
