<?xml version="1.0" standalone="no"?>
<!DOCTYPE svg PUBLIC "-//W3C//DTD SVG 1.1//EN" "http://www.w3.org/Graphics/SVG/1.1/DTD/svg11.dtd" >
<svg xmlns="http://www.w3.org/2000/svg" xmlns:xlink="http://www.w3.org/1999/xlink" version="1.1" viewBox="-10 0 2681 2048">
  <g transform="matrix(1 0 0 -1 0 1638)">
   <path fill="currentColor"
d="M128 -449l24 199q84 703 84 986q0 166 -70 489q-25 115 -45.5 225.5t-20.5 215.5q0 181 100 283t278 102h14q-35 -173 -35 -293q0 -67 47 -323q50 -281 67 -431t17 -241q0 -195 -30 -516t-89 -696h-341zM435 -409q50 319 81.5 638.5t31.5 533.5q0 228 -84 665l-28 159
l-21 -1q-74 0 -114.5 42t-40.5 117q0 84 16.5 141t35.5 101q-84 -34 -128 -116.5t-44 -204.5q0 -97 20.5 -208t45.5 -225q70 -318 70 -497q0 -290 -79 -951l-23 -194h261zM442 2012q-43 0 -80 -9q-31 -64 -46.5 -123.5t-15.5 -134.5q0 -63 34.5 -90.5t82.5 -27.5h13
q-13 91 -13 158q0 105 25 227zM789 -449l24 199q84 703 84 986q0 166 -70 489q-25 115 -45.5 225.5t-20.5 215.5q0 181 100 283t278 102h14q-35 -173 -35 -293q0 -67 47 -323q50 -281 67 -431t17 -241q0 -195 -30 -516t-89 -696h-341zM1096 -409q50 319 81.5 638.5
t31.5 533.5q0 228 -84 665l-28 159l-21 -1q-74 0 -114.5 42t-40.5 117q0 84 16.5 141t35.5 101q-84 -34 -128 -116.5t-44 -204.5q0 -97 20.5 -208t45.5 -225q70 -318 70 -497q0 -290 -79 -951l-23 -194h261zM1103 2012q-43 0 -80 -9q-31 -64 -46.5 -123.5t-15.5 -134.5
q0 -63 34.5 -90.5t82.5 -27.5h13q-13 91 -13 158q0 105 25 227zM1450 -449q108 855 108 1185q0 166 -70 489q-25 115 -45.5 225.5t-20.5 215.5q0 181 100 283t278 102h14q-35 -173 -35 -293q0 -67 47 -323q50 -281 67 -431t17 -241q0 -195 -30 -516t-89 -696h-341z
M1757 -409q50 319 81.5 638.5t31.5 533.5q0 228 -84 665l-28 159l-21 -1q-74 0 -114.5 42t-40.5 117q0 84 16.5 141t35.5 101q-84 -34 -128 -116.5t-44 -204.5q0 -97 20.5 -208t45.5 -225q70 -318 70 -497q0 -290 -79 -951l-23 -194h261zM1764 2012q-43 0 -80 -9
q-31 -64 -46.5 -123.5t-15.5 -134.5q0 -63 34.5 -90.5t82.5 -27.5h13q-13 91 -13 158q0 105 25 227zM2111 -449l24 199q84 703 84 986q0 166 -70 489q-25 115 -45.5 225.5t-20.5 215.5q0 181 100 283t278 102h14q-35 -173 -35 -293q0 -67 47 -323q50 -281 67 -431t17 -241
q0 -195 -30 -516t-89 -696h-341zM2418 -409q50 319 81.5 638.5t31.5 533.5q0 228 -84 665l-28 159l-21 -1q-74 0 -114.5 42t-40.5 117q0 84 16.5 141t35.5 101q-84 -34 -128 -116.5t-44 -204.5q0 -97 20.5 -208t45.5 -225q70 -318 70 -497q0 -290 -79 -951l-23 -194h261z
M2425 2012q-43 0 -80 -9q-31 -64 -46.5 -123.5t-15.5 -134.5q0 -63 34.5 -90.5t82.5 -27.5h13q-13 91 -13 158q0 105 25 227z" />
  </g>

</svg>
