<?xml version="1.0" standalone="no"?>
<!DOCTYPE svg PUBLIC "-//W3C//DTD SVG 1.1//EN" "http://www.w3.org/Graphics/SVG/1.1/DTD/svg11.dtd" >
<svg xmlns="http://www.w3.org/2000/svg" xmlns:xlink="http://www.w3.org/1999/xlink" version="1.1" viewBox="-10 0 2146 2048">
  <g transform="matrix(1 0 0 -1 0 1638)">
   <path fill="currentColor"
d="M1088 1276l-64 -40l-66 107l-55 -7l44 189l-1 24q6 75 66 125.5t136 50.5q105 0 166 -51.5t61 -139.5q0 -38 -26 -96t-53 -96l20 -79l95 -9q79 -8 189.5 -128t299.5 -425h23v-315h68l41 -190q4 -17 4 -33q0 -35 -19.5 -63t-83 -54t-93.5 -26l-29 79l60 31q15 10 15 20
q0 9 -42 100l-431 -171q-150 -59 -243 -59q-76 0 -127 44t-51 115q0 44 26 80.5t92 80.5l421 290l7 1q-35 82 -78 131.5t-101 86.5l-125 -260l-36 -27l-343 -106l-166 -114l-30 45l59 53l-43 -1l-99 -75l-35 44l112 111l98 5l86 26l256 126l110 249l-83 25l-72 -223l-46 -35
l-296 -94l-158 -126l-30 45l59 53l-43 -1l-99 -75l-35 44l112 111l94 9l73 40l230 117l71 251q22 84 71 107l64 31zM1405 943l-29 -57q69 -42 115.5 -97t86.5 -149l272 61q-183 287 -285.5 398.5t-167.5 117.5l-113 9l-28 115l-93 41q29 78 32.5 90t3.5 19q0 26 -19 26
q-25 0 -36 -29l-166 33l-38 -152l34 5l57 -93l72 40l56 -135l-83 -42q-43 -23 -60 -99l-78 -263l-244 -110l-86 -44l-84 -5l-90 -84l12 -13l81 64l83 3l9 -12l-74 -65l9 -11l140 118l289 99l28 23l84 253l124 -37l23 45q52 102 102 127v-53q-58 -34 -221 -429l-271 -127
l-99 -30l-88 -1l-90 -84l12 -13l81 64l83 3l9 -12l-68 -59l9 -13l141 105l340 108l23 20l166 347zM1008 1837q-15 -40 -32 -65l-32 18q34 60 41 92q-24 -10 -62.5 -21.5t-53.5 -11.5q-16 0 -104 32q-67 24 -82 24l-7 -2q-9 -12 -26 -59q-15 -41 -26 -51t-30 -10l-79 3
q-14 0 -17 -9t-3 -23l4 -85q0 -25 -7.5 -32.5t-30.5 -13.5q-111 -33 -127 -42.5t-16 -28.5l3 -14l11 -30q14 -33 14 -44q0 -19 -26 -42q-61 -56 -78.5 -75t-17.5 -31q0 -18 32 -72q28 -48 28 -70v-3q-1 -16 -19 -35t-39.5 -37.5t-38.5 -34t-17 -25.5v-1q1 -17 40 -84
q33 -57 33 -76v-4q-4 -23 -52 -77q-43 -48 -43 -70q0 -16 12 -35q34 -55 44 -77t10 -45q0 -17 -30 -49q-29 -30 -29 -43t12 -31q24 -37 37.5 -63t13.5 -46q0 -29 -40 -74q-37 -42 -37 -61q0 -17 30 -69q26 -47 26 -56v-1v-77h-40v71q-3 13 -12 27.5t-18.5 31t-17.5 35
t-8 39.5q0 16 12 36t26.5 39t26.5 35.5t12 27.5q0 17 -30 65q-33 51 -33 78q0 18 29 45q30 29 30 45q0 18 -33 76q-34 57 -34 75t15 39.5t33 42t33 39t15 30.5t-12 31t-26 41.5t-25 45.5t-11 45q0 20 20.5 42t77.5 72q18 15 18 25q0 19 -30 69q-31 50 -31 71q0 16 18 37.5
t40 42.5t40 38.5t18 26.5q0 12 -6 28q-25 57 -25 75q0 26 22 38.5t75 27.5q79 23 85 31t6 30l-7 99q0 13 4.5 21.5t25.5 9.5l89 -1q24 0 34 14t23 58q15 49 28 56l10 2q39 0 188 -58l20 -6l10 -1q21 0 46.5 12t51.5 21q-14 35 -36 77l32 18l32 -65q30 36 93 59t139 23
q106 0 180.5 -41.5t74.5 -97.5t-74.5 -97.5t-180.5 -41.5q-77 0 -140 23.5t-92 58.5zM1870 664l-327 -73l-422 -295l70 -99q134 74 315.5 124.5t378.5 63.5v279h-15zM252 218h716v-218h-716v218zM1862 53q50 16 94 40t44 77l-3 26l-36 152q-422 -4 -779 -199l-92 121
q-29 -16 -44.5 -41t-15.5 -51q0 -51 41.5 -84.5t101.5 -33.5q78 0 240 63l445 176l52 -111q9 -20 9 -38q0 -30 -19 -40l-50 -26zM292 40h636v138h-636v-138zM1240 1992q-77 0 -138 -24t-70 -59h-23v-30h24q14 -36 72 -59.5t135 -23.5q90 0 150.5 29.5t60.5 68.5t-60.5 68.5
t-150.5 29.5zM1268 1373q38 62 51 97.5t13 62.5q0 69 -50 110.5t-134 41.5q-59 0 -110 -39.5t-57 -94.5l153 -28q17 26 49 26q22 0 35.5 -15.5t13.5 -36.5q0 -13 -29 -96zM1081 1463q-39 -14 -58 -14q-23 0 -46 13q6 12 22 19t19 7l15 1q25 0 48 -26z" />
  </g>

</svg>
