<?xml version="1.0" standalone="no"?>
<!DOCTYPE svg PUBLIC "-//W3C//DTD SVG 1.1//EN" "http://www.w3.org/Graphics/SVG/1.1/DTD/svg11.dtd" >
<svg xmlns="http://www.w3.org/2000/svg" xmlns:xlink="http://www.w3.org/1999/xlink" version="1.1" viewBox="-10 0 2988 2048">
  <g transform="matrix(1 0 0 -1 0 1638)">
   <path fill="currentColor"
d="M605 21l152 177q38 57 38 75q0 53 27.5 172.5t65.5 215.5l-10 16q-8 11 -16.5 23.5t-18.5 22t-20 15.5t-20 6q-31 0 -127 -32q-23 -15 -54.5 -47.5t-66 -66t-68 -59t-59.5 -25.5q-54 0 -82 65q-27 5 -88.5 38.5t-109.5 75.5t-48 67q0 49 148 158l52 42q7 9 35 74
q40 96 68.5 143t56.5 67.5t79.5 46.5t109.5 49l15 111q85 -33 122 -64q130 38 221 38q90 0 221 -16q73 -11 132 -11q49 0 199 20q210 28 316 28q289 0 524 -98.5t357 -273.5t122 -404q0 -35 -12.5 -58t-34.5 -23q-41 0 -60 106q-8 41 -19 86t-35 89q19 -76 19 -131
q0 -42 -52 -201q-55 -155 -55 -212q0 -61 10 -156t17 -137l-44 -38l-39 45l-44 -45h-258l-8 34l100 99v173q-33 33 -101 122l8 -170q-57 -89 -67 -113l-46 -107l-69 -38l-12 42l-52 -42h-221l-10 33l152 147l21 36l3 72q0 12 -5 66t-10 78q-87 -17 -173 -17q-82 0 -189 13.5
t-190 35.5q-8 -40 -8 -58q0 -45 27 -136l10 -42l-80 -209l-24 -19l-44 34l-40 -34h-187l-11 30q117 148 117 182q0 13 -9.5 53.5t-42.5 151.5l-29 -107l-24 -81q-12 -28 -64 -92l-71 -116l-47 -21l-33 43l-40 -43h-190zM803 914l45 -76q6 -21 6 -62v-9q20 -15 58 -68l22 -29
q11 -11 43 -33l95 -69q18 -13 35.5 -41t24.5 -52l6 -18q64 -199 64 -250q0 -9 -14 -35t-93 -137h24l43 57l18 -14l-33 -43h31l43 57l18 -14l-33 -43h24l55 32l38 -23q68 175 68 179l-2 12q-35 117 -35 166q0 75 87 371l38 -12q-39 -124 -69 -262q63 -18 174 -33t197 -15
q175 0 393 89q-66 89 -111 204l38 14q41 -109 111 -201l2 1l18 -24q129 -174 177 -218l-4 -203l-79 -77h55l43 57l18 -14l-33 -43h45l43 57l18 -14l-33 -43h39l57 56l37 -38q-26 182 -26 273q0 58 57 224q50 153 50 189q0 34 -8.5 80t-35.5 134l-3 9l-2 7l29 19
q37 -35 62 -74t40.5 -81t32.5 -130q13 -74 20 -74t7 41q0 217 -116.5 382.5t-340 259.5t-506.5 94q-103 0 -310 -28q-145 -20 -205 -20q-68 0 -138 11q-131 16 -215 16q-72 0 -175 -26.5t-210 -73t-149 -81.5q-24 -24 -53 -80t-49 -106q-31 -71 -41 -84l-58 -48
q-57 -41 -94.5 -76t-37.5 -50q0 -17 37 -48t97.5 -62.5t82.5 -31.5q27 0 47.5 51.5t20.5 109.5v8q30 16 73.5 58t49.5 59l34 -19q-6 -17 -44.5 -58t-70.5 -62q-7 -62 -30.5 -112t-51.5 -67q14 -32 43 -32q23 0 52 21.5t100 96.5l69 68l13 6q-4 31 -10.5 38t-37.5 27l15 26
q35 -26 43 -33t10 -12.5t7 -34.5l23 8l-9 38q-10 17 -45 46l16 26l26 -25q28 -28 31 -35l8 -42l24 6l-6 42q-3 8 -47 59l18 23q53 -56 57 -67l6 -53l7 1l26 -3l-5 46q-9 24 -39 68zM920 628q-34 -89 -59.5 -199t-25.5 -156q0 -28 -49 -103l-115 -136h27l44 58l18 -14
l-33 -44h30l44 58l18 -14l-33 -44h14l57 50l26 -44l14 10l38 65q20 35 40 60q36 45 46 67t51 180l15 61q-15 36 -38 53zM2220 478l-20 27q-86 -41 -207 -69q7 -32 11.5 -86t4.5 -67l-3 -82l-31 -53l-120 -113h54l43 57l18 -14l-33 -43h31l43 57l18 -14l-33 -43h21l81 57
l18 -42l19 41q42 90 95 175l-11 212h1zM757 1176l13 149q30 -11 78 -36t67 -43l-28 -30q-29 27 -81 52l-9 -96zM466 1078q2 25 22.5 53.5t53 46t70.5 17.5q21 0 48 -7l-10 -38q-22 5 -38 5q-43 0 -73 -25.5t-33 -53.5zM270 711q0 17 12 28.5t29 11.5t28.5 -11.5t11.5 -28.5
t-11.5 -29t-28.5 -12t-29 12t-12 29zM176 771q0 17 11.5 29t28.5 12t29 -12t12 -29t-12 -28.5t-29 -11.5t-28.5 11.5t-11.5 28.5zM551 1078q0 12 9.5 22t22.5 10q12 0 22 -10t10 -22q0 -13 -10 -22.5t-22 -9.5q-13 0 -22.5 9.5t-9.5 22.5zM692 1356l45 16l-39 22zM296 711
q0 -14 15 -14q14 0 14 14t-14 14q-15 0 -15 -14zM202 771q0 -14 14 -14q15 0 15 14t-15 14q-14 0 -14 -14z" />
  </g>

</svg>
