<?xml version="1.0" standalone="no"?>
<!DOCTYPE svg PUBLIC "-//W3C//DTD SVG 1.1//EN" "http://www.w3.org/Graphics/SVG/1.1/DTD/svg11.dtd" >
<svg xmlns="http://www.w3.org/2000/svg" xmlns:xlink="http://www.w3.org/1999/xlink" version="1.1" viewBox="-10 0 2318 2048">
  <g transform="scale(1, -1)" transform-origin="center">
   <path fill="currentColor"
d="M696 884l396 125l156 331q24 57 74.5 98.5t114.5 57.5l111 28l-15 44l-80 -39l-64 123l-63 -5l74 233v27q21 144 214 144q114 0 183 -55t69 -145q0 -49 -21 -102t-62 -125l35 -116q37 -37 71.5 -88t46.5 -96l129 -485l31 -321h68l41 -190l3 -31q0 -36 -19 -64.5
t-83 -54.5t-93 -26l-29 79l60 31q15 8 15 20q0 3 -0.5 7t-38.5 90l-457 -298q-59 -38 -130 -59.5t-137 -21.5q-76 0 -127 44t-51 115q0 37 20.5 72t86.5 96l418 389l-15 182l-201 325l-207 -331l-511 -135l-70 -79l-165 15l-6 48h-225q-97 111 -121 254l-22 139h650
l-22 -139q-9 -54 -32 -111zM1236 283l81 -106l109 63q216 128 309 174t175 72.5t148 30.5l-31 282l-364 -116zM587 781l30 38l-53 43l32 51l59 -22q22 49 33 110l14 93h-554l14 -93q8 -58 36.5 -119t64.5 -101h324zM2035 185q27 9 66 26.5t50 28.5t16.5 27.5t5.5 34.5l-3 26
l-36 152q-124 -2 -280.5 -63.5t-418.5 -215.5l-127 -72l-101 127q-24 -21 -36.5 -43t-12.5 -55q0 -51 39.5 -84.5t101.5 -33.5q63 0 135 22t126 58l471 311l52 -111q9 -21 9 -39q0 -30 -19 -39l-50 -26zM1756 1647q71 125 71 209q0 69 -61.5 112.5t-163.5 43.5
q-65 0 -109.5 -27.5t-55.5 -79.5l170 -72q25 27 52 27q23 0 40 -17.5t17 -40.5q0 -11 -7 -30.5t-41 -74.5zM1540 1771q-46 -12 -62 -12q-31 0 -58 19q5 9 24 17.5t40 8.5q32 0 56 -33zM664 821q-29 -46 -56 -80h-104l2 -16l124 -7l60 67l505 143l212 340l38 4l224 -370
l13 -172l339 116l-123 467q-10 34 -40.5 83t-77.5 102l-33 113l-121 72q43 75 48.5 89t5.5 22q0 12 -6 21t-17 9q-24 0 -42 -31l-185 78l-59 -191l39 3l55 -108l88 41l38 -117l-151 -41q-116 -33 -157 -140l-158 -334l-429 -135l-89 33l-9 -17z" />
  </g>

</svg>
