<?xml version="1.0" standalone="no"?>
<!DOCTYPE svg PUBLIC "-//W3C//DTD SVG 1.1//EN" "http://www.w3.org/Graphics/SVG/1.1/DTD/svg11.dtd" >
<svg xmlns="http://www.w3.org/2000/svg" xmlns:xlink="http://www.w3.org/1999/xlink" version="1.1" viewBox="-10 0 1887 2048">
  <g transform="matrix(1 0 0 -1 0 1638)">
   <path fill="currentColor"
d="M651 599l-146 -599h-314v92l141 24q59 9 74 85l67 466q19 128 30 156t29.5 42t50.5 22l151 38l-21 53l356 106l-34 248l-256 -139l-351 168l-29 -19l-248 -1202l-51 7l252 1210l-31 11l-9 37l38 122l23 12l16 -6l94 453l48 -10l-96 -460l29 -10l8 -30l-1 -4l279 -121
l200 135l59 42l-48 41l120 109l-25 50l-57 2l86 188l-64 31l17 63q-16 1 -33.5 8.5t-19.5 16.5q9 30 50 30q20 0 36 -12t16 -29t-8 -32t-8 -32l21 -9q27 97 163 97q137 0 208.5 -79.5t71.5 -224.5v-26l130 173q70 18 70 70q0 51 -51 51q-26 0 -35 -13.5t-9 -24.5
q0 -15 15 -42l-100 -40l-13 38l62 25q-4 8 -4 22q0 34 25.5 54.5t60.5 20.5q40 0 65.5 -23t25.5 -60q0 -92 -90 -109l-152 -205v-139q29 -16 56 -63l151 -268l-47 -98l-353 92l-17 -115v-30q0 -181 -68 -250.5t-224 -69.5h-106v-206h429v492q0 41 22.5 66t60.5 25
q36 0 55.5 -18.5t19.5 -47.5t-18 -44t-39 -15h-20v35h15q22 0 22 25q0 29 -35 29q-43 0 -43 -54v-1003h-745v599zM1283 1079l19 113l-35 9l-38 -13l-29 18l-43 -59l-34 25l43 56l-7 5v38l67 109l25 6l22 -15l27 36v446q0 20 -16 20q-15 0 -25 -12l-142 48l-68 -150l32 -2
l44 -89l79 26l29 -152l-123 -12q-29 -3 -55 -16t-67 -45l-233 -161l-296 129l-14 -46l334 -156l262 146l23 -4l44 -295zM1026 751q108 0 156.5 27.5t75.5 87.5t27 165v13h-216l-300 -91l78 -202h179zM691 35h196v681h-196v-681zM1356 35v365h-342v-365h342zM651 745v6h151
l-55 140l-157 -43q-37 -11 -53 -45.5t-30 -140.5l-69 -473q-19 -90 -102 -104l-106 -18v-29h252zM1340 1460l155 207v44q0 155 -58.5 226.5t-179.5 71.5q-104 0 -128 -64l131 -46q10 11 27 11q23 0 38 -17t15 -38v-395zM1601 1203l-290 64l-21 -34l389 -103l26 54l-144 246
l-26 42v-68h-99l169 -190zM1356 435v40h-429v-440h47v400h382zM1495 1439v164l-122 -164h122zM1054 1552q26 12 63 16l73 7l-13 71l-67 -16zM1382 1288l137 -29l-108 111zM1198 1262l49 -32l48 81l-50 32zM352 1406l55 -19l27 90l-56 19zM1343 1298l44 106h-40l-41 -56
l25 -16l1 -31zM1221 1811l-48 -5q-41 0 -71 26q6 8 23 13.5t31 5.5q23 0 37 -9t28 -31z" />
  </g>

</svg>
