<?xml version="1.0" standalone="no"?>
<!DOCTYPE svg PUBLIC "-//W3C//DTD SVG 1.1//EN" "http://www.w3.org/Graphics/SVG/1.1/DTD/svg11.dtd" >
<svg xmlns="http://www.w3.org/2000/svg" xmlns:xlink="http://www.w3.org/1999/xlink" version="1.1" viewBox="-10 0 2700 2048">
  <g transform="matrix(1 0 0 -1 0 1638)">
   <path fill="currentColor"
d="M230 207v37l189 43l56 41v18l1 11q-50 164 -79.5 301.5t-29.5 241.5v20l-52 -17l-2 66l147 70h58l232 -43q-35 135 -35 214q0 36 15 92l86 240v32q-5 15 -25.5 28t-57.5 13q-42 0 -105 7q-18 2 -44.5 30.5t-32.5 55.5l-1 20q0 34 15.5 58.5t38.5 35.5l78 34l19 25
q10 6 45 18q10 44 40.5 79t63.5 35t47 -4q20 8 66 8q90 0 156.5 -58.5t66.5 -146.5q0 -83 -18 -188q-10 -54 -10 -96q0 -38 12.5 -87.5t27.5 -103.5q17 -59 32.5 -115.5t15.5 -104.5v-214q0 -76 18 -177.5t53 -202.5q-1 17 -26 144q-31 136 -31 214q0 80 44 169t84 89
q25 0 38 -11.5t13 -26.5q0 -30 -31 -84q-24 -46 -31.5 -85.5t-7.5 -91.5l6 -45l27 -170q26 -162 26 -200q0 -155 -108 -218h355v1824l317 -276l317 276v-401q48 85 141 85q56 0 85 -33t29 -89q0 -70 -46.5 -126t-127.5 -83q16 -51 65 -160l-87 -41q-40 78 -59 131v-1107h281
q-93 -172 -295.5 -325t-451.5 -235t-498 -82q-253 0 -501.5 83t-449.5 234.5t-294 324.5h130zM1345 -395q227 0 456 73t422.5 206t287.5 283h-2332q88 -145 282 -279.5t425.5 -208.5t458.5 -74zM441 919l5 14l45 18l-3 8l-81 -28v-31q0 -98 26 -223t82 -322v-47l-74 -54
l-172 -39v-8h209l28 12h34l13 -12h44v56l-17 33q7 82 10.5 124t3.5 82q0 77 -19 259l42 9l335 -455q34 -49 83 -77.5t107 -30.5q129 0 187.5 55.5t58.5 162.5q0 62 -39 279q-20 115 -20 136q0 108 41 190q29 51 29 71q0 5 -5 5q-14 0 -36.5 -37.5t-40 -92t-17.5 -95.5
q0 -76 30 -208q23 -103 23 -193q0 -97 -24 -171l-39 8q20 44 20 111l-1 24l-11 35q-40 92 -66 207t-26 209v214q0 61 -46 210q-16 56 -29.5 108t-13.5 93q0 35 11 101q18 105 18 183q0 73 -49 119t-134 46q-18 0 -39 -6q19 -38 19 -63v-5h-35v6q0 23 -14.5 43.5t-43.5 20.5
q-47 0 -64 -74l-7 -28q-14 0 -29 -4t-20 -9q-8 -6 -11.5 -15t-13.5 -16l-78 -32q-37 -17 -37 -56v-8l13 -1h14q97 0 157 23l10 -38q-57 -24 -167 -24h-22q11 -23 34 -34t114 -13q53 0 80 -21t34 -48l-1 -38l-88 -245q0 -1 -2 -9t-4.5 -20t-4.5 -26t-2 -27q0 -65 26 -172
l11 -52l124 -26q-8 52 -8 142q0 134 21 190l38 -10q-20 -55 -20 -180q0 -107 17 -181l-452 89h-44l-119 -57l1 -12l134 45l26 -7l11 -41l-47 -19l7 -16l73 28h37q121 -47 238 -83.5t167 -36.5q40 0 52.5 34.5t12.5 114.5v263h40v-263q0 -96 -24.5 -142t-80.5 -46
q-54 0 -179.5 39.5t-228.5 81.5h-31l-81 -29l-19 5zM2269 207v1153h-554v-1153h554zM1715 1460h554v484l-277 -239l-277 239v-484zM637 207h372q-41 25 -68 59l-320 436q13 -136 13 -200q0 -44 -13 -200l4 -9l12 -23v-63zM2309 1500q0 -71 25 -138t55 -133l19 8
q-32 69 -55 138.5t-23 111.5q0 73 31.5 122.5t80.5 49.5q34 0 50 -21t16 -47q0 -42 -38 -88t-99 -70l7 -19q69 28 109.5 77.5t40.5 101.5q0 42 -20.5 64t-57.5 22q-63 0 -102 -51t-39 -128zM972 1893q44 58 72 58q25 0 44 -31t19 -67q0 -41 -25 -76.5t-56 -35.5
q-26 0 -52 13l19 32q9 -9 25 -9q17 0 35.5 23.5t18.5 52.5q0 23 -10 41t-16 21q-19 -2 -49 -48zM1715 1400h554v20h-554v-20zM2360 1487l2 -23q48 21 79 57.5t31 69.5q0 32 -30 32q-35 0 -58.5 -40.5t-23.5 -95.5zM806 1882q18 32 42 32q22 0 56 -38q-24 -12 -38 -12
q-30 0 -60 18z" />
  </g>

</svg>
