<?xml version="1.0" standalone="no"?>
<!DOCTYPE svg PUBLIC "-//W3C//DTD SVG 1.1//EN" "http://www.w3.org/Graphics/SVG/1.1/DTD/svg11.dtd" >
<svg xmlns="http://www.w3.org/2000/svg" xmlns:xlink="http://www.w3.org/1999/xlink" version="1.1" viewBox="-10 0 3113 2048">
  <g transform="matrix(1 0 0 -1 0 1638)">
   <path fill="currentColor"
d="M567 2079h126v-127q179 -25 323 -117.5t240.5 -254t117.5 -340.5v839h126v-127q179 -25 323 -117.5t240.5 -254t117.5 -340.5v839h126v-127q152 -20 273.5 -87.5t211.5 -173t144.5 -245.5t54.5 -256q0 -117 -54.5 -187t-146.5 -70q-109 0 -182.5 122.5t-105.5 374.5
q-30 256 -195 347v-1636h227q136 0 241 -63t166.5 -190t61.5 -252q0 -114 -46.5 -175t-132.5 -61q-100 0 -152.5 60.5t-52.5 172.5q0 40 13 123q12 72 12 108q0 45 -37.5 76t-107.5 31h-192v-160h-126v160h-681v-160h-126v160h-681v-160h-126v160h-467v170h467v1938z
M2499 11q85 0 135 -41t50 -106q0 -42 -12 -114q-13 -83 -13 -117q0 -93 42.5 -143t122.5 -50q67 0 103 50t36 146q0 116 -56 232.5t-151 174.5t-222 58h-2394v-90h2359zM1374 1139q-13 -100 -66.5 -153t-131.5 -53q-109 0 -182.5 122.5t-105.5 374.5q-30 256 -195 347v-1636
h681v998zM2181 1139q-13 -100 -66.5 -153t-131.5 -53q-109 0 -182.5 122.5t-105.5 374.5q-30 256 -195 347v-1636h681v998zM1983 973q75 0 118 60t43 157q0 105 -52.5 240t-136.5 235.5t-198.5 164.5t-256.5 83v-91q196 -95 235 -392q31 -232 95 -344.5t153 -112.5z
M1176 973q75 0 118 60t43 157q0 105 -52.5 240t-136.5 235.5t-198.5 164.5t-256.5 83v-91q196 -95 235 -392q31 -232 95 -344.5t153 -112.5zM2790 973q75 0 118 60t43 157q0 105 -52.5 240t-136.5 235.5t-198.5 164.5t-256.5 83v-91q196 -95 235 -392q31 -232 95 -344.5
t153 -112.5z" />
  </g>

</svg>
