<?xml version="1.0" standalone="no"?>
<!DOCTYPE svg PUBLIC "-//W3C//DTD SVG 1.1//EN" "http://www.w3.org/Graphics/SVG/1.1/DTD/svg11.dtd" >
<svg xmlns="http://www.w3.org/2000/svg" xmlns:xlink="http://www.w3.org/1999/xlink" version="1.1" viewBox="-10 0 1103 2048">
  <g transform="matrix(1 0 0 -1 0 1638)">
   <path fill="currentColor"
d="M322 150h82l20 -82l-54 -68h-80l-35 22l-56 -19l-60 5l-39 64l172 375q60 331 75 384q22 58 90.5 154t121.5 138t110.5 66t138.5 39.5t185 15.5v-40q-287 0 -428 -128q-45 -41 -104 -127.5t-78 -135.5v2q-2 -8 -5 -21.5t-67 -356.5l-167 -364l15 -31l34 1l17 5l49 15
l45 -27h48l35 36l-10 45h-55v33zM357 326q69 90 119 125t101 35q54 0 93.5 -17.5t65.5 -32.5q38 -21 82 -29.5t97 -15.5v-36q-214 -39 -324 -39q-26 0 -81 10q-50 9 -82 9t-71 -9zM371 466q39 52 95 86t110 34q35 0 111 -31t148 -69l-18 -36q-181 96 -241 96
q-91 0 -173 -104zM537 402q0 -19 13.5 -32.5t32.5 -13.5t32.5 13.5t13.5 32.5t-13.5 32.5t-32.5 13.5t-32.5 -13.5t-13.5 -32.5zM660 440q9 -17 9 -38q0 -27 -16 -49q39 2 151 19q-39 13 -113 55zM497 402l3 24q-25 -18 -58 -56l65 -8q-10 17 -10 40z" />
  </g>

</svg>
