<?xml version="1.0" standalone="no"?>
<!DOCTYPE svg PUBLIC "-//W3C//DTD SVG 1.1//EN" "http://www.w3.org/Graphics/SVG/1.1/DTD/svg11.dtd" >
<svg xmlns="http://www.w3.org/2000/svg" xmlns:xlink="http://www.w3.org/1999/xlink" version="1.1" viewBox="-10 0 1526 2048">
  <g transform="matrix(1 0 0 -1 0 1638)">
   <path fill="currentColor"
d="M604 1540h-32l-52 -63l-213 -430v-61l146 -480l85 -79l8 -44q5 -51 34 -83l23 -27l-44 -50q-29 15 -49.5 38t-33.5 58.5t-17 58.5l-17 -3q0 -20 4 -41t25.5 -73t40.5 -67.5t110 -80.5l-32 -65l-104 36l-100 94l-52 126l-19 160l-215 525v81l304 630l71 41h70l180 -54h66
l180 54h70l71 -41l304 -630v-81l-215 -525l-19 -160l-52 -126l-100 -94l-104 -36l-32 65l106 78q21 15 43.5 68t26.5 75t4 41l-17 3l-4 -16q-14 -58 -37 -89t-59 -50l-44 50l24 27q28 32 34 83l7 44l85 79l146 480v61l-213 430l-52 63h-32l-82 -35h-144zM758 1270
q121 0 190.5 -70t69.5 -193q0 -64 -86 -408q-101 -390 -101 -544q0 -71 118 -386h-382q118 315 118 386q0 154 -101 544q-86 324 -86 408q0 124 69.5 193.5t190.5 69.5zM918 1587h48l67 -87l220 -447v-61l-157 -503l-89 -75l-8 -44q-6 -47 -30 -78l-17 -22l11 -12
q26 13 42.5 46.5t34.5 96.5l62 -6l2 -23q0 -19 -5.5 -46.5t-25.5 -73.5t-39 -67t-104 -82l12 -21l72 30l88 85l49 118l11 159l215 527v51l-292 609l-49 34h-65l-180 -52h-66l-180 52h-65l-49 -34l-292 -609v-51l215 -527l11 -159l49 -118l88 -85l72 -30l12 21l-78 59
q-22 15 -36.5 34.5t-37 75t-22.5 100.5l2 23l62 6q15 -54 32 -92t45 -51l11 12l-17 22q-24 31 -30 78l-8 44l-89 75l-157 503v61l220 447l67 87h48l92 -43h136zM891 -291q-95 271 -100 342l-1 26q0 114 63 367q94 377 109.5 454.5t15.5 108.5q0 105 -58.5 164t-161.5 59
t-161.5 -59t-58.5 -164q0 -38 19.5 -128.5t105.5 -434.5q63 -253 63 -367l-1 -26q-5 -71 -100 -342h266z" />
  </g>

</svg>
