<?xml version="1.0" standalone="no"?>
<!DOCTYPE svg PUBLIC "-//W3C//DTD SVG 1.1//EN" "http://www.w3.org/Graphics/SVG/1.1/DTD/svg11.dtd" >
<svg xmlns="http://www.w3.org/2000/svg" xmlns:xlink="http://www.w3.org/1999/xlink" version="1.1" viewBox="-10 0 3436 2048">
  <g transform="matrix(1 0 0 -1 0 1638)">
   <path fill="currentColor"
d="M2425 367q0 112 53 228q-54 7 -101 7h-1527q-151 0 -246 57t-97 148q-367 -49 -367 -908v-53h-40v53q0 453 101 689t307 259q11 106 99.5 157.5t263.5 51.5q42 0 65 -6t34 -16t14 -43v-5q0 -9 11.5 -19t42 -11t57.5 -1h1676q160 0 284 -60.5t197.5 -182.5t73.5 -275
q0 -116 -34.5 -205.5t-93.5 -137.5t-128 -48q-66 0 -117 58t-81 164q-22 -120 -71 -171t-129 -51q-71 0 -125.5 39.5t-88 120t-33.5 161.5zM2637 545q-16 23 -119 43q-53 -106 -53 -221q0 -69 28.5 -141t74 -106t104.5 -34q150 0 172 264l6 64h44q3 -132 54.5 -230
t121.5 -98q59 0 108.5 43.5t78.5 123.5t29 184q0 137 -68 250.5t-182 170.5t-265 57h-1676q-64 0 -89.5 5.5t-43.5 21.5t-18 49q0 14 -15.5 19.5t-57.5 5.5q-167 0 -245.5 -47.5t-78.5 -155.5q0 -73 84 -122t219 -49h1527q100 0 187 -24t105 -49z" />
  </g>

</svg>
