<?xml version="1.0" standalone="no"?>
<!DOCTYPE svg PUBLIC "-//W3C//DTD SVG 1.1//EN" "http://www.w3.org/Graphics/SVG/1.1/DTD/svg11.dtd" >
<svg xmlns="http://www.w3.org/2000/svg" xmlns:xlink="http://www.w3.org/1999/xlink" version="1.1" viewBox="-10 0 1497 2048">
  <g transform="matrix(1 0 0 -1 0 1638)">
   <path fill="currentColor"
d="M273 982l36 -7l-48 151l-105 -69l-36 80l108 30l-72 66q-56 51 -56 108q0 42 24.5 68t66.5 26q59 0 81.5 -43.5t22.5 -122.5v-79l95 66l35 -77l-125 -32l102 -188l62 -11l25 -88q17 -10 30.5 -24t246.5 -300l34 314h-85v64q0 70 26.5 155.5t64.5 133.5l-289 250h-46
l176 144q58 51 112 69q-48 26 -78 73.5t-30 107.5q0 83 59 143t143 60q85 0 144.5 -60t59.5 -143q0 -56 -26.5 -102t-71.5 -72q167 -30 255.5 -161.5t88.5 -365.5v-296h-78v-693l162 -68v-89h-1187v89l212 90l-93 425q-21 98 -21 146q0 34 16 64l-57 146zM1187 136v773
q0 108 -46 168t-130 60q-67 0 -108.5 -56t-53.5 -159l-53 -446l-25 -10l-240 298q-22 27 -49.5 50t-62.5 23q-38 0 -60.5 -25t-22.5 -63q0 -37 19 -117l103 -468l-218 -98v-26h1107v26zM753 890h51l4 36q13 118 68.5 184.5t137.5 66.5q97 0 154 -72.5t57 -196.5v-18h40v256
q0 202 -74.5 327.5t-237.5 162.5q22 -19 36 -61.5t14 -80.5q0 -56 -23 -106t-60 -98l-66 -87q-47 -62 -74 -148.5t-27 -164.5zM656 1491v-38h-75l248 -218l77 100q24 32 40.5 81.5t16.5 81.5q0 71 -33.5 108.5t-92.5 37.5q-49 0 -86.5 -22.5t-69.5 -48.5l-100 -82h75z
M690 1847q0 -68 49 -115.5t115 -47.5t115 47.5t49 115.5t-49 115.5t-115 47.5t-115 -47.5t-49 -115.5zM190 1395q-23 0 -37.5 -15t-14.5 -39q0 -36 48 -82l72 -67l-1 78q0 63 -14 94t-53 31zM305 932l34 -85q32 30 75 30l34 -3l-11 38zM724 1536q0 16 11 27t27 11
q17 0 28 -11t11 -27q0 -17 -11 -28t-28 -11q-16 0 -27 11t-11 28z" />
  </g>

</svg>
