<?xml version="1.0" standalone="no"?>
<!DOCTYPE svg PUBLIC "-//W3C//DTD SVG 1.1//EN" "http://www.w3.org/Graphics/SVG/1.1/DTD/svg11.dtd" >
<svg xmlns="http://www.w3.org/2000/svg" xmlns:xlink="http://www.w3.org/1999/xlink" version="1.1" viewBox="-10 0 1450 2048">
  <g transform="matrix(1 0 0 -1 0 1638)">
   <path fill="currentColor"
d="M720 149l-32 19h-337l-34 41v261l-66 322l53 104q-2 19 -9 43.5t-7 57.5q0 17 12 53l-15 7q-22 -26 -22 -73t6 -89l-60 -18q-28 52 -28 125v33q0 54 25 93l50 84l-19 15l-55 -55l-49 -113v-127l50 -152v-699l56 -42h962l56 42v699l50 152v127l-49 113l-55 55l-19 -15
l50 -84q25 -42 25 -93v-33q0 -73 -28 -125l-60 18q6 42 6 89t-22 73l-15 -7q12 -36 12 -53q0 -33 -7 -57.5t-9 -43.5l53 -104l-66 -322v-261l-34 -41h-337zM720 188l32 19h311l20 25v236l69 321l-48 106q3 21 10 43.5t7 54.5q0 15 -18 69l60 29q40 -47 40 -106q0 -33 -7 -75
l17 -4q16 36 16 93q0 31 -1.5 59.5t-12.5 45.5l-68 113l55 48l82 -74l56 -125v-136l-44 -155v-713l-82 -62h-988l-82 62v713l-44 155v136l56 125l82 74l55 -48l-68 -113q-11 -17 -12.5 -45.5t-1.5 -59.5q0 -57 16 -93l17 4q-7 42 -7 75q0 59 40 106l60 -29q-18 -54 -18 -69
q0 -32 7 -54.5t10 -43.5l-48 -106l69 -321v-236l20 -25h311z" />
  </g>

</svg>
