<?xml version="1.0" standalone="no"?>
<!DOCTYPE svg PUBLIC "-//W3C//DTD SVG 1.1//EN" "http://www.w3.org/Graphics/SVG/1.1/DTD/svg11.dtd" >
<svg xmlns="http://www.w3.org/2000/svg" xmlns:xlink="http://www.w3.org/1999/xlink" version="1.1" viewBox="-10 0 2639 2048">
  <g transform="matrix(1 0 0 -1 0 1638)">
   <path fill="currentColor"
d="M788 1119q0 5 -6.5 15.5t-23.5 10.5zM768 1448q14 0 14 -24q0 -19 -14 -76.5t-34 -76.5t-55 -21l50 -70q10 4 26 4q75 0 75 -99q79 -55 224 -90q113 -28 178.5 -45t100.5 -17q101 0 311 45q186 48 361 48q74 0 108 -9q68 -19 91 -22t46 -3q54 0 100.5 17.5t80.5 71.5
q30 50 46.5 69t30.5 19q8 0 14.5 -14.5t6.5 -40.5q0 -100 -67 -173t-165 -93q71 -219 71 -339l-2 -38q-13 -26 -13 -65q0 -59 23.5 -135t46.5 -106v-70l-37 -284v-167l-60 -24l-28 -69h-184l75 95l76 177l-28 353l-135 130l-4 -109q-52 -138 -184 -420l-18 -112l-40 -4
l-19 -41l-32 -1l-28 -69l-191 1l62 81l136 151l110 330l-6 268q-174 -68 -334 -68q-136 0 -325 40l31 -50l3 -280q20 -61 40 -156t26 -193l-81 -54l-28 -70l-191 1l152 193l2 68l-7 28q-44 189 -126 309l-105 157l-101 -346l-167 -340h-23l-28 -70l-191 1l86 109
q46 71 127 248l57 251q49 220 77 325q-108 106 -155 210l-13 32l-62 -68l97 -37l-54 -90l-72 72l-102 -247l-105 66l161 211l-107 35l61 89l72 -69l12 176q-29 17 -64 17q-48 0 -117 -26l1 -19q0 -57 -36 -114.5t-88 -68.5v164q-38 6 -74.5 25.5t-36.5 36.5v58q2 14 15.5 30
t30.5 35q42 46 66 94l24 49q48 105 118 161v29q0 56 26.5 127t70 127t115.5 125q119 112 180 186.5t92 148.5h80q-28 -150 -147 -295q109 82 159 144.5t67 125.5h65q-4 -97 -64.5 -187.5t-184.5 -190.5l-124 -104q-21 -18 -56.5 -72t-53.5 -100q76 78 189 78zM856 470
q-51 123 -63 260l38 10q6 -90 26 -159.5t50 -130.5t68.5 -118t82.5 -122q58 -84 83 -138t49 -134t33 -120l-3 -95l-52 -63l73 -1l47 34q-15 120 -23 157l-42 170l-9 274l-102 175l32 24l58 -95v1q203 -46 352 -46q102 0 218.5 32.5t179.5 81.5q-64 96 -64 248v22l3 29l40 -6
l-3 -26v-19q0 -176 115 -291l234 -230l28 -381l-69 -154h64l46 16v144l37 282v54q-29 37 -48.5 112.5t-19.5 145.5q0 43 10 68l1 37q0 63 -17.5 145t-65.5 215q112 8 180.5 76t68.5 164l-13 -21q-35 -62 -54 -80q-70 -65 -178 -65q-55 0 -142 24q-35 9 -90 9
q-153 0 -383 -52q-173 -40 -299 -40q-35 0 -77.5 8.5t-140.5 37.5l-69 18q-148 34 -223 80q-26 -104 -179 -277l14 -38q29 -77 81.5 -137t116.5 -115zM1029 1995h-12q-27 -76 -74 -130t-178 -151q-58 -43 -131.5 -108t-110 -138t-36.5 -139v-13q-51 -8 -89.5 -36t-68 -65
t-81.5 -137q-30 -60 -72 -102l-27 -29h39v-29l-42 -33l21 -11l73 37l10 -21l-45 -31l33 -4q6 0 23 12q10 6 21 11.5t58.5 23.5t110.5 19q109 0 175 -121q147 165 162 261q-72 55 -156 189q-18 -5 -37 -36l-23 16q33 60 88 60l27 -1q23 0 31.5 14.5t13.5 44.5
q-53 -6 -103 -33.5t-84 -66.5l-29 21q8 76 49 162.5t94 136.5l64 56q134 110 187 165t83.5 107t35.5 99zM819 450l-135 -558l-114 -233h86l153 322q83 286 104 375l-19 34q-39 28 -75 60zM1941 108l-123 -351l-89 -98h81l21 33l30 3l17 97q158 349 181 417l-3 129l-84 87
l-41 -25zM875 2020h-12q-36 -78 -97.5 -152.5t-171.5 -178.5q-49 -46 -94.5 -96t-75.5 -120.5t-30 -137.5v-5l48 21q12 77 63 161.5t136 151.5q75 64 146 169t88 187zM362 1167q33 33 58 33q31 0 57 -30q-32 -32 -61 -32q-22 0 -34 10t-20 19zM731 1412q-44 0 -83.5 -24
t-87.5 -88l5 -3q37 34 84 57.5t93 28.5l4 19q0 10 -15 10zM249 816v-94q19 10 32.5 46t13.5 68v5q-21 -15 -46 -25zM553 833l-9 -125l52 57q-20 45 -43 68zM405 415l69 159l-100 -141zM1161 -423h34l21 43h-32zM567 -423h34l21 43h-32zM1718 -423h34l21 42h-32zM501 -422h35
l27 42h-29zM1652 -422h35l27 42h-29zM1095 -422h35l27 42h-29zM2180 -422h31l27 42h-25zM2248 -422h25l21 42h-23z" />
  </g>

</svg>
