<?xml version="1.0" standalone="no"?>
<!DOCTYPE svg PUBLIC "-//W3C//DTD SVG 1.1//EN" "http://www.w3.org/Graphics/SVG/1.1/DTD/svg11.dtd" >
<svg xmlns="http://www.w3.org/2000/svg" xmlns:xlink="http://www.w3.org/1999/xlink" version="1.1" viewBox="-10 0 3055 2048">
  <g transform="matrix(1 0 0 -1 0 1638)">
   <path fill="currentColor"
d="M689 59l-140 -59l-89 273h-140l-143 106v208l49 57h-50l-12 97l139 16l-177 542q-26 83 -26 158q0 117 56.5 181t164.5 64q79 0 130 -32.5t78 -88.5t27 -129q0 -116 -78 -212h-104q19 48 29 92t10 102q0 44 -25.5 80t-64.5 36q-68 0 -68 -102q0 -65 23 -134l180 -552
l132 -9l262 -162l1018 46l628 -9l25 20l54 839h324l44 -1062l-62 -82h-2054l-208 -70h-2zM496 620l-69 24h-149l-61 -73v-167l121 -91h281l205 70h2040l42 59l-40 1005h-251l-53 -825l-41 -34l-653 9l-1033 -43l-268 162l-178 11l-189 -19l3 -29l224 4l69 -24v-39zM390 767
l28 -2l-176 537q-25 75 -25 146q0 140 106 140q41 0 69 -23.5t43.5 -59.5t15.5 -71q0 -90 -22 -156h36q23 28 38 78t15 96q0 98 -53 155t-144 57q-89 0 -136 -53.5t-47 -153.5q0 -76 24 -146l179 -550zM572 52l70 29l-63 192h-79z" />
  </g>

</svg>
