<?xml version="1.0" standalone="no"?>
<!DOCTYPE svg PUBLIC "-//W3C//DTD SVG 1.1//EN" "http://www.w3.org/Graphics/SVG/1.1/DTD/svg11.dtd" >
<svg xmlns="http://www.w3.org/2000/svg" xmlns:xlink="http://www.w3.org/1999/xlink" version="1.1" viewBox="-10 0 1754 2048">
  <g transform="matrix(1 0 0 -1 0 1638)">
   <path fill="currentColor"
d="M387 2032l69 -10l-96 -678l30 -9l56 -27h216l126 193q26 41 71 68.5t97 27.5h41v44l-76 6l-16 104l-48 6l65 142l-3 27v13q0 53 43 82.5t122 29.5q87 0 139 -49t52 -125q0 -62 -42 -126l-53 -80v-60h47q43 0 70.5 -7.5t44.5 -21t44 -60.5l130 -303l-17 -263l27 -48
l-1 -39q52 -14 85.5 -52.5t33.5 -88.5q0 -38 -21 -64t-54 -26q-39 0 -62.5 22t-23.5 59l2 20q4 22 14 34.5t12 22.5l1 3q0 8 -5 11l-31 -63l-45 14l-9 15q-14 -13 -37 -50q-13 52 -55 88q8 16 40 33l11 100l13 210l-107 208l-37 -142l-7 -72q58 -56 78 -101t20 -101
q0 -22 -12 -66q-15 -58 -19 -101t-4 -82l4 -103q59 -247 59 -452q0 -75 -10 -145h-294v88l113 23q60 12 60 48v11q0 4 -104 366l-9 61h-123l-190 -597h-287v88l128 23q19 4 31.5 17t27 63t67.5 242l-7 86l28 78h-145l319 535l-10 88l-52 144l-227 -226l-313 37l-24 -9h-14
l-165 -1166l-69 10l165 1168l-34 18l-13 15l-13 74l9 21l15 2l-5 30l65 10zM1008 1142l201 22l6 71l46 177l36 7l131 -253l-25 -306l18 8l22 39l14 -2l14 -58q-9 -4 -24 -20t-16 -22l14 -24l20 -7l37 72l-4 56l-34 51l18 254l-131 302q-21 39 -45 50.5t-65 11.5h-61
q-34 0 -34 43v62l-63 59l38 62q6 9 14.5 27.5t8.5 26.5q0 34 -27 34q-14 0 -25 -11h-147l-40 -93l27 -4l15 -104l84 -6v-105h-76q-41 0 -74.5 -19.5t-63.5 -67.5l-134 -198h-235l-73 37l-42 16l-84 -8l3 -13h78l45 -34l5 -64l297 -34l226 229l30 -5l68 -184zM1269 633l-2 65
q0 94 13 143q22 81 22 106q0 53 -23 93t-66 88l-210 -21l-287 -474h553zM787 37l179 560h-122l-25 -83v-85l-67 -248q-14 -49 -33 -72t-49 -28l-113 -17v-27h230zM1165 597l9 -59l100 -355l3 -28q0 -59 -89 -74l-85 -17v-27h222q8 45 8 118q0 190 -63 442h-105zM1160 1705
l44 68q30 46 30 98q0 62 -42.5 101.5t-107.5 39.5q-61 0 -93.5 -19.5t-32.5 -54.5l3 -29h133q10 10 31 10q26 0 40 -20t14 -42q0 -15 -6.5 -34t-16.5 -31l-34 -51zM1615 736q0 33 -23.5 63t-68.5 44l-2 -4q21 -12 21 -34q0 -23 -13 -39q-15 -19 -15 -45q0 -53 52 -53
q22 0 35.5 19t13.5 49zM234 1283l9 -50l13 -19l44 -21h34l18 16l-6 59l-29 21zM1044 1837q-24 -17 -48 -17q-45 0 -45 20q0 10 13 16t27 6q28 0 53 -25zM1447 853q-27 -2 -44 -14.5t-34 -28.5q13 -8 21 -27l12 19q17 29 47 47v1z" />
  </g>

</svg>
