<?xml version="1.0" standalone="no"?>
<!DOCTYPE svg PUBLIC "-//W3C//DTD SVG 1.1//EN" "http://www.w3.org/Graphics/SVG/1.1/DTD/svg11.dtd" >
<svg xmlns="http://www.w3.org/2000/svg" xmlns:xlink="http://www.w3.org/1999/xlink" version="1.1" viewBox="-10 0 3023 2048">
  <g transform="matrix(1 0 0 -1 0 1638)">
   <path fill="currentColor"
d="M2913 344h-1477q-85 0 -188.5 -32t-276.5 -111q-164 -76 -277 -109.5t-208 -33.5q-180 0 -282.5 119.5t-102.5 309.5v12q173 -35 293 -35q77 0 178 23.5t249 77.5t205 84q99 51 177.5 74t166.5 23h1543v-402zM2873 706h-1534q-53 0 -118 -20.5t-176 -71.5
q-58 -27 -178 -74.5t-219 -79.5q0 -216 -218 -216q-99 0 -211 53l-50 22q42 -104 124.5 -162.5t192.5 -58.5q93 0 200.5 32.5t271.5 110.5q161 77 271.5 110t206.5 33h1437v322zM144 449q0 -43 9 -80q113 -54 168 -69.5t109 -15.5q178 0 178 150v17q-180 -27 -214 -27h-26
q-102 0 -224 25z" />
  </g>

</svg>
