<?xml version="1.0" standalone="no"?>
<!DOCTYPE svg PUBLIC "-//W3C//DTD SVG 1.1//EN" "http://www.w3.org/Graphics/SVG/1.1/DTD/svg11.dtd" >
<svg xmlns="http://www.w3.org/2000/svg" xmlns:xlink="http://www.w3.org/1999/xlink" version="1.1" viewBox="-10 0 1088 2048">
  <g transform="matrix(1 0 0 -1 0 1638)">
   <path fill="currentColor"
d="M207 621h658q33 80 51.5 182.5t18.5 203.5q0 109 -45 265h-317v-295h182v-40h-548v40h235q0 75 -61 181l-205 347q-76 130 -76 216q0 69 16.5 117.5t29.5 77.5l36 -18q-42 -91 -42 -177q0 -39 25.5 -104t44.5 -94l205 -345q33 -56 50.5 -111.5t17.5 -89.5h50v674
q-68 70 -68 158q0 100 63.5 167.5t162.5 67.5q97 0 164 -68.5t67 -160.5q0 -53 -16 -106t-73 -158q31 -69 68 -180t55.5 -203t18.5 -161q0 -109 -20.5 -218.5t-58.5 -197.5l23 -73q59 -185 59 -291q0 -101 -17 -220h-161v40h127q11 73 11 180q0 48 -14 115.5t-66 238.5h-247
l-121 -574h-219v40h186l112 534h-362v40zM800 1573q45 86 57 116.5t18.5 61.5t6.5 64q0 76 -55 132.5t-136 56.5q-78 0 -132 -56.5t-54 -138.5q0 -61 42 -112.5t112 -84.5t141 -39zM573 1312h305q-30 101 -68 191l-12 29q-125 12 -225 84v-304zM207 821h404v-40h-404v40z
M640 1423h181v-40h-181v40z" />
  </g>

</svg>
