<?xml version="1.0" standalone="no"?>
<!DOCTYPE svg PUBLIC "-//W3C//DTD SVG 1.1//EN" "http://www.w3.org/Graphics/SVG/1.1/DTD/svg11.dtd" >
<svg xmlns="http://www.w3.org/2000/svg" xmlns:xlink="http://www.w3.org/1999/xlink" version="1.1" viewBox="-10 0 1397 2048">
  <g transform="matrix(1 0 0 -1 0 1638)">
   <path fill="currentColor"
d="M1073 877q48 0 82 -38t34 -89q0 -38 -9 -86t-105 -485l212 -90v-89h-1187v89l162 68v693h-78v296q0 234 88.5 365.5t255.5 161.5q-45 26 -71.5 72t-26.5 102q0 84 59.5 143.5t144.5 59.5t143.5 -60.5t58.5 -142.5q0 -60 -30 -107.5t-78 -73.5q54 -18 112 -69l176 -144
h-46l-289 -250q38 -49 64.5 -135t26.5 -154v-64h-85l34 -314l213 262q27 33 59.5 56t79.5 23zM140 66v-26h1107v26l-218 98l96 434q26 121 26 151q0 38 -22.5 63t-60.5 25q-35 0 -62.5 -23t-49.5 -50l-240 -298l-25 10l-53 446q-12 105 -54.5 160t-107.5 55
q-84 0 -130 -60.5t-46 -167.5v-773zM484 1494q0 39 14 81t36 61q-90 -21 -147.5 -64t-91 -100.5t-53.5 -138t-20 -187.5v-256h40v18q0 123 57 196t154 73q81 0 137.5 -66.5t68.5 -184.5l4 -36h51q0 77 -26.5 164t-74.5 149l-66 87q-38 49 -60.5 99t-22.5 105zM906 1491
l-100 82q-32 26 -69.5 48.5t-86.5 22.5q-59 0 -92.5 -38t-33.5 -108q0 -33 17 -83t40 -80l77 -100l248 218h-75v38h75zM797 1847q0 68 -49 115.5t-115 47.5t-115 -47.5t-49 -115.5t49 -115.5t115 -47.5t115 47.5t49 115.5zM725 1497q-17 0 -28 11t-11 28q0 16 11 27t28 11
q16 0 27 -11t11 -27q0 -17 -11 -28t-27 -11z" />
  </g>

</svg>
