<?xml version="1.0" standalone="no"?>
<!DOCTYPE svg PUBLIC "-//W3C//DTD SVG 1.1//EN" "http://www.w3.org/Graphics/SVG/1.1/DTD/svg11.dtd" >
<svg xmlns="http://www.w3.org/2000/svg" xmlns:xlink="http://www.w3.org/1999/xlink" version="1.1" viewBox="-10 0 2413 2048">
  <g transform="matrix(1 0 0 -1 0 1638)">
   <path fill="currentColor"
d="M1908 2094l395 -452l-761 -592q-87 -68 -89 -150q-10 -402 -63 -700q-26 -144 -42 -235.5t-16 -116.5q0 -13 6.5 -58t40.5 -217q-17 -116 -87 -173h-181q-36 0 -115 26q-80 25 -99 25q-35 0 -135 -24q-108 -26 -145 -27h-517v178l51 11q137 29 238 66q103 39 194 60
q130 29 163 52q97 65 138.5 145t41.5 211l-2 84l-5 266v36q3 117 9 212.5t15 184t39 282.5q8 59 32.5 100t77.5 87zM959 508v-36l7 -352q0 -148 -45.5 -236t-152.5 -153q-26 -16 -98 -34l-154 -39l-60 -19q-134 -49 -177 -60l-141 -34v-105h484q44 0 139 25q99 26 136 26
q27 0 108 -25q81 -26 113 -26h154q22 17 42 60t23 76q-45 225 -45 272q0 33 33 205q37 189 48 301l27 349l13 198q2 55 27 98t76 83q241 194 729 566l-341 390l-785 -693q-42 -37 -68 -81.5t-29 -83.5l-14 -121q-47 -327 -49 -551z" />
  </g>

</svg>
