<?xml version="1.0" standalone="no"?>
<!DOCTYPE svg PUBLIC "-//W3C//DTD SVG 1.1//EN" "http://www.w3.org/Graphics/SVG/1.1/DTD/svg11.dtd" >
<svg xmlns="http://www.w3.org/2000/svg" xmlns:xlink="http://www.w3.org/1999/xlink" version="1.1" viewBox="-10 0 2352 2048">
  <g transform="matrix(1 0 0 -1 0 1638)">
   <path fill="currentColor"
d="M1171 868q157 0 335 -50.5t345.5 -140t279 -189t111.5 -157.5q0 -36 -26 -36l-17 3q-26 7 -125 64q-150 88 -250 133v-164h-1328v153q-85 -40 -228 -122q-97 -54 -114 -60.5t-28 -6.5q-26 0 -26 36q0 58 112 157.5t279.5 189t345.5 140t334 50.5zM1171 689
q157 0 296 -31.5t255.5 -77.5t236 -111t170.5 -96q60 -39 70 -39q3 0 3 3q0 33 -74.5 103t-193.5 144.5t-242 126.5t-256 84.5t-265 32.5t-265 -32.5t-256.5 -84.5t-242.5 -126.5t-193 -144.5t-74 -103q0 -3 3 -3q10 0 71 39q44 27 167.5 94.5t242 114t257 77t290.5 30.5z
M1232 371v276l-61 2l-83 -3v-275h144zM1416 371v256q-71 12 -144 18v-274h144zM1048 371v272q-75 -8 -144 -21v-251h144zM1600 371v210q-74 23 -144 38v-248h144zM864 371v243q-75 -17 -144 -39v-204h144zM1784 371v142q-82 34 -144 55v-197h144zM680 371v190
q-76 -28 -144 -58v-132h144z" />
  </g>

</svg>
