<?xml version="1.0" standalone="no"?>
<!DOCTYPE svg PUBLIC "-//W3C//DTD SVG 1.1//EN" "http://www.w3.org/Graphics/SVG/1.1/DTD/svg11.dtd" >
<svg xmlns="http://www.w3.org/2000/svg" xmlns:xlink="http://www.w3.org/1999/xlink" version="1.1" viewBox="-10 0 1833 2048">
  <g transform="matrix(1 0 0 -1 0 1638)">
   <path fill="currentColor"
d="M1276 975q-90 159 -156 235l-79 -297l-12 -222h2v-325h68l41 -190q4 -17 4 -33q0 -35 -19.5 -63t-83 -54t-93.5 -26l-29 79l60 31q15 10 15 20q0 9 -42 100l-431 -171q-150 -59 -243 -59q-76 0 -127 44t-51 115q0 44 26 80.5t92 80.5l432 301l11 153q-65 397 -65 487
q0 86 42.5 159.5t113.5 100.5l-13 53l-60 -21l-59 -118l-75 51l96 97l-34 91l-64 3l102 226l4 27q15 58 57 89t122 31q118 0 198 -57t80 -146q0 -47 -25 -98t-97 -146v-78l34 1q48 0 92 -9.5t88.5 -54.5t95.5 -125t101 -184q-18 38 -18 80q0 61 34.5 99t91.5 38
q55 0 87.5 -33.5t32.5 -99.5q0 -43 -34 -88.5t-87 -80.5l201 -90q20 -9 20 -33q0 -14 -9.5 -24t-21.5 -10l-18 4l-104 55l84 -119l3 -13q0 -15 -15.5 -27t-32.5 -12q-13 0 -17 8l-148 227q30 -103 42.5 -180t12.5 -168l-1 -72l86 -198l-56 -24l-42 80l-11 -44l50 -112
l-62 -31l-84 142l21 98l-32 132l-33 -73v-215h-61l-7 90l-27 -36l1 -123l-69 -3l-21 163l58 82l69 366q-11 25 -11 45l3 15zM1021 1493q-47 0 -75 -7v109l-100 85q55 76 61.5 88.5t6.5 19.5q0 29 -23 29q-22 0 -42 -26l-175 99l-82 -186l39 -2l42 -113l92 30l31 -125
q-53 -9 -88 -47t-53 -93t-18 -103q0 -79 62 -475l-13 -143l311 65l9 225l95 369q79 -76 157 -212l46 -80l87 72q-53 124 -140.5 257t-135.5 149q-44 13 -94 15zM229 276l70 -99q134 74 315.5 124.5t378.5 63.5v295l-323 -72zM970 33q50 16 94 40t44 77l-3 26l-36 152
q-422 -4 -779 -199l-92 121q-29 -16 -44.5 -41t-15.5 -51q0 -51 41.5 -84.5t101.5 -33.5q78 0 240 63l445 176l52 -111q9 -20 9 -38q0 -30 -19 -40l-50 -26zM959 1629q64 85 86.5 135t22.5 92q0 44 -35 79.5t-91 56t-112 20.5q-117 0 -145 -88l160 -92q26 21 49 21
q26 0 41 -19.5t15 -42.5q0 -20 -31 -65l-29 -36zM1345 928q33 -98 88 -405l-22 -88l60 -106l14 7l-43 94l23 84l19 6l49 -89l13 6l-75 168q0 224 -55 399zM1316 889q-21 -113 -77 -362l-55 -72l12 -121l16 1l-2 103l55 68l19 -2l10 -101h14l-2 184q25 56 49 125zM1473 1122
q24 17 50 51t26 57q0 62 -51 62q-27 0 -38 -19.5t-11 -42.5q0 -50 24 -108zM724 1773q-41 0 -71 26q6 8 23 13.5t31 5.5q23 0 37 -9t28 -31z" />
  </g>

</svg>
