<?xml version="1.0" standalone="no"?>
<!DOCTYPE svg PUBLIC "-//W3C//DTD SVG 1.1//EN" "http://www.w3.org/Graphics/SVG/1.1/DTD/svg11.dtd" >
<svg xmlns="http://www.w3.org/2000/svg" xmlns:xlink="http://www.w3.org/1999/xlink" version="1.1" viewBox="-10 0 1523 2048">
  <g transform="matrix(1 0 0 -1 0 1638)">
   <path fill="currentColor"
d="M763 525l34 301q19 160 107 220l-12 98l-45 -16l-112 -153l-72 61l131 119l-34 89l-64 3l101 221l23 186q42 47 158 129l-90 102q-56 61 -56 114q0 32 22.5 56.5t60.5 24.5q36 0 55.5 -18.5t19.5 -47.5t-18 -44t-39 -15h-20v35h15q22 0 22 25q0 29 -35 29q-43 0 -43 -44
q0 -27 11.5 -47t33.5 -44l93 -105q71 46 103 83q9 9 19 37q16 40 28 53.5t29 21.5t40 8q34 0 52.5 -20t18.5 -51q0 -27 -13 -41t-29 -30q-17 -18 -17 -28q0 -9 11 -15q9 -5 9 -16l-2 -11l112 205h42l-263 -857l-32 7l-13 -101q109 -66 109 -241v-651l162 -68v-89h-1187v89
l212 90l-93 425q-21 98 -21 146q0 43 24 78l-54 141l16 22l36 -7l-48 151l-105 -69l-36 80l108 30l-72 66q-56 51 -56 108q0 42 24.5 68t66.5 26q59 0 81.5 -43.5t22.5 -122.5v-79l95 66l35 -77l-125 -32l102 -188l62 -11l26 -92zM762 465l-242 299q-22 27 -49.5 50
t-62.5 23q-38 0 -60.5 -25t-22.5 -63q0 -37 19 -117l103 -468l-218 -98v-26h1107v26l-160 70v673q0 108 -46 168t-130 60q-67 0 -108.5 -56t-53.5 -159l-46 -347zM1186 1603l-328 13l-22 -149l170 -51q26 21 49 21q26 0 41 -19.5t15 -42.5q0 -20 -11 -43t-28 -33l-19 -94
l72 -18l207 669zM1003 1077q32 0 62 -9l13 92l-64 16l23 133q21 17 29.5 36t8.5 27q0 29 -23 29q-22 0 -42 -26l-194 57l-71 -158l39 -2l42 -113l92 30l18 -126q34 14 67 14zM1169 1640l54 94q10 19 10 35q0 20 -18 34q-20 14 -20 32q0 17 24 41q13 13 27.5 28.5t14.5 29.5
q0 37 -32 37q-21 0 -36.5 -13.5t-27.5 -47.5q-16 -38 -26 -48q-41 -45 -135 -105q-17 -11 -63 -46t-70 -59zM190 1404q-23 0 -37.5 -15t-14.5 -39q0 -36 48 -82l72 -67l-1 78q0 63 -14 94t-53 31zM305 941l34 -85q29 21 64 21q32 0 50 -6l-16 50zM925 1348l-48 -5
q-41 0 -71 26q6 8 23 13.5t31 5.5q23 0 37 -9t28 -31z" />
  </g>

</svg>
