<?xml version="1.0" standalone="no"?>
<!DOCTYPE svg PUBLIC "-//W3C//DTD SVG 1.1//EN" "http://www.w3.org/Graphics/SVG/1.1/DTD/svg11.dtd" >
<svg xmlns="http://www.w3.org/2000/svg" xmlns:xlink="http://www.w3.org/1999/xlink" version="1.1" viewBox="-10 0 3128 2048">
  <g transform="matrix(1 0 0 -1 0 1638)">
   <path fill="currentColor"
d="M1323 349l821 38l498 -8l21 17l42 675h277l36 -863l-58 -74h-1654l-168 -57h-57l36 -91h-42l-36 91h-143l-124 93v168l47 46h-48l-9 86l121 13l-283 735l-92 -1078l-40 3l6 67l-127 10l-17 -67l-40 3l17 67l-140 10l-27 -66l-40 3l467 1143l39 -3l317 -822l28 3l162 -11z
M1037 365l-56 19h-119l-50 -59v-134l98 -74h226l165 57h1644l33 48l-31 809h-203l-42 -665l-33 -27l-527 8l-832 -36l-216 131l-143 9l-13 -2l13 -35l30 1l56 -18v-32zM478 250l77 928l-372 -906zM801 412l109 2l-12 31l-100 -10z" />
  </g>

</svg>
