<?xml version="1.0" standalone="no"?>
<!DOCTYPE svg PUBLIC "-//W3C//DTD SVG 1.1//EN" "http://www.w3.org/Graphics/SVG/1.1/DTD/svg11.dtd" >
<svg xmlns="http://www.w3.org/2000/svg" xmlns:xlink="http://www.w3.org/1999/xlink" version="1.1" viewBox="-10 0 2583 2048">
  <g transform="matrix(1 0 0 -1 0 1638)">
   <path fill="currentColor"
d="M2430 342q-44 25 -64.5 70t-20.5 91q0 25 19 122l-24 158l-41 -163l20 -136l-42 -430l-35 3l-24 -57l-109 -10l-47 24l49 100l17 11l17 340l-149 106l-54 -17l-57 -155l-198 -345l-15 3l-24 -57l-109 -10l-47 24l49 100l17 11l105 164l62 195l-114 -36l-17 32l47 15
l-484 24l-126 -465l-19 3l-24 -57l-109 -10l-47 24l49 100l17 11l61 319l-51 12l-13 -57l-198 -345l-15 3l-24 -57l-109 -10l-47 24l49 100l17 11l105 164l72 240q-77 57 -120 154l-98 220l-297 -38l-67 51l-63 99v26l205 198q-64 19 -103.5 83.5t-39.5 141.5q0 30 19.5 79
t67.5 99l30 -9q-11 -63 -11 -107q0 -68 34.5 -115t106.5 -79q33 19 68 19q20 0 49 -9q77 40 103.5 101t26.5 211l26 11q73 -95 73 -178q0 -109 -65 -180l48 13l10 -16l-16 -55l227 -49q169 -38 257.5 -52t160.5 -14q47 0 277 31q229 30 290 30q194 0 293 -46.5t116 -155.5
l59 -361l19 -41q42 -83 42 -161q0 -43 -14 -85zM1141 694l33 -113l-7 -26l554 -28l247 75l-134 211l39 20l140 -220l172 -126l-18 -371l79 -20l34 391l-21 133l67 255l-16 105q-14 95 -105 136t-261 41q-59 0 -288 -30q-230 -31 -277 -31q-140 0 -368 52
q-126 29 -195.5 44.5t-94.5 16.5l-17 -52l-103 -19l-14 36l84 17l26 86l-139 -67l-17 32q92 48 133 109t41 138q0 9 -7 37t-14 41q0 -112 -49 -181t-132 -96l-15 25q-36 0 -63 -11.5t-69 -51.5l-227 -219l49 -83l112 25l17 -29l-111 -26l34 -17l298 39l106 87l27 -25
l-102 -89l90 -207q79 -181 293 -217l-75 102q-44 58 -64.5 122.5t-20.5 154.5h40q0 -87 17.5 -144t62.5 -118l92 -127l-67 -365l69 -17l128 476l-32 102zM1597 116l69 -17l187 318l38 120l-116 -37l-70 -219zM607 116l69 -17l187 318l6 50q-39 12 -90 40l-64 -226zM376 1306
q-150 71 -150 247q-24 -48 -24 -89q0 -67 38 -123.5t97 -71.5zM376 1216q18 0 30.5 -12.5t12.5 -30.5q0 -17 -12.5 -29.5t-30.5 -12.5q-17 0 -29.5 12.5t-12.5 29.5q0 18 12.5 30.5t29.5 12.5zM246 1020l-42 -37l-34 58l59 14zM1632 67l-59 15l-21 -47h69zM2202 67l-59 15
l-21 -47h69zM642 67l-59 15l-21 -47h69zM972 67l-59 15l-21 -47h69z" />
  </g>

</svg>
