<?xml version="1.0" standalone="no"?>
<!DOCTYPE svg PUBLIC "-//W3C//DTD SVG 1.1//EN" "http://www.w3.org/Graphics/SVG/1.1/DTD/svg11.dtd" >
<svg xmlns="http://www.w3.org/2000/svg" xmlns:xlink="http://www.w3.org/1999/xlink" version="1.1" viewBox="-10 0 1763 2048">
  <g transform="matrix(1 0 0 -1 0 1638)">
   <path fill="currentColor"
d="M693 1446l194 76q14 15 73 40t93 30v49l-98 6l-16 104l-48 6l65 142l-3 27v13q0 53 43 82.5t122 29.5q87 0 139 -49t52 -125q0 -57 -42 -126l-32 -58v-69q85 0 133.5 -21.5t77.5 -64.5l106 -201l33 -335l44 -34l24 -56l-7 -116h-45l-7 81l-25 23l-6 -59h-41l-30 108
l-44 285l-95 177l9 -290q46 -66 64 -125.5t18 -127.5q0 -21 -12 -55q-23 -64 -23 -136q0 -52 4 -80q59 -247 59 -452q0 -75 -10 -145h-294v88l113 23q60 12 60 48v11q0 4 -104 366l-9 61h-163l-190 -597h-287v88l135 23q23 5 36.5 20.5t22.5 61.5l67 240l-7 86l28 78h-22
l254 485l-108 272l-295 -67l-355 81l-128 8l-62 29l-54 58l36 41l52 -44l54 -12h54v7l-27 11h-55v59h84l87 -49zM697 1325l320 75l116 -300l194 35l-11 317l40 17l123 -224l42 -287l18 -97h8l6 73l14 5l42 -41l8 -77h10l5 82l-27 48l-47 36l-37 331l-113 208
q-23 34 -62.5 48t-110.5 14h-31v70l-87 77l38 62q6 9 14.5 27.5t8.5 26.5q0 34 -27 34q-14 0 -25 -11h-147l-40 -93l27 -4l15 -104l106 -6v-104q-47 -7 -104 -31t-79 -45l-202 -78l-321 42l-96 52h-54v-18h39l70 -32v-27h-100l-57 13l-47 36l-8 -9l43 -39l52 -25l134 -9z
M1372 633l-1 17v17q0 38 4 71.5t17 70.5t13 57q0 145 -73 235l-200 -35l-223 -433h463zM850 37l179 560h-119l-30 -83v-85l-65 -248q-13 -83 -82 -100l-113 -17v-27h230zM1268 597l9 -59l100 -355l3 -28q0 -59 -89 -74l-85 -17v-27h222q8 45 8 118q0 190 -63 442h-105z
M1197 1705l44 68q30 46 30 98q0 62 -42.5 101.5t-107.5 39.5q-61 0 -93.5 -19.5t-32.5 -54.5l3 -29h133q10 10 31 10q26 0 40 -20t14 -42q0 -15 -6.5 -34t-16.5 -31l-34 -51zM1078 1837q-24 -17 -48 -17q-45 0 -45 20q0 10 13 16t27 6q28 0 53 -25z" />
  </g>

</svg>
