<?xml version="1.0" standalone="no"?>
<!DOCTYPE svg PUBLIC "-//W3C//DTD SVG 1.1//EN" "http://www.w3.org/Graphics/SVG/1.1/DTD/svg11.dtd" >
<svg xmlns="http://www.w3.org/2000/svg" xmlns:xlink="http://www.w3.org/1999/xlink" version="1.1" viewBox="-10 0 3207 2048">
  <g transform="matrix(1 0 0 -1 0 1638)">
   <path fill="currentColor"
d="M946 31v1441q-282 79 -846 115v331q247 9 496 50.5t476 110.5v-2048h1325v1440q-282 79 -846 115v331q247 9 496 50.5t476 110.5v-2047h105q139 0 244.5 -48.5t165 -146.5t59.5 -209q0 -103 -46.5 -165t-132.5 -62q-100 0 -152.5 53t-52.5 150q0 27 13 94q12 67 12 97
q0 45 -37.5 76t-107.5 31h-2095v130h448zM1591 1626q452 -29 806 -112v483q-171 -48 -393.5 -81t-412.5 -39v-251zM140 1627q452 -29 806 -112v483q-171 -48 -393.5 -81t-412.5 -39v-251zM2593 -59q85 0 135 -41t50 -106q0 -29 -12 -94q-13 -66 -13 -97q0 -163 165 -163
q63 0 101 49.5t38 137.5q0 102 -54.5 190t-150.5 131t-224 43h-2090v-50h2055z" />
  </g>

</svg>
