<?xml version="1.0" standalone="no"?>
<!DOCTYPE svg PUBLIC "-//W3C//DTD SVG 1.1//EN" "http://www.w3.org/Graphics/SVG/1.1/DTD/svg11.dtd" >
<svg xmlns="http://www.w3.org/2000/svg" xmlns:xlink="http://www.w3.org/1999/xlink" version="1.1" viewBox="-10 0 1769 2048">
  <g transform="matrix(1 0 0 -1 0 1638)">
   <path fill="currentColor"
d="M191 1758l37 160l62 -11l-12 -119l28 -48l24 85l60 -8l4 -242l111 -290l177 125q36 25 77.5 48t108.5 39l111 24l-13 53l-83 -29l-49 129l-64 3l102 226l4 27q15 58 57 89t122 31q118 0 198 -57t80 -146q0 -47 -25 -98t-97 -146v-78l210 -50q33 -7 54.5 -31t29.5 -55
l154 -529l-73 -360v-200l-85 -27v-28l-85 -18v156l31 88l30 388l-126 377l-83 -323l-25 -325l41 -5v-389l102 -72l173 -30v-92h-182l-278 78l-404 -59q-127 -19 -208 -19q-63 0 -109 27l-96 -27h-182v92l173 30l28 20l-1 11v11q0 82 136 146l-110 400q-4 13 -7.5 35.5
t-4.5 37.5q0 62 35.5 103.5t93.5 41.5q30 0 63 -13.5t56 -39.5l307 -345l30 188l-118 510l-316 -200h-70l-124 551l-59 90zM1249 553h-17l-347 -74l-451 -209l86 -107l729 41v349zM1520 67l-148 18l-119 86l-754 -43l-102 124q-59 -31 -59 -85q0 -58 40 -92.5t112 -34.5
q42 0 111.5 8t510.5 72l270 -82h138v29zM851 502l-325 359l-49 -111l121 -362zM1186 1629q64 85 86.5 135t22.5 92q0 44 -35 79.5t-91 56t-112 20.5q-117 0 -145 -88l160 -92q26 21 49 21q26 0 41 -19.5t15 -42.5q0 -20 -31 -65l-29 -36zM495 876q-21 12 -54 12
q-40 0 -64.5 -28.5t-24.5 -76.5q0 -9 1.5 -20t117.5 -437l90 44l-124 378zM340 56q-18 20 -29 46l-24 -17l-148 -18v-29h138zM999 1778l-48 -5q-41 0 -71 26q6 8 23 13.5t31 5.5q23 0 37 -9t28 -31zM450 1063l334 210h27l126 -553l-34 -202l304 67l26 338l92 351l48 -3
l144 -414l-36 -390l-33 -87v-115l26 5v31l71 23v163l74 382l-138 473q-15 50 -30 70.5t-35 26.5l-243 61v95l-100 85q55 76 61.5 88.5t6.5 19.5q0 29 -23 29q-22 0 -42 -26l-175 99l-82 -186l39 -2l42 -113l92 30l31 -125l-151 -33q-84 -19 -169 -81l-216 -154l-126 342v217
l-17 5l-26 -100l-17 -3l-46 77l11 114l-17 4l-25 -121l23 -77l59 -97l117 -524h27z" />
  </g>

</svg>
