<?xml version="1.0" standalone="no"?>
<!DOCTYPE svg PUBLIC "-//W3C//DTD SVG 1.1//EN" "http://www.w3.org/Graphics/SVG/1.1/DTD/svg11.dtd" >
<svg xmlns="http://www.w3.org/2000/svg" xmlns:xlink="http://www.w3.org/1999/xlink" version="1.1" viewBox="-10 0 2884 2048">
  <g transform="matrix(1 0 0 -1 0 1638)">
   <path fill="currentColor"
d="M100 -227q0 99 50 185.5t136.5 137t186.5 50.5t186.5 -50.5t136 -137.5t49.5 -185q0 -99 -50 -185t-136 -136.5t-186 -50.5q-99 0 -185.5 50t-137 136.5t-50.5 185.5zM204 -227q0 -112 78.5 -190.5t190.5 -78.5t190.5 78.5t78.5 190.5t-78.5 190.5t-190.5 78.5
t-190.5 -78.5t-78.5 -190.5zM100 740q0 99 50 185.5t136.5 137t186.5 50.5t186.5 -50.5t136 -137.5t49.5 -185q0 -99 -50 -185.5t-136.5 -137t-185.5 -50.5t-185.5 50t-137 136.5t-50.5 186.5zM204 740q0 -112 78.5 -190.5t190.5 -78.5t190.5 78.5t78.5 190.5t-78.5 190.5
t-190.5 78.5t-190.5 -78.5t-78.5 -190.5zM1064 740q0 99 50 185.5t136.5 137t186.5 50.5q99 0 185.5 -50t137 -136.5t50.5 -186.5q0 -99 -50 -185.5t-136.5 -137t-186.5 -50.5q-99 0 -185.5 50t-137 136.5t-50.5 186.5zM1168 740q0 -112 78.5 -190.5t190.5 -78.5t190.5 78.5
t78.5 190.5t-78.5 190.5t-190.5 78.5t-190.5 -78.5t-78.5 -190.5zM1064 -227q0 99 50 185.5t136.5 137t186.5 50.5q99 0 185.5 -50t137 -136.5t50.5 -186.5t-50.5 -186.5t-137.5 -136t-185 -49.5q-99 0 -185.5 50t-137 136.5t-50.5 185.5zM1168 -227q0 -112 78.5 -190.5
t190.5 -78.5t190.5 78.5t78.5 190.5t-78.5 190.5t-190.5 78.5t-190.5 -78.5t-78.5 -190.5zM2029 740q0 99 50 185.5t136.5 137t185.5 50.5t185.5 -50t137 -136.5t50.5 -186.5q0 -99 -50 -185.5t-136.5 -137t-186.5 -50.5t-186.5 50.5t-136 137.5t-49.5 185zM2132 740
q0 -112 78.5 -190.5t190.5 -78.5t190.5 78.5t78.5 190.5t-78.5 190.5t-190.5 78.5t-190.5 -78.5t-78.5 -190.5zM2029 -227q0 99 50 185.5t136.5 137t185.5 50.5t185.5 -50t137 -136.5t50.5 -186.5t-50.5 -186.5t-137.5 -136t-185 -49.5q-99 0 -185 50t-136.5 136t-50.5 186z
M2132 -227q0 -112 78.5 -190.5t190.5 -78.5t190.5 78.5t78.5 190.5t-78.5 190.5t-190.5 78.5t-190.5 -78.5t-78.5 -190.5zM100 1707q0 100 50.5 186.5t137.5 136t185 49.5q99 0 185 -50t136.5 -136t50.5 -186q0 -99 -50 -185.5t-136.5 -137t-185.5 -50.5t-185.5 50
t-137 136.5t-50.5 186.5zM204 1707q0 -112 78.5 -190.5t190.5 -78.5t190.5 78.5t78.5 190.5t-78.5 190.5t-190.5 78.5t-190.5 -78.5t-78.5 -190.5zM1064 1707q0 100 50.5 186.5t137.5 136t185 49.5q99 0 185.5 -50t137 -136.5t50.5 -185.5t-50 -185.5t-136.5 -137
t-186.5 -50.5q-99 0 -185.5 50t-137 136.5t-50.5 186.5zM1168 1707q0 -112 78.5 -190.5t190.5 -78.5t190.5 78.5t78.5 190.5t-78.5 190.5t-190.5 78.5t-190.5 -78.5t-78.5 -190.5zM2029 1707q0 99 50 185t136 136.5t186 50.5q99 0 185.5 -50t137 -136.5t50.5 -185.5
t-50 -185.5t-136.5 -137t-186.5 -50.5t-186.5 50.5t-136 137.5t-49.5 185zM2132 1707q0 -112 78.5 -190.5t190.5 -78.5t190.5 78.5t78.5 190.5t-78.5 190.5t-190.5 78.5t-190.5 -78.5t-78.5 -190.5z" />
  </g>

</svg>
