<?xml version="1.0" standalone="no"?>
<!DOCTYPE svg PUBLIC "-//W3C//DTD SVG 1.1//EN" "http://www.w3.org/Graphics/SVG/1.1/DTD/svg11.dtd" >
<svg xmlns="http://www.w3.org/2000/svg" xmlns:xlink="http://www.w3.org/1999/xlink" version="1.1" viewBox="-10 0 2352 2048">
  <g transform="matrix(1 0 0 -1 0 1638)">
   <path fill="currentColor"
d="M1600 1062q-74 23 -144 38v-288h-224v316l-61 2l-83 -3v-315h-224v283q-75 -17 -144 -39v-244h-224v153q-85 -40 -228 -122q-97 -54 -114 -60.5t-28 -6.5q-26 0 -26 36q0 58 112 157.5t279.5 189t345.5 140t334 50.5q157 0 335 -50.5t345.5 -140t279 -189t111.5 -157.5
q0 -36 -26 -36l-17 3q-26 7 -125 64q-150 88 -250 133v-164h-224v250zM1171 1170q157 0 296 -31.5t255.5 -77.5t236 -111t170.5 -96q60 -39 70 -39q3 0 3 3q0 33 -74.5 103t-193.5 144.5t-242 126.5t-256 84.5t-265 32.5t-265 -32.5t-256.5 -84.5t-242.5 -126.5t-193 -144.5
t-74 -103q0 -3 3 -3q10 0 71 39q44 27 167.5 94.5t242 114t257 77t290.5 30.5zM1416 852v256q-71 12 -144 18v-274h144zM1048 852v272q-75 -8 -144 -21v-251h144zM1784 852v142q-82 34 -144 55v-197h144zM680 852v190q-76 -28 -144 -58v-132h144zM1600 520h224v-164
q100 45 250 133q85 49 107 58t35 9q26 0 26 -36q0 -58 -112 -157.5t-279.5 -189t-345.5 -140t-334 -50.5q-157 0 -335 50.5t-345.5 140t-279 189t-111.5 157.5q0 36 26 36q23 0 70 -26l72 -41q143 -82 228 -122v153h224v-244q69 -23 144 -39v283h224v-315l83 -3l61 2v316
h224v-288q70 15 144 38v250zM1171 162q-157 0 -296 31.5t-256 78t-244 115.5t-161 91q-63 39 -71 39q-3 0 -3 -3q0 -33 74.5 -103t193.5 -144.5t242 -126.5t256 -84.5t265 -32.5t265 32.5t256.5 84.5t242.5 126.5t193 144.5t74 103q0 3 -3 3q-8 0 -70 -39
q-32 -20 -161 -90.5t-247 -117t-257 -77.5t-293 -31zM1272 480v-274q73 6 144 18v256h-144zM904 480v-251q69 -14 144 -21v272h-144zM1640 480v-197q62 21 144 55v142h-144zM536 480v-132q68 -30 144 -58v190h-144z" />
  </g>

</svg>
