<?xml version="1.0" standalone="no"?>
<!DOCTYPE svg PUBLIC "-//W3C//DTD SVG 1.1//EN" "http://www.w3.org/Graphics/SVG/1.1/DTD/svg11.dtd" >
<svg xmlns="http://www.w3.org/2000/svg" xmlns:xlink="http://www.w3.org/1999/xlink" version="1.1" viewBox="-10 0 1871 2048">
  <g transform="matrix(1 0 0 -1 0 1638)">
   <path fill="currentColor"
d="M280 56h359v52l128 23q37 7 51 55l75 247l-7 86l27 78l70 215h-76q-14 -30 -41.5 -52t-52.5 -22t-52.5 22t-41.5 52h-46v42h45q14 30 41.5 53t53.5 23q24 0 53 -23.5t41 -52.5h90l91 278l-10 88l-52 144l-227 -226l-335 178l-13 -2zM1294 1571q-34 0 -34 43v62l-63 59
l38 62q6 9 14.5 27.5t8.5 26.5q0 34 -27 34q-14 0 -25 -11h-147l-40 -93l27 -4l15 -104l84 -6v-105h-76q-41 0 -74.5 -19.5t-63.5 -67.5l-131 -192l-240 99l-58 68l-41 24l-79 15l-1 -16l73 -21l38 -40l-11 -63l311 -167l225 224l30 -5l68 -184l7 -75l201 22l6 71l47 181
l30 6l141 -203l11 -294l7 -71h14l5 18l14 1l8 -19l-18 -57l13 -18l75 -6l9 10l-1 64l-15 54l-73 44v337l-131 227q-21 39 -45 50.5t-65 11.5h-61zM938 56h241v52l113 23q60 12 60 48v11q0 4 -104 346l-9 61h-123zM1035 854h362q19 68 19 93q0 53 -23 93t-66 88l-209 -21z
M1383 633l-1 84q0 44 5 88l1 7h-365l-54 -179h414zM901 57l179 540h-122l-30 -83l5 -85l-67 -228q-13 -49 -32.5 -72t-49.5 -28l-113 -17v-27h230zM1279 597l9 -59l100 -335l3 -28q0 -59 -89 -74l-85 -17v-27h222q8 45 8 118q0 192 -63 422h-105zM1455 949q0 -21 -20 -95
h100l-8 68l-18 294l-108 149l-37 -142l-7 -72q58 -56 78 -101t20 -101zM751 834q12 -23 31.5 -40t30.5 -17q10 0 30.5 17t31.5 40q-12 23 -31.5 40t-30.5 17q-10 0 -30.5 -17t-31.5 -40zM358 1455l-4 -50l7 -22l12 -10l64 -27l16 8l7 46l-22 32zM1341 1611q54 0 88 -13.5
t51 -41.5t150 -262v-340l66 -42l9 -58h56v-42h-52v-40l-21 -22l-106 9l-15 19v9l-22 25h-118l-1 -7q-6 -50 -6 -98l4 -110q59 -229 59 -432q0 -57 -6 -109h252v-56h-1629v56h109l175 1280l-22 10l-29 26l-9 18l6 75l14 18l15 -2l3 32l45 -9l72 529l69 -10l-73 -532l18 -3
l29 -22l44 -51l221 -90l115 176q26 41 71 68.5t97 27.5h41v44l-76 6l-16 104l-48 6l65 142l-3 27v13q0 53 43 82.5t122 29.5q87 0 139 -49t52 -125q0 -62 -42 -126l-53 -80v-60h47zM1274 1705l44 68q30 46 30 98q0 62 -42.5 101.5t-107.5 39.5q-61 0 -93.5 -19.5
t-32.5 -54.5l3 -29h133q10 10 31 10q26 0 40 -20t14 -42q0 -15 -6.5 -34t-16.5 -31l-34 -51zM1158 1837q-24 -17 -48 -17q-45 0 -45 20q0 10 13 16t27 6q28 0 53 -25z" />
  </g>

</svg>
