<?xml version="1.0" standalone="no"?>
<!DOCTYPE svg PUBLIC "-//W3C//DTD SVG 1.1//EN" "http://www.w3.org/Graphics/SVG/1.1/DTD/svg11.dtd" >
<svg xmlns="http://www.w3.org/2000/svg" xmlns:xlink="http://www.w3.org/1999/xlink" version="1.1" viewBox="-10 0 1311 2048">
  <g transform="scale(1, -1)" transform-origin="center">
   <path fill="currentColor"
d="M589 1597v44l-55 3l-122 -73l-49 78l130 48l-8 54l-48 6l65 142q11 80 54.5 115.5t117.5 35.5q80 0 127 -43.5t54 -129.5l20 -270h-94v-15q104 -4 167 -33.5t83 -101.5l75 -271l50 -332l45 -157l-6 -66l-35 -72l-58 18l26 65l-9 56l-20 49l-7 -2l-1 -30l20 -50l-58 -22
l-31 79l14 142l-65 272l-97 253h-6l15 -307q36 -56 46.5 -96t10.5 -89q0 -22 -23 -94q-24 -72 -24 -102q0 -39 36 -157q25 -84 42.5 -191.5t17.5 -207.5q0 -75 -10 -145h-299v88l113 23q60 12 60 48v11q0 4 -21 78q-169 -20 -374 -24l-71 -224h-287v88q86 15 132.5 22.5
t61.5 82.5l66 404l236 448l-96 344h-7l-96 -253l-65 -272l14 -142l-31 -79l-58 22l20 50l-1 30l-7 2l-20 -49l-9 -56l26 -65l-58 -18l-35 72l-6 66l45 157l50 332l75 271q28 106 146 124zM852 691q0 31 24 110q23 78 23 98q0 92 -56 165l-12 365h63l46 -117l81 26l-26 97
q-11 42 -33 67t-59.5 38t-114.5 20q-49 -38 -106 -38q-63 0 -101 38l-81 -12q-48 -7 -80 -32t-47 -81l-26 -97l80 -26l46 117h56l109 -393l-236 -444l-53 -328q175 2 300.5 10.5t289.5 29.5q-12 109 -49 233l-32 125zM750 1608h-61l14 189q4 5 12.5 24.5t8.5 29.5
q0 34 -27 34q-14 0 -25 -11h-147l-40 -93l27 -4l15 -88l9 -19l87 -3v-90q24 -15 59 -15q37 0 68 19v27zM834 1643l-17 228q-5 68 -42 104.5t-98 36.5q-55 0 -87 -22.5t-46 -80.5h133q10 10 31 10q26 0 40 -20t14 -42q0 -40 -21 -65l-11 -149h104zM194 696l5 -58l22 -53l18 5
l-23 53l8 65l39 88l31 -10l5 -75l-14 -38l16 -5l20 49l-23 145l65 284l50 129l-77 25l-36 -136l-53 -326zM1070 862l-23 -145l20 -49l16 5l-14 38l5 75l31 10l39 -88l8 -65l-23 -53l18 -5l22 53l5 58l-53 142l-53 326l-37 135l-77 -25l51 -128zM362 37l59 187h-83l-11 -43
q-13 -49 -33 -71t-49 -29l-113 -17v-27h230zM892 155q0 -59 -89 -74l-85 -17v-27h222q8 45 8 118l-5 109l-74 -12l20 -69zM624 1837q-24 -17 -48 -17q-45 0 -45 20q0 10 13 16t27 6q28 0 53 -25z" />
  </g>

</svg>
