<?xml version="1.0" standalone="no"?>
<!DOCTYPE svg PUBLIC "-//W3C//DTD SVG 1.1//EN" "http://www.w3.org/Graphics/SVG/1.1/DTD/svg11.dtd" >
<svg xmlns="http://www.w3.org/2000/svg" xmlns:xlink="http://www.w3.org/1999/xlink" version="1.1" viewBox="-10 0 1726 2048">
  <g transform="matrix(1 0 0 -1 0 1638)">
   <path fill="currentColor"
d="M1433 1196l35 244l-39 205l53 17l35 -67l12 38l-34 104l61 20l60 -127l-3 -78l-32 -101l-18 -402l-22 -20l-360 8l-71 -255l-21 -207l35 -5l1 -257h61l38 -163l3 -27q0 -31 -17.5 -54.5t-78 -46t-87.5 -22.5l-25 68l52 26q14 8 14 16q0 5 -37 87l-391 -146
q-58 -22 -125.5 -36.5t-94.5 -14.5q-51 0 -94 23l-82 -23h-161v79l148 25l24 18l-1 18q0 36 27 72.5t85 63.5l-89 332q-11 40 -11 62q0 54 33 92.5t83 38.5q26 0 54 -11.5t48 -34.5l258 -224l26 84l-93 422l-382 -8l-22 20l-18 402l-32 101l-3 78l61 127l60 -20l-33 -105
l12 -37l35 67l52 -17l-39 -205l35 -244l399 59l-13 51l-76 -26l-42 111l-55 3l88 194l3 22q25 99 171 103v68q-28 6 -51 25.5t-23 41.5q0 50 74 54v44q0 49 23.5 77t63.5 28q30 0 53 -19t27 -40l-36 -6q-1 6 -11.5 17.5t-32.5 11.5q-18 0 -34.5 -15t-16.5 -54v-235
q85 -9 140 -56t55 -116q0 -49 -28.5 -97t-76.5 -112v-75zM982 1325l-83 71l40 55q19 22 19 37q0 5 -5 15.5t-19 10.5q-17 0 -36 -23l-150 85l-70 -160l33 -1l36 -97l79 26l27 -120l-461 -68l-41 284l37 182l-13 7l-39 -79l-15 2l-26 72l30 92l-14 7l-43 -97l6 -68l31 -107
l15 -373l11 -9l392 7l99 -459l-29 -102l261 57l22 219l79 285l366 -7l10 9l15 373l31 107l6 68l-43 97l-14 -7l31 -92l-27 -72l-14 -2l-39 79l-14 -7l37 -182l-41 -284l-477 66v103zM1090 540h-15l-293 -63l-391 -250l64 -71q123 64 289 103.5t346 50.5v230zM1063 28
q84 29 105.5 48t21.5 54l-3 20l-33 130q-386 -4 -708 -170l-86 106q-46 -25 -46 -73t30.5 -76t94.5 -28q67 0 218 55l403 144l47 -95q13 -17 13 -34q0 -25 -18 -34l-48 -21zM748 501l-278 236l-42 -95l98 -287zM997 1360q60 80 74.5 114t14.5 68q0 38 -27 68t-70.5 47.5
t-86.5 17.5q-121 0 -144 -65l137 -79q19 17 47 17q23 0 37.5 -15.5t14.5 -41.5q0 -11 -8 -26.5t-43 -59.5zM444 750q-20 11 -47 11q-34 0 -55 -24.5t-21 -66.5q0 -7 1 -14.5t95 -365.5l78 50l-101 301zM310 48q-12 14 -24 40l-20 -15l-128 -16v-25h119zM833 1480l-42 -4
q-36 0 -60 22q14 17 45 17q21 0 33 -8t24 -27zM850 1848q0 -25 43 -39v64q-43 -2 -43 -25z" />
  </g>

</svg>
