<?xml version="1.0" standalone="no"?>
<!DOCTYPE svg PUBLIC "-//W3C//DTD SVG 1.1//EN" "http://www.w3.org/Graphics/SVG/1.1/DTD/svg11.dtd" >
<svg xmlns="http://www.w3.org/2000/svg" xmlns:xlink="http://www.w3.org/1999/xlink" version="1.1" viewBox="-10 0 2859 2048">
  <g transform="matrix(1 0 0 -1 0 1638)">
   <path fill="currentColor"
d="M2749 744v-494q-128 -8 -293.5 -30.5t-603.5 -101.5q-314 -59 -493 -85t-287 -26q-206 0 -436 68t-383 178.5t-153 218.5q0 56 48 87.5t137 31.5l61 -3q-51 62 -51 149q0 71 57.5 122.5t180.5 82.5t278 31q-29 22 -36.5 40t-7.5 43q0 69 109 93.5t319 24.5q146 0 319 -20
t285 -55q63 -20 146.5 -70.5t227.5 -162.5q109 -85 167 -122h409zM408 534q-55 17 -123 17q-70 0 -107.5 -21t-37.5 -58q0 -93 135 -191t360.5 -166t436.5 -68q84 0 224 18.5t548 92.5q361 68 546 94.5t319 35.5v416h-380q-60 38 -180 130q-152 117 -234 166t-151.5 68
t-165 34t-206 23.5t-197.5 8.5q-388 0 -388 -84q0 -25 16 -42.5t60 -35.5q371 -4 572 -76t201 -200q0 -141 -160 -215t-445 -74q-169 0 -339.5 33t-304.5 92zM335 737q0 -96 88 -169q143 -60 307.5 -90.5t320.5 -30.5q268 0 416.5 64t148.5 185q0 110 -203.5 173.5
t-543.5 63.5q-253 0 -393.5 -50.5t-140.5 -145.5z" />
  </g>

</svg>
