<?xml version="1.0" standalone="no"?>
<!DOCTYPE svg PUBLIC "-//W3C//DTD SVG 1.1//EN" "http://www.w3.org/Graphics/SVG/1.1/DTD/svg11.dtd" >
<svg xmlns="http://www.w3.org/2000/svg" xmlns:xlink="http://www.w3.org/1999/xlink" version="1.1" viewBox="-10 0 1518 2048">
  <g transform="matrix(1 0 0 -1 0 1638)">
   <path fill="currentColor"
d="M100 49q141 175 378 337t475.5 253t417.5 91l34 -1l3 -36q-171 -43 -268 -147t-97 -247q0 -133 98 -227t260 -122l-1 -39l-73 -2q-263 0 -694 127q-165 48 -286 48q-138 0 -219 -63zM1261 683q-243 -35 -550.5 -201t-511.5 -380q69 22 148 22q78 0 166 -17t222 -60
q84 -27 240 -57t275 -37q-117 48 -182 139t-65 207q0 129 68 228t190 156z" />
  </g>

</svg>
