<?xml version="1.0" standalone="no"?>
<!DOCTYPE svg PUBLIC "-//W3C//DTD SVG 1.1//EN" "http://www.w3.org/Graphics/SVG/1.1/DTD/svg11.dtd" >
<svg xmlns="http://www.w3.org/2000/svg" xmlns:xlink="http://www.w3.org/1999/xlink" version="1.1" viewBox="-10 0 1433 2048">
  <g transform="matrix(1 0 0 -1 0 1638)">
   <path fill="currentColor"
d="M746 1241q66 0 144 -33q110 87 180 211t70 225l-2 122q0 56 30 56q42 0 73 -78t31 -179q0 -258 -160 -409q51 15 109 15h19l18 -1q-2 -64 -14 -99q79 -36 79 -69q0 -36 -35.5 -124.5t-88 -181t-98 -141.5t-129.5 -89t-139 -40q-42 0 -83 5t-86 5q-13 0 -95 -24
q-162 -48 -216 -48q-55 0 -113.5 27t-97 73.5t-42.5 105.5v140q104 68 116 80q59 59 98.5 93t107.5 75l13 9l60 100q-104 60 -156.5 106.5t-84.5 95.5t-49.5 106t-17.5 123q0 57 23 135.5t57 133.5t65 55q37 0 37 -41q0 -12 -6 -34q-34 -116 -34 -202q0 -98 71 -185
t205 -151q47 32 141 32zM573 1179q-126 58 -205 158.5t-79 203.5q0 96 44 241q-31 -8 -68.5 -108.5t-37.5 -175.5q0 -90 33.5 -160t91.5 -125t164 -113q27 41 57 79zM595 843q23 36 53 59.5t55 23.5q32 0 60 -28t43 -71l-36 -12l-6 14q-31 -14 -62 -14q-37 0 -68 18l-7 -10z
M299 522q-27 0 -47.5 19.5t-20.5 36.5q0 26 18 40t36 14h34v-37q-37 0 -37 -18q0 -22 37 -22v-33h-20zM1216 1131q-154 -6 -267 -129l-30 26q27 32 65 62l-9 19q257 137 257 456q0 77 -17 139t-41 80q6 -39 6 -123q0 -137 -66 -255.5t-212 -237.5q-52 -43 -52 -80l1 -8h-40
l-1 12q0 29 14.5 55.5t26.5 32.5q-53 22 -102 22l-16 -1q-48 -3 -78 -13.5t-59.5 -44t-129.5 -201.5l-18 -15l-65 -42l-33 -24l-118 -111l-93 -61v-87q48 -60 102 -90.5t123 -30.5l110 6v-40l-110 -6q-72 0 -119 21t-95 70q23 -56 83 -92t120 -36q54 0 204 46q83 26 107 26
q41 0 82 -5t87 -5q38 0 95.5 23t107.5 60.5t102.5 120t98.5 186.5t46 146q0 11 -52 36q-26 -50 -80.5 -76t-148.5 -28l-2 40q109 3 159.5 42.5t56.5 114.5zM703 888q-21 0 -44 -25q18 -10 43 -10t43 9q-19 26 -42 26z" />
  </g>

</svg>
