<?xml version="1.0" standalone="no"?>
<!DOCTYPE svg PUBLIC "-//W3C//DTD SVG 1.1//EN" "http://www.w3.org/Graphics/SVG/1.1/DTD/svg11.dtd" >
<svg xmlns="http://www.w3.org/2000/svg" xmlns:xlink="http://www.w3.org/1999/xlink" version="1.1" viewBox="-10 0 2093 2048">
  <g transform="matrix(1 0 0 -1 0 1638)">
   <path fill="currentColor"
d="M674 552v-28l-66 -152q-57 -128 -128 -351l-64 -4l-34 -20h-178l-1 25q0 63 26 100.5t77 37.5q33 0 57 -8l38 36q18 41 72 404q-122 153 -122 259q0 39 42 196q50 189 50 247q0 69 -20 120t-52.5 80t-62.5 29h-96l-69 71l9 44l-35 30l-17 116l271 186h7q19 201 87 219
q23 -1 43.5 -36.5t34.5 -90.5q42 91 85 91q29 0 46 -67t17 -165v-27l14 -23l52 -151l46 -142l-1 1q18 -71 37 -105t44 -51h-1q23 -14 135 -49q137 -42 210.5 -75.5t151 -96.5t136.5 -137q161 93 332 93q70 0 103 -12.5t33 -55.5q0 -32 -34 -48.5t-107 -18.5
q-151 -9 -256 -67q168 -276 168 -615q0 -92 -7 -180.5t-37 -160.5h-766l-74 22l-36 -25h-140q0 69 10.5 99t34.5 50t70 20q71 0 99 -33l319 27q-190 217 -216 344q-148 48 -336 56v-8h-1zM1008 548q2 67 32 126t84 96t128 40q86 141 227 233q-54 69 -124 126t-133 88.5
t-217 78.5q-128 40 -154.5 60.5t-46.5 56t-41 116.5l-8 28l1 -2l-77 230l-14 30q-9 -21 -24 -39l-24 16q23 35 28.5 58.5t6.5 67.5q0 68 -8.5 111.5t-19.5 43.5q-24 0 -51.5 -70t-46.5 -158l-38 8l10 43l-115 -5l-243 -161l13 -85l30 -28h92v-40h-89l-3 -14l43 -40h82
q41 0 83 -34.5t67 -94t25 -140.5q0 -66 -52 -257q-40 -142 -40 -186q0 -73 71 -177q-12 84 -12 160q0 54 20 111t70 131l34 -22q-50 -77 -67 -126t-17 -94q0 -116 25 -229q-58 -399 -78 -435l-66 -62h-12q-20 12 -44 12q-71 0 -71 -83h129l33 18h50l32 106l36 113l45 109
l65 148v69h1v87h40v-88q185 -7 333 -51zM1482 688q-35 44 -108 67q-72 -117 -72 -240q0 -262 314 -476l68 1q30 93 30 301q0 331 -160 596q-89 -57 -157 -148q81 -29 117 -77zM1048 526q12 -67 77.5 -168t150.5 -189l-13 -47l-104 -10l-262 -21q-35 35 -88 35
q-34 0 -54.5 -25t-20.5 -64h90l39 27l86 -25h448q-100 100 -166 232t-66 244q0 130 64 254q-80 -12 -130 -77t-51 -150l1 -16h-1zM1847 1118q-152 0 -305 -85t-245 -224.5t-92 -293.5q0 -115 75.5 -253.5t176.5 -222.5h92q-287 214 -287 476q0 143 75 265t214 201
q57 33 123.5 53t167.5 29q101 10 101 27q0 20 -23.5 24t-72.5 4zM517 1994q-15 87 -26.5 117t-22.5 30q-36 0 -50 -168l92 3zM337 1798q29 49 74 49q39 0 78 -34l21 -19q-44 -34 -87 -34q-40 0 -58 13t-28 25zM166 1730v18q21 25 45 25q41 0 41 -26q0 -11 -11 -18.5
t-31 -7.5t-44 9zM387 1799q14 -14 36 -14q20 0 37 14q-10 8 -18.5 15.5t-22.5 7.5q-25 0 -32 -23z" />
  </g>

</svg>
