<?xml version="1.0" standalone="no"?>
<!DOCTYPE svg PUBLIC "-//W3C//DTD SVG 1.1//EN" "http://www.w3.org/Graphics/SVG/1.1/DTD/svg11.dtd" >
<svg xmlns="http://www.w3.org/2000/svg" xmlns:xlink="http://www.w3.org/1999/xlink" version="1.1" viewBox="-10 0 3029 2048">
  <g transform="matrix(1 0 0 -1 0 1638)">
   <path fill="currentColor"
d="M1679 602h-330v-1102h-163v1102h-743q-154 0 -248.5 59t-94.5 152q0 127 90.5 185t273.5 58q42 0 65 -6t34 -16t14 -43v-5q0 -9 11.5 -19t42 -11t57.5 -1h498v737q0 131 19 196t59 105t101.5 60t148.5 20t148.5 -22t100.5 -63t59 -108.5t20 -192.5v-732h522
q160 0 284 -60.5t197.5 -182.5t73.5 -275q0 -116 -34.5 -205.5t-93.5 -137.5t-128 -48q-66 0 -117 58t-81 164q-22 -120 -71 -171t-129 -51q-71 0 -125.5 39.5t-88 120t-33.5 161.5q0 112 53 228q-54 7 -101 7h-128v-412h-163v412zM2230 545q-16 23 -119 43
q-53 -106 -53 -221q0 -69 28.5 -141t74 -106t104.5 -34q150 0 172 264l6 64h44q3 -132 54.5 -230t121.5 -98q59 0 108.5 43.5t78.5 123.5t29 184q0 137 -68 250.5t-182 170.5t-265 57h-522v-273h128q100 0 187 -24t105 -49zM140 813q0 -73 84 -122t219 -49h743v273h-498
q-64 0 -89.5 5.5t-43.5 21.5t-18 49q0 14 -15.5 19.5t-57.5 5.5q-167 0 -245.5 -47.5t-78.5 -155.5zM1349 955h330v737q0 91 -16.5 132.5t-51.5 63.5t-97 22q-80 0 -122.5 -52t-42.5 -166v-737zM1719 955h83v732q0 115 -18.5 175.5t-53 96.5t-89 55t-127.5 19
q-108 0 -170 -35t-90 -99t-28 -207v-737h83v737q0 94 21 145t65 82t119 31q77 0 121.5 -26.5t64 -77t19.5 -154.5v-737zM1349 642h330v273h-330v-273zM1309 -460v1062h-83v-1062h83zM1802 230v372h-83v-372h83zM1719 642h83v273h-83v-273zM1226 642h83v273h-83v-273z" />
  </g>

</svg>
