<?xml version="1.0" standalone="no"?>
<!DOCTYPE svg PUBLIC "-//W3C//DTD SVG 1.1//EN" "http://www.w3.org/Graphics/SVG/1.1/DTD/svg11.dtd" >
<svg xmlns="http://www.w3.org/2000/svg" xmlns:xlink="http://www.w3.org/1999/xlink" version="1.1" viewBox="-10 0 2541 2048">
  <g transform="matrix(1 0 0 -1 0 1638)">
   <path fill="currentColor"
d="M787 377q-52 48 -105.5 107t-75.5 96q-23 40 -181 304q-82 -48 -133 -55q-32 -19 -53 -28.5t-48 -9.5q-41 0 -66 23t-25 52t45 98t93 117q22 22 59 70q34 43 72.5 87t77.5 67q41 265 155.5 458.5t243.5 305.5l43 -34q-88 -101 -154.5 -205.5t-99.5 -191.5
q53 92 122.5 178t142.5 154.5t114 89.5l32 -39q-91 -84 -184 -206t-146.5 -235.5t-105.5 -257.5q46 49 84 72q111 64 194 64l21 -1q4 -11 4 -23q0 -43 -39 -97.5t-90 -84t-128 -47.5l39 -68q113 -200 154 -232q78 -57 271 -69l115 -11q167 -20 232 -25.5t124 -5.5l103 2
l255 7q224 0 353 -108t129 -272q0 -31 -12 -57.5t-30 -26.5q-11 0 -18.5 5.5t-13 16t-18.5 67.5q-8 41 -22.5 76.5t-49.5 64.5l2 -34q0 -32 -8 -65t-36 -108q25 -58 59.5 -127.5t127.5 -195.5l-55 -240l2 -68l15 -55l-36 -57l-10 -68h-183l54 70l43 108v287l-116 170
q-75 -123 -117 -195t-57 -107t-59 -142v-49l1 -37l-49 -40l-9 -65h-183l56 73l77 151q13 26 34.5 107.5t21.5 117.5q0 48 31 313q-203 -14 -302 -31q-208 -36 -277 -36l-46 2l-3 -18q-5 -47 -20 -117q1 -11 14.5 -119t17.5 -114q10 -36 41 -274h-15l-8 -55h-183l47 62
q7 29 15.5 72t8.5 56q0 12 -18 98t-37 167l-8 35l-81 214q-39 0 -69 6l-103 -331l-39 -283l-56 -41h-9l-8 -55h-183l133 169l58 368zM1202 -255l-20 -99h70l-7 52q-15 120 -26 172q-13 52 -34 245q39 195 39 291q0 77 -33 169l39 9q31 -108 31 -181l-4 -58l-6 -61h19
q81 0 210 24q171 31 397 45q14 91 50 211l38 -12q-12 -44 -23 -86.5t-17 -72t-24.5 -195t-18.5 -198.5q0 -35 -20 -116t-40 -127l-56 -111h54l34 28l-1 48v30l80 187q25 50 144 243l64 105q90 141 90 279l-3 57q125 -31 153 -226q2 -18 8 -18q10 0 10 34v15q0 81 -60 167
t-158 126.5t-232 41.5l-174 -5l-183 -4q-93 0 -236 17l-118 14l-120 11q-211 15 -293 77q-57 40 -191 295q-60 113 -136 113q-23 0 -56 -27.5t-113 -126.5q-37 -48 -63 -74q-32 -30 -68.5 -79.5t-52.5 -85.5h46q-5 -15 -38 -45l16 -8q17 20 47.5 46t56.5 38l9 -18
q-19 -12 -37.5 -33t-24.5 -34l62 35q54 6 155 69l131 -215l72 -123q20 -37 81.5 -101t128.5 -123t86 -68t62 -12q-101 149 -101 259v7h40v-7q0 -108 109 -258l92 -248l19 -87q41 -181 45 -217zM912 274q-31 20 -89 72l-99 -641l-47 -59h63l30 23l37 267zM2282 27l-1 -305
l-29 -77h58l22 39l-13 44l-2 71l53 229q-55 77 -88.5 128t-79.5 159q-15 -35 -52 -89zM536 1318l31 -10q92 259 192.5 416.5t247.5 288.5l-9 13q-126 -96 -251.5 -271t-178.5 -338zM485 1320l13 1h2q72 239 114.5 337.5t98 187.5t137.5 177l-10 9q-86 -81 -165 -205
t-121.5 -238t-68.5 -269zM632 1240q116 23 173.5 78t57.5 95h-5q-31 0 -79.5 -20.5t-83.5 -47.5t-80 -82zM396 1136q7 5 18 16.5t30 11.5t31 -9.5t18 -14.5q-32 -29 -53 -29q-18 0 -28 9.5t-16 15.5zM672 -422h29l8 42h-19zM618 -422h28l21 42h-16zM1209 -422h29l8 42h-19z
M1155 -422h28l21 42h-16zM1774 -422h29l8 42h-19zM1716 -422h32l21 42h-20zM2266 -422h29l8 42h-19zM2210 -422h30l21 42h-18z" />
  </g>

</svg>
