<?xml version="1.0" standalone="no"?>
<!DOCTYPE svg PUBLIC "-//W3C//DTD SVG 1.1//EN" "http://www.w3.org/Graphics/SVG/1.1/DTD/svg11.dtd" >
<svg xmlns="http://www.w3.org/2000/svg" xmlns:xlink="http://www.w3.org/1999/xlink" version="1.1" viewBox="-10 0 2423 2048">
  <g transform="matrix(1 0 0 -1 0 1638)">
   <path fill="currentColor"
d="M188 -599l5 81q-25 35 -59 94t-34 80q0 22 61 95q60 72 60 77q0 6 -44 82t-44 98q0 16 13 34.5t28.5 35.5t28.5 31.5t13 22.5t-15 33q-83 130 -83 159t70 104q69 75 69 98q0 14 -17 35.5t-37.5 47.5t-37.5 55.5t-17 59.5q0 50 88 104q52 33 69.5 46t17.5 22q0 16 -14 39
t-30.5 47.5t-30.5 48.5t-14 44q0 33 88 103l42 34q45 36 45 43q0 12 -19 60q-19 47 -19 74q0 29 28.5 52t108.5 49q21 6 37.5 12t24.5 12t9 28l-6 120q0 50 25 63t152 20l37 4q5 1 14 24q47 116 84 116q15 0 77 -41q61 -41 72 -41q14 0 67 37q52 36 65 36q21 0 75 -35
t62 -35l116 7v211h40v-105h70q52 58 152 93t225 35q188 0 297.5 -69t109.5 -185q0 -63 -40 -121t-126 -93h78l-23 -602q-3 -105 -44 -402q-13 -93 -27 -268t-21.5 -303.5t-7.5 -159.5q0 -13 6.5 -58t40.5 -217q-17 -116 -87 -173h-181q-37 0 -137 26q-101 25 -120 25
q-51 0 -348 -36q-108 -13 -152 -15h-327v188q95 8 216 36q37 8 141 54q104 45 149 55q90 23 199.5 89t153.5 138t44 194l-12 369l-76 1060h53q-43 16 -80.5 40.5t-55.5 47.5h-70v-105h-40v211l-114 -5q-16 0 -67 34t-72 34q-9 0 -61 -35q-54 -36 -74 -36q-11 0 -75 40
t-71 40q-6 0 -15.5 -20t-20.5 -44q-30 -68 -49 -74q-13 -4 -95 -8q-76 -4 -89 -14q-3 -2 -3 -27l6 -133q0 -40 -19 -49l-17 -6q-107 -40 -139.5 -58t-32.5 -27q0 -24 19 -70t19 -64q0 -23 -87 -93q-88 -70 -88 -87q0 -13 14 -34t30.5 -45.5t30.5 -50.5t14 -49q0 -40 -87 -91
q-88 -51 -88 -81q0 -28 17 -51.5t37.5 -47t37.5 -47.5t17 -52q0 -37 -69 -112q-70 -75 -70 -90q0 -17 49 -92t49 -100q0 -15 -13 -33t-28.5 -35.5t-28.5 -32t-13 -23.5q0 -13 44 -88q44 -77 44 -92q0 -19 -60 -91q-61 -73 -61 -81q0 -11 30.5 -64t62.5 -97l-5 -96zM1740 162
q0 -117 -28 -187t-88.5 -123t-156 -98.5t-160.5 -60.5q-36 -8 -139 -53q-104 -46 -145 -55q-123 -30 -188 -30v-115l274 1q48 0 259 25q220 25 256 25q26 0 130 -25q103 -26 134 -26h154q22 17 42 60t23 76q-45 225 -45 272q0 56 38 616q4 52 19 155q43 295 43 364t8 260
t15 300h-531q5 -162 74 -1018zM1556 1717q16 -52 122.5 -93t227.5 -41q169 0 268 59t99 155q0 95 -98 154.5t-269 59.5q-121 0 -227.5 -41t-122.5 -93h-97v-160h97z" />
  </g>

</svg>
