<?xml version="1.0" standalone="no"?>
<!DOCTYPE svg PUBLIC "-//W3C//DTD SVG 1.1//EN" "http://www.w3.org/Graphics/SVG/1.1/DTD/svg11.dtd" >
<svg xmlns="http://www.w3.org/2000/svg" xmlns:xlink="http://www.w3.org/1999/xlink" version="1.1" viewBox="-10 0 2337 2048">
  <g transform="matrix(1 0 0 -1 0 1638)">
   <path fill="currentColor"
d="M1828 -1l61 120q61 168 61 198q0 39 -22 125t-38 114l-39 43l-30 31v-152l-51 -76l-77 -119q-38 -67 -85 -179l-61 -62l-6 -43h-189l61 120v-1l90 96l115 249q7 66 7 142t-14 155q-201 -35 -279 -35q-62 0 -199 18q-48 -102 -57.5 -165.5t-11.5 -110.5v-274l-42 -123
l-16 -71h-171l56 115l42 110l5 84q-2 27 -34 197t-48 214l-79 -96q-29 -39 -91 -174l-49 -56q-1 -2 -10 -14.5t-19.5 -29t-20.5 -34t-14 -29.5l-53 -172l-63 -58l-9 -57h-178l60 122l86 86l212 553l24 103q-59 85 -68 134l-4 52q-4 73 -21.5 170t-49.5 191q-48 14 -78 14
q-29 0 -189 -67q-18 1 -39.5 13t-33.5 24l-30 -1h-21q-18 30 -18 75q0 34 10 60l337 328q57 50 115 50q46 0 110 -28l50 72q146 212 247 212q34 0 36 -39q0 -17 -6.5 -37.5t-33.5 -66.5q86 44 142 44q45 0 60.5 -16t15.5 -33q0 -40 -40 -75t-179 -90.5t-181 -65.5l10 -33
q45 -209 189 -306.5t412 -97.5q111 0 200 4t164 4q90 0 155 -9t95.5 -27.5t54.5 -48t32 -55.5q65 -43 94.5 -106t29.5 -160q0 -57 -10 -120q-11 -63 -20.5 -151t-6.5 -91q0 -94 45 -281l-56 -16q-62 64 -91 131l-14 -100l9 -183l-49 -74l-9 -64h-189zM2077 1132
q33 -16 57 -66t24 -100q0 -36 -38 -241q-27 -145 -27 -197q0 -34 6 -59t21 -54t65 -89q-16 57 -27.5 137t-11.5 123q0 64 18 185q19 134 19 187q0 71 -32 137.5t-85 85.5q-22 77 -80 105t-228 28l-180 -3l-184 -5q-293 0 -447 107.5t-194 328.5l-5 17l-39 -30l-19 26l73 52
q48 13 169 65.5t166 81.5t45 52q0 19 -40 19q-94 0 -371 -203l-63 -45l-22 27l37 28q-32 18 -66.5 26t-55.5 8q-41 0 -87 -38l-332 -324q-3 -14 -3 -35l2 -36h31l18 1l53 27l36 9l4 -21l-29 -15l-39 -26l20 -11l38 16q36 15 88.5 33t68.5 18q18 0 40 -6t34 -6h13
q38 0 58.5 7t56.5 47l27 -22q-32 -43 -53.5 -54.5t-57.5 -14.5q57 -171 70 -377q3 -46 30 -96.5t45 -68.5t54.5 -34t73.5 -24q-36 76 -36 143q0 69 28 137l38 -14q-26 -66 -26 -123q0 -80 46 -157l1 1q61 -223 71 -282l34 -209l-6 -95l-48 -107l64 -26l36 118v267
q7 125 27 180l47 113q27 58 27 131q0 42 -9 73l38 10q11 -36 11 -83q0 -64 -16 -110q102 -17 183 -17q82 0 334 49l50 14q-28 86 -32 183l40 2q7 -165 94 -324q94 -94 106 -111q17 -27 41.5 -122.5t24.5 -141.5q0 -21 -24 -97t-38 -114l74 -30l33 73l-9 175l29 197l-42 165
l2 57l24 92q40 147 40 253zM1781 489v183q-35 67 -52 117q-53 -17 -76 -20q11 -120 12 -161q0 -88 -7 -151l-122 -264l-79 -92l72 -29l45 54q3 8 33.5 75t59 114t114.5 174zM843 767q-99 18 -159 63l-17 -82l-216 -561l-78 -84l58 -23l54 58l50 160q17 47 70 119l47 53l7 14
q61 128 86 163zM714 1855q113 84 179 124q25 27 53 76l7 14q12 24 12 39q0 13 -15 13q-47 0 -140 -114q-14 -18 -28 -37t-75 -111zM2068 622l15 83q40 204 40 257q0 32 -8 60q-15 -106 -61 -286l-1 -52zM414 1644v50l20 27h99v-34l-57 -15l-34 -28h-28zM248 1514l-42 -48
l-28 30l51 42zM1501 43l-64 25l-16 -29h80v4zM979 43l-64 25l-16 -29h80v4zM1978 43l-64 25l-16 -29h80v4zM412 43l-64 25l-16 -29h80v4z" />
  </g>

</svg>
