<?xml version="1.0" standalone="no"?>
<!DOCTYPE svg PUBLIC "-//W3C//DTD SVG 1.1//EN" "http://www.w3.org/Graphics/SVG/1.1/DTD/svg11.dtd" >
<svg xmlns="http://www.w3.org/2000/svg" xmlns:xlink="http://www.w3.org/1999/xlink" version="1.1" viewBox="-10 0 1397 2048">
  <g transform="matrix(1 0 0 -1 0 1638)">
   <path fill="currentColor"
d="M1125 940v-783l162 -68v-89h-1187v89l212 90l-93 425q-21 98 -21 146q0 52 33.5 89.5t82.5 37.5q37 0 63 -11t48 -35.5t241 -294.5l53 436l-95 136l199 330l-26 158l-89 -11l-38 93l-64 3l101 222l4 27q31 120 189 120q125 0 201 -58t94 -165l41 -887h-111zM672 1107
l84 -113l-60 -518l-25 -10l-240 298q-22 27 -49.5 50t-62.5 23q-38 0 -60.5 -25t-22.5 -63q0 -37 19 -117l103 -468l-218 -98v-26h1107v26l-160 70v804h-199l51 781q0 7 19 36q18 27 18 31q0 29 -23 29q-22 0 -42 -26l-175 99l-81 -179l39 -2l32 -87l94 12l44 -204zM937 980
h257l-37 846q-59 184 -255 184q-61 0 -102 -23.5t-53 -62.5l160 -92q26 21 49 21q26 0 41 -19.5t15 -42.5q0 -6 -3.5 -14.5t-33.5 -52.5zM834 1778l-48 -5q-41 0 -71 26q6 8 23 13.5t31 5.5q23 0 37 -9t28 -31z" />
  </g>

</svg>
