<?xml version="1.0" standalone="no"?>
<!DOCTYPE svg PUBLIC "-//W3C//DTD SVG 1.1//EN" "http://www.w3.org/Graphics/SVG/1.1/DTD/svg11.dtd" >
<svg xmlns="http://www.w3.org/2000/svg" xmlns:xlink="http://www.w3.org/1999/xlink" version="1.1" viewBox="-10 0 2514 2048">
  <g transform="matrix(1 0 0 -1 0 1638)">
   <path fill="currentColor"
d="M100 329q266 250 555 398.5t544 148.5q149 0 284.5 -36t265.5 -100.5t336 -206.5q91 -63 169 -111t150 -62l-8 -40q-78 14 -207 96q-34 -11 -275 -75.5t-427.5 -100.5t-273.5 -36q-83 0 -259 28t-420.5 81t-313.5 72l-92 -84zM906 539q0 -121 85.5 -206.5t206.5 -85.5
t206.5 85.5t85.5 206.5t-85.5 206.5t-206.5 85.5t-206.5 -85.5t-85.5 -206.5zM2063 500q-189 129 -284 179t-197 88t-212 55q72 -44 116 -118t44 -165q0 -84 -40.5 -158.5t-111.5 -120.5q286 46 768 184l-83 57v-1zM866 539q0 88 41 160t109 117q-174 -36 -366 -136.5
t-391 -262.5q148 -37 378 -85t377 -69q-67 45 -107.5 117t-40.5 159z" />
  </g>

</svg>
