<?xml version="1.0" standalone="no"?>
<!DOCTYPE svg PUBLIC "-//W3C//DTD SVG 1.1//EN" "http://www.w3.org/Graphics/SVG/1.1/DTD/svg11.dtd" >
<svg xmlns="http://www.w3.org/2000/svg" xmlns:xlink="http://www.w3.org/1999/xlink" version="1.1" viewBox="-10 0 1662 2048">
  <g transform="matrix(1 0 0 -1 0 1638)">
   <path fill="currentColor"
d="M739 1658l-87 77l38 62q6 9 14.5 27.5t8.5 26.5q0 34 -27 34q-14 0 -25 -11h-147l-40 -93l27 -4l15 -104l96 -6v-104q-48 -11 -74.5 -46.5t-26.5 -87.5q0 -39 13 -78l81 -251l191 35l58 290l380 14l174 271l90 74l19 49l-16 6l-14 -37l-55 -51l-29 13l30 93l38 51l53 25
l-9 15l-53 -23l-43 -40l-53 -126l-163 -233l-230 9q-69 17 -234 31v92zM877 633q-17 38 -17 61q0 56 12 129l2 43q0 54 -17.5 118t-61.5 118l-188 -36l-183 -433h453zM362 37l179 560h-119l-30 -83v-85l-65 -248q-13 -49 -33 -71t-49 -29l-113 -17v-27h230zM780 597l9 -59
l100 -355l3 -28q0 -59 -89 -74l-85 -17v-27h222q8 45 8 118q0 190 -63 442h-105zM732 1705l44 68q30 46 30 98q0 62 -42.5 101.5t-107.5 39.5q-61 0 -93.5 -19.5t-32.5 -54.5l3 -29h133q10 10 31 10q26 0 40 -20t14 -42q0 -15 -6.5 -34t-16.5 -31l-34 -51zM613 1837
q-24 -17 -48 -17q-45 0 -45 20q0 10 13 16t27 6q28 0 53 -25zM770 1601q102 -11 220 -31l39 -1l113 246l44 140l41 54l68 41l37 -46l-54 -40l-23 -52l-9 -53l7 -1l17 25l9 52l63 -13l-17 -82l-67 -90l-77 -185h4l146 207l68 129l49 46l74 28l30 -52l-63 -30l-30 -47l-19 -50
l6 -3l21 22l20 50l58 -24l-31 -78l-82 -76l-175 -286l-371 -15l-52 -265q46 -66 64 -125.5t18 -127.5q0 -34 -5 -62q-7 -41 -7 -102q0 -17 9 -51l12 -56q59 -247 59 -452q0 -75 -10 -145h-294v88l113 23q60 12 60 48v11q0 4 -104 366l-9 61h-163l-190 -597h-287v88
q86 15 132.5 22.5t61.5 82.5l63 240l-3 86l28 78h-22l210 489l-82 240q-17 48 -17 100q0 70 29 115t78 51v49l-88 6l-16 104l-48 6l65 142l-3 27v13q0 53 43 82.5t122 29.5q87 0 139 -49t52 -125q0 -57 -42 -126l-32 -58v-92zM1066 1568l80 -2l83 202l76 90l10 52l-16 3
l-7 -40l-46 -61l-31 9l14 96l27 58l48 35l-12 12l-48 -32l-34 -47l-31 -133z" />
  </g>

</svg>
