<?xml version="1.0" standalone="no"?>
<!DOCTYPE svg PUBLIC "-//W3C//DTD SVG 1.1//EN" "http://www.w3.org/Graphics/SVG/1.1/DTD/svg11.dtd" >
<svg xmlns="http://www.w3.org/2000/svg" xmlns:xlink="http://www.w3.org/1999/xlink" version="1.1" viewBox="-10 0 2494 2048">
  <g transform="matrix(1 0 0 -1 0 1638)">
   <path fill="currentColor"
d="M100 463q0 132 78.5 211.5t207.5 79.5h1712q129 0 207.5 -79t78.5 -212v-124q0 -133 -79 -212t-207 -79h-1712q-129 0 -207.5 79.5t-78.5 211.5v124zM382 714q-110 0 -176 -69.5t-66 -181.5v-124q0 -113 66.5 -182t175.5 -69h1720q110 0 176 69.5t66 181.5v124
q0 113 -66.5 182t-175.5 69h-1720zM369 238q198 186 413.5 296.5t404.5 110.5q111 0 208.5 -26t189 -70t263.5 -160q68 -46 125.5 -82t111.5 -46l-6 -36q-82 15 -159 64q-131 -44 -379.5 -101.5t-341.5 -57.5q-83 0 -276 35.5t-403 85.5l-63 14l-62 -54zM970 388
q0 -88 62 -153t154 -65t156 65t64 153q0 89 -64.5 153t-155.5 64t-153.5 -64t-62.5 -153zM1327 597q54 -33 86.5 -87.5t32.5 -121.5q0 -66 -30.5 -120t-82.5 -87q50 8 106.5 20t134 30.5t154.5 40t106 29.5t29 20q0 14 -43.5 43t-98 65.5t-115.5 69.5t-129.5 59.5
t-149.5 38.5zM930 388q0 65 30 118.5t80 85.5q-254 -53 -548 -294q70 -19 243.5 -57.5t303.5 -56.5q-50 34 -79.5 87t-29.5 117z" />
  </g>

</svg>
