<?xml version="1.0" standalone="no"?>
<!DOCTYPE svg PUBLIC "-//W3C//DTD SVG 1.1//EN" "http://www.w3.org/Graphics/SVG/1.1/DTD/svg11.dtd" >
<svg xmlns="http://www.w3.org/2000/svg" xmlns:xlink="http://www.w3.org/1999/xlink" version="1.1" viewBox="-10 0 1276 2048">
  <g transform="matrix(1 0 0 -1 0 1638)">
   <path fill="currentColor"
d="M110 1205q38 245 38 382q0 64 -24 176q-24 98 -24 155q0 58 50.5 95.5t125.5 37.5h8q-12 -60 -12 -101q0 -25 16 -112q28 -157 28 -244q0 -136 -40 -389h-166zM535 1205q38 245 38 382q0 64 -24 176q-24 98 -24 155q0 58 50.5 95.5t125.5 37.5h8q-12 -60 -12 -101
q0 -25 16 -112q28 -157 28 -244q0 -136 -40 -389h-166zM960 302q38 245 38 382q0 64 -24 176q-24 98 -24 155q0 58 50.5 95.5t125.5 37.5h8q-12 -60 -12 -101q0 -25 16 -112q28 -157 28 -244q0 -136 -40 -389h-166zM110 -600q38 245 38 382q0 64 -24 176q-24 98 -24 155
q0 58 50.5 95.5t125.5 37.5h8q-12 -60 -12 -101q0 -25 16 -112q28 -157 28 -244q0 -136 -40 -389h-166zM110 302q38 245 38 382q0 64 -24 176q-24 98 -24 155q0 58 50.5 95.5t125.5 37.5h8q-12 -60 -12 -101q0 -25 16 -112q28 -157 28 -244q0 -136 -40 -389h-166zM535 -600
q38 245 38 382q0 64 -24 176q-24 98 -24 155q0 58 50.5 95.5t125.5 37.5h8q-12 -60 -12 -101q0 -25 16 -112q28 -157 28 -244q0 -136 -40 -389h-166zM960 1205q38 245 38 382q0 64 -24 176q-24 98 -24 155q0 58 50.5 95.5t125.5 37.5h8q-12 -60 -12 -101q0 -25 16 -112
q28 -157 28 -244q0 -136 -40 -389h-166zM535 302q38 245 38 382q0 64 -24 176q-24 98 -24 155q0 58 50.5 95.5t125.5 37.5h8q-12 -60 -12 -101q0 -25 16 -112q28 -157 28 -244q0 -136 -40 -389h-166zM960 -600q38 245 38 382q0 64 -24 176q-24 98 -24 155q0 58 50.5 95.5
t125.5 37.5h8q-12 -60 -12 -101q0 -25 16 -112q28 -157 28 -244q0 -136 -40 -389h-166zM667 -562q37 237 37 351q0 68 -35 260h-7q-24 0 -45.5 14t-21.5 53q0 30 5.5 47.5t10.5 32.5q-20 -8 -34.5 -31t-14.5 -52q0 -34 8 -73q21 -101 30.5 -158.5t9.5 -99.5q0 -115 -33 -344
h90zM242 1243q37 237 37 351q0 68 -35 260h-7q-24 0 -45.5 14t-21.5 53q0 30 5.5 47.5t10.5 32.5q-20 -8 -34.5 -31t-14.5 -52q0 -34 8 -73q21 -101 30.5 -158.5t9.5 -99.5q0 -115 -33 -344h90zM1092 1243q37 237 37 351q0 68 -35 260h-7q-24 0 -45.5 14t-21.5 53
q0 30 5.5 47.5t10.5 32.5q-20 -8 -34.5 -31t-14.5 -52q0 -34 8 -73q21 -101 30.5 -158.5t9.5 -99.5q0 -115 -33 -344h90zM1092 340q37 237 37 351q0 68 -35 260h-7q-24 0 -45.5 14t-21.5 53q0 30 5.5 47.5t10.5 32.5q-20 -8 -34.5 -31t-14.5 -52q0 -34 8 -73
q21 -101 30.5 -158.5t9.5 -99.5q0 -115 -33 -344h90zM667 1243q37 237 37 351q0 68 -35 260h-7q-24 0 -45.5 14t-21.5 53q0 30 5.5 47.5t10.5 32.5q-20 -8 -34.5 -31t-14.5 -52q0 -34 8 -73q21 -101 30.5 -158.5t9.5 -99.5q0 -115 -33 -344h90zM242 -562q37 237 37 351
q0 68 -35 260h-7q-24 0 -45.5 14t-21.5 53q0 30 5.5 47.5t10.5 32.5q-20 -8 -34.5 -31t-14.5 -52q0 -34 8 -73q21 -101 30.5 -158.5t9.5 -99.5q0 -115 -33 -344h90zM242 340q37 237 37 351q0 68 -35 260h-7q-24 0 -45.5 14t-21.5 53q0 30 5.5 47.5t10.5 32.5
q-20 -8 -34.5 -31t-14.5 -52q0 -34 8 -73q21 -101 30.5 -158.5t9.5 -99.5q0 -115 -33 -344h90zM1092 -562q37 237 37 351q0 68 -35 260h-7q-24 0 -45.5 14t-21.5 53q0 30 5.5 47.5t10.5 32.5q-20 -8 -34.5 -31t-14.5 -52q0 -34 8 -73q21 -101 30.5 -158.5t9.5 -99.5
q0 -115 -33 -344h90zM667 340q37 237 37 351q0 68 -35 260h-7q-24 0 -45.5 14t-21.5 53q0 30 5.5 47.5t10.5 32.5q-20 -8 -34.5 -31t-14.5 -52q0 -34 8 -73q21 -101 30.5 -158.5t9.5 -99.5q0 -115 -33 -344h90zM668 2015l-20 -5q-19 -44 -19 -89q0 -33 27 -33h7l-4 41
q0 41 9 86zM1093 210l-20 -5q-19 -44 -19 -89q0 -33 27 -33h7l-4 41q0 41 9 86zM1093 1112l-20 -5q-19 -44 -19 -89q0 -33 27 -33h7l-4 41q0 41 9 86zM243 1112l-20 -5q-19 -44 -19 -89q0 -33 27 -33h7l-4 41q0 41 9 86zM668 210l-20 -5q-19 -44 -19 -89q0 -33 27 -33h7
l-4 41q0 41 9 86zM243 2015l-20 -5q-19 -44 -19 -89q0 -33 27 -33h7l-4 41q0 41 9 86zM1093 2015l-20 -5q-19 -44 -19 -89q0 -33 27 -33h7l-4 41q0 41 9 86zM668 1112l-20 -5q-19 -44 -19 -89q0 -33 27 -33h7l-4 41q0 41 9 86zM243 210l-20 -5q-19 -44 -19 -89q0 -33 27 -33
h7l-4 41q0 41 9 86z" />
  </g>

</svg>
