<?xml version="1.0" standalone="no"?>
<!DOCTYPE svg PUBLIC "-//W3C//DTD SVG 1.1//EN" "http://www.w3.org/Graphics/SVG/1.1/DTD/svg11.dtd" >
<svg xmlns="http://www.w3.org/2000/svg" xmlns:xlink="http://www.w3.org/1999/xlink" version="1.1" viewBox="-10 0 1736 2048">
  <g transform="matrix(1 0 0 -1 0 1638)">
   <path fill="currentColor"
d="M1482 1322q0 -31 -28 -134q-115 -417 -144 -600l41 -5v-389l102 -72l173 -30v-92h-182l-264 72q-510 -65 -562 -68.5t-64 -3.5q-63 0 -109 27l-96 -27h-182v92l173 30l28 20l-1 11v11q0 82 136 146l-110 400q-4 13 -7.5 35.5t-4.5 37.5q0 62 35.5 103.5t93.5 41.5
q30 0 63 -13.5t56 -39.5l307 -345l30 188l-39 313l-110 106l-149 -131l-60 -3l-502 487l32 44l81 -35l-19 52l-100 66l26 51l148 -73l55 -73l28 -89l241 -227l74 72l-185 180l32 44l81 -35l-19 52l-100 66l26 51l148 -73l55 -73l28 -89l28 -27l37 38q65 68 132 83l111 26
l-13 53l-83 -29l-49 129l-64 3l102 226l4 27q15 58 57 89t122 31q118 0 198 -57t80 -146q0 -47 -25 -98t-97 -146v-75l100 -37q40 -14 62 -36t32 -49t10 -84zM984 1127l-266 243l-38 107l-45 66l-109 58l-7 -15l95 -64l30 -85l-13 -11l-95 43l-7 -10l467 -448h38l283 230
l8 -38l-276 -229l-60 -3l-20 19l35 -270l-34 -202l304 67q22 160 89 413q75 285 75 323q0 60 -18 89t-55 43l-125 47v95l-100 85q55 76 61.5 88.5t6.5 19.5q0 29 -23 29q-22 0 -42 -26l-175 99l-82 -186l39 -2l42 -113l92 30l31 -125l-157 -34q-47 -9 -142 -110l104 -97
l37 32l9 -76l38 -35l131 113l42 42q71 73 152 93l-2 -35q-55 -11 -164 -120zM1316 553h-17l-347 -74l-451 -209l86 -107l729 41v349zM1587 67l-148 18l-119 86l-754 -43l-102 124q-59 -31 -59 -85q0 -58 39.5 -91.5t112.5 -33.5q27 0 76 4t554 67l262 -75h138v29zM918 502
l-325 359l-49 -111l121 -362zM653 1043l138 120l-94 91l-94 -95l-266 243l-38 107l-45 66l-109 58l-7 -15l95 -64l30 -85l-13 -11l-95 43l-7 -10l467 -448h38zM1253 1629q64 85 86.5 135t22.5 92q0 44 -35 79.5t-91 56t-112 20.5q-117 0 -145 -88l160 -92q26 21 49 21
q26 0 41 -19.5t15 -42.5q0 -20 -31 -65l-29 -36zM562 876q-21 12 -54 12q-40 0 -64.5 -28.5t-24.5 -76.5q0 -9 1.5 -20t117.5 -437l90 44l-124 378zM407 56q-18 20 -29 46l-24 -17l-148 -18v-29h138zM1066 1778l-48 -5q-41 0 -71 26q6 8 23 13.5t31 5.5q23 0 37 -9t28 -31z
" />
  </g>

</svg>
