<?xml version="1.0" standalone="no"?>
<!DOCTYPE svg PUBLIC "-//W3C//DTD SVG 1.1//EN" "http://www.w3.org/Graphics/SVG/1.1/DTD/svg11.dtd" >
<svg xmlns="http://www.w3.org/2000/svg" xmlns:xlink="http://www.w3.org/1999/xlink" version="1.1" viewBox="-10 0 2160 2048">
  <g transform="matrix(1 0 0 -1 0 1638)">
   <path fill="currentColor"
d="M1601 583v-389l102 -72l173 -30v-92h-182l-278 78l-404 -59q-127 -19 -208 -19q-63 0 -109 27l-96 -27h-182v92l173 30l28 20l-1 11v11q0 82 136 146l-110 400q-4 13 -7.5 35.5t-4.5 37.5q0 62 35.5 103.5t93.5 41.5q30 0 63 -13.5t56 -39.5l307 -345l29 188l-62 496
l-236 -208l-60 -3l-362 297l-19 51l-20 16l-45 -5l-71 -126q-72 -124 -124 -268l-116 68q106 120 173 240l75 136l-35 69l-4 27l40 89l27 15l17 -8l21 30l53 -24l98 169l-34 116l-48 3l-25 -1l6 50l39 1q24 0 48 -5q71 55 113 126l69 119l171 -100l-68 -118
q-39 -69 -52 -162q30 -38 45 -74l-41 -29q-12 29 -37 63l-119 -28l-96 -165l49 -64l28 -89l246 -204l115 113l44 47q89 98 166 117l111 26l-13 53l-83 -29l-49 129l-64 3l102 226l4 27q15 58 57 89t122 31q118 0 198 -57t80 -146q0 -47 -25 -98t-97 -146v-78l120 -29
q148 160 354 259l20 -42q-180 -85 -319 -230l35 -8q64 -14 106 -94l207 -374l-64 -103l-397 46l-29 -362zM1965 938l43 69l-176 315q-62 106 -100 117l-58 14q-139 -151 -212 -342l80 -36l37 -3l55 202h36l213 -214l-7 -32l-347 14l-77 41l-11 -31l5 -4l-15 -18l-75 65
l-52 -63l3 -32l61 -52l70 -7l86 63l56 -22zM1502 1629q64 85 86.5 135t22.5 92q0 44 -35 79.5t-91 56t-112 20.5q-117 0 -145 -88l160 -92q26 21 49 21q26 0 41 -19.5t15 -42.5q0 -20 -31 -65l-29 -36zM747 2136l-50 -86q-38 -65 -99 -118q90 -27 152 -89q16 82 53 145
l50 87zM1840 1060l-181 179l-44 -170zM575 1884l32 -110l114 26q-28 28 -68 51t-78 33zM1315 1778l-48 -5q-41 0 -71 26q6 8 23 13.5t31 5.5q23 0 37 -9t28 -31zM376 1581l-35 -72l3 -19l32 -68l41 -25l35 2l40 71l-16 47zM1380 1104l23 -20l7 22l-21 11zM524 1460l-49 -74
l31 -16l15 -41l343 -286h38l255 221h27l69 -544l-33 -202l304 67l30 372l-30 13l-83 -61l-81 10l-77 65l-6 58l73 86l8 -6l18 27l43 -19q69 184 201 337l-131 33v95l-100 85q55 76 61.5 88.5t6.5 19.5q0 29 -23 29q-22 0 -42 -26l-175 99l-82 -186l39 -2l42 -113l92 30
l31 -125l-157 -34q-45 -9 -141 -109l-177 -180l-271 220l-38 107l-35 50l-100 58l-10 -18l91 -60zM1566 553h-17l-347 -74l-451 -209l86 -107l729 41v349zM1837 67l-148 18l-119 86l-754 -43l-102 124q-59 -31 -59 -85q0 -58 40 -92.5t112 -34.5q49 0 115 6t515 67l262 -75
h138v29zM1168 502l-325 359l-49 -111l121 -362zM812 876q-21 12 -54 12q-40 0 -64.5 -28.5t-24.5 -76.5q0 -9 1.5 -20t117.5 -437l90 44l-124 378zM657 56q-18 20 -29 46l-24 -17l-148 -18v-29h138z" />
  </g>

</svg>
