<?xml version="1.0" standalone="no"?>
<!DOCTYPE svg PUBLIC "-//W3C//DTD SVG 1.1//EN" "http://www.w3.org/Graphics/SVG/1.1/DTD/svg11.dtd" >
<svg xmlns="http://www.w3.org/2000/svg" xmlns:xlink="http://www.w3.org/1999/xlink" version="1.1" viewBox="-10 0 1817 2048">
  <g transform="matrix(1 0 0 -1 0 1638)">
   <path fill="currentColor"
d="M233 1535v31h-112v40h112v17q-33 4 -69 20.5t-64 39.5q36 24 69 39q-47 19 -69 39l44 24q-14 16 -22 47h44q3 -17 15 -32l29 9v7q0 50 44 50t44 -50v-10q62 -22 98 -45l-20 -34q-45 26 -78 38v-29q25 -7 56.5 -22.5t51.5 -30.5l-10 -7l-25 -16q17 -14 30 -40l-43 -9
q-8 15 -24 30q-29 -14 -61 -18v-17h119v-40h-119v-19l481 -142l187 117q14 15 73 40t93 30v49l-98 6l-16 104l-48 6l65 142l-3 27v13q0 53 43 82.5t122 29.5q87 0 139 -49t52 -125q0 -57 -42 -126l-32 -58v-69q85 0 133.5 -21.5t77.5 -64.5l106 -201l33 -335l44 -34l24 -56
l-7 -116h-45l-7 81l-25 23l-6 -59h-41l-30 108l-44 285l-95 177l9 -290q46 -66 64 -125.5t18 -127.5q0 -21 -12 -55q-23 -64 -23 -136q0 -52 4 -80q59 -247 59 -452q0 -75 -10 -145h-294v88l113 23q60 12 60 48v11q0 4 -104 366l-9 61h-163l-190 -597h-287v88l135 23
q23 5 36.5 20.5t22.5 61.5l67 240l-7 86l28 78h-22l254 485l-108 272l-288 -108l-418 141l-27 -7l-37 -29h-5v-93h-40v93h-1l-66 34l-20 72l8 18l14 4l-10 31zM758 1284l313 116l116 -300l194 35l-11 317l40 17l123 -224l42 -287l18 -97h8l6 73l14 5l42 -41l8 -77h10l5 82
l-27 48l-47 36l-37 331l-113 208q-23 34 -62.5 48t-110.5 14h-31v70l-87 77l38 62q6 9 14.5 27.5t8.5 26.5q0 34 -27 34q-14 0 -25 -11h-147l-40 -93l27 -4l15 -104l106 -6v-104q-47 -7 -104 -31t-79 -45l-195 -119l-503 151l-68 -22l5 -10l61 13l48 -28l13 -54l21 4z
M177 1453l12 -45l58 -30l22 1l30 20l-15 56l-30 16zM1132 1837q-24 -17 -48 -17q-45 0 -45 20q0 10 13 16t27 6q28 0 53 -25zM248 1702l-6 -1v-39h5l19 1v38l-13 1h-5zM253 1742l13 -1v32l-13 2h-11v-33h11zM172 1683q15 -9 38 -15v27zM334 1683q-20 10 -36 13v-26z
M174 1758l36 -11v22zM253 1815l13 -1v2q0 18 -12 18t-12 -18v-2zM1426 633l-1 17v17q0 38 4 71.5t17 70.5t13 57q0 145 -73 235l-200 -35l-223 -433h463zM1251 1705l44 68q30 46 30 98q0 62 -42.5 101.5t-107.5 39.5q-61 0 -93.5 -19.5t-32.5 -54.5l3 -29h133q10 10 31 10
q26 0 40 -20t14 -42q0 -15 -6.5 -34t-16.5 -31l-34 -51zM904 37l179 560h-119l-30 -83v-85l-65 -248q-13 -83 -82 -100l-113 -17v-27h230zM1322 597l9 -59l100 -355l3 -28q0 -59 -89 -74l-85 -17v-27h222q8 45 8 118q0 190 -63 442h-105z" />
  </g>

</svg>
