<?xml version="1.0" standalone="no"?>
<!DOCTYPE svg PUBLIC "-//W3C//DTD SVG 1.1//EN" "http://www.w3.org/Graphics/SVG/1.1/DTD/svg11.dtd" >
<svg xmlns="http://www.w3.org/2000/svg" xmlns:xlink="http://www.w3.org/1999/xlink" version="1.1" viewBox="-10 0 3184 2048">
  <g transform="matrix(1 0 0 -1 0 1638)">
   <path fill="currentColor"
d="M3030 1833l44 -1062l-62 -82h-950q-7 -116 -22 -191l-5 -40q-21 -220 -31.5 -400t-10.5 -211q0 -13 6.5 -58t40.5 -217q-17 -116 -87 -173h-181q-36 0 -162 26q-126 25 -145 25q-40 0 -189 -25q-149 -26 -176 -26h-622v188l58 6q152 22 225 52l74 31q108 45 149 56
l125 30q134 29 182.5 42.5t69.5 27.5q105 70 142.5 138.5t37.5 182.5l-12 369l-13 167h-542l-224 -44h-288l-201 88l-161 154l66 94l182 -124q37 -27 180 -63l238 20l-7 39l-116 -6q-41 0 -112 11t-98 24l23 116q17 -5 74.5 -10.5t100.5 -5.5q31 0 92 7t82 10l154 -69
l547 31l-53 1090h663l-23 -819l-13 -251l547 -7l25 20l54 839h324zM1581 161q0 -140 -43.5 -220.5t-154.5 -148.5q-19 -12 -87.5 -28.5t-176.5 -40.5l-131 -31q-43 -11 -147 -56q-101 -44 -137 -52q-123 -30 -188 -30v-115l569 1q46 0 192 25q151 25 188 25q27 0 155 -25
q127 -26 159 -26h154q22 17 42 60t23 76q-45 225 -45 272q0 134 10.5 307.5t27.5 308.5q15 36 27 226h-461q3 -111 9 -152l3 -13zM2076 2011h-581l51 -1048l353 20l139 -2l15 253zM2993 729l42 59l-40 1005h-251l-53 -825l-41 -34l-753 9l-955 -50l-149 66l-29 -4
q-89 -13 -134 -13q-34 0 -87.5 5t-61.5 7l-8 -42q26 -11 75 -18.5t95 -7.5q28 0 81.5 2.5t63.5 3.5l19 -112l-282 -26l-84 23q-89 26 -117 46l-151 103l-25 -36l132 -120l189 -85h279l221 44h2024z" />
  </g>

</svg>
