<?xml version="1.0" standalone="no"?>
<!DOCTYPE svg PUBLIC "-//W3C//DTD SVG 1.1//EN" "http://www.w3.org/Graphics/SVG/1.1/DTD/svg11.dtd" >
<svg xmlns="http://www.w3.org/2000/svg" xmlns:xlink="http://www.w3.org/1999/xlink" version="1.1" viewBox="-10 0 1492 2048">
  <g transform="matrix(1 0 0 -1 0 1638)">
   <path fill="currentColor"
d="M1038 2051q65 0 112 -47.5t47 -111.5l-2 -23l85 -95l-14 -27l-90 66q-20 -33 -51 -54q156 -42 165 -210l41 -667h-111v-725l162 -68v-89h-1282v89l212 90l-100 326q-21 71 -21 146q0 53 34.5 90t83.5 37q37 0 63.5 -11t52.5 -41.5t236 -288.5l52 492q9 119 135 210l63 48
l-13 109l-45 -16q-25 -130 -208 -157v80q80 0 114 27.5t41 76.5l-34 89l-64 3l80 179q11 74 54 120.5t109 63.5q-15 7 -32 27q-13 -5 -33 -5q-59 0 -99.5 45t-40.5 97q0 20 14.5 37.5t40.5 22.5h-5q-14 0 -28 8t-14 19t16 22t44 11q27 0 44.5 -16.5t17.5 -38.5q0 -27 -8 -48
t-8 -50q0 -25 7.5 -35.5t14.5 -10.5l8 2q-5 18 -5 44q0 67 47.5 112.5t111.5 45.5zM1038 1544q-20 0 -30 -16h-213l-44 -102l39 -2l42 -113l96 30l22 -177q-116 -79 -154 -129.5t-42 -104.5l-57 -553l-31 -1l-240 289q-22 27 -49.5 50t-62.5 23q-38 0 -60.5 -25t-22.5 -63
q0 -29 8.5 -75.5t17.5 -75.5l101 -335l-218 -98v-26h1202v26l-162 70v746h-197l52 565q21 17 29.5 36t8.5 27q0 34 -35 34zM1038 1733q-185 0 -225 -167h192q14 14 41 14q28 0 45.5 -19t17.5 -48q0 -20 -12 -43t-28 -33l-37 -515h257l-37 626q-5 85 -64 135t-150 50z
M919 1892q0 -49 35.5 -84t83.5 -35q49 0 84 35.5t35 83.5q0 49 -35.5 84t-83.5 35q-49 0 -84 -35.5t-35 -83.5zM880 1819q-21 0 -39 19.5t-18 54.5q0 29 7 55t7 43q0 32 -29 32q-27 0 -27 -10q0 -7 20.5 -12t26.5 -6v-20q-52 -18 -52 -49q0 -51 28.5 -83t74.5 -32l18 3l-4 7
zM889 1462q-41 0 -71 26q6 8 23 13.5t31 5.5q23 0 37 -9t28 -31z" />
  </g>

</svg>
