<?xml version="1.0" standalone="no"?>
<!DOCTYPE svg PUBLIC "-//W3C//DTD SVG 1.1//EN" "http://www.w3.org/Graphics/SVG/1.1/DTD/svg11.dtd" >
<svg xmlns="http://www.w3.org/2000/svg" xmlns:xlink="http://www.w3.org/1999/xlink" version="1.1" viewBox="-10 0 1617 2048">
  <g transform="matrix(1 0 0 -1 0 1638)">
   <path fill="currentColor"
d="M1507 1201l-32 -87l-292 29l1 -22q53 -75 67.5 -115t14.5 -102q0 -23 -12 -73q-23 -97 -23 -154q0 -52 4 -80l246 -383l-124 -177l-75 -37h-103l-7 81l79 19l42 41l16 84l-252 300l-10 72h-191l-51 -89l-43 -377l2 -131h-316v83l147 38q37 7 37 55v27l-13 322l302 557
l-111 296l-265 -183l-316 280l-70 16l-59 70l6 50l56 89h52l63 -43l21 -77l254 -201l157 143q19 19 70.5 42.5t77.5 27.5v49l-88 6l-16 104l-48 6l65 142l-3 27v13q0 53 43 82.5t122 29.5q87 0 139 -49t52 -125q0 -57 -42 -126l-32 -58v-69q74 0 132.5 -25t91.5 -68
q69 -89 92 -122zM1023 1276l-74 -10l2 -12l69 2l50 -38l-2 -11l-72 -14l-1 -7l457 -41l18 54l-126 179q-64 91 -111 145q-54 65 -184 65h-31v70l-87 77l38 62q6 9 14.5 27.5t8.5 26.5q0 34 -27 34q-14 0 -25 -11h-147l-40 -93l27 -4l15 -104l96 -6v-104q-39 -6 -89.5 -28.5
t-75.5 -47.5l-167 -155l-286 232l-16 54l-66 -15v-22l51 8l10 -67l-28 -4l-7 41l-51 -10l-5 71l85 25l-43 27h-29l-37 -68l-5 -34l47 -53l76 -21l297 -250l273 190l130 -336l194 35l-1 12l-177 18l1 41l60 13l-32 18l-71 -3l-5 47l103 18l60 -22l45 -44h13l-7 219l35 13
l219 -247l-4 -14l-258 3l-54 49zM1194 633l-1 17v17q0 72 21 160q13 55 13 75q0 53 -15 99.5t-58 99.5l-200 -35l-235 -433h475zM728 37l-2 95l44 387l44 78h-109l-46 -82l11 -334q0 -79 -65 -90l-125 -32v-22h248zM1349 231l-30 -109l-62 -53l-53 -10l2 -26h69l62 36
l98 146l-250 381l-95 1l9 -59zM1172 1415l7 -185l160 2zM892 1837q-24 -17 -48 -17q-45 0 -45 20q0 10 13 16t27 6q28 0 53 -25zM1011 1705l44 68q30 46 30 98q0 62 -42.5 101.5t-107.5 39.5q-61 0 -93.5 -19.5t-32.5 -54.5l3 -29h133q10 10 31 10q26 0 40 -20t14 -42
q0 -15 -6.5 -34t-16.5 -31l-34 -51z" />
  </g>

</svg>
