<?xml version="1.0" standalone="no"?>
<!DOCTYPE svg PUBLIC "-//W3C//DTD SVG 1.1//EN" "http://www.w3.org/Graphics/SVG/1.1/DTD/svg11.dtd" >
<svg xmlns="http://www.w3.org/2000/svg" xmlns:xlink="http://www.w3.org/1999/xlink" version="1.1" viewBox="-10 0 1534 2048">
  <g transform="matrix(1 0 0 -1 0 1638)">
   <path fill="currentColor"
d="M1228 1366l30 2q47 0 74.5 -32.5t27.5 -93.5v-1049l-40 7v1036q0 40 -16.5 67t-53.5 27q-16 0 -35 -7l-54 -180l-32 7l-13 -101q109 -66 109 -241v-651l162 -68v-89h-1187v89l212 90l-93 425q-21 98 -21 146q0 34 16 64l-57 146l16 22l85 -15l-10 20l-161 96l93 53
l-21 52l-102 -48q-26 49 -41.5 110.5t-15.5 115.5q0 214 220 273l15 -17q-33 -60 -50 -114.5t-17 -130.5q0 -49 15 -115t34 -105l63 37l26 -34l-17 -152l16 -50l59 -10l25 -88q37 -23 64 -62l218 -312l37 340q17 159 107 220l-12 98l-45 -16l-112 -153l-72 61l131 119
l-34 89l-64 3l101 221l-15 79l7 10l10 -1l128 338q31 75 49.5 99.5t46 40.5t66.5 16q66 0 101 -42q38 42 99 42q33 0 70.5 -14.5t53.5 -35.5zM1187 136v673q0 108 -46 168t-130 60q-67 0 -108.5 -56t-53.5 -159l-48 -396l-25 -10l-245 348q-22 27 -49.5 50t-62.5 23
q-38 0 -60.5 -25t-22.5 -63q0 -37 19 -117l103 -468l-218 -98v-26h1107v26zM1375 1982q-8 11 -30 20.5t-51 9.5q-37 0 -63 -27.5t-52 -96.5l-130 -340l188 -7zM1014 1077q32 0 62 -9l13 92l-64 16l23 133q21 17 29.5 36t8.5 27q0 29 -23 29q-22 0 -42 -26l-194 57l-71 -158
l39 -2l42 -113l92 30l18 -126q34 14 67 14zM1174 1973q-17 39 -80 39q-37 0 -63.5 -27.5t-52.5 -96.5l-126 -333l156 -6zM1226 1504l-388 15l9 -52l170 -51q26 21 49 21q26 0 41 -19.5t15 -42.5q0 -20 -11 -43t-28 -33l-19 -94l72 -18zM287 1595q-77 -35 -112 -90.5
t-35 -142.5q0 -84 36 -172l73 35q-21 79 -21 152q0 126 59 218zM305 932l34 -85q32 30 75 30l34 -3l-11 38zM351 1028l9 107l-97 -56zM936 1348l-48 -5q-41 0 -71 26q6 8 23 13.5t31 5.5q23 0 37 -9t28 -31z" />
  </g>

</svg>
