<?xml version="1.0" standalone="no"?>
<!DOCTYPE svg PUBLIC "-//W3C//DTD SVG 1.1//EN" "http://www.w3.org/Graphics/SVG/1.1/DTD/svg11.dtd" >
<svg xmlns="http://www.w3.org/2000/svg" xmlns:xlink="http://www.w3.org/1999/xlink" version="1.1" viewBox="-10 0 2682 2048">
  <g transform="matrix(1 0 0 -1 0 1638)">
   <path fill="currentColor"
d="M479 833q-112 0 -112 112v1q-22 13 -22 37q0 27 12.5 46t54.5 74.5t138 111.5q23 57 76 93.5t116 36.5q99 0 200.5 -63.5t179.5 -164.5l59 -43q82 -57 122 -78q36 -20 167 -122q121 -96 160 -103q141 -31 391 -31h52q67 2 181 19q110 16 138 16q77 0 128.5 -62t51.5 -155
q0 -81 -77 -340q-12 -41 -12 -70q0 -45 9 -99t21 -94l-63 -19q-87 115 -87 212q0 41 16 85q45 127 59.5 181.5t14.5 96.5q0 57 -21 96.5t-62 39.5q-30 0 -52 -9.5t-43 -37.5l-5 -99q-10 -74 -226 -393l1 -22v-10q69 -175 79 -221l32 -102q20 -64 20 -104q0 -37 -26.5 -62
t-79.5 -25h-127l-25 -5q-76 -24 -88 -24q-59 0 -59 62q0 27 67 76q-10 10 -10 19q0 35 70 35l43 -3q32 0 32 22q0 9 -123 291q-138 -172 -208 -343q-13 -39 -41 -67.5t-68.5 -46.5t-61.5 -27.5t-55 -12.5q-52 0 -52 31l1 15q-14 0 -28 -14q-21 -26 -31.5 -31.5t-26.5 -5.5
q-30 0 -57 17t-27 42q0 32 19.5 57.5t55 37.5t148.5 17q35 1 63 36l9 19q92 206 135 317q24 61 119 251q-7 20 -42 20l-18 -1q-64 -5 -366 -70q-75 -13 -247 -24l11 -64q-57 -226 -61 -269l-5 -36l-15 -123q-7 -65 -14 -91.5t-16.5 -46t-20 -30.5t-59 -32.5t-76.5 -21.5
q-52 0 -52 31l1 15q-14 0 -28 -14q-20 -24 -31.5 -30.5t-28.5 -6.5q-34 0 -58 17.5t-24 41.5q0 50 45 80t139 30h16q29 0 44 13t17 51l10 295l-15 23l-134 -129q-46 -46 -109.5 -145t-91.5 -165q-31 -83 -116 -83h-128l-25 -5q-38 -12 -57.5 -18t-29.5 -6q-59 0 -59 62
q0 32 24 64t59 46q-14 7 -14 17q0 38 134 38q25 0 78 -8q20 12 45.5 48t91.5 149t126 235l10 68q-19 15 -36.5 33t-29 35.5t-11.5 49.5q0 70 31 163t105 253v6q0 39 -17 56l-101 -1h-22q-2 -1 -28 -7.5t-66 -6.5zM990 278q30 3 72 6.5t87 8.5t88 11t73 12l133 29
q185 42 246 42q36 0 71 -6.5t67 -32.5q12 125 23 169l40 -8q-28 -142 -28 -263q0 -92 14 -176l25 -54q41 -91 77.5 -179t36.5 -98q0 -52 -73 -52l-29 4l-37 3q-9 0 -9 -7t6 -8q27 -1 27 -10q-1 -9 -14 -18q-75 -43 -75 -56q0 -22 19 -22q10 0 78 23q16 5 33 6h129
q33 0 49.5 13.5t16.5 33.5q0 35 -19 94l-16 51l-15 51q-27 90 -80 224l-1 20q0 37 21 62q193 277 204 354l5 109q26 34 56 53.5t79 19.5q57 0 90 -49.5t33 -126.5q0 -70 -41 -189q-18 -54 -33.5 -96.5t-15.5 -77.5q0 -43 16 -88t43 -79l8 2q-27 99 -27 165q0 30 13 74
q76 269 76 336q0 72 -41 124.5t-99 52.5q-31 0 -148 -16q-67 -10 -108.5 -14.5t-109.5 -4.5q-152 0 -278 12.5t-171.5 36t-211.5 156.5q-45 35 -82 55t-95 59.5t-95 69.5q-78 100 -171 158t-180 58q-26 0 -60 -12q59 -10 84 -62q0 -5 -7.5 -11t-14.5 -6l-6 2q-35 42 -95 42
l-15 -1q-34 -33 -44 -68q-50 -30 -85.5 -57t-53 -51.5t-40 -52t-20.5 -45.5q0 -13 33 -20t77 -7l1 -24l-89 -2q6 -57 72 -57q45 0 83 14l84 2q30 -1 52.5 -4.5t33 -17.5t16.5 -33.5t6 -37.5q0 -25 -30 -86q-54 -108 -80 -192t-26 -157q0 -17 7 -28t27 -29t46 -34l-15 -95
q-27 -64 -62 -125.5t-75 -130.5q-73 -125 -100 -159t-54 -49q-42 13 -122 13q-49 -2 -50 -8v-5q0 -7 9 -8q34 -4 34 -8v-4q-2 -9 -17 -11q-40 -3 -73 -28t-33 -57q0 -22 19 -22q10 0 78 23q16 5 33 6h129q55 0 78 57q29 71 98 175.5t113 148.5l195 185q53 48 84.5 160
t31.5 241h40v-12q0 -153 -49 -279zM1834 80q-12 65 -12 166v25l1 25q-19 21 -36 31l-14 -30q-84 -167 -110 -235q-11 -28 -71 -160t-93 -199q-23 -38 -74 -39q-27 -1 -67.5 -3.5t-62.5 -7.5t-41 -24.5t-19 -32.5q0 -9 11 -16t29 -7q15 0 32 23q15 17 30 22.5t42 5.5h70
q-8 -11 -20.5 -20t-12.5 -17q0 -9 9 -9h5q36 6 95 41.5t80 87.5q72 155 122 227.5t107 145.5zM634 -403q0 -10 11 -17t29 -7q15 0 32 23q15 17 30 22.5t42 5.5h70q-8 -11 -20.5 -20t-12.5 -17q0 -10 10 -10q28 0 85 34q38 22 52 141l9 87l10 86l23 104l37 158l-11 63l-37 -2
h-13q-5 -23 -29 -60t-44 -52l-27 -24l25 -39l-9 -302q-2 -51 -30 -80t-74 -29q-35 0 -74.5 -5.5t-52.5 -14.5t-22 -21.5t-9 -23.5zM872 1234q28 0 45 -21.5t17 -50.5q0 -41 -25.5 -76t-67.5 -37l-9 -10q-15 -23 -27 -23q-22 0 -22 23q0 13 13 25t60 20q17 3 28.5 26.5
t11.5 50.5q0 9 -8 20.5t-26 11.5q-22 0 -52 -35l-10 -10l1 41q10 20 29 32.5t42 12.5zM625 1160q0 32 41 32q19 0 38.5 -13.5t30.5 -30.5q-25 -22 -60 -22q-15 0 -32.5 9t-17.5 25z" />
  </g>

</svg>
