<?xml version="1.0" standalone="no"?>
<!DOCTYPE svg PUBLIC "-//W3C//DTD SVG 1.1//EN" "http://www.w3.org/Graphics/SVG/1.1/DTD/svg11.dtd" >
<svg xmlns="http://www.w3.org/2000/svg" xmlns:xlink="http://www.w3.org/1999/xlink" version="1.1" viewBox="-10 0 1857 2048">
  <g transform="matrix(1 0 0 -1 0 1638)">
   <path fill="currentColor"
d="M205 394q-37 0 -67 67t-30 153q0 62 17 150h-25q3 58 24 100t55 53v163q0 136 68 222t172 86q241 0 241 -312v-146h38l124 -183l204 -251l52 566q6 68 51 131.5t147 126.5l-13 109l-45 -16l-112 -153l-72 61l131 119l-34 89l-64 3l103 229q-48 24 -60.5 35t-12.5 23
q0 17 7.5 25.5t7.5 15.5q0 10 -13 10h-19q-15 0 -15 8q0 5 16.5 16.5t46.5 11.5q23 0 34 -13t11 -25q0 -14 -10 -24q-11 -11 -11 -21q0 -16 24 -28q12 38 50.5 65t92.5 38q-9 29 -31 52.5t-51 34.5v66h330v-66q-29 -11 -52 -36t-31 -54q185 -45 185 -260q0 -50 -9 -86
t-21.5 -67.5t-25.5 -61.5t-21 -68q35 -73 90 -129q31 -33 44.5 -54t13.5 -41q0 -33 -18 -48.5t-45 -15.5q-52 0 -92 74v-981l162 -68v-89h-1282v89l212 90l-100 385q-21 74 -21 146q0 39 20 70l-36 119l18 31h45v144q0 137 -44.5 197.5t-139.5 60.5q-84 0 -133.5 -68.5
t-49.5 -187.5v-161q31 -13 51.5 -55t22.5 -96h-25q17 -110 17 -150q0 -85 -30 -152.5t-67 -67.5zM1631 1634q0 107 -62.5 170t-173.5 63q-73 0 -120 -20t-67 -69l161 -91q26 21 49 21q26 0 41 -19.5t15 -42.5q0 -20 -12 -43t-28 -33q-35 -63 -35 -104q0 -52 23 -98l-1 -42
q-60 0 -130.5 -44t-118.5 -107t-53 -112l-63 -627l-25 -10l-240 298q-22 27 -49.5 50t-62.5 23q-38 0 -60.5 -25t-22.5 -63q0 -30 26 -151l101 -394l-218 -98v-26h1202v26l-160 70v1138q0 61 13 106.5t29 86t29 80t13 87.5zM1198 1745l-82 -186l39 -2l42 -113l96 30l17 -137
q40 19 73 27q-7 10 -11 25q-11 29 -11 76q0 48 39 115q21 17 29.5 36t8.5 27q0 29 -23 29q-22 0 -42 -26zM205 433q23 0 42 57.5t19 123.5q0 74 -36 186v29h-50v-29q-36 -112 -36 -186q0 -67 19 -124t42 -57zM1401 1905l50 -2q7 29 28 57t46 41v14h-246v-14q25 -13 46 -41
t28 -57zM1585 1285q2 -64 33 -122t61 -58q21 0 21 20v3q-1 13 -22.5 36t-46.5 58q-31 41 -46 75v-12zM674 837q23 0 43 -5l-40 58h-82l-6 -11l18 -64l-2 -2q30 24 69 24zM1296 1633l-48 -5q-41 0 -71 26q6 8 23 13.5t31 5.5q23 0 37 -9t28 -31z" />
  </g>

</svg>
