<?xml version="1.0" standalone="no"?>
<!DOCTYPE svg PUBLIC "-//W3C//DTD SVG 1.1//EN" "http://www.w3.org/Graphics/SVG/1.1/DTD/svg11.dtd" >
<svg xmlns="http://www.w3.org/2000/svg" xmlns:xlink="http://www.w3.org/1999/xlink" version="1.1" viewBox="-10 0 1500 2048">
  <g transform="scale(1, -1)" transform-origin="center">
   <path fill="currentColor"
d="M1155 136v773q0 108 -46 168t-130 60q-67 0 -108.5 -56t-53.5 -159l-53 -446l-25 -10l-240 298q-22 27 -49.5 50t-62.5 23q-38 0 -60.5 -25t-22.5 -63q0 -37 19 -117l103 -468l-218 -98v-26h1107v26zM982 1177q32 0 62 -9l13 92l-64 16l23 133q21 17 29.5 36t8.5 27
q0 29 -23 29q-22 0 -42 -26l-194 57l-71 -158l39 -2l42 -113l92 30l18 -126q34 14 67 14zM1314 2020l-135 -367l-44 -24l-328 13l8 -75l170 -51q26 21 49 21q26 0 41 -19.5t15 -42.5q0 -20 -11 -43t-28 -33l-19 -94l72 -18l235 733h-25zM1145 1269q65 -42 99 -104t34 -154
v-72h68v66q0 112 -49.5 177t-146.5 98zM734 536l42 390q17 159 107 220l-12 98l-45 -16l-112 -153l-72 61l131 119l-34 89l-64 3l101 221l-14 102l7 10l346 -16l-200 221q-56 61 -56 114q0 32 22.5 56.5t60.5 24.5q36 0 55.5 -18.5t19.5 -47.5t-18 -44t-39 -15h-20v35h15
q22 0 22 25q0 29 -35 29q-43 0 -43 -44q0 -27 11.5 -47t33.5 -44l208 -229l138 380h100l-238 -746q88 -27 138.5 -70t73 -98t22.5 -155v-87h-148v98q0 155 -109 241l-32 7l-13 -101q109 -66 109 -241v-751l162 -68v-89h-1187v89l212 90l-93 425q-21 98 -21 146q0 40 20 72
l-33 110l18 31h38v455q0 70 -19.5 101.5t-51.5 42.5q-58 -97 -58 -205h-53q-12 30 -19 67t-7 62q0 36 18.5 88.5t51.5 106.5q47 78 57.5 115t10.5 74v10h53q32 -51 32 -122q0 -34 -11.5 -64.5t-36.5 -73.5q45 -21 71 -76.5t26 -131.5v-449h38l120 -178zM856 1443
q-41 0 -71 26q6 8 23 13.5t31 5.5q23 0 37 -9t28 -31zM269 1813q-3 -54 -53 -137q-47 -77 -61.5 -120t-14.5 -100q0 -27 4 -50h10l-1 15q0 56 37 142q9 24 48 82q43 65 43 127l-3 41h-9zM382 877q25 0 43 -4l-35 50h-82l-6 -11l16 -56q29 21 64 21z" />
  </g>

</svg>
