<?xml version="1.0" standalone="no"?>
<!DOCTYPE svg PUBLIC "-//W3C//DTD SVG 1.1//EN" "http://www.w3.org/Graphics/SVG/1.1/DTD/svg11.dtd" >
<svg xmlns="http://www.w3.org/2000/svg" xmlns:xlink="http://www.w3.org/1999/xlink" version="1.1" viewBox="-10 0 2283 2048">
  <g transform="matrix(1 0 0 -1 0 1638)">
   <path fill="currentColor"
d="M483 530l-359 -102l-24 34l359 102l-139 192l32 23l147 -204l392 111l-143 199l32 23l152 -210l390 110l-146 202l32 23l154 -213l384 109l-142 196l32 23l150 -208l362 103l25 -35l-362 -103l159 -218l-32 -23l-167 230l-384 -109l155 -213l-32 -23l-163 225l-390 -110
l157 -217l-32 -23l-166 228l-392 -111l162 -223l-32 -23z" />
  </g>

</svg>
