<?xml version="1.0" standalone="no"?>
<!DOCTYPE svg PUBLIC "-//W3C//DTD SVG 1.1//EN" "http://www.w3.org/Graphics/SVG/1.1/DTD/svg11.dtd" >
<svg xmlns="http://www.w3.org/2000/svg" xmlns:xlink="http://www.w3.org/1999/xlink" version="1.1" viewBox="-10 0 691 2048">
  <g transform="matrix(1 0 0 -1 0 1638)">
   <path fill="currentColor"
d="M260 433l-138 61l138 344q-69 2 -114.5 50t-45.5 114q0 68 44 113.5t116 50.5v884h321v-2393h-321v776zM541 -303v1141h-241v-1141h241zM300 946h241v1064h-241v-1064zM260 476v253l-87 -215zM541 878v28h-281q-45 0 -69.5 28.5t-24.5 67.5q0 36 24 63.5t70 32.5v28
q-53 -6 -86.5 -39.5t-33.5 -84.5q0 -53 36 -88.5t84 -35.5h281zM206 1002q0 -23 14 -38.5t40 -17.5v112q-26 -5 -40 -20.5t-14 -35.5z" />
  </g>

</svg>
