<?xml version="1.0" standalone="no"?>
<!DOCTYPE svg PUBLIC "-//W3C//DTD SVG 1.1//EN" "http://www.w3.org/Graphics/SVG/1.1/DTD/svg11.dtd" >
<svg xmlns="http://www.w3.org/2000/svg" xmlns:xlink="http://www.w3.org/1999/xlink" version="1.1" viewBox="-10 0 1775 2048">
  <g transform="matrix(1 0 0 -1 0 1638)">
   <path fill="currentColor"
d="M100 1890l131 79l32 28q33 38 68 54t91 16q73 0 121.5 -53t48.5 -130q0 -98 -95 -347q-57 -150 -57 -181q0 -53 17 -80t62 -27q20 0 38.5 8.5t36 23t65.5 67.5q71 84 127.5 115.5t116.5 31.5q68 0 146 -35q-2 -50 -14.5 -97t-29.5 -67q39 7 113 7q104 0 197 -53
t168.5 -149t128.5 -225.5t53 -215.5q0 -46 -16.5 -67.5t-36.5 -21.5q-14 0 -50 23q-133 74 -191 74t-111 -14l2 -32q29 -39 29 -71q0 -23 -27 -77l-20 -345l33 -129h-44l-26 36l-46 -36h-208l-24 24l-37 -28h-34l51 82q50 15 126 24q63 7 79.5 20.5t17.5 35.5l22 314
q-25 40 -28 76l-1 14q0 12 7 49l-35 43l-33 2l-28 -86q0 -18 -4 -37.5t-11.5 -31.5t-47.5 -52l-137 -327l12 -122h-44l-26 36l-46 -36h-208l-24 24l-37 -28h-34l51 82q59 18 152 28q78 12 110 87l126 292l-2 34v21l1 17q8 31 40 66l6 81q-101 43 -182.5 100.5t-126.5 106.5
l-68 -6q-135 0 -224.5 92.5t-89.5 236.5q0 111 115 292q63 100 88.5 155.5t25.5 97.5q0 48 -17.5 66.5t-71.5 18.5l-142 -7h-8q-54 0 -100 13zM956 50l12 -11h179l53 45l24 -21l-21 51l21 374q27 50 27 63q0 20 -29 56l-7 211l40 2l4 -126q22 4 46.5 9t65.5 5
q32 0 76.5 -15.5t134.5 -64.5l22 -12l8 -5q13 0 13 49q0 79 -48.5 200.5t-118.5 211.5t-157 140.5t-183 50.5q-65 0 -141 -8q-26 -35 -88 -80.5t-94 -55.5l-16 30q218 107 229 287q-46 19 -105 19q-39 0 -70.5 -13t-59 -34t-84.5 -86q-62 -72 -97.5 -92.5t-72.5 -20.5
q-67 0 -93 37.5t-26 109.5q0 40 59 195q56 147 74.5 217t18.5 116q0 61 -38.5 102t-91.5 41q-41 0 -71 -11.5t-46.5 -31t-16.5 -40.5q0 -40 54 -40l28 1h19q42 0 72 -28.5t30 -97.5q0 -49 -27 -111t-87 -154q-59 -91 -87 -158t-28 -122q0 -124 76 -206.5t198 -82.5l85 10
q54 -68 197 -152.5t249 -103.5l-46 68l34 22l116 -169l-6 -44q0 -50 29 -94l-21 -320q-2 -32 -14.5 -50t-30 -27.5t-63.5 -16.5q-70 -8 -109 -18zM527 50l12 -11h179l53 45l24 -21l-4 55l149 354q42 42 49.5 54t7.5 39l-1 11l28 88l-73 25l-7 -82q-32 -32 -37 -56l-1 -20
l3 -50l-132 -308q-39 -94 -141 -105q-70 -8 -109 -18zM330 1967q0 9 6 15t15 6t15 -6t6 -15t-6 -15t-15 -6t-15 6t-6 15zM248 1947l-90 -55l91 33l-1 10v12zM265 1890l-8 12l-78 -20z" />
  </g>

</svg>
