<?xml version="1.0" standalone="no"?>
<!DOCTYPE svg PUBLIC "-//W3C//DTD SVG 1.1//EN" "http://www.w3.org/Graphics/SVG/1.1/DTD/svg11.dtd" >
<svg xmlns="http://www.w3.org/2000/svg" xmlns:xlink="http://www.w3.org/1999/xlink" version="1.1" viewBox="-10 0 3292 2048">
  <g transform="matrix(1 0 0 -1 0 1638)">
   <path fill="currentColor"
d="M1089 131l15 -64l4 -29q0 -21 -8.5 -37t-25.5 -16q-35 0 -75.5 9t-82.5 9q-49 0 -219 -29l-7 32l22 19l-81 -8l-3 34l65 17l-70 6v30l65 12l-54 13l2 33l229 13l-4 50l1 21q-323 170 -419 218l-238 115l-60 28q-45 21 -45 79q0 27 12 48l-5 3q14 33 49 65t51 32
q8 0 20.5 -3t171.5 -59q25 -4 53 -4h18l160 13l32 1q69 0 105 -15.5t113 -65.5q121 -78 264 -108.5t318 -30.5l150 4l60 -2q151 -12 672 -219q204 -82 237 -92q74 -24 257.5 -72.5t343.5 -83.5l-20 -95q-423 58 -675.5 86t-496.5 41l-1 -11l15 -64l4 -29q0 -21 -8.5 -37
t-25.5 -16q-35 0 -75.5 9t-82.5 9q-49 0 -219 -29l-7 32l22 19l-81 -8l-3 34l65 27l-70 1v30l44 14l-44 -3v8q-34 -5 -89 -6q-96 0 -169.5 15.5t-170.5 44.5zM2053 288q-47 -51 -60 -120q243 -13 480 -38.5t656 -88.5l6 32q-135 29 -304.5 71t-261.5 71l-160 61l-123 49
q-485 191 -618 199l-57 3l-40 -1l-109 -4q-156 0 -281.5 21.5t-208.5 61t-189 109.5q-25 15 -48.5 21t-70.5 6h-32l-186 -13q-28 0 -56 4l-109 39q-65 23 -74 23q-12 0 -31 -17.5t-27 -36.5l20 -16l22 -35l33 10l24 -37l47 11l32 -45l55 15l23 -44q13 0 27.5 4.5t25.5 4.5
l22 -43l35 2l175 -98l-8 -13l-172 75l-50 -4l-23 45q-13 0 -28 -4.5t-26 -4.5l-20 38l-48 -13l-36 49l-52 -11l-19 32l-35 -11l-26 45h-5l-1 -11q0 -30 20 -38l181 -85q53 -24 210.5 -104.5t313.5 -163.5q5 37 16 74l38 -10q-18 -66 -18 -128q0 -43 9 -94l-182 -8l13 -14
l-26 -14l29 -13l-21 -25h32l1 -33q108 18 159 18q11 0 129 -19q22 0 22 21l-18 87q5 41 15 92t39 114l36 -16q-29 -61 -39 -115q58 -18 138 -36.5t123 -20.5q131 0 161 5v6q94 13 142 13l101 -5l-2 24q0 45 15.5 88t41.5 71l27 -25q-41 -54 -45 -114v-17q0 -12 9 -63l-130 9
q-48 0 -82 -12l39 -14l-22 -23l29 -13l-21 -35h32l1 -33q108 18 159 18q11 0 129 -19q22 0 22 21l-18 87q4 112 69 184zM588 671q26 30 64 30q35 0 55 -25.5t20 -72.5l-21 -1l-6 22q-9 -14 -32 -14q-43 2 -43 47l-9 -8zM174 741q19 28 50 28q28 0 48 -20l-26 -26
q-10 10 -22 10t-20 -12zM680 652q-9 13 -28 13h-3q3 -22 17 -22q11 0 14 9z" />
  </g>

</svg>
