<?xml version="1.0" standalone="no"?>
<!DOCTYPE svg PUBLIC "-//W3C//DTD SVG 1.1//EN" "http://www.w3.org/Graphics/SVG/1.1/DTD/svg11.dtd" >
<svg xmlns="http://www.w3.org/2000/svg" xmlns:xlink="http://www.w3.org/1999/xlink" version="1.1" viewBox="-10 0 3106 2048">
  <g transform="matrix(1 0 0 -1 0 1638)">
   <path fill="currentColor"
d="M1201 67q-36 -103 -121.5 -246.5t-112.5 -161.5l-341 -35l-55 -51q0 -15 -22 -35.5t-48 -20.5q-30 0 -50.5 17.5t-20.5 42.5q0 27 15.5 43t43.5 16l12 -1h4l36 27l-2 8l-250 -43q-23 -30 -80 -30q-38 0 -62.5 19.5t-24.5 50.5t25.5 54.5t57.5 23.5q64 0 78 -24l167 20
l2 8l-91 15q-19 -14 -68 -14q-31 0 -53 17.5t-22 51.5q0 32 25.5 55t56.5 23q71 0 94 -58l120 -38l2 9l-28 15q-35 0 -54 16.5t-19 42.5t17 42.5t49 16.5q29 0 47.5 -17t22.5 -45l60 -47l204 -14q23 0 39 7q14 6 46 85t58.5 188t30.5 141l-2 21l-1 -1q-245 260 -311 379
q-78 140 -230 612q-121 92 -176 177q-80 127 -155 268q-9 20 -9 38q0 23 17 50q-22 35 -22 74q0 43 42.5 89t109.5 75.5t131 29.5q88 0 335 -60q58 50 142 50q53 0 94.5 -41.5t63.5 -113.5l159 -87q73 -43 158 -79t145 -51q195 -47 385.5 -131.5t295.5 -177.5
q158 -142 346 -346t250 -305.5t107.5 -216.5t74.5 -224t43 -201t14 -147q0 -52 -9.5 -101.5t-33.5 -92t-64 -67.5t-78 -29q-19 -33 -60 -56t-86 -23q-29 0 -130 14l-437 70q-56 7 -81 7q-50 0 -102 -17l-59 -46q-2 -14 -23 -31.5t-44 -18.5q-32 0 -52.5 19.5t-20.5 43.5
q0 27 15 42.5t42 15.5h7l12 -2l4 -1l38 24l-1 8l-253 -19q-26 -23 -66 -23q-43 0 -69.5 20t-26.5 51t24.5 54.5t59.5 23.5q22 0 48.5 -8.5t32.5 -23.5l169 4l2 8l-89 24q-14 -9 -49 -9q-76 0 -87 55q-96 36 -184 98t-144 131zM981 638l48 -399q-4 -25 -17 -84.5
t-30.5 -124.5t-46 -131t-48.5 -93t-71 -27l-215 24l-78 59l-8 23q-14 23 -36 23q-11 0 -17.5 -8.5t-6.5 -16.5q0 -27 27 -27l15 2l59 -45l-26 -39l-158 34q-19 49 -73 49q-19 0 -30 -13t-11 -24q0 -18 15 -26.5t28 -8.5q45 0 65 10l118 -23l-8 -57l-204 -31q-9 21 -56 21
q-54 0 -54 -38q0 -32 48 -32q52 0 65 27l286 43l15 -48l-56 -50l-11 1q-39 0 -39 -30q0 -8 7.5 -15.5t24.5 -7.5q25 0 34.5 16t10.5 30l60 57l348 41q23 21 80 116t98 188t46 138l10 108l21 255l40 -2l-11 -137l-20 -228l-4 -23q54 -73 139.5 -135.5t178.5 -98.5
q11 26 34.5 38t43.5 12q33 0 59.5 -17.5t34.5 -49.5l116 -49l3 8l-27 18q-33 4 -50 19.5t-17 38.5q0 28 16.5 44t44.5 17q71 0 75 -69l53 -50l170 -49l135 3q-94 42 -173 100.5t-118 117.5t-39 119q0 102 58.5 157.5t170.5 55.5q85 0 250 -89.5t368 -242.5l-24 -32
q-139 105 -265 182t-205.5 109.5t-123.5 32.5q-91 0 -140 -44t-49 -129q0 -57 47.5 -117t140.5 -117.5t196 -97.5l257 -72l-10 -38l-241 67l-226 -4l-190 55l-72 66q-8 50 -43 50q-9 0 -16 -8t-7 -20q0 -19 24 -24h10l6 1l54 -51l-30 -36l-154 49q-16 56 -73 56
q-15 0 -27 -11.5t-12 -25.5t14.5 -25t53.5 -11q26 0 37 5l115 -34l-13 -56l-206 -11q-11 26 -71 26q-40 0 -40 -37q0 -33 60 -33q37 0 52 21l289 15l10 -49l-61 -44l-17 2q-35 0 -35 -28q0 -11 9 -17.5t26 -6.5q20 0 31 13.5t13 27.5l65 51q63 22 117 22q49 0 89 -7l346 -56
q161 -28 213 -28q51 0 87.5 31.5t36.5 77.5q0 81 -315 214q-74 30 -297 195l24 32q217 -160 289 -191l53 -23q137 -61 211.5 -119.5t74.5 -107.5l-3 -27q23 6 40 18l1 21v20q0 122 -25.5 256.5t-73 257t-115.5 214.5t-165.5 189t-206.5 184l24 32q106 -85 211 -189.5
t174.5 -199.5t116.5 -218t73.5 -262t26.5 -266q23 23 36 73.5t13 116.5q0 106 -40 272.5t-104 318.5t-152.5 266t-249.5 282.5t-275 270.5q-64 57 -168 113.5t-246.5 109t-250.5 78.5q-67 15 -156 54.5t-157 79.5q-65 38 -176 94q-11 60 -42 101t-79 41q-70 0 -131 -54
q-245 64 -346 64q-46 0 -104 -26.5t-98.5 -64t-40.5 -62.5q0 -27 25 -68q121 -185 151 -224l-31 -25q-48 59 -137 205l-3 -13q0 -10 5 -20q76 -140 139 -241.5t191 -197.5q165 -509 229 -616q63 -111 270 -335l-38 309zM308 1720q29 -33 86 -70q41 55 114 55q70 0 112 -40
t42 -105q0 -38 -16 -67q90 -72 138 -142l-32 -24q-53 74 -131 136q-45 -38 -113 -38q-34 0 -68 17t-53.5 47t-19.5 71q0 31 9 55q-67 42 -98 79zM508 1665q-51 0 -80 -37l48 -26q80 -43 137 -84q9 20 9 42q0 49 -32 77t-82 28zM508 1465q46 0 80 24q-33 23 -86 54l-91 51
q-4 -16 -4 -34q0 -42 30 -68.5t71 -26.5z" />
  </g>

</svg>
