<?xml version="1.0" standalone="no"?>
<!DOCTYPE svg PUBLIC "-//W3C//DTD SVG 1.1//EN" "http://www.w3.org/Graphics/SVG/1.1/DTD/svg11.dtd" >
<svg xmlns="http://www.w3.org/2000/svg" xmlns:xlink="http://www.w3.org/1999/xlink" version="1.1" viewBox="-10 0 2807 2048">
  <g transform="matrix(1 0 0 -1 0 1638)">
   <path fill="currentColor"
d="M1462 562l204 4l162 3q297 0 483 -60t286 -154t100 -213q0 -137 -85.5 -231.5t-268.5 -148.5t-562 -75l-322 -19l8 103l86 8q404 33 602 105.5t198 187.5q0 27 -30.5 45.5t-76.5 18.5q-88 0 -166 -26q18 -74 18 -85q0 -21 -8.5 -37t-25.5 -16q-35 0 -75.5 9t-82.5 9
q-49 0 -219 -29l-7 32l22 19l-81 -8l-3 34l65 27l-70 1v30l44 14l-44 -3v14q-40 -6 -227 -11q-95 0 -292 59l-5 -38l15 -64l4 -29q0 -21 -8.5 -37t-25.5 -16q-35 0 -75.5 9t-82.5 9q-49 0 -219 -29l-7 32l22 19l-81 -8l-3 34l65 17l-70 6v30l65 12l-54 13l2 33l229 13l-4 50
l1 21q-323 170 -419 218l-238 115l-60 28q-45 21 -45 79q0 27 12 48l-5 3q14 33 49 65t51 32q8 0 20.5 -3t171.5 -59q25 -4 53 -4h18l160 13l32 1q69 0 104 -15t114 -66q121 -78 264 -108.5t318 -30.5zM1828 529q-68 0 -159.5 -3.5t-206.5 -3.5q-156 0 -281.5 21.5
t-208.5 61t-189 109.5q-25 15 -48.5 21t-70.5 6h-32l-186 -13q-28 0 -56 4l-109 39q-65 23 -74 23q-12 0 -31 -17.5t-27 -36.5l20 -16l22 -35l33 10l24 -37l47 11l32 -45l55 15l23 -44q13 0 27.5 4.5t25.5 4.5l22 -43l35 2l175 -98l-8 -13l-172 75l-50 -4l-23 45
q-13 0 -28 -4.5t-26 -4.5l-20 38l-48 -13l-36 49l-52 -11l-19 32l-35 -11l-26 45h-5l-1 -11q0 -30 20 -38l181 -85q53 -24 210.5 -104.5t313.5 -163.5q5 37 16 74l38 -10q-18 -66 -18 -128q0 -43 9 -94l-182 -8l13 -14l-26 -14l29 -13l-21 -25h32l1 -33q108 18 159 18
q11 0 129 -19q22 0 22 21l-18 87q5 41 15 92t39 114l36 -16q-29 -61 -39 -115q187 -57 261 -57q145 0 318 20q34 4 75 4l101 -5l-2 24q0 45 15.5 88t41.5 71l27 -25q-41 -54 -45 -114v-17q0 -12 9 -63l-130 9q-48 0 -82 -12l39 -14l-22 -23l29 -13l-21 -35h32l1 -33
q108 18 159 18q11 0 129 -19q22 0 22 21l-18 87q4 112 69 184l35 -15q-48 -53 -61 -136q69 24 164 24q60 0 103.5 -29.5t43.5 -74.5q0 -83 -83.5 -148t-251 -110t-477.5 -71l-80 -8l-3 -29q378 23 571.5 47t325 72t197 128t65.5 189t-96 195t-273.5 139t-459.5 53zM588 671
q26 30 64 30q35 0 55 -25.5t20 -72.5l-21 -1l-6 22q-9 -14 -32 -14q-43 2 -43 47l-9 -8zM174 741q19 28 50 28q28 0 48 -20l-26 -26q-10 10 -22 10t-20 -12zM666 643q11 0 14 9q-9 13 -28 13h-3q3 -22 17 -22z" />
  </g>

</svg>
