<?xml version="1.0" standalone="no"?>
<!DOCTYPE svg PUBLIC "-//W3C//DTD SVG 1.1//EN" "http://www.w3.org/Graphics/SVG/1.1/DTD/svg11.dtd" >
<svg xmlns="http://www.w3.org/2000/svg" xmlns:xlink="http://www.w3.org/1999/xlink" version="1.1" viewBox="-10 0 1589 2048">
  <g transform="matrix(1 0 0 -1 0 1638)">
   <path fill="currentColor"
d="M1036 1404l148 16v-13q0 -60 -44.5 -114.5t-123.5 -94.5q90 -105 167 -258l296 -590q-117 -41 -234.5 -131t-244.5 -232l-136 -150q-42 477 -56 549q-19 105 -43 176.5t-58 138.5q-41 -18 -88 -22h-63q-104 -70 -157 -105.5t-77 -35.5q-23 0 -94.5 28.5t-99.5 61.5
t-28 79q0 20 75.5 138.5t146.5 219.5q64 165 167 239q-54 49 -77 93.5t-35.5 108t-12.5 156.5q0 84 -8 134t-24.5 80.5t-40.5 49t-55 39.5v56q135 -20 191.5 -91.5t62.5 -231.5q0 -66 14.5 -146.5t41 -115t77.5 -73.5q40 7 76 7q47 0 106 -18q68 48 91.5 78t42.5 106.5
t24 144.5q14 155 75.5 224.5t198.5 81.5l-4 -56q-33 -19 -58 -36t-43 -46t-29.5 -78.5t-16.5 -133.5q-11 -150 -50 -233zM822 1258l29 30q-74 42 -152 42q-234 0 -339 -279q-108 -155 -164 -242.5t-56 -101.5q0 -33 19.5 -55t70.5 -44q61 13 96 41l24 -32q-24 -19 -59 -32
q21 -7 31 -7q12 0 40 18l182 123h71q41 5 88 26t79 49l28 -30q-28 -24 -66 -46q38 -74 62.5 -152t41.5 -173t49 -461q175 199 299.5 300.5t226.5 140.5l-275 548q-80 158 -169 260q-42 -18 -88 -30l-10 38q97 26 169 78.5t88 108.5l-165 -19l-123 -127zM524 1327l51 23
q-58 50 -76 82q-18 31 -30 92t-19 172q-5 128 -52 203.5t-126 81.5q32 -21 56.5 -40t41.5 -51t25.5 -85t8.5 -143q0 -87 12 -146t32 -98.5t76 -90.5zM849 1333l30 -17l76 79l31 3q49 80 60 241q6 90 18 142.5t31 83t44.5 48t58.5 36.5q-78 -2 -129 -71.5t-66 -201.5
q-13 -105 -30.5 -169t-37.5 -94t-86 -80zM641 1050q53 0 53 -39h-17q-14 -28 -53 -28l-18 4q-12 -9 -12 -19h-32q2 35 21.5 58.5t57.5 23.5zM195 653q0 16 19 40t41 24q42 0 56 -39l-38 -12q-5 11 -18 11q-9 0 -14.5 -10t-5.5 -14h-40z" />
  </g>

</svg>
