<?xml version="1.0" standalone="no"?>
<!DOCTYPE svg PUBLIC "-//W3C//DTD SVG 1.1//EN" "http://www.w3.org/Graphics/SVG/1.1/DTD/svg11.dtd" >
<svg xmlns="http://www.w3.org/2000/svg" xmlns:xlink="http://www.w3.org/1999/xlink" version="1.1" viewBox="-10 0 1492 2048">
  <g transform="matrix(1 0 0 -1 0 1638)">
   <path fill="currentColor"
d="M473 1971q204 -239 208 -241l1 -1l-20 321h162l-20 -315l201 236l117 -113l-241 -218h38q113 0 225.5 -57t175 -148t62.5 -199q0 -88 -79 -88q-12 0 -22 5q15 -55 64 -135q35 -58 35 -76q0 -30 -18.5 -52.5t-58.5 -22.5q-12 0 -21 4q15 -55 63 -133q35 -58 35 -76
q0 -29 -16 -50.5t-51 -24.5q26 -156 26 -276q0 -88 -17.5 -181.5t-45 -140.5t-62.5 -47t-62.5 47t-45 141t-17.5 181q0 114 27 276q-35 3 -51.5 24.5t-16.5 50.5q0 15 10.5 34t25.5 45q48 78 63 130q-9 -4 -22 -4q-40 0 -58.5 22.5t-18.5 52.5q0 15 10.5 34t25.5 45
q48 77 64 132q-10 -5 -23 -5q-37 0 -57 19t-20 48q0 17 6 30q21 44 21 65q0 80 -60.5 134t-155.5 57q-20 -27 -50 -44q3 -49 23 -86.5t39 -67.5q36 -58 36 -80q0 -30 -18.5 -52.5t-58.5 -22.5q-13 0 -23 5q16 -55 64 -132q15 -26 25.5 -45t10.5 -34q0 -30 -18.5 -52.5
t-58.5 -22.5q-13 0 -22 4q15 -52 63 -130q15 -26 25.5 -45t10.5 -34q0 -29 -16.5 -50.5t-51.5 -24.5q27 -162 27 -276q0 -88 -17.5 -181.5t-45 -140.5t-62.5 -47t-62.5 47t-45 141t-17.5 181q0 120 26 276q-35 3 -51 24.5t-16 50.5q0 18 35 76q48 78 63 133q-9 -4 -21 -4
q-40 0 -58.5 22.5t-18.5 52.5q0 18 35 76q49 80 64 135q-10 -5 -22 -5q-40 0 -58.5 22.5t-18.5 52.5q0 22 36 80q19 29 38 66.5t23 85.5q-31 15 -54 45q-95 -5 -153 -58.5t-58 -131.5q0 -21 21 -65q6 -13 6 -30q0 -29 -20 -48t-57 -19q-13 0 -23 5q16 -55 64 -132
q15 -26 25.5 -45t10.5 -34q0 -30 -18.5 -52.5t-58.5 -22.5q-13 0 -22 4q15 -52 63 -130q15 -26 25.5 -45t10.5 -34q0 -29 -16.5 -50.5t-51.5 -24.5q27 -162 27 -276q0 -88 -17.5 -181.5t-45 -140.5t-62.5 -47t-62.5 47t-45 141t-17.5 181q0 120 26 276q-35 3 -51 24.5
t-16 50.5q0 18 35 76q48 78 63 133q-9 -4 -21 -4q-40 0 -58.5 22.5t-18.5 52.5q0 18 35 76q49 80 64 135q-10 -5 -22 -5q-79 0 -79 88q0 107 62 197.5t174 148.5t227 58h33l-240 218zM741 649q-31 -37 -55 -51q-9 -43 -19.5 -133.5t-10.5 -153.5q0 -120 23.5 -224.5
t61.5 -104.5t61.5 104t23.5 225q0 107 -30 287q-29 17 -55 51zM268 649q-31 -37 -55 -51q-9 -43 -19.5 -133.5t-10.5 -153.5q0 -120 23.5 -224.5t61.5 -104.5t61.5 104t23.5 225q0 107 -30 287q-29 17 -55 51zM1214 649q-26 -34 -55 -51q-30 -180 -30 -287
q0 -120 23.5 -224.5t61.5 -104.5t61.5 104t23.5 225q0 62 -10.5 151.5t-19.5 135.5q-24 14 -55 51zM888 1600v-4l1 -6q0 -28 -11 -55q65 -2 120 -34.5t86 -85t31 -105.5q0 -36 -23 -76q-4 -7 -4 -15q0 -31 37 -31q22 0 72 68h34q18 -29 38.5 -48.5t33.5 -19.5q39 0 39 49
q0 96 -56.5 178.5t-158.5 133.5t-208 51h-31zM589 1600h-26q-107 0 -209.5 -51.5t-158 -134t-55.5 -177.5q0 -49 39 -49q22 0 72 68h34q18 -29 38.5 -48.5t33.5 -19.5q37 0 37 31q0 8 -4 15q-23 40 -23 76q0 53 29.5 103.5t83 83.5t119.5 37q-10 24 -10 56v10zM629 1590
q0 -46 32 -78t78 -32t78 32t32 78t-32 78t-78 32t-78 -32t-32 -78zM1231 975q18 -29 38.5 -48.5t33.5 -19.5q19 0 28 10.5t9 24.5q0 7 -9 22q-91 146 -100 227l-17 20l-17 -20q-11 -80 -79 -190q-30 -50 -30 -59q0 -14 9 -24.5t28 -10.5q22 0 72 68h34zM285 975
q18 -29 38.5 -48.5t33.5 -19.5q19 0 28 10.5t9 24.5q0 9 -30 59q-68 110 -79 190l-17 20l-17 -20q-9 -81 -100 -227q-9 -15 -9 -22q0 -14 9 -24.5t28 -10.5q22 0 72 68h34zM758 975q18 -29 38.5 -48.5t33.5 -19.5q19 0 28 10.5t9 24.5q0 9 -30 59q-68 110 -79 190l-17 20
l-17 -20q-9 -81 -100 -227q-9 -15 -9 -22q0 -14 9 -24.5t28 -10.5q22 0 72 68h34zM285 695q18 -29 38.5 -48.5t33.5 -19.5q19 0 28 10.5t9 24.5q0 9 -30 59q-68 110 -79 189l-17 19l-17 -19q-13 -86 -100 -226q-9 -15 -9 -22q0 -14 9 -24.5t28 -10.5q22 0 72 68h34zM758 695
q18 -29 38.5 -48.5t33.5 -19.5q19 0 28 10.5t9 24.5q0 9 -30 59q-68 110 -79 189l-17 19l-17 -19q-13 -86 -100 -226q-9 -15 -9 -22q0 -14 9 -24.5t28 -10.5q22 0 72 68h34zM1231 695q18 -29 38.5 -48.5t33.5 -19.5q19 0 28 10.5t9 24.5q0 7 -9 22q-87 140 -100 226l-17 19
l-17 -19q-11 -79 -79 -189q-30 -50 -30 -59q0 -14 9 -24.5t28 -10.5q22 0 72 68h34zM758 1256q18 -29 38.5 -48.5t33.5 -19.5q19 0 28 10.5t9 24.5q0 8 -30 58q-20 32 -40.5 70.5t-26.5 80.5h-58q-6 -41 -27 -80t-40 -71q-30 -50 -30 -58q0 -14 9 -24.5t28 -10.5q22 0 72 68
h34zM613 1672q14 22 36 38l-179 203l-56 -55zM829 1710q22 -17 35 -39l200 187l-56 55zM717 1738l22 2l30 -3l13 273h-78z" />
  </g>

</svg>
