<?xml version="1.0" standalone="no"?>
<!DOCTYPE svg PUBLIC "-//W3C//DTD SVG 1.1//EN" "http://www.w3.org/Graphics/SVG/1.1/DTD/svg11.dtd" >
<svg xmlns="http://www.w3.org/2000/svg" xmlns:xlink="http://www.w3.org/1999/xlink" version="1.1" viewBox="-10 0 2791 2048">
  <g transform="matrix(1 0 0 -1 0 1638)">
   <path fill="currentColor"
d="M2413 640q75 -31 166 -81.5t102 -70.5l-7 -33q-47 -25 -96 -40.5t-81 -15.5q-86 0 -170 21.5t-166 48.5q-93 -29 -291.5 -64t-306.5 -42q26 -49 26 -67q0 -25 -56 -228l51 -167l-36 -13l-29 40l-66 -34q-38 -20 -61 -20q-72 0 -138 15q-67 15 -105 15q-19 0 -46 -9
t-44 -20h-58l8 24q-39 -25 -76 -25q-73 0 -131 15q-59 15 -97 15q-19 0 -46 -9t-44 -20h-58l19 46q23 43 50.5 59.5t95 27.5t114.5 11q131 4 168 111q38 99 60.5 158t35.5 77l-18 80l-42 11q-139 31 -315.5 153.5t-278.5 259t-102 251.5q0 58 24.5 122.5t99.5 176.5
q59 87 78 131.5t19 79.5q0 42 -50.5 68.5t-137.5 28.5l-277 2q4 33 22 59t41.5 36t181.5 46q113 113 223 113q68 0 121 -44t83.5 -119.5t30.5 -148.5q0 -153 -72 -355q-16 -46 -16 -57q0 -18 18 -31t50 -13l70 3q247 13 398 13q130 0 355.5 -79.5t444.5 -199.5
q190 -103 256 -124q99 -25 185 -56t123 -54l-15 -47zM2640 481q-23 23 -120.5 70.5t-184.5 76.5l-79 -12q-248 -41 -438.5 -58.5t-268.5 -17.5q-90 0 -206 34.5t-259 106t-276.5 160.5t-157.5 120l32 24q20 -28 154 -117t259.5 -151.5t243 -99.5t210.5 -37q66 0 224 13.5
t282 31.5l510 75q-37 20 -114.5 45.5t-153.5 44.5q-65 16 -264 126q-204 112 -426 193.5t-356 81.5q-149 0 -396 -13l-72 -3q-50 0 -80 21.5t-30 62.5q0 14 20 71q70 196 70 341q0 63 -28 131t-71.5 104.5t-95.5 36.5q-49 0 -98.5 -23.5t-86.5 -61.5l20 -91q89 -4 145.5 -41
t56.5 -96q0 -37 -21.5 -90t-81.5 -143q-59 -91 -77.5 -128t-29.5 -74.5t-11 -74.5q0 -109 99 -239.5t267.5 -244t297.5 -140.5q126 -28 274 -80l56 -19q23 -9 43 -36.5t34 -64.5t14 -50v-7l-11 -95v-23l3 -71q-28 -34 -79 -50t-103 -18q-43 0 -113.5 -14t-88 -30.5
t-26.5 -35.5l15 9q46 28 92 28l45 -2q55 32 151 32h20v-26l-21 1q-41 0 -86 -16q70 -14 125 -14q18 0 56.5 18t71.5 40l-29 94q58 218 58 230q0 13 -58 107h11q83 0 310.5 36.5t346.5 71.5l39 -12q180 -60 299 -60q35 0 80 13t63 26v3zM1097 -8q61 19 183 27q100 7 140 45
l-2 64v16l11 95v4q0 21 -20.5 64.5t-44.5 51.5l-100 33l-32 -120q-65 -70 -100 -144.5t-35 -135.5zM607 -98l15 9q46 28 92 28l45 -2q55 32 151 32h20v-26l-21 1q-41 0 -86 -16q30 -5 55 -9.5t64 -4.5q42 0 114 65q6 81 36 149t104 164l30 112l-100 30l16 -76
q-40 -67 -85 -200q-25 -75 -54 -109.5t-71 -51.5t-96 -18q-29 0 -78.5 -7t-82 -15.5t-47.5 -24.5t-21 -30zM347 1821l-72 -12l-89 -17q-25 -10 -31 -29l205 1zM492 1839q0 14 10.5 24.5t24.5 10.5t24.5 -10.5t10.5 -24.5t-10.5 -24.5t-24.5 -10.5t-24.5 10.5t-10.5 24.5z
" />
  </g>

</svg>
