<?xml version="1.0" standalone="no"?>
<!DOCTYPE svg PUBLIC "-//W3C//DTD SVG 1.1//EN" "http://www.w3.org/Graphics/SVG/1.1/DTD/svg11.dtd" >
<svg xmlns="http://www.w3.org/2000/svg" xmlns:xlink="http://www.w3.org/1999/xlink" version="1.1" viewBox="-10 0 1662 2048">
  <g transform="matrix(1 0 0 -1 0 1638)">
   <path fill="currentColor"
d="M826 102q-49 0 -93 129.5t-44 262.5q0 134 75 269l-3 3q-135 -75 -269 -75q-142 0 -267 42.5t-125 94.5q0 31 57 62t152 53t183 22q126 0 268 -75l4 3q-75 135 -75 269q0 131 44 261.5t93 130.5q32 0 63.5 -54.5t52.5 -148.5t21 -189q0 -63 -20 -134.5t-54 -133.5l4 -3
q62 35 133.5 54.5t133.5 19.5q89 0 184 -22t151.5 -53.5t56.5 -61.5q0 -52 -124.5 -94.5t-267.5 -42.5q-63 0 -134.5 20t-133.5 54l-4 -4q75 -135 75 -267q0 -93 -20.5 -187.5t-52.5 -149.5t-64 -55zM736 828q0 16 4 28q-128 69 -248 69q-103 0 -224.5 -35t-121.5 -62
t122 -62t224 -35q60 0 136.5 23.5t111.5 45.5q-4 12 -4 28zM826 1508q-27 0 -62 -122t-35 -224q0 -61 19 -130.5t49 -117.5l30 5q16 0 27 -4q4 9 15.5 33.5t23.5 58.5t21 74t9 81q0 103 -35 224.5t-62 121.5zM826 148q27 0 62 122t35 224q0 109 -69 247q-11 -4 -27 -4l-30 5
q-30 -48 -49 -118t-19 -130q0 -103 35 -224.5t62 -121.5zM1506 828q0 27 -122 62t-224 35q-66 0 -134 -20t-113 -48q5 -15 5 -29t-5 -29q45 -25 118.5 -46.5t128.5 -21.5q103 0 224.5 35t121.5 62zM776 828q0 -21 15 -36t36 -15t36 15t15 36t-15 36t-36 15t-36 -15t-15 -36z
" />
  </g>

</svg>
