<?xml version="1.0" standalone="no"?>
<!DOCTYPE svg PUBLIC "-//W3C//DTD SVG 1.1//EN" "http://www.w3.org/Graphics/SVG/1.1/DTD/svg11.dtd" >
<svg xmlns="http://www.w3.org/2000/svg" xmlns:xlink="http://www.w3.org/1999/xlink" version="1.1" viewBox="-10 0 2384 2048">
  <g transform="matrix(1 0 0 -1 0 1638)">
   <path fill="currentColor"
d="M1753 709q-41 0 -142 -82q-124 -102 -189.5 -136t-110.5 -34q-35 0 -161 41q-133 46 -186 46q-45 0 -105.5 -13t-171.5 -49q-70 -24 -200 -46t-191 -22q-42 0 -70.5 6t-34.5 13q-43 38 -67 106.5t-24 157.5t22 177.5t53 135.5q81 22 214 22q119 0 210 -7.5t161.5 -21.5
t126.5 -34t106 -47t165 -107q83 -60 124.5 -83.5t64.5 -23.5q13 0 48 21l80 48q122 74 177 97.5t87 23.5q88 0 209 -149l53 -63l102 -109q37 -41 171 -167l-152 -63l-21 6l-47 78l-41 10q-90 114 -163 191t-97 77zM1753 749q31 0 103.5 -72.5t151.5 -175.5l24 -31l49 -12
l63 27q-29 24 -170 176l-51 58q-123 139 -184 139q-29 0 -81 -23.5t-161 -91.5q-50 -31 -89 -53t-61 -22q-27 0 -69.5 22.5t-142.5 92.5q-119 82 -165.5 107t-100 43.5t-123 31.5t-158 20t-199.5 7q-128 0 -182 -16q37 -54 70 -131t35 -121q-5 -40 -28 -114.5t-57 -151.5
q14 -4 69 -4q63 0 186 21.5t193 44.5q187 64 289 64q54 0 198 -48q120 -39 149 -39q77 0 279 163q110 89 163 89zM140 697q0 -135 57 -212q22 46 46.5 126.5t28.5 121.5q-2 27 -28.5 88.5t-60.5 114.5q-43 -106 -43 -239zM2160 395l-32 41l-28 -11l29 -43zM2218 419l-37 38
l-24 -10l32 -40z" />
  </g>

</svg>
