<?xml version="1.0" standalone="no"?>
<!DOCTYPE svg PUBLIC "-//W3C//DTD SVG 1.1//EN" "http://www.w3.org/Graphics/SVG/1.1/DTD/svg11.dtd" >
<svg xmlns="http://www.w3.org/2000/svg" xmlns:xlink="http://www.w3.org/1999/xlink" version="1.1" viewBox="-10 0 3087 2048">
  <g transform="matrix(1 0 0 -1 0 1638)">
   <path fill="currentColor"
d="M148 785q22 0 41 -18l194 -188l195 188q19 18 41 18q18 0 31.5 -13.5t13.5 -32.5t-13 -32l-156 -150q96 -35 167 -124l72 -97q61 -85 127 -85q51 0 121.5 21t164.5 52q189 63 297 63q65 0 141 -18.5t235 -84.5q191 -83 348 -117t307 -34q136 0 220.5 6t231.5 27l9 1
q17 0 29 -12t12 -30q0 -32 -31 -47q-205 -101 -483 -101q-168 0 -510 38q-274 29 -351 29q-125 0 -337 -34q-203 -33 -332 -33q-117 0 -179.5 23.5t-122.5 97.5l-104 127q-40 49 -66 49l-41 -7q-56 -14 -105 -14q-91 0 -153 37t-62 97q0 46 46 95t125 76l-155 149
q-14 12 -14 31q0 20 14 33.5t32 13.5zM387 536q-65 0 -123 -22.5t-91 -58t-33 -68.5q0 -42 49.5 -68t125.5 -26q44 0 95 12q32 9 51 9q22 0 45 -14.5t70 -71.5l85 -104q51 -62 113.5 -84.5t158.5 -22.5q118 0 326 33q220 34 343 34q83 0 355 -29q331 -38 506 -38
q96 0 193 16.5t184 45.5t87 40v1q-2 4 -11 4l-11 -1q-110 -19 -206 -24.5t-224 -5.5q-318 0 -671 155q-144 60 -221 79.5t-139 19.5q-102 0 -285 -61q-94 -31 -167.5 -53t-130.5 -22q-40 0 -76 20t-83 81l-72 97q-41 56 -107.5 91.5t-135.5 35.5zM452 569l160 152
q14 14 14 20q0 7 -8 7q-7 0 -18 -11l-169 -164zM141 741q0 -6 14 -20l159 -152l21 3l-168 165q-11 11 -18 11q-8 0 -8 -7zM332 466q0 14 10 24t24 10t24 -10t10 -24t-10 -24t-24 -10t-24 10t-10 24z" />
  </g>

</svg>
