<?xml version="1.0" standalone="no"?>
<!DOCTYPE svg PUBLIC "-//W3C//DTD SVG 1.1//EN" "http://www.w3.org/Graphics/SVG/1.1/DTD/svg11.dtd" >
<svg xmlns="http://www.w3.org/2000/svg" xmlns:xlink="http://www.w3.org/1999/xlink" version="1.1" viewBox="-10 0 3088 2048">
  <g transform="matrix(1 0 0 -1 0 1638)">
   <path fill="currentColor"
d="M819 655l144 6l-152 196l-81 5q-29 0 -75 -11q-84 -18 -147 -18q-80 0 -185.5 31t-164 77t-58.5 97q0 77 85 119.5t225 42.5q59 0 148 -28h-1q73 -21 107 -21q47 0 97 10t88 17l103 107l108 114l-100 96l-10 -46q-9 -41 -36 -49q-21 -42 -35 -42q-13 0 -13 38v17
q-8 9 -8 22l3 27l12 33l-23 -13q-20 -13 -38 -13q-14 0 -24 5l-35 -5q-23 0 -27 5v2q0 7 12 20.5t26 23.5q0 29 74 52l-58 18q-28 8 -38 32q-43 28 -43 36l1 3q2 12 42 12h17q13 11 31 11q14 0 31 -6l64 -23q-9 45 -9 53q0 35 16 48q2 15 9 33.5t15 18.5q13 0 28 -53
q24 -14 24 -51l-1 -37l12 17q18 26 41 26h3q8 8 23 17.5t22 9.5q9 0 9 -12q0 -18 -15 -48l2 -14q0 -21 -20 -45l-21 -23q107 -50 153 -85.5t67 -65.5t21 -61q0 -17 -7.5 -33.5t-41.5 -56.5t-66 -69q116 15 204 15q227 0 414 -37q-52 83 -52 151q0 72 21 103t60 31
q60 0 326 -72l75 -27l-40 26q-34 22 -34 49q-29 29 -29 46q0 9 14 9q20 0 43 -13l14 2q18 0 35 -14l27 -22l-9 45q0 28 17 43q0 15 6 36t15 21q13 0 30 -50q26 -10 26 -68v-9l-1 -10l35 48q17 23 44 25q33 29 45 29q9 0 9 -13q0 -11 -5.5 -24t-8.5 -23l3 -18q0 -13 -6.5 -25
t-53.5 -71q43 -3 64.5 -11.5t27.5 -28.5q42 -21 42 -37q0 -12 -38 -12h-10l-11 1q-11 -10 -33 -10q-15 0 -28 6l-29 12q10 -17 17 -29.5t7 -26.5l-2 -14q11 -29 11 -42q0 -14 -8 -14q-15 0 -47 32q-22 0 -50 26q-11 11 -35 19q-36 -5 -82 -38l-16 -7q-22 0 -69 10t-90 23
q21 -30 36.5 -63t21.5 -83q212 -86 367.5 -234t242.5 -355q96 -255 175 -714q32 -190 141 -416l-58 -37q-55 52 -136 183.5t-128 258.5q-20 55 -59 215q-77 302 -192 478q-65 87 -177 178t-222 138q-13 -35 -131 -142q139 -17 192 -76l24 18q16 12 31 12l22 -4q35 14 48 14
q12 0 12 -9q0 -12 -28 -44q0 -19 -13 -30.5t-32 -26.5l37 1q34 0 51 -25q52 -14 52 -29q0 -7 -15.5 -13.5t-37.5 -8.5q-12 -16 -36 -16q-25 0 -64 10l21 -64q5 -17 5 -29q0 -20 -12 -33v-14q0 -45 -15 -45q-11 0 -35 44q-21 9 -31 38l-15 46l-2 12q-8 -28 -22 -50.5
t-31 -22.5q-31 -37 -44 -37q-9 0 -9 19q0 14 7 42q-5 12 -5 22q0 22 14 40l14 24l-33 -12l-21 -3q-17 0 -29 9l-8 -1h-8q-38 0 -38 14q0 15 43 36q7 23 49 34l46 10q-184 6 -280 40.5t-96 92.5q0 23 42 68t114 99q-145 -32 -203 -39t-136 -7q-39 0 -123.5 7.5t-172.5 20.5
q28 -36 57 -99.5t29 -105.5q0 -54 -41.5 -77.5t-137.5 -23.5q-37 0 -205 36l3 -40q0 -34 -22 -49q-11 -39 -16.5 -46t-9.5 -7q-7 0 -14.5 15.5t-10.5 35.5q-18 13 -18 47v11l1 11l-19 -26q-22 -30 -49 -30h-5q-31 -26 -48 -26l-6 2q-3 2 -3 9q1 15 16 46l-1 8q0 15 11.5 32
t45.5 44l-64 22q-39 11 -46 42q-40 26 -40 42l1 3q2 7 23 7l34 -3q11 7 27 7q24 0 79 -25l-23 37q-8 20 -8 33q0 9 5 16l-6 36q0 20 5 23h2q13 0 35 -25l11 -12q31 -7 44 -44l10 -26q16 65 45 70q25 38 39 38q10 0 10 -25l-3 -33q8 -11 8 -27q-1 -16 -10 -33zM140 1038
q0 -41 53 -78t148.5 -62t166.5 -25q58 0 139 18q44 11 83 11q93 0 207 -25q47 -11 211.5 -34.5t251.5 -23.5q139 0 306 39q118 27 172 27q123 0 293.5 -116t265.5 -246q61 -86 105.5 -190.5t92.5 -301.5l26 -105q32 -130 109.5 -276t151.5 -237l6 4l-32 74q-71 161 -99 320
q-66 367 -132 586t-182 364.5t-275.5 240.5t-376.5 146t-478 51q-160 0 -507 -62q-140 -26 -182 -26q-39 0 -118 23q-83 26 -136 26q-119 0 -194.5 -31.5t-75.5 -90.5zM2010 1136q-10 35 -30 69.5t-63 94.5l20 28q35 -16 109 -36t98 -20q74 42 116 42q24 0 51 -34
q9 -8 13.5 -13t12.5 -5q14 0 14 12q0 16 -23 39l-35 36q18 10 23 24l81 -30l20 -4q20 0 20 12t-13 15l-96 18l2 11l-2 10l64 74q12 17 12 25q0 17 -14 17q-11 0 -21.5 -11t-59.5 -85q-4 5 -15 10t-18 5l3 67v5q0 29 -16 29q-13 0 -13 -23v-4l13 -74q-13 -5 -30 -22
q-56 59 -63 59h-7q-10 0 -10 -12q0 -5 3.5 -9.5t68.5 -48.5q-5 -13 -5 -29l2 -22q-249 56 -332 73.5t-94 17.5q-41 0 -41 -94q0 -34 20.5 -81t51.5 -82q107 -26 183 -54zM1968 829q-48 16 -90 16l-36 -2q-73 -42 -146 -101.5t-73 -83.5q0 -33 66 -58t190 -39l115 -14
q-15 -27 -15 -48q-69 -16 -78.5 -21t-9.5 -13q0 -13 12 -13q13 0 80 32q7 -20 21 -30l-35 -57q-8 -14 -8 -24q0 -5 4 -10t10 -5q8 0 13 12.5t28 78.5l9 -1q20 0 26 3l16 -61q7 -24 13 -40.5t20 -16.5t14 20l-4 19l-35 92l8 19q75 -16 96 -16q17 0 18 11q0 20 -34 20h-87
q0 16 -13 31l45 22q36 19 36 31q0 14 -18 14q-10 0 -22 -9l-44 -35q-8 14 -24 19q-55 58 -238 58l-48 -1q88 67 148 122t70 79zM814 615q-15 31 -28 40l26 55q6 12 6 23q0 10 -10 13l-4 1q-8 0 -13.5 -12t-18.5 -76l-20 3l-17 -1l-23 61q-11 25 -23 25l-8 -2q-7 -2 -7 -8
l4 -18q9 -16 17 -22l29 -43q-9 -4 -19 -29q-95 39 -108 39q-11 0 -16 -10l-1 -5q0 -17 26 -24l95 -27q8 -15 11 -18l-59 -53q-17 -15 -17 -27q0 -11 13 -11t26 18l52 70q6 -9 27 -9h6q-12 -64 -12 -75q0 -23 13 -23q18 0 18 29l-5 70q21 0 30 9q141 -37 207 -37t102.5 12
t36.5 49q0 39 -32.5 103.5t-58.5 92.5q-34 20 -188 46l157 -202l-9 -20zM925 1198l136 18q23 4 56.5 32.5t95.5 104.5q12 15 12 30q0 20 -22.5 46t-62 56.5t-145.5 78.5q-1 11 -17 26l42 48q13 14 13 26q0 8 -6 13l-6 2q-15 0 -55 -80q-14 14 -32 14l3 91q0 29 -18 29
q-13 0 -13 -23l15 -90l-20 -8l-91 37l-17 4q-20 0 -20 -16q0 -10 16.5 -19t38.5 -13l60 -16l-4 -30v-5l-75 -24q-16 -9 -16 -15q0 -5 5 -10.5t11 -5.5t14.5 3t66.5 39q16 -16 29 -20q-20 -43 -30 -68l-1 -16q0 -8 12 -8q14 0 20 26l13 60q22 0 47 14l127 -125l-4 -22z
M530 1025q0 5 8 5q19 0 63 6q89 -19 200 -19q62 0 188 16q75 8 162.5 17t191.5 9h29l30 -1q49 -2 118 -5t151 -12.5t173.5 -29.5t184 -55t182.5 -87.5t170 -129t146 -178.5t111 -236q8 -26 8 -58q0 -10 -7 -10q-4 0 -8 6q-25 32 -31 49q-44 132 -110.5 233t-147 176
t-176.5 128t-197.5 87t-234.5 55.5t-334 26.5l-29 1h-28q-116 0 -350 -26q-123 -16 -192 -16q-73 0 -172 13t-99 35zM203 1073l-4 1l-1 1q0 3 18 18.5t21 13.5q59 14 140 14q73 0 121 -10l24 -15q4 -2 4 -6q-1 -8 -37 -17q-44 8 -112 8q-74 0 -127 -12l-32 5zM202 1006
q0 5 3 5l3 -1q16 -7 33 -7h7q87 -37 199 -37q21 -6 36 -6h27h2q7 0 7 -8q0 -6 -26.5 -16t-45.5 -10q-121 0 -220 43l-24 32z" />
  </g>

</svg>
