<?xml version="1.0" standalone="no"?>
<!DOCTYPE svg PUBLIC "-//W3C//DTD SVG 1.1//EN" "http://www.w3.org/Graphics/SVG/1.1/DTD/svg11.dtd" >
<svg xmlns="http://www.w3.org/2000/svg" xmlns:xlink="http://www.w3.org/1999/xlink" version="1.1" viewBox="-10 0 1948 2048">
  <g transform="matrix(1 0 0 -1 0 1638)">
   <path fill="currentColor"
d="M924 446q0 -27 20 -33l98 -32l5 -72l-76 5l-119 6l-138 -6l-81 -5l1 9l-33 2h-28l-142 -6l-84 -5l16 73l126 25q61 11 95.5 56t106.5 152v55q-121 79 -209 183.5t-121 216.5q-23 82 -56.5 183.5t-48.5 133.5l-156 58l139 88q76 91 202 91q82 0 162 -65.5t137 -163.5
q91 -27 138 -71l143 -139q123 -122 238.5 -204.5t232.5 -129.5q25 -10 25 -25q0 -13 -15.5 -24.5t-32.5 -15.5q64 -36 181.5 -80.5t187.5 -60.5v-49q-76 -19 -138 -19q-78 0 -191.5 28t-186.5 62q-56 -24 -164 -54t-175 -37l-55 -111zM946 595l-41 64l35 18l38 -61
q69 9 176.5 39.5t167.5 54.5q63 -31 183 -62t195 -31q69 0 94 6q-101 29 -202 68.5t-160 72.5q-115 -21 -192 -21q-227 0 -355 32.5t-229 103.5t-178 193l35 25q74 -117 169 -184.5t216 -98.5t342 -31q58 0 136 12t78 25q0 7 -38 24q-105 44 -194.5 109t-208.5 182l-165 163
q-37 37 -129 60q-59 104 -132 165.5t-146 61.5q-94 0 -160 -66q14 -21 14 -61q0 -27 -5 -44q26 -39 81 -236l28 -98q32 -98 110.5 -193.5t185 -171t210.5 -111.5l1 -41l-46 -107q-28 -66 -73 -75l-114 -23l-3 -15l68 7l114 7q43 0 155 -14l-1 12l-71 25q-53 12 -53 58
q0 18 10 40zM799 609q-2 -9 -42 -68l-74 -112l-5 -11q0 -9 40 -23l45 14q40 10 60 60l44 99l-2 13q-9 3 -66 35v-7zM730 609q-3 -12 -39 -61l-61 -85q-21 -30 -51 -53.5t-56 -28.5l-129 -23l-3 -15l68 7l114 7l68 -4l7 28q-19 7 -19 23q0 15 32 60q77 109 98 151v19l-29 16
v-41zM363 1478q0 11 7 18t18 7t18.5 -7t7.5 -18t-7.5 -18.5t-18.5 -7.5t-18 7.5t-7 18.5zM261 1468l-7 30l-74 -30h81zM256 1423l4 18h-77z" />
  </g>

</svg>
