<?xml version="1.0" standalone="no"?>
<!DOCTYPE svg PUBLIC "-//W3C//DTD SVG 1.1//EN" "http://www.w3.org/Graphics/SVG/1.1/DTD/svg11.dtd" >
<svg xmlns="http://www.w3.org/2000/svg" xmlns:xlink="http://www.w3.org/1999/xlink" version="1.1" viewBox="-10 0 726 2048">
  <g transform="matrix(1 0 0 -1 0 1638)">
   <path fill="currentColor"
d="M552 -196q-34 0 -63.5 22.5t-70.5 91.5q-43 73 -91 146l-100 151q-58 85 -91.5 165t-33.5 135q0 54 17.5 107t34.5 97q30 79 30 93q0 15 -26 69q-19 41 -38.5 92t-19.5 103q0 48 17 90.5t35 80.5q32 64 32 89q0 20 -37 115q-17 42 -32 85t-15 79q0 82 43.5 147t113.5 85
v200h124v-202q68 -22 114 -85t46 -143q0 -46 -14.5 -87.5t-30.5 -77.5q-26 -57 -26 -81q0 -20 37 -99q21 -45 40.5 -94.5t19.5 -94.5q0 -61 -44 -162q-35 -80 -35 -118q0 -32 35 -102q17 -35 33 -75.5t16 -88.5q0 -37 -17 -80t-37 -86.5t-37 -85t-17 -76.5q0 -51 36 -110
l98 -160q18 -31 18 -63t-17.5 -52t-46.5 -20zM552 -156q8 0 16 7.5t8 24.5q0 24 -13 43q-109 178 -124 217.5t-15 72.5q0 34 17 76t37 86t37 87t17 79q0 61 -45 146q-15 30 -27 59t-12 61q0 43 39 134q40 93 40 146q0 40 -18 85t-38 87q-41 84 -41 116q0 26 30 97
q41 94 41 149q0 67 -46 124t-114 75v191h-44v-193q-66 -13 -111.5 -68t-45.5 -131q0 -40 45 -149v1q39 -93 39 -131q0 -30 -36 -105q-17 -35 -32.5 -74t-15.5 -81q0 -64 54 -178v1q30 -62 30 -87q0 -28 -32 -107q-17 -43 -33.5 -92t-16.5 -98q0 -48 32 -121.5t146 -245.5
l154 -243q38 -61 78 -61z" />
  </g>

</svg>
