<?xml version="1.0" standalone="no"?>
<!DOCTYPE svg PUBLIC "-//W3C//DTD SVG 1.1//EN" "http://www.w3.org/Graphics/SVG/1.1/DTD/svg11.dtd" >
<svg xmlns="http://www.w3.org/2000/svg" xmlns:xlink="http://www.w3.org/1999/xlink" version="1.1" viewBox="-10 0 2619 2048">
  <g transform="matrix(1 0 0 -1 0 1638)">
   <path fill="currentColor"
d="M100 1715q29 65 94 99t148 34q135 0 211.5 -67.5t76.5 -181.5q0 -43 -13 -108.5t-75 -285.5q-89 -293 -89 -404q0 -147 64 -230t176 -83q67 0 114.5 35.5t72.5 97t25 138.5q0 51 -23 246q-22 184 -22 240q0 402 262 402q130 0 199.5 -80.5t69.5 -236.5q0 -53 -42 -370
q-23 -168 -23 -223q0 -105 16.5 -151.5t53 -72t101.5 -25.5q92 0 143.5 75t51.5 220q0 62 -18 224t-18 225q0 160 28 246.5t87 127.5t147 41q270 0 270 -311q0 -91 -26 -303q-40 -316 -40 -354q0 -101 35.5 -156t96.5 -55q87 0 165 32l58 23l32 -55q-43 -53 -115.5 -88
t-140.5 -35q-128 0 -201 89t-73 245q0 76 31 288l13 93q22 163 22 241q0 114 -30 158.5t-92 44.5t-93 -54.5t-31 -189.5q0 -55 18 -230q18 -177 18 -234q0 -229 -86 -340t-245 -111q-83 0 -142 22.5t-97.5 64.5t-60 111.5t-21.5 191.5q0 79 23 230q21 142 33 230t9 104
q0 99 -30 152t-89 53q-61 0 -93.5 -65.5t-32.5 -174.5q0 -38 13 -145l16 -135q16 -139 16 -206q0 -136 -47.5 -233t-129.5 -148.5t-184 -51.5q-180 0 -278.5 122t-98.5 340q0 45 10.5 106t25.5 125.5t61 218.5q42 136 57.5 202t15.5 109q0 35 -16 47t-31 12q-27 0 -53.5 -9
t-57.5 -9q-66 0 -131 22t-80 46v11h-11v27zM342 1808q-79 0 -133 -25t-69 -66h60v-27h-41q13 -11 53.5 -26t109.5 -15q28 0 55 9t56 9q39 0 63 -26t24 -73q0 -60 -23 -143.5t-52 -179.5q-59 -196 -77 -283.5t-18 -154.5q0 -199 88.5 -310.5t248.5 -111.5q90 0 163.5 47
t115.5 134t42 212q0 70 -25 276q-20 158 -20 210q0 130 43.5 205t122.5 75q159 0 159 -245q0 -60 -42 -341q-23 -149 -23 -223q0 -191 70 -270.5t211 -79.5t216 103.5t75 307.5q0 53 -18 230q-18 175 -18 234q0 109 16.5 165t51.5 87.5t96 31.5q84 0 123 -54t39 -189
q0 -83 -22 -246q-44 -315 -44 -376q0 -135 62 -214.5t172 -79.5q60 0 118 24t91 61l-4 7q-74 -32 -116 -40.5t-88 -8.5q-81 0 -126.5 65.5t-45.5 185.5q0 43 40 359q26 212 26 298q0 271 -230 271q-75 0 -125.5 -38.5t-73.5 -116.5t-23 -220q0 -59 18 -221t18 -228
q0 -162 -61 -248.5t-174 -86.5q-80 0 -125 29.5t-65.5 84t-20.5 175.5q0 59 23 229q42 320 42 364q0 137 -59.5 207t-169.5 70q-222 0 -222 -362q0 -46 22 -236q23 -201 23 -250q0 -88 -30 -159t-85.5 -111.5t-136.5 -40.5q-130 0 -205 93.5t-75 259.5q0 50 14.5 124
t76.5 292q54 185 70 262t16 120q0 96 -66 152.5t-182 56.5zM291 1756q0 14 9 23t23 9q13 0 21.5 -9t8.5 -23q0 -13 -8.5 -21.5t-21.5 -8.5q-14 0 -23 8.5t-9 21.5z" />
  </g>

</svg>
