<?xml version="1.0" standalone="no"?>
<!DOCTYPE svg PUBLIC "-//W3C//DTD SVG 1.1//EN" "http://www.w3.org/Graphics/SVG/1.1/DTD/svg11.dtd" >
<svg xmlns="http://www.w3.org/2000/svg" xmlns:xlink="http://www.w3.org/1999/xlink" version="1.1" viewBox="-10 0 1349 2048">
  <g transform="matrix(1 0 0 -1 0 1638)">
   <path fill="currentColor"
d="M373 684l191 -2q-77 51 -128 126t-103 253t-53 270q0 64 25 214l13 88q0 24 -21.5 48t-45.5 47l-86 74q-27 23 -35 59q-30 15 -30 48q0 39 44.5 73t123.5 53.5t192 19.5q79 0 140 -42t88 -114q25 -69 146 -261.5t189 -288.5q57 -83 109.5 -204.5t79.5 -247.5t27 -242
q0 -242 -87 -542.5t-235 -593.5h-68q-7 44 -7 78q0 60 14 121t31 126q28 99 37.5 154t20 194.5t10.5 241.5q0 120 -8 200q-77 -25 -155 -29l-381 -82l-9 37l60 15l-13 19l-65 -10l-4 38l47 3l-13 20h-42zM487 630l41 3l2 -26l-28 -5l9 -14l48 9q177 31 217 44v4
q0 26 -34 166l36 46l32 -24l-25 -32q32 -139 35 -156q38 2 87 15.5t73 29.5q15 -142 15 -256q0 -158 -21 -368q-8 -83 -49 -232q-17 -62 -30 -120.5t-13 -116.5l3 -42h8q9 19 35.5 74t60.5 137.5t71 186.5t68 220t51 239t20 243q0 113 -25.5 233.5t-77 240t-105.5 198.5
q-69 97 -192.5 293t-148.5 265q-22 58 -72.5 94t-117.5 36q-94 0 -164.5 -15t-113 -39.5t-42.5 -46.5q0 -13 29 -23l116 -60l-18 -36l-83 44l95 -81q79 -68 79 -125l-4 -38q-34 -200 -34 -264q0 -58 27.5 -173t67 -217t95 -161t133.5 -95h19q0 9 -18 73t-32 100l76 105
l28 -28l-62 -78q59 -188 59 -211h-52h-64l-118 -2zM275 1921q0 21 15 36t36 15t36 -15t15 -36t-15 -36t-36 -15t-36 15t-15 36zM303 1921q0 -9 7 -16t16 -7t16 7t7 16t-7 16t-16 7t-16 -7t-7 -16z" />
  </g>

</svg>
