<?xml version="1.0" standalone="no"?>
<!DOCTYPE svg PUBLIC "-//W3C//DTD SVG 1.1//EN" "http://www.w3.org/Graphics/SVG/1.1/DTD/svg11.dtd" >
<svg xmlns="http://www.w3.org/2000/svg" xmlns:xlink="http://www.w3.org/1999/xlink" version="1.1" viewBox="-10 0 2508 2048">
  <g transform="matrix(1 0 0 -1 0 1638)">
   <path fill="currentColor"
d="M109 374h1988q112 0 186.5 94.5t74.5 229.5q0 140 -73.5 233t-190.5 93h-1755q-99 0 -149 -37.5t-50 -120.5q0 -147 169 -147h1701v-40h-1701q-209 0 -209 187q0 101 58.5 149.5t180.5 48.5h1757q91 0 159.5 -48.5t105.5 -134t37 -183.5q0 -95 -39.5 -180t-108.5 -134.5
t-153 -49.5h-1988v40z" />
  </g>

</svg>
