<?xml version="1.0" standalone="no"?>
<!DOCTYPE svg PUBLIC "-//W3C//DTD SVG 1.1//EN" "http://www.w3.org/Graphics/SVG/1.1/DTD/svg11.dtd" >
<svg xmlns="http://www.w3.org/2000/svg" xmlns:xlink="http://www.w3.org/1999/xlink" version="1.1" viewBox="-10 0 2650 2048">
  <g transform="matrix(1 0 0 -1 0 1638)">
   <path fill="currentColor"
d="M1433 695l927 110l108 -44l-73 -86l-890 -195l382 -827l-8 -116l-102 41l-457 780l-457 -780l-102 -41l-8 116l383 827l-891 195l-73 86l108 44l927 -109l48 925l65 73l65 -73zM1320 1634l-25 -29l-50 -954l-960 112l-47 -20l28 -31l926 -202l-399 -864l4 -51l40 17
l483 825l483 -825l40 -17l4 51l-399 864l926 203l28 30l-47 20l-960 -112l-50 955zM100 553q0 329 164 611t446 445.5t610 163.5q329 0 611 -164t445.5 -446t163.5 -610q0 -329 -164 -611t-446 -445.5t-610 -163.5q-329 0 -611 164t-445.5 446t-163.5 610zM140 553
q0 -318 158 -590t430 -431t592 -159q318 0 590 158t431 430t159 592q0 318 -158 590t-430 431t-592 159q-318 0 -590 -158t-431 -430t-159 -592z" />
  </g>

</svg>
