<?xml version="1.0" standalone="no"?>
<!DOCTYPE svg PUBLIC "-//W3C//DTD SVG 1.1//EN" "http://www.w3.org/Graphics/SVG/1.1/DTD/svg11.dtd" >
<svg xmlns="http://www.w3.org/2000/svg" xmlns:xlink="http://www.w3.org/1999/xlink" version="1.1" viewBox="-10 0 2516 2048">
  <g transform="matrix(1 0 0 -1 0 1638)">
   <path fill="currentColor"
d="M1644 13q-21 0 -55.5 -2t-70.5 -4.5t-67.5 -5.5t-46.5 -4q-25 -3 -53 -7.5t-45 -24.5h-32l9 31q-117 16 -159 17q-21 0 -59 -2t-77.5 -4.5t-74 -5.5t-49.5 -4q-25 -3 -53 -7.5t-45 -24.5h-32q22 79 49 107t77 36l229 32l32 199q21 134 21 157q0 14 -11 50q-12 36 -12 56
q0 15 35 130l6 28l-7 281q-113 66 -236.5 174t-166.5 178q26 -87 26 -137q0 -87 -26.5 -154.5t-76 -100.5t-120.5 -33q-99 0 -156 64t-57 176q0 79 45 220q-40 -35 -85 -54q-21 -42 -21 -97q0 -71 28 -148t88.5 -156t137.5 -139l-25 -53q-88 17 -190.5 109t-160 207.5
t-57.5 225.5q0 85 11 137q-4 34 -4 70q0 154 76 252.5t195 98.5q86 0 140 -51.5t68 -129.5q44 87 108.5 126t149.5 39q187 0 400.5 -68.5t439 -204.5t436 -319.5t286.5 -295.5v-69l-87 39l54 -86q-32 -20 -96 -36.5t-114 -16.5q-64 0 -139 44.5t-135 113.5h-286
q16 -136 36 -183v1l31 -60l18 -29q38 -56 38 -76q0 -36 -20 -93l3 -386l206 -32q49 -8 76.5 -36t49.5 -107h-32q-17 20 -45 24.5t-53 7.5q-15 1 -50.5 4t-76.5 5.5t-80 4.5t-60 2zM1644 53q33 0 261 -16l-4 32l-228 35l-9 428q22 66 22 87q0 12 -34 60l-16 25l-33 62
q-22 45 -44 240h358q62 -71 128 -114.5t118 -43.5q38 0 86 10.5t64 24.5l-55 89q-160 62 -368 126t-306 80q-178 25 -363.5 93.5t-299 156t-113.5 166.5q0 49 27 103l36 -18q-23 -46 -23 -85q0 -64 103 -139t285.5 -142.5t353.5 -94.5q139 -25 383 -101.5t386 -140.5
q-98 130 -301 301t-418.5 297.5t-415 188.5t-380.5 62t-247 -205l-15 -119l8 -28q41 -136 41 -172q0 -80 -26.5 -128t-64.5 -48q-71 0 -71 147q0 51 14 94t59 134l14 120q-10 107 -57 164t-121 57q-102 0 -166.5 -87.5t-64.5 -223.5l3 -56l81 -1l61 -58q86 39 113 117
l48 -38q-33 -77 -53 -153.5t-20 -132.5q0 -94 46 -147t127 -53q86 0 134.5 65.5t48.5 182.5q0 52 -48 192l63 21q17 -55 120 -157.5t232 -193t179 -90.5q22 0 44.5 8t31.5 17l222 -390v-73q0 -24 50 -74v-412l-216 -35l-4 -32q196 16 234 16zM1354 980l-6 -81
q-1 -18 -23 -106q-21 -86 -21 -97q9 -54 9 -80v-11q0 -19 -31 -92q-33 -78 -40 -125l-35 -253l124 -56q23 22 69 29l194 32v38l-4 322q-16 16 -33 44t-17 46v43l1 20zM1273 609q0 22 -5 43t-5 43q0 12 23 104q21 87 29 190l-16 -1h-17q-28 0 -88 30l6 -258q0 -11 -21 -77
t-21 -83q0 -16 12 -50q12 -38 12 -51q0 -25 -23 -180l-34 -215l-251 -35l-4 -32q157 13 246 16q61 0 182 -19l7 13l-143 64l40 283q6 44 40 124q31 76 31 91zM140 1323q0 -117 71.5 -241t188.5 -215q-58 52 -110.5 127.5t-77.5 152.5v-1q-29 83 -29 177q0 61 11 110l-46 1
q-8 -53 -8 -111zM591 1301q0 63 -33 142q-20 -43 -34.5 -84t-14.5 -87q0 -107 31 -107q20 0 35.5 35t15.5 101zM239 1277q0 62 23 111l-40 38q-11 -49 -11 -103q0 -96 31 -179t89.5 -159.5t120.5 -123.5q-213 198 -213 416zM250 1608q0 15 11 26t26 11t26 -11t11 -26
t-11 -26t-26 -11t-26 11t-11 26zM2001 -1q-10 24 -28 41t-37 23l4 -27q31 -7 61 -37zM1379 63q-19 -6 -37.5 -23.5t-27.5 -40.5q30 30 61 37zM839 63q-19 -6 -37.5 -23.5t-27.5 -40.5q30 30 61 37z" />
  </g>

</svg>
