<?xml version="1.0" standalone="no"?>
<!DOCTYPE svg PUBLIC "-//W3C//DTD SVG 1.1//EN" "http://www.w3.org/Graphics/SVG/1.1/DTD/svg11.dtd" >
<svg xmlns="http://www.w3.org/2000/svg" xmlns:xlink="http://www.w3.org/1999/xlink" version="1.1" viewBox="-10 0 2330 2048">
  <g transform="matrix(1 0 0 -1 0 1638)">
   <path fill="currentColor"
d="M1097 487q0 -33 24 -40l120 -38l6 -81l-89 7l-141 7l-169 -7l-98 -7l2 11l-75 3l-169 -7l-98 -7l19 82l154 30q74 15 117.5 70t128.5 184v67q-159 105 -262 231.5t-140 256.5q-39 135 -76 245t-52 141l-199 71l170 100q39 52 106 81.5t140 29.5q97 0 194 -77t171 -204
q104 -26 160 -79l173 -170q154 -152 294 -251.5t281 -155.5q33 -13 33 -33q0 -12 -15 -25t-37 -20q77 -42 221.5 -97t228.5 -74v-52q-96 -23 -169 -23q-92 0 -229 33.5t-232 76.5q-75 -29 -202 -64.5t-219 -46.5l-67 -144q-5 -12 -5 -24zM1132 669l-50 78l34 22l47 -74
q76 10 203 44t225 71q84 -41 227.5 -77.5t232.5 -36.5q86 0 115 7q-90 25 -223 78.5t-218 102.5l-38 -6q-105 -19 -196 -19q-279 0 -435 39.5t-278.5 126.5t-216.5 235l34 22q90 -142 208.5 -225t270 -120.5t417.5 -37.5q73 0 166.5 15t93.5 30q0 9 -46 29q-123 50 -232 128
t-320 288l-140 138q-23 23 -67.5 43.5t-90.5 29.5q-69 124 -159 200.5t-180 76.5q-122 0 -203 -81q17 -26 17 -74q0 -33 -7 -54l5 -1q27 -49 101 -287l36 -119q56 -180 235.5 -344t381.5 -236l1 -51l-56 -130q-35 -81 -89 -91l-139 -28l-4 -19q183 17 222 17q40 0 189 -17
l-1 15l-87 30q-62 15 -62 71q0 22 10 49zM944 687q-9 -23 -126 -195q-21 -33 -21 -38t4.5 -9t43.5 -19l72 17q46 11 74 73l53 120l-2 16q-55 21 -98 43v-8zM869 687q-6 -16 -48 -74l-75 -104q-21 -33 -61.5 -64.5t-68.5 -35.5l-157 -28l-4 -19q183 17 222 17l83 -5l9 35
q-24 8 -24 27q0 18 40 74q37 49 73 106.5t46 77.5v23l-35 19v-49zM421 1746q0 13 9 22t22 9t22 -9t9 -22t-9 -22t-22 -9t-22 9t-9 22zM296 1734q-1 21 -8 37l-90 -37h98zM291 1679l4 22h-94z" />
  </g>

</svg>
