<?xml version="1.0" standalone="no"?>
<!DOCTYPE svg PUBLIC "-//W3C//DTD SVG 1.1//EN" "http://www.w3.org/Graphics/SVG/1.1/DTD/svg11.dtd" >
<svg xmlns="http://www.w3.org/2000/svg" xmlns:xlink="http://www.w3.org/1999/xlink" version="1.1" viewBox="-10 0 2136 2048">
  <g transform="matrix(1 0 0 -1 0 1638)">
   <path fill="currentColor"
d="M183 1880h127l-155 80l9 25l208 -49q16 67 77.5 106t150.5 39q93 0 160.5 -64.5t67.5 -144.5q0 -50 -30 -163q-46 -169 -46 -192q0 -41 28.5 -71.5t72.5 -30.5q45 0 147 102l244 227q69 63 122 93.5t115.5 49t137.5 18.5q62 0 129 -34.5t127 -95.5q-79 -34 -144 -81
t-123.5 -110t-154.5 -198q-34 -43 -67.5 -89.5t-74.5 -85.5q117 -101 223 -168q199 -125 293.5 -217.5t123.5 -177.5h43l32 -106l-64 -45v-6q0 -102 -47.5 -198t-128 -154t-166.5 -58q-61 0 -210 59l27 -93l-95 -77q-360 72 -444 77q-110 6 -231 24l41 -47l-45 -67
q-105 69 -170 69t-325 -77l-28 89l60 20l-20 52q99 45 230.5 73t233.5 28q66 0 511 -62q-43 72 -101 187l-41 79q-155 93 -264 242q-186 -154 -626 -381q-23 127 -23 210q0 112 38 174v-1q59 82 180 206q129 132 184 205l1 -1q-24 72 -24 127q0 82 61 253l31 88
q49 137 49 154q0 30 -5.5 43.5t-26.5 13.5q-85 0 -129 13.5t-67 40.5l-228 -54l-9 25l153 78h-125v29zM190 -3q230 69 303 69q38 0 81 -16.5t74 -39.5l13 16l-70 71l12 23l67 -8q187 -23 230 -25q39 -3 433 -82l58 55l-45 157q84 -43 159 -69.5t115 -26.5q76 0 147 53.5
t113 143t42 182.5v17l61 41l-19 50h-42q-16 65 -65.5 125.5t-115 115.5t-227.5 160q-66 41 -232 170q-51 -47 -83 -71l-25 32q140 108 247 270q92 127 146.5 187.5t113.5 107.5t127 83q-92 77 -189 77q-188 0 -347 -151l-245 -226q-69 -64 -109 -88.5t-65 -24.5
q-62 0 -101.5 41.5t-39.5 100.5q0 19 31 140q45 158 45 215q0 65 -55.5 117t-132.5 52q-89 0 -141.5 -43t-52.5 -117q0 -37 22.5 -56.5t54.5 -28t105 -8.5q41 0 56.5 -20.5t15.5 -65.5q0 -22 -7.5 -49t-74.5 -217q-59 -166 -59 -240q0 -50 22.5 -114t61.5 -134.5t128 -194
t142 -178t115 -97.5q-25 81 -25 143q0 61 24 117t67.5 90.5t102.5 34.5q36 0 64 -4l-6 -40q-28 4 -58 4q-66 0 -110 -58.5t-44 -143.5q0 -65 28.5 -137.5t87 -184t120.5 -204.5q-514 76 -595 76q-105 0 -214.5 -21.5t-197.5 -59.5l7 -20q84 26 134 34l5 -31q-59 -8 -195 -55
zM726 690q-161 225 -207 337q-49 -64 -175 -191q-118 -120 -174 -200q-28 -40 -28 -145q0 -42 12 -154q415 216 572 353zM503 1918q0 14 10.5 24.5t24.5 10.5t24.5 -10.5t10.5 -24.5t-10.5 -24.5t-24.5 -10.5t-24.5 10.5t-10.5 24.5zM377 1826l-8 25l-102 -51zM366 1881v15
l1 13l-100 24z" />
  </g>

</svg>
