<?xml version="1.0" standalone="no"?>
<!DOCTYPE svg PUBLIC "-//W3C//DTD SVG 1.1//EN" "http://www.w3.org/Graphics/SVG/1.1/DTD/svg11.dtd" >
<svg xmlns="http://www.w3.org/2000/svg" xmlns:xlink="http://www.w3.org/1999/xlink" version="1.1" viewBox="-10 0 2315 2048">
  <g transform="matrix(1 0 0 -1 0 1638)">
   <path fill="currentColor"
d="M1503 380l-75 226q163 -47 254 -47q92 0 199 50q96 -16 135 -16q19 0 31 8t12 20q0 9 -5.5 18.5t-60.5 68.5q-29 30 -99 159q-128 234 -145 256h-459q49 -75 49 -102q0 -94 -86 -94q-44 0 -118.5 56.5t-130.5 139.5h-100q103 -175 229 -365q19 -30 106.5 -131.5
t216.5 -240.5l-112 -312q-109 0 -205.5 -8.5t-106.5 -25.5h568l-9 8q-30 15 -178 26l-1 40zM1496 1354l-2 22q-1 39 -23.5 83t-58 89t-150.5 160v-1l-20 25q-115 157 -192.5 217.5t-141.5 60.5q-119 -9 -181 -109q36 -71 39 -124q-64 17 -128 21q34 -16 60.5 -38t42.5 -48.5
t27 -79t50 -319.5l115 9v5q0 83 63 117t235 34l55 -1v-40l-55 1q-141 0 -199.5 -23.5t-58.5 -87.5v-1l357 30zM1177 112l73 2h71l91 259l-138 152l21 -130zM1192 378q-45 -132 -60 -176.5t-29 -59.5t-45.5 -27.5t-117.5 -26.5q-150 -24 -164 -48h211q17 40 48 49.5t96 17.5
l122 292l-30 184l-101 121zM1299 1021q0 17 -59 102h-191q43 -60 104 -108t100 -48q46 0 46 54zM684 1332l-19 -1l58 -132l-269 -23q-134 34 -167 57l-125 86l-22 -24l110 -98l158 -72h234l184 38h1303l36 48l-34 657h-169l-44 -531l-34 -28l-556 7l-540 -42l-7 12z
M785 1868q0 12 24.5 29t52.5 17q37 0 58.5 -16.5t21.5 -29.5t-21.5 -29.5t-58.5 -16.5q-31 0 -54 16.5t-23 29.5zM599 1826h20q61 0 109 -8l-24 57q-85 -25 -105 -49zM820 1868q0 -4 11 -9t31 -5q22 0 33.5 5t11.5 9t-11.5 9t-33.5 5q-20 0 -31 -6t-11 -8zM538 1787
q11 58 61 83l86 40q11 34 41.5 66t77 53t108.5 21q53 0 103.5 -27t98.5 -73t133 -158l45 -58l101 -103q134 -139 141 -233l59 -46l262 -3l22 17l45 542h247l36 -716l-52 -69h-356l97 -171l68 -123l45 -76l17 -20q59 -62 67 -78t8 -34q0 -30 -23 -49t-60 -19q-56 0 -131 13
q-35 -18 -94 -32.5t-109 -14.5q-67 0 -193 28l56 -167l-89 -271l36 -4q89 -8 119 -21q37 -20 52 -107l-40 -4q-8 20 -8 27h-598l-4 -17l-3 -10l-40 4l4 23h-213l-4 -17l-3 -10l-40 4q3 24 10 45q9 28 21.5 44.5t44.5 29t135 27.5q112 16 149 47q5 3 76 209l-90 417
q-150 232 -203 327h-28l-186 -36h-240l-168 74l-135 128l55 76l52 -36l242 486l199 -446l32 3l94 -37q-44 290 -57 334q-19 40 -69.5 72.5t-109.5 45.5zM338 1246l111 288l121 -315l89 8l-210 482l-205 -405l62 -43zM378 1232l79 -22l68 6l-78 200z" />
  </g>

</svg>
