<?xml version="1.0" standalone="no"?>
<!DOCTYPE svg PUBLIC "-//W3C//DTD SVG 1.1//EN" "http://www.w3.org/Graphics/SVG/1.1/DTD/svg11.dtd" >
<svg xmlns="http://www.w3.org/2000/svg" xmlns:xlink="http://www.w3.org/1999/xlink" version="1.1" viewBox="-10 0 2726 2048">
  <g transform="matrix(1 0 0 -1 0 1638)">
   <path fill="currentColor"
d="M527 2051q53 0 118 -19t174 -71q32 -15 133 -34q109 -21 155 -37q171 -61 336 -218.5t256 -345.5q14 -29 92 -226l45 -112l206 -63q60 -16 96 -56.5t36 -93.5q0 -56 -35.5 -91t-86.5 -35q-18 0 -70 13q114 -232 204 -308q43 -37 158.5 -99t207.5 -102l23 -11
q41 -134 41 -197q0 -91 -35 -157t-107 -105t-155 -39q-65 0 -121 39t-107 111q-63 88 -140.5 156t-172 126t-195.5 89q123 -103 123 -208q0 -125 -102 -125q-50 0 -140.5 68.5t-147.5 152.5l-94 142h-98q-225 0 -375 47.5t-262 134.5t-203 221t-137.5 282.5t-46.5 295.5
q0 232 134 459l-9 36q-10 38 -10 110q0 36 17 80t41 76q24 -32 29.5 -35.5t15.5 -3.5q20 0 20 29q0 25 -16 70q45 27 69.5 35.5t56 13.5t79.5 5zM527 2011q-47 0 -85.5 -7.5t-73.5 -28.5q7 -38 7 -53q0 -65 -57 -65q-20 0 -41 15q-22 -41 -22 -91q0 -43 3.5 -70t17.5 -83
q-59 -107 -81.5 -166t-38.5 -131t-16 -155q0 -129 37.5 -260.5t105 -241.5t147.5 -191.5t182 -138t214 -83t298 -26.5l258 2q168 0 345.5 -87.5t330.5 -249.5q83 33 131.5 75t83 103t44.5 148q-126 68 -157 98q-161 144 -434 831l-63 153q-90 181 -252 334t-318 210
q-46 17 -145 35q-93 16 -145 38l-62 27q-132 59 -214 59zM2355 206q-35 -246 -268 -338l14 -17q63 -93 113.5 -130t104.5 -37q73 0 134.5 33.5t92 92t30.5 135.5q0 66 -31 171q-162 75 -190 90zM890 1576l204 -73q95 -32 95 -108q0 -58 -42.5 -115t-118.5 -97.5t-133 -40.5
q-31 0 -53.5 17t-39 44t-28 66.5t-39.5 202.5zM779 1452l29 -149q27 -121 87 -121q48 0 111 32t103 80.5t40 100.5q0 22 -13.5 38t-55.5 32l-185 65zM1382 197h-58l-55 -1l81 -121q46 -69 128 -136t126 -67q62 0 62 85q0 37 -16.5 69t-45.5 63.5t-111 97.5q-54 10 -111 10z
M1856 941q56 -135 104 -233l84 -19l13 -1q33 0 55 24t22 63q0 77 -105 112zM379 1484q58 -9 105 -9q89 0 162 32t150 112l28 -28q-83 -85 -163 -120.5t-177 -35.5q-53 0 -111 9zM378 1554q52 -6 94 -6q87 0 147 26t121 88l28 -28q-69 -69 -137 -97.5t-159 -28.5q-44 0 -98 6
zM558 1905q0 23 16.5 39.5t39.5 16.5t39.5 -16.5t16.5 -39.5t-16.5 -39.5t-39.5 -16.5t-39.5 16.5t-16.5 39.5zM592 1905q0 -8 7 -15t15 -7t15 7t7 15t-7 15t-15 7t-15 -7t-7 -15z" />
  </g>

</svg>
