<?xml version="1.0" standalone="no"?>
<!DOCTYPE svg PUBLIC "-//W3C//DTD SVG 1.1//EN" "http://www.w3.org/Graphics/SVG/1.1/DTD/svg11.dtd" >
<svg xmlns="http://www.w3.org/2000/svg" xmlns:xlink="http://www.w3.org/1999/xlink" version="1.1" viewBox="-10 0 2861 2048">
  <g transform="matrix(1 0 0 -1 0 1638)">
   <path fill="currentColor"
d="M2033 1793q392 -82 400 -1106h318l-194 -583h-372l-194 583h318q0 295 -38 508t-110.5 332t-174.5 143l-97 -252l26 -1185q0 -46 -22 -78.5t-59 -32.5q-35 0 -58 32t-23 79l26 1185l-99 259h-107v-73q63 -11 110.5 -87t47.5 -165q0 -105 -52 -180.5t-126 -75.5t-126 75
t-52 181q0 89 47 165t111 87v73h-360v-73q63 -11 110.5 -87t47.5 -165q0 -105 -52 -180.5t-126 -75.5t-126 75t-52 181q0 89 47 165t111 87v73h-360v-73q63 -11 110.5 -87t47.5 -165q0 -105 -52 -180.5t-126 -75.5t-126 75t-52 181q0 89 47 165t111 87v73h-115l-99 -259
l26 -1185q0 -46 -23 -78.5t-58 -32.5q-37 0 -59 32.5t-22 78.5l26 1185l-100 259h-130q-48 0 -63.5 13.5t-15.5 48.5q0 33 18.5 47.5t60.5 14.5h82q-19 51 -30 85.5t-8 50.5q0 58 52 58q16 0 27 -4.5t19 -13.5t13.5 -22.5t59.5 -153.5h140l43 110q20 53 37 68.5t41 15.5
q50 0 50 -58q0 -18 -4 -36.5t-35 -99.5h965q-31 83 -34.5 102.5t-3.5 33.5q0 58 50 58q23 0 40 -15t35 -61t45 -118h140l49 124q17 42 25 51.5t19.5 14t26.5 4.5q52 0 52 -58q0 -21 -6 -43.5t-36 -100.5zM2046 647l168 -503h315l166 503h-649zM275 1955q-12 0 -12 -18
q0 -28 16 -68l170 -443l-26 -1194q0 -34 11.5 -52t29.5 -18t29.5 18t11.5 52l-26 1194l96 251h-47l-64 -165l-155 396q-8 20 -15 33.5t-19 13.5zM1770 1677h-47l96 -251l-26 -1194q0 -34 11.5 -52t29.5 -18t29.5 18t11.5 52l-26 1194l170 443q16 40 16 68q0 18 -12 18
t-19 -13.5t-15 -33.5l-155 -396zM1153 1566q-54 0 -96 -65.5t-42 -148.5q0 -89 39.5 -152.5t98.5 -63.5t98.5 64t39.5 152q0 84 -42 149t-96 65zM753 1566q-54 0 -96 -65.5t-42 -148.5q0 -89 39.5 -152.5t98.5 -63.5t98.5 64t39.5 152q0 84 -42 149t-96 65zM1553 1566
q-54 0 -96 -65.5t-42 -148.5q0 -89 39.5 -152.5t98.5 -63.5t98.5 64t39.5 152q0 84 -42 149t-96 65zM427 1717h1444l17 44h-1478zM2393 687q-8 997 -374 1068l-18 -47q174 -47 261 -316.5t87 -704.5h44zM576 1801h47q34 89 38 105.5t4 30.5q0 18 -14 18q-16 0 -37 -59z
M1633 1937q0 -12 2.5 -25t38.5 -111h47l-45 116q-15 38 -29 38t-14 -18zM140 1739q0 -15 10 -18.5t29 -3.5h114l-16 44h-98q-39 0 -39 -22zM464 1622l22 55h-44zM1834 1622l21 55h-43z" />
  </g>

</svg>
