<?xml version="1.0" standalone="no"?>
<!DOCTYPE svg PUBLIC "-//W3C//DTD SVG 1.1//EN" "http://www.w3.org/Graphics/SVG/1.1/DTD/svg11.dtd" >
<svg xmlns="http://www.w3.org/2000/svg" xmlns:xlink="http://www.w3.org/1999/xlink" version="1.1" viewBox="-10 0 1062 2048">
  <g transform="matrix(1 0 0 -1 0 1638)">
   <path fill="currentColor"
d="M642 -123q-10 -12 -48 -27t-68 -15q-31 0 -68.5 15t-47.5 27q21 148 37 316.5t16 242.5q0 152 -56 276l-307 289l32 34l238 -200q-18 81 -27 178l-239 229l29 34l205 -169l-1 55q0 50 5 122l-201 197l26 30l185 -147q8 59 28 134l-177 244l33 28l168 -195q16 43 35 80
l-124 272l40 20l126 -227l11 12l7 305h54l7 -305l11 -12l126 227l40 -20l-124 -272q19 -37 35 -80l168 195l33 -28l-177 -244q20 -75 28 -134l185 147l26 -30l-201 -197q5 -72 5 -122l-1 -55l205 169l29 -34l-239 -229q-9 -97 -27 -178l238 200l32 -34l-307 -289
q-56 -124 -56 -276q0 -70 15.5 -237.5t37.5 -321.5zM599 -100q-7 42 -28.5 238.5t-21.5 297.5q0 68 9.5 127.5t41.5 143.5l317 290l-3 3l-288 -247l-7 8q38 102 51 253l243 224l-3 3l-239 -204q4 60 4 125q0 62 -4 122l205 191l-3 2l-204 -172q-8 99 -32 191l178 235l-3 3
l-180 -220q-23 83 -51 135l124 262l-4 2l-125 -251q-22 44 -42 49l-5 293h-6l-5 -293q-20 -4 -39 -43l-128 245l-4 -2l124 -262q-28 -52 -51 -135l-180 220l-3 -3l178 -235q-24 -92 -32 -191l-204 172l-3 -2l205 -191q-4 -60 -4 -122q0 -65 4 -125l-239 204l-3 -3l243 -224
q13 -151 51 -253l-7 -8l-288 247l-3 -3l317 -290q32 -84 41.5 -143.5t9.5 -127.5q0 -105 -22 -301t-28 -235q10 -8 31.5 -16.5t41.5 -8.5t41.5 8.5t31.5 16.5zM544 1662q90 -233 90 -488q0 -145 -18 -261t-63 -248h-54q-46 137 -63.5 251.5t-17.5 257.5q0 255 90 488h36z
M526 705q36 113 52 224t16 245q0 233 -68 431q-68 -198 -68 -431q0 -140 16.5 -250.5t51.5 -218.5z" />
  </g>

</svg>
