<?xml version="1.0" standalone="no"?>
<!DOCTYPE svg PUBLIC "-//W3C//DTD SVG 1.1//EN" "http://www.w3.org/Graphics/SVG/1.1/DTD/svg11.dtd" >
<svg xmlns="http://www.w3.org/2000/svg" xmlns:xlink="http://www.w3.org/1999/xlink" version="1.1" viewBox="-10 0 2040 2048">
  <g transform="matrix(1 0 0 -1 0 1638)">
   <path fill="currentColor"
d="M460 -23l4 23h-213l-4 -17l-3 -10l-40 4q5 37 19 67.5t32 39.5q30 17 73.5 24t88.5 13.5t85.5 16.5t64.5 32l158 231q-12 38 -34 134t-34 157q-148 129 -249 308t-101 308v15q-25 -34 -25 -90q0 -48 -24 -76t-67 -28q-34 0 -57 25t-23 70q0 37 31.5 80t83 73t105.5 36
q28 73 83 154l-19 20l-21 23q-130 0 -190 18q-17 -15 -21 -31h-63q1 57 28 89.5t73 49t162 21.5q31 52 101 68q-7 19 -26.5 84t-19.5 92q0 34 15.5 53.5t38.5 19.5q57 0 81 -155q0 80 16.5 113t48.5 33q30 0 47 -26.5t17 -71.5q0 -79 -51 -181q33 -29 51 -67.5t18 -77.5
q0 -50 -21.5 -103t-52.5 -91l-19 -25q8 0 62.5 -15t119 -39t86.5 -42q68 -54 211 -217t194 -258q53 -97 163 -279t163 -240q54 -54 324 -187l-109 -76l-114 37l23 -67l-265 -44q-70 93 -193 236t-203 219l-39 -151l-134 -190q74 -8 106 -25q38 -20 52 -107l-40 -4
q-8 20 -8 27h-499l-4 -17l-3 -10zM1682 148l127 -41l43 30q-225 113 -276 169q-51 57 -158.5 230t-173.5 295q-47 87 -178 240t-215 223q-33 26 -133.5 58.5t-146.5 37.5v49q38 47 63.5 102.5t25.5 99.5q0 61 -44 105t-108 44q-53 0 -87 -29t-34 -66q0 -22 17 -49t61 -73
q-69 -107 -93.5 -166.5t-24.5 -98.5q0 -109 77.5 -257t192.5 -266.5t224 -165.5q22 -20 59.5 -97t75.5 -178l-182 -270q-101 0 -181.5 -9t-90.5 -25h469l-9 8q-30 15 -129 26l-1 40l142 203l53 206q67 -58 192 -199t241 -291l196 30l-22 53q-85 29 -236.5 132.5
t-309.5 238.5q-90 76 -118 95q-177 117 -275.5 199t-158.5 150.5t-94 135t-34 127.5q0 116 185 116h24l22 -1h9v-40h-12l-20 1h-23q-145 0 -145 -76q0 -111 134 -256t410 -322q29 -20 122 -99q385 -324 548 -368v-1zM266 40h211q14 32 34 44t95 21l168 250l84 169
q-27 49 -40 62q-28 12 -56.5 24.5t-51.5 35.5q28 -133 55 -243l-181 -271q-40 -29 -151 -45q-153 -23 -167 -47zM935 349l-54 130l-73 -146l-150 -223l113 4zM296 1366q-60 -18 -102.5 -60.5t-42.5 -81.5q0 -26 11.5 -40.5t28.5 -14.5q26 0 38.5 18.5t12.5 45.5
q0 40 16 78.5t38 54.5zM573 1819l28 -12q45 90 45 160q0 22 -6.5 42t-21.5 20q-14 0 -22 -17.5t-15.5 -80.5t-7.5 -108v-4zM518 1830l9 -1l1 46q0 20 -3 37.5t-17.5 75t-35.5 50.5q-18 0 -18 -37q0 -33 46 -171h18zM347 1697l4 24q-102 -2 -151 -23t-66 -68h13q34 67 188 67
h12zM359 1644l-9 24h-15q-67 0 -114 -14q50 -10 138 -10zM435 1716q0 20 14.5 34.5t35.5 14.5q20 0 34.5 -14.5t14.5 -34.5q0 -21 -14.5 -35.5t-34.5 -14.5q-21 0 -35.5 14.5t-14.5 35.5zM466 1716q0 -19 19 -19q18 0 18 19q0 18 -18 18q-19 0 -19 -18z" />
  </g>

</svg>
