<?xml version="1.0" standalone="no"?>
<!DOCTYPE svg PUBLIC "-//W3C//DTD SVG 1.1//EN" "http://www.w3.org/Graphics/SVG/1.1/DTD/svg11.dtd" >
<svg xmlns="http://www.w3.org/2000/svg" xmlns:xlink="http://www.w3.org/1999/xlink" version="1.1" viewBox="-10 0 1986 2048">
  <g transform="matrix(1 0 0 -1 0 1638)">
   <path fill="currentColor"
d="M166 1240q60 -212 176 -337.5t300 -174.5q30 17 83 21l128 9q23 151 23 167q0 59 -19 137.5t-76 231.5l-68 91q-71 89 -97.5 145.5t-26.5 100.5v140q0 52 -46 52q-25 0 -37 -10.5t-14 -17.5h-36v34q0 68 47 105q22 18 63 57q19 34 67 52t111 18q64 0 110 -19.5t81 -58
t74 -120.5l94 -50q99 -94 261 -314l79 -108q62 -76 133 -160t88 -97l1 -2q21 50 37 108h66q0 -100 -18 -184l126 -118l-49 -46q-18 12 -105 63l-12 -29l74 -109l-238 -147l-9 15q-117 -101 -281 -153v-447h267v-118h-1112v118h260v431q-275 71 -423 255.5t-148 468.5h66z
M1216 85v436q-142 -38 -282 -38q-110 0 -223 23v-421h505zM934 523q165 0 320 53.5t262 149.5l-40 73q-109 -82 -245.5 -113t-296.5 -31q-334 0 -522 130t-272 402q12 -198 110.5 -345.5t283 -233t400.5 -85.5zM1262 738q109 35 193 100l-60 114q-28 53 -68.5 88t-76.5 35
v-272q-71 57 -107 65v-101q80 -6 119 -29zM451 7h1032v38h-1032v-38zM893 758l43 2l30 171q34 -4 68 -27l1 22q0 45 -31.5 105t-85.5 118l-71 82q24 -71 46 -149.5t22 -156.5v-20zM745 1825q0 -10 -4 -14q42 33 42 63q0 29 -22.5 49.5t-56.5 20.5h-25q5 -10 5 -17
q0 -19 -17 -30l6 -17q0 -18 -28 -25q18 -28 23 -48l-1 14q0 18 10.5 30.5t28.5 12.5q20 0 29.5 -14t9.5 -25zM1036 861q-24 15 -42 20q-8 -31 -22 -119l59 5zM1817 935l8 10q-45 44 -96 83q-75 56 -138.5 129t-181.5 219q-226 310 -337 415l-96 52q-44 89 -73 119.5
t-67 45.5t-92 15q-59 0 -98.5 -12t-46.5 -33l-47 -45l-18 -15q-36 -29 -41 -72q39 52 82 52q26 0 52 -23l7 -1q10 0 10 9l-1 10q-14 0 -25 10.5t-11 25.5q0 14 11 26t28 12h67q42 0 71 -26.5t29 -66.5q0 -24 -17.5 -46.5t-46.5 -40.5t-36.5 -20t-13.5 -2q-10 0 -12 11h-12
v-19h-25q0 47 -24 81.5t-60 34.5q-16 0 -37 -18h5l9 1q86 0 86 -109v-116q0 -43 32 -102.5t120 -168t165 -189.5q63 -68 95.5 -137.5t32.5 -130.5l-10 -172q-56 0 -124 -8v-28q146 0 253 25v3q-72 8 -86 8v187q34 -8 107 -44v247q47 0 85 -19.5t66.5 -48.5t62.5 -89
l132 -242l179 106l-130 196q-162 95 -515 280l-274 140q-67 30 -117.5 87.5t-50.5 115.5q0 61 73 108.5t174 53.5l2 -34q-88 -6 -149 -44t-61 -84q0 -43 40 -89.5t111 -85.5q693 -349 975 -537zM706 1841q-18 0 -18 -22q0 -11 6 -17.5t12 -6.5q16 0 16 24q0 7 -4 14.5
t-12 7.5zM1728 1187q-14 -45 -30 -83l18 -16q9 46 12 99zM628 1929q0 -16 16 -16q17 0 17 16t-17 16q-16 0 -16 -16zM882 696l17 -1h18v26q-19 0 -35 -25zM783 702l9 -1q11 17 32 28l-41 -6v-21zM866 720q-24 0 -48 -21l25 -2zM758 705v16q-19 0 -33 -11zM1682 968l3 8
l-15 10zM700 720l-16 -2l11 -2z" />
  </g>

</svg>
