<?xml version="1.0" standalone="no"?>
<!DOCTYPE svg PUBLIC "-//W3C//DTD SVG 1.1//EN" "http://www.w3.org/Graphics/SVG/1.1/DTD/svg11.dtd" >
<svg xmlns="http://www.w3.org/2000/svg" xmlns:xlink="http://www.w3.org/1999/xlink" version="1.1" viewBox="-10 0 1161 2048">
  <g transform="matrix(1 0 0 -1 0 1638)">
   <path fill="currentColor"
d="M100 1286q0 208 80 501h64q21 -108 104 -257.5t189 -264.5t205 -163l-2 -100q0 -236 67 -413.5t244 -370.5h-93q-147 28 -310.5 132.5t-287.5 251.5t-192 323.5t-68 360.5zM140 1286q0 -175 64 -342.5t181 -308t272.5 -243t301.5 -134.5h3q-143 163 -202.5 333.5
t-59.5 410.5v37l1 39q-96 52 -194 157.5t-182.5 252t-113.5 259.5h-1q-70 -273 -70 -461z" />
  </g>

</svg>
