<?xml version="1.0" standalone="no"?>
<!DOCTYPE svg PUBLIC "-//W3C//DTD SVG 1.1//EN" "http://www.w3.org/Graphics/SVG/1.1/DTD/svg11.dtd" >
<svg xmlns="http://www.w3.org/2000/svg" xmlns:xlink="http://www.w3.org/1999/xlink" version="1.1" viewBox="-10 0 2615 2048">
  <g transform="matrix(1 0 0 -1 0 1638)">
   <path fill="currentColor"
d="M682 339q-92 0 -145.5 50.5t-53.5 143.5q0 91 52.5 142.5t146.5 51.5h1613q30 0 49 23t19 56q0 30 -21.5 55.5t-46.5 25.5h-1602q-28 -98 -134 -133q-76 -25 -131 -58.5t-97 -77t-97 -134.5h-87q-18 78 -32.5 224t-14.5 251q0 106 14.5 250.5t32.5 226.5h87
q55 -91 97 -134.5t97 -77t131 -58.5q106 -35 135 -135h1601q49 0 99 -27.5t80 -77t30 -119.5q0 -73 -27 -122t-75 -75.5t-107 -26.5h-1613q-24 0 -41 -12t-17 -38q0 -23 16 -36.5t42 -13.5h1733q42 0 65.5 -20t23.5 -55q0 -41 -24 -55t-65 -14h-1733zM704 961l-2 -34h1593
q44 0 76 -39t32 -86q0 -51 -33 -83t-75 -32h-1613q-69 0 -114 -38t-45 -116q0 -73 42.5 -113.5t116.5 -40.5h1733q49 0 49 31q-2 33 -49 33h-1733q-46 0 -72 24t-26 66t27 66t71 24h1613q75 0 122 48.5t47 135.5q0 58 -24.5 98.5t-64.5 63t-80 22.5h-1593zM664 961
q0 60 -31.5 104t-85.5 63q-110 39 -190.5 103t-142.5 170h-37q-14 -71 -25.5 -211t-11.5 -231q0 -95 14 -236.5t23 -198.5h35q67 110 145.5 170t189.5 98q54 19 85.5 63t31.5 106z" />
  </g>

</svg>
