<?xml version="1.0" standalone="no"?>
<!DOCTYPE svg PUBLIC "-//W3C//DTD SVG 1.1//EN" "http://www.w3.org/Graphics/SVG/1.1/DTD/svg11.dtd" >
<svg xmlns="http://www.w3.org/2000/svg" xmlns:xlink="http://www.w3.org/1999/xlink" version="1.1" viewBox="-10 0 2320 2048">
  <g transform="scale(1, -1)" transform-origin="center">
   <path fill="currentColor"
d="M345 1751v38q0 32 8 55t22 40.5t49 43.5l44 43q18 36 73.5 57.5t126.5 21.5q69 0 118.5 -20.5t86.5 -59.5t87 -142l106 -56q128 -125 381 -473l57 -68q163 -200 190 -221l21 -17l217 -202l-50 -52l-78 48l-98 58l128 -190l-206 -131h582q-295 -551 -1055 -551t-1055 551
h418q34 46 128 55l148 10l23 147l3 40q0 73 -25 168.5t-81 245.5q-131 170 -158 213.5t-42 83.5t-15 81v130q0 48 -14 66.5t-42 18.5q-46 0 -58 -32h-40zM514 1902q0 16 12 29t32 13h75q48 0 80 -29.5t32 -74.5q0 -27 -21 -53.5t-54 -46t-38 -21t-14 -1.5q-12 0 -14 12h-14
v-21h-28q0 52 -27 91t-67 39q-18 0 -41 -20h6l10 1q96 0 96 -122v-130q0 -51 38.5 -122t128.5 -181.5t188 -217.5q144 -154 144 -297l-12 -191q-108 -4 -138 -9v-26h317v26q-30 4 -130 9v205q53 -13 120 -50v282q142 0 239 -176l154 -275l195 122q-24 34 -146 220
q-346 199 -884 471q-77 35 -132.5 100t-55.5 127q0 67 79.5 121t197.5 61l2 -34q-63 -4 -119 -26t-88.5 -55.5t-32.5 -66.5q0 -47 47 -102t127 -98q343 -171 647.5 -336t444.5 -262l10 12l-217 187q-31 26 -250 296q-243 336 -378 465l-107 58q-47 97 -79.5 133t-75 54
t-105.5 18q-66 0 -110.5 -14t-52.5 -39l-52 -51q-37 -30 -50.5 -51.5t-16.5 -45.5q14 23 39.5 40.5t52.5 17.5q33 0 59 -26l6 -1q13 0 13 10l-1 11q-17 0 -29 12t-12 29zM1155 13q338 0 584.5 118t391.5 353h-1952q145 -235 391 -353t585 -118zM1325 524h226l-154 282
q-32 60 -77 99t-85 39v-304q-82 64 -120 72v-113q77 -3 124 -15t86 -60zM835 589l48 2l34 192q41 -7 76 -30l1 24q0 50 -35 116t-96 134l-80 92q50 -150 63.5 -218.5t13.5 -124.5l-3 -45zM669 1785q0 -10 -4 -16q47 35 47 71q0 33 -25.5 55.5t-63.5 22.5h-28q6 -12 6 -19
q0 -22 -20 -33q7 -11 7 -19q0 -13 -8 -19t-23 -9q19 -29 27 -56l-2 13v5q0 20 11.5 34t31.5 14q23 0 33.5 -16t10.5 -28zM995 705q-23 15 -47 22q-4 -18 -25 -133l66 5zM625 1803q-8 0 -14 -7t-6 -18q0 -13 6.5 -20t13.5 -7q18 0 18 27q0 25 -18 25zM538 1902q0 -18 18 -18
q19 0 19 18t-19 18q-18 0 -18 -18zM684 547q-31 0 -49 -23h49v23zM862 547q-27 0 -41 -23h41v23zM720 524q14 18 37 32l-46 -6v-26h9zM804 546q-30 0 -52 -22h30q9 13 22 22zM619 546q-30 0 -52 -22h29zM1231 545v-21h40q-15 13 -38 21h-2z" />
  </g>

</svg>
