<?xml version="1.0" standalone="no"?>
<!DOCTYPE svg PUBLIC "-//W3C//DTD SVG 1.1//EN" "http://www.w3.org/Graphics/SVG/1.1/DTD/svg11.dtd" >
<svg xmlns="http://www.w3.org/2000/svg" xmlns:xlink="http://www.w3.org/1999/xlink" version="1.1" viewBox="-10 0 3727 2048">
  <g transform="matrix(1 0 0 -1 0 1638)">
   <path fill="currentColor"
d="M2201 1619q0 14 -22.5 16.5t-53.5 2.5h-22l-461 -176l-22 56l200 119l217 131q95 95 192 95q68 0 121 -47.5t53 -122.5q0 -84 -73 -157l-145 -143q-45 -45 -45 -53q0 -7 7 -7l77 28q50 19 114.5 32.5t115.5 13.5q114 0 262.5 -57.5t315.5 -159.5q174 -108 196 -119
l385 -184v-50l-40 -4l44 -52l-184 -123l-166 67l-14 4q-60 20 -100 20l-79 -10l-60 -4q-86 7 -115 31q22 -83 124 -415l-6 -219l56 -19q54 -18 85 -52t48 -91h-34q-40 43 -234 43q-31 0 -124.5 -7.5t-122 -14.5t-34.5 -21h-33q14 52 44 89t73 44l154 28l-8 179
q-2 53 -17.5 99t-53.5 92t-96 107l-49 -151l-215 -339q69 -22 104.5 -55.5t51.5 -92.5h-34q-40 43 -234 43q-31 0 -124.5 -7.5t-122 -14.5t-34.5 -21h-33q5 22 11 34q-63 -6 -96.5 -11t-47.5 -23h-33q14 52 44 89t73 44l154 28l-8 179q-2 53 -17.5 99t-53.5 92t-96 107
l-49 -151l-215 -339q69 -22 104.5 -55.5t51.5 -92.5h-34q-40 43 -234 43q-31 0 -124.5 -7.5t-122 -14.5t-34.5 -21h-33q5 22 11 34q-63 -6 -96.5 -11t-47.5 -23h-33q14 52 44 89t73 44l154 28l-8 179q-2 53 -17.5 99t-53.5 92t-96 107l-49 -151l-215 -339
q69 -22 104.5 -55.5t51.5 -92.5h-34q-40 43 -234 43q-31 0 -124.5 -7.5t-122 -14.5t-34.5 -21h-33q31 116 113 129q152 23 185.5 42t80.5 101l143 256l-50 315q-144 45 -271 126.5t-200 177t-73 183.5q-63 -27 -84 -122q-10 -64 -28 -86.5t-48 -22.5q-26 0 -48 27.5
t-22 77.5q0 49 39 100t103 87l150 84q91 80 136 120.5t45 53.5q0 14 -22.5 16.5t-53.5 2.5h-22l-461 -176l-22 56l200 119l217 131q95 95 192 95q68 0 121 -47.5t53 -122.5q0 -84 -73 -157l-145 -143q-45 -45 -45 -53q0 -7 7 -7l77 28q50 19 114.5 32.5t115.5 13.5
q113 0 267 -59q15 61 79 116q121 105 142.5 125.5t18.5 29.5q0 14 -23 16.5t-53 2.5h-22l-461 -176l-22 56l200 119l217 131q95 95 192 95q68 0 121 -47.5t53 -122.5q0 -84 -73 -157l-145 -143q-45 -45 -45 -53q0 -7 7 -7l78 27q130 47 229 47q113 0 267 -59q15 61 79 116
q121 105 142.5 125.5t18.5 29.5zM2937 96l-183 -32l-4 -29l74 7l114 7q32 0 140 -9l-4 31l-98 33l7 246l-78 267l-49 172l46 19q50 -33 112 -33l55 4l44 5q23 5 40 5q45 0 127 -26l148 -60l133 88l-36 38l-152 -4q-154 0 -409 19q-181 13 -381.5 62t-326 114.5t-125.5 124.5
q0 44 29 81.5t80 57.5l11 -34q-36 -15 -58 -43t-22 -62q0 -49 118 -105t310.5 -99t365.5 -57q57 -4 128 -8t148 -7.5t326 -4.5l-354 171h1q-26 12 -112 64q-167 104 -269 155t-198.5 82t-180.5 31q-47 0 -103 -10.5t-172 -49.5q-24 -10 -39 -10q-40 0 -40 43q0 23 55 78
l145 143q62 62 62 135q0 55 -38.5 91t-94.5 36q-76 0 -152 -70q4 -39 30 -74l22 1q51 0 81.5 -17.5t30.5 -43.5q0 -22 -19.5 -43t-37.5 -37l-122 -106q-30 -27 -47 -60t-17 -61q0 -78 71.5 -173.5t194 -173.5t269.5 -122q11 -11 37 -36t60 -58t71.5 -71t72 -74t61.5 -67
t40 -50q52 -81 52 -175zM488 1357q-10 -27 -10 -59q0 -66 79 -160.5t204 -175t252 -119.5q11 -11 37 -36t60 -58t71.5 -71t72 -74t61.5 -67t40 -50q52 -81 52 -175l9 -208l40 7l7 239l-78 267l-49 172l46 19q50 -33 112 -33q42 0 99 9l40 5q31 0 69.5 -10t46.5 -13l-7 47
l-45 15q-56 2 -253 16q-181 13 -381.5 62t-326 114.5t-125.5 124.5q0 44 29 81.5t80 57.5l11 -34q-36 -15 -58 -43t-22 -62q0 -37 69.5 -79t196.5 -81.5t288.5 -69t381.5 -41.5q-178 86 -284 203t-106 230q-149 60 -263 60q-47 0 -103 -10.5t-172 -49.5q-24 -10 -39 -10
q-40 0 -40 43q0 23 55 78l145 143q62 62 62 135q0 55 -38.5 91t-94.5 36q-76 0 -152 -70q4 -39 30 -74l22 1q51 0 81.5 -17.5t30.5 -43.5q0 -23 -25.5 -49.5t-148.5 -132.5l-24 -23l-151 -83q-56 -31 -90 -74.5t-34 -82.5q0 -32 9 -48.5t21 -16.5q13 0 21.5 15t14.5 59
q11 63 53 110t121 64zM2223 350l-78 267l-49 172l46 19q50 -33 112 -33q42 0 99 9l40 5q31 0 69.5 -10t46.5 -13l-7 47l-45 15q-56 2 -253 16q-181 13 -381.5 62t-326 114.5t-125.5 124.5q0 44 29 81.5t80 57.5l11 -34q-36 -15 -58 -43t-22 -62q0 -37 69.5 -79t196.5 -81.5
t288.5 -69t381.5 -41.5q-178 86 -284 203t-106 230q-149 60 -263 60q-47 0 -103 -10.5t-172 -49.5q-24 -10 -39 -10q-40 0 -40 43q0 23 55 78l145 143q62 62 62 135q0 55 -38.5 91t-94.5 36q-76 0 -152 -70q4 -39 30 -74l22 1q51 0 81.5 -17.5t30.5 -43.5q0 -22 -19.5 -43
t-37.5 -37l-122 -106q-30 -27 -47 -60t-17 -61q0 -78 71.5 -173.5t194 -173.5t269.5 -122q11 -11 37 -36t60 -58t71.5 -71t72 -74t61.5 -67t40 -50q52 -81 52 -175l9 -208l40 7zM1792 498l-36 226q-12 3 -28 7.5t-33.5 8.5t-33.5 6.5t-28 2.5l-14 -1q-71 -13 -125 -13
q-86 7 -115 31q22 -83 124 -415l-7 -232q55 14 68.5 20t28.5 22t37.5 51t161.5 286zM2552 498l-36 226q-12 3 -28 7.5t-33.5 8.5t-33.5 6.5t-28 2.5l-14 -1q-71 -13 -125 -13q-86 7 -115 31q22 -83 124 -415l-7 -232q55 14 68.5 20t28.5 22t37.5 51t161.5 286zM1396 35l74 7
l114 7q32 0 140 -9l-4 31l-13 8l-36 14q-17 5 -17 17q0 9 12 27l206 332l59 168l-142 141l45 -285l-158 -286q-43 -82 -83 -98q-51 -23 -193 -45zM636 35l74 7l114 7q32 0 140 -9l-4 31l-13 8l-36 14q-17 5 -17 17q0 9 12 27l206 332l59 168l-142 141l45 -285l-158 -286
q-43 -82 -83 -98q-51 -23 -193 -45zM2156 35l74 7l114 7q32 0 140 -9l-4 31l-13 8l-36 14q-17 5 -17 17q0 9 12 27l206 332l59 168l-142 141l45 -285l-158 -286q-43 -82 -83 -98q-51 -23 -193 -45zM1660 1496l412 172q-16 25 -26 59q-74 -46 -394 -216zM900 1496l412 172
q-16 25 -26 59q-74 -46 -394 -216zM140 1496l412 172q-16 25 -26 59q-74 -46 -394 -216zM2100 82l-106 -18l-4 -29l70 6q16 25 40 41zM1340 82l-106 -18l-4 -29l70 6q16 25 40 41zM2191 1788q12 0 20 -8.5t8 -19.5t-8 -19.5t-20 -8.5q-11 0 -19 8.5t-8 19.5t8 19.5t19 8.5z
M1404 1760q0 11 8 19.5t19 8.5q12 0 20 -8.5t8 -19.5t-8 -19.5t-20 -8.5q-11 0 -19 8.5t-8 19.5zM644 1760q0 11 8 19.5t19 8.5q12 0 20 -8.5t8 -19.5t-8 -19.5t-20 -8.5q-11 0 -19 8.5t-8 19.5zM3165 1q-20 43 -58 57l3 -24q30 -8 55 -33zM2571 1q-20 43 -58 57l3 -24
q30 -8 55 -33zM1051 1q-20 43 -58 57l3 -24q30 -8 55 -33zM1811 1q-20 43 -58 57l3 -24q30 -8 55 -33zM608 58q-17 -6 -33.5 -22t-24.5 -35q25 25 55 33zM1962 58q-17 -6 -33.5 -22t-24.5 -35q25 25 55 33zM2722 58q-17 -6 -33.5 -22t-24.5 -35q25 25 55 33zM1368 58
q-17 -6 -33.5 -22t-24.5 -35q25 25 55 33zM1202 58q-17 -6 -33.5 -22t-24.5 -35q25 25 55 33zM2128 58q-17 -6 -33.5 -22t-24.5 -35q25 25 55 33z" />
  </g>

</svg>
