<?xml version="1.0" standalone="no"?>
<!DOCTYPE svg PUBLIC "-//W3C//DTD SVG 1.1//EN" "http://www.w3.org/Graphics/SVG/1.1/DTD/svg11.dtd" >
<svg xmlns="http://www.w3.org/2000/svg" xmlns:xlink="http://www.w3.org/1999/xlink" version="1.1" viewBox="-10 0 2600 2048">
  <g transform="matrix(1 0 0 -1 0 1638)">
   <path fill="currentColor"
d="M1052 516l29 -196q-81 17 -208.5 85t-206.5 136q-188 30 -343.5 77t-208.5 85l19 56l-33 59l363 242q86 59 309 173q197 101 244 151l26 -21q-42 -82 -42 -186q0 -40 6 -81l130 -39l106 -34l502 -151q106 -33 199 -33q79 0 263.5 53.5t259.5 94.5l24 -27
q-156 -211 -171 -238q11 -23 66.5 -106.5t98.5 -139.5l-22 -27l-105 61q-234 141 -382 141l61 -128q-4 -20 -26 -32t-51 -12q-26 0 -62 8.5t-89.5 28t-233.5 85.5l-34 -7q-92 -22 -234.5 -46.5t-253.5 -31.5zM152 804l21 -45l-16 -40q98 -58 333 -109l146 94l-28 47l37 36
l-50 61l32 24l73 -89l-40 -40l32 -51l-145 -93q237 -46 411 -46q101 0 247 19t295 53q146 31 279.5 48.5t205.5 17.5q42 0 92 -13q11 30 11 63q0 42 -13 76q-88 -18 -132 -18q-77 0 -185 28t-528 158q-217 71 -328 96t-181 25q-30 0 -55.5 -3.5t-56.5 -13t-60.5 -26.5
t-396.5 -259zM2407 915q-145 -55 -293 -90q14 -44 14 -84t-12 -73q73 -23 144.5 -61.5t133.5 -73.5q-107 157 -119 191q29 53 132 191zM746 795q50 22 87 22q63 0 291 -71v-42q-90 -59 -178 -59q-69 0 -210 47l16 38q41 -15 102 -30t92 -15q80 0 135 34q-17 5 -49 15
t-68.5 19.5t-72 16.5t-58.5 7q-32 0 -71 -18zM1932 649q-117 -6 -278 -33q201 -76 241 -86.5t64 -10.5q18 0 31 8zM721 1146q94 0 243 -39q-4 39 -4 77q0 67 19 125q-96 -64 -276 -164zM958 513q-96 0 -214 16q65 -48 148.5 -93t140.5 -62l-21 140l-27 -1h-27zM348 879
q0 21 15 36t36 15t36 -15t15 -36t-15 -36t-36 -15t-36 15t-15 36zM377 879q0 -8 7 -15t15 -7t15 7t7 15t-7 15t-15 7t-15 -7t-7 -15z" />
  </g>

</svg>
