<?xml version="1.0" standalone="no"?>
<!DOCTYPE svg PUBLIC "-//W3C//DTD SVG 1.1//EN" "http://www.w3.org/Graphics/SVG/1.1/DTD/svg11.dtd" >
<svg xmlns="http://www.w3.org/2000/svg" xmlns:xlink="http://www.w3.org/1999/xlink" version="1.1" viewBox="-10 0 2819 2048">
  <g transform="matrix(1 0 0 -1 0 1638)">
   <path fill="currentColor"
d="M2511 222q96 0 147 -55t51 -155q0 -97 -54 -153.5t-144 -56.5h-2213q-90 0 -144 56.5t-54 153.5q0 100 51 155t147 55h2213zM298 182q-77 0 -117.5 -45t-40.5 -125q0 -78 43 -124t115 -46h2213q73 0 115.5 46t42.5 124q0 80 -40.5 125t-117.5 45h-2213z" />
  </g>

</svg>
