<?xml version="1.0" standalone="no"?>
<!DOCTYPE svg PUBLIC "-//W3C//DTD SVG 1.1//EN" "http://www.w3.org/Graphics/SVG/1.1/DTD/svg11.dtd" >
<svg xmlns="http://www.w3.org/2000/svg" xmlns:xlink="http://www.w3.org/1999/xlink" version="1.1" viewBox="-10 0 1836 2048">
  <g transform="scale(1, -1)" transform-origin="center">
   <path fill="currentColor"
d="M178 455h169q1 66 17.5 125.5t55.5 126.5l2 2l-322 1112l102 30l322 -1112q75 -42 133.5 -100.5t90.5 -121.5q9 72 30 116.5t38 73.5l2 2l-322 1112l102 30l322 -1112q75 -42 133.5 -100.5t90.5 -121.5q9 72 30 116.5t38 73.5l2 2l-322 1112l102 30l322 -1112
q98 -56 161.5 -130t87.5 -154h161v-112h-146q-2 -99 -54 -156.5t-138 -57.5q-59 0 -118.5 40.5t-94.5 105.5q-18 -72 -67.5 -109t-115.5 -37q-59 0 -118.5 40.5t-94.5 105.5q-18 -72 -67.5 -109t-115.5 -37q-47 0 -97 27.5t-87.5 75t-53.5 111.5h-180v112zM464 705l-12 -22
l1 2q-37 -61 -51 -114.5t-15 -115.5h344q-24 75 -90 144t-151 112l-316 1091l-25 -8zM860 705l-12 -22l1 2q-37 -61 -51 -114.5t-15 -115.5h344q-24 75 -90 144t-151 112l-316 1091l-25 -8zM1256 705l-12 -22l1 2q-37 -61 -51 -114.5t-15 -115.5h344q-24 75 -90 144
t-151 112l-316 1091l-25 -8zM992 169q68 0 109 46.5t43 127.5h-349q21 -75 78.5 -124.5t118.5 -49.5zM1388 169q68 0 109 46.5t43 127.5h-349q21 -75 78.5 -124.5t118.5 -49.5zM596 169q68 0 109 46.5t43 127.5h-349q21 -73 77.5 -123.5t119.5 -50.5zM218 415v-32h1468v32
h-1468z" />
  </g>

</svg>
