<?xml version="1.0" standalone="no"?>
<!DOCTYPE svg PUBLIC "-//W3C//DTD SVG 1.1//EN" "http://www.w3.org/Graphics/SVG/1.1/DTD/svg11.dtd" >
<svg xmlns="http://www.w3.org/2000/svg" xmlns:xlink="http://www.w3.org/1999/xlink" version="1.1" viewBox="-10 0 3030 2048">
  <g transform="matrix(1 0 0 -1 0 1638)">
   <path fill="currentColor"
d="M954 1654l263 195v-1q27 43 74 72t106 29q84 0 133.5 -53.5t49.5 -143.5q0 -31 -21 -86.5t-89 -183.5q-42 -77 -42 -81q0 -30 35 -30q36 0 98 15q63 15 104 15q74 0 144.5 -20.5t138.5 -54.5t180 -109l360 -237q63 -43 210 -111.5t222 -87.5l-45 -64l-184 34l139 -64
l-136 -116q-173 54 -468 54q-52 0 -134 24l23 -73q-34 -191 -34 -269q0 -104 26 -176l35 -110l-36 -13l-29 40l-31 -17q-62 -37 -86 -37q-71 0 -124 15q-52 15 -89 15q-19 0 -46 -9t-44 -20h-58l8 24q-39 -25 -81 -25q-71 0 -109 15q-37 15 -74 15q-19 0 -46 -9t-44 -20h-58
q4 21 16 42q-74 -43 -105 -43q-71 0 -124 15q-52 15 -89 15q-19 0 -46 -9t-44 -20h-58l8 24q-39 -25 -81 -25q-71 0 -109 15q-37 15 -74 15q-19 0 -46 -9t-44 -20h-58q16 49 42.5 82t98 47.5t128.5 14.5q59 2 91.5 34t52.5 90l95 274q-93 186 -111 228q-172 93 -253 158
t-125 136t-44 154q0 51 47 149l126 264h-9q-25 0 -52 9l-318 -8l-10 27l263 195v-1q27 43 74 72t106 29q84 0 133.5 -53.5t49.5 -143.5q0 -31 -21 -86.5t-89 -183.5q-42 -77 -42 -81q0 -30 35 -30q36 0 98 15q63 15 104 15q165 0 370 -124q5 15 11 30t151 319h-9
q-25 0 -52 9l-318 -8zM2006 174q-57 -69 -159 -72q-47 -1 -102.5 -15.5t-71.5 -31t-24 -33.5l15 9q46 28 92 28h9l16 -2q55 32 141 32h20v-26l-21 1q-41 0 -86 -16q70 -14 125 -14q17 0 52 17.5t66 40.5q-23 74 -30 110.5t-7 82.5q0 57 11 157.5t21 132.5l-45 142l73 -26
q81 -26 125 -26q295 0 460 -55l71 67l-224 104q-482 92 -695 139q-94 20 -210.5 73.5t-173.5 106.5t-57 102q0 28 16.5 58.5t39.5 50.5l26 -30q-42 -38 -42 -79t51 -84.5t154 -89t193.5 -66.5t1021.5 -209l4 8q-71 24 -199.5 82t-195.5 103l-360 238q-120 79 -181.5 109
t-126 49t-133.5 19q-46 0 -106 -15t-96 -15q-45 0 -60 19.5t-15 50.5q0 18 46 101v-1q16 31 35 67t34.5 70.5t26 64.5t10.5 49q0 71 -38.5 114t-104.5 43q-69 0 -119 -49t-50 -107q0 -40 42 -66.5t98 -26.5q24 0 39 5l-128 -265q-69 -138 -69 -187q0 -80 51 -155t147 -142
t289 -165q129 -66 200.5 -116.5t96.5 -95.5zM543 1202q0 28 16.5 58.5t39.5 50.5l26 -30q-42 -38 -42 -79q0 -42 54 -87t161.5 -91t193.5 -64l416 -87q-238 157 -238 340v11l1 12q-112 68 -197.5 96.5t-162.5 28.5q-46 0 -106 -15t-96 -15q-45 0 -60 19.5t-15 50.5
q0 18 46 101v-1q16 31 35 67t34.5 70.5t26 64.5t10.5 49q0 71 -38.5 114t-104.5 43q-69 0 -119 -49t-50 -107q0 -40 42 -66.5t98 -26.5q24 0 39 5l-128 -265q-69 -138 -69 -187q0 -80 51 -155t147 -142t289 -165q129 -66 200.5 -116.5t96.5 -95.5l12 -365q-57 -69 -159 -72
q-47 -1 -102.5 -15.5t-71.5 -31t-24 -33.5l15 9q46 28 92 28h9l16 -2q55 32 141 32h20v-26l-21 1q-41 0 -86 -16q70 -14 125 -14q17 0 52 17.5t66 40.5q-23 74 -30 110.5t-7 82.5q0 57 11 157.5t21 132.5l-45 142l73 -26q81 -26 125 -26q155 0 274 -16q-34 66 -54 116
l-91 50q-494 95 -586.5 124t-184.5 75t-139.5 94.5t-47.5 93.5zM1703 537l-36 71q-134 17 -295 17q-52 0 -134 24l23 -73q-34 -190 -34 -274q0 -62 8 -101t30 -100q37 18 96 28t103 10q59 2 91.5 34t52.5 90zM1695 112q69 22 153 27q44 3 69.5 15.5t47.5 33.5l-11 334
q-29 38 -85 81q-26 -80 -101 -256q-59 -138 -73 -235zM841 112q69 22 153 27q44 3 69.5 15.5t47.5 33.5l-11 334q-29 38 -85 81q-26 -80 -101 -256q-59 -138 -73 -235zM391 22l15 9q46 28 92 28l45 -2q55 32 141 32h20v-26l-21 1q-41 0 -86 -16l24 -5q31 -9 68 -9
q43 0 111 65q8 68 28.5 131.5t47 127.5t54.5 130t51 139q-74 49 -186 108q16 -35 98 -195l-104 -298q-34 -80 -75 -110.5t-104 -32.5q-27 0 -73.5 -7t-78.5 -15.5t-47 -25.5t-20 -29zM1245 22l15 9q46 28 92 28l45 -2q55 32 141 32h20v-26l-21 1q-41 0 -86 -16l24 -5
q31 -9 68 -9q43 0 111 65q8 68 28.5 131.5t47 127.5t54.5 130t51 139q-74 49 -186 108q16 -35 98 -195l-104 -298q-34 -80 -75 -110.5t-104 -32.5q-27 0 -73.5 -7t-78.5 -15.5t-47 -25.5t-20 -29zM490 1847q21 0 35.5 -14.5t14.5 -35.5q0 -22 -14.5 -37t-35.5 -15
q-22 0 -37 15t-15 37q0 21 15 35.5t37 14.5zM1344 1847q21 0 35.5 -14.5t14.5 -35.5q0 -22 -14.5 -37t-35.5 -15q-22 0 -37 15t-15 37q0 21 15 35.5t37 14.5zM334 1753q0 19 4 35l-143 -103l140 47l-1 11v10zM1188 1753q0 19 4 35l-143 -103l140 47l-1 11v10zM347 1698
l-117 -33l142 2q-15 13 -25 31zM1201 1698l-117 -33l142 2q-15 13 -25 31zM1344 1778q18 0 18 19q0 18 -18 18q-19 0 -19 -18q0 -19 19 -19zM490 1778q18 0 18 19q0 18 -18 18q-19 0 -19 -18q0 -19 19 -19z" />
  </g>

</svg>
