<?xml version="1.0" standalone="no"?>
<!DOCTYPE svg PUBLIC "-//W3C//DTD SVG 1.1//EN" "http://www.w3.org/Graphics/SVG/1.1/DTD/svg11.dtd" >
<svg xmlns="http://www.w3.org/2000/svg" xmlns:xlink="http://www.w3.org/1999/xlink" version="1.1" viewBox="-10 0 1975 2048">
  <g transform="matrix(1 0 0 -1 0 1638)">
   <path fill="currentColor"
d="M704 566q0 96 59.5 170.5t150.5 97.5v299h-26q-98 0 -150.5 46.5t-52.5 131.5q0 84 52.5 130.5t150.5 46.5h26v266q0 66 31.5 121t86.5 82.5t132 27.5q73 0 125 -32.5t52 -77.5q0 -27 -18 -46t-40 -19q-15 0 -38 15q-39 26 -81 26q-54 0 -86 -31.5t-32 -95.5v-890
q90 -22 150 -97.5t60 -170.5q0 -78 -38.5 -141t-101.5 -99l37 8q130 26 187 53.5t89 64.5t54.5 112.5t50.5 205.5q52 259 69 318.5t51.5 118t77 105.5t82.5 73l51 -42q-43 -46 -84.5 -118t-62 -141.5t-40.5 -213.5l-18 -132q-20 -140 -48.5 -238t-84.5 -164.5t-159 -115.5
q-64 -30 -109.5 -89t-59.5 -131h-433q-13 72 -58.5 130.5t-110.5 89.5q-135 62 -200 175q-57 94 -91 343q-35 246 -49 305.5t-38 113.5t-57 104.5t-62 81.5l51 42q66 -44 124.5 -124.5t81.5 -155.5q21 -72 50 -214q47 -232 71 -315.5t55.5 -121t88.5 -65.5t165 -50l53 -11
q-61 36 -98.5 99t-37.5 139zM744 566q0 -98 68.5 -167t167.5 -69q98 0 167 68.5t69 167.5q0 98 -68.5 167t-167.5 69q-98 0 -167 -68.5t-69 -167.5zM980 842l26 -2v889q0 80 41 121t113 41q57 0 100 -31q14 -9 19 -9q8 0 15 6.5t7 17.5q0 30 -41.5 50t-95.5 20
q-98 0 -154 -51.5t-56 -144.5v-297h-61q-83 0 -125.5 -37t-42.5 -104q0 -68 43.5 -105.5t124.5 -37.5h61v-328zM963 183q0 38 -37 65.5t-121 45.5q-126 26 -175.5 46.5t-88 50.5t-63.5 75q-45 80 -116 434q-34 170 -48 211t-43 88.5t-62.5 84.5t-63.5 57q83 -95 118.5 -184
t62.5 -282q33 -240 55.5 -327.5t49.5 -132.5q60 -102 184 -159q71 -34 119.5 -91.5t64.5 -124.5h164v143zM1002 40h164q16 66 64 123.5t120 92.5q124 57 184 159q28 48 50.5 137.5t54.5 322.5q21 149 41 218t50.5 124.5t89.5 123.5q-54 -37 -105 -109.5t-69 -136.5
q-12 -39 -43 -195q-71 -354 -116 -434q-24 -44 -62 -74t-85.5 -50t-150.5 -42q-111 -23 -149 -50.5t-38 -66.5v-143zM954 1198h-72q-61 0 -94 30t-33 83q0 51 32 81t95 30h72v-224zM795 1311q0 -37 24.5 -57.5t67.5 -20.5h27v153h-27q-45 0 -68.5 -19.5t-23.5 -55.5z
M982 254q16 23 44 40l-46 -4l-40 3q29 -19 42 -39z" />
  </g>

</svg>
