<?xml version="1.0" standalone="no"?>
<!DOCTYPE svg PUBLIC "-//W3C//DTD SVG 1.1//EN" "http://www.w3.org/Graphics/SVG/1.1/DTD/svg11.dtd" >
<svg xmlns="http://www.w3.org/2000/svg" xmlns:xlink="http://www.w3.org/1999/xlink" version="1.1" viewBox="-10 0 2449 2048">
  <g transform="matrix(1 0 0 -1 0 1638)">
   <path fill="currentColor"
d="M600 1069h78l135 742v-1q8 43 36 64.5t66 21.5q45 0 74 -34q29 34 79 34q45 0 74 -34q29 34 79 34q45 0 74 -34q29 34 79 34q45 0 74 -34q29 34 79 34q45 0 74 -34q29 34 79 34q45 0 74 -34q29 34 79 34q39 0 65.5 -25t26.5 -56l-1 -12l-134 -734h69v-63
q108 -22 194 -82.5t147.5 -149t100 -208.5t38.5 -218t-22 -168t-60 -107.5t-86 -37.5q-64 0 -105 52.5t-41 140.5q0 42 18 129q20 95 20 150q0 154 -53 254t-151 123v-35h-138v-98h-292v98h-414v-98h-292v98h-123v38q-104 -16 -164 -117t-60 -263q0 -55 20 -150
q18 -87 18 -129q0 -87 -40.5 -140t-105.5 -53q-75 0 -121.5 85.5t-46.5 227.5q0 92 39.5 214.5t104 213t153.5 151t203 82.5v60zM1469 889v-98h212v98h138v140h-1179v-140h123v-98h212v98h494zM2299 348q0 86 -33.5 197t-90 195t-136 142.5t-180.5 81.5v-39
q114 -22 179 -132t65 -286q0 -65 -20 -158q-18 -82 -18 -121q0 -69 29.5 -111t76.5 -42q57 0 92.5 75t35.5 198zM336 507q0 180 71.5 293t192.5 128v39q-130 -27 -231 -113.5t-165 -233.5t-64 -272q0 -124 36 -198.5t92 -74.5q47 0 76.5 42.5t29.5 110.5q0 39 -18 121
q-20 93 -20 158zM719 1069h112l135 748q0 15 -14 27t-37 12t-40 -13.5t-22 -39.5zM1178 1069h112l135 748q0 15 -14 27t-37 12t-40 -13.5t-22 -39.5zM1331 1069h112l135 748q0 15 -14 27t-37 12t-40 -13.5t-22 -39.5zM1637 1069h112l135 748q0 15 -14 27t-37 12t-40 -13.5
t-22 -39.5zM872 1069h112l135 748q0 15 -14 27t-37 12t-40 -13.5t-22 -39.5zM1025 1069h112l135 748q0 15 -14 27t-37 12t-40 -13.5t-22 -39.5zM1484 1069h112l135 748q0 15 -14 27t-37 12t-40 -13.5t-22 -39.5z" />
  </g>

</svg>
