<?xml version="1.0" standalone="no"?>
<!DOCTYPE svg PUBLIC "-//W3C//DTD SVG 1.1//EN" "http://www.w3.org/Graphics/SVG/1.1/DTD/svg11.dtd" >
<svg xmlns="http://www.w3.org/2000/svg" xmlns:xlink="http://www.w3.org/1999/xlink" version="1.1" viewBox="-10 0 2446 2048">
  <g transform="matrix(1 0 0 -1 0 1638)">
   <path fill="currentColor"
d="M514 2006q125 0 199.5 -59t74.5 -161q0 -75 -15 -138q-7 -33 -7 -47q0 -64 29 -137.5t78 -124.5t106 -61q131 156 313.5 280t379 184.5t398.5 60.5q92 0 234 -32q0 -35 -6 -69q18 -4 38 -12q-9 -100 -55.5 -182t-117.5 -149.5t-163 -122t-194.5 -100t-342.5 -127.5
l-56 -18q12 -54 80.5 -145t176.5 -195q40 10 79 10q96 0 96 -160l1 -18l-1 -15q43 -26 74 -66t31 -75q0 -45 -29.5 -70t-83.5 -25q-15 0 -58.5 20t-70.5 36q-110 -50 -141 -50q-35 0 -60.5 40.5t-37.5 98.5q-2 9 -6 12q-40 30 -108 64q-85 -102 -152 -145
q-126 -81 -139 -92.5t-64 -83.5l-36 -53l-189 -160l-8 -37l-36 6l9 41l-15 31l-37 14l-1 -1l-42 -66l-30 20l17 28l-121 39l-24 -25l-26 26l64 67l-1 34v21l191 93q35 70 64 102q57 63 137 169l-14 220q-62 25 -156 126.5t-121 179.5q-31 95 -51 289q-20 179 -37 210
q-42 72 -152 189q-30 30 -53 84l-193 204q-21 23 -21 41v5l1 4l2 5q-15 20 -15 36q0 36 43 36q15 0 35 -9l42 -21q56 -30 128 -50.5t117 -26.5zM995 1235q-66 5 -126.5 56t-101.5 141t-41 169q0 25 7 55q15 63 15 130q0 82 -62.5 131t-171.5 49q-161 0 -161 -117
q0 -32 16 -66t39 -60l61 -67q89 -103 105 -152t34 -204q24 -207 49 -281q24 -62 99 -146t138 -122l-1 23l39 2l16 -306q-121 -160 -145 -184q-31 -36 -65 -104l-184 -85l6 -52l-28 -26l110 -31l80 109q31 16 59 37t35.5 55.5t7.5 62.5q109 106 166 150q64 52 189 193l29 -22
l-17 -19q74 -23 160.5 -62t129.5 -72q10 -8 15 -21q27 -83 39 -102t24 -19q30 0 145 56q30 -18 72.5 -40t54.5 -22q73 0 73 55q0 50 -107 120l2 31v23q0 120 -56 120q-9 0 -58 -7l-31 -7q-127 119 -205 226.5t-85 184.5l43 15q273 91 419.5 161t243.5 143.5t154 155
t69 172.5q-45 16 -145 16q-175 0 -378 -64t-387 -182q-182 -117 -234 -146t-88 -41.5t-66 -12.5zM2148 1721q62 0 113 -11l4 29q-32 9 -92 16.5t-103 7.5q-189 0 -375 -55.5t-360.5 -169t-302.5 -260.5q59 19 235 131q200 129 335 188t277 91.5t269 32.5zM706 7l42 -20
l14 -27l165 146l36 51l58 77q22 24 109 79q64 38 80 53q58 49 100 105q-80 36 -145 54l-43 -47l-12 -109l-203 -199l-58 -13q-13 -44 -102 -93zM861 201l28 5l183 181l6 44q-43 -45 -64 -61q-51 -40 -150 -136zM551 1821q0 19 13 32t32 13t32 -13t13 -32t-13 -32t-32 -13
t-32 13t-13 32zM142 2069l197 -128q15 22 44 38l-111 33l-36 15l-34 17q-52 26 -59 26zM313 1854q0 29 8 53l-169 116l3 -3z" />
  </g>

</svg>
