<?xml version="1.0" standalone="no"?>
<!DOCTYPE svg PUBLIC "-//W3C//DTD SVG 1.1//EN" "http://www.w3.org/Graphics/SVG/1.1/DTD/svg11.dtd" >
<svg xmlns="http://www.w3.org/2000/svg" xmlns:xlink="http://www.w3.org/1999/xlink" version="1.1" viewBox="-10 0 1380 2048">
  <g transform="matrix(1 0 0 -1 0 1638)">
   <path fill="currentColor"
d="M896 1148q-49 35 -49 139l5 115q0 61 -75 91l5 56l34 3q93 0 242 -40t212 -88l-15 -60l-20 1q-75 0 -96 -36l-14 -29q-64 -160 -146 -174l-238 -931h61l111 -397h-456l111 397h61l-238 931q-82 14 -146 174l-14 29q-21 36 -96 36l-20 -1l-15 60q51 44 205.5 86t248.5 42
l34 -3l5 -56q-75 -29 -75 -91l6 -115q0 -104 -50 -139l168 -657v1172q-72 29 -93 172l-5 33q-5 36 -19 51.5t-38.5 26t-53.5 15.5v63q71 32 252 32t252 -32l-9 -55q-37 -5 -62.5 -23.5t-32.5 -47.5l-6 -30q-17 -102 -40.5 -146t-58.5 -59v-1172zM862 -162l-90 317h-174
l-90 -317h354zM685 2016q-114 0 -212 -17v-6l26 -8q61 -20 76 -77l14 -66q13 -85 36.5 -116t59.5 -31q28 0 45.5 15.5t27.5 38.5t23 93l14 66q12 53 102 87v2q-76 19 -212 19zM144 1411l1 -6q90 0 120 -58l30 -60q27 -60 43.5 -81.5t34 -31t32.5 -9.5q79 0 79 107l-5 113
q0 39 13 61t29 37.5t35 27.5v2q-72 0 -201 -32t-211 -70zM676 1655v-1460h18v1460h-18zM426 1127l216 -846v70l-199 781zM814 1513v-2q19 -13 34.5 -28.5t29.5 -37.5t14 -60l-6 -109q0 -111 79 -111q28 0 53 24.5t57 97.5l30 60q30 58 120 58l1 6q-72 34 -203.5 68
t-208.5 34zM927 1132l-199 -781v-70l216 846z" />
  </g>

</svg>
