<?xml version="1.0" standalone="no"?>
<!DOCTYPE svg PUBLIC "-//W3C//DTD SVG 1.1//EN" "http://www.w3.org/Graphics/SVG/1.1/DTD/svg11.dtd" >
<svg xmlns="http://www.w3.org/2000/svg" xmlns:xlink="http://www.w3.org/1999/xlink" version="1.1" viewBox="-10 0 1677 2048">
  <g transform="matrix(1 0 0 -1 0 1638)">
   <path fill="currentColor"
d="M732 1423l49 21q47 -88 127.5 -156.5t183.5 -130.5q-40 -57 -66 -128.5t-26 -135.5q0 -61 21.5 -134t56 -137t88 -130.5t102.5 -110t107 -75t192 -77.5l-21 -81q-213 18 -456 105.5t-426 213t-283.5 282t-108.5 329.5l-146 459l-26 76l49 22q50 -85 134 -167t190 -141
q-39 -59 -62.5 -126t-23.5 -125q0 -132 97.5 -279.5t297.5 -279.5q-116 145 -177 337t-61 443v22l-1 18v-2q-25 124 -69 297l-44 177l51 18q41 -73 130.5 -156.5t194.5 -147.5q-69 -69 -108.5 -152.5t-39.5 -162.5q0 -141 42 -288.5t104.5 -250t153 -184.5t187.5 -127
q-114 107 -176.5 235.5t-83.5 300.5q-76 288 -153 529zM1266 308l-17 -33q-124 39 -237 119t-199 191.5t-140.5 284.5t-54.5 338q0 141 127 307q-71 45 -141 101.5t-120 132.5l28 -107q54 -213 71 -297l1 -20v-28q0 -208 40 -366.5t113.5 -280t173.5 -210.5l-22 -32
q-147 76 -276.5 186.5t-197.5 240t-68 241.5q0 48 18.5 111.5t50.5 126.5q-142 83 -245 216l141 -445q9 -153 94 -299t259 -272t410.5 -214t440.5 -109l3 12q-147 50 -228 108t-159 157.5t-125 212.5t-47 214q0 103 75 250q-157 96 -236 196q15 -48 31.5 -103.5t92.5 -334.5
q25 -201 105 -337.5t238 -257.5z" />
  </g>

</svg>
