<?xml version="1.0" standalone="no"?>
<!DOCTYPE svg PUBLIC "-//W3C//DTD SVG 1.1//EN" "http://www.w3.org/Graphics/SVG/1.1/DTD/svg11.dtd" >
<svg xmlns="http://www.w3.org/2000/svg" xmlns:xlink="http://www.w3.org/1999/xlink" version="1.1" viewBox="-10 0 2171 2048">
  <g transform="matrix(1 0 0 -1 0 1638)">
   <path fill="currentColor"
d="M503 1617q0 44 17 95q-42 -7 -67 -7q-52 0 -160.5 22t-134.5 37l-18 -22h-40v64q0 41 37 82t83 47q153 22 203 40q56 20 80.5 27t49.5 7q82 0 128.5 -39.5t46.5 -104.5v-5q59 56 126 56q42 0 110 -35t189 -126l70 -54l57 -41l63 -39q186 -111 273.5 -174.5t134 -115.5
t106 -168t120.5 -276t61 -194q0 -48 -48 -92q25 -92 48 -299.5t23 -277.5h-98l-59 62v-86h-254q0 53 -17.5 201t-32.5 187l-97 102l-86 -236l-103 61l-11 -102l-7 -53l223 -1l63 -159h-95l-21 23l-34 -23h-361l-21 21l-39 -21h-186l-15 18l-29 -18h-150l-35 23l-33 -23h-96
l-29 40l-29 -40h-59l94 126l77 34h314q110 326 110 561q0 148 -43 324q-26 75 -58.5 131t-59.5 84t-105 72q-176 99 -176 285zM1180 104v-39h-70l-25 -18l7 -7h329l45 21l35 -21h27l-35 80h-242l29 261l115 -69l88 240l221 -211q238 -233 277 -277h40q-3 86 -26 262t-43 261
q-38 13 -64 33t-30 40q-54 180 -138 358t-158 244q-78 69 -160 131t-165 118.5t-152.5 118.5t-123.5 99t-86 40q-46 0 -81.5 -49.5t-35.5 -100.5q0 -52 30 -132q-70 14 -105 54.5t-35 93.5q0 30 12.5 81t27.5 87v62q0 47 -36 75.5t-99 28.5q-28 0 -78 -18
q-47 -17 -58.5 -20.5t-68.5 -15.5h1q-17 -27 -17 -54q0 -19 18 -37l63 -19l-12 -34q-84 30 -143 30q-40 0 -57 -6q150 -50 252 -50q95 0 153 40l19 -26q-17 -17 -56 -33q-26 -52 -26 -109q0 -86 43 -149.5t125 -107.5q74 -41 107 -79t69.5 -105.5t52.5 -117.5l100 -86
q34 -56 90.5 -223.5t78.5 -264.5l1 1q28 -102 28 -172q0 -65 -16 -107t-55 -86h-259l88 309l87 -95l93 111q-17 94 -80.5 278t-88.5 226l-52 43q30 -141 30 -271q0 -129 -32 -286.5t-91 -314.5h-334l-48 -24l-16 -23l28 -33h60l29 22v1l56 41h87v-39h-70l-23 -17l12 -8h126
l53 38v-1l38 27h84v-39h-70l-35 -25h161l37 23l59 41h84zM854 1876q-71 0 -118.5 -70.5t-47.5 -170.5q0 -58 38 -86q-8 32 -8 70q0 40 22.5 86t58 75t76.5 29q23 0 52.5 -14t64 -39t123.5 -100q63 -54 100 -81l44 -30h-1q205 -144 330 -253q70 -70 150 -229.5t158 -392.5
q7 -28 59 -43q43 29 43 66q0 32 -53.5 172t-110.5 254.5t-102 171.5q-79 94 -334 250l-140 85l-54 40q-134 106 -217 158t-133 52zM1864 126q-70 77 -208 213q12 -69 33 -299h175v86zM1148 160q28 34 39 67.5t11 85.5q0 45 -8 87l-107 -127l-67 75l-57 -188h189zM400 1885
q41 33 58.5 39.5t35.5 6.5q64 0 64 -46q0 -20 -16 -34t-48 -14q-41 0 -94 48zM140 1797h10q23 28 51 34t57 6l43 -4q-5 10 -5 28q0 24 9 46l-81 -12q-32 -6 -58 -32t-26 -52v-14zM438 1885q13 -13 33 -18q-7 6 -7 17q0 12 9 20q-17 -3 -35 -19zM530 1885q0 15 -27 20
q11 -6 11 -21q0 -13 -10 -20q26 4 26 21z" />
  </g>

</svg>
