<?xml version="1.0" standalone="no"?>
<!DOCTYPE svg PUBLIC "-//W3C//DTD SVG 1.1//EN" "http://www.w3.org/Graphics/SVG/1.1/DTD/svg11.dtd" >
<svg xmlns="http://www.w3.org/2000/svg" xmlns:xlink="http://www.w3.org/1999/xlink" version="1.1" viewBox="-10 0 1454 2048">
  <g transform="matrix(1 0 0 -1 0 1638)">
   <path fill="currentColor"
d="M622 2048q65 0 100 -67q35 67 100 67q23 0 114 -31q17 -6 27 -6q9 0 22 6q67 31 101 31q20 0 41.5 -8t41.5 -17t37 -17t27 -8q40 0 60 44h51q-4 -53 -38 -90.5t-75 -37.5q-17 0 -72 20q-56 19 -74 19q-14 0 -56 -18q-43 -18 -66 -18q-18 0 -64 17q-47 17 -61 17
q-37 0 -43 -38q95 -33 151.5 -168t56.5 -311v-127h-146v-1035q47 -23 72 -60t25 -80q0 -80 -93 -146l-42 24q15 25 26 48.5t11 53.5q0 43 -14 59.5t-33 16.5q-21 0 -34 -17.5t-13 -58.5q0 -30 11 -53.5t26 -48.5l-42 -24q-41 25 -67 64t-26 82q0 44 25.5 80.5t71.5 59.5
v1035h-138l69 314l-262 -8q0 -37 -16 -57h-49v63q-54 15 -54 81q0 47 107 111t231 98q-4 42 -43 42q-14 0 -60 -17q-47 -17 -65 -17q-23 0 -65 18q-43 18 -57 18q-17 0 -74 -19q-57 -20 -72 -20q-40 0 -74.5 37.5t-38.5 90.5h51q20 -44 60 -44q10 0 27 8t37 17t41.5 17
t41.5 8q34 0 101 -31q13 -6 22 -6q10 0 28 6q90 31 113 31zM729 1884q-47 0 -134.5 -32.5t-165.5 -80t-78 -71.5q0 -25 15 -36t50 -11l320 11l-70 -317h297v87q0 120 -30.5 231t-82.5 165t-121 54zM821 1307h-24v-1065q-41 -8 -67 -38.5t-26 -71.5q0 -72 50 -110l9 5
q-26 38 -31.5 56.5t-5.5 39.5q0 45 23.5 69.5t59.5 24.5t59.5 -25t23.5 -69q0 -20 -5.5 -38t-31.5 -58l9 -5q50 38 50 110q0 42 -26 72t-67 38v1065zM614 1987q61 0 70 -69l19 4q-12 90 -81 90q-16 0 -73 -18q-57 -19 -68 -19q-13 0 -59 19q-46 18 -64 18q-20 0 -74 -25
q-55 -25 -73 -25q-38 0 -77 59h-6q24 -71 85 -71q14 0 71 20q57 19 75 19q21 0 62 -18t60 -18q14 0 67 17q52 17 66 17zM741 1923l19 -2q11 66 70 66q14 0 67 -17q52 -17 66 -17q19 0 60 18t62 18q18 0 75 -19q57 -20 71 -20q61 0 85 71h-6q-39 -59 -77 -59q-18 0 -72 25
q-55 25 -75 25q-18 0 -64 -18q-46 -19 -59 -19q-12 0 -30 6q-93 31 -111 31q-35 0 -56.5 -25t-24.5 -64zM562 1752v38l14 19h81v-24l-50 -13l-25 -20h-20z" />
  </g>

</svg>
