<?xml version="1.0" standalone="no"?>
<!DOCTYPE svg PUBLIC "-//W3C//DTD SVG 1.1//EN" "http://www.w3.org/Graphics/SVG/1.1/DTD/svg11.dtd" >
<svg xmlns="http://www.w3.org/2000/svg" xmlns:xlink="http://www.w3.org/1999/xlink" version="1.1" viewBox="-10 0 1930 2048">
  <g transform="matrix(1 0 0 -1 0 1638)">
   <path fill="currentColor"
d="M787 1567q50 0 89.5 -18t83.5 -64q44 47 84.5 64.5t88.5 17.5q66 0 132.5 -62.5t119.5 -168.5l204 -25q-53 91 -115.5 209.5t-88.5 174.5l-68 20l-109 48l-93 90l53 62l111 -60q-39 44 -85 82.5t-76 51.5v61h6q94 0 162.5 -29.5t107.5 -70.5q32 -33 48 -104q7 -29 14 -40
q50 -79 172 -206q70 -74 131 -188t61 -158v-49q0 -18 -32 -36.5t-89 -30t-116 -11.5t-171 18q12 -78 12 -157q0 -248 -90 -515.5t-261 -518.5l2 -23q81 -67 204 -147v-37q-43 -13 -92.5 -19.5t-76.5 -6.5q-84 0 -150 93q-66 -93 -150 -93q-24 0 -75.5 6.5t-93.5 19.5v37
q141 91 207 145l-3 24q-173 256 -261 524t-88 511q0 45 12 157q-90 -18 -171 -18q-93 0 -165 24t-72 54v49q0 45 61 158.5t131 187.5q122 127 172 206q7 11 14 40q16 68 44 99.5t74.5 57t94.5 36.5t105 11h6v-61q-36 -15 -85 -55.5t-82 -78.5l117 60l53 -62l-93 -90
l-109 -48l-68 -19q-138 -277 -205 -385l205 25q19 53 62.5 112.5t91 89t98.5 29.5zM945 1443q-41 47 -77 65.5t-81 18.5q-65 0 -124 -65t-99 -164l-312 -37q15 24 39.5 67t52 93.5t55.5 103.5t51 96.5t37 72.5t15 33l89 25l100 45l59 58l-10 12l-130 -62l-31 33
q32 48 87 100t102 73l-6 -1q-130 -5 -208 -88q-22 -23 -38 -86l-18 -52q-47 -78 -178 -212q-65 -67 -122.5 -173t-57.5 -145v-39q0 -16 60 -32t137 -16q85 0 222 30q-23 -112 -23 -209q0 -241 89 -506t260 -515v-54q-109 -88 -186 -140q67 -12 111 -12q36 0 77.5 37.5
t72.5 91.5q31 -54 72.5 -91.5t77.5 -37.5q41 0 111 12q-82 54 -186 140v54q172 252 260.5 517t88.5 504q0 79 -23 209q137 -30 222 -30q77 0 137 16t60 32v39q0 39 -58 145.5t-122 172.5q-131 134 -178 212l-18 52q-16 63 -38 86q-93 98 -218 98l10 -6q47 -25 99 -76.5
t84 -99.5l-31 -33l-131 62l-10 -11l60 -59l100 -45l89 -25q0 -7 104 -204t146 -262l-312 37q-39 97 -98.5 163t-124.5 66q-44 0 -80 -18t-78 -66h-30zM943 -11q-175 273 -255 510.5t-80 483.5q0 135 23.5 235t71.5 156.5t105 56.5q41 0 83.5 -25t68.5 -62q27 39 69 63t83 24
q57 0 105.5 -56.5t71.5 -157t23 -234.5q0 -244 -79.5 -481.5t-255.5 -512.5h-34zM648 983q0 -230 73 -455t239 -490q167 267 239.5 491.5t72.5 453.5q0 132 -18 212t-43.5 123.5t-53 58t-45.5 14.5q-41 0 -85.5 -43.5t-66.5 -101.5q-26 62 -69.5 103.5t-82.5 41.5
q-18 0 -45.5 -14.5t-53 -58t-43.5 -123.5t-18 -212z" />
  </g>

</svg>
