<?xml version="1.0" standalone="no"?>
<!DOCTYPE svg PUBLIC "-//W3C//DTD SVG 1.1//EN" "http://www.w3.org/Graphics/SVG/1.1/DTD/svg11.dtd" >
<svg xmlns="http://www.w3.org/2000/svg" xmlns:xlink="http://www.w3.org/1999/xlink" version="1.1" viewBox="-10 0 880 2048">
  <g transform="matrix(1 0 0 -1 0 1638)">
   <path fill="currentColor"
d="M435 1493q-61 131 -89.5 173t-59 62.5t-67.5 20.5q-20 0 -39.5 -11t-44.5 -41q47 -27 113 -134q12 -19 22.5 -34.5t37 -52.5t51.5 -57t58 -30q-103 -515 -103 -817q0 -233 34.5 -382.5t86.5 -149.5t86.5 149.5t34.5 382.5q0 302 -103 817q44 12 77.5 47.5t91.5 126.5
q68 108 113 134q-26 31 -45 41.5t-39 10.5q-38 0 -67.5 -20.5t-57.5 -61t-91 -174.5zM435 1939q-30 0 -55.5 -57t-37.5 -147q54 -63 94 -151q38 88 92 151q-11 88 -37 146t-56 58zM435 1979q45 0 81.5 -58.5t50.5 -151.5q47 20 84 20q64 0 119 -73v-41q-49 -24 -120 -139
l-55 -82q-49 -75 -94 -92q95 -468 95 -790q0 -274 -41.5 -423t-119.5 -149t-119.5 151t-41.5 421q0 322 95 790q-30 12 -63.5 51t-84.5 123q-72 115 -121 139v41q55 73 119 73q37 0 84 -20q14 92 50 151t82 59z" />
  </g>

</svg>
