<?xml version="1.0" standalone="no"?>
<!DOCTYPE svg PUBLIC "-//W3C//DTD SVG 1.1//EN" "http://www.w3.org/Graphics/SVG/1.1/DTD/svg11.dtd" >
<svg xmlns="http://www.w3.org/2000/svg" xmlns:xlink="http://www.w3.org/1999/xlink" version="1.1" viewBox="-10 0 2548 2048">
  <g transform="matrix(1 0 0 -1 0 1638)">
   <path fill="currentColor"
d="M1451 1168q251 17 339 17q130 0 225 -26t156.5 -72.5t96 -125t34.5 -201.5l-3 -263q0 -176 12 -286.5t36.5 -203.5t90.5 -259l-75 -31q-97 83 -172.5 267.5t-138.5 513.5l-27 137l-96 -176l104 -904h-1758l104 905l-120 217h374l6 5l-71 -3l-3 29l57 12l-61 9v26l57 7
l-48 15l2 28l200 7l-2 28v30q-50 26 -95.5 50t-90 47.5t-88.5 46.5t-91 46l-265 124q-18 8 -29 28.5t-11 44.5t11 43l-4 2q11 25 40.5 57t46.5 32q30 0 172 -53l44 -4l86 7l97 6l52 -3q34 -3 67 -22.5t74 -45.5q116 -74 238 -97.5t269 -23.5q45 0 158 11v2zM1890 443h-1472
l-97 -848h541v461h584v-461h541zM1293 1115q-136 0 -241.5 18t-172 47t-178.5 102q-22 14 -43.5 19.5t-64.5 5.5l-186 -13l-49 4q-153 55 -159 55q-10 0 -27 -16t-24 -32l18 -14l19 -30l29 9l21 -33l40 10l28 -40l48 13l20 -38l47 7l19 -37l30 2l153 -84l-7 -12l-150 64
l-43 -3l-21 40l-47 -8l-17 32l-42 -10l-32 42l-44 -10l-17 29l-31 -10l-23 40h-3l-1 -10q0 -28 17 -34l255 -121q236 -118 359 -186q4 29 14 64l39 -8q-16 -57 -16 -112q0 -35 8 -81l-165 -7l12 -12l-22 -13l24 -11l-18 -22h28l1 -34h254q16 1 16 22l-15 77q12 103 47 179
l36 -14q-25 -56 -34 -101q111 -31 222 -37l161 9v6q26 3 54.5 7t68.5 4l83 -4l-2 21q0 78 51 134l29 -22q-37 -49 -40 -99v-15q0 -15 8 -55l-114 7q-34 0 -70 -9l32 -12l-17 -20l23 -12l-16 -31h26l1 -35h253q19 0 19 24l-7 38l-9 39q4 95 59 159l36 -13q-42 -44 -53 -105
l64 -2q187 -8 218 -156l26 -129q67 -349 132.5 -520t145.5 -249l23 10q-81 202 -105.5 342.5t-24.5 381.5l3 263q0 204 -119.5 294.5t-352.5 90.5q-122 0 -258 -11l-57 -4v-2q-40 -2 -85.5 -7.5t-96.5 -5.5zM327 637l86 -154h1482l86 154h-1654zM1406 -405v421h-504v-421
h504zM1444 684l-71 -6l-3 29l57 23l-61 1v21l38 13l-38 -3v7q-23 -4 -89 -5q-179 0 -300 38l-5 -27q17 -70 17 -82l-2 -16h449zM1776 769l17 -74l-3 -18h226q-31 100 -190 100l-49 1zM532 1245q19 27 54 27q30 0 48 -22t18 -65l-18 -1l-5 20q-10 -13 -29 -13q-38 2 -38 42
l-8 -7zM170 1306q16 25 44 25q23 0 41 -18l-21 -23q-12 9 -20 9q-10 0 -17 -11zM611 1228q-7 12 -24 12h-3q3 -20 15 -20q9 0 12 8z" />
  </g>

</svg>
