<?xml version="1.0" standalone="no"?>
<!DOCTYPE svg PUBLIC "-//W3C//DTD SVG 1.1//EN" "http://www.w3.org/Graphics/SVG/1.1/DTD/svg11.dtd" >
<svg xmlns="http://www.w3.org/2000/svg" xmlns:xlink="http://www.w3.org/1999/xlink" version="1.1" viewBox="-10 0 2309 2048">
  <g transform="matrix(1 0 0 -1 0 1638)">
   <path fill="currentColor"
d="M482 1140q0 96 33 176l-82 8q-133 9 -197.5 26.5t-100 56t-35.5 98.5q0 58 33 95t80 37l22 -2q-25 39 -25 89q0 51 40 89.5t97 38.5q41 0 73.5 -17t59 -47t61.5 -95q50 -91 143 -182q128 81 303 81q121 0 269 -53.5t267.5 -141.5t184.5 -194.5t65 -218.5q0 -47 -8 -89
l81 -10q143 -15 211.5 -34.5t105 -55.5t36.5 -89q0 -58 -33.5 -95t-82.5 -37h-11l-11 1q25 -39 25 -88q0 -51 -40 -89.5t-97 -38.5q-47 0 -81.5 17.5t-62 48.5t-72.5 120q-51 100 -79 134q-69 -72 -169 -109.5t-217 -37.5q-121 0 -269 53.5t-267.5 141.5t-184.5 194.5
t-65 218.5zM522 1140q0 -105 62.5 -205t176.5 -182t254 -131.5t253 -49.5q109 0 201.5 35.5t156.5 101.5q-397 231 -1070 599q-34 -77 -34 -168zM987 1552q-148 0 -266 -66l1005 -579q7 34 7 77q0 105 -62.5 205t-176.5 182t-254 131.5t-253 49.5zM1949 399q42 0 69.5 26
t27.5 62q0 51 -47 99l-28 27l24 30q46 -29 88 -29q30 0 53 25.5t23 66.5q0 40 -27.5 66t-82 42t-243.5 38q-49 5 -89 15l-1034 595q-31 14 -82 74.5t-96 136.5q-41 78 -77 108.5t-81 30.5q-42 0 -69.5 -26t-27.5 -62q0 -29 13 -55t62 -71l-24 -30q-46 29 -88 29
q-29 0 -51 -25t-22 -67q0 -44 27 -71t75 -42.5t169 -25.5q132 -11 164 -21l1077 -606q33 -19 57.5 -57t68.5 -140q33 -75 73.5 -109t97.5 -34z" />
  </g>

</svg>
