<?xml version="1.0" standalone="no"?>
<!DOCTYPE svg PUBLIC "-//W3C//DTD SVG 1.1//EN" "http://www.w3.org/Graphics/SVG/1.1/DTD/svg11.dtd" >
<svg xmlns="http://www.w3.org/2000/svg" xmlns:xlink="http://www.w3.org/1999/xlink" version="1.1" viewBox="-10 0 1424 2048">
  <g transform="matrix(1 0 0 -1 0 1638)">
   <path fill="currentColor"
d="M707 1242q163 0 303.5 -81t222 -221.5t81.5 -304.5q0 -163 -81 -303.5t-221.5 -222t-304.5 -81.5q-163 0 -303.5 81t-222 221.5t-81.5 304.5q0 163 81 303.5t221.5 222t304.5 81.5zM707 926q94 0 194.5 -30t198.5 -90t174 -135q-4 134 -83.5 260t-209 198.5t-274.5 72.5
t-274.5 -72.5t-209 -198t-83.5 -260.5q73 73 171.5 133.5t200 91t195.5 30.5zM707 68q149 0 278.5 73t206.5 201t82 280q-60 66 -155.5 127.5t-200.5 99t-211 37.5q-104 0 -209.5 -37t-201.5 -98.5t-156 -128.5q5 -152 82 -280t206 -201t279 -73z" />
  </g>

</svg>
