<?xml version="1.0" standalone="no"?>
<!DOCTYPE svg PUBLIC "-//W3C//DTD SVG 1.1//EN" "http://www.w3.org/Graphics/SVG/1.1/DTD/svg11.dtd" >
<svg xmlns="http://www.w3.org/2000/svg" xmlns:xlink="http://www.w3.org/1999/xlink" version="1.1" viewBox="-10 0 2159 2048">
  <g transform="matrix(1 0 0 -1 0 1638)">
   <path fill="currentColor"
d="M1259 801q-181 0 -387.5 62.5t-415.5 185t-312 238.5q150 78 413.5 127t539.5 49q147 0 265.5 -45.5t189 -126t79.5 -176.5q202 -23 310 -104.5t108 -208.5q0 -166 -129.5 -256t-362.5 -90q-104 0 -368 80q-136 40 -216 59.5t-120 19.5q-159 0 -468 -148
q-60 -29 -138 -64t-89 -35q-58 0 -58 46q0 37 65.5 82t217 112t270.5 101t198 34q100 0 348 -79q248 -80 359 -80q114 0 196 23.5t124 72t42 116.5q0 78 -82.5 127.5t-227.5 67.5q-46 -93 -136 -141.5t-215 -48.5zM209 1275q104 -106 296.5 -213.5t384.5 -163.5t357 -57
q-68 109 -68 233q0 88 34.5 170t100.5 148q-99 31 -217 31q-262 0 -502.5 -40t-385.5 -108zM1585 1035q179 -19 277 -80t98 -159q0 -122 -103.5 -187t-298.5 -65q-109 0 -359 80q-251 79 -348 79q-103 0 -279 -62.5t-345 -153.5q-42 -21 -62 -37t-20 -34q0 -6 15 -6
q6 0 151 65l65 30q317 150 477 150q75 0 339 -79q264 -80 365 -80q215 0 333.5 79.5t118.5 226.5q0 114 -105 186t-309 91l-3 1v5q0 89 -62 168t-175 124q-66 -61 -101 -139.5t-35 -163.5q0 -125 73 -232q95 0 181.5 55.5t111.5 137.5z" />
  </g>

</svg>
