<?xml version="1.0" standalone="no"?>
<!DOCTYPE svg PUBLIC "-//W3C//DTD SVG 1.1//EN" "http://www.w3.org/Graphics/SVG/1.1/DTD/svg11.dtd" >
<svg xmlns="http://www.w3.org/2000/svg" xmlns:xlink="http://www.w3.org/1999/xlink" version="1.1" viewBox="-10 0 2288 2048">
  <g transform="matrix(1 0 0 -1 0 1638)">
   <path fill="currentColor"
d="M964 454l-87 266l-92 59q-25 12 -114.5 81.5t-147 128.5t-91.5 115t-34 104q0 54 33.5 117t118.5 152q78 84 103.5 130t25.5 90l-2 29q-141 -7 -263 -94t-253 -288h-61q0 65 19.5 131t55.5 127.5t84 110.5t149.5 115.5t148.5 88.5q15 66 67 102.5t125 36.5
q185 0 288.5 -111.5t103.5 -306.5q0 -60 -10 -134h-352q-44 -88 -48 -99.5t-4 -18.5q0 -22 12 -22q16 0 49 23l73 49q10 6 21 13t25 12t33 8.5t45 3.5q102 0 209.5 -47t209.5 -136q94 -80 251 -197t195 -135q26 -12 133 -77l195 -118q-20 -44 -66 -57l1 -8q0 -17 -20 -34
t-55 -25l-80 -21q30 -40 30 -59q0 -18 -11 -30t-29 -12q-15 0 -30 14l-6 4l3 -19q0 -13 -9 -19.5t-19 -7.5q-6 0 -17 5.5t-16 15.5l4 -24q0 -10 -8 -16t-18 -6q-6 0 -16.5 4t-15.5 10l1 -11q0 -38 -43 -38q-22 0 -47 31l-93 118l-220 -21l-14 -12v-47l4 -14q15 -53 15 -64
l-1 -23q-7 -72 -7 -127q0 -56 12 -128q42 -46 84 -157h-40l-6 15h-63l-55 5l-95 6q-41 0 -166 -11q-33 0 -44 14q-14 -14 -18 -29h-39q8 47 48.5 84.5t97.5 45.5l160 27q18 2 18 15q0 51 -16.5 131t-49.5 145.5t-78 107.5l-60 -93l13 -44l-58 -63l-129 -238q40 -40 40 -110
v-8h-40l-6 15h-63l-55 5l-95 6q-41 0 -166 -11q-33 0 -44 14q-14 -14 -18 -29h-39q9 47 48.5 83.5t97.5 46.5l157 26q83 17 133 111zM945 1325q-96 -18 -160 -52.5t-64 -72.5q0 -41 36 -76.5t88 -50.5l1205 -338l14 -1q35 0 52 23q-213 128 -284 165q-31 15 -143.5 97
t-201.5 152.5t-109 88.5q-199 173 -393 173q-50 0 -84 -20q-145 -89 -164 -89q-26 1 -38 20t-12 42q0 28 32 83l127 255q40 77 40 146q0 61 -39 103.5t-98 42.5q-54 0 -85 -16.5t-46 -38t-19.5 -42t-6.5 -27.5q1 -42 28 -75t96 -66q5 -24 5 -47q0 -55 -30.5 -111.5
t-111.5 -143.5q-75 -84 -95.5 -113.5t-33 -61.5t-12.5 -66q0 -76 104.5 -184t264.5 -211l325 -209q68 -46 108.5 -119t65.5 -191t25 -156q0 -13 -11 -22.5t-28 -11.5l-186 -30q-21 -5 -34 -14l-16 -12q8 -8 40 -8l46 5q60 6 91 6l121 -6l75 -5q-13 36 -60 80q-14 91 -14 150
q0 56 7 128l1 22q0 7 -19 72l3 69l34 34l210 20l-204 265l-540 154q-81 22 -123.5 64.5t-42.5 101.5q0 39 34.5 72.5t100.5 58t122 31.5zM926 1870q0 -84 -38 -154l-88 -172h295q6 49 6 94q0 137 -55 226t-163 126q43 -54 43 -120zM516 48q8 -8 40 -8l46 5q60 6 91 6l121 -6
l75 -5l2 5q0 18 -36 52l17 28q47 76 136 242l44 49l-11 38l73 113l-4 3l-180 116l77 -236l-99 -195q-34 -65 -81 -106.5t-91 -47.5l-170 -27q-40 -5 -50 -26zM130 1381q30 86 106.5 189.5t164 166t178.5 81.5q-17 28 -23 60q-92 -48 -176 -108.5t-132.5 -124t-82 -140
t-35.5 -124.5zM628 1760q-18 15 -31 32q-115 -20 -225.5 -114t-188.5 -243q93 144 208 226.5t237 98.5zM1760 471q11 0 11 10q0 2 -3 8t-278 361l-39 11l291 -375q12 -15 18 -15zM1818 501l3 1q8 2 8 7q0 8 -7 15l-225 296l-42 12l245 -316q12 -15 18 -15zM699 1962
q20 0 34.5 -14.5t14.5 -34.5q0 -21 -14.5 -35.5t-34.5 -14.5q-21 0 -35.5 14.5t-14.5 35.5q0 20 14.5 34.5t35.5 14.5zM1859 745l73 -94q124 25 124 33l-2 1l-91 30zM1883 540l-7 15l-181 237l-35 10l196 -255q12 -15 17 -15q10 0 10 8zM1759 773l159 -205q12 -15 18 -15
q10 0 10 9l-1 6l-10 14l-140 181zM699 1894q18 0 18 19q0 18 -18 18q-19 0 -19 -18q0 -19 19 -19z" />
  </g>

</svg>
