<?xml version="1.0" standalone="no"?>
<!DOCTYPE svg PUBLIC "-//W3C//DTD SVG 1.1//EN" "http://www.w3.org/Graphics/SVG/1.1/DTD/svg11.dtd" >
<svg xmlns="http://www.w3.org/2000/svg" xmlns:xlink="http://www.w3.org/1999/xlink" version="1.1" viewBox="-10 0 2335 2048">
  <g transform="matrix(1 0 0 -1 0 1638)">
   <path fill="currentColor"
d="M1037 489q-36 72 -87 146.5t-89 105.5q-63 26 -102.5 44.5t-103 58.5t-117 87.5t-90 96t-64 116t-27.5 138.5q0 76 29 206q18 72 18 105q0 53 -39.5 80t-107.5 27q-45 0 -63 -5t-20 -19l-74 2v36q0 52 64.5 88t153.5 36h20q21 30 54 51t68 26l195 8q43 0 65.5 12.5
t60.5 68t57 102.5h40q21 -59 21 -129q0 -52 -42 -114.5t-112 -115.5q24 -259 62 -319q64 -79 364 -183q107 -39 127 -49q70 -32 197 -110q242 -149 298 -173q92 -35 432 -149l-6 -68l-204 3l182 -102l-141 -242l-324 188q-116 69 -179 69q-26 0 -134 -8l63 -162l-38 -321
l73 -93l-72 -57l-48 61l-40 -32l-320 1l-28 23l-2 -1l-22 -23h-43l-320 1l-24 23l-37 -28h-34l51 82q58 15 159 24l82 4q28 0 56 14t38 39l49 126zM1440 436l-77 202l67 7q102 7 123 7q64 0 199 -75l289 -168l102 173l-211 119q-232 1 -437 27.5t-390.5 80.5t-318 126
t-217.5 148.5t-85 123.5q0 24 16 42t40.5 31t53.5 22t55.5 14.5t47 8t26.5 3.5l6 -40l-22 -3q-65 -7 -124 -28.5t-59 -49.5q0 -54 152 -156.5t345.5 -171t417.5 -103t481 -36.5q139 -2 270 -8l1 7l-49 16q-324 104 -365 122q-49 21 -224 128q-208 128 -271 155
q-54 23 -125 47q-175 62 -261.5 108t-120.5 89q-20 28 -39 123t-32 241q71 48 113 103.5t42 105.5q0 35 -5 65q-24 -43 -59 -88t-64 -58t-75 -13l-192 -8q-55 -10 -104 -77h-42q-72 0 -125.5 -23.5t-55.5 -58.5h2q31 59 114 59q39 0 92 -11l-4 -20q-53 11 -88 11
q-64 0 -91 -39h3q20 24 92 24q91 0 139 -38.5t48 -108.5q0 -31 -18 -113q-29 -130 -29 -198q0 -238 337 -440q62 -33 315 -132l101 -42q56 -34 241 -229l-24 -276q-9 -97 -109 -97h-25q-154 -6 -193 -16l12 -12l291 2l59 45l52 -65l16 13l-66 84zM1210 500
q-33 -46 -85 -154.5t-94 -227.5l6 -35q92 19 220 23q64 0 70 57l25 262q-100 107 -168 167zM1082 489l-124 -320q-38 -103 -138 -103h-21q-134 -6 -174 -16l12 -12l328 2l38 31l-15 46q27 86 83.5 210.5t94.5 181.5l-35 123l-184 74q30 -38 69 -101t66 -116zM413 1793
q0 20 14.5 34.5t35.5 14.5q20 0 34.5 -14.5t14.5 -34.5q0 -21 -14.5 -35.5t-34.5 -14.5q-21 0 -35.5 14.5t-14.5 35.5zM444 1793q0 -19 19 -19q18 0 18 19q0 18 -18 18q-19 0 -19 -18z" />
  </g>

</svg>
