<?xml version="1.0" standalone="no"?>
<!DOCTYPE svg PUBLIC "-//W3C//DTD SVG 1.1//EN" "http://www.w3.org/Graphics/SVG/1.1/DTD/svg11.dtd" >
<svg xmlns="http://www.w3.org/2000/svg" xmlns:xlink="http://www.w3.org/1999/xlink" version="1.1" viewBox="-10 0 1379 2048">
  <g transform="matrix(1 0 0 -1 0 1638)">
   <path fill="currentColor"
d="M345 1722q-43 0 -43 66q0 60 29.5 128t78 102t114.5 34q208 0 208 -257v-1017q86 109 251 109q55 0 100.5 -20.5t81 -49.5t70 -74t34.5 -82q0 -14 -12 -29t-30 -15q-19 0 -35.5 16.5t-38.5 46.5q-77 105 -171 105q-108 0 -171.5 -73t-66.5 -198q78 106 239 106
q66 0 129.5 -35t110 -94t46.5 -95q0 -17 -12 -32t-30 -15q-19 0 -35.5 15.5t-38.5 47.5q-78 106 -171 106q-68 0 -118.5 -34t-79.5 -104t-29 -148v-116q0 -61 -13.5 -88.5t-57.5 -27.5q-43 0 -56.5 27.5t-13.5 88.5v116q0 78 -29 148.5t-80 104t-118 33.5q-39 0 -86 -28.5
t-85 -77.5q-23 -32 -39.5 -47.5t-34.5 -15.5q-22 0 -32 15t-10 32q0 36 46.5 95.5t110.5 94t129 34.5q161 0 239 -106q-3 126 -67 198.5t-171 72.5q-46 0 -87 -25t-94 -95q-36 -48 -64 -48q-22 0 -32 15t-10 29q0 40 48 99t110.5 93t127.5 34q165 0 251 -109v1006
q0 93 -28.5 132.5t-84.5 39.5q-54 0 -89 -46t-40 -115q0 -34 -13.5 -53.5t-36.5 -19.5zM345 1760q4 0 7.5 13t3.5 28q27 192 168 192q73 0 111.5 -48t38.5 -161v-1081l-33 -6q-34 73 -102.5 113t-152.5 40q-56 0 -110.5 -30t-96.5 -81.5t-42 -77.5q0 -7 5 -7q10 0 44 47
q50 68 99 96t102 28q92 0 153 -43t92 -117t31 -165v-64l-33 -8q-28 56 -58.5 85.5t-75 49.5t-110.5 20q-56 0 -109.5 -29.5t-96.5 -81t-43 -76.5q0 -8 5 -8q8 0 44 46q90 123 201 123q81 0 140 -39.5t91 -119.5t32 -166v-116q0 -41 6.5 -60.5t27.5 -19.5q22 0 28.5 19.5
t6.5 60.5v116q0 88 32 167.5t91.5 118.5t139.5 39q54 0 103.5 -29t107.5 -110q21 -30 34 -30q5 0 5 8q0 25 -43 76.5t-97 81t-109 29.5q-83 0 -147 -39t-97 -116l-33 8v64q0 93 31.5 166t92.5 116t152 43q52 0 101 -28.5t101 -97.5q8 -14 22 -29.5t21 -15.5q5 0 5 7
q0 26 -42 77.5t-96.5 81.5t-110.5 30q-85 0 -153 -40t-102 -113l-32 6v1092q0 220 -172 220q-54 0 -95.5 -30t-65 -88.5t-23.5 -108.5q0 -28 5 -28z" />
  </g>

</svg>
