<?xml version="1.0" standalone="no"?>
<!DOCTYPE svg PUBLIC "-//W3C//DTD SVG 1.1//EN" "http://www.w3.org/Graphics/SVG/1.1/DTD/svg11.dtd" >
<svg xmlns="http://www.w3.org/2000/svg" xmlns:xlink="http://www.w3.org/1999/xlink" version="1.1" viewBox="-10 0 2661 2048">
  <g transform="matrix(1 0 0 -1 0 1638)">
   <path fill="currentColor"
d="M2474 657q-170 95 -335 157.5t-293 80.5l101 -129q-102 26 -163 26q-159 0 -288 -79l-161 128l-10 -1h-10q-57 0 -172 21t-214 47l-45 -171l-243 275q-33 0 -78.5 15t-74.5 36q-102 23 -221.5 129.5t-166.5 216.5l62 32l-23 73q137 48 271 48q56 0 136.5 -13t177 -35.5
t303.5 -85.5l559 134q-80 -166 -83 -275l59 -18l413 84l-120 -173q113 -35 179 -35q69 0 149 17.5t340 103.5l28 -48q-97 -67 -151.5 -132t-54.5 -113q0 -45 25.5 -96t66.5 -101t66 -68zM792 1267l56 -2q83 -7 102 -11q61 -12 107.5 -31.5t80.5 -41.5t83 -71
q-55 -24 -121 -41t-123 -17q-83 0 -128.5 13.5t-94.5 44.5q-41 -50 -72 -75q113 -56 325.5 -105.5t307.5 -49.5q23 0 128 21q186 40 320 40q140 0 338 -70q29 48 29 116q0 65 -31 121l-65 -3q-65 0 -192 39l-966 288q-310 90 -466 90q-50 0 -115 -10.5t-108 -22.5l13 -71
l-51 -27q49 -89 148.5 -175t190.5 -111q104 40 139 126l36 -16q-35 -86 -127 -132l19 -9q100 38 142 141l36 -16q-41 -95 -123 -143l25 -4q46 30 93 95.5t64 119.5zM2138 858q134 -49 292 -132q-125 146 -125 247q0 52 47 118t125 124q-26 -10 -67 -24t-113 -38t-156 -39
q29 -60 29 -127q0 -71 -32 -129zM1515 1505l-413 -99l361 -107q3 92 52 206zM822 1226q-17 -42 -44 -83q42 -27 82.5 -39t116.5 -12q87 0 174 32q-54 46 -132 71.5t-197 30.5zM1389 849l111 -88q127 71 284 71l62 -3l-55 71l-28 1q-123 0 -312 -40zM1645 1244l171 -52
l71 102zM891 918q-93 26 -160 52l134 -151zM340 1449q0 21 15 36t36 15t36 -15t15 -36t-15 -36t-36 -15t-36 15t-15 36zM369 1449q0 -8 7 -15t15 -7t15 7t7 15t-7 15t-15 7t-15 -7t-7 -15z" />
  </g>

</svg>
