<?xml version="1.0" standalone="no"?>
<!DOCTYPE svg PUBLIC "-//W3C//DTD SVG 1.1//EN" "http://www.w3.org/Graphics/SVG/1.1/DTD/svg11.dtd" >
<svg xmlns="http://www.w3.org/2000/svg" xmlns:xlink="http://www.w3.org/1999/xlink" version="1.1" viewBox="-10 0 2425 2048">
  <g transform="matrix(1 0 0 -1 0 1638)">
   <path fill="currentColor"
d="M1417 1316q179 -69 217 -188l33 1h31q305 0 461 -94.5t156 -281.5q0 -66 -32 -179t-84 -235l-96 24q40 82 75.5 200t35.5 191t-33 124.5t-93.5 84t-162 50t-285.5 17.5q-31 -135 -223 -208h-1l-532 -107q-370 -73 -526 -239l-38 -39l-53 32q6 35 53.5 101.5t125.5 144.5
h-10q-116 0 -276 -16l-19 54l283 174q-235 60 -324 142q89 82 324 142l-283 174l19 54q160 -16 276 -16h10q-78 78 -125.5 144.5t-53.5 101.5l53 32l38 -39q156 -166 526 -239l532 -108zM1285 1084l1 15q-170 26 -306 52t-243 71v-1q-67 0 -202.5 -25t-228 -57.5
t-144.5 -69.5q50 -37 144.5 -69.5t229.5 -57.5t201 -25v-1q107 43 243 69.5t306 52.5l-1 16v30zM1382 857q-68 74 -88 141q-253 -41 -326.5 -56.5t-136.5 -34.5t-121 -47q-121 -59 -243.5 -177t-155.5 -196l7 -4q72 92 216.5 162t341.5 110zM1294 1139q20 69 88 141
l-506 103q-199 41 -343.5 111t-214.5 161l-7 -4q15 -35 58.5 -89.5t100.5 -109.5t120 -101t133.5 -79.5t176 -60t394.5 -72.5zM1603 1090q-15 114 -177 179q-49 -50 -75 -95.5t-26 -104.5t26 -104.5t75 -95.5q178 75 178 199q252 0 387 -33t199 -104t64 -177
q0 -61 -29.5 -170.5t-69.5 -193.5l23 -5q97 239 97 368q0 172 -145 255t-432 83h-32zM488 754q90 79 178 128q-109 14 -187 32l-300 -174q13 1 102.5 8t154.5 7h28zM479 1224q84 17 187 31q-85 47 -178 129l-24 -1h-28q-89 0 -216 17l-37 4l7 -3z" />
  </g>

</svg>
