<?xml version="1.0" standalone="no"?>
<!DOCTYPE svg PUBLIC "-//W3C//DTD SVG 1.1//EN" "http://www.w3.org/Graphics/SVG/1.1/DTD/svg11.dtd" >
<svg xmlns="http://www.w3.org/2000/svg" xmlns:xlink="http://www.w3.org/1999/xlink" version="1.1" viewBox="-10 0 2063 2048">
  <g transform="scale(1, -1)" transform-origin="center">
   <path fill="currentColor"
d="M1900 698l-181 -7l234 -141l-13 -33q-36 8 -114 19t-120 11q-16 -1 -16 -5q0 -28 140 -182l-23 -38l-455 263q-138 79 -292 104l28 -51q7 -11 7 -21q0 -11 -9 -32l-49 -127l-3 -17q0 -26 21 -34l99 -31l5 -67q-160 12 -196 12q-55 0 -219 -12l2 9l-62 3q-54 0 -226 -12
l16 67l126 25q27 5 45 16.5t42 48.5l67 101q16 24 16 40q0 13 -8 29l-103 210l-185 136q-65 48 -90.5 78.5t-44 67.5t-18.5 82q0 36 13 78q7 17 7 27q0 37 -39 88l-199 20l-3 40l188 72q20 32 67 54.5t120 22.5q78 0 134 -38t121 -133q28 -43 66 -75l103 -73
q54 -37 88.5 -61t288.5 -249q63 -56 152.5 -112t125.5 -66q108 -31 346 -45v-62zM1660 689l-202 -3q-183 0 -365 46t-337.5 130.5t-254.5 185.5t-99 173q0 48 32.5 76.5t82.5 28.5q54 0 120 -22l-12 -38q-18 7 -49.5 14t-58.5 7q-33 0 -54 -16.5t-21 -49.5q0 -67 97 -162
t246 -172.5t323.5 -119.5t349.5 -42h76h285q-29 2 -122.5 13.5t-140 25t-143.5 75t-166 120.5q-235 208 -373 307l-65 45l-41 30q-29 25 -85 100q-48 62 -75 84t-59.5 34.5t-73.5 12.5q-76 0 -119.5 -27t-43.5 -66q0 -16 29 -55q40 -56 40 -109q0 -11 -8 -38
q-12 -29 -12 -67q0 -98 139 -202l441 -322q47 -34 57 -62l49 12l-55 101q104 -13 203.5 -43.5t173.5 -73.5l373 -217q-64 80 -80.5 107.5t-16.5 42.5q0 28 64 28l92 -7l60 -7zM898 602q0 -21 -14 -39l-99 -124q-7 -10 -7 -19q0 -7 5.5 -11.5t45.5 -18.5l59 16q37 8 48 57
q26 120 26 133q0 21 -17 36l-65 56q18 -73 18 -86zM995 433q0 18 8 39l52 139l-48 -12l-34 -149q-15 -63 -61 -72l-128 -25l-3 -16l68 7l114 7q43 0 155 -14l-1 12l-71 25q-51 12 -51 59zM684 351l68 -4l8 29q-29 9 -29 30q0 20 20 48l109 137l-50 -1l-82 -132
q-48 -75 -94 -82l-129 -23l-3 -16l68 7zM719 807l89 -189h48l-31 112zM273 1491l-96 -38l105 -11q-9 19 -9 37v12zM376 1472q0 11 7 18t18 7t18.5 -7t7.5 -18t-7.5 -18t-18.5 -7t-18 7t-7 18z" />
  </g>

</svg>
