<?xml version="1.0" standalone="no"?>
<!DOCTYPE svg PUBLIC "-//W3C//DTD SVG 1.1//EN" "http://www.w3.org/Graphics/SVG/1.1/DTD/svg11.dtd" >
<svg xmlns="http://www.w3.org/2000/svg" xmlns:xlink="http://www.w3.org/1999/xlink" version="1.1" viewBox="-10 0 1640 2048">
  <g transform="matrix(1 0 0 -1 0 1638)">
   <path fill="currentColor"
d="M100 144q0 75 189.5 128.5t457.5 60.5v688q-239 19 -239 187q0 85 50.5 130.5t188.5 56.5v404q0 65 35 125t97.5 96t142.5 36q53 0 101.5 -19t79.5 -48.5t31 -55.5q0 -69 -76 -69q-19 0 -49 21l1 -1q-42 31 -80 31q-67 0 -106 -52t-39 -142v-1388q172 -4 325 -31
t236.5 -68.5t83.5 -89.5q0 -79 -210.5 -134.5t-504.5 -55.5q-293 0 -504 55.5t-211 134.5zM146 144q0 -33 88.5 -67t251.5 -58.5t329 -24.5q170 0 331.5 24.5t249.5 59t88 66.5q0 33 -88.5 67t-251.5 58.5t-329 24.5q-170 0 -331.5 -24.5t-249.5 -59t-88 -66.5zM845 1721
q0 106 49.5 170t135.5 64q35 0 59 -12.5t43 -25.5q18 -13 26 -13q36 0 36 29t-55 56t-117 27q-67 0 -120.5 -29.5t-84 -80t-30.5 -107.5v-1465h58v1387zM596 1208q0 -95 151 -100v200q-151 -10 -151 -100zM538 1208q0 -142 209 -157v26q-181 5 -181 131t181 131v25
q-84 -6 -124.5 -23t-62.5 -49.5t-22 -83.5z" />
  </g>

</svg>
