<?xml version="1.0" standalone="no"?>
<!DOCTYPE svg PUBLIC "-//W3C//DTD SVG 1.1//EN" "http://www.w3.org/Graphics/SVG/1.1/DTD/svg11.dtd" >
<svg xmlns="http://www.w3.org/2000/svg" xmlns:xlink="http://www.w3.org/1999/xlink" version="1.1" viewBox="-10 0 2525 2048">
  <g transform="matrix(1 0 0 -1 0 1638)">
   <path fill="currentColor"
d="M2333 998l-578 -6l660 -925l-104 -87l-271 277l112 -244l-413 34l-203 393l-106 64l39 -210l-38 -15l-163 87v-251h197q70 0 98 -44l56 -80l-41 -27l-23 36h-742l-26 -36l-38 27l6 9h-362l-26 -36l-38 27l57 80q27 44 97 44h275v483q0 117 -24 269q-246 -82 -388 -82
q-59 0 -121.5 15t-108.5 40v70l40 -6q57 -11 148 -11q54 0 125 17q-140 123 -223.5 248.5t-105.5 235.5l81 -5q41 -103 173 -235.5t239 -189.5l113 41l-16 60l-152 182q-64 78 -92 130t-43 111t-15 131q0 220 77 431h492q74 -188 83 -368q61 -19 135 -62t127 -92
q98 -37 164 -130l182 -256q106 0 326 16.5t324 30.5zM1148 379v-264l-43 -35h-234l-32 -45h690l-32 45h-221l-48 35v284l19 27l172 -93l-39 211l24 21l166 -98l199 -380l314 -28l-126 277l-715 539l-51 -25l-35 62l18 14l-97 72q-103 -44 -212 -85l173 -208q62 -76 86 -149
t24 -177zM798 1351q0 95 85 150.5t228 55.5q52 0 96 -6q-132 85 -207 107q0 76 -19.5 171t-52.5 181h-434q-66 -194 -66 -403q0 -81 30 -159t109 -173l201 -245l210 91q-212 97 -316 210l42 66l94 -53v7zM2315 30l50 46l-657 916h-17q-188 -3 -407 -98l707 -528zM2258 1145
q-86 -11 -296.5 -27t-317.5 -16q-288 0 -506.5 58.5t-419.5 176.5l-1 -3q114 -120 362 -208q-247 -113 -325.5 -143t-166.5 -57q-94 44 -232 178t-199 243h-5q31 -101 126.5 -221t232.5 -230q-129 -43 -206 -43q-83 0 -141 8v-1q73 -35 183 -35q256 0 852 271l223 -35l3 -39
q-110 -35 -211 -115q249 122 478 125l586 5zM1122 1519q-140 0 -212 -46t-72 -128v-11l1 -11q178 -89 361 -133.5t401 -47.5l-166 232q-101 145 -313 145zM798 115l-43 -35h-304l-32 -45h362l23 33q26 41 74 45v362l36 26l194 -158v38q0 98 -22 165.5t-76 132.5l-184 220
l-50 -18q22 -128 22 -269v-497zM1108 115v172l-190 156v-328h190zM571 1912q29 0 50 -21t21 -50q0 -30 -21 -50.5t-50 -20.5q-30 0 -50.5 20.5t-20.5 50.5q0 29 20.5 50t50.5 21zM851 1912q29 0 50 -21t21 -50q0 -30 -21 -50.5t-50 -20.5q-30 0 -50.5 20.5t-20.5 50.5
q0 29 20.5 50t50.5 21zM786 1771l-58 -186h-32l-67 182l36 15l47 -127l40 127zM1349 1031l-146 23l-84 -37l89 -66q71 49 141 80zM571 1803q15 0 26.5 11t11.5 27q0 15 -11.5 26.5t-26.5 11.5q-16 0 -27 -11.5t-11 -26.5q0 -16 11 -27t27 -11zM851 1803q15 0 26.5 11
t11.5 27q0 15 -11.5 26.5t-26.5 11.5q-16 0 -27 -11.5t-11 -26.5q0 -16 11 -27t27 -11z" />
  </g>

</svg>
