<?xml version="1.0" standalone="no"?>
<!DOCTYPE svg PUBLIC "-//W3C//DTD SVG 1.1//EN" "http://www.w3.org/Graphics/SVG/1.1/DTD/svg11.dtd" >
<svg xmlns="http://www.w3.org/2000/svg" xmlns:xlink="http://www.w3.org/1999/xlink" version="1.1" viewBox="-10 0 2587 2048">
  <g transform="matrix(1 0 0 -1 0 1638)">
   <path fill="currentColor"
d="M674 2019q82 0 142 -44t94.5 -131t34.5 -192q0 -164 21.5 -221t67.5 -57q78 0 158.5 50.5t180.5 159.5q194 214 308.5 305.5t247.5 151t284 83.5l7 -59q8 -67 8 -101q0 -191 -139 -388t-442 -404q49 -38 260 -222q183 -161 236 -180q104 13 122 13q64 0 91.5 -26.5
t27.5 -90.5q0 -35 -9 -103q45 -34 73.5 -80.5t28.5 -87.5q0 -43 -36 -72.5t-84 -29.5q-41 0 -153 77q-67 -42 -120 -42q-20 0 -39.5 21.5t-52.5 82.5q-26 49 -52.5 82t-51.5 48t-122 34q-32 -95 -34 -126q-26 -196 -44.5 -283.5t-45.5 -154.5l-13 -39l-137 -54l-87 71
q6 34 21.5 68t34.5 54q66 66 112 204q4 13 31 151l-62 147l-15 2q-20 -27 -45 -100q-29 -86 -37 -102v1q-9 -23 -69 -124q-64 -108 -74 -134q-18 -56 -38 -201l-132 -52l-82 52v7q0 67 55 155l120 194q126 202 126 235q0 85 -145 164q-155 -111 -235 -259
q-61 -115 -177.5 -239t-228 -188.5t-199.5 -64.5q-31 0 -79.5 10t-67.5 21q31 62 99 253q89 249 140.5 358.5t100 179t120.5 141t122 107.5q-92 147 -92 342q0 71 7 151q-181 0 -255 33q-196 -84 -265 -84q-51 0 -96 24q6 35 22.5 69t37.5 49l79 46q92 53 176 154
q45 82 115.5 133.5t143.5 51.5zM674 1979q-63 0 -122.5 -43t-97.5 -110.5t-38 -123.5q0 -61 75 -90t272 -29q-14 -87 -14 -191q0 -103 27.5 -189.5t77.5 -157.5t132.5 -137.5t220.5 -132.5q92 -47 138 -100.5t46 -107.5q0 -44 -128 -249l-124 -200q-36 -59 -50 -119l28 -21
q12 77 48 139l34 -20q-33 -55 -42 -122l70 30q24 155 37 186q9 21 73 131q64 111 72 129l19 50q42 140 86 177q324 -49 374 -72q40 -18 72 -57t56 -79.5t40.5 -71t27.5 -30.5q24 0 59 15.5t62 36.5q115 -87 152 -87q30 0 55 16.5t25 45.5q0 35 -29.5 76t-74.5 73
q11 99 11 122q0 34 -14 55.5t-58 21.5q-26 0 -134 -13q-67 22 -256 191q-203 180 -276 223l-84 -56l-23 33l64 43q325 214 475 412.5t150 387.5l-9 114q-125 -21 -233 -71t-206 -123.5t-233 -217.5l-117 -125q-101 -107 -186 -157t-170 -50q-69 0 -99 65t-30 253
q0 148 -63 237.5t-168 89.5zM1166 750q-234 113 -343 268q-43 -32 -100 -87.5t-101.5 -112t-81 -125t-70 -144.5t-106.5 -280q-70 -196 -88 -234q38 -15 90 -15q84 0 188 62t212.5 178.5t168.5 229.5q78 146 231 260zM1727 603l-138 24l57 -134l-11 -64q-14 -77 -24 -105
q-30 -87 -58.5 -135t-63.5 -85q-20 -20 -40 -79l31 -29q16 80 47 134l34 -20q-33 -54 -42 -121l78 34l11 35q31 79 44.5 144t25.5 161q14 129 49 240zM376 1702q0 20 4 39q-47 -45 -90 -72.5t-114 -67.5l1 1q-14 -10 -31 -50l235 106q-5 17 -5 44zM568 1837q0 21 15 35.5
t37 14.5q21 0 35.5 -14.5t14.5 -35.5q0 -22 -14.5 -37t-35.5 -15q-22 0 -37 15t-15 37zM422 1599q-16 13 -28 31l-223 -101l12 -1h13q56 0 226 71zM601 1837q0 -19 19 -19q18 0 18 19q0 18 -18 18q-19 0 -19 -18z" />
  </g>

</svg>
