<?xml version="1.0" standalone="no"?>
<!DOCTYPE svg PUBLIC "-//W3C//DTD SVG 1.1//EN" "http://www.w3.org/Graphics/SVG/1.1/DTD/svg11.dtd" >
<svg xmlns="http://www.w3.org/2000/svg" xmlns:xlink="http://www.w3.org/1999/xlink" version="1.1" viewBox="-10 0 2771 2048">
  <g transform="matrix(1 0 0 -1 0 1638)">
   <path fill="currentColor"
d="M1342 -257h197q70 0 98 -44l56 -80l-41 -27l-23 36h-742l-26 -36l-38 27l6 9h-362l-26 -36l-38 27l57 80q27 44 97 44l274 14q52 48 86.5 119t34.5 123q0 82 -13.5 150.5t-85.5 258t-141 311.5q-99 129 -152.5 217t-81.5 165.5t-28 138.5q0 56 15.5 110t26.5 84l4 22
q0 13 -47 18l-142 -154l-76 74l122 121l-84 151l73 158q0 50 37.5 117.5t107.5 103t164 35.5q79 0 142.5 -37t102 -99t38.5 -123q0 -39 -12.5 -84t-41.5 -117q-31 -77 -31 -109l1 -11q129 -7 279 -72t298.5 -180t379.5 -359l150 -159q375 -400 704 -655l-55 -69l-335 150
l183 -262l-414 -257l-462 751l-61 -526l-171 85zM824 1464q-65 0 -127 -27t-100 -75t-38 -104q0 -273 357 -444l326 -149l1355 -617l17 23q-277 216 -524 463l-199 208q-249 262 -367 372t-249 191.5t-244 120t-207 38.5zM1308 13l175 -89l65 559l-650 295q-185 86 -282 210
t-97 270q0 86 68.5 152.5t171.5 87.5q-49 42 -66.5 72.5t-17.5 62.5q0 44 33 83q16 21 16 33q0 41 -36 41q-20 0 -43 -30l-272 39l-60 -131l85 -149q138 -7 138 -63q0 -18 -16 -64q-30 -87 -30 -152q0 -83 63.5 -208.5t211.5 -314.5l372 -473q99 -127 109 -249l-24 -252
l-29 -35h-248l-32 -45h690l-32 45h-235l-34 35zM1574 471l479 -778l345 213l-195 281zM651 2040q-106 0 -177.5 -52t-89.5 -150l245 -34q26 26 59 26q32 0 54 -21t22 -60q0 -31 -26 -59q-8 -10 -15.5 -22t-7.5 -35q0 -58 100 -134l-3 24q0 35 29 104q53 124 53 194
q0 50 -33 103t-87 84.5t-123 31.5zM992 -1q0 -35 -19.5 -91t-51.5 -105.5t-77 -82.5l-319 -12l-32 -45h362l23 33q26 41 74 45h41l94 294l117 -62l2 23q-9 108 -101 224l-273 347q67 -154 121 -316q39 -114 39 -252zM1033 -257h149l18 186l-89 48zM396 1717q11 34 46 34
q29 0 44.5 -17.5t15.5 -40.5v-8l-33 -3q-16 0 -36 5t-37 30zM287 1394l18 -16l92 100h-12l-12 1zM199 831q13 -58 52.5 -133.5t77.5 -124.5l42 -54q120 -153 144 -222h187l-141 -414h-320l-141 414h183q-4 65 -11.5 94.5t-63.5 140.5q-55 107 -55 157q0 52 38 142h8z
M155 257l115 -334h262l115 334h-492zM323 297h149q-25 57 -136 199q-96 121 -142 238l-1 -26l2 -33q9 -52 71 -170q34 -69 43.5 -100.5t13.5 -107.5z" />
  </g>

</svg>
