<?xml version="1.0" standalone="no"?>
<!DOCTYPE svg PUBLIC "-//W3C//DTD SVG 1.1//EN" "http://www.w3.org/Graphics/SVG/1.1/DTD/svg11.dtd" >
<svg xmlns="http://www.w3.org/2000/svg" xmlns:xlink="http://www.w3.org/1999/xlink" version="1.1" viewBox="-10 0 2625 2048">
  <g transform="matrix(1 0 0 -1 0 1638)">
   <path fill="currentColor"
d="M1364 962q36 54 104 73q-11 121 -11 195q0 183 52 347t142.5 265t206.5 126l-10 -548q288 348 490 348l111 -7l66 -7l-338 -517q-75 -95 -204 -216q-109 45 -177 45q-66 0 -117 -34q92 -28 129 -82q27 46 94 46q100 0 216.5 -65.5t203 -168.5t86.5 -180q0 -48 -19 -103
h-40q0 42 -17 77.5t-47 44.5q-36 11 -155 24l37 -33l37 -30q20 -17 35 -29.5t20 -37.5l-8 -8q-14 12 -27 12q-14 -1 -22 -18q-69 46 -105.5 81t-62.5 80q-150 50 -240 138q-14 -14 -27 -22q25 -48 25 -66q0 -80 -34 -216h-74l-18 3l-8 2l-2 -5h-86q-29 0 -40 14l-7 -14h-74
q-21 0 -33 9l-4 -7l-1 -2h-80q-46 0 -46 35q0 15 14.5 24.5t33.5 9.5h32q66 106 66 145q0 6 -45 96l-13 12q-6 -34 -20 -67t-31 -49h-24q-115 109 -115 233q0 57 7 109l-2 9l-65 89q-89 112 -118 172.5t-29 101.5q0 53 6 95h41l5 -40q8 -74 38 -128.5t88 -126.5l49 -66
l-8 56q-6 36 -35 144q-26 95 -26 130q0 61 38 106l30 -10q-8 -44 -8 -70q0 -22 26 -105q37 -123 48 -231q6 -63 26.5 -105.5t69.5 -82.5zM309 1770q-36 0 -36 56q0 52 24.5 110t66.5 87t98 29q178 0 178 -220v-754q76 94 214 94q56 0 109 -29t94 -80t41 -84
q0 -13 -10.5 -25.5t-25.5 -12.5q-17 0 -30.5 13.5t-32.5 39.5q-63 91 -146 91q-92 0 -146 -61.5t-57 -170.5q68 91 204 91q56 0 109 -29t94 -80t41 -84q0 -13 -10.5 -25.5t-25.5 -12.5q-17 0 -30.5 13.5t-32.5 39.5q-63 91 -146 91q-58 0 -101 -29t-67.5 -89t-24.5 -126
v-100q0 -51 -11.5 -75t-49.5 -24t-49.5 24t-11.5 75v100q0 67 -24 126.5t-67 88.5t-102 29q-33 0 -72 -23.5t-74 -67.5q-20 -26 -33.5 -39.5t-29.5 -13.5q-19 0 -27.5 12.5t-8.5 25.5q0 33 41 84t94 80t109 29q136 0 204 -91q-3 110 -57 171t-146 61q-40 0 -76.5 -23
t-77.5 -79q-14 -18 -26.5 -30t-28.5 -12q-19 0 -27.5 12.5t-8.5 25.5q0 33 41 84t94 80t109 29q138 0 214 -94v745q0 80 -24.5 113.5t-71.5 33.5q-46 0 -76 -39.5t-35 -98.5q0 -28 -10.5 -45t-31.5 -17zM1529 978l28 43q-90 -2 -140 -40.5t-50 -99.5q0 -42 33.5 -71.5
t81.5 -43.5l-15 23l23 15q59 -100 59 -114q0 -47 -59 -172h-39q-22 0 -22 -7q0 -8 20 -8h59l13 30q15 35 29.5 82.5t14.5 76.5q0 23 -60 118l23 14l43 -75l18 -1h16q48 0 82 8l-13 23l-6 10l23 15q59 -100 59 -114q0 -34 -11 -93t-19 -79h-48q-22 0 -22 -7q0 -8 20 -8h65
q31 93 31 189q0 23 -60 118l23 14l25 -42l24 20l-2 24l153 14q22 0 33 -8t38.5 -60.5t46.5 -93.5q22 -49 56 -86.5t97 -78.5q5 8 17 8h4l-69 54q-37 27 -60.5 62t-52.5 100q-33 72 -58 109q-7 12 -39 12l-20 -1l-132 -13l-2 27h4l12 2q0 28 -8 41q-34 73 -143 98
q-30 -26 -58 -58l-20 19q23 24 44.5 46.5t47 40.5t56.5 28.5t73 10.5q63 0 171 -36q46 44 92 88.5t89 98.5l315 477q-99 9 -125 9q-143 0 -342.5 -200t-437.5 -572zM1575 1048q125 188 240 330l10 549q-96 -28 -172 -124t-119.5 -248t-43.5 -325q0 -62 11 -189q30 7 64 7h10
zM309 1802q7 0 10 26q7 85 45.5 129.5t97.5 44.5q63 0 95.5 -41.5t32.5 -137.5v-809l-28 -6q-66 132 -218 132q-47 0 -93 -24.5t-82.5 -68.5t-36.5 -68q0 -6 4 -6q8 0 37 39q46 60 86.5 82.5t85.5 22.5q109 0 172 -74.5t63 -201.5v-55l-28 -6q-24 48 -49.5 73.5t-64.5 42
t-94 16.5q-47 0 -93 -24.5t-82.5 -68.5t-36.5 -68q0 -6 4 -6q8 0 37 39q46 60 86.5 82.5t85.5 22.5q68 0 118.5 -33.5t78.5 -100.5t28 -142v-100q0 -35 5.5 -51t23.5 -16t23.5 16t5.5 51v100q0 77 28 143.5t79 99.5t118 33q97 0 173 -107q7 -9 17 -23t19 -14q4 0 4 6
q0 24 -36.5 68t-83 68.5t-92.5 24.5q-56 0 -94.5 -17t-64.5 -42.5t-49 -72.5l-28 6v55q0 127 63 201.5t172 74.5q86 0 147 -75l26 -32q28 -37 36 -37q4 0 4 6q0 24 -36.5 68t-83 68.5t-92.5 24.5q-152 0 -218 -132l-28 6v818q0 188 -146 188q-54 0 -87.5 -29.5t-51.5 -74
t-18 -90.5q0 -24 4 -24zM1825 917q5 -16 7 -42q77 9 104 9q22 0 39 -2.5t26 -16.5q32 -50 54 -102.5t53 -106.5q160 -21 185 -29q59 -19 80 -109q8 37 8 64q0 72 -81.5 168t-191.5 157.5t-206 61.5q-67 0 -77 -52zM1340 881q0 32 11 57q-52 39 -76.5 88t-32.5 121
q-11 97 -48 226q-23 74 -23 108q0 20 5 37h-3q-12 -22 -12 -58q0 -29 26 -131q28 -113 37 -169.5t12 -95.5l-17 -6q-22 42 -53 81q-100 126 -127 181t-35 144h-3l-3 -44v-23q0 -37 30.5 -95t71.5 -107q113 -143 116 -162l1 -10q-7 -59 -7 -108q0 -110 88 -198v56h27v-43
q21 40 26 100q-11 24 -11 51zM1811 802q29 -31 86 -67t119 -59l-55 115q-7 14 -13.5 18t-18.5 4l-117 -10zM1431 757q26 -52 26 -67q0 -36 -80 -172h-44q-22 0 -22 -7q0 -8 20 -8h64l7 12q3 13 12 19q37 66 48 98.5t11 59.5q0 14 -20 56zM1595 721l-12 1q8 -19 8 -30
q0 -52 -39 -150l20 3h28q9 31 15.5 74t6.5 67q0 5 -16 35h-11zM1682 727q10 -20 10 -35q0 -65 -18 -147h27q9 31 15.5 74t6.5 67q0 7 -22 46zM1638 722q11 -24 11 -32q0 -28 -8.5 -82.5t-20.5 -89.5h-48q-22 0 -22 -7q0 -8 20 -8h54v8q0 19 21 29q20 80 20 152q0 8 -11 32z
M1488 737q12 -34 12 -45q0 -50 -50 -147h23q49 98 49 145q0 9 -22 43zM1262 888q33 0 33 -38q0 -18 -9 -27t-20 -9q-18 0 -25.5 12.5t-7.5 24.5t7 24.5t22 12.5zM1262 868q-7 0 -7 -17t11 -17q6 0 6 16q0 18 -10 18zM631 245q-151 0 -248 -91t-139 -284h774
q-41 193 -138.5 284t-248.5 91zM631 285q176 0 283 -110.5t154 -344.5h-874q47 233 154.5 344t282.5 111zM1970 245q-151 0 -248 -91t-139 -284h774q-41 193 -138.5 284t-248.5 91zM1970 285q176 0 283 -110.5t154 -344.5h-874q47 233 154.5 344t282.5 111z" />
  </g>

</svg>
