<?xml version="1.0" standalone="no"?>
<!DOCTYPE svg PUBLIC "-//W3C//DTD SVG 1.1//EN" "http://www.w3.org/Graphics/SVG/1.1/DTD/svg11.dtd" >
<svg xmlns="http://www.w3.org/2000/svg" xmlns:xlink="http://www.w3.org/1999/xlink" version="1.1" viewBox="-10 0 2566 2048">
  <g transform="matrix(1 0 0 -1 0 1638)">
   <path fill="currentColor"
d="M1033 308q0 32 -15.5 77.5t-32.5 91.5q-78 32 -171 93t-180.5 136.5t-158.5 153.5t-100.5 131t-29.5 124l5 58q9 70 305 492q-68 3 -101.5 10t-52.5 13.5t-39 17.5q-22 -4 -85.5 -8t-110.5 -4h-22q-21 0 -65.5 4.5t-61.5 17t-17 36.5q0 30 81 64q176 74 230 112
q37 72 117 121t162 49q102 0 167.5 -75t65.5 -197q0 -47 -25 -127.5t-102 -253.5q-45 -99 -45 -111q0 -30 52 -37h-1q211 -25 337 -59.5t212 -79.5q126 -65 395 -228q262 -157 376.5 -213.5t202.5 -83.5l-3 -36q-105 -14 -205 -24l339 -143v-32q-64 -34 -97 -45t-58 -11
q-29 0 -71 11l-86 21q-96 24 -116 24q-26 0 -122 -16q-98 -14 -116 -14q-42 0 -155 20l-23 -289l-1 -17l3 -35l3 -47q0 -27 -23 -50.5t-52 -23.5l-111 5q-25 -10 -82.5 -23.5t-84.5 -13.5h-7q-42 42 -168 55q44 46 88 73.5t76 27.5h217q9 0 18 14t9 25v95q0 79 -40 131
t-110 67l-109 23q-62 -108 -139 -301q-37 -94 -51 -123.5t-31 -42t-35 -12.5l-101 5q-25 -10 -82.5 -23.5t-84.5 -13.5h-7q-42 42 -168 55q45 54 88.5 86t75.5 32h204q26 0 44 10.5t33 33.5t32 91t17 106zM2042 566q-84 -8 -141 -8q-182 0 -419 42t-413 108.5t-263.5 147
t-87.5 170.5q0 31 14.5 59t39 52t66.5 48t51 24v-40l-21 -9q-47 -20 -78.5 -56.5t-31.5 -77.5q0 -115 161.5 -210t457 -156.5t524.5 -61.5q70 0 322 28q-115 45 -239 117t-258 153q-258 156 -393 226q-184 95 -536 135q-48 7 -67 26t-19 51q0 15 31 86l18 41
q123 272 123 365q0 102 -55 167t-138 65q-73 0 -145 -46t-102 -108h1l-1 -1q-16 -31 -16 -66q0 -64 60 -97t199 -36l29 -2q-32 -62 -181 -281q-137 -202 -144 -254l-5 -52q0 -46 13 -83t80.5 -115.5t156 -158t179 -141t164 -93.5t178.5 -58.5t199 -43.5q83 -17 132.5 -79
t49.5 -159v-95q0 -27 -21 -53t-44 -26h-219q-24 0 -86 -31q30 -6 55 -15q57 36 138 36h9v-28h-10q-61 0 -107 -23l21 -15q27 0 75.5 12t75.5 24l116 -4q15 0 26 11.5t11 22.5l-5 100q0 97 27 337q51 -11 110.5 -20t80.5 -9q15 0 110 14q93 16 128 16q34 0 126 -26
q112 -30 147 -30q36 0 100 29l-360 152zM909 27h-206q-27 0 -86 -48q35 -6 57 -16q52 37 139 37h9v-28h-10q-64 0 -108 -23l19 -15q27 0 75.5 12t75.5 24l106 -4q20 0 37 34l41 101q49 129 77.5 193t61.5 121q-100 25 -162 44q38 -103 38 -151q0 -61 -35 -171t-129 -110z
M387 1837l3 31q-32 -18 -69 -32l-73 -32l-97 -40q84 14 224 28l2 -30q-102 -6 -218 -25q37 -8 116 -8q58 0 146 11q-34 41 -34 97zM576 1922q0 21 15 35.5t37 14.5q21 0 35.5 -14.5t14.5 -35.5q0 -22 -14.5 -37t-35.5 -15q-22 0 -37 15t-15 37zM609 1922q0 -19 19 -19
q18 0 18 19q0 18 -18 18q-19 0 -19 -18z" />
  </g>

</svg>
