<?xml version="1.0" standalone="no"?>
<!DOCTYPE svg PUBLIC "-//W3C//DTD SVG 1.1//EN" "http://www.w3.org/Graphics/SVG/1.1/DTD/svg11.dtd" >
<svg xmlns="http://www.w3.org/2000/svg" xmlns:xlink="http://www.w3.org/1999/xlink" version="1.1" viewBox="-10 0 2486 2048">
  <g transform="matrix(1 0 0 -1 0 1638)">
   <path fill="currentColor"
d="M100 872q0 75 44.5 120.5t127.5 45.5q45 0 83 -6.5t93 -27.5q40 -17 68 -21l-120 124q-29 31 -29 61q0 23 14 36t37 13q39 0 77 -38l164 -164q169 66 249.5 87.5t172 35.5t194.5 14q89 0 172.5 -12t161.5 -32.5t232 -74.5q53 -19 97 -33.5t70 -14.5q31 0 78 14
q72 22 129 22q73 0 117 -42.5t44 -106.5q0 -38 -19 -72.5t-53.5 -55.5t-88.5 -21q-58 0 -129 22q-47 14 -86 14q84 -135 137 -260t81 -236.5t28 -186.5q0 -115 -76 -115q-33 0 -52 19q-18 -32 -61 -32t-65 44t-28 133q-24 254 -210 555q-148 -49 -258 -68.5t-221 -19.5
q-244 0 -484 88l-134 49l-162 -162q-38 -38 -77 -38q-23 0 -37 13t-14 36q0 30 29 61l117 121q-22 -4 -65 -20q-57 -21 -93.5 -27.5t-82.5 -6.5q-83 0 -127.5 45.5t-44.5 120.5zM1705 822q272 -376 299 -693q11 -141 53 -141q34 0 34 41v7q-7 23 -14 83q-49 343 -326 731
l35 21q141 -198 224 -389t107 -357q8 -56 19 -90t34 -34q36 0 36 75q0 167 -98.5 391.5t-259.5 441.5l34 20q58 -78 94 -133l32 3q27 0 88 -16q63 -20 119 -20q53 0 87 31t34 78t-34 78t-87 31q-56 0 -119 -20q-53 -16 -88 -16q-33 0 -78 14.5t-103 35.5q-155 56 -229 74.5
t-156.5 30.5t-166.5 12q-134 0 -267 -27t-312 -99q-108 -45 -150 -45q-46 0 -112 25q-84 32 -162 32q-63 0 -97.5 -34.5t-34.5 -91.5t34.5 -91.5t97.5 -34.5q78 0 162 32q63 25 112 25q42 0 150 -45q178 -72 310 -99t269 -27q218 0 457 83l-60 87zM570 984q21 4 48 15
l-151 152q-27 27 -43 27q-14 0 -14 -14t15 -29zM617 745l-49 15l-143 -149q-15 -15 -15 -29t14 -14q16 0 43 27z" />
  </g>

</svg>
