<?xml version="1.0" standalone="no"?>
<!DOCTYPE svg PUBLIC "-//W3C//DTD SVG 1.1//EN" "http://www.w3.org/Graphics/SVG/1.1/DTD/svg11.dtd" >
<svg xmlns="http://www.w3.org/2000/svg" xmlns:xlink="http://www.w3.org/1999/xlink" version="1.1" viewBox="-10 0 1810 2048">
  <g transform="matrix(1 0 0 -1 0 1638)">
   <path fill="currentColor"
d="M900 32q163 0 328 21.5t277 56.5t112 65t-113.5 65.5t-280 56.5t-323.5 21q-163 0 -328 -21.5t-277 -56.5t-112 -65t113.5 -65.5t280 -56.5t323.5 -21zM911 639q34 81 94.5 127t143.5 46q40 0 72 -14.5t58 -35t46 -43.5t35 -40q-33 -25 -33 -51q0 -19 17 -75
q19 -55 19 -82q0 -35 -12 -61q34 17 50 42t16 65q0 35 -10 70l40 27q18 -16 53 -30.5t65 -14.5q26 0 51.5 14t39.5 37q-8 -6 -21 -6q-29 0 -59 11.5t-72 49.5q-43 39 -77 39q-25 0 -48 -20l-30 37q-37 45 -90.5 73t-110.5 28q-77 0 -136.5 -36.5t-91.5 -95.5l-9 5v401
q34 81 94.5 127t143.5 46q40 0 72 -14.5t58 -35t46 -43.5t35 -40q-33 -25 -33 -51q0 -19 17 -75q19 -55 19 -82q0 -35 -12 -61q34 17 50 42t16 65q0 35 -10 70l40 27q18 -16 53 -30.5t65 -14.5q26 0 51.5 14t39.5 37q-8 -6 -21 -6q-29 0 -59 11.5t-72 49.5q-43 39 -77 39
q-25 0 -48 -20l-30 37q-37 45 -90.5 73t-110.5 28q-77 0 -136.5 -36.5t-91.5 -95.5l-9 5v562q0 104 -25 159.5t-78 87t-146 31.5q-64 0 -123 -31.5t-118 -106.5q-23 20 -48 20q-34 0 -77 -39q-41 -38 -71 -49.5t-59 -11.5q-14 0 -22 6q13 -22 38 -36.5t53 -14.5
q31 0 66 14.5t52 30.5l40 -27q-10 -35 -10 -70q0 -40 16 -65t50 -42q-12 26 -12 61q0 27 19 82q17 56 17 75q0 26 -33 51q54 61 82.5 82.5t64 36t75.5 14.5q84 0 133 -27.5t71.5 -77.5t22.5 -167v-548l-9 -5q-32 59 -91 95.5t-137 36.5q-59 0 -112 -28.5t-89 -72.5l-30 -37
q-23 20 -48 20q-34 0 -77 -39q-41 -38 -71 -49.5t-59 -11.5q-14 0 -22 6q13 -22 38 -36.5t53 -14.5q31 0 66 14.5t52 30.5l40 -27q-10 -35 -10 -70q0 -40 16 -65t50 -42q-12 26 -12 61q0 27 19 82q17 56 17 75q0 26 -33 51q15 17 35 40t46 43.5t58 35t72 14.5
q83 0 143.5 -46t94.5 -127v-401l-9 -5q-32 59 -91 95.5t-137 36.5q-59 0 -112 -28.5t-89 -72.5l-30 -37q-23 20 -48 20q-34 0 -77 -39q-41 -38 -71 -49.5t-59 -11.5q-14 0 -22 6q13 -22 38 -36.5t53 -14.5q31 0 66 14.5t52 30.5l40 -27q-10 -35 -10 -70q0 -40 16 -65t50 -42
q-12 26 -12 61q0 27 19 82q17 56 17 75q0 26 -33 51q15 17 35 40t46 43.5t58 35t72 14.5q83 0 143.5 -46t94.5 -127v-281h22v281zM350 1028q-47 -30 -108 -32q-14 -48 -14 -96l1 -22q68 13 122 48q-8 27 -8 56q0 24 7 46zM350 1741q-47 -30 -108 -32q-14 -48 -14 -96l1 -22
q68 13 122 48q-8 27 -8 56q0 24 7 46zM350 561q-47 -30 -108 -32q-14 -48 -14 -96l1 -22q68 13 122 48q-8 27 -8 56q0 24 7 46zM1450 1028q7 -22 7 -46q0 -29 -8 -56q50 -34 122 -48l1 22q0 48 -14 96q-61 2 -108 32zM951 358q189 -3 355.5 -28.5t266 -67.5t99.5 -87
q0 -46 -102.5 -88t-287.5 -68.5t-382 -26.5q-198 0 -382.5 26.5t-287 68.5t-102.5 88q0 68 213.5 123t507.5 59v273q-28 68 -79 105t-114 37q-76 0 -158 -89q17 -17 17 -45q0 -31 -21 -97q-17 -49 -17 -70q0 -44 21 -81l-34 -29q-63 26 -94 64q-38 -24 -66 -35t-112 -29
l-3 68q0 54 12 104q-31 7 -58.5 30t-42.5 50l15 50q29 -12 41 -12q56 0 116 55q23 20 46 37.5t48 17.5q31 0 50 -12q103 123 240 123q118 0 193 -72v297q-28 68 -79 105t-114 37q-76 0 -158 -89q17 -17 17 -45q0 -31 -21 -97q-17 -49 -17 -70q0 -44 21 -81l-34 -29
q-63 26 -94 64q-38 -24 -66 -35t-112 -29l-3 68q0 54 12 104q-31 7 -58.5 30t-42.5 50l15 50q29 -12 41 -12q56 0 116 55q23 20 46 37.5t48 17.5q31 0 50 -12q103 123 240 123q118 0 193 -72v467q0 88 -18.5 130.5t-59.5 65t-109 22.5q-89 0 -164 -89q17 -17 17 -45
q0 -31 -21 -97q-17 -49 -17 -70q0 -44 21 -81l-34 -29q-63 26 -94 64q-38 -24 -66 -35t-112 -29l-3 68q0 54 12 104q-31 7 -58.5 30t-42.5 50l15 50q29 -12 41 -12q56 0 116 55q23 20 46 37.5t48 17.5q31 0 50 -12q104 123 246 123q106 0 168.5 -36t91.5 -99.5t29 -182.5
v-467q75 72 193 72q138 0 240 -123q19 12 50 12q25 0 48 -17.5t46 -37.5q60 -55 116 -55q12 0 41 12l15 -50q-16 -29 -43 -51t-58 -29q12 -50 12 -104l-3 -68q-88 19 -116 30.5t-62 33.5q-31 -38 -94 -64l-34 29q21 37 21 81q0 21 -17 70q-21 66 -21 97q0 28 17 45
q-82 89 -158 89q-50 0 -87.5 -20.5t-65.5 -53.5t-40 -68v-297q75 72 193 72q138 0 240 -123q19 12 50 12q25 0 48 -17.5t46 -37.5q60 -55 116 -55q12 0 41 12l15 -50q-16 -29 -43 -51t-58 -29q12 -50 12 -104l-3 -68q-88 19 -116 30.5t-62 33.5q-31 -38 -94 -64l-34 29
q21 37 21 81q0 21 -17 70q-21 66 -21 97q0 28 17 45q-82 89 -158 89q-50 0 -87.5 -20.5t-65.5 -53.5t-40 -68v-272zM1450 561q7 -22 7 -46q0 -29 -8 -56q50 -34 122 -48l1 22q0 48 -14 96q-61 2 -108 32z" />
  </g>

</svg>
