<?xml version="1.0" standalone="no"?>
<!DOCTYPE svg PUBLIC "-//W3C//DTD SVG 1.1//EN" "http://www.w3.org/Graphics/SVG/1.1/DTD/svg11.dtd" >
<svg xmlns="http://www.w3.org/2000/svg" xmlns:xlink="http://www.w3.org/1999/xlink" version="1.1" viewBox="-10 0 1066 2048">
  <g transform="matrix(1 0 0 -1 0 1638)">
   <path fill="currentColor"
d="M935 349q-19 -98 -19 -135q0 -25 40 -189l-84 -31l-73 36l-56 -30h-239v20l-36 -26l-73 36l-56 -30h-239v79q198 40 228 62q23 16 59 52l185 407l-137 36l187 1414l210 -84q46 -19 74.5 -70.5t28.5 -118.5v-1428zM895 1777q0 54 -20.5 95.5t-59.5 57.5l-162 62
l-176 -1326l208 -58q35 -10 62 -29t49 -60q-5 -70 -5 -148q0 -101 9 -188q-56 -70 -103 -88.5t-156 -47.5v-7h190l64 35l72 -39l40 13q-31 138 -31 165q0 40 19 141v1422zM611 590l-184 -407q-36 -44 -65 -67t-119.5 -44.5t-105.5 -24.5v-7h190l64 35l72 -39l37 26
q-10 42 -10 71l126 222q25 41 97 199q-23 18 -102 36zM742 524q-76 -162 -92 -189l-120 -211l6 -38q29 6 89 25t81 33.5t55 49.5q-11 121 -11 177l4 131z" />
  </g>

</svg>
