<?xml version="1.0" standalone="no"?>
<!DOCTYPE svg PUBLIC "-//W3C//DTD SVG 1.1//EN" "http://www.w3.org/Graphics/SVG/1.1/DTD/svg11.dtd" >
<svg xmlns="http://www.w3.org/2000/svg" xmlns:xlink="http://www.w3.org/1999/xlink" version="1.1" viewBox="-10 0 2291 2048">
  <g transform="matrix(1 0 0 -1 0 1638)">
   <path fill="currentColor"
d="M100 1671v39q0 41 10.5 71t28 52.5t67.5 61.5l58 57q25 50 91.5 77t159.5 27q87 0 145 -22.5t99.5 -62.5t71 -93.5t59.5 -116.5l140 -74q71 -68 200 -223l636 576l296 -829l-38 -14l-22 61l-94 -20l15 -72l-40 -8l-15 72l-97 -20v-70h-40l2 816l-578 -522
q95 -118 281 -373l92 -111q189 -233 236 -274q28 -22 317 -292l-53 -69q-72 50 -252 158l177 -264l-342 -220l-227 415q-36 70 -102 132.5t-127 75.5v-428q-111 86 -160 96v-164q64 0 127 -8.5t96.5 -30t58 -55t30.5 -63.5q-38 20 -66 26t-73 6h-498q-44 0 -73 -6t-66 -26
q3 16 10 31q-51 -6 -94 -31q3 19 10 32h-33q-44 0 -73 -6t-66 -26q3 16 10 31q-51 -6 -94 -31q27 134 199 144l195 13l31 196q4 22 4 53q0 76 -22.5 177.5t-62.5 215t-54 156.5q-170 221 -200.5 269t-50 91t-27 76t-7.5 66v173q0 58 -24 92.5t-66 34.5q-58 0 -76 -45h-40z
M298 1860q0 21 15.5 38.5t43.5 17.5h84q65 0 108 -39.5t43 -98.5q0 -90 -134 -161l-17 -3q-20 0 -23 17h-18v-26h-26q-15 76 -47 123.5t-78 47.5q-25 0 -49 -21l16 1q63 0 96.5 -45t33.5 -122v-173q0 -65 44.5 -152.5t190 -271t223.5 -266.5q85 -91 137 -199t52 -186
l-14 -264q-76 0 -171 -11v-35h420v34q-43 7 -175 11v259q62 -11 162 -67v388q82 -4 165.5 -67.5t139.5 -164.5l207 -377l269 174l-195 291q-470 271 -1180 630q-55 29 -119.5 85.5t-101.5 113t-37 104.5q0 55 50.5 110t139 91t186.5 42l2 -40q-141 -10 -239.5 -70.5
t-98.5 -132.5q0 -59 72.5 -138.5t164.5 -128.5q569 -286 944 -492.5t535 -317.5l8 11l-146 136l-143 129q-36 28 -334 392q-332 460 -500 619l-144 76q-29 60 -57 112t-66 90.5t-91 60.5t-131 22q-71 0 -115.5 -13t-69.5 -32t-30 -39l-69 -68q-53 -42 -70 -69.5t-20 -59.5
q44 77 108 77q42 0 80 -33l9 -1q16 0 16 13l-1 13q-23 0 -39 16.5t-16 39.5zM1873 1900l-2 -648l217 45zM736 103l63 2l45 249q47 -8 108 -40l1 29q0 71 -50 171t-129 184q-50 54 -107 123q58 -162 80.5 -265.5t22.5 -190.5l-4 -60zM503 1704q0 -13 -4 -22q57 44 57 96
q0 44 -32 73t-83 29h-35q4 -8 4 -20q0 -35 -31 -51q12 -16 12 -30q0 -15 -9 -21t-26 -9q24 -39 33 -73l-2 23q0 26 15.5 45t41.5 19q25 0 42 -18.5t17 -40.5zM949 270q-24 19 -75 37q-9 -30 -36 -197l103 6zM444 1733q-14 0 -22.5 -10.5t-8.5 -28.5q0 -20 11.5 -29.5
t19.5 -9.5q32 0 32 39q0 11 -7 25t-25 14zM330 1860q0 -24 24 -24q23 0 23 24q0 10 -6.5 16.5t-16.5 6.5q-24 0 -24 -23zM467 20l22 5l48 6v30q-23 0 -42.5 -12t-27.5 -29zM713 20q35 10 60 11v30q-41 0 -60 -41zM584 31q22 26 49 41l-61 -6v-35h12zM374 20l46 9
q12 16 30 31q-47 0 -76 -40zM620 20l46 9q12 16 30 31q-47 0 -76 -40zM1263 59v-28q20 -2 62 -11q-27 29 -59 38z" />
  </g>

</svg>
