<?xml version="1.0" standalone="no"?>
<!DOCTYPE svg PUBLIC "-//W3C//DTD SVG 1.1//EN" "http://www.w3.org/Graphics/SVG/1.1/DTD/svg11.dtd" >
<svg xmlns="http://www.w3.org/2000/svg" xmlns:xlink="http://www.w3.org/1999/xlink" version="1.1" viewBox="-10 0 2815 2048">
  <g transform="matrix(1 0 0 -1 0 1638)">
   <path fill="currentColor"
d="M100 954q68 216 259.5 327.5t489.5 111.5h26q136 28 270 28q193 0 439 -102.5t430 -262.5l-79 -87q307 -199 399 -219q50 -10 252 -10h119l-276 -192l91 -316q-80 63 -163 121t-164 121q-128 97 -378 146l-7 -136q-86 17 -168.5 65.5t-142.5 116.5q-109 19 -206.5 46
t-180 56t-133.5 56l-2 -142q-62 36 -144 122t-124 160h1q-117 46 -200 46q-75 0 -166.5 -25t-167.5 -64l-14 6l-18 -12l-8 -6zM861 1353q-183 0 -328.5 -42.5t-246 -132t-140.5 -208.5q158 121 375 137l2 -40q-151 -10 -273 -76q153 59 258 59q53 0 125 -18q40 31 49 65.5
t9 66.5l-1 19l40 4l1 -27q0 -32 -8 -68.5t-45 -73.5l7 -2q70 55 70 150v14l40 4v-15q0 -102 -68 -169q101 -40 247 -128q84 -51 263.5 -103.5t299.5 -66.5q288 -33 439.5 -79.5t238.5 -115.5q46 29 74.5 78.5t28.5 107.5l-1 20q-53 15 -164.5 77t-373.5 234l-125 82
q-138 91 -250.5 138.5t-248.5 78t-294 30.5zM1902 991l56 61q-171 145 -403 237t-410 92l-75 -3q120 -17 219.5 -49t182 -71t204.5 -118zM849 1184q110 -11 205.5 -59t147.5 -117q-65 -41 -130 -41q-68 0 -139.5 25t-131.5 71zM2579 700h-53q-92 0 -169 7l1 -14
q0 -62 -29 -118.5t-81 -93.5l200 -143l-65 226zM876 1141l-27 -66q41 -30 101.5 -49t121.5 -19q33 0 69 13q-47 51 -118.5 81t-146.5 40zM1560 658q102 -96 210 -124l5 94q-101 18 -215 30zM938 847q-89 54 -169 91q77 -109 168 -182l1 56v35zM582 1273q0 15 11 26t26 11
t26 -11t11 -26t-11 -26t-26 -11t-26 11t-11 26z" />
  </g>

</svg>
