<?xml version="1.0" standalone="no"?>
<!DOCTYPE svg PUBLIC "-//W3C//DTD SVG 1.1//EN" "http://www.w3.org/Graphics/SVG/1.1/DTD/svg11.dtd" >
<svg xmlns="http://www.w3.org/2000/svg" xmlns:xlink="http://www.w3.org/1999/xlink" version="1.1" viewBox="-10 0 2383 2048">
  <g transform="matrix(1 0 0 -1 0 1638)">
   <path fill="currentColor"
d="M139 838q16 0 30 -7q41 56 127.5 122.5t181.5 114.5l168 348h1345l-225 -470l35 -3q56 0 149 51l235 132q40 -48 63.5 -141.5t23.5 -181.5q0 -106 -23.5 -196t-65.5 -131l-211 148q-69 58 -109 58q-34 0 -130 -41q88 -44 133 -88.5t45 -82.5q0 -36 -29 -61t-77 -25
q-41 0 -106.5 18t-154 55t-126.5 58q-166 -51 -340 -51h-8q26 -28 26 -53q0 -73 -82 -73q-41 0 -112.5 43t-141.5 106l1 2q-81 16 -195 55h-60q-104 0 -194.5 29.5t-140.5 79.5q-20 -11 -32 -11q-30 0 -30 27q0 20 23 38q22 17 22 23q0 7 -27 28q-27 20 -27 34
q0 15 9.5 30.5t29.5 15.5zM1078 504q130 0 267 33.5t327 119.5l11 5l1 1q57 25 101.5 42t77.5 17q25 0 50 -9.5t35 -19.5q11 42 11 114q0 86 -13 138q-20 -16 -58 -29t-87 -13q-65 0 -122.5 24.5t-122.5 58.5q-145 74 -222.5 99t-172.5 41t-213 16q-139 0 -276.5 -39.5
t-262 -118.5t-200.5 -166q-14 -16 -14 -76q0 -59 14 -71q43 -39 122 -63t175 -24h65l1 -1q50 41 99.5 110t59.5 108q97 20 183 20q104 0 174 -33.5t70 -86.5q0 -52 -61.5 -84.5t-164.5 -32.5q-49 0 -118.5 25.5t-105.5 60.5q-45 -59 -93 -101q94 -30 152 -41t132.5 -17.5
t178.5 -6.5zM1726 955l202 421h-1256l-136 -281q201 87 412 87q122 0 224 -18t190.5 -48t211.5 -94q103 -53 152 -67zM1999 807q0 -95 -14 -144l186 -132q29 36 45 110t16 162q0 75 -18.5 153.5t-43.5 117.5l-184 -104q13 -62 13 -163zM734 709q30 -32 91.5 -58.5
t106.5 -26.5q86 0 136 21t50 56t-58 57.5t-146 22.5q-17 0 -97 -7l-53 -7q-10 -28 -30 -58zM1683 619q-132 -59 -210 -86q234 -109 332 -109q30 0 48 13t18 33q0 30 -47.5 69t-140.5 80zM833 477q125 -99 181 -99q42 0 42 33q0 17 -45 53q-111 4 -178 13zM356 878
q0 17 11.5 29t31.5 12q18 0 30 -12t12 -29q0 -18 -12 -29t-30 -11q-20 0 -31.5 11t-11.5 29z" />
  </g>

</svg>
