<?xml version="1.0" standalone="no"?>
<!DOCTYPE svg PUBLIC "-//W3C//DTD SVG 1.1//EN" "http://www.w3.org/Graphics/SVG/1.1/DTD/svg11.dtd" >
<svg xmlns="http://www.w3.org/2000/svg" xmlns:xlink="http://www.w3.org/1999/xlink" version="1.1" viewBox="-10 0 2399 2048">
  <g transform="matrix(1 0 0 -1 0 1638)">
   <path fill="currentColor"
d="M608 398q-146 0 -262.5 58.5t-181 166t-64.5 248.5q0 177 96 177q93 0 129 -173q9 -42 22 -89t43.5 -86.5t86.5 -65t151 -25.5h1661v-211h-1681zM608 569q-100 0 -159 29t-92.5 73.5t-47.5 96.5t-24 99q-29 141 -89 141q-56 0 -56 -137q0 -131 59 -229t166.5 -151
t246.5 -53h1637v131h-1641z" />
  </g>

</svg>
