<?xml version="1.0" standalone="no"?>
<!DOCTYPE svg PUBLIC "-//W3C//DTD SVG 1.1//EN" "http://www.w3.org/Graphics/SVG/1.1/DTD/svg11.dtd" >
<svg xmlns="http://www.w3.org/2000/svg" xmlns:xlink="http://www.w3.org/1999/xlink" version="1.1" viewBox="-10 0 2304 2048">
  <g transform="matrix(1 0 0 -1 0 1638)">
   <path fill="currentColor"
d="M998 933q101 0 311 45q186 48 361 48q74 0 108 -9q68 -19 91 -22t46 -3q54 0 100.5 17.5t80.5 71.5q30 50 46.5 69t30.5 19q8 0 14.5 -14.5t6.5 -40.5q0 -100 -67 -173t-165 -93q71 -219 71 -339l-2 -38q-13 -26 -13 -65q0 -59 23.5 -135t46.5 -106v-70l-37 -284v-167
l-60 -24l-28 -69h-184l75 95l76 177l-28 353l-135 130l-4 -109q-52 -138 -184 -420l-18 -112l-40 -4l-19 -41l-32 -1l-28 -69l-191 1l62 81l136 151l110 330l-6 268q-174 -68 -334 -68q-136 0 -325 40l31 -50l3 -280q20 -61 40 -156t26 -193l-81 -54l-28 -70l-191 1l152 193
l2 68l-7 28q-44 189 -126 309l-105 157l-101 -346l-167 -340h-23l-28 -70l-191 1l86 109q46 71 127 248l57 251q50 221 77 325q-84 87 -157.5 197t-154.5 276l250 221q215 -245 613 -245zM521 470q-51 123 -63 260l38 10q6 -90 26 -159.5t50 -130.5t68.5 -118t82.5 -122
q58 -84 83 -138t49 -134t33 -120l-3 -95l-52 -63l73 -1l47 34q-15 120 -23 157l-42 170l-9 274l-102 175l32 24l58 -95v1q203 -46 352 -46q102 0 218.5 32.5t179.5 81.5q-64 97 -64 248v22l3 29l40 -6l-3 -26v-19q0 -176 115 -291l234 -230l28 -381l-69 -154h64l46 16v144
l37 282v54q-29 37 -48.5 112.5t-19.5 145.5q0 43 10 68l2 38q0 31 -5.5 71.5t-16 87t-50.5 165.5l-12 35q112 8 180.5 76t68.5 164l-13 -21q-35 -62 -54 -80q-70 -65 -178 -65q-55 0 -142 24q-35 9 -90 9q-153 0 -383 -52q-173 -40 -299 -40q-184 0 -346.5 60.5
t-272.5 166.5l-195 -173q94 -185 174 -296t163 -181zM484 450l-135 -558l-114 -233h86l153 322q83 286 104 375l-19 34q-39 28 -75 60zM1606 108l-123 -351l-89 -98h81l21 33l30 3l17 97q158 349 181 417l-3 129l-84 87l-41 -25zM826 -423h34l21 43h-32zM232 -423h34l21 43
h-32zM1383 -423h34l21 42h-32zM760 -422h35l27 42h-29zM1317 -422h35l27 42h-29zM166 -422h35l27 42h-29zM1845 -422h31l27 42h-25zM1913 -422h25l21 42h-23z" />
  </g>

</svg>
