<?xml version="1.0" standalone="no"?>
<!DOCTYPE svg PUBLIC "-//W3C//DTD SVG 1.1//EN" "http://www.w3.org/Graphics/SVG/1.1/DTD/svg11.dtd" >
<svg xmlns="http://www.w3.org/2000/svg" xmlns:xlink="http://www.w3.org/1999/xlink" version="1.1" viewBox="-10 0 2771 2048">
  <g transform="matrix(1 0 0 -1 0 1638)">
   <path fill="currentColor"
d="M147 577q18 0 36 -16l172 -167l174 167q18 16 36 16q17 0 29 -12.5t12 -30.5q0 -16 -11 -27l-140 -133q53 -19 92.5 -51.5t55.5 -57.5l64 -85q34 -45 59.5 -61t53.5 -16q46 0 108.5 19t145.5 47q73 24 135 38q-31 47 -68.5 85t-81.5 71.5t-159 98.5l298 1378
q19 105 74 156.5t137 51.5q83 0 137.5 -52t73.5 -156l298 -1378l-76 -43q-178 -104 -256 -250l86 -36q297 -135 583 -135q105 0 178.5 4.5t222.5 25.5l8 1q15 0 26 -12.5t11 -31.5q0 -32 -28 -47q-183 -89 -429 -89q-136 0 -453 34q-196 22 -259 25q10 -70 46 -196h-338
q27 94 43 182q-183 -28 -252 -36.5t-146 -8.5q-102 0 -158.5 21t-110.5 87l-76 93q-50 64 -75 64l-36 -6q-47 -13 -97 -13q-82 0 -137 35t-55 88q0 48 43.5 93t112.5 64l-137 132q-13 11 -13 28t11.5 29.5t29.5 12.5zM907 481l73 -46q161 -100 235 -219q42 8 84 8
q87 0 205 -40q74 140 248 247l79 50l-291 1351q-15 65 -34.5 97.5t-52 55.5t-84.5 23t-84.5 -23t-52 -55.5t-34.5 -97.5zM359 351q-56 0 -107 -19.5t-81.5 -51t-30.5 -62.5q0 -37 44.5 -60t111.5 -23q34 0 84 10q26 8 45 8q16 0 31 -8t27.5 -20t23.5 -25t20 -23l76 -93
q42 -53 97 -74t145 -21q100 0 289 31q75 10 149.5 19.5t155.5 9.5q62 0 315 -25q201 -22 287.5 -28.5t162.5 -6.5q75 0 162 14t168.5 40.5t81.5 36.5q0 4 -8 4l-10 -1q-83 -14 -165 -20t-218 -6q-103 0 -198.5 16.5t-180 41t-217.5 79.5q-202 90 -320 90q-89 0 -254 -55
q-83 -28 -148 -47.5t-117 -19.5q-37 0 -70.5 20t-70.5 70l-64 86q-90 113 -216 113zM1484 -248q-23 81 -33 157h-12q-78 0 -154 -9q-12 -68 -31 -148h230zM417 385l142 135q13 13 13 18q0 6 -7 6q-8 0 -16 -10l-150 -145zM141 538q0 -6 12 -18l142 -135l17 3l-148 146
q-9 10 -16 10t-7 -6zM311 289q0 12 8 21t22 9q12 0 21 -9t9 -21q0 -13 -9 -22t-21 -9q-14 0 -22 9t-8 22z" />
  </g>

</svg>
