<?xml version="1.0" standalone="no"?>
<!DOCTYPE svg PUBLIC "-//W3C//DTD SVG 1.1//EN" "http://www.w3.org/Graphics/SVG/1.1/DTD/svg11.dtd" >
<svg xmlns="http://www.w3.org/2000/svg" xmlns:xlink="http://www.w3.org/1999/xlink" version="1.1" viewBox="-10 0 1592 2048">
  <g transform="matrix(1 0 0 -1 0 1638)">
   <path fill="currentColor"
d="M791 2056q60 -42 91 -130q30 16 62 16q58 0 101 -54l-6 -37q-35 -1 -59.5 -25t-32.5 -87q-6 -45 -38.5 -93t-74.5 -67v-1121q69 -9 124 -42l160 628q-32 25 -50.5 70t-19.5 81l2 63q0 38 -8 54t-23 28.5t-33 17.5l4 37q13 13 36.5 21.5t46.5 9.5q46 0 84 -34
q54 78 119 104q45 -55 58 -149l31 5q41 0 73.5 -24.5t43.5 -57.5l-15 -33l-18 2q-32 0 -55 -18.5t-43 -70.5q-18 -45 -62 -82t-87 -45l-169 -665q92 -96 92 -230q0 -138 -97.5 -235.5t-235.5 -97.5t-235.5 97.5t-97.5 235.5q0 132 90 228l-169 667q-43 8 -86.5 45t-61.5 82
q-21 53 -44.5 71t-54.5 18l-18 -2l-15 33q11 32 42 56.5t75 25.5l31 -5q13 94 58 149q65 -26 119 -104q38 34 84 34q45 0 83 -31l4 -37q-20 -6 -34 -18.5t-21.5 -28.5t-7.5 -53l2 -63q-2 -36 -20 -81t-51 -70l160 -629q57 34 124 43v1121q-43 20 -75.5 68t-37.5 92
q-8 63 -32.5 87t-59.5 25l-6 37q43 54 101 54q32 0 62 -16q31 88 91 130zM617 -107l175 174l173 -175q33 25 64 64l-177 173l177 171q-25 33 -64 64l-173 -175l-175 174q-38 -28 -63 -64l176 -170l-176 -172q25 -36 63 -64zM782 1611v-1151l10 1l8 -1v1151q47 16 76 58
t36 87q9 66 30.5 92.5t53.5 37.5q-21 16 -52 16q-29 0 -59.5 -27.5t-58 -72.5t-35.5 -73q-28 74 -71.5 123.5t-81.5 49.5q-31 0 -52 -16q32 -11 53.5 -37.5t31.5 -92.5q6 -46 35.5 -88t75.5 -57zM594 395l-171 672q37 24 55 65t18 85l-3 54q0 76 52 110q-11 7 -27 7
q-40 0 -65.5 -30t-44.5 -83t-22 -96q-32 48 -84 90t-90 42q-15 0 -33.5 -7.5t-30.5 -22.5q56 -4 87 -52l27 -53q17 -42 56.5 -76t86.5 -37l173 -680zM1434 1281q-11 15 -29.5 22.5t-34.5 7.5q-38 0 -90.5 -42.5t-83.5 -89.5q-3 44 -22 97t-44.5 82.5t-65.5 29.5
q-16 0 -27 -7q52 -34 52 -110l-3 -54q0 -44 18 -85.5t55 -64.5l-171 -670l16 -13l173 679q47 3 87 37.5t57 75.5q25 61 52.5 81.5t60.5 23.5zM792 421q-75 0 -139 -35l139 -138l138 138q-64 35 -138 35zM792 -165q74 0 138 35l-138 138l-139 -138q64 -35 139 -35zM1085 128
q0 73 -34 136l-140 -135l140 -137q34 62 34 136zM499 128q0 -73 33 -135l139 136l-139 134q-33 -62 -33 -135zM791 1824q27 52 57 78q-21 72 -57 106q-36 -34 -57 -106q35 -31 57 -78zM1220 1271q35 40 74 61q-3 77 -29 117q-44 -23 -81 -89q20 -29 36 -89zM362 1271
q16 60 36 89q-37 66 -81 89q-26 -40 -29 -117q39 -21 74 -61z" />
  </g>

</svg>
