<?xml version="1.0" standalone="no"?>
<!DOCTYPE svg PUBLIC "-//W3C//DTD SVG 1.1//EN" "http://www.w3.org/Graphics/SVG/1.1/DTD/svg11.dtd" >
<svg xmlns="http://www.w3.org/2000/svg" xmlns:xlink="http://www.w3.org/1999/xlink" version="1.1" viewBox="-10 0 3066 2048">
  <g transform="matrix(1 0 0 -1 0 1638)">
   <path fill="currentColor"
d="M2172 -205q-29 -11 -68 -11q-53 0 -78 25q-54 -35 -125 -35q-57 0 -89 21q-33 -30 -80 -30q-109 0 -140 22q-16 -16 -53 -16q-43 0 -101.5 10.5t-71.5 21.5l-9 9q-18 -16 -47 -16q-25 0 -70 19t-75 41q-13 -11 -40 -11q-21 0 -90 37t-94 52q49 -109 212 -319l140 -47
l-1 -41l-62 3l52 -43l-19 -36l-66 25l33 -52l-37 -26l-59 38l-1 -56l-39 -2l-30 40l-23 6q-41 11 -91 73l-20 8l-2 -30l-48 -10l-51 75l-3 -24l-53 -1l-50 121l-18 -28l-32 2l-24 90l-47 1l-12 138l-16 -21l-31 3q-6 69 -6 134q0 95 40 152.5t116 71.5q-16 33 -22 63
q-48 9 -93 34q-27 -18 -69.5 -30.5t-82.5 -12.5q-66 0 -145 28t-125.5 68.5t-55.5 88.5q11 49 58 93t128 77.5t143 33.5q63 0 135 -31q45 29 89 42q5 33 18 67q-136 17 -166 195l-11 88l-4 46l31 8l18 -19l-9 138l46 9l9 92l32 7l22 -24l30 127l53 7l7 -24l39 83l49 -3
l6 -29l19 12q20 35 40 57.5t60 37.5l23 44l39 4l9 -55l53 47l40 -20l-24 -57l62 35l23 -32l-43 -51l60 12l8 -40l-132 -67q-129 -236 -163 -361q135 97 173 103h9q17 0 32 -8q25 23 72 48t77 25q21 0 38 -13l8 10q12 14 82.5 31t101.5 18q22 0 41 -12q23 17 72 25.5t80 8.5
q35 0 68 -23q37 30 112 30q55 0 102 -26q25 34 96 34l26 -2q14 20 51.5 53.5t73 56.5t122 61t147.5 60l137 103l30 -26l-9 -21l2 -3l31 11l20 -43l-16 -10l2 -3l17 1l5 -36l-28 -23v-5l24 -1l3 -37l-18 -4v-5l18 -5q0 -74 -48.5 -123.5t-146.5 -92.5q47 -30 99 -85
q50 -15 104 -57t99.5 -103t97 -180.5t51.5 -163.5q0 -46 -40 -167t-80 -184t-89 -109t-96 -64q-44 -54 -86 -88q79 -25 126 -52t72 -58t36 -96l-18 -6v-5l19 -3v-37l-24 -3v-5l30 -21l-2 -36h-17l-1 -4l16 -9l-16 -44l-32 9l-2 -3l11 -21l-27 -28l-146 91q-96 27 -185.5 59
t-149.5 73t-82 71zM2020 303l-2 196l-16 193q-40 24 -85.5 37.5t-79.5 13.5q-51 0 -111.5 -17t-95.5 -42q18 -70 18 -120l-5 -80l8 -48l6 -60q0 -37 -9 -97q25 -18 80.5 -30t112.5 -12q42 0 89 17.5t90 48.5zM713 142q-45 -2 -75.5 -27t-45.5 -64.5t-15 -74.5v-41l3 -51l5 1
l18 47h22l11 -179h6l1 48l25 2l26 -115l6 1l2 27l26 5l64 -150l5 1l-3 52l15 6l86 -115l9 1l-6 30l24 3l49 -20q27 7 66 31t68 51q-172 222 -222 358q-64 41 -101.5 80t-68.5 93zM1012 1323q-28 19 -69.5 37.5t-75.5 23.5l-45 -28l-24 -1l1 31l-9 -1l-67 -126l-16 3l-5 52
l-5 1l-40 -159l-26 1l-6 26h-6l-8 -118l-25 -1l-9 47l-6 -1l17 -179l-21 -3l-26 44h-5l9 -70q2 -21 8 -39q12 -53 48 -88.5t86 -37.5q37 75 75 118t86 78q12 62 54 164.5t110 225.5zM1617 376l-5 51l-9 55l6 81q0 61 -18 110l-107 5l-46 -2q-76 -6 -234 -89l-7 -122l18 -129
q164 -67 242 -67q53 0 152 17q8 56 8 90zM2217 751q-27 0 -79 -11.5t-97 -26.5l15 -212l4 -215q93 -23 159 -23q56 0 140 47l-16 204l-2 201q-79 36 -124 36zM1622 248l-32 -5q-73 -14 -129 -14l-8 -100l-10 -179v-9q83 -26 231 -26q126 0 188 30q-25 92 -40 252
q-56 1 -110.5 15t-89.5 36zM1601 712q90 56 194 69q0 163 17 254q-42 17 -93 18q-85 0 -176.5 -14t-147.5 -38l10 -71l35 -214l43 2q40 0 118 -6zM1017 654q42 0 126 -23l39 -11q137 72 218 90l-33 198l-11 82q-80 -14 -159 -48.5t-136 -80.5t-75 -99t-18 -115q16 6 36 6z
M1022 253q-21 0 -37 4q14 -91 40.5 -134t86 -80.5t141 -63t150.5 -30.5l4 82l14 201q-49 7 -114 28t-110 42q-122 -49 -175 -49zM2813 798l-172 -118q25 -66 25 -132v-23l3 -55q0 -52 -14 -99l182 -101q28 56 53 140.5t25 122.5q0 36 -34.5 124.5t-67.5 140.5zM2629 470
l-3 56v23q0 113 -59 182l-23 1q-63 0 -164 -20l2 -197l16 -198q58 -7 115 -7q48 0 73 5q43 60 43 155zM2021 256q-75 -50 -159 -58q11 -150 39 -244l78 -2q90 0 160.5 18.5t117.5 47.5q-7 12 -10 32l-29 173q-40 0 -104 12t-93 21zM1999 739l30 11q88 32 163 40
q10 146 13 170.5t8 36.5q-89 43 -208 45q-24 -1 -152 -12q-18 -97 -18 -246q85 -2 164 -45zM1175 335q-17 107 -18 128l7 121q-109 31 -146 31q-36 0 -66 -17.5t-48.5 -42.5t-18.5 -44v-2v-21l5 -102q0 -16 18.5 -39.5t47.5 -38.5t66 -15q45 0 153 42zM2243 -195
q-18 0 -30 4q59 -59 141 -96.5t234 -80.5q85 121 94 195q-10 10 -59.5 31t-105.5 33q-31 -18 -54 -18q-22 0 -40 11q-39 -28 -95 -53.5t-85 -25.5zM2410 1160q19 0 46 -10q42 13 86 37t51 33q-16 75 -110 187q-114 -41 -207.5 -90t-146.5 -111l17 -7q17 9 40 9
q29 0 82 -17.5t98 -44.5q17 10 40 14h4zM2364 750q98 20 157 22l30 -1q-24 53 -59 89.5t-114.5 82.5t-101.5 46q-20 0 -26.5 -16.5t-17.5 -182.5q52 -6 107 -29zM2385 278q-77 -42 -127 -52l29 -168q2 -11 7.5 -18.5t23.5 -7.5q21 0 94 51t106.5 91.5t54.5 98.5l-60 -3
q-76 0 -128 8zM712 444l4 15l7 19l-47 128q-35 -5 -70 -27.5t-52 -45.5l14 -95l-5 -105q27 -27 61.5 -43.5t66.5 -18.5l35 132q-9 16 -14 41zM949 774q-60 -14 -111.5 -34t-88.5 -43t-49 -63l63 -149l11 7l70 6q3 42 26 76.5t57 54.5q0 25 6.5 72.5t15.5 72.5zM767 400
l-50 -155q14 -40 61 -61t102.5 -35t97.5 -21q-10 23 -21 69t-14 74q-35 17 -61.5 49t-33.5 73l-70 1zM2791 832q-31 54 -87.5 103t-99.5 63l-84 -109q32 -32 49 -65.5t31 -71.5l23 -34zM2640 332q-7 -18 -19 -36q-26 -91 -67 -142l93 -102q49 23 97.5 74.5t73.5 106.5z
M384 363q15 0 75 4.5t66 7.5l5 55l-10 58l-66 1h-40q-66 0 -114 -18.5t-48 -50.5q0 -26 34 -41.5t98 -15.5zM2570 1019q-108 102 -158 102q-21 0 -38 -23t-28 -93q65 -34 147 -90zM2390 23q25 -110 73 -110q25 0 65.5 31t85.5 85l-86 96q-60 -54 -138 -102zM2318 -8l-25 2
q-40 -27 -83 -44l1 -37q0 -45 8.5 -56.5t23.5 -11.5q21 0 65 19.5t84 46.5q-14 19 -19 33l-18 59q-25 -11 -37 -11zM2277 1028q13 0 32 -7q4 21 10 48.5t19 46.5q-43 24 -86 38t-63 14q-33 0 -33 -36l4 -71q45 -14 87 -36l25 3h5zM1029 56l-23 27q-160 24 -252 67
q38 -63 93.5 -109t102.5 -67q23 40 79 82zM993 850l-19 13q-38 24 -67 62q-42 -22 -97 -78t-82 -115q36 22 84 41t160 49zM1197 -42q-78 29 -135 72q-12 -7 -29 -21t-49 -55q14 -8 34.5 -20t41.5 -23t39 -18.5t26 -7.5q14 0 23 9zM1085 1031q-18 0 -43 -14.5t-51.5 -32
t-51.5 -36.5q18 -21 35.5 -36t48.5 -32q56 47 129 82l-62 67zM2717 -198q-22 -88 -95 -194l99 -67l2 3l-12 20l18 18l19 -6l2 4l-27 15l12 34h25l1 4l-27 15l1 31l22 3v4l-19 8l2 37l15 3q-10 40 -38 68zM2626 1249q20 22 32 71l-16 1l-4 37l18 10l-1 4l-22 1l-3 30l26 18
l-2 4l-24 -3l-16 34l26 17l-2 4l-18 -9l-20 17l10 21l-2 3l-93 -75q83 -103 111 -185zM884 1418q67 -14 155 -66l94 43l-1 4l-49 -11l-11 30l36 28l-2 3l-41 -17l-26 14l26 49l-6 3l-31 -45l-34 2l-8 59l-6 1l-6 -37h-6q-13 0 -32 -7t-52 -53zM1136 -413q-77 -65 -143 -90
q19 -22 38 -34t42 -12l19 2l11 -36l6 1l-2 60l33 7l39 -39l5 4l-33 45l23 17l43 -11l2 4l-40 22l6 31l50 -3v4zM1963 1080l-8 63q-39 28 -96 28l-18 -1q-11 -2 -23.5 -4t-23 -5t-17.5 -7t-7 -8q2 -22 31 -65l36 -13l90 9zM1979 -88l-90 3l-35 -17q-6 -9 -15 -30t-9 -37
q0 -7 19.5 -12t51.5 -5q68 0 113 36v39l1 24l-19 -1h-17zM1530 1077q-12 23 -19 56q-4 8 -21 8q-10 0 -47 -6.5t-65.5 -14t-38.5 -13t-10 -16.5v-2q0 -17 34 -44l12 -11q55 24 155 43zM1584 -122q-98 9 -158 29q-24 -24 -36 -42l-5 -17q0 -15 21.5 -21t62.5 -11t70 -5
q28 0 32 9q2 34 13 58zM1376 -89q-75 11 -140 33l-49 -64q13 -13 54.5 -28.5t68.5 -15.5q25 0 32 20q10 26 34 55zM1257 1094q-22 0 -62.5 -17.5t-59.5 -36.5l54 -60q73 31 137 46q-26 24 -39 51q-9 17 -30 17zM1654 -125h-15l-15 1q-13 -25 -13 -45l1 -10q8 -11 37 -13.5
t83 -2.5q33 0 58 25q0 23 13 54q-49 -9 -149 -9zM1569 1082q39 11 88 12l91 -3q-13 23 -17 52l-1 1q-24 19 -49 19q-16 0 -67.5 -6.5t-61.5 -20.5q0 -27 17 -54zM2052 -126q0 -29 2.5 -36t15.5 -10.5t34 -3.5q42 0 76 17q-10 20 -10 57v38q-49 -15 -115 -21zM2119 1071
l-4 58q0 24 6 37q-23 12 -59 12q-59 0 -66 -19l-1 -12q0 -19 8 -65q59 0 116 -11zM244 478q56 52 191 52l59 -2q-69 15 -196 26q-63 -24 -100 -53zM205 334q37 -24 104 -44q145 26 194 42q-78 -9 -119 -9q-86 0 -135 37zM212 423q0 10 8 23l-53 25q-20 -25 -28 -55
q7 -29 33 -55l50 29q-10 15 -10 33zM529 563q-49 19 -95 19l-22 -1l-53 -8q99 -10 160 -21zM541 301l-12 10q-62 -19 -157 -34l54 -4q56 0 115 28zM846 433l-1 12v5l1 8l-57 -5l-37 -6l-2 -4l2 -3l37 -7h57z" />
  </g>

</svg>
