<?xml version="1.0" standalone="no"?>
<!DOCTYPE svg PUBLIC "-//W3C//DTD SVG 1.1//EN" "http://www.w3.org/Graphics/SVG/1.1/DTD/svg11.dtd" >
<svg xmlns="http://www.w3.org/2000/svg" xmlns:xlink="http://www.w3.org/1999/xlink" version="1.1" viewBox="-10 0 2408 2048">
  <g transform="matrix(1 0 0 -1 0 1638)">
   <path fill="currentColor"
d="M670 1683q192 0 329 -137l-217 -260v-64q0 -29 8 -49t31 -37q76 -58 316.5 -227.5t410.5 -269.5t243 -114v-13l507 -108l-123 -332q-63 56 -223.5 136.5t-303 123.5t-260.5 49h-71q-58 0 -135 14q14 -20 25 -37t11 -34l-44 -215q64 -11 94 -25q38 -20 52 -107l-40 -4
l-8 27h-351l-7 -27l-40 4l6 23h-196l-7 -27l-40 4l13 48q8 32 24.5 48.5t56 26t138.5 13.5l98 201l-100 143q-136 82 -212.5 153t-116.5 127t-62.5 117.5t-22.5 129.5q0 42 9 64t18 39q12 19 12 34q0 22 -37.5 37.5t-115.5 15.5q-49 0 -79 -6.5t-47.5 -14.5t-30.5 -26h-82
q0 83 56 125.5t157 42.5h165q0 29 16 59l-153 192q137 137 329 137zM1178 330q-4 22 -77 99l24 30q66 -38 192 -38h72q108 -3 246 -40.5t284.5 -106t236.5 -134.5l88 234l-482 110q-48 -14 -120 -24.5t-140 -10.5q-201 0 -429 63.5t-351 166.5t-123 214q0 58 35.5 93
t112.5 35q65 0 99 -24l-24 -32q-24 16 -75 16q-108 0 -108 -88q0 -64 67.5 -137.5t189.5 -137.5q139 -59 314 -94t292 -35q118 0 210 22q-107 38 -319 172.5t-499 348.5l-84 62q-45 34 -56.5 62t-11.5 66v56q0 106 -117 106q-49 0 -78 -27t-29 -64v-28h-205q-147 0 -173 -92
q30 35 75 52t133 17l134 -3v-22l-134 3q-74 0 -120 -14.5t-79 -52.5h17q16 21 65.5 36t107.5 15q97 0 145 -23t48 -60q0 -25 -18 -54q-21 -34 -21 -83q0 -90 49 -178.5t171 -194.5q86 -77 441 -268l-53 -269h-39q-95 0 -126 -34h321l-9 8q-30 15 -122 26zM625 1424
q116 0 148 -85l170 202q-43 43 -120 72.5t-153 29.5q-77 0 -154 -30t-119 -72l123 -153q41 36 105 36zM901 88l-6 -14h-44q-121 0 -152 -34h192q12 33 38 46l111 232l-20 50l-67 38l60 -87l-111 -231h-1zM982 105q27 5 85 8l41 208l-31 16l8 -20zM556 1299q0 11 8 19t19 8
t19 -8t8 -19t-8 -19t-19 -8t-19 8t-8 19z" />
  </g>

</svg>
