<?xml version="1.0" standalone="no"?>
<!DOCTYPE svg PUBLIC "-//W3C//DTD SVG 1.1//EN" "http://www.w3.org/Graphics/SVG/1.1/DTD/svg11.dtd" >
<svg xmlns="http://www.w3.org/2000/svg" xmlns:xlink="http://www.w3.org/1999/xlink" version="1.1" viewBox="-10 0 2364 2048">
  <g transform="matrix(1 0 0 -1 0 1638)">
   <path fill="currentColor"
d="M100 1309q0 62 68.5 177.5t119.5 115.5q28 0 33.5 -15t5.5 -28q0 -34 -39 -117q-21 -46 -21 -57q0 -18 32 -18l14 1l217 24q409 47 617 47q319 0 577 -24.5t530 -89.5l-35 -136q-188 47 -332 63q63 -78 89.5 -183t26.5 -255q0 -282 40.5 -445.5t148.5 -295.5l-121 -86
q-25 39 -50 78.5t-48 86.5t-43.5 105t-36 134t-24 173.5t-8.5 223.5q0 163 -31.5 262.5t-99.5 154t-190 76.5t-405 22q-198 0 -714 -58q-189 -23 -236 -23q-50 0 -67.5 22t-17.5 65zM140 1309q0 -23 9.5 -35t35.5 -12q32 0 232 23q516 58 718 58q269 0 379 -15.5t183.5 -51
t117.5 -98t65 -159.5t21 -231q0 -115 8 -206.5t22.5 -164.5t33.5 -131.5t42.5 -108t74.5 -132.5l53 36q-64 84 -99.5 172t-54 218t-18.5 343q0 158 -39.5 273t-136.5 214q201 -14 409 -64l11 56q-445 106 -1060 106q-200 0 -612 -47l-229 -25h-35q-50 1 -50 50q0 24 31 81
q38 76 38 97q0 7 -5 7q-23 0 -65 -67.5t-61 -112t-19 -73.5z" />
  </g>

</svg>
