<?xml version="1.0" standalone="no"?>
<!DOCTYPE svg PUBLIC "-//W3C//DTD SVG 1.1//EN" "http://www.w3.org/Graphics/SVG/1.1/DTD/svg11.dtd" >
<svg xmlns="http://www.w3.org/2000/svg" xmlns:xlink="http://www.w3.org/1999/xlink" version="1.1" viewBox="-10 0 1704 2048">
  <g transform="matrix(1 0 0 -1 0 1638)">
   <path fill="currentColor"
d="M100 701q143 72 201.5 107.5t82.5 56t92 92.5q151 157 244 239t194 153.5t210 125.5t227.5 86.5t242.5 32.5q0 -234 -54.5 -418.5t-154.5 -314t-248.5 -204.5t-299.5 -75q-40 0 -115 9l-69 6q-65 0 -159 -44.5t-186 -121.5l-32 10q-11 48 -64 113t-111 105zM149 680
q57 -42 99 -99.5t57 -100.5q90 71 185 114t163 43l35 -2q117 -13 149 -13q141 0 280 68t234.5 187t147.5 287.5t55 388.5q-237 -6 -489.5 -151t-560.5 -473q-85 -90 -108 -106q-86 -62 -247 -143zM854 724q-76 24 -169 24q-38 0 -112 -9q123 197 223.5 318.5t196.5 205
t204.5 146t232.5 97.5l10 -38q-113 -31 -211.5 -85.5t-186 -127t-176 -175t-213.5 -292.5h32q99 0 181 -26z" />
  </g>

</svg>
