<?xml version="1.0" standalone="no"?>
<!DOCTYPE svg PUBLIC "-//W3C//DTD SVG 1.1//EN" "http://www.w3.org/Graphics/SVG/1.1/DTD/svg11.dtd" >
<svg xmlns="http://www.w3.org/2000/svg" xmlns:xlink="http://www.w3.org/1999/xlink" version="1.1" viewBox="-10 0 1988 2048">
  <g transform="matrix(1 0 0 -1 0 1638)">
   <path fill="currentColor"
d="M208 1621q0 81 57.5 138.5t138.5 57.5q58 0 105 -30.5t71 -79.5q24 49 71 79.5t105 30.5t105 -30.5t71 -79.5q24 49 71 79.5t105 30.5t105 -30.5t71 -79.5q24 49 71 79.5t105 30.5q81 0 138.5 -57.5t57.5 -138.5q0 -48 -21.5 -89t-57.5 -68h151v-73q-57 -80 -104 -175
q60 44 115 44q59 0 99 -37.5t40 -93.5q0 -50 -46 -108.5t-111 -92.5q58 -28 106.5 -71.5t48.5 -71.5q0 -29 -14.5 -42.5t-30.5 -13.5q-31 0 -118 76q73 -99 102.5 -162.5t29.5 -106.5q0 -47 -37 -47q-14 0 -41 32t-73 103.5t-135 245.5q-16 -3 -68 -3q-47 -159 -74 -323.5
t-31 -290.5h-944q-10 280 -103 605t-239 533v73h187q-36 27 -57.5 68t-21.5 89zM140 1403q118 -168 209 -440h1129q91 274 210 440v21h-1548v-21zM1348 293q13 267 101 574h-1070q88 -307 101 -574h868zM248 1621q0 -64 46 -110t110 -46t110 46t46 110t-46 110t-110 46
t-110 -46t-46 -110zM1304 1621q0 -64 46 -110t110 -46t110 46t46 110t-46 110t-110 46t-110 -46t-46 -110zM952 1621q0 -64 46 -110t110 -46t110 46t46 110t-46 110t-110 46t-110 -46t-46 -110zM912 1621q-4 68 -48.5 112t-107.5 44q-64 0 -110 -45.5t-46 -110.5
q0 -66 45.5 -111t110.5 -45q64 0 108 44.5t48 111.5zM360 929l9 -28h1102q28 0 76 3t98 21t97 52.5t74.5 76t27.5 75.5q0 42 -31 69.5t-74 27.5q-69 0 -125.5 -62t-56.5 -141q0 -37 5 -60h21q-8 26 -8 46q0 64 49.5 129t104.5 65q40 0 62.5 -19t22.5 -54q0 -79 -96.5 -140
t-197.5 -61h-16h-17h-1127zM1609 1009q0 -14 7 -40q65 16 114.5 63.5t49.5 97.5q0 39 -51 39q-43 0 -81.5 -53t-38.5 -107zM1815 537q0 33 -29 93t-81 135t-89 116l-23 -6q26 -61 88 -166.5t92 -145.5t35 -40q7 0 7 14zM1688 909l-34 -15q43 -46 98.5 -88.5t76.5 -42.5
q14 0 14 22t-48.5 60t-106.5 64zM932 1535q-23 -45 -59 -71h118q-36 26 -59 71zM639 1464q-36 26 -59 71q-23 -45 -59 -71h118zM1343 1464q-36 26 -59 71q-23 -45 -59 -71h118zM1534 963l-4 44l-15 -44h19z" />
  </g>

</svg>
