<?xml version="1.0" standalone="no"?>
<!DOCTYPE svg PUBLIC "-//W3C//DTD SVG 1.1//EN" "http://www.w3.org/Graphics/SVG/1.1/DTD/svg11.dtd" >
<svg xmlns="http://www.w3.org/2000/svg" xmlns:xlink="http://www.w3.org/1999/xlink" version="1.1" viewBox="-10 0 2916 2048">
  <g transform="matrix(1 0 0 -1 0 1638)">
   <path fill="currentColor"
d="M1326 1338q-21 -38 -24.5 -54.5t-3.5 -44.5l1 -59q0 -28 -30 -28q-11 0 -20 7t-9 19q0 27 13 92l4 48l-4 40q-38 0 -75 -15.5t-77 -33.5q0 -115 -37 -178.5t-116 -91.5q6 24 13.5 69t7.5 68q0 53 -20 123q-21 12 -31 31l-79 6q-14 49 -14 73t56 104t125 146.5t147 114.5
t160 71q-19 57 -82 57q-14 0 -31 -3t-144 -43q-84 -26 -132 -26q-58 0 -141 43q-35 17 -65 29t-59 12q-50 0 -147 -43q-110 -49 -181 -49q-88 0 -155.5 68.5t-75.5 158.5h94q3 -40 35 -68.5t64 -28.5q61 0 204 51q50 19 95 34.5t75 15.5q48 0 140 -38q90 -36 125 -36
q26 0 63 11t81 25q120 40 167 40q72 0 126.5 -32.5t79.5 -92.5q38 66 91 95.5t120 29.5q57 0 169 -40q105 -36 141 -36q31 0 122 36q96 38 145 38q45 0 172 -50q138 -51 201 -51q32 0 65 28.5t37 68.5h94q-16 -98 -83 -162.5t-151 -64.5q-73 0 -185 49q-101 43 -143 43
q-45 0 -122 -41q-79 -43 -143 -43q-52 0 -177 39q-36 11 -71 22t-58 11q-33 0 -57 -17t-30 -44q35 -13 79 -60l22 -24q32 -28 100.5 -70t396.5 -220l72 -42l-23 -51q-142 -323 -160 -418q-50 -244 -50 -311l8 -56q10 -45 10 -79q0 -95 -52.5 -153.5t-171.5 -79.5l-564 -105
l577 46q29 29 76 29q33 0 58 -10.5t45 -51.5h99l93 -141v-82l-142 19l-103 54l-1028 -55q-51 0 -83.5 44.5t-32.5 107.5q0 64 27 103t84 62l678 269q39 15 60.5 55t21.5 85q0 56 -32 114l-289 482q-19 30 -36 36zM1447 1824q-85 0 -162 -28.5t-144.5 -73.5t-129 -108
t-102.5 -123t-41 -82l4 -35l72 -6q48 31 124 51l8 -31q-69 -16 -111 -42q28 -25 57 -25q22 0 74 26q37 17 80 33t88 16q33 0 57 -9.5t42.5 -27t45.5 -61.5l276 -458q38 -64 38 -134q0 -59 -27 -108t-81 -70l-678 -269q-85 -34 -85 -127q0 -53 21 -82.5t57 -29.5l1037 55
l34 -17q-9 44 -28.5 96.5t-73.5 52.5q-30 0 -49 -27q-462 -34 -701 -44v53l300 55q326 62 358 71q105 29 149.5 77t44.5 118q0 24 -10 71q-8 45 -8 64q0 75 50 319q9 47 52 159t99 238l23 52l-183 102q-286 155 -366 219q-46 53 -95 71.5t-116 18.5zM1474 1864q29 0 74 -8
q3 18 20 40t42.5 35t62.5 13q38 0 140 -34q114 -38 166 -38q32 0 64 12.5t64 27.5q35 17 69 30.5t68 13.5q33 0 90.5 -20t124.5 -46q75 -29 113 -29q65 0 118 44.5t68 109.5h-25q-9 -43 -49.5 -74.5t-73.5 -31.5q-71 0 -214 56q-123 48 -159 48q-29 0 -63.5 -12.5
t-70.5 -26.5q-89 -36 -133 -36q-43 0 -151 36q-42 14 -86 28t-73 14q-40 0 -69.5 -10.5t-51 -28t-38.5 -44.5t-27 -69zM1353 1855q32 9 78 9q-11 66 -62.5 109t-125.5 43q-33 0 -114 -27q-148 -51 -197 -51q-31 0 -64 10.5t-138 51.5q-36 13 -63 13q-26 0 -68.5 -15
t-91.5 -33q-59 -21 -115.5 -38.5t-98.5 -17.5t-78 31.5t-45 74.5h-26q13 -65 68 -109.5t119 -44.5q41 0 115 28q64 25 122 46t91 21q49 0 137 -44q34 -16 65 -28t63 -12q36 0 78.5 12t87.5 26q41 13 77 23.5t64 10.5q45 0 78 -24t44 -65zM1659 1711q-36 -176 -82.5 -242
t-124.5 -66q-41 0 -64.5 21.5t-23.5 63.5q0 102 150 274l35 -22q-145 -165 -145 -252q0 -19 12.5 -32.5t35.5 -13.5q60 0 98 67t66 208zM2021 145q16 -57 29 -123l111 -14v23l-75 114h-65zM1063 1292q-26 -13 -52 -13l-19 2q16 -42 16 -85q0 -47 -12 -99q62 52 67 195z
M1298 1722q24 0 39 -14t15 -31q0 -14 -15 -28.5t-39 -14.5q-20 0 -35.5 14.5t-15.5 28.5q0 17 15.5 31t35.5 14zM894 1414q28 35 58 50l15 -26q-11 -6 -25 -21t-19 -24zM1298 1658q12 0 17.5 7.5t5.5 11.5q0 5 -5.5 13t-17.5 8q-13 0 -18 -8t-5 -13q0 -4 5 -11.5t18 -7.5z
" />
  </g>

</svg>
