<?xml version="1.0" standalone="no"?>
<!DOCTYPE svg PUBLIC "-//W3C//DTD SVG 1.1//EN" "http://www.w3.org/Graphics/SVG/1.1/DTD/svg11.dtd" >
<svg xmlns="http://www.w3.org/2000/svg" xmlns:xlink="http://www.w3.org/1999/xlink" version="1.1" viewBox="-10 0 1793 2048">
  <g transform="matrix(1 0 0 -1 0 1638)">
   <path fill="currentColor"
d="M1208 1843q138 0 247 -54.5t168.5 -151.5t59.5 -214q0 -106 -36.5 -251t-141.5 -423q-101 -271 -134.5 -401t-33.5 -220l3 -54h-713q2 124 54.5 244.5t158.5 253.5q144 183 229 317.5t85 183.5q0 144 -427 163l-437 17q-53 0 -111 -41h-79q8 98 47.5 161.5t113 102
t204 62t242.5 30.5q9 17 65.5 72t109.5 92.5t111.5 63t110.5 36.5t104 11zM1208 1803q-65 0 -127 -19t-121.5 -52.5t-121.5 -86t-83 -83.5q17 -47 17 -146q0 -38 -6.5 -81.5t-13.5 -61.5q249 -15 345.5 -62.5t96.5 -137.5q0 -112 -303 -503q-105 -135 -160.5 -250
t-55.5 -206h622v14q0 92 31.5 219.5t138.5 415.5q107 284 141.5 424t34.5 236q0 105 -54.5 192.5t-154 137.5t-226.5 50zM732 1416q0 46 -14 113q-196 -16 -316 -47t-176 -76t-76 -120q30 55 101 84.5t171 29.5h309l1 8v8zM713 1276q7 28 15 84h-306q-91 0 -155.5 -26
t-89.5 -74q56 33 116 33zM1013 1536q0 27 19.5 46.5t46.5 19.5t46.5 -19.5t19.5 -46.5t-19.5 -46.5t-46.5 -19.5t-46.5 19.5t-19.5 46.5z" />
  </g>

</svg>
