<?xml version="1.0" standalone="no"?>
<!DOCTYPE svg PUBLIC "-//W3C//DTD SVG 1.1//EN" "http://www.w3.org/Graphics/SVG/1.1/DTD/svg11.dtd" >
<svg xmlns="http://www.w3.org/2000/svg" xmlns:xlink="http://www.w3.org/1999/xlink" version="1.1" viewBox="-10 0 2318 2048">
  <g transform="matrix(1 0 0 -1 0 1638)">
   <path fill="currentColor"
d="M1432 919v-285h767v-40h-767v-132h-139v132h-270v-684h-139v684h-483q-85 0 -155 46.5t-108 126.5t-38 172q0 98 37.5 178t105.5 123.5t159 43.5h482v486q0 123 72.5 186.5t201.5 63.5q130 0 202 -63.5t72 -186.5v-486h537q127 0 183 -45t56 -143q0 -87 -48.5 -132
t-160.5 -45h-567zM488 959h396v285h-480q-120 0 -192 -85t-72 -220q0 -133 74 -219t187 -86h483v285h-396v40zM1158 1926q77 0 126 -45.5t49 -123.5v-1255h59v1268q0 103 -60.5 156.5t-173.5 53.5t-173.5 -54t-60.5 -156v-1820h59v1807q0 79 49 124t126 45zM1432 1244v-285
h567q94 0 131.5 35t37.5 102q0 79 -47 113.5t-152 34.5h-537zM1158 1886q-63 0 -99 -36t-36 -93v-473h270v473q0 57 -36 93t-99 36zM1023 634h270v285h-270v-285zM1023 959h270v285h-270v-285z" />
  </g>

</svg>
