<?xml version="1.0" standalone="no"?>
<!DOCTYPE svg PUBLIC "-//W3C//DTD SVG 1.1//EN" "http://www.w3.org/Graphics/SVG/1.1/DTD/svg11.dtd" >
<svg xmlns="http://www.w3.org/2000/svg" xmlns:xlink="http://www.w3.org/1999/xlink" version="1.1" viewBox="-10 0 2039 2048">
  <g transform="matrix(1 0 0 -1 0 1638)">
   <path fill="currentColor"
d="M100 291h100v-193h330l117 157v700l-65 -10l-190 -34v78q104 42 197 68.5t136 26.5q39 0 350 -27l-64 85q-194 86 -317 209t-123 209q0 74 55 126l22 21l134 134q12 12 12 23q0 5 -6 5q-8 0 -18 -5q-23 -13 -55 -13q-44 0 -72 15l-353 -120l-13 29l313 199q21 85 173 85
q79 0 205 -59q61 -29 110.5 -45t101 -24t211.5 -18v-94q-101 6 -191 22q49 -16 200 -39v-76q-167 27 -277 62t-193 82l1 -8v-8q0 -60 -86 -139l-99 -89q-3 -2 -4 -7q0 -3 5 -3t21 11q53 38 103 58.5t107 20.5q128 0 365 -146q54 -35 215 -170q71 -61 133 -109.5t91 -58
t70 -9.5q21 0 77 8v-87l-37 -7l-84 -12l90 -96l-192 -115q-71 90 -109 137.5t-53 42.5l-54 -7l-67 -9l-143 -5l-26 -31q-84 -103 -110 -103l-32 4q-69 13 -273 42l18 -9v-91q-112 58 -170 77v-697l116 -157h330v193h100v-291h-1133v291zM782 1011q157 -4 290 -29l72 -13
q6 0 40 39t76 94q126 0 193 11q74 11 91 11q44 0 88 -62l84 -106l119 71l-80 85h-8q-106 0 -284.5 35.5t-325 84.5t-245 127.5t-98.5 148.5q0 40 28 75.5t76 56.5l14 -38q-34 -13 -56 -39.5t-22 -54.5q0 -55 79.5 -117t182.5 -101q134 -51 330.5 -94.5t320.5 -43.5
q101 0 149 8v16l-44 -3q-61 0 -96 16q-41 16 -224 171q-164 138 -211 166q-226 140 -343 140q-50 0 -86.5 -15t-69.5 -36q-60 -39 -79 -39q-17 0 -29 12.5t-12 32.5q0 22 87 97q60 56 81 85t21 51q0 15 -8.5 31t-13.5 21l22 28q152 -114 479 -175v16q-324 72 -472 168l13 20
q59 -41 191 -76t258 -39l-1 28q-120 0 -213.5 20.5t-196.5 67.5q-118 55 -187 55q-65 0 -99.5 -18t-34.5 -51q0 -23 22 -41t65 -18q19 0 37 9t36 9q23 0 34.5 -15t11.5 -30q0 -28 -36 -64l-152 -151q-35 -31 -35 -89q0 -53 71.5 -137t159 -142.5t195.5 -104.5
q62 -89 91 -136l-9 -31q-55 10 -186.5 22.5t-199.5 12.5q-90 0 -304 -79v-16l129 27q91 20 103 20q51 0 166 -67v23q-14 14 -49 39zM580 98h174l-87 117zM610 1890q-17 20 -21 44l-248 -145zM655 1954q0 11 8 19.5t19 8.5q12 0 20 -8.5t8 -19.5t-8 -19.5t-20 -8.5
q-11 0 -19 8.5t-8 19.5zM160 251h-20v-211h1053v211h-20v-193h-1013v193z" />
  </g>

</svg>
