<?xml version="1.0" standalone="no"?>
<!DOCTYPE svg PUBLIC "-//W3C//DTD SVG 1.1//EN" "http://www.w3.org/Graphics/SVG/1.1/DTD/svg11.dtd" >
<svg xmlns="http://www.w3.org/2000/svg" xmlns:xlink="http://www.w3.org/1999/xlink" version="1.1" viewBox="-10 0 1404 2048">
  <g transform="matrix(1 0 0 -1 0 1638)">
   <path fill="currentColor"
d="M630 2012q139 0 279.5 -30t239.5 -78q-65 -154 -85 -236.5t-20 -149.5v-10q3 -124 20 -227.5t69 -247.5l27 -80q-51 23 -213.5 132.5t-251.5 183.5l-5 -84q0 -222 96.5 -416.5t270.5 -326.5q114 -83 175.5 -164t61.5 -171q0 -80 -35.5 -117.5t-111.5 -37.5
q-67 0 -160.5 59.5t-180 162t-147.5 229t-97 283.5t-36 343q0 110 8 217q-116 -90 -251 -181t-183 -112l27 80q40 114 55.5 182t24.5 147.5t9 155.5q0 68 -20.5 152t-84.5 234q100 48 241.5 78t277.5 30zM630 1972q-127 0 -251.5 -23t-215.5 -65q53 -127 73 -210.5
t20 -154.5q0 -114 -18 -230.5t-68 -255.5q115 72 258 181t202 168q51 -53 207.5 -172.5t252.5 -176.5q-39 110 -54.5 180.5t-23.5 152.5t-8 153q0 156 93 365q-90 41 -213.5 64.5t-253.5 23.5zM630 1326l-51 -45q-13 -123 -13 -252q0 -179 35 -329.5t92 -271.5t137 -219
t169 -157.5t148 -59.5q107 0 107 115q0 76 -52.5 147.5t-168.5 155.5q-190 139 -286.5 338t-96.5 437q0 46 8 115z" />
  </g>

</svg>
