<?xml version="1.0" standalone="no"?>
<!DOCTYPE svg PUBLIC "-//W3C//DTD SVG 1.1//EN" "http://www.w3.org/Graphics/SVG/1.1/DTD/svg11.dtd" >
<svg xmlns="http://www.w3.org/2000/svg" xmlns:xlink="http://www.w3.org/1999/xlink" version="1.1" viewBox="-10 0 2252 2048">
  <g transform="matrix(1 0 0 -1 0 1638)">
   <path fill="currentColor"
d="M318 1132q101 0 206 -75.5t164.5 -195.5t59.5 -266q0 -75 -18.5 -151t-51.5 -138h-50q-5 86 -30.5 142t-63.5 92.5t-85 58.5t-95 40t-94 37t-81.5 49.5t-57 77t-21.5 120.5q0 95 60.5 152t157.5 57zM321 1092q-84 0 -132.5 -45t-48.5 -124q0 -64 20 -105.5t53 -68.5
t76 -45t89 -35.5t92 -38.5t84.5 -54.5t67 -84t39.5 -127.5q47 101 47 231q0 135 -56 247.5t-149 181t-182 68.5zM1015 1132q101 0 206 -75.5t164.5 -195.5t59.5 -266q0 -75 -18.5 -151t-51.5 -138h-50q-5 86 -30.5 142t-63.5 92.5t-85 58.5t-95 40t-94 37t-81.5 49.5t-57 77
t-21.5 120.5q0 95 60.5 152t157.5 57zM1018 1092q-84 0 -132.5 -45t-48.5 -124q0 -64 20 -105.5t53 -68.5t76 -45t89 -35.5t92 -38.5t84.5 -54.5t67 -84t39.5 -127.5q47 101 47 231q0 135 -56 247.5t-149 181t-182 68.5zM1712 1132q101 0 206 -75.5t164.5 -195.5t59.5 -266
q0 -75 -18.5 -151t-51.5 -138h-50q-5 86 -30.5 142t-63.5 92.5t-85 58.5t-95 40t-94 37t-81.5 49.5t-57 77t-21.5 120.5q0 95 60.5 152t157.5 57zM1715 1092q-84 0 -132.5 -45t-48.5 -124q0 -64 20 -105.5t53 -68.5t76 -45t89 -35.5t92 -38.5t84.5 -54.5t67 -84t39.5 -127.5
q47 101 47 231q0 135 -56 247.5t-149 181t-182 68.5z" />
  </g>

</svg>
