<?xml version="1.0" standalone="no"?>
<!DOCTYPE svg PUBLIC "-//W3C//DTD SVG 1.1//EN" "http://www.w3.org/Graphics/SVG/1.1/DTD/svg11.dtd" >
<svg xmlns="http://www.w3.org/2000/svg" xmlns:xlink="http://www.w3.org/1999/xlink" version="1.1" viewBox="-10 0 936 2048">
  <g transform="matrix(1 0 0 -1 0 1638)">
   <path fill="currentColor"
d="M477 0q0 -23 -22 -34.5t-48 -11.5t-47 11t-21 35v921q-239 19 -239 187q0 85 50.5 130.5t188.5 56.5v504q0 65 35 125t97.5 96t142.5 36q53 0 101.5 -19t79.5 -48.5t31 -55.5q0 -69 -76 -69q-19 0 -49 21l1 -1q-42 31 -80 31q-67 0 -106 -52t-39 -142v-1721zM437 1721
q0 106 49.5 170t135.5 64q35 0 59 -12.5t43 -25.5q18 -13 26 -13q36 0 36 29t-55 56t-117 27q-67 0 -120.5 -29.5t-84 -80t-30.5 -107.5v-1799q0 -6 28 -6q30 0 30 6v1721zM188 1108q0 -95 151 -100v200q-151 -10 -151 -100zM130 1108q0 -142 209 -157v26q-181 5 -181 131
t181 131v25q-84 -6 -124.5 -23t-62.5 -49.5t-22 -83.5z" />
  </g>

</svg>
