<?xml version="1.0" standalone="no"?>
<!DOCTYPE svg PUBLIC "-//W3C//DTD SVG 1.1//EN" "http://www.w3.org/Graphics/SVG/1.1/DTD/svg11.dtd" >
<svg xmlns="http://www.w3.org/2000/svg" xmlns:xlink="http://www.w3.org/1999/xlink" version="1.1" viewBox="-10 0 1728 2048">
  <g transform="matrix(1 0 0 -1 0 1638)">
   <path fill="currentColor"
d="M313 386q-82 48 -82 132q0 54 54 121q-37 63 -37 167q0 52 16 169q22 171 22 228q0 45 -18 84q-15 30 -30 82t-15 108q0 188 103 288l-58 -5q-72 0 -119 24.5t-47 64.5q0 45 37.5 94t101.5 79t147 30q111 0 189 -65q125 -105 175 -163t79.5 -116t29.5 -112
q0 -83 -30 -172t-92 -197q-128 -224 -165 -312.5t-37 -130.5l2 -17q142 0 211 -61l145 45q17 9 82.5 21.5t115.5 12.5q78 0 136.5 -27.5t90 -72.5t31.5 -94q0 -45 -11 -96q56 -142 122 -253t156 -205l-62 -46q-54 30 -99.5 73.5t-86.5 99t-112 179.5q-21 -98 -104.5 -189
t-208.5 -145.5t-263 -54.5q-147 0 -276 59t-215 163.5t-91 209.5h213zM628 645q-57 0 -93 36.5t-36 93.5q0 67 39.5 162t159.5 296q123 205 123 363q0 53 -22.5 99t-56 85.5t-74 75t-76.5 67.5q-61 54 -105 71.5t-99 17.5q-73 0 -128 -24t-86.5 -62.5t-31.5 -76.5
q0 -22 36 -35.5t90 -13.5q17 0 72 8.5t70 13.5q43 17 97 17q52 0 94 -17l-14 -38q-39 15 -80 15q-57 0 -104 -25.5t-78.5 -65.5t-46.5 -94.5t-15 -136.5q0 -79 43 -179q20 -48 20 -95q0 -62 -22 -233q-16 -117 -16 -164q0 -126 72 -201t176 -75q115 0 260 47q70 22 139 40.5
t130 18.5q150 0 242 -96q4 24 4 51q0 38 -27 74t-76 58t-115 22q-55 0 -104.5 -12l-82.5 -20l-64 -18q-151 -50 -214 -50zM153 346q2 -50 51.5 -119.5t123.5 -122.5t165 -81.5t189 -28.5t188 28.5t164 80.5t123.5 120.5t53.5 122.5h-1058zM493 386q118 3 270 79l-58 44
q-82 -19 -169 -19q-69 0 -131 32t-96 81q-38 -43 -38 -85q0 -58 57.5 -95t157.5 -37h7zM1097 386q64 4 120 28q-32 43 -81 73.5t-116 50t-125 27.5l-141 -43q70 -48 89 -56l51 -24q113 -56 192 -56h11zM1562 44q-62 67 -132 180t-122 240q-25 61 -94 96.5t-149 35.5
q-34 0 -77 -8q106 -27 173 -67t99 -98q77 -137 118.5 -199.5t85 -112.5t86.5 -75zM804 440q-52 -30 -118 -54h233q-43 18 -115 54zM549 727q24 -42 79 -42q41 0 72 9q-66 33 -151 33zM260 1914q0 14 9 23t23 9q13 0 21.5 -9t8.5 -23q0 -13 -8.5 -21.5t-21.5 -8.5
q-14 0 -23 8.5t-9 21.5z" />
  </g>

</svg>
