<?xml version="1.0" standalone="no"?>
<!DOCTYPE svg PUBLIC "-//W3C//DTD SVG 1.1//EN" "http://www.w3.org/Graphics/SVG/1.1/DTD/svg11.dtd" >
<svg xmlns="http://www.w3.org/2000/svg" xmlns:xlink="http://www.w3.org/1999/xlink" version="1.1" viewBox="-10 0 1380 2048">
  <g transform="matrix(1 0 0 -1 0 1638)">
   <path fill="currentColor"
d="M685 139l-133 128q-36 -24 -62 -62l129 -132l-129 -132q26 -38 62 -62l133 128l133 -128q36 24 62 62l-129 132l129 132q-26 38 -62 62zM685 2016q-114 0 -212 -17v-6l26 -8q61 -20 76 -77l14 -66q13 -85 36.5 -116t59.5 -31q28 0 45.5 15.5t27.5 38.5t23 93l14 66
q12 53 102 87v2q-76 19 -212 19zM144 1447l1 -6q90 0 120 -58l30 -60q27 -60 43.5 -81.5t34 -31t32.5 -9.5q79 0 79 107l-5 113q0 39 13 61t29 37.5t35 27.5v2q-72 0 -201 -32t-211 -70zM676 1655v-1306h18v1306h-18zM426 1163l216 -742v70l-199 677zM685 -202
q-114 0 -194.5 80.5t-80.5 194.5q0 97 64 175.5t156 94.5l-239 819q-82 14 -146 174l-14 29q-21 36 -96 36l-20 -1l-15 60q51 44 205.5 86t248.5 42l34 -3l5 -56q-75 -29 -75 -91l6 -115q0 -104 -50 -139l168 -553v1032q-72 29 -93 172l-5 33q-5 36 -19 51.5t-38.5 26
t-53.5 15.5v63q71 32 252 32t252 -32l-9 -55q-37 -5 -62.5 -23.5t-32.5 -47.5l-6 -30q-17 -102 -40.5 -146t-58.5 -59v-1032l168 553q-50 36 -50 139l6 115q0 61 -75 91l5 56l34 3q93 0 242 -40t212 -88l-15 -60l-20 1q-75 0 -96 -36l-14 -29q-64 -160 -146 -174l-239 -819
q93 -16 156.5 -95t63.5 -175q0 -114 -80.5 -194.5t-194.5 -80.5zM685 308q-50 0 -96 -21l96 -92l96 92q-46 21 -96 21zM450 73q0 -51 20 -96l93 96l-93 96q-20 -46 -20 -96zM685 -49l-96 -92q46 -21 96 -21t96 21zM814 1549v-2q19 -13 34.5 -28.5t29.5 -37.5t14 -60l-6 -109
q0 -111 79 -111q28 0 53 24.5t57 97.5l30 60q30 58 120 58l1 6q-72 34 -203.5 68t-208.5 34zM927 1168l-199 -677v-70l216 742zM920 73q0 50 -20 96l-93 -96l93 -96q20 45 20 96z" />
  </g>

</svg>
