<?xml version="1.0" standalone="no"?>
<!DOCTYPE svg PUBLIC "-//W3C//DTD SVG 1.1//EN" "http://www.w3.org/Graphics/SVG/1.1/DTD/svg11.dtd" >
<svg xmlns="http://www.w3.org/2000/svg" xmlns:xlink="http://www.w3.org/1999/xlink" version="1.1" viewBox="-10 0 2816 2048">
  <g transform="matrix(1 0 0 -1 0 1638)">
   <path fill="currentColor"
d="M150 685l-50 43q142 161 284.5 234t337.5 87l253 149q610 0 881 -113l-62 -153q344 -60 466 -60q68 0 207 47t239 99q-7 -90 -54.5 -176t-118.5 -141l39 -49q48 -59 75.5 -129.5t27.5 -133.5v-18q-83 79 -229 137.5t-259 58.5q-63 0 -210 -27l35 -176h-14
q-96 0 -220.5 24t-210.5 56q-226 -53 -380 -53q-52 0 -132 5l46 -89q0 -23 -19 -40t-51 -17q-55 0 -133.5 53.5t-165.5 150.5q-48 17 -97 25l-174 31q-229 41 -345 133zM823 1012q-209 0 -344 -48t-258 -166q32 -58 32 -104q0 -42 -21 -78q96 -43 276 -74q60 39 90.5 91.5
t32.5 127.5l40 -2q-6 -144 -109 -227l28 -5q126 83 130 234l40 -2q-4 -150 -116 -243q234 -53 301 -64t126 -16t116 -5q83 0 206.5 20t347.5 75q319 81 446 81q63 0 149 -21q28 54 28 132q0 71 -26 123q-45 -9 -78 -9q-177 0 -662 91q-296 55 -362.5 63.5t-140.5 14.5
t-136.5 8.5t-135.5 2.5zM1753 939l51 124q-241 95 -819 95l-180 -106q125 0 230.5 -7t193 -17.5t253.5 -41.5q157 -31 271 -47zM794 764q295 0 430 -103q-46 -37 -109 -60t-124 -23q-104 0 -226 36zM2645 943q-142 -64 -267 -94q26 -58 26 -131q0 -78 -29 -142
q146 -41 247 -106q-34 91 -149 234q67 50 114 114.5t58 124.5zM828 724l-17 -82q92 -24 180 -24q73 0 166 43q-101 63 -329 63zM1642 461q181 -53 321 -57l-26 128l-187 -44zM803 436q146 -146 228 -146q8 0 20 6l8 6l-51 99q-112 13 -205 35zM409 807q0 23 16.5 39.5
t39.5 16.5t39.5 -16.5t16.5 -39.5t-16.5 -39.5t-39.5 -16.5t-39.5 16.5t-16.5 39.5zM172 650l24 -15q17 29 17 59q0 34 -22 75l-35 -37l48 -42zM443 807q0 -8 7 -15t15 -7t15 7t7 15t-7 15t-15 7t-15 -7t-7 -15z" />
  </g>

</svg>
