<?xml version="1.0" standalone="no"?>
<!DOCTYPE svg PUBLIC "-//W3C//DTD SVG 1.1//EN" "http://www.w3.org/Graphics/SVG/1.1/DTD/svg11.dtd" >
<svg xmlns="http://www.w3.org/2000/svg" xmlns:xlink="http://www.w3.org/1999/xlink" version="1.1" viewBox="-10 0 2801 2048">
  <g transform="matrix(1 0 0 -1 0 1638)">
   <path fill="currentColor"
d="M743 -17q-15 15 -21 40q-21 8 -47 8q-40 0 -66 -51q-5 21 -6 44q-28 7 -44 7q-40 0 -66 -51q-5 21 -6 44q-28 7 -44 7q-40 0 -66 -51q-7 28 -7 56q0 41 19.5 65.5t56.5 24.5q34 0 62 -21q18 21 54 21q34 0 62 -21q18 21 54 21q28 0 54 -16q23 28 63 28h10q15 66 17 159
l-4 68v-1q-7 91 -55.5 252t-117.5 322q-76 76 -166 185t-136.5 194t-46.5 137q0 112 38 207q7 17 7 35q0 31 -26 51.5t-64 20.5q-37 0 -78 -14t-73 -39v122q0 25 21.5 59t61.5 63l27 1q44 1 97 28q83 44 121 58.5t72 14.5q118 0 178 -28.5t91.5 -89t31.5 -179.5v-65l65 -30
q46 -21 197.5 -94.5t251 -131.5t212 -157.5t356.5 -349.5q107 -110 142.5 -139t278.5 -167q189 -108 252 -150q62 -44 98.5 -84.5t36.5 -63.5q0 -52 -53 -52q-27 0 -115 46l-269 137q197 -142 268.5 -206.5t71.5 -102.5q0 -10 -10 -16t-20 -6q-5 0 -37 8l4 -21q0 -11 -9 -22
t-28 -11q-18 0 -37 8l2 -21q0 -26 -16 -26q-18 0 -59 15l1 -11v-11q0 -31 -14 -31q-7 0 -59.5 27.5t-126 71.5t-270 191t-293.5 227l-322 72q7 -22 7 -64q0 -70 -19 -134l-86 52l-16 -73h-14l-9 -127l-1 -38q0 -53 4.5 -72t15 -24.5t40.5 -5.5h103q34 30 74 30
q42 0 64 -33.5t22 -82.5l-1 -38q-27 48 -70 48q-15 0 -31.5 -12.5t-26.5 -28.5h-83q-91 21 -152 21q-71 0 -127 -21h-162q-19 42 -40 42q-15 0 -25.5 -9.5t-17 -23t-6.5 -21.5zM505 2021q-43 0 -87 -21t-89 -43l2 -38l38 -59l-31 -81q43 -32 43 -83q0 -23 -7 -42t-15.5 -44
t-15.5 -61.5t-7 -94.5q0 -151 341 -492q136 -140 228 -272t137 -239l30 59l89 -82l17 76l85 -48q6 24 6 56q0 67 -22 129l401 -81q44 0 112.5 16.5t117.5 36.5l-179 31q-352 54 -489 101t-289 152.5t-226 212t-74 203.5q0 57 41.5 92.5t112.5 39.5h298v-40h-298
q-51 -3 -82.5 -27.5t-31.5 -64.5q0 -93 75.5 -195t228 -202.5t292 -141.5t404.5 -83l118 -19q221 -36 319 -86l443 -224q81 -42 97 -42q13 0 13 12q0 14 -33.5 47t-83.5 69q-22 17 -247 146q-130 74 -199 115t-93.5 62.5t-249.5 251.5q-114 116 -219 209t-182 144.5
t-229 128t-354 168.5v91q0 108 -26.5 160t-78 74.5t-151.5 22.5zM2558 173q-70 79 -414 333l-66 49q-62 27 -144 46q-34 -23 -110 -47t-136 -30q287 -229 390.5 -303t182.5 -118l96 -56q-8 8 -9 29q0 21 5 24.5t13 3.5q22 0 51 -17l-3 28q0 24 22 24q11 0 28 -6.5t28 -8.5
q-13 16 -13 35q0 25 25 25q19 0 44 -13l5 -3zM715 872q48 -121 88.5 -258t50.5 -214l40 39l15 -62l39 63l32 -47l18 56q-89 207 -283 423zM1125 205q0 63 11 194l-51 46l-25 -41q16 -49 21 -88v-181q0 -32 -20.5 -49t-55.5 -17h-143q-23 31 -57 31q-42 0 -49 -43
q6 6 21.5 9.5t23.5 3.5q17 0 33 -10t25 -25h126q74 21 136 21q56 0 155 -22l55 1q8 14 27 30t45 16q9 0 23 -6.5t18 -10.5q-15 42 -47 42q-37 0 -71 -34h-104q-36 0 -57.5 11.5t-30.5 33.5t-9 88zM1041 313q-7 48 -26 94l-23 -74l-22 36q-15 -51 -35 -143.5t-20 -116.5h90
q21 0 28.5 9t7.5 35v160zM840 130q13 -2 35 -17q27 158 58 260l-34 -49l-19 63l-21 -32l1 -37q0 -114 -12 -156zM251 1808q30 0 59 -13l23 57l-38 56l-1 32q-51 -22 -88 -22l8 -61h74l-3 -32l-80 2l-19 -28q31 9 65 9zM409 1931q0 20 13.5 33.5t33.5 13.5t33.5 -13.5
t13.5 -33.5t-13.5 -33.5t-33.5 -13.5t-33.5 13.5t-13.5 33.5zM140 1791l42 55l-10 54q-32 -32 -32 -63v-46zM491 74q-1 2 -12.5 10t-33.5 8q-27 0 -46 -41q30 15 46 15q23 0 43 -10zM607 74q-1 2 -12.5 10t-33.5 8q-27 0 -46 -41q30 15 46 15q23 0 43 -10zM718 57l1 21
q-14 14 -42 14q-27 0 -46 -41q30 15 46 15q18 0 41 -9zM435 1931q0 -21 21 -21q20 0 20 21q0 20 -20 20q-21 0 -21 -20z" />
  </g>

</svg>
