<?xml version="1.0" standalone="no"?>
<!DOCTYPE svg PUBLIC "-//W3C//DTD SVG 1.1//EN" "http://www.w3.org/Graphics/SVG/1.1/DTD/svg11.dtd" >
<svg xmlns="http://www.w3.org/2000/svg" xmlns:xlink="http://www.w3.org/1999/xlink" version="1.1" viewBox="-10 0 2866 2048">
  <g transform="matrix(1 0 0 -1 0 1638)">
   <path fill="currentColor"
d="M100 434q0 111 42 154.5t131 43.5h28q-4 24 -4 58q0 59 75 186l41 68q53 90 69.5 124t16.5 50q0 47 -29.5 80t-92.5 33h-176q0 17 25.5 50t64.5 56t94 29q38 38 83 59t87 21q66 0 108.5 -46t42.5 -115q0 -39 -25.5 -102.5t-115.5 -217.5q-46 -76 -46 -82q0 -5 13 -5l74 3
q209 0 415 -137q19 54 105 200q53 90 69.5 124t16.5 50q0 47 -29.5 80t-92.5 33h-176q0 17 25.5 50t64.5 56t94 29q38 38 83 59t87 21q66 0 108.5 -46t42.5 -115q0 -39 -25.5 -102.5t-115.5 -217.5q-46 -76 -46 -82q0 -5 13 -5l74 3q203 0 409 -132q20 54 103 195
q53 90 69.5 124t16.5 50q0 47 -29.5 80t-92.5 33h-176q0 17 25.5 50t64.5 56t94 29q38 38 83 59t87 21q66 0 108.5 -46t42.5 -115q0 -39 -25.5 -102.5t-115.5 -217.5q-46 -76 -46 -82q0 -5 13 -5l74 3q141 0 289.5 -66t265.5 -183h4q89 0 131 -43.5t42 -154.5v-236
q0 -111 -42 -154.5t-131 -43.5h-2310q-89 0 -131 43.5t-42 154.5v236zM140 198q0 -88 30 -123t100 -35h2316q70 0 100 35t30 123v236q0 88 -30 123t-100 35h-2316q-70 0 -100 -35t-30 -123v-236zM555 1406q-80 0 -136 -60v-80q120 -28 120 -148q0 -23 -19 -63.5t-73 -130.5
q-68 -112 -89 -159t-21 -75q0 -30 7 -58h755q-244 209 -493 209l-58 -3q-38 1 -53.5 9t-15.5 36q0 15 52 102q78 133 106.5 199.5t28.5 100.5q0 52 -31 86.5t-80 34.5zM1055 721q54 -40 106 -89h651q-244 209 -493 209l-58 -3q-38 1 -53.5 9t-15.5 36q0 15 52 102
q78 133 106.5 199.5t28.5 100.5q0 52 -31 86.5t-80 34.5q-80 0 -136 -60v-80q120 -28 120 -148q0 -23 -19 -63.5t-73 -130.5q-33 -55 -63.5 -108.5t-41.5 -94.5zM1761 726q64 -45 113 -94h643q-244 209 -493 209l-58 -3q-38 1 -53.5 9t-15.5 36q0 15 52 102
q78 133 106.5 199.5t28.5 100.5q0 52 -31 86.5t-80 34.5q-80 0 -136 -60v-80q120 -28 120 -148q0 -23 -19 -63.5t-73 -130.5q-32 -54 -62 -106t-42 -92zM1797 1337q-65 -11 -117 -59q53 21 117 25v34zM379 1337q-65 -11 -117 -59q53 21 117 25v34zM1092 1337
q-65 -11 -117 -59q53 21 117 25v34zM1190 1311q0 11 7 18t18 7t18 -7t7 -18t-7 -18t-18 -7t-18 7t-7 18zM477 1311q0 11 7 18t18 7t18 -7t7 -18t-7 -18t-18 -7t-18 7t-7 18zM1895 1311q0 11 7 18t18 7t18 -7t7 -18t-7 -18t-18 -7t-18 7t-7 18zM379 1259v20q-54 -2 -103 -20
h103zM1797 1259v20q-54 -2 -103 -20h103zM1092 1259v20q-54 -2 -103 -20h103z" />
  </g>

</svg>
