<?xml version="1.0" standalone="no"?>
<!DOCTYPE svg PUBLIC "-//W3C//DTD SVG 1.1//EN" "http://www.w3.org/Graphics/SVG/1.1/DTD/svg11.dtd" >
<svg xmlns="http://www.w3.org/2000/svg" xmlns:xlink="http://www.w3.org/1999/xlink" version="1.1" viewBox="-10 0 2001 2048">
  <g transform="matrix(1 0 0 -1 0 1638)">
   <path fill="currentColor"
d="M996 2052q126 0 232.5 -17.5t199.5 -46.5t241 -100q31 28 86 28q60 0 98 -63t38 -184q0 -101 -45.5 -229.5t-126.5 -255.5q40 -127 40 -203q0 -119 -38 -227.5t-100.5 -178t-119.5 -69.5q-42 0 -73 28q-40 -201 -79 -300t-87.5 -157t-114 -88t-151.5 -30q-119 0 -200 58
t-134 169t-99 349q-29 -29 -73 -29q-56 0 -118.5 69t-101 178t-38.5 228q0 76 40 203q-82 129 -127 257t-45 228q0 121 38 184t98 63q54 0 86 -29q187 93 345 129t329 36zM996 2012q-128 0 -233.5 -17.5t-195 -46t-220.5 -93.5l72 -370q274 135 577 135q301 0 577 -133
l72 368q-135 66 -224 94.5t-194 45.5t-231 17zM996 -1q104 0 179.5 55.5t126 173.5t101.5 390q-194 93 -407 93q-211 0 -407 -96q45 -230 80.5 -329.5t81.5 -161.5t107 -93.5t138 -31.5zM498 1080q237 105 498 105q259 0 498 -103l71 364q-272 134 -569 134
q-301 0 -569 -134zM581 655q200 96 415 96q217 0 415 -92l75 382q-230 104 -490 104q-255 0 -490 -105zM237 1876q-41 0 -69 -52.5t-28 -154.5t49.5 -230.5t128.5 -250.5q-46 -117 -46 -207q0 -109 32 -208t85 -163t101 -64q15 0 26 5t19 12t12 14t6 10l-247 1261
q-23 28 -69 28zM1439 586q20 -40 62 -40q48 0 100.5 63.5t85 162.5t32.5 209q0 81 -46 207q81 127 129.5 255.5t48.5 225.5q0 102 -28 154.5t-69 52.5q-46 0 -69 -27z" />
  </g>

</svg>
