<?xml version="1.0" standalone="no"?>
<!DOCTYPE svg PUBLIC "-//W3C//DTD SVG 1.1//EN" "http://www.w3.org/Graphics/SVG/1.1/DTD/svg11.dtd" >
<svg xmlns="http://www.w3.org/2000/svg" xmlns:xlink="http://www.w3.org/1999/xlink" version="1.1" viewBox="-10 0 2792 2048">
  <g transform="matrix(1 0 0 -1 0 1638)">
   <path fill="currentColor"
d="M1875 1328q216 0 405.5 -120.5t295.5 -323t106 -434.5q0 -97 -22 -138.5t-71 -41.5q-116 0 -116 165q0 182 -83 340t-224.5 246.5t-309.5 88.5h-6q6 -241 67 -643q18 -119 18 -144q0 -30 -17.5 -46.5t-52 -23.5t-158.5 -7h-1296q-118 0 -154.5 7t-55 23.5t-18.5 46.5
q0 25 18 144l21 145q46 314 46 544q0 82 -13.5 149t-34 120.5t-76.5 143.5q-20 30 -32 53t-12 46q0 43 29.5 60.5t110.5 17.5h1638q80 0 110 -17.5t30 -60.5q0 -23 -12 -46t-32 -53q-26 -40 -56.5 -98t-49.5 -143h7zM298 1288q10 -60 10 -132v-6h1534q197 0 348 -91.5
t237 -258.5t86 -365q0 -125 76 -125q33 0 43 38.5t10 101.5q0 231 -106 424t-295 303.5t-406 110.5h-1537zM1039 286v824h-161q-7 -430 -30 -824h191zM1275 1110l-3 -132q0 -178 22 -475l14 -217h185q-25 161 -42 379t-20 445h-156zM1268 286q-13 206 -23.5 381.5
t-10.5 323.5l1 119h-156v-824h189zM808 286q23 394 30 824h-152q-5 -438 -61 -824h183zM1810 1110h-150q5 -392 83 -824q70 0 111 5.5t41 31.5q0 17 -18 138q-61 395 -67 649zM223 323q0 -20 28 -28.5t124 -8.5q77 426 82 824h-150q-6 -261 -66 -649q-18 -121 -18 -138z
M1701 286q-39 199 -60 418.5t-21 405.5h-149q0 -174 17 -402.5t46 -421.5h167zM584 286q58 402 63 824h-149q-6 -426 -81 -824h167zM604 1706q57 -215 74 -378h157q-7 166 -17 280l-9 98h-205zM1308 1706q-15 -156 -26 -378h157q17 163 74 378h-205zM1793 1706
q-92 -216 -119 -378h152q20 94 53 157t61 106q38 58 38 77q0 25 -26 31.5t-74 6.5h-85zM849 1706l9 -97q11 -116 17 -281h164v378h-190zM291 1328h152q-27 162 -119 378h-84q-48 0 -74 -6.5t-26 -31.5q0 -19 38 -77q56 -90 78 -145t35 -118zM1079 1328h163q10 197 25 378
h-188v-378zM1554 1706q-57 -206 -74 -378h154q30 192 114 378h-194zM370 1706q82 -184 114 -378h153q-15 147 -56 309l-18 69h-193z" />
  </g>

</svg>
