<?xml version="1.0" standalone="no"?>
<!DOCTYPE svg PUBLIC "-//W3C//DTD SVG 1.1//EN" "http://www.w3.org/Graphics/SVG/1.1/DTD/svg11.dtd" >
<svg xmlns="http://www.w3.org/2000/svg" xmlns:xlink="http://www.w3.org/1999/xlink" version="1.1" viewBox="-10 0 3221 2048">
  <g transform="matrix(1 0 0 -1 0 1638)">
   <path fill="currentColor"
d="M3095 -621q-84 54 -145 65q-35 -28 -85 -28q-46 0 -138 34q-106 37 -152 37q-61 0 -95 -4q-32 -4 -74 -4q-80 0 -351 69q-223 53 -259 53q-40 0 -226 -53q-247 -69 -310 -69q-44 0 -74 4q-34 4 -95 4q-49 0 -155 -37q-95 -34 -139 -34q-47 0 -84 27q-68 -15 -147 -65
l-16 6q4 96 49 163q-49 -2 -88 -16q-56 -20 -143 -20q-47 0 -84 27q-15 -3 -40.5 -17.5t-127.5 -82.5l-16 6q5 116 69 189.5t178 94.5q29 31 99 43t195 15l39 -2q155 -9 279 -9q148 0 317.5 10.5t195.5 20.5q93 33 151.5 136.5t62.5 242.5l-67 1861h354l-67 -1882
q0 -137 48.5 -233.5t128.5 -115.5q101 -20 336 -35q153 -8 228 -21.5t134.5 -39.5t83.5 -51q113 -21 176 -94t70 -188zM1408 -298h-6q-19 0 -72 -9l-79 -14q-105 -6 -214.5 -15t-218.5 -32q-16 -105 -63 -166q18 -10 42 -10q33 0 126 32q117 39 168 39q63 0 99 -4
q32 -4 70 -4q60 0 300 67q190 55 236 55q36 0 183 -35q251 -60 323 -73.5t104 -13.5q38 0 70 4q36 4 99 4q38 0 81 -12.5t85 -26.5q93 -32 124 -32q23 0 41 10q-48 62 -64 167q-30 35 -106 61.5t-185 36.5l-134 9q-221 11 -342 35q-98 21 -153.5 127t-55.5 266l65 1838h-270
l65 -1837q0 -96 -31 -179t-87 -140t-123 -75.5t-225 -28.5t-303 -10q-137 0 -273 8l-39 2q-119 0 -186 -12.5t-91 -41.5l-8 -48q-8 -49 -34 -83q18 -10 42 -10q77 0 130 18q39 14 69 16t65 2q63 63 165 81q27 11 165 27t287 24l81 13q56 9 76 9h5zM3069 -557
q-25 136 -184 179q19 -93 58 -137q61 -10 126 -42zM593 -557q67 32 125 43q38 45 57 136q-74 -20 -122.5 -66t-59.5 -113zM143 -497l35 19l39 25q46 29 72 34q14 17 18.5 27t17.5 74q-74 -20 -122.5 -66t-59.5 -113z" />
  </g>

</svg>
