<?xml version="1.0" standalone="no"?>
<!DOCTYPE svg PUBLIC "-//W3C//DTD SVG 1.1//EN" "http://www.w3.org/Graphics/SVG/1.1/DTD/svg11.dtd" >
<svg xmlns="http://www.w3.org/2000/svg" xmlns:xlink="http://www.w3.org/1999/xlink" version="1.1" viewBox="-10 0 2279 2048">
  <g transform="matrix(1 0 0 -1 0 1638)">
   <path fill="currentColor"
d="M1053 1463q147 0 265 -45t189 -126t80 -178q171 -27 293 -155t195 -363t93 -602v-9q0 -26 -11.5 -47t-37.5 -21q-32 0 -49 31t-25 105q-35 279 -76.5 436.5t-96.5 257.5t-130.5 162.5t-174.5 79.5q-38 -84 -140 -136t-212 -52q-181 0 -387.5 62.5t-415.5 185t-312 238.5
q150 78 413.5 127t539.5 49zM165 1275q104 -106 296.5 -213.5t384.5 -163.5t357 -57q-68 109 -68 233q0 88 34.5 170t100.5 148q-99 31 -217 31q-262 0 -502.5 -40t-385.5 -108zM2119 -43q11 0 11 29v8q-7 283 -78.5 529.5t-189 383.5t-275.5 166l-39 7v5q0 89 -62 168
t-175 124q-66 -61 -101 -139.5t-35 -163.5q0 -125 73 -232q105 8 187.5 61.5t105.5 131.5l39 -7q98 -18 170 -71.5t125 -132.5t90 -180.5t62.5 -221.5t57.5 -365q5 -44 12 -72t22 -28z" />
  </g>

</svg>
