<?xml version="1.0" standalone="no"?>
<!DOCTYPE svg PUBLIC "-//W3C//DTD SVG 1.1//EN" "http://www.w3.org/Graphics/SVG/1.1/DTD/svg11.dtd" >
<svg xmlns="http://www.w3.org/2000/svg" xmlns:xlink="http://www.w3.org/1999/xlink" version="1.1" viewBox="-10 0 2787 2048">
  <g transform="matrix(1 0 0 -1 0 1638)">
   <path fill="currentColor"
d="M2677 577q0 -67 -46.5 -118t-111.5 -51q-43 0 -141 35q-42 14 -84.5 27t-72.5 13q-26 0 -66 -8l69 -99l-632 -169l-89 77q-37 -10 -116 -26q79 -23 110 -27v-54q-91 -14 -155 -14q-55 0 -107 11t-102 22q-151 34 -314 41q-95 4 -257 65q-73 32 -115 32q-36 0 -122 -88.5
t-111 -135.5l-48 22q2 23 28 80t59 112q-55 -30 -106 -87l-28 42q49 104 141 170q-91 -12 -146 -52l-13 71q57 45 100 64l-101 3v84l101 3q-43 19 -100 64l13 71q55 -40 146 -52q-92 66 -141 170l28 42q51 -57 106 -87q-31 51 -58 109.5t-29 82.5l48 22q25 -47 111.5 -135.5
t121.5 -88.5q42 0 115 32q162 61 257 65q149 7 260 29q101 23 156.5 34t106.5 11q23 0 103 -7l52 -7v-54q-31 -4 -110 -27q79 -16 116 -26l89 77l632 -169l-69 -99q40 -8 66 -8q30 0 72.5 13t84.5 27q98 35 141 35q65 0 111.5 -51t46.5 -118zM1379 552q-51 -55 -106 -83.5
t-181 -62.5l-22 -7q59 -59 229 -114q100 12 243 49.5t218 61.5l203 66q188 61 258 61q48 0 118 -24q22 32 22 78t-22 78q-70 -24 -118 -24q-85 0 -361 94q-91 30 -137.5 44.5t-180.5 50t-243 49.5q-170 -55 -229 -114l22 -6q124 -35 179.5 -63t107.5 -84v-50zM140 573
l188 -5l2 -34q-75 -17 -115 -37.5t-83 -54.5q37 25 90 37t185 19q-72 -47 -131.5 -90t-95.5 -99q71 63 179 103q-100 -144 -138 -231q56 73 125.5 133t100.5 60q47 0 131 -36q84 -33 158 -49q46 54 75.5 128t37.5 160q-8 84 -37.5 159t-75.5 129q-74 -16 -158 -49
q-84 -36 -131 -36q-30 0 -100.5 60.5t-125.5 132.5q18 -42 65 -118.5t73 -112.5q-108 40 -179 103q36 -56 95.5 -99t131.5 -90q-131 7 -184 19t-91 37q47 -37 87 -56.5t111 -35.5l-2 -34l-188 -5v-8zM889 577q-12 -169 -109 -296l21 -2q183 -10 286 -31q95 -22 154.5 -34.5
t100.5 -10.5q38 0 95 6q-131 28 -236 72t-166 98v45q165 53 203 71t61.5 36t39.5 36v20q-28 31 -64.5 52.5t-86.5 39t-153 51.5v45q60 53 166.5 98t235.5 72q-57 6 -95 6q-48 0 -96 -9.5t-159 -35.5q-108 -22 -266 -29l-41 -4q97 -127 109 -296zM2115 688l46 66l-559 149
l-52 -45l131 -35l89 -27q276 -90 345 -108zM2637 577q0 51 -34.5 90t-83.5 39q-37 0 -127 -33l-15 -5q24 -41 24 -91t-24 -91l15 -5q90 -33 127 -33q49 0 83.5 39t34.5 90zM1550 296l52 -45l559 149l-46 66q-81 -21 -243 -75l-191 -60zM649 716q0 23 16.5 39.5t39.5 16.5
t39.5 -16.5t16.5 -39.5t-16.5 -39.5t-39.5 -16.5t-39.5 16.5t-16.5 39.5zM683 716q0 -8 7 -15t15 -7t15 7t7 15t-7 15t-15 7t-15 -7t-7 -15zM649 438q0 23 16.5 39.5t39.5 16.5t39.5 -16.5t16.5 -39.5t-16.5 -39.5t-39.5 -16.5t-39.5 16.5t-16.5 39.5zM683 438q0 -8 7 -15
t15 -7t15 7t7 15t-7 15t-15 7t-15 -7t-7 -15z" />
  </g>

</svg>
