<?xml version="1.0" standalone="no"?>
<!DOCTYPE svg PUBLIC "-//W3C//DTD SVG 1.1//EN" "http://www.w3.org/Graphics/SVG/1.1/DTD/svg11.dtd" >
<svg xmlns="http://www.w3.org/2000/svg" xmlns:xlink="http://www.w3.org/1999/xlink" version="1.1" viewBox="-10 0 2387 2048">
  <g transform="matrix(1 0 0 -1 0 1638)">
   <path fill="currentColor"
d="M1246 831v46l-51 -14l-153 131l-23 84q114 202 187.5 304t151.5 160q0 31 16 65t43 55.5t67 21.5q64 0 95 -39q34 20 81 20t82.5 -23t45.5 -57q120 -23 236 -108.5t184.5 -204.5t68.5 -236q0 -55 -12 -106t-32.5 -101t-81.5 -159q-55 -100 -74.5 -146.5t-31 -93.5
t-11.5 -96q0 -41 42 -141q15 -39 28 -75.5t13 -66.5q0 -35 -32.5 -57.5t-83.5 -22.5l-15 1h-1286l-229 60h-51l-76 -66h-104l-28 24h-75v37h-37v67l25 67l-1 14q0 54 38 98.5t90 44.5l28 -3l51 5q58 0 183 -27q188 -42 211 -42q15 0 113.5 11.5t547.5 66.5l123 15v1h1
q-11 61 -11 144q0 88 110 411l-134 -111l-92 -40l-65 2zM2171 790h-96q-3 77 -29.5 122t-70.5 45q-59 0 -115 -60.5t-97.5 -175t-52.5 -234.5q-9 -97 -50.5 -137t-132.5 -45l-75 -9q-329 -42 -518.5 -63.5t-208.5 -21.5q-33 0 -152 27q-192 42 -242 42q-33 0 -49 -7
q-17 5 -30 5q-32 0 -53.5 -22t-29.5 -50q29 32 67 40t77 8h18l-2 -34h-11q-54 0 -95.5 -19t-59.5 -53l-23 -62v-19h7q30 72 75 103t105 31v-34q-108 0 -150 -115v-22h28q11 52 46.5 84.5t87.5 37.5l2 -34q-38 -2 -67 -30t-36 -68l17 -14h19q2 41 31 71t66 32l2 -34
q-26 -2 -44 -22.5t-20 -46.5h21l76 66h67l230 -60h1287l19 -1q23 0 45.5 9t22.5 31q0 23 -12.5 57.5t-26.5 70.5q-44 101 -44 155q0 53 11.5 103t31 97t80.5 156zM1390 982l-104 -88v-47l49 -56l41 -2l72 32l182 149q116 127 116 252q0 24 -12 62q-17 51 -17 96q0 37 14 74
q24 66 26 99q-24 72 -104 72q-48 0 -93 -49h-1q-30 -36 -34 -81l-41 6q4 35 26 73q-60 -12 -124.5 -60t-129.5 -131t-198 -311l17 -53q16 93 94 93v-40q-24 0 -40 -21.5t-16 -57.5v-8l91 -78l52 14l108 91zM2237 1036q0 110 -62.5 216.5t-166 185.5t-212.5 105
q-4 -43 -23 -96q-16 -48 -16 -67q0 -27 15 -84q14 -47 14 -74q0 -144 -112 -266q-30 -76 -82.5 -243.5t-52.5 -223.5q0 -68 13 -141q56 8 83.5 40t34.5 103q22 208 109 357t196 149q48 0 84 -43.5t55 -123.5h76q47 110 47 206zM1313 1232l59 97h122l-6 -28h-34l-34 -45h-51
l-14 -24h-42zM1552 1625q-19 25 -68 25q-34 0 -57 -22.5t-32 -61.5q70 42 147 50z" />
  </g>

</svg>
