<?xml version="1.0" standalone="no"?>
<!DOCTYPE svg PUBLIC "-//W3C//DTD SVG 1.1//EN" "http://www.w3.org/Graphics/SVG/1.1/DTD/svg11.dtd" >
<svg xmlns="http://www.w3.org/2000/svg" xmlns:xlink="http://www.w3.org/1999/xlink" version="1.1" viewBox="-10 0 1380 2048">
  <g transform="matrix(1 0 0 -1 0 1638)">
   <path fill="currentColor"
d="M410 73q0 82 46 152t122 101l-187 288l-64 -205q19 -38 19 -91q0 -54 -20 -107.5t-51.5 -89.5t-55.5 -36q-25 0 -47.5 46.5t-22.5 105.5q0 134 95 196l115 331l26 5l221 -350l-215 743q-82 14 -146 174l-14 29q-21 36 -96 36l-20 -1l-15 60q51 44 205.5 86t248.5 42
l34 -3l5 -56q-75 -29 -75 -91l6 -115q0 -104 -50 -139l168 -553v1032q-72 29 -93 172l-5 33q-5 36 -19 51.5t-38.5 26t-53.5 15.5v63q71 32 252 32t252 -32l-9 -55q-37 -5 -62.5 -23.5t-32.5 -47.5l-6 -30q-17 -102 -40.5 -146t-58.5 -59v-1032l168 553q-50 36 -50 139
l6 115q0 61 -75 91l5 56l34 3q93 0 242 -40t212 -88l-15 -60l-20 1q-75 0 -96 -36l-14 -29q-64 -160 -146 -174l-217 -743l221 350l26 -5l115 -331q95 -62 95 -196q0 -59 -22.5 -105.5t-47.5 -46.5t-56 37t-51 90t-20 106t19 91l-64 205l-187 -287q77 -31 123.5 -100.5
t46.5 -153.5q0 -114 -80.5 -194.5t-194.5 -80.5t-194.5 80.5t-80.5 194.5zM552 -121l133 128l132 -128q38 24 62 62l-128 132l128 132q-24 38 -62 62l-132 -128l-133 128q-36 -24 -62 -62l129 -132l-129 -132q26 -38 62 -62zM685 2016q-114 0 -212 -17v-6l26 -8
q61 -20 76 -77l14 -66q13 -85 36.5 -116t59.5 -31q28 0 45.5 15.5t27.5 38.5t23 93l14 66q12 53 102 87v2q-76 19 -212 19zM144 1447l1 -6q90 0 120 -58l30 -60q27 -60 43.5 -81.5t34 -31t32.5 -9.5q79 0 79 107l-5 113q0 39 13 61t29 37.5t35 27.5v2q-72 0 -201 -32
t-211 -70zM814 1549v-2q32 -22 54.5 -52.5t22.5 -57.5l-5 -125q0 -111 79 -111q28 0 53 24.5t57 97.5l30 60q30 58 120 58l1 6q-72 34 -203.5 68t-208.5 34zM1183 237q0 55 -26 107t-61 52q-20 0 -29 -24.5t-9 -54.5q0 -45 15.5 -91t37.5 -75.5t38 -29.5q13 0 23.5 38.5
t10.5 77.5zM185 237q0 -40 10.5 -78t23.5 -38q15 0 37 28.5t38 75.5t16 92q0 30 -9 54.5t-29 24.5q-35 0 -61 -52t-26 -107zM676 1655v-1306h18v1306h-18zM426 1163l216 -742v70l-199 677zM927 1168l-199 -677v-70l216 742zM383 678l219 -343l19 5l-243 380l-100 -289l20 -3
zM1070 428l20 3l-100 289l-243 -379l19 -6l219 343zM920 73q0 48 -21 96l-92 -96l92 -96q21 46 21 96zM685 308q-50 0 -96 -21l96 -92l96 92q-46 21 -96 21zM450 73q0 -51 20 -96l93 96l-93 96q-20 -46 -20 -96zM685 -162q48 0 96 21l-96 92l-96 -92q46 -21 96 -21z" />
  </g>

</svg>
