<?xml version="1.0" standalone="no"?>
<!DOCTYPE svg PUBLIC "-//W3C//DTD SVG 1.1//EN" "http://www.w3.org/Graphics/SVG/1.1/DTD/svg11.dtd" >
<svg xmlns="http://www.w3.org/2000/svg" xmlns:xlink="http://www.w3.org/1999/xlink" version="1.1" viewBox="-10 0 1932 2048">
  <g transform="matrix(1 0 0 -1 0 1638)">
   <path fill="currentColor"
d="M788 -35q8 30 15 45l-90 3q-58 0 -165.5 -11.5t-122.5 -18t-25 -18.5h-32q33 127 126 143q186 27 219.5 59t54.5 114l88 369q-35 177 -54.5 247.5t-36.5 102.5l-100 84q-19 16 -51.5 59t-46.5 72l-151 336q-21 49 -21 73q0 51 60 88l-2 -2l173 118l35 27h-12
q-58 0 -114 31l-428 -36l-7 54l399 121q45 50 171 50q109 0 153 -61l398 -319l-75 -85l-319 218q-25 -51 -82.5 -93.5t-122.5 -61.5l98 -2q156 -5 289.5 -91.5t262.5 -281.5l550 -821l-47 -41l-36 23l56 -90h-312q-29 77 -99.5 159t-159.5 142q18 -79 18 -148l-5 -180
l-8 -200l52 -20q60 -23 93.5 -60.5t50.5 -96.5h-32q-45 48 -260 48q-58 0 -165.5 -11.5t-122.5 -18t-25 -18.5h-32zM924 37q168 16 209 16l100 -5l55 -5l-4 34l-96 38l14 407q0 47 -14.5 118t-29.5 115q85 -33 204 -143t157 -203h203l-61 98l-717 452q-204 145 -235 193
q-78 111 -108 186t-30 139q0 45 49 73t129 35l2 -40q-65 -5 -102.5 -23t-37.5 -45q0 -42 11 -81.5t31.5 -81t82.5 -132.5q28 -44 230 -190l799 -504l-527 788q-91 136 -166 205t-161.5 108t-191.5 42h1l-141 3l-3 59q106 31 170 92t64 139q0 54 -36.5 82.5t-103.5 28.5
q-69 0 -110 -17.5t-41 -41.5t20.5 -42t54 -28.5t56.5 -10.5h23q35 0 35 -26q0 -34 -61 -75l-170 -116q-42 -27 -42 -54q0 -18 17 -57l151 -336q16 -35 42 -67.5t46 -49.5l254 -213q74 -68 147.5 -215t73.5 -239l-10 -337l-228 -41zM846 130l58 -24l213 41l9 302
q0 50 -29.5 132.5t-78.5 162.5zM504 37q168 16 209 16q36 0 111 -6q14 22 33 36q-11 11 -39 19q-11 3 -11 16q0 8 4 27t179 643q-35 52 -71 83l-87 72q42 -133 64 -291l-87 -378q-27 -107 -64 -140t-237 -65zM841 1863l300 -205l4 5l-299 220zM848 1948l2 -24l315 -237l4 4z
M497 1919l-12 22l-331 -68zM479 1983l-330 -89l331 66l-1 16v7zM576 1984q0 11 8 19.5t19 8.5q12 0 20 -8.5t8 -19.5t-8 -19.5t-20 -8.5q-11 0 -19 8.5t-8 19.5zM1385 -1q-10 24 -28 41t-37 23l4 -27q31 -7 61 -37zM473 63q-19 -6 -37.5 -23.5t-27.5 -40.5q30 30 61 37z
M893 63q-19 -6 -37.5 -23.5t-27.5 -40.5q30 30 61 37z" />
  </g>

</svg>
