<?xml version="1.0" standalone="no"?>
<!DOCTYPE svg PUBLIC "-//W3C//DTD SVG 1.1//EN" "http://www.w3.org/Graphics/SVG/1.1/DTD/svg11.dtd" >
<svg xmlns="http://www.w3.org/2000/svg" xmlns:xlink="http://www.w3.org/1999/xlink" version="1.1" viewBox="-10 0 2224 2048">
  <g transform="matrix(1 0 0 -1 0 1638)">
   <path fill="currentColor"
d="M100 910h321q66 29 274 91q-122 59 -223.5 138.5t-150 156.5t-48.5 150l3 30l10 60v44q0 40 -23.5 71.5t-60.5 31.5q-50 0 -63 -43h-28v30q0 59 25.5 106t68.5 65q34 62 101.5 94t153.5 32q121 0 198 -63.5t108 -201.5l29 -8q128 -35 218.5 -88.5t206.5 -151.5l115 -99
q183 -158 272 -199q116 -53 337 -119q61 -20 111 -57.5t59 -69.5v-153h-738q55 -71 55 -137q0 -80 -42 -127t-116 -47q-43 0 -92 20v-226h-101v282q-126 83 -260 235h-720v153zM785 986q-178 -50 -252 -76h1537q-15 24 -56 50t-82 39q-182 56 -278.5 94.5t-167.5 88.5
t-292 242q-51 43 -95 75.5t-91.5 61.5t-90.5 49t-187 62q-26 132 -93.5 193.5t-176.5 61.5q-78 0 -138 -32.5t-85 -84.5q-66 -22 -83 -107l21 11q9 56 62 56q29 0 68 -18l-2 12q-27 11 -27 42q0 19 12.5 32t32.5 13l17 -4q21 10 55 10q49 0 79 -27.5t30 -76.5
q0 -35 -24.5 -71.5t-65.5 -66.5l-17 20q18 20 23 33.5t5 31.5q0 31 -22 31q-27 0 -27 -52q0 -30 6 -54l-32 -10q-16 43 -49.5 82t-61.5 39q-20 0 -25 -16q50 -2 82 -42t32 -98v-44q0 -14 -6 -44l-7 -46q0 -71 59 -150.5t178 -163t235 -129.5v-17zM140 797h1934v73h-1934v-73
zM1388 584q0 22 -16 46t-41.5 49t-98.5 78h-51v-179q57 -33 99 -33q33 0 65.5 12.5t42.5 26.5zM1280 509q-43 0 -106 34t-147.5 107.5t-112.5 106.5h-41q103 -117 216 -196t184 -79q66 0 95 48q-34 -21 -88 -21zM393 1823l-30 -3l3 -14q0 -32 -29 -43l3 -34l-30 2
q25 -25 41 -53v11q0 73 50 73q49 0 49 -53v-8q5 5 11.5 21t6.5 31q0 31 -19.5 50.5t-55.5 19.5zM964 757q55 -58 116 -107v107h-116zM1141 485l-21 11v-216h21v205zM1120 619l21 -15v144h-21v-129zM1386 671q-15 38 -56 86h-39q20 -17 48 -39t47 -47zM306 1806q0 -15 15 -15
t15 15q0 6 -4.5 10.5t-10.5 4.5q-15 0 -15 -15z" />
  </g>

</svg>
