<?xml version="1.0" standalone="no"?>
<!DOCTYPE svg PUBLIC "-//W3C//DTD SVG 1.1//EN" "http://www.w3.org/Graphics/SVG/1.1/DTD/svg11.dtd" >
<svg xmlns="http://www.w3.org/2000/svg" xmlns:xlink="http://www.w3.org/1999/xlink" version="1.1" viewBox="-10 0 2458 2048">
  <g transform="matrix(1 0 0 -1 0 1638)">
   <path fill="currentColor"
d="M357 927q0 76 29 206q18 72 18 105q0 53 -39.5 80t-107.5 27q-45 0 -63 -5t-20 -19l-74 2v36q0 52 64.5 88t153.5 36h20q21 30 54 51t68 26l195 8q43 0 65.5 12.5t60.5 68t57 102.5h40q21 -59 21 -129q0 -52 -42 -114.5t-112 -115.5q-9 -49 -9 -97q0 -54 11.5 -95
t56.5 -109q31 28 68 69q166 184 223 233.5t108.5 77t97.5 27.5q54 0 165 -8q110 -8 147 -8q114 0 276 40t339 115q-5 -99 -39 -173t-89.5 -131.5t-167.5 -124.5q123 -11 216 -11t200 15q-39 -115 -127.5 -198t-217.5 -123.5t-271 -40.5q-89 0 -430 64q-71 -22 -118 -47
q67 -41 281.5 -218.5t333.5 -276.5l347 -134l-131 -255l-334 204q-33 19 -105.5 33.5t-163.5 19.5q20 -30 38.5 -78.5t18.5 -87.5q0 -42 -19.5 -66.5t-48.5 -25.5h-65l-366 50v-55l-198 25l-138 -27l-89 1l-90 -19l-82 29l-40 -24l-50 77l137 87l184 23l139 51l264 -20
l-137 191q-125 59 -252 160.5t-194 204t-67 191.5zM770 1065l2 1q-38 55 -57 107t-19 117q0 55 8 123q71 48 113 103.5t42 105.5q0 35 -5 65q-24 -43 -59 -88t-64 -58t-75 -13l-192 -8q-55 -10 -104 -77h-42q-72 0 -125.5 -23.5t-55.5 -58.5h2q31 59 114 59q39 0 92 -11
l-4 -20q-53 11 -88 11q-64 0 -91 -39h3q20 24 92 24q91 0 139 -38.5t48 -108.5q0 -31 -19 -114l1 1q-29 -130 -29 -198q0 -88 70 -186.5t211.5 -201t275.5 -158.5q350 -149 392 -307l-141 -14l-427 53l-152 -59l-108 2l-102 -48l39 -11l82 19h91l144 27l165 -25v15l-111 21
l10 38l506 -70h59q12 2 20 15.5t8 36.5q0 39 -26 96.5t-67 113.5q118 -6 224.5 -23.5t142.5 -39.5l294 -182l92 177l-308 120l-376 311q-59 48 -127 102t-139 96q-130 -53 -224 -67l-6 40q52 6 121 29.5t192 75.5l79 31q345 -64 431 -64q106 0 222 33t199 94t129 145
q-52 -5 -134 -5q-199 0 -430.5 39.5t-381.5 95.5l-161 -99q-282 -178 -345 -192zM1334 1336q210 -81 527 -120q274 155 319 357q-143 -58 -297 -94.5t-270 -36.5q-38 0 -148 8q-111 8 -162 8q-59 0 -136.5 -55t-210.5 -208q-99 -112 -127 -132l16 -17q50 19 242 139
q212 132 247 151zM514 86l105 -2l154 61l325 -37q18 6 33.5 20t15.5 29q0 40 -46 109q-74 41 -168 79l137 -205l-321 20l-138 -51l-179 -21l-101 -59l15 -21l78 44zM1296 99q-11 28 -38 57t-95 79q24 -48 24 -81q0 -32 -33 -57l54 -7zM413 1438q0 20 14.5 34.5t35.5 14.5
q20 0 34.5 -14.5t14.5 -34.5q0 -21 -14.5 -35.5t-34.5 -14.5q-21 0 -35.5 14.5t-14.5 35.5zM444 1438q0 -19 19 -19q18 0 18 19q0 18 -18 18q-19 0 -19 -18z" />
  </g>

</svg>
