<?xml version="1.0" standalone="no"?>
<!DOCTYPE svg PUBLIC "-//W3C//DTD SVG 1.1//EN" "http://www.w3.org/Graphics/SVG/1.1/DTD/svg11.dtd" >
<svg xmlns="http://www.w3.org/2000/svg" xmlns:xlink="http://www.w3.org/1999/xlink" version="1.1" viewBox="-10 0 3571 2048">
  <g transform="matrix(1 0 0 -1 0 1638)">
   <path fill="currentColor"
d="M1949 1395q53 -24 110 -87q31 -35 260.5 -187t490.5 -313q-180 -67 -331 -178.5t-274.5 -277t-235.5 -417.5q-150 225 -199 345t-49 221v78q0 63 -23 118t-64 82q-29 -50 -29 -126l1 -69q0 -22 -13 -30.5t-27 -8.5t-26.5 9.5t-12.5 26.5q0 24 7 63q14 78 14 115l-4 46
q-72 -1 -199 -65q0 -151 -45 -227.5t-138 -110.5q42 115 42 175q0 61 -28 134l-5 14l1 2q-31 20 -47 42l-98 8q-16 56 -16 82q0 33 66.5 130.5t152.5 180.5t183 143.5t197 87.5q-23 69 -107 69q-38 0 -163 -40q-153 -50 -221 -50q-45 0 -88 17t-87 38q-41 20 -81 36t-76 16
q-51 0 -181 -55q-58 -24 -116.5 -44t-110.5 -20q-105 0 -186 77t-93 186h106q3 -33 22.5 -61t50 -46t53.5 -18q64 0 252 70l62 22q108 39 152 39q43 0 88.5 -15.5t91.5 -32.5q111 -44 153 -44q40 0 178 45q56 18 112.5 34.5t97.5 16.5q92 0 159.5 -41t101.5 -119
q34 77 101.5 118.5t160.5 41.5q41 0 97.5 -16.5t112.5 -34.5q138 -45 178 -45q42 0 153 44q46 17 91.5 32.5t88.5 15.5q21 0 55.5 -8.5t158.5 -52.5q183 -70 252 -70q23 0 54 18t50 46t22 61h106q-16 -111 -96.5 -187t-182.5 -76q-52 0 -110.5 20t-116.5 44q-130 55 -181 55
q-36 0 -76 -16t-81 -36q-44 -21 -87 -38t-88 -17q-68 0 -221 50q-125 40 -163 40q-42 0 -71 -20t-38 -55zM1778 1384q-107 0 -204 -35.5t-181.5 -92.5t-160.5 -136t-128.5 -156.5t-52.5 -104.5l3 -28l3 -16l86 -8v1q46 32 157 63l10 -38q-95 -25 -140 -54q33 -33 75 -33
q20 0 92 35q45 22 98.5 43t109.5 21q71 0 118 -36.5t72.5 -98t25.5 -131.5v-78q0 -164 131 -369l71 -114q153 329 334 514t422 284q-241 148 -452.5 291t-246.5 185q-49 53 -108 72.5t-134 19.5zM1804 1423q62 -2 106 -16q12 47 51.5 75t96.5 28q34 0 79 -13t96 -29
q147 -48 209 -48q37 0 76.5 15.5t80.5 35.5q44 21 87.5 38.5t87.5 17.5q41 0 91.5 -17.5t105.5 -40.5v1q57 -23 112 -42.5t99 -19.5q79 0 145.5 54t88.5 138h-33q-9 -51 -60 -92.5t-94 -41.5q-33 0 -86 13t-180 59q-156 59 -200 59q-35 0 -78.5 -14.5t-87.5 -31.5
q-115 -46 -167 -46q-46 0 -190 47q-55 18 -108 33.5t-90 15.5q-74 0 -120 -24.5t-71.5 -56t-35.5 -60.5t-11 -37zM1650 1410q47 11 106 13q-7 45 -39 89.5t-83 66.5t-115 22q-37 0 -90 -15.5t-108 -33.5q-144 -47 -190 -47q-52 0 -167 46q-44 17 -87.5 31.5t-78.5 14.5
q-44 0 -200 -59q-129 -47 -181 -59.5t-85 -12.5q-51 0 -98 40.5t-56 93.5h-32q13 -75 83.5 -133.5t149.5 -58.5q44 0 99 19.5t112 42.5v-1q55 23 105.5 40.5t91.5 17.5q44 0 87.5 -17.5t87.5 -38.5q41 -20 80.5 -35.5t76.5 -15.5q62 0 209 48q51 16 96 29t79 13q54 0 94 -27
t53 -73zM2026 1241q-35 -178 -113.5 -284t-174.5 -106q-65 0 -65 76q0 59 48.5 159.5t146.5 220.5l30 -26q-94 -114 -139.5 -207.5t-45.5 -146.5q0 -36 25 -36q81 0 148 97.5t100 260.5zM1305 721q-33 -15 -61 -15l-26 3q23 -66 23 -130q0 -42 -9 -101q33 27 51.5 82.5
t21.5 160.5zM1085 865q6 9 29 32t38 32l20 -34q-11 -6 -30 -24.5t-25 -29.5zM1525 1196q0 19 19.5 32.5t45.5 13.5t45.5 -13.5t19.5 -32.5t-19.5 -32.5t-45.5 -13.5t-45.5 13.5t-19.5 32.5zM1559 1196q0 -6 7 -12.5t24 -6.5t24 6.5t7 12.5t-7 12.5t-24 6.5t-24 -6.5
t-7 -12.5z" />
  </g>

</svg>
