<?xml version="1.0" standalone="no"?>
<!DOCTYPE svg PUBLIC "-//W3C//DTD SVG 1.1//EN" "http://www.w3.org/Graphics/SVG/1.1/DTD/svg11.dtd" >
<svg xmlns="http://www.w3.org/2000/svg" xmlns:xlink="http://www.w3.org/1999/xlink" version="1.1" viewBox="-10 0 2796 2048">
  <g transform="matrix(1 0 0 -1 0 1638)">
   <path fill="currentColor"
d="M1994 1739q85 0 119.5 -19.5t34.5 -75.5q0 -23 -47 -124q-72 -155 -119.5 -306t-69.5 -337q213 -10 394 -134.5t280.5 -320.5t99.5 -422q0 -97 -22 -138.5t-71 -41.5q-116 0 -116 165q0 173 -77 328t-211.5 247t-299.5 99q-20 -235 -20 -420h-1490q0 176 -20 404.5
t-48 398.5q-41 212 -164 478q-47 101 -47 124q0 55 34 75t120 20h1740zM383 838l15 -138h1448q196 0 347.5 -89.5t237.5 -258.5t86 -367q0 -125 76 -125q33 0 43 38.5t10 101.5q0 226 -107.5 420.5t-294.5 306t-405 111.5h-1456zM1867 1699l3 -1q-136 -397 -178 -820h178
q10 84 29 181.5t53.5 201.5t112.5 275q43 90 43 108q0 33 -27 44t-87 11h-127zM378 1699h-124q-59 0 -86.5 -11t-27.5 -44q0 -18 43 -108q71 -157 103.5 -250t50 -166t41.5 -242h175q-42 423 -177 820zM1584 1699q-62 -349 -86 -821h154q39 420 175 821h-243zM418 1699
q134 -395 176 -821h153q-24 458 -86 821h-243zM702 1699q61 -354 85 -821h142q-5 508 -38 821h-189zM1354 1699q-32 -303 -37 -821h141q24 467 85 821h-189zM932 1699q32 -336 37 -821h135v821h-172zM1144 878h133q5 522 37 821h-170v-821zM1829 279q0 164 17 381h-170
q-6 -119 -6 -356v-25h159zM576 304q0 217 -7 356h-168q15 -173 18 -381h157v25zM1630 304q0 237 6 356h-146q-4 -148 -4 -381h144v25zM760 279q0 196 -5 381h-146q7 -139 7 -356v-25h144zM1104 279v381h-134v-381h134zM1144 660v-381h132v381h-132zM795 660q5 -185 5 -381
h130v381h-135zM1446 279q0 233 4 381h-134v-381h130z" />
  </g>

</svg>
