<?xml version="1.0" standalone="no"?>
<!DOCTYPE svg PUBLIC "-//W3C//DTD SVG 1.1//EN" "http://www.w3.org/Graphics/SVG/1.1/DTD/svg11.dtd" >
<svg xmlns="http://www.w3.org/2000/svg" xmlns:xlink="http://www.w3.org/1999/xlink" version="1.1" viewBox="-10 0 2604 2048">
  <g transform="matrix(1 0 0 -1 0 1638)">
   <path fill="currentColor"
d="M2119 293q-206 0 -406.5 98t-415.5 311q-214 -212 -415 -310.5t-407 -98.5h-375v337h323q168 0 331.5 66t348.5 213l-87 100q-142 167 -233 256.5t-171 145.5q-132 92 -216 138t-217 103q-29 13 -49 30.5t-20 49.5q0 52 102 52q90 0 254 -68.5t278 -152.5
q178 -132 428 -369l125 -118l125 118q256 242 428 369q112 83 277 152t255 69q102 0 102 -52q0 -32 -20 -49.5t-49 -30.5q-116 -49 -195 -91t-178.5 -109t-151 -112.5t-108.5 -104.5t-292 -326q185 -146 349.5 -212.5t331.5 -66.5h323v-337h-375zM2454 333v257h-283
q-159 0 -310 56.5t-308 167t-400 341.5q-217 205 -300 273.5t-169.5 126.5t-175.5 99.5t-168.5 65.5t-142.5 24q-47 0 -47 -15t13.5 -24t31.5 -17q136 -59 221.5 -105.5t217.5 -137.5q90 -62 193.5 -169t293.5 -329q279 -326 516.5 -470t481.5 -144h335zM475 333
q198 0 394.5 96.5t400.5 298.5l-141 151q-192 -150 -361.5 -219.5t-344.5 -69.5h-283v-257h335zM1326 1049q41 -38 134 -116l127 147q120 139 208 225.5t165 139.5q134 92 221 139t218 104q18 8 31.5 17t13.5 24t-47 15q-134 0 -344 -105.5t-461 -340.5q-223 -210 -266 -249
z" />
  </g>

</svg>
