<?xml version="1.0" standalone="no"?>
<!DOCTYPE svg PUBLIC "-//W3C//DTD SVG 1.1//EN" "http://www.w3.org/Graphics/SVG/1.1/DTD/svg11.dtd" >
<svg xmlns="http://www.w3.org/2000/svg" xmlns:xlink="http://www.w3.org/1999/xlink" version="1.1" viewBox="-10 0 1712 2048">
  <g transform="scale(1, -1)" transform-origin="center">
   <path fill="currentColor"
d="M100 1325q0 41 24.5 66.5t64.5 25.5q38 0 62 -15.5t50 -56.5q6 32 29.5 52t58.5 20q38 0 62 -15.5t50 -56.5q6 32 29.5 52t58.5 20q38 0 62 -15.5t50 -56.5q6 32 29.5 52t58.5 20q36 0 58.5 -13.5t44.5 -44.5l226 -314q154 -8 236 -44.5t137 -112t83 -173.5t28 -155
q0 -42 -15.5 -69t-47.5 -29q-35 0 -71 41.5t-78 153.5q-51 134 -96.5 183t-135.5 49l-266 -370q-22 -31 -45 -44.5t-58 -13.5t-58.5 19.5t-29.5 51.5q-30 -43 -53.5 -57t-58.5 -14t-58.5 19.5t-29.5 51.5q-30 -43 -53.5 -57t-58.5 -14t-58.5 19.5t-29.5 51.5
q-30 -43 -53.5 -57t-58.5 -14q-40 0 -64.5 25.5t-24.5 66.5q0 48 54 120l191 266l-191 266q-54 72 -54 120zM389 1377q-49 0 -49 -52q0 -35 36 -84l218 -302l-218 -303q-36 -49 -36 -83q0 -52 49 -52q17 0 34 7t37 35l285 396l-285 396q-20 28 -37 35t-34 7zM589 1377
q-49 0 -49 -52q0 -35 36 -84l218 -302l-218 -303q-36 -49 -36 -83q0 -52 49 -52q17 0 34 7t37 35l285 396l-285 396q-20 28 -37 35t-34 7zM189 1377q-49 0 -49 -52q0 -17 8.5 -36.5t25 -42.5t220.5 -307l-208 -289q-14 -20 -30 -46t-16 -51q0 -52 49 -52q17 0 34 7t37 35
l285 396l-285 396q-20 28 -37 35t-34 7zM1099 1003l-239 332q-20 28 -37 35t-34 7q-49 0 -49 -52q0 -35 36 -84l218 -302l-218 -303q-36 -49 -36 -83q0 -52 49 -52q17 0 34 7t37 35l276 383h49q67 -6 102 -29t66.5 -70.5t74.5 -157.5q39 -99 63 -133t45 -34q11 0 18.5 18.5
t7.5 47.5q0 22 -4 41q-26 108 -48 160.5t-54 96.5t-76 74t-103 44t-129 19h-49z" />
  </g>

</svg>
