<?xml version="1.0" standalone="no"?>
<!DOCTYPE svg PUBLIC "-//W3C//DTD SVG 1.1//EN" "http://www.w3.org/Graphics/SVG/1.1/DTD/svg11.dtd" >
<svg xmlns="http://www.w3.org/2000/svg" xmlns:xlink="http://www.w3.org/1999/xlink" version="1.1" viewBox="-10 0 4142 2048">
  <g transform="matrix(1 0 0 -1 0 1638)">
   <path fill="currentColor"
d="M108 -177q0 99 67 193.5t180 150.5l-194 100l50 93l199 -103v1242q0 26 -24 44t-116 53q-75 28 -104.5 52.5t-47.5 61.5t-18 93q0 114 84.5 182.5t236.5 68.5q91 0 179.5 -26.5t155.5 -72.5q-99 -57 -121 -74.5t-34.5 -36.5t-12.5 -39q0 -64 131 -123l52 -24l-245 -123
v-1278l199 103l50 -93l-194 -100q114 -57 180.5 -151.5t66.5 -192.5h-720zM779 -137q0 75 -80 162.5t-203 144.5l224 115l-12 22l-222 -114v1368l202 97q-75 36 -107.5 72t-32.5 75q0 29 15 54.5t40 47t79 51.5q-48 25 -119 40.5t-142 15.5q-131 0 -206 -57t-75 -154
q0 -59 31.5 -100t111.5 -69q60 -22 97.5 -42t53.5 -39t16 -54v-1306l-222 114l-12 -22l224 -115q-127 -59 -205 -146t-78 -161h622zM909 -177q0 99 67 193.5t180 150.5l-194 100l50 93l199 -103v1242q0 26 -24 44t-116 53q-75 28 -104.5 52.5t-47.5 61.5t-18 93
q0 114 84.5 182.5t236.5 68.5q92 0 180 -26.5t155 -72.5q-99 -57 -121 -74.5t-34.5 -36.5t-12.5 -39q0 -64 131 -123l52 -24l-245 -123v-1278l199 103l50 -93l-194 -100q114 -57 180.5 -151.5t66.5 -192.5h-720zM1580 -137q0 75 -80 162.5t-203 144.5l224 115l-12 22
l-222 -114v1368l202 97q-75 36 -107.5 72t-32.5 75q0 29 15 54.5t40 47t79 51.5q-48 25 -119 40.5t-142 15.5q-131 0 -206 -57t-75 -154q0 -59 31.5 -100t111.5 -69q60 -22 97.5 -42t53.5 -39t16 -54v-1306l-222 114l-12 -22l224 -115q-127 -59 -205 -146t-78 -161h622z
M1710 -177q0 99 67 193.5t180 150.5l-194 100l50 93l199 -103v1242q0 26 -24 44t-116 53q-75 28 -104.5 52.5t-47.5 61.5t-18 93q0 114 84.5 182.5t236.5 68.5q92 0 180 -26.5t155 -72.5q-99 -57 -121 -74.5t-34.5 -36.5t-12.5 -39q0 -64 131 -123l52 -24l-245 -123v-1278
l199 103l50 -93l-194 -100q114 -57 180.5 -151.5t66.5 -192.5h-720zM2381 -137q0 75 -80 162.5t-203 144.5l224 115l-12 22l-222 -114v1368l202 97q-75 36 -107.5 72t-32.5 75q0 29 15 54.5t40 47t79 51.5q-48 25 -119 40.5t-142 15.5q-131 0 -206 -57t-75 -154
q0 -59 31.5 -100t111.5 -69q60 -22 97.5 -42t53.5 -39t16 -54v-1306l-222 114l-12 -22l224 -115q-127 -59 -205 -146t-78 -161h622zM2511 -177q0 99 67 193.5t180 150.5l-194 100l50 93l199 -103v1242q0 26 -24 44t-116 53q-75 28 -104.5 52.5t-47.5 61.5t-18 93
q0 114 84.5 182.5t236.5 68.5q92 0 180 -26.5t155 -72.5q-99 -57 -121 -74.5t-34.5 -36.5t-12.5 -39q0 -64 131 -123l52 -24l-245 -123v-1278l199 103l50 -93l-194 -100q114 -57 180.5 -151.5t66.5 -192.5h-720zM3182 -137q0 75 -80 162.5t-203 144.5l224 115l-12 22
l-222 -114v1368l202 97q-75 36 -107.5 72t-32.5 75q0 29 15 54.5t40 47t79 51.5q-48 25 -119 40.5t-142 15.5q-131 0 -206 -57t-75 -154q0 -59 31.5 -100t111.5 -69q60 -22 97.5 -42t53.5 -39t16 -54v-1306l-222 114l-12 -22l224 -115q-127 -59 -205 -146t-78 -161h622z
M3312 -177q0 99 67 193.5t180 150.5l-194 100l50 93l199 -103v1242q0 26 -24 44t-116 53q-75 28 -104.5 52.5t-47.5 61.5t-18 93q0 114 84.5 182.5t236.5 68.5q91 0 179.5 -26.5t155.5 -72.5q-99 -57 -121 -74.5t-34.5 -36.5t-12.5 -39q0 -64 131 -123l52 -24l-245 -123
v-1278l199 103l50 -93l-194 -100q114 -57 180.5 -151.5t66.5 -192.5h-720zM3983 -137q0 75 -80 162.5t-203 144.5l224 115l-12 22l-222 -114v1368l202 97q-75 36 -107.5 72t-32.5 75q0 29 15 54.5t40 47t79 51.5q-48 25 -119 40.5t-142 15.5q-131 0 -206 -57t-75 -154
q0 -59 31.5 -100t111.5 -69q60 -22 97.5 -42t53.5 -39t16 -54v-1306l-222 114l-12 -22l224 -115q-127 -59 -205 -146t-78 -161h622z" />
  </g>

</svg>
