<?xml version="1.0" standalone="no"?>
<!DOCTYPE svg PUBLIC "-//W3C//DTD SVG 1.1//EN" "http://www.w3.org/Graphics/SVG/1.1/DTD/svg11.dtd" >
<svg xmlns="http://www.w3.org/2000/svg" xmlns:xlink="http://www.w3.org/1999/xlink" version="1.1" viewBox="-10 0 2688 2048">
  <g transform="matrix(1 0 0 -1 0 1638)">
   <path fill="currentColor"
d="M921 598l-7 124h-85l-186 -36h-240l-168 74l-135 128l55 83l52 -36l242 718l204 -662l23 3l141 -58l67 3q-11 63 -31 126l-152 182q-64 78 -92 130t-43 111t-15 131q0 220 77 431h492q74 -188 83 -368q61 -19 135 -62t127 -92q98 -37 164 -130l301 -423l195 -3l22 17
l45 611h287l36 -809l-52 -69h-352l467 -655l-104 -87l-271 277l112 -244l-413 34l-203 393l-106 64l39 -210l-38 -15l-163 87v-251h197q70 0 98 -44l56 -80l-41 -27l-23 36h-742l-26 -36l-38 27l6 9h-362l-26 -36l-38 27l57 80q27 44 97 44h275v483zM2439 762l36 48l-34 750
h-209l-44 -600l-34 -28l-546 7l-805 -41l-137 55h-1l47 -150l-258 -21q-134 34 -167 57l-125 86l-22 -31l110 -98l158 -72h234l184 38h1613zM1274 1557q52 0 96 -6q-132 85 -207 107q0 76 -19.5 171t-52.5 181h-434q-66 -194 -66 -403q0 -81 30 -159t109 -173l272 -329
l288 15l-178 135q-70 50 -110.5 116t-40.5 139q0 95 85 150.5t228 55.5zM1001 1345q0 -63 40.5 -120.5t170.5 -153.5l141 -106l257 14l273 -4l-285 399q-101 145 -313 145q-140 0 -212 -46t-72 -128zM1607 722h-420q76 -92 100 -166t24 -177v-264l-43 -35h-234l-32 -45h690
l-32 45h-221l-48 35v284l19 27l172 -93l-39 211l24 21l166 -98l199 -380l314 -28l-126 277zM2528 76l-463 646h-387l476 -356l324 -336zM1137 722h-179l3 -110v-497l-43 -35h-304l-32 -45h362l23 33q26 41 74 45v362l36 26l194 -158v38q0 98 -22 165.5t-76 132.5zM338 852
l111 308l109 -336l103 8l-214 690l-206 -610l65 -45zM1271 115v172l-190 156v-328h190zM663 1841q0 29 20.5 50t50.5 21q29 0 50 -21t21 -50q0 -30 -21 -50.5t-50 -20.5q-30 0 -50.5 20.5t-20.5 50.5zM943 1841q0 29 20.5 50t50.5 21q29 0 50 -21t21 -50q0 -30 -21 -50.5
t-50 -20.5q-30 0 -50.5 20.5t-20.5 50.5zM376 839l81 -23l60 5l-70 216zM949 1771l-58 -186h-32l-67 182l36 15l47 -127l40 127zM696 1841q0 -16 11 -27t27 -11q15 0 26.5 11t11.5 27q0 15 -11.5 26.5t-26.5 11.5q-16 0 -27 -11.5t-11 -26.5zM976 1841q0 -16 11 -27t27 -11
q15 0 26.5 11t11.5 27q0 15 -11.5 26.5t-26.5 11.5q-16 0 -27 -11.5t-11 -26.5zM913 992l13 -50l27 1z" />
  </g>

</svg>
