<?xml version="1.0" standalone="no"?>
<!DOCTYPE svg PUBLIC "-//W3C//DTD SVG 1.1//EN" "http://www.w3.org/Graphics/SVG/1.1/DTD/svg11.dtd" >
<svg xmlns="http://www.w3.org/2000/svg" xmlns:xlink="http://www.w3.org/1999/xlink" version="1.1" viewBox="-10 0 1023 2048">
  <g transform="matrix(1 0 0 -1 0 1638)">
   <path fill="currentColor"
d="M897 -111q-155 10 -341 94.5t-303 198t-153 236.5l20 21q125 -2 295.5 -84.5t304.5 -205t193 -243.5zM147 398q36 -104 144 -202.5t271 -173.5t298 -95q-57 104 -174.5 209t-266.5 179t-272 83zM897 669q-155 10 -341 94.5t-303 198t-153 236.5l20 21q131 -4 300 -86.5
t301.5 -204t191.5 -242.5zM147 1178q36 -104 144 -202.5t271 -173.5t298 -95q-57 104 -174.5 209t-266.5 179t-272 83zM897 1449q-155 10 -341 94.5t-303 198t-153 236.5l20 21q131 -4 300 -86.5t301.5 -204t191.5 -242.5zM147 1958q36 -104 144 -202.5t271 -173.5t298 -95
q-57 104 -174.5 209t-266.5 179t-272 83z" />
  </g>

</svg>
