<?xml version="1.0" standalone="no"?>
<!DOCTYPE svg PUBLIC "-//W3C//DTD SVG 1.1//EN" "http://www.w3.org/Graphics/SVG/1.1/DTD/svg11.dtd" >
<svg xmlns="http://www.w3.org/2000/svg" xmlns:xlink="http://www.w3.org/1999/xlink" version="1.1" viewBox="-10 0 2634 2048">
  <g transform="matrix(1 0 0 -1 0 1638)">
   <path fill="currentColor"
d="M1312 1623q50 0 94.5 -8.5t81 -21t102.5 -49.5v-40q-41 -13 -72.5 -44t-45.5 -70l-32 -85q-25 -68 -72 -86v-193h363v84q-24 3 -40 22.5t-16 50.5q0 85 34 215.5t73 130.5t73 -130t34 -216q0 -30 -15.5 -49.5t-40.5 -23.5v-84h284v193q-47 18 -72 86l-32 85
q-14 39 -44.5 69t-73.5 44v41q73 43 140.5 61t137.5 18q50 0 94.5 -8.5t81 -21t102.5 -49.5v-40q-41 -13 -72.5 -44t-45.5 -70l-32 -85q-25 -68 -72 -86v-204q149 -28 222 -112.5t73 -213.5q0 -163 -106 -250t-309 -87h-1594q-204 0 -309.5 87t-105.5 250q0 129 73 213.5
t222 112.5v204q-47 18 -72 86l-32 85q-14 39 -45.5 70t-72.5 44v40q73 43 140.5 61t137.5 18q50 0 94.5 -8.5t81 -21t102.5 -49.5v-41q-42 -13 -73 -43.5t-45 -69.5l-32 -85q-25 -68 -72 -86v-193h284v84q-24 3 -40 22.5t-16 50.5q0 85 34 215.5t73 130.5t73 -130t34 -216
q0 -30 -15.5 -49.5t-40.5 -23.5v-84h363v193q-47 18 -72 86l-32 85q-14 39 -45.5 70t-72.5 44v40q73 43 140.5 61t137.5 18zM1328 1248q53 15 74 71l32 85q13 38 43 73t68 52q-92 54 -233 54t-233 -54q74 -35 111 -125l32 -85q21 -56 74 -71v-262h-443v164l10 -1l18 3
q28 5 28 31q0 24 -9 83.5t-27 129t-31 69.5t-31 -69.5t-27 -131t-9 -81.5q0 -26 28 -31l18 -3l10 1v-164h-316l-48 -2v264q53 15 74 71l32 85q31 86 113 119q-104 60 -235 60q-141 0 -233 -54q74 -35 111 -125l32 -85q21 -56 74 -71v-267q-146 -20 -220.5 -96t-74.5 -196
q0 -143 95 -220t280 -77h1594q185 0 280 77t95 220q0 120 -75 196t-220 96v267q53 15 74 71l32 85q13 38 43 73t68 52q-92 54 -233 54q-131 0 -235 -60q82 -33 113 -119l32 -85q21 -56 74 -71v-264l-48 2h-316v164l10 -1l18 3q28 5 28 31q0 24 -9 83.5t-27 129t-31 69.5
t-31 -69.5t-27 -131t-9 -81.5q0 -26 28 -31l18 -3l10 1v-164h-443v262zM2048 914q165 0 258 -59.5t93 -165.5q0 -108 -87 -166.5t-264 -58.5h-1472q-175 0 -263 58t-88 167q0 106 92.5 165.5t258.5 59.5h1472zM2048 504q153 0 232 47.5t79 137.5q0 58 -36.5 99t-111.5 63.5
t-163 22.5h-1472q-142 0 -226.5 -48t-84.5 -137q0 -90 79 -137.5t232 -47.5h1472z" />
  </g>

</svg>
