<?xml version="1.0" standalone="no"?>
<!DOCTYPE svg PUBLIC "-//W3C//DTD SVG 1.1//EN" "http://www.w3.org/Graphics/SVG/1.1/DTD/svg11.dtd" >
<svg xmlns="http://www.w3.org/2000/svg" xmlns:xlink="http://www.w3.org/1999/xlink" version="1.1" viewBox="-10 0 2626 2048">
  <g transform="matrix(1 0 0 -1 0 1638)">
   <path fill="currentColor"
d="M732 651q37 50 102.5 78t148.5 28q66 0 129.5 -35t110 -94t46.5 -95q0 -17 -12 -32t-30 -15q-19 0 -35.5 15.5t-38.5 47.5q-78 106 -171 106q-68 0 -118.5 -34t-79.5 -104t-29 -148v-253q0 -61 -13.5 -88.5t-57.5 -27.5q-43 0 -56.5 27.5t-13.5 88.5v253q0 78 -29 148.5
t-80 104t-118 33.5q-39 0 -86 -28.5t-85 -77.5q-23 -32 -39.5 -47.5t-34.5 -15.5q-22 0 -32 15t-10 32q0 36 46.5 95.5t110.5 94t129 34.5q81 0 147.5 -28t103.5 -78v1133q0 93 -28.5 132.5t-84.5 39.5q-54 0 -89 -46t-40 -115q0 -34 -13.5 -53.5t-36.5 -19.5q-43 0 -43 66
q0 60 29.5 128t78 102t114.5 34q208 0 208 -257v-1144zM696 1795q0 220 -172 220q-54 0 -95.5 -30t-65 -88.5t-23.5 -108.5q0 -28 5 -28q4 0 7.5 13t3.5 28q27 192 168 192q73 0 111.5 -48t38.5 -161v-1211l-33 -8q-38 76 -105 115.5t-150 39.5q-56 0 -109.5 -29.5
t-96.5 -81t-43 -76.5q0 -8 5 -8q8 0 44 46q90 123 201 123q81 0 140 -39.5t91 -119.5t32 -166v-253q0 -41 6.5 -60.5t27.5 -19.5q22 0 28.5 19.5t6.5 60.5v253q0 88 32 167.5t91.5 118.5t139.5 39q54 0 103.5 -29t107.5 -110q21 -30 34 -30q5 0 5 8q0 25 -43 76.5t-97 81
t-109 29.5q-86 0 -155 -42t-99 -113l-33 8v1222zM1979 651q37 50 102.5 78t148.5 28q66 0 129.5 -35t110 -94t46.5 -95q0 -17 -12 -32t-30 -15q-19 0 -35.5 15.5t-38.5 47.5q-78 106 -171 106q-68 0 -118.5 -34t-79.5 -104t-29 -148v-253q0 -61 -13.5 -88.5t-57.5 -27.5
q-43 0 -56.5 27.5t-13.5 88.5v253q0 78 -29 148.5t-80 104t-118 33.5q-39 0 -86 -28.5t-85 -77.5q-23 -32 -39.5 -47.5t-34.5 -15.5q-22 0 -32 15t-10 32q0 36 46.5 95.5t110.5 94t129 34.5q81 0 147.5 -28t103.5 -78v1133q0 93 -28.5 132.5t-84.5 39.5q-54 0 -89 -46
t-40 -115q0 -34 -13.5 -53.5t-36.5 -19.5q-43 0 -43 66q0 60 29.5 128t78 102t114.5 34q208 0 208 -257v-1144zM1943 1795q0 220 -172 220q-54 0 -95.5 -30t-65 -88.5t-23.5 -108.5q0 -28 5 -28q4 0 7.5 13t3.5 28q27 192 168 192q73 0 111.5 -48t38.5 -161v-1211l-33 -8
q-38 76 -105 115.5t-150 39.5q-56 0 -109.5 -29.5t-96.5 -81t-43 -76.5q0 -8 5 -8q8 0 44 46q90 123 201 123q81 0 140 -39.5t91 -119.5t32 -166v-253q0 -41 6.5 -60.5t27.5 -19.5q22 0 28.5 19.5t6.5 60.5v253q0 88 32 167.5t91.5 118.5t139.5 39q54 0 103.5 -29
t107.5 -110q21 -30 34 -30q5 0 5 8q0 25 -43 76.5t-97 81t-109 29.5q-86 0 -155 -42t-99 -113l-33 8v1222z" />
  </g>

</svg>
