<?xml version="1.0" standalone="no"?>
<!DOCTYPE svg PUBLIC "-//W3C//DTD SVG 1.1//EN" "http://www.w3.org/Graphics/SVG/1.1/DTD/svg11.dtd" >
<svg xmlns="http://www.w3.org/2000/svg" xmlns:xlink="http://www.w3.org/1999/xlink" version="1.1" viewBox="-10 0 1949 2048">
  <g transform="matrix(1 0 0 -1 0 1638)">
   <path fill="currentColor"
d="M515 849v-98h-292v98h-123v220h78l135 742v-1q8 43 36 64.5t66 21.5q45 0 74 -34q29 34 79 34q45 0 74 -34q29 34 79 34q45 0 74 -34q29 34 79 34q45 0 74 -34q29 34 79 34q45 0 74 -34q29 34 79 34q45 0 74 -34q29 34 79 34q39 0 65.5 -25t26.5 -56l-1 -12l-134 -734h69
v-63q108 -22 194 -82.5t147.5 -149t100 -208.5t38.5 -218t-22 -168t-60 -107.5t-86 -37.5q-64 0 -105 52.5t-41 140.5q0 42 18 129q20 95 20 150q0 154 -53 254t-151 123v-35h-138v-98h-292v98h-414zM969 889v-98h212v98h138v140h-1179v-140h123v-98h212v98h494zM1799 348
q0 86 -33.5 197t-90 195t-136 142.5t-180.5 81.5v-39q114 -22 179 -132t65 -286q0 -65 -20 -158q-18 -82 -18 -121q0 -69 29.5 -111t76.5 -42q57 0 92.5 75t35.5 198zM219 1069h112l135 748q0 15 -14 27t-37 12t-40 -13.5t-22 -39.5zM525 1069h112l135 748q0 15 -14 27
t-37 12t-40 -13.5t-22 -39.5zM984 1069h112l135 748q0 15 -14 27t-37 12t-40 -13.5t-22 -39.5zM1137 1069h112l135 748q0 15 -14 27t-37 12t-40 -13.5t-22 -39.5zM372 1069h112l135 748q0 15 -14 27t-37 12t-40 -13.5t-22 -39.5zM678 1069h112l135 748q0 15 -14 27t-37 12
t-40 -13.5t-22 -39.5zM831 1069h112l135 748q0 15 -14 27t-37 12t-40 -13.5t-22 -39.5z" />
  </g>

</svg>
