<?xml version="1.0" standalone="no"?>
<!DOCTYPE svg PUBLIC "-//W3C//DTD SVG 1.1//EN" "http://www.w3.org/Graphics/SVG/1.1/DTD/svg11.dtd" >
<svg xmlns="http://www.w3.org/2000/svg" xmlns:xlink="http://www.w3.org/1999/xlink" version="1.1" viewBox="-10 0 2770 2048">
  <g transform="matrix(1 0 0 -1 0 1638)">
   <path fill="currentColor"
d="M2100 1700q65 0 106.5 -39.5t41.5 -100.5q0 -38 -63 -180q-43 -96 -43 -112q0 -33 14.5 -49.5t31.5 -16.5q25 0 55 18.5t71 59.5q79 77 144 77q26 0 67.5 -19t73.5 -42q-35 -6 -58.5 -18.5t-40 -31.5t-38.5 -66q-37 -76 -74 -126q74 -62 83 -134h56v-105l-28 -14
q-2 -66 -40 -115q93 34 169 79l32 -29q-10 -117 -128 -258.5t-301.5 -255t-403 -175t-447.5 -61.5q-229 0 -448 61.5t-402.5 175t-301 254.5t-128.5 259l32 29q98 -60 277 -115q51 27 124 27l40 -2q-30 33 -108 142l-269 -68q10 170 166 295q-14 47 -14 84q0 48 9 84t36 77
q43 68 90 148q5 8 5 18q0 9 -20 16q-31 10 -46 20l-166 -37l-8 21l119 70l-140 20v22l169 32q21 34 62 57.5t95 23.5q65 0 106.5 -39.5t41.5 -100.5q0 -38 -63 -180q-43 -96 -43 -112q0 -33 14.5 -49.5t31.5 -16.5q25 0 55 18.5t71 59.5q79 77 144 77q26 0 67.5 -19
t73.5 -42q-35 -6 -58.5 -18.5t-40 -31.5t-38.5 -66q-37 -76 -74 -126q74 -62 83 -134h46v-105l-18 -14q-2 -73 -33.5 -141t-78.5 -101q140 -20 282 -30q73 70 202 70l51 -2q-17 18 -63 102q-52 93 -70 118l-269 -68q10 170 166 295q-14 47 -14 84q0 48 9 84t36 77
q43 68 90 148q5 8 5 18q0 9 -20 16q-31 10 -46 20l-166 -37l-8 21l119 70l-140 20v22l169 32q21 34 62 57.5t95 23.5q65 0 106.5 -39.5t41.5 -100.5q0 -38 -63 -180q-43 -96 -43 -112q0 -33 14.5 -49.5t31.5 -16.5q25 0 55 18.5t71 59.5q79 77 144 77q26 0 67.5 -19
t73.5 -42q-35 -6 -58.5 -18.5t-40 -31.5t-38.5 -66q-37 -76 -74 -126q74 -62 83 -134h46v-105l-18 -14q-2 -80 -28.5 -157t-61.5 -115q138 10 220 22q45 64 219 104l70 16q-57 61 -122 153l-283 -75q10 170 166 295q-14 47 -14 84q0 48 9 84t36 77q43 68 90 148q5 8 5 18
q0 9 -20 16q-31 10 -46 20l-166 -37l-8 21l119 70l-140 20v22l169 32q21 34 62 57.5t95 23.5zM1380 26q206 0 411.5 57.5t378.5 159.5t296.5 231.5t148.5 235.5q-176 -99 -529 -165t-706 -66t-708.5 66.5t-526.5 164.5q25 -107 149 -236t297 -231.5t378.5 -159.5t410.5 -57z
M1691 814v9l28 15v44h-55q0 88 -100 166q56 71 93 147q19 39 36 68.5t44 46.5q-21 9 -49 9q-38 0 -71.5 -24t-66 -53.5t-64.5 -53.5t-68 -24q-35 0 -59.5 29t-24.5 75q0 20 68 175q38 86 38 117q0 42 -30.5 72t-79.5 30q-58 0 -97 -30.5t-39 -69.5q0 -36 72 -56
q19 -6 32 -12t13 -23q0 -22 -24.5 -68t-84.5 -136q-25 -39 -32 -69t-7 -70q0 -57 36.5 -148t112 -215.5t135.5 -200.5q-46 5 -91 5q-131 0 -183 -44l95 -5l50 36l20 -27l-14 -10h28h28l174 4l20 5q45 11 81 101.5t36 184.5zM651 631q-63 13 -115 13q-42 0 -71 -9l77 -20
l48 16l10 -29q63 -14 164 -31l24 5q48 12 87 84.5t39 154.5v8l28 15v44h-55q0 88 -100 166q56 71 93 147q19 39 36 68.5t44 46.5q-21 9 -49 9q-38 0 -71.5 -24t-66 -53.5t-64.5 -53.5t-68 -24q-35 0 -59.5 29t-24.5 75q0 20 68 175q38 86 38 117q0 42 -30.5 72t-79.5 30
q-58 0 -97 -30.5t-39 -69.5q0 -36 72 -56q19 -6 32 -12t13 -23q0 -22 -24.5 -68t-84.5 -136q-25 -39 -32 -69t-7 -70q0 -161 265 -497zM2100 1662q-58 0 -97 -30.5t-39 -69.5q0 -36 72 -56q19 -6 32 -12t13 -23q0 -22 -24.5 -68t-84.5 -136q-25 -39 -32 -69t-7 -70
q0 -83 73.5 -207t212.5 -272q-217 -45 -290 -88h3l135 22l51 37l17 -24q101 21 217 55q52 22 80.5 65t28.5 100v7l28 15v44h-55q0 88 -100 166q56 71 93 147q19 39 36 68.5t44 46.5q-21 9 -49 9q-38 0 -71.5 -24t-66 -53.5t-64.5 -53.5t-68 -24q-35 0 -59.5 29t-24.5 75
q0 20 68 175q38 86 38 117q0 42 -30.5 72t-79.5 30zM2004 857q-55 84 -81 151q-122 -102 -139 -209zM1226 853q-33 55 -73 155q-122 -102 -139 -209zM449 853q-33 55 -73 155q-122 -102 -139 -209zM1252 1576q0 11 8.5 19.5t19.5 8.5t19.5 -8.5t8.5 -19.5t-8.5 -19.5
t-19.5 -8.5t-19.5 8.5t-8.5 19.5zM2022 1576q0 11 8.5 19.5t19.5 8.5t19.5 -8.5t8.5 -19.5t-8.5 -19.5t-19.5 -8.5t-19.5 8.5t-8.5 19.5zM475 1576q0 11 8.5 19.5t19.5 8.5t19.5 -8.5t8.5 -19.5t-8.5 -19.5t-19.5 -8.5t-19.5 8.5t-8.5 19.5zM379 1567q0 12 5 25l-80 -14z
M1926 1567q0 12 5 25l-80 -14zM1156 1567q0 12 5 25l-80 -14zM1944 1511l-11 18l-56 -32zM1174 1511l-11 18l-56 -32zM397 1511l-11 18l-56 -32z" />
  </g>

</svg>
