<?xml version="1.0" standalone="no"?>
<!DOCTYPE svg PUBLIC "-//W3C//DTD SVG 1.1//EN" "http://www.w3.org/Graphics/SVG/1.1/DTD/svg11.dtd" >
<svg xmlns="http://www.w3.org/2000/svg" xmlns:xlink="http://www.w3.org/1999/xlink" version="1.1" viewBox="-10 0 3334 2048">
  <g transform="matrix(1 0 0 -1 0 1638)">
   <path fill="currentColor"
d="M202 1q-45 0 -73.5 34.5t-28.5 78.5v702h1804l1112 -112q94 -9 151 -51.5t57 -105.5q0 -53 -47 -86.5t-123 -33.5l-60 3q48 -39 48 -95q0 -53 -40 -84.5t-108 -31.5q-65 0 -204 40q26 -39 26 -87q0 -57 -43 -95.5t-101 -38.5q-36 0 -81.5 13t-94 33.5t-131.5 68.5
q4 -13 4 -28q0 -51 -33.5 -86t-83.5 -35q-92 0 -216 107v-2q0 -47 -31 -79.5t-75 -32.5q-77 0 -143 77q-9 -36 -39 -57.5t-65 -21.5q-71 0 -110 60q-13 -30 -40.5 -45t-57.5 -15q-23 0 -48 11.5t-42 35.5q-30 -47 -82 -47q-68 0 -101 50q-30 -44 -80 -44q-52 0 -82 46
q-32 -46 -82 -46q-52 0 -82 46q-32 -46 -82 -46q-52 0 -82 46q-32 -46 -82 -46q-52 0 -82 46q-32 -46 -82 -46q-52 0 -82 46q-32 -46 -82 -46zM1886 776h-1746v-361h1123q110 0 179 8t124.5 29t116 61.5t113 110t90.5 152.5zM1890 698l892 -195q74 -17 154 -26.5t118 -9.5
q58 0 94 21.5t36 59.5q0 48 -47 78.5t-125 37.5l-1084 109zM1824 591q640 -219 823 -275.5t247 -56.5q49 0 78.5 21t29.5 55q0 40 -41.5 69.5t-118.5 44.5q-132 26 -973 210zM1743 507l206 -121l387 -226q93 -49 145.5 -65.5t90.5 -16.5q42 0 73 27.5t31 66.5q0 42 -24.5 71
t-96.5 57l-758 258zM2229 125q0 50 -37 71l-481 284l-54 -30l243 -252q65 -69 134.5 -111.5t117.5 -42.5q36 0 56.5 24.5t20.5 56.5zM1529 398l158 -256q28 -47 66 -76t74 -29q32 0 50.5 21.5t18.5 50.5q0 20 -8 31.5t-16 27.5l-253 263zM1403 376l73 -228q33 -113 107 -113
q26 0 47 18.5t21 47.5q0 22 -9 37l-154 249zM1233 373h-109v-259q0 -34 21.5 -56.5t57.5 -22.5q29 0 45 23.5t16 58.5zM796 375v-265q1 -26 17 -47.5t45 -21.5q27 0 44.5 21.5t17.5 51.5v261h-124zM632 375v-261q0 -30 17.5 -51.5t44.5 -21.5t44.5 21.5t17.5 51.5v261h-124z
M960 375v-261q0 -30 17.5 -51.5t44.5 -21.5t44.5 21.5t17.5 51.5v261h-124zM140 114q0 -30 17.5 -51.5t44.5 -21.5t44.5 21.5t17.5 51.5v261h-124v-261zM468 375v-261q0 -30 17.5 -51.5t44.5 -21.5t44.5 21.5t17.5 51.5v261h-124zM304 375v-261q0 -30 17.5 -51.5t44.5 -21.5
t44.5 21.5t17.5 51.5v261h-124zM1274 373l31 -257q5 -42 26 -61.5t44 -19.5q26 0 47 16.5t21 50.5q0 13 -7 39l-75 232h-87z" />
  </g>

</svg>
