<?xml version="1.0" standalone="no"?>
<!DOCTYPE svg PUBLIC "-//W3C//DTD SVG 1.1//EN" "http://www.w3.org/Graphics/SVG/1.1/DTD/svg11.dtd" >
<svg xmlns="http://www.w3.org/2000/svg" xmlns:xlink="http://www.w3.org/1999/xlink" version="1.1" viewBox="-10 0 1771 2048">
  <g transform="matrix(1 0 0 -1 0 1638)">
   <path fill="currentColor"
d="M1018 109l36 -4q89 -8 119 -21q38 -20 52 -107l-40 -4q-8 20 -8 27h-598l-4 -17l-3 -10l-40 4l4 23h-213l-4 -17l-3 -10l-40 4q3 24 10 45q9 28 21.5 44.5t44.5 29t135 27.5q112 16 149 47q5 3 76 209l-90 417q-89 133 -180 288t-98 198q-52 344 -65 387
q-19 40 -69.5 72.5t-109.5 45.5q11 58 61 83l86 40q11 34 41.5 66t77 53t108.5 21q53 0 103.5 -27t98.5 -73t133 -158l45 -58l101 -103q134 -139 141 -233q53 -34 133.5 -116.5t118.5 -140.5l77 -131q117 -216 144 -257l17 -20q59 -62 67 -78t8 -34q0 -30 -23 -49t-60 -19
q-56 0 -131 13q-35 -18 -94 -32.5t-109 -14.5q-67 0 -193 28l56 -167zM1065 380l-75 226q163 -47 254 -47q92 0 199 50q96 -16 135 -16q19 0 31 8t12 20q0 9 -5.5 18.5t-60.5 68.5q-29 30 -99 159q-105 191 -127.5 228.5t-57.5 80t-85 92t-88 78.5v-5q0 -91 -53 -143.5
t-143 -52.5q-14 0 -70 8q69 -100 69 -132q0 -94 -86 -94q-54 0 -139.5 74t-133 161.5t-47.5 164.5q0 83 63 117t235 34l55 -1v-40l-55 1q-141 0 -199.5 -23.5t-58.5 -87.5q0 -71 42.5 -150t116.5 -144.5t121 -65.5q46 0 46 54q0 23 -127 197q116 -33 168 -33q74 0 115 42.5
t41 113.5q0 67 -22.5 112.5t-59.5 92.5t-152 162v-1l-20 25q-115 157 -192.5 217.5t-141.5 60.5q-119 -9 -181 -109q36 -71 39 -124q-64 17 -128 21q88 -41 117 -115q14 -35 35 -182l32 -211q8 -33 62.5 -131t150.5 -250t137 -202.5t116 -135.5t168 -185l-112 -312
q-109 0 -205.5 -8.5t-106.5 -25.5h568l-9 8q-30 15 -178 26l-1 40zM739 112l73 2h71l91 259l-138 152l21 -130zM754 378q-45 -132 -60 -176.5t-29 -59.5t-45.5 -27.5t-117.5 -26.5q-150 -24 -164 -48h211q17 40 48 49.5t96 17.5l122 292l-30 184l-101 121zM161 1826h20
q61 0 109 -8l-24 57q-85 -25 -105 -49zM382 1868q0 -4 11 -9t31 -5q22 0 33.5 5t11.5 9t-11.5 9t-33.5 5q-20 0 -31 -6t-11 -8zM347 1868q0 12 24.5 29t52.5 17q37 0 58.5 -16.5t21.5 -29.5t-21.5 -29.5t-58.5 -16.5q-31 0 -54 16.5t-23 29.5z" />
  </g>

</svg>
