<?xml version="1.0" standalone="no"?>
<!DOCTYPE svg PUBLIC "-//W3C//DTD SVG 1.1//EN" "http://www.w3.org/Graphics/SVG/1.1/DTD/svg11.dtd" >
<svg xmlns="http://www.w3.org/2000/svg" xmlns:xlink="http://www.w3.org/1999/xlink" version="1.1" viewBox="-10 0 2711 2048">
  <g transform="matrix(1 0 0 -1 0 1638)">
   <path fill="currentColor"
d="M113 1639l321 -93l7 1q14 0 25.5 -11.5t19.5 -40.5v19q0 19 8 31.5t21 12.5q28 0 28 -33l-3 -21q14 17 27 17q20 0 20 -23q0 -13 -9 -31l50 -29l1 8q-42 28 -42 78q0 12 9 29.5t23 28.5q-15 -4 -32 -4q-54 0 -89 42t-42 91h6q39 0 87.5 -22t83.5 -56q-44 77 -127 208
t-127 186l19 12q38 -26 127 -121q-25 52 -93 150l16 12q76 -69 169 -194.5t134 -210.5q50 -40 139.5 -137t89.5 -139q0 -22 -14 -38t-34 -16h-9l-11 1l-13 1v-17q-70 19 -178 69q35 -200 165 -370t330 -263q3 3 112 11l16 104l3 30q0 97 -82 316l-57 79l-33 43
q-69 84 -69 151v98q0 36 -7.5 47t-23.5 11q-19 0 -28.5 -4.5t-14.5 -18.5h-38v43q0 58 40 90l61 49q12 27 52 43.5t95 16.5q54 0 94 -18t70.5 -51.5t65.5 -107.5l78 -43q134 -134 284 -344l12 -14q153 -191 172 -207l68 -61l109 -106l-49 -40l-124 74l88 -129l-136 -90
q124 35 294 163l-125 116l40 42l131 -123l37 30l-138 129l40 42l142 -133l45 40l25 24q54 56 73 56q36 0 36 -29q0 -27 -24.5 -75.5t-63.5 -101.5l13 -11h4q35 0 66 -37.5t31 -90.5v-5l-15 -1q-56 0 -90.5 30.5t-34.5 61.5l-10 9l-32 -35l11 -10h4q35 0 66 -37.5t31 -90.5
v-5l-15 -1q-56 0 -90.5 30.5t-34.5 61.5l-13 12q-119 -107 -251 -168v-139q111 0 269 62l30 -107q-56 -24 -140.5 -42.5t-158.5 -21.5v-145h27v-125h254v-136h-1457q-97 0 -177.5 36.5t-127.5 97.5t-47 130q0 35 11 57.5t44 22.5q20 0 39.5 -23.5t54.5 -73.5q43 -66 107 -92
v50q0 131 81.5 219t205.5 92l45 1v122q-127 63 -236 154l-485 -64v-22q0 -58 15 -201l-32 -4q-15 146 -15 205v18l-176 -23v25l177 23l7 78l-230 -18v25l233 18l6 71l-276 -10v25l278 11v10l-5 60l-297 -6v25l294 6l-11 71l-308 5v25l305 -5l-5 54l1 16l-313 7v25l315 -7
q7 40 16 66l-342 24v25l350 -25l3 6l-53 15l7 43l-307 39v25l311 -39l9 49l-322 67v25l322 -67q-10 23 -10 46v8l2 7l-301 87v25zM1125 1754q0 17 11 28t25 11h47q49 0 73 -22.5t24 -56.5q0 -51 -85 -97l-14 -2q-9 0 -11 9h-9v-17h-25q0 41 -18.5 68.5t-47.5 27.5
q-19 0 -31 -12h11q71 0 71 -93v-98q0 -58 73 -146l36 -46q30 -40 79.5 -98t78.5 -87q106 -116 106 -233l-7 -137q-47 0 -96 -7v-19h216v19q-52 7 -86 7v152q32 -6 82 -37v214q51 0 101 -34t92 -104l109 -195l133 89l-99 146l-658 373q-67 33 -103.5 74.5t-36.5 81.5
q0 55 58 94t148 45l1 -38q-78 -5 -122.5 -32t-44.5 -69q0 -24 13 -43.5t33.5 -36t83.5 -52.5l808 -458l5 6l-165 143q-21 16 -186 226q-155 212 -282 339l-80 44q-39 78 -62.5 104.5t-56 39t-75.5 12.5q-48 0 -81 -10.5t-40 -30.5l-58 -49q-30 -22 -30 -63q23 45 65 45
q27 0 47 -20l6 -1q8 0 8 8l-1 8q-11 0 -22 8t-11 22zM1311 687q-260 83 -429 280.5t-203 449.5l-11 3l-11 4q0 -103 58 -248t150 -259.5t208 -190.5t256.5 -116.5t306.5 -40.5q129 0 236 21.5t194.5 56.5t156 80.5t120.5 92.5t88.5 93t59.5 83t33.5 60.5t10.5 26.5l-65 -65
q-66 -66 -185.5 -154t-216.5 -132.5t-166 -44.5h-591zM2367 17v56h-1401q-87 0 -145.5 29t-107.5 99q-31 44 -42.5 62t-17.5 18q-15 0 -15 -40q0 -54 43.5 -107t116 -85t152.5 -32h1417zM1159 238h27v150h-39q-76 0 -129.5 -58t-53.5 -148v-69h195v125zM689 1606
q-38 -23 -51 -46t-13 -36q0 -43 80 -77l105 -46q32 -16 51 -21v13l71 -10q10 0 10 16q0 12 -19.5 42t-90.5 104t-103 97l-33 -18q-139 236 -205 291q77 -132 198 -309zM2062 450q-68 0 -148 8t-129 8q-88 0 -167 -7t-157 -7h-42l-145 1h-133q-107 -2 -177 -78t-70 -193v-63
l30 -4v67q0 73 30 128t82.5 86.5t110.5 31.5l311 -4q80 0 162.5 7t164.5 7q74 0 144 -8.5t138 -8.5q95 0 179.5 14.5t132.5 38.5l-10 32q-130 -56 -307 -56zM1738 727h164l-116 207q-25 44 -59 75t-60 31v-233q-60 49 -91 55v-78q14 0 28.5 -1.5t44 -5.5t50.5 -16t39 -34z
M1709 238h27v162l-160 -10v-152h27v-125h106v125zM1984 238h27v146l-160 14v-160h27v-125h106v125zM1434 238h27v148h-73l-87 1v-149h27v-125h106v125zM467 732l458 60l-49 48l-402 -32zM476 833l379 30l-44 52l-328 -12zM1367 777l36 2l25 138q26 -5 52 -24l1 21
q0 39 -26.5 89.5t-69.5 95.5l-56 63q20 -62 39 -123t19 -128l-3 -34zM484 928l309 12l-42 63l-272 -6l5 -60v-9zM630 1338l-4 57v13l-77 45l5 11l6 17q0 5 -4 5q-8 0 -23 -26l-13 7l5 30q0 26 -10 26q-8 0 -8 -49l-38 -6l-9 23q-11 23 -16 23q-4 0 -4 -6q0 -15 17 -49
l-18 -107l44 -12q19 37 51 37q22 0 50 -12.5t46 -26.5zM466 1093l4 -25l6 -46l260 5l-32 62zM693 1114q-20 45 -27 69l-209 5v-14l5 -56zM475 1277q-13 -36 -16 -64l198 -5l-15 57zM2011 585q-76 -24 -160 -39v-42l160 -12v93zM1461 540q-86 12 -160 34v-80l160 -2v48z
M1749 117h89v81h-89v-81zM2024 117h89v81h-89v-81zM1199 117h89v81h-89v-81zM1474 117h89v81h-89v-81zM1243 1666l-3 -12q12 9 23.5 26t11.5 34q0 25 -19 39t-47 14h-19q4 -5 4 -14q0 -12 -13 -25l5 -14q0 -19 -26 -23q15 -22 20 -41l-1 12q0 16 8.5 26.5t22.5 10.5
q17 0 25 -12t8 -21zM1776 238h35v163l-19 1h-16v-164zM1226 238h35v149l-35 1v-150zM1501 238h35v149l-35 -1v-148zM2051 238h35v143h-35v-143zM2472 901l-7 -10l20 -18v-6q0 -25 27.5 -47t64.5 -25q-3 35 -27 61.5t-51 26.5l-6 -1zM2402 823l-8 -8l21 -20v-6
q0 -25 27.5 -47t64.5 -25q-3 35 -27 61.5t-51 26.5l-6 -1zM538 1347q-29 0 -37 -47l136 -10l-1 7q-18 16 -47.5 33t-50.5 17zM703 1663l14 7q-91 176 -176 265zM1736 533q-48 -4 -100 -4h-31l-29 1v-35q85 7 160 9v29zM2051 490h35v123l-35 -14v-109zM1487 856
q-17 12 -35 18l-19 -94l49 4zM1261 494v93l-35 13v-106h35zM712 1547q23 23 40 23q24 0 41 -21q-22 -22 -43 -22t-38 20zM593 1613h11q-50 48 -104 62q20 -37 40.5 -49.5t52.5 -12.5zM2244 1098l125 -117l9 8l-126 118zM2174 1020l113 -105l9 7l-114 107zM1536 533l-35 3
v-43l35 2v38zM1811 540l-35 -4v-28l35 -1v33zM1210 1679q-14 0 -14 -18q0 -20 14 -20t14 20q0 18 -14 18zM1145 1754q0 -13 14 -13q6 0 10.5 4t4.5 9q0 14 -15 14q-14 0 -14 -14zM1387 744q-21 0 -31 -17h31v17zM1344 743q-23 0 -36 -13l9 -3h10zM1662 727h30q-13 10 -30 16
v-16zM1275 742l15 -6l18 15l-33 -5v-4z" />
  </g>

</svg>
