<?xml version="1.0" standalone="no"?>
<!DOCTYPE svg PUBLIC "-//W3C//DTD SVG 1.1//EN" "http://www.w3.org/Graphics/SVG/1.1/DTD/svg11.dtd" >
<svg xmlns="http://www.w3.org/2000/svg" xmlns:xlink="http://www.w3.org/1999/xlink" version="1.1" viewBox="-10 0 1630 2048">
  <g transform="matrix(1 0 0 -1 0 1638)">
   <path fill="currentColor"
d="M156 592q0 66 27 95t88 36q15 21 34 34t64 17l128 9q23 139 23 157q0 59 -19 137.5t-76 231.5l-68 91l-40 50q-84 99 -84 176v140q0 52 -46 52q-25 0 -37 -10.5t-14 -17.5h-36v34q0 68 47 105q22 18 63 57q19 34 67 52t111 18q64 0 110 -19.5t81 -58t74 -120.5l94 -50
q147 -140 340 -402l14 -17q183 -222 207 -240q60 -50 212 -196l-49 -46l-69 43l-88 51l114 -159l-183 -117h90q94 0 128.5 -31t34.5 -102v-639h-145v549q0 45 -15 69t-37 24t-42.5 -15t-87.5 -75q41 -26 72.5 -69.5t31.5 -78.5q0 -18 -13.5 -34.5t-37.5 -16.5
q-34 0 -67.5 52.5t-41.5 104.5l-39 -25q35 -28 59.5 -70t24.5 -76q0 -20 -13 -37t-39 -17q-25 0 -46 27.5t-35.5 69t-14.5 65.5v5l-40 -15l2 -1q56 -70 56 -139q0 -24 -12.5 -41.5t-40.5 -17.5q-31 0 -54.5 46.5t-23.5 101.5l3 34l-35 -5q18 -50 18 -95q0 -93 -58 -93
t-58 93q0 45 18 95l-34 5l3 -34q0 -54 -23.5 -101t-54.5 -47q-28 0 -40.5 17.5t-12.5 41.5q0 36 17 76t40 64l-39 15v-5q0 -22 -14 -64t-35.5 -70t-46.5 -28q-26 0 -39 17t-13 37q0 35 26 78.5t57 66.5l-39 25v-5q-16 -64 -46.5 -107.5t-61.5 -43.5q-24 0 -37.5 16.5
t-13.5 34.5q0 33 29.5 75.5t73.5 72.5l-20 17q-39 37 -66 57t-44 16q-23 0 -37.5 -24.5t-14.5 -68.5v-549h-145v639zM251 1924q0 14 11 26t28 12h67q42 0 71 -26.5t29 -66.5q0 -24 -17.5 -46.5t-46.5 -40.5t-36.5 -20t-13.5 -2q-10 0 -12 11h-12v-19h-25q0 47 -24 81.5
t-60 34.5q-16 0 -37 -18h5l9 1q86 0 86 -109v-116q0 -27 10.5 -53t30 -55t116.5 -148.5t160 -183.5q63 -68 95.5 -137.5t32.5 -130.5l-10 -162q-56 0 -124 -8v-23h283v23q-72 8 -116 8v177q34 -8 107 -44v247q127 0 214 -157l137 -235l174 109l-130 186q-162 95 -515 280
l-274 140q-83 38 -125.5 85t-42.5 98q0 61 73 108.5t174 53.5l2 -34q-88 -6 -149 -44t-61 -84q0 -37 30.5 -71.5t120.5 -83.5q731 -371 975 -537l8 10l-193 167q-31 26 -223 264q-78 107 -173.5 218.5t-163.5 176.5l-96 52q-44 89 -73 119.5t-67 45.5t-92 15
q-59 0 -98.5 -12t-46.5 -33l-47 -45l-18 -15q-36 -29 -41 -72q39 52 82 52q26 0 52 -23l7 -1q10 0 10 9l-1 10q-14 0 -25 10.5t-11 25.5zM827 407q69 0 126.5 18t106.5 47.5t121 96.5q31 29 57.5 47.5t61.5 18.5q46 0 69.5 -36t23.5 -97v-509h65v599q0 54 -28.5 73.5
t-94.5 19.5h-1016q-66 0 -94.5 -19.5t-28.5 -73.5v-599h65v509q0 61 24 97t69 36q35 0 61.5 -18.5t57.5 -47.5q74 -69 123 -98t106.5 -46.5t124.5 -17.5zM974 725h202l-137 242q-37 62 -75.5 92.5t-69.5 30.5v-272q-71 57 -107 65v-91q40 -2 81.5 -8t62.5 -18t43 -41z
M537 783l43 2l30 161q34 -4 68 -27l1 22q0 45 -31.5 105t-85.5 118l-71 82q24 -71 46 -149.5t22 -156.5v-20l-2 -20zM389 1820q0 -10 -4 -14q42 33 42 63q0 29 -22.5 49.5t-56.5 20.5h-25q5 -10 5 -17q0 -19 -17 -30l6 -17q0 -18 -28 -25q18 -28 23 -48l-1 14
q0 18 10.5 30.5t28.5 12.5q20 0 29.5 -14t9.5 -25zM680 876q-24 15 -42 20l-22 -109l59 5zM823 361q-18 -50 -18 -88q0 -57 22 -57t22 57q0 38 -18 88h-8zM710 368q-49 -65 -49 -118q0 -23 15 -23q17 0 30 37.5t13 76.5l-1 25zM936 341q0 -39 13 -76.5t30 -37.5q15 0 15 23
q0 53 -49 118l-8 -2zM599 408q-68 -68 -68 -116q0 -17 13 -17q21 0 40 44.5t23 85.5zM1048 405q4 -40 22.5 -85t40.5 -45q13 0 13 17q0 48 -68 116zM496 470q-27 -21 -53.5 -55.5t-26.5 -56.5q0 -15 14 -15q21 0 43.5 44t29.5 79zM1152 466q8 -42 30.5 -82.5t42.5 -40.5
q14 0 14 15q0 22 -26 56.5t-54 55.5zM350 1836q-18 0 -18 -22q0 -11 6 -17.5t12 -6.5q16 0 16 24q0 7 -4 14.5t-12 7.5zM272 1924q0 -16 16 -16q17 0 17 16t-17 16q-16 0 -16 -16zM402 746q-24 0 -43 -21h43v21zM561 746q-24 0 -36 -21h36v21zM435 725q11 16 33 29l-41 -6
v-23h8zM510 745q-29 0 -47 -20h27q8 11 20 20zM344 745q-28 0 -46 -20h26zM890 744v-19h36q-10 10 -34 19h-2z" />
  </g>

</svg>
