<?xml version="1.0" standalone="no"?>
<!DOCTYPE svg PUBLIC "-//W3C//DTD SVG 1.1//EN" "http://www.w3.org/Graphics/SVG/1.1/DTD/svg11.dtd" >
<svg xmlns="http://www.w3.org/2000/svg" xmlns:xlink="http://www.w3.org/1999/xlink" version="1.1" viewBox="-10 0 3158 2048">
  <g transform="matrix(1 0 0 -1 0 1638)">
   <path fill="currentColor"
d="M542 513l4 8q6 17 27 31.5t47 14.5q47 0 76 -72l-19 -8l-13 19q-3 -11 -15 -19t-27 -8q-28 0 -40 33l-6 -11zM620 511q15 0 15 13q0 7 -17 7l-16 -3q5 -17 18 -17zM433 91q0 43 41 64t140 21h221q-51 45 -98 69.5t-110.5 42.5t-142.5 18h-120l-40 -2l-115 -10
q-50 0 -71.5 16t-21.5 40q0 20 9 34q-25 25 -25 61v34q0 33 26 55.5t62 22.5h137q38 0 76 11.5t76 24.5q100 37 164 37q66 0 207 -34q95 -25 266 -36l96 -6q362 -21 433 -42q132 -40 455 -160q318 -120 456 -163t262.5 -71t231.5 -33v-88h-1295q-65 0 -212 13
q-147 12 -217 12t-199 -12q-119 -12 -186 -12h-261q-140 0 -192.5 22.5t-52.5 70.5zM880 136h-267q-140 0 -140 -45q0 -53 203 -53h263q68 0 190 12q131 12 195 12q66 0 213 -12q147 -13 216 -13h1255v14q-201 19 -432.5 87.5t-606.5 217.5q-169 66 -338 118q-56 19 -424 40
l-220 14q-43 -62 -74 -169t-33 -180v-43zM484 346q211 0 359 -127q8 78 38.5 170t63.5 145l-107 24q-143 32 -197 32q-50 0 -150 -35q-40 -14 -80.5 -26t-85.5 -12h-137q-48 0 -48 -38v-34q0 -18 17 -35l58 35l27 -26l31 20l37 -30l44 28l43 -21l49 32l39 -34l41 29l42 -26
l130 -29l1 -16l-142 11l-31 17l-39 -28l-41 34l-49 -31l-51 21l-34 -29l-37 31l-38 -23l-25 24q-49 -29 -52.5 -34.5t-3.5 -14.5q0 -16 53 -16l30 2q84 10 125 10h120zM171 470q19 28 50 28q28 0 48 -20l-26 -26q-10 10 -22 10t-20 -12z" />
  </g>

</svg>
