<?xml version="1.0" standalone="no"?>
<!DOCTYPE svg PUBLIC "-//W3C//DTD SVG 1.1//EN" "http://www.w3.org/Graphics/SVG/1.1/DTD/svg11.dtd" >
<svg xmlns="http://www.w3.org/2000/svg" xmlns:xlink="http://www.w3.org/1999/xlink" version="1.1" viewBox="-10 0 3090 2048">
  <g transform="matrix(1 0 0 -1 0 1638)">
   <path fill="currentColor"
d="M180 1293l158 -64v700h40v-716l318 -129v845h40v-861l308 -125v80q-27 5 -41.5 27t-14.5 45q0 30 16 49.5t45 21.5l-128 220h-8v111h89q-17 51 -17 110q0 104 55.5 194t148.5 135t215 45q94 0 218.5 -30.5t322.5 -109.5l877 -344h48v-111h-9l-128 -220q29 -3 44 -22.5
t15 -48.5q0 -23 -14.5 -45t-41.5 -27v-1365h121l123 -191h-2880l123 191h115v831l-174 71l16 38l158 -64v160l-174 71l16 38l158 -64v240l-174 71l16 38l158 -64v160l-174 71zM2607 -342v1364h-1434v-1364h1434zM1025 1607q0 -57 19 -110h1679l-901 348q-248 96 -418 96
q-118 0 -203 -45t-130.5 -122t-45.5 -167zM1133 -382v1404h-49v-1404h-839l-71 -111h2732l-71 111h-139v1404h-49v-1404h-1514zM2689 1167l126 219h-1848l127 -219h1595zM378 -342h318v687l-318 128v-815zM1044 -342v546l-308 125v-671h308zM1058 1127q-14 0 -22 -9t-8 -23
q0 -11 8 -22t22 -11h1664q14 0 22 11t8 22q0 14 -8 23t-22 9h-1664zM378 723l318 -129v241l-318 128v-240zM736 578l308 -125v241l-308 125v-241zM953 1426h1877v31h-1877v-31zM378 1008l318 -129v161l-318 128v-160zM378 518l318 -129v161l-318 128v-160zM736 863l308 -125
v161l-308 125v-161zM736 373l308 -125v161l-308 125v-161z" />
  </g>

</svg>
