<?xml version="1.0" standalone="no"?>
<!DOCTYPE svg PUBLIC "-//W3C//DTD SVG 1.1//EN" "http://www.w3.org/Graphics/SVG/1.1/DTD/svg11.dtd" >
<svg xmlns="http://www.w3.org/2000/svg" xmlns:xlink="http://www.w3.org/1999/xlink" version="1.1" viewBox="-10 0 2859 2048">
  <g transform="matrix(1 0 0 -1 0 1638)">
   <path fill="currentColor"
d="M145 1048q26 0 56 -30l160 -156l161 156q32 30 57 30q20 0 32.5 -15t12.5 -29q0 -20 -17 -37l-139 -132q91 -35 150 -111l67 -90q54 -78 116 -78q39 0 90.5 14t117.5 35v1087q0 131 19 196t59 105t101.5 60t148.5 20t148.5 -22t100.5 -63t59 -108.5t20 -192.5v-1092
l20 -8q34 -14 92 -38t135.5 -46.5t172.5 -39t202 -16.5q137 0 231.5 8.5t185.5 22.5l12 1q15 0 24 -12t9 -27q0 -28 -37 -47q-186 -93 -435 -93q-153 0 -466 35l-146 15v-160h-163v172h-18q-107 0 -312 -32v-830h-163v808q-70 -8 -141 -8q-70 0 -117 10t-81 31t-80 75
l-96 115q-35 43 -60 43l-27 -3q-73 -16 -108 -16q-85 0 -141.5 36t-56.5 90q0 49 45 92.5t107 63.5l-138 134q-15 15 -15 33q0 17 12.5 30.5t32.5 13.5zM1172 656q98 25 166 25q73 0 164 -25v1036q0 91 -16.5 132.5t-51.5 63.5t-97 22q-80 0 -122.5 -52t-42.5 -166v-1036z
M365 815q-59 0 -111 -19t-82.5 -50.5t-30.5 -64.5q0 -38 43 -62t115 -24q46 0 110 16l25 3q45 0 110 -79l78 -95q39 -46 69.5 -63.5t74 -26.5t102.5 -9q102 0 303 31q200 30 313 30q84 0 368 -30q284 -31 425 -31q84 0 175 15t171 42t80 37q0 5 -10 5l-9 -1
q-196 -32 -397 -32q-107 0 -207 17t-189.5 43t-221.5 82q-120 52 -195.5 72t-135.5 20q-94 0 -262 -56q-87 -29 -154.5 -49t-120.5 -20q-39 0 -74.5 20t-75.5 73l-66 93q-35 50 -96 81.5t-124 31.5zM1049 619l16 5l67 21v1047q0 94 21 145t65 82t119 31q77 0 121.5 -26.5
t64 -77t19.5 -154.5v-1049l83 -31v1075q0 115 -18.5 175.5t-53 96.5t-89 55t-127.5 19q-108 0 -170 -35t-90 -99t-28 -207v-1073zM1132 -460v784l-83 -11v-773h83zM1625 230v124l-83 6v-130h83zM425 849l147 140q14 12 14 19q0 6 -8 6q-3 0 -5.5 -1.5t-166.5 -159.5z
M139 1008q0 -6 13 -19l146 -140l19 3l-154 152q-11 10 -17 10q-7 0 -7 -6zM312 750q0 14 10.5 23.5t23.5 9.5t23 -9.5t10 -23.5q0 -13 -10 -23t-23 -10t-23.5 10t-10.5 23z" />
  </g>

</svg>
