<?xml version="1.0" standalone="no"?>
<!DOCTYPE svg PUBLIC "-//W3C//DTD SVG 1.1//EN" "http://www.w3.org/Graphics/SVG/1.1/DTD/svg11.dtd" >
<svg xmlns="http://www.w3.org/2000/svg" xmlns:xlink="http://www.w3.org/1999/xlink" version="1.1" viewBox="-10 0 2502 2048">
  <g transform="matrix(1 0 0 -1 0 1638)">
   <path fill="currentColor"
d="M1316 -403v-90h266v419h-74v1284h-118v-1284h-74v-211h-910v211h-74v1596h74v211h1680v-211h74v-1596h-74v-419h266v419h-74v1596h74v419h-266v-90h-1680v90h-266v-419h74v-1596h-74v-419h266v90h910zM446 -443v-90h-346v499h74v1516h-74v499h346v-90h1600v90h346v-499
h-74v-1516h74v-499h-346v499h74v1516h-74v211h-1600v-211h-74v-1516h74v-211h830v211h74v1284h198v-1284h74v-499h-346v90h-830zM176 1906h194v-349h-194v349zM216 1597h114v269h-114v-269zM2316 1557h-194v349h194v-349zM2276 1866h-114v-269h114v269zM176 -109h194v-349
h-194v349zM216 -418h114v269h-114v-269zM2316 -458h-194v349h194v-349zM2276 -149h-114v-269h114v269zM1546 -458h-194v349h194v-349zM1506 -149h-114v-269h114v269zM503 1455h780l-170 -668h-440zM703 827h380l150 588h-680zM1171 -55q-6 73 -46.5 138t-107.5 104.5
t-146 39.5q-77 0 -144.5 -39t-108.5 -104t-47 -139h600zM871 267q142 0 242 -103.5t100 -258.5h-684q0 155 100 258.5t242 103.5z" />
  </g>

</svg>
