<?xml version="1.0" standalone="no"?>
<!DOCTYPE svg PUBLIC "-//W3C//DTD SVG 1.1//EN" "http://www.w3.org/Graphics/SVG/1.1/DTD/svg11.dtd" >
<svg xmlns="http://www.w3.org/2000/svg" xmlns:xlink="http://www.w3.org/1999/xlink" version="1.1" viewBox="-10 0 1328 2048">
  <g transform="matrix(1 0 0 -1 0 1638)">
   <path fill="currentColor"
d="M100 1026q0 151 75 280t204.5 204t279.5 75q151 0 280 -75t204 -204.5t75 -279.5q0 -151 -75 -280t-204.5 -204t-279.5 -75q-151 0 -280 75t-204 204.5t-75 279.5zM140 1026q0 -138 70.5 -258.5t191 -190.5t257.5 -70q140 0 259.5 70.5t189.5 190.5t70 258
q0 140 -70.5 259.5t-190.5 189.5t-258 70q-140 0 -259.5 -70.5t-189.5 -190.5t-70 -258zM209 1026q0 120 60.5 224.5t165 165t224.5 60.5t224.5 -60.5t165 -165t60.5 -224.5t-60.5 -224.5t-165 -165t-224.5 -60.5t-224.5 60.5t-165 165t-60.5 224.5zM249 1026
q0 -109 55 -204.5t151 -150.5t204 -55q109 0 204.5 55t150.5 151t55 204q0 109 -55 204.5t-151 150.5t-204 55q-109 0 -204.5 -55t-150.5 -151t-55 -204z" />
  </g>

</svg>
