<?xml version="1.0" standalone="no"?>
<!DOCTYPE svg PUBLIC "-//W3C//DTD SVG 1.1//EN" "http://www.w3.org/Graphics/SVG/1.1/DTD/svg11.dtd" >
<svg xmlns="http://www.w3.org/2000/svg" xmlns:xlink="http://www.w3.org/1999/xlink" version="1.1" viewBox="-10 0 1366 2048">
  <g transform="matrix(1 0 0 -1 0 1638)">
   <path fill="currentColor"
d="M100 1853h393q5 59 25 100t58 69t101 28q77 0 125 -48.5t59 -148.5h395v-305h-144l-98 -72l120 -110l-122 -112l123 -99l-122 -111l122 -95l-123 -106l122 -112l-122 -106l123 -105l-124 -100l122 -118l-121 -105l123 -102l-123 -102l121 -110l-137 -134l-28 28l107 104
l-123 112l121 102l-121 102l123 107l-123 118l122 99l-122 104l122 106l-122 112l121 104l-122 95l123 113l-123 99l123 112l-124 114l93 68h-331l-98 -72l120 -110l-122 -112l123 -99l-122 -111l122 -95l-123 -106l122 -112l-122 -106l123 -105l-124 -100l122 -118
l-121 -105l123 -102l-123 -102l121 -110l-137 -134l-28 28l107 104l-123 112l121 102l-121 102l123 107l-123 118l122 99l-122 104l122 106l-122 112l121 104l-122 95l123 113l-123 99l123 112l-124 114l93 68h-331l-98 -72l120 -110l-122 -112l123 -99l-122 -111l122 -95
l-123 -106l122 -112l-122 -106l123 -105l-124 -100l122 -118l-121 -105l123 -102l-123 -102l121 -110l-137 -134l-28 28l107 104l-123 112l121 102l-121 102l123 107l-123 118l122 99l-122 104l122 106l-122 112l121 104l-122 95l123 113l-123 99l123 112l-124 114l93 68
h-143v305zM140 1588h1076v225h-1076v-225zM677 2010q-61 0 -99.5 -40.5t-44.5 -116.5h288q-6 75 -45 116t-99 41z" />
  </g>

</svg>
