<?xml version="1.0" standalone="no"?>
<!DOCTYPE svg PUBLIC "-//W3C//DTD SVG 1.1//EN" "http://www.w3.org/Graphics/SVG/1.1/DTD/svg11.dtd" >
<svg xmlns="http://www.w3.org/2000/svg" xmlns:xlink="http://www.w3.org/1999/xlink" version="1.1" viewBox="-10 0 2524 2048">
  <g transform="scale(1, -1)" transform-origin="center">
   <path fill="currentColor"
d="M2405 806v-133h-832q53 -86 53 -151q0 -86 -52.5 -131.5t-155.5 -45.5q-39 0 -81 14v-214h1077v-40h-225v-170h225v-40h-225v-170h225v-40h-2295v40h230v170h-230v40h230v170h-230v40h1098v274q-61 39 -132.5 102.5t-119.5 115.5l-34 36h-351q-42 -54 -113 -90t-143 -36
q-73 0 -122 31.5t-75.5 83.5t-26.5 108q0 119 42.5 185.5t117.5 66.5q62 0 151.5 -65t156.5 -151h1837zM214 766q7 -16 35 -53h2116v53h-2151zM389 -65h410v170h-410v-170zM389 -275h410v170h-410v-170zM839 -65h410v170h-410v-170zM1289 -65h410v170h-410v-170zM1739 -65
h410v170h-410v-170zM1289 -275h410v170h-410v-170zM839 -275h410v170h-410v-170zM1739 -275h410v170h-410v-170zM1563 490q0 32 -58 90.5t-125 92.5h-43v-171q36 -24 68 -36.5t71 -12.5q38 0 62.5 10.5t24.5 26.5zM1556 433q-36 -19 -93 -19q-56 0 -126.5 37.5t-151 107
t-111.5 114.5h-75q21 -21 49.5 -50t62 -61t71 -63.5t77 -57t80 -41t79.5 -15.5q96 0 138 48zM180 885q0 -31 22 -79h198q-66 70 -104 95t-66 25q-50 0 -50 -41zM343 617q-67 0 -122 66t-75 159q-4 -30 -4 -58q0 -89 52.5 -143t134.5 -54q50 0 102.5 22.5t93.5 63.5h-53
q-20 -25 -53.5 -40.5t-75.5 -15.5zM260 982q-41 0 -69 -30q21 9 51 9q35 0 101 -49t110 -106h63q-72 83 -141 129.5t-115 46.5zM1297 375l-40 20v-250h40v230zM1257 560l40 -30v143h-40v-113zM1585 539q-6 28 -23 67t-36 67h-72q86 -65 131 -134zM1132 673q26 -28 85 -80v80
h-85zM343 657q40 0 67 16h-124q24 -16 57 -16zM1373 979l93 167h40l55 -116l65 116h40l55 -116l65 116h40l55 -116l65 116h40l55 -116l65 116h40l55 -116l65 116h40l81 -167h-46l-56 115l-64 -115h-40l-56 115l-64 -115h-40l-56 115l-64 -115h-40l-56 115l-64 -115h-40
l-56 115l-64 -115h-40l-56 115l-65 -115h-47zM1373 1420l93 167h40l55 -116l65 116h40l55 -116l65 116h40l55 -116l65 116h40l55 -116l65 116h40l55 -116l65 116h40l81 -167h-46l-56 115l-64 -115h-40l-56 115l-64 -115h-40l-56 115l-64 -115h-40l-56 115l-64 -115h-40
l-56 115l-64 -115h-40l-56 115l-65 -115h-47zM1373 1851l93 167h40l55 -116l65 116h40l55 -116l65 116h40l55 -116l65 116h40l55 -116l65 116h40l55 -116l65 116h40l81 -167h-46l-56 115l-64 -115h-40l-56 115l-64 -115h-40l-56 115l-64 -115h-40l-56 115l-64 -115h-40
l-56 115l-64 -115h-40l-56 115l-65 -115h-47zM642 1853q4 -18 22 -18q17 0 26 15t9 31q0 29 -18 46.5t-48 17.5q-29 0 -50 -22t-21 -67q0 -68 100.5 -143.5t348.5 -177.5l270 476l80 -37l-454 -1020l-130 108l45 83q11 20 11 34q0 12 -9 12t-23 -20q-13 -20 -30 -20
q-26 0 -51 35q-6 8 -13 16t-23 9l-123 4l-39 314h404q-214 91 -309 170.5t-95 156.5q0 64 32.5 96.5t78.5 32.5q47 0 76.5 -29t29.5 -75q0 -33 -21 -58t-51 -25q-26 0 -44.5 16.5t-18.5 40.5q0 21 11 34t30 13q13 0 24 -7t11 -21q0 -28 -22 -28q-7 0 -16 7zM1309 1954l-12 5
l-266 -470h-464l30 -234l95 -5q26 -1 38 -13.5t22 -26.5q14 -19 18 -19q5 0 9 6q23 34 48 34q46 0 46 -48q0 -26 -16 -57l-30 -54l66 -54zM101 1014l158 253q-65 95 -65 156q0 33 19 77t43 68q-21 25 -41.5 58t-20.5 78q0 80 62 137q-38 50 -58.5 97t-20.5 78
q0 51 32.5 88.5t74.5 37.5t74.5 -37.5t32.5 -88.5q0 -30 -20 -76.5t-59 -98.5q62 -57 62 -137q0 -45 -20.5 -78.5t-41.5 -58.5q25 -25 43.5 -64.5t18.5 -79.5q0 -37 -20.5 -82t-45.5 -74q14 -32 159 -253l-36 -18l-147 226l-147 -226zM217 2016q0 -24 17.5 -63t49.5 -82
q23 31 45 73.5t22 71.5q0 36 -20.5 61t-46.5 25t-46.5 -25t-20.5 -61zM234 1423q0 -48 50 -121q50 73 50 121q0 27 -15 58.5t-35 54.5q-21 -23 -35.5 -54t-14.5 -59zM234 1704q0 -30 15.5 -56t34.5 -51q19 25 34.5 51t15.5 56q0 55 -50 105q-50 -50 -50 -105z" />
  </g>

</svg>
