<?xml version="1.0" standalone="no"?>
<!DOCTYPE svg PUBLIC "-//W3C//DTD SVG 1.1//EN" "http://www.w3.org/Graphics/SVG/1.1/DTD/svg11.dtd" >
<svg xmlns="http://www.w3.org/2000/svg" xmlns:xlink="http://www.w3.org/1999/xlink" version="1.1" viewBox="-10 0 2129 2048">
  <g transform="matrix(1 0 0 -1 0 1638)">
   <path fill="currentColor"
d="M1979 342v904q0 37 -5.5 63t-19.5 42.5t-38 23.5t-60 7h-104v-128h-103v-200q61 -9 95 -68.5t50.5 -155.5t20.5 -221.5t4 -266.5h-1519q0 141 3.5 266.5t20 221.5t51 155.5t95.5 68.5v200h-103v128h-104q-36 0 -60 -7t-38 -23.5t-19.5 -42.5t-5.5 -63v-904h-40v904
q0 43 7.5 76t26.5 55t50 33.5t79 11.5h104v128h103v100h40v-100h339v100h40v-100h340v100h40v-100h340v100h40v-100h103v-128h104q48 0 79 -11.5t50 -33.5t26.5 -55t7.5 -76v-904h-40zM407 1294h1305v216h-1305v-216zM640 382q0 83 -1.5 162t-6 149.5t-14 130t-26.5 102
t-42 66.5t-60 24t-60 -24t-42 -66.5t-26.5 -102t-14.5 -130t-6 -149.5t-1 -162h300zM1019 382q0 83 -1.5 162t-6 149.5t-14 130t-26.5 102t-42 66.5t-60 24q-36 0 -60.5 -24t-41.5 -66.5t-26.5 -102t-14.5 -130t-6 -149.5t-1 -162h300zM1399 382q0 83 -1.5 162t-6 149.5
t-14 130t-26.5 102t-42 66.5t-60 24q-36 0 -60.5 -24t-41.5 -66.5t-26.5 -102t-14.5 -130t-6 -149.5t-1 -162h300zM1779 382q0 83 -1.5 162t-6 149.5t-14 130t-26.5 102t-42 66.5t-60 24q-36 0 -60.5 -24t-41.5 -66.5t-26.5 -102t-14.5 -130t-6 -149.5t-1 -162h300z
M889 1054q61 -9 95 -68.5t50.5 -155.5t20.5 -221.5t4 -266.5q0 141 3.5 266.5t20 221.5t51 155.5t95.5 68.5v200h-340v-200zM1269 1054q55 -8 88 -57.5t51 -129.5t24 -186.5t7 -227.5q1 121 7 227.5t24 186.5t51 129.5t88 57.5v200h-340v-200zM510 1054q53 -8 85.5 -54.5
t50.5 -122.5t24.5 -176.5t8.5 -216.5q1 116 8 216.5t25 176.5t51 122.5t86 54.5v200h-339v-200z" />
  </g>

</svg>
