<?xml version="1.0" standalone="no"?>
<!DOCTYPE svg PUBLIC "-//W3C//DTD SVG 1.1//EN" "http://www.w3.org/Graphics/SVG/1.1/DTD/svg11.dtd" >
<svg xmlns="http://www.w3.org/2000/svg" xmlns:xlink="http://www.w3.org/1999/xlink" version="1.1" viewBox="-10 0 1386 2048">
  <g transform="matrix(1 0 0 -1 0 1638)">
   <path fill="currentColor"
d="M1248 1406q28 -364 28 -551q0 -298 -156 -464t-432 -166t-432 165.5t-156 464.5q0 187 28 551l40 -4l-12 -165l82 107l114 -146l111 146l114 -146l111 147l111 -147l114 146l111 -146l114 146l82 -107l-12 165zM1236 855q0 77 -12 311l-86 114l-114 -146l-111 146
l-114 -146l-111 146l-111 -146l-114 146l-111 -146l-114 146l-86 -115q-12 -234 -12 -310q0 -281 145 -435.5t403 -154.5t403 155t145 435z" />
  </g>

</svg>
