<?xml version="1.0" standalone="no"?>
<!DOCTYPE svg PUBLIC "-//W3C//DTD SVG 1.1//EN" "http://www.w3.org/Graphics/SVG/1.1/DTD/svg11.dtd" >
<svg xmlns="http://www.w3.org/2000/svg" xmlns:xlink="http://www.w3.org/1999/xlink" version="1.1" viewBox="-10 0 2462 2048">
  <g transform="matrix(1 0 0 -1 0 1638)">
   <path fill="currentColor"
d="M1097 -4l-136 172l-125 -172l-138 173l-129 -172l-143 174l-241 -283h75l164 191l143 -178l135 181l133 -179l129 179l133 -179l129 179l129 -179l133 179l129 -179l133 179l135 -181l143 178l164 -191h74l-240 283l-143 -174l-129 172l-138 -173l-125 173l-136 -173
l-129 173zM1226 235l129 -173l138 173l125 -173l136 173l131 -174l141 172l326 -385h-178l-144 168l-147 -181l-133 179l-133 -180l-129 180l-133 -180l-129 180l-129 -180l-133 180l-129 -180l-133 180l-133 -179l-147 181l-144 -168h-178l326 385l141 -172l131 174
l136 -172l125 172l138 -173z" />
  </g>

</svg>
