<?xml version="1.0" standalone="no"?>
<!DOCTYPE svg PUBLIC "-//W3C//DTD SVG 1.1//EN" "http://www.w3.org/Graphics/SVG/1.1/DTD/svg11.dtd" >
<svg xmlns="http://www.w3.org/2000/svg" xmlns:xlink="http://www.w3.org/1999/xlink" version="1.1" viewBox="-10 0 1592 2048">
  <g transform="matrix(1 0 0 -1 0 1638)">
   <path fill="currentColor"
d="M589 1676q-104 25 -104 126q0 53 39.5 90.5t97.5 37.5q106 0 151 -97q46 97 151 97q58 0 97.5 -37.5t39.5 -90.5q0 -101 -104 -126l111 -373l30 -10q81 -32 132 -32q28 0 129 39q15 6 29 6q58 0 58 -57q0 -20 -37.5 -53.5t-87.5 -54.5t-98 -21q-38 0 -73.5 10.5
t-70.5 21.5q-70 24 -112 24q-23 0 -43.5 -17.5t-31.5 -45.5q117 -47 168 -180q38 159 189 159q70 0 117.5 -40t47.5 -103q0 -150 -178 -185q62 -52 179 -165q66 -64 66 -104q0 -52 -50 -52q-25 0 -54 20t-83 86q-68 82 -100 132l37 -73q74 -148 74 -188q0 -66 -63 -66
q-67 0 -108 134l-36 101l23 -285h-278v-280h551v-40h-167v-175h167v-40h-167v-175h167v-40h-1274v40h167v175h-167v40h167v175h-167v40h583v280h-278l31 418q20 322 198 391q-10 28 -31 45.5t-44 17.5q-42 0 -112 -24q-35 -11 -70.5 -21.5t-73.5 -10.5q-50 0 -99.5 21.5
t-86.5 55t-37 52.5q0 57 58 57q14 0 30 -6q100 -39 128 -39q51 0 132 32l30 10zM498 748l-30 -404h610l-31 404h-549zM773 1094q-101 0 -163.5 -54.5t-92.5 -174.5h511q-33 122 -95 175.5t-160 53.5zM636 1376q0 51 33.5 90t83.5 45v229q0 66 -35.5 108t-95.5 42
q-45 0 -71 -27t-26 -61q0 -73 115 -95l-117 -390q50 12 92 12l30 -3q-9 24 -9 50zM931 1329q41 0 91 -12l-116 390q115 22 115 95q0 34 -26 61t-71 27q-59 0 -95 -43.5t-36 -106.5v-229q48 -6 82.5 -44.5t34.5 -90.5q0 -26 -9 -50zM627 -191h260v175h-260v-175zM927 -406
h260v175h-260v-175zM927 -191h260v175h-260v-175zM327 -406h260v175h-260v-175zM327 -191h260v175h-260v-175zM627 -406h260v175h-260v-175zM967 1216q53 0 124 -26q87 -30 132 -30q41 0 82.5 15.5t71 38t29.5 35.5q0 17 -18 17l-20 -6q-108 -39 -138 -39q-54 0 -146 34
t-153 34q-57 0 -96.5 -42t-41.5 -108v-6q19 0 37 -4l25 -1q27 49 54 68.5t58 19.5zM579 1216q31 0 57.5 -19.5t54.5 -68.5l26 1q16 4 36 4q0 67 -39 111.5t-99 44.5q-61 0 -153 -34t-146 -34q-29 0 -107 28l-51 17q-18 0 -18 -17q0 -13 29.5 -35.5t71 -38t82.5 -15.5
q45 0 132 30q71 26 124 26zM676 1376q0 -41 28 -69t69 -28t69 28t28 69t-28 69t-69 28t-69 -28t-28 -69zM1083 788q157 0 224 41t67 120q0 43 -38 73t-87 30q-74 0 -118.5 -48t-49.5 -139h30q0 76 35.5 116.5t98.5 40.5q41 0 68 -22t27 -56q0 -54 -63.5 -86.5t-155.5 -32.5
h-43zM1037 825h-529l-5 -37h540zM1128 750l-38 -3q10 -36 22.5 -73.5t24 -70.5t21 -59.5t14.5 -41.5q16 -45 36.5 -76.5t33.5 -31.5q23 0 23 27q0 29 -54 147zM743 24h60v280h-60v-280zM1194 756l-20 -2q32 -48 123 -149l26 -30q25 -34 58 -63t50 -29q10 0 10 15
q0 30 -112 132zM1245 985q-42 0 -68.5 -29.5t-26.5 -76.5l1 -14h9h8q52 0 92 22.5t40 56.5q0 13 -12.5 27t-42.5 14zM789 1240l-16 -1l-16 1l16 -28z" />
  </g>

</svg>
