<?xml version="1.0" standalone="no"?>
<!DOCTYPE svg PUBLIC "-//W3C//DTD SVG 1.1//EN" "http://www.w3.org/Graphics/SVG/1.1/DTD/svg11.dtd" >
<svg xmlns="http://www.w3.org/2000/svg" xmlns:xlink="http://www.w3.org/1999/xlink" version="1.1" viewBox="-10 0 1938 2048">
  <g transform="scale(1, -1)" transform-origin="center">
   <path fill="currentColor"
d="M1828 1146q0 -328 -82 -615.5t-232 -480.5t-360 -289t-471 -96q-142 0 -304.5 26t-278.5 64q186 105 268.5 165.5t152 131t121 155t81.5 188.5t30 232q0 160 -38 352.5t-94 309.5h1207v-143zM1788 1249h-1105q44 -101 77 -290t33 -332q0 -264 -142.5 -477.5
t-451.5 -383.5q229 -61 484 -61q251 0 454 93t347.5 281t224 465.5t79.5 601.5v103z" />
  </g>

</svg>
