<?xml version="1.0" standalone="no"?>
<!DOCTYPE svg PUBLIC "-//W3C//DTD SVG 1.1//EN" "http://www.w3.org/Graphics/SVG/1.1/DTD/svg11.dtd" >
<svg xmlns="http://www.w3.org/2000/svg" xmlns:xlink="http://www.w3.org/1999/xlink" version="1.1" viewBox="-10 0 1760 2048">
  <g transform="matrix(1 0 0 -1 0 1638)">
   <path fill="currentColor"
d="M881 -146q-267 0 -412.5 156.5t-145.5 444.5q0 65 15.5 167t32.5 168q-107 74 -189 186t-82 179q0 45 23 76t65 31q47 0 120 -59t143 -146q40 148 40 264v21l-11 89q-16 122 -16 168q0 173 119 173q92 0 212.5 -89t250.5 -257t238 -376q95 118 158 168t104 50
q50 0 77 -28t27 -93q0 -46 -31 -108.5t-87 -124.5t-137 -114q74 -205 74 -358q0 -171 -74 -304.5t-210 -208.5t-304 -75zM881 -106q156 0 281.5 70.5t195.5 197.5t70 281q0 156 -79.5 369t-222.5 435t-290.5 353.5t-252.5 131.5q-79 0 -79 -133q0 -40 16 -162
q11 -72 11 -107q0 -82 -19 -181t-77 -276q-26 -79 -49 -213t-23 -205q0 -265 137 -413t381 -148zM1304 1010q41 -81 77 -171q73 48 123 103t78 110t28 95q0 81 -64 81q-77 0 -242 -218zM437 1009q-70 93 -140 153t-109 60q-24 0 -36 -20.5t-12 -46.5q0 -56 71 -153.5
t170 -169.5z" />
  </g>

</svg>
