<?xml version="1.0" standalone="no"?>
<!DOCTYPE svg PUBLIC "-//W3C//DTD SVG 1.1//EN" "http://www.w3.org/Graphics/SVG/1.1/DTD/svg11.dtd" >
<svg xmlns="http://www.w3.org/2000/svg" xmlns:xlink="http://www.w3.org/1999/xlink" version="1.1" viewBox="-10 0 2524 2048">
  <g transform="matrix(1 0 0 -1 0 1638)">
   <path fill="currentColor"
d="M1048 1065q0 -8 -6 -13t-14 -5t-14 5t-6 13v197q0 35 12.5 48.5t42 19.5t93.5 6q41 53 97.5 87.5t106.5 34.5q51 0 111.5 -38.5t100.5 -94.5v-290q0 -37 -14.5 -51.5t-47.5 -14.5h-130v-163h1025v-133h-832q53 -86 53 -151q0 -86 -52.5 -131.5t-155.5 -45.5q-39 0 -81 14
v-214h1077v-40h-225v-170h225v-40h-225v-170h225v-40h-2295v40h230v170h-230v40h230v170h-230v40h1098v274q-61 39 -132.5 102.5t-119.5 115.5l-34 36h-351q-42 -54 -113 -90t-143 -36q-73 0 -122 31.5t-75.5 83.5t-26.5 108q0 119 42.5 185.5t117.5 66.5q62 0 151.5 -65
t156.5 -151h772v163h-130q-33 0 -47.5 14.5t-14.5 51.5v261q-62 0 -81 -6.5t-19 -27.5v-197zM1510 1009q22 0 22 26v277q-36 46 -85 76t-87 30q-40 0 -88.5 -30t-83.5 -76v-277q0 -26 22 -26h300zM214 766q7 -16 35 -53h2116v53h-2151zM839 -65h410v170h-410v-170zM1289 -65
h410v170h-410v-170zM1289 -275h410v170h-410v-170zM1739 -275h410v170h-410v-170zM1739 -65h410v170h-410v-170zM839 -275h410v170h-410v-170zM389 -275h410v170h-410v-170zM389 -65h410v170h-410v-170zM1563 490q0 32 -58 90.5t-125 92.5h-43v-171q36 -24 68 -36.5
t71 -12.5q38 0 62.5 10.5t24.5 26.5zM1556 433q-36 -19 -93 -19q-56 0 -126.5 37.5t-151 107t-111.5 114.5h-75q21 -21 49.5 -50t62 -61t71 -63.5t77 -57t80 -41t79.5 -15.5q96 0 138 48zM180 885q0 -31 22 -79h198q-66 70 -104 95t-66 25q-50 0 -50 -41zM343 617
q-67 0 -122 66t-75 159q-4 -30 -4 -58q0 -89 52.5 -143t134.5 -54q50 0 102.5 22.5t93.5 63.5h-53q-20 -25 -53.5 -40.5t-75.5 -15.5zM260 982q-41 0 -69 -30q21 9 51 9q35 0 101 -49t110 -106h63q-72 83 -141 129.5t-115 46.5zM1297 375l-40 20v-250h40v230zM1257 560
l40 -30v143h-40v-113zM1585 539q-6 28 -23 67t-36 67h-72q86 -65 131 -134zM1132 673q26 -28 85 -80v80h-85zM343 657q40 0 67 16h-124q24 -16 57 -16zM1225 1461l-3 146q-44 25 -91 42q-35 12 -35 44q0 9 2 21.5t49 201.5q-24 3 -46.5 23.5t-22.5 45.5q0 27 17 44t50 17
q54 0 81.5 -38.5t30.5 -132.5l8 -414h-40zM1221 1655l-4 220q0 131 -72 131q-27 0 -27 -21q0 -17 18.5 -26.5t43.5 -9.5l14 1l-45 -192q-11 -44 -11 -61q0 -8 31 -20zM1455 1461l8 414q3 92 30.5 131.5t81.5 39.5q32 0 49.5 -17t17.5 -44q0 -25 -22.5 -45.5t-46.5 -23.5
q26 -103 40.5 -160t10.5 -63q0 -33 -35 -44q-43 -15 -91 -42l-3 -146h-40zM1582 1697q0 7 -1.5 17.5t-54.5 235.5l14 -1q25 0 43.5 9.5t18.5 26.5q0 21 -27 21q-72 0 -72 -131l-4 -220l52 22q31 12 31 20z" />
  </g>

</svg>
