<?xml version="1.0" standalone="no"?>
<!DOCTYPE svg PUBLIC "-//W3C//DTD SVG 1.1//EN" "http://www.w3.org/Graphics/SVG/1.1/DTD/svg11.dtd" >
<svg xmlns="http://www.w3.org/2000/svg" xmlns:xlink="http://www.w3.org/1999/xlink" version="1.1" viewBox="-10 0 3232 2048">
  <g transform="matrix(1 0 0 -1 0 1638)">
   <path fill="currentColor"
d="M265 1404q0 29 25 101h-99v127h206l91 41h-1q135 64 211 90t153.5 41.5t156.5 15.5q121 0 239 -58t208 -154h312q89 95 207.5 153.5t239.5 58.5q81 0 158.5 -15.5t153.5 -42t209 -89.5h-1l91 -41h206v-127h-100q26 -71 26 -101q0 -24 -44 -90v-1565h60l149 -282h-3022
l149 282h60v1565q-5 6 -24.5 39.5t-19.5 50.5zM2739 1404q0 17 10 52.5t19 58.5q-155 78 -237 109.5t-162 50t-158 18.5q-88 0 -186 -50.5t-177 -138.5q27 -74 27 -104q0 -24 -44 -90v-1561h144v293h-97v330q17 11 46.5 19.5t53.5 8.5q50 0 96 -25.5t92 -88.5l67 -103
q32 -53 70 -81t109 -61q81 -39 118 -75t52 -79t17 -138h184v1565q-44 66 -44 90zM1347 1400q0 32 26 103q-72 84 -171 137t-191 53q-78 0 -158 -18.5t-162.5 -50.5t-236.5 -109q29 -87 29 -111t-44 -90v-1565h184q0 89 16 136t53 81q37 36 119 75q73 35 109.5 62t69.5 80
q28 46 66 103t86.5 85.5t101.5 28.5q25 0 54 -8.5t46 -19.5v-330h-97v-293h144v1561q-5 6 -24.5 39.5t-19.5 50.5zM282 -291l-108 -202h2874l-108 202h-2658zM1545 1481q20 -55 20 -81q0 -24 -44 -90v-1561h180v1561q-44 66 -44 90t18 81h-130zM663 -251h544v333h97v267
q-22 11 -60 11q-92 0 -156 -96l-66 -105q-48 -77 -122 -115l-62 -32q-84 -43 -117 -75.5t-45.5 -73t-12.5 -114.5zM2015 -251h544q0 109 -33 158.5t-141 104.5l-63 32q-74 38 -121 115l-67 105q-64 96 -156 96q-38 0 -60 -11v-267h97v-333zM1809 1521q94 101 199 156.5
t203 55.5q101 0 230 -37t311 -128l47 -23h192v47h-172l-101 45q-152 70 -219 92.5t-138 36.5t-147 14q-122 0 -233.5 -57.5t-193.5 -154.5h-352q-80 96 -192.5 154t-234.5 58q-77 0 -151 -15t-146 -39.5t-207 -88.5l-101 -45h-172v-47h192l47 23q180 90 309 127.5t232 37.5
q97 0 202 -55t200 -157h396zM2917 1404q0 17 -28 101h-83q-27 -81 -27 -101q0 -14 44 -73v-1582h50v1582q44 59 44 73zM443 1404q0 17 -28 101h-83q-27 -81 -27 -101q0 -14 44 -73v-1582h50v1582q44 59 44 73zM1835 1400q0 18 -21 81h-97q-20 -60 -20 -81q0 -14 44 -73
v-1578h50v1578q44 59 44 73zM1525 1400q0 18 -21 81h-97q-20 -60 -20 -81q0 -14 44 -73v-1578h50v1578q44 59 44 73z" />
  </g>

</svg>
