<?xml version="1.0" standalone="no"?>
<!DOCTYPE svg PUBLIC "-//W3C//DTD SVG 1.1//EN" "http://www.w3.org/Graphics/SVG/1.1/DTD/svg11.dtd" >
<svg xmlns="http://www.w3.org/2000/svg" xmlns:xlink="http://www.w3.org/1999/xlink" version="1.1" viewBox="-10 0 1257 2048">
  <g transform="scale(1, -1)" transform-origin="center">
   <path fill="currentColor"
d="M100 434q0 117 58.5 219t160.5 161t220 59q113 0 213 -56l236 241l159 -169l-230 -233q61 -103 61 -222q0 -117 -58.5 -219t-160.5 -161t-220 -59q-117 0 -219 58.5t-161 160.5t-59 220zM140 434q0 -107 53.5 -199.5t146 -146t199.5 -53.5q106 0 199 53.5t146.5 146.5
t53.5 199t-53.5 199t-146.5 146.5t-199 53.5q-107 0 -199.5 -53.5t-146 -146t-53.5 -199.5z" />
  </g>

</svg>
