<?xml version="1.0" standalone="no"?>
<!DOCTYPE svg PUBLIC "-//W3C//DTD SVG 1.1//EN" "http://www.w3.org/Graphics/SVG/1.1/DTD/svg11.dtd" >
<svg xmlns="http://www.w3.org/2000/svg" xmlns:xlink="http://www.w3.org/1999/xlink" version="1.1" viewBox="-10 0 1216 2048">
  <g transform="matrix(1 0 0 -1 0 1638)">
   <path fill="currentColor"
d="M481 735q13 20 13 49q0 26 -19 59.5t-90 112.5q-62 68 -81.5 101.5t-19.5 62.5q0 45 11 91q13 60 13 95q0 30 -15.5 65t-70.5 107q-85 108 -85 150q0 29 28 29q37 0 83 -48q87 -91 134.5 -145t69.5 -97t22 -75q0 -23 -12 -61q-11 -31 -11 -56q0 -33 36 -77t155 -143
q95 -80 95 -161q0 -26 -6 -59h375l-201 -735h-604l-201 735h381zM151 695l180 -655h544l180 655h-904zM690 735q7 23 7 59q0 63 -90 138q-110 92 -153 145t-43 98q0 24 13 68q10 33 10 49q0 51 -85 151.5t-145 161.5q-15 15 -24 15q-5 0 -5 -5q0 -15 38 -63
q81 -104 98.5 -133t27 -57.5t9.5 -55.5q0 -43 -13 -103q-11 -48 -11 -83q0 -28 24.5 -58.5t66.5 -77.5q71 -77 95 -121t24 -79q0 -26 -9 -49h165z" />
  </g>

</svg>
