<?xml version="1.0" standalone="no"?>
<!DOCTYPE svg PUBLIC "-//W3C//DTD SVG 1.1//EN" "http://www.w3.org/Graphics/SVG/1.1/DTD/svg11.dtd" >
<svg xmlns="http://www.w3.org/2000/svg" xmlns:xlink="http://www.w3.org/1999/xlink" version="1.1" viewBox="-10 0 2390 2048">
  <g transform="matrix(1 0 0 -1 0 1638)">
   <path fill="currentColor"
d="M733 80l10 104q-21 43 -68 91.5t-95 77.5q47 233 169.5 509.5t306.5 570.5q-42 26 -57 55.5t-15 65.5q0 55 41.5 93t104.5 38q54 0 96 -38q-62 110 -218 196q43 8 80 8q60 0 115 -20t115 -71q20 43 62 102t66 72q28 -19 51 -80.5t31 -121.5q77 61 176 61q90 0 142 -56
l-128 -56q-152 -68 -188 -152q60 77 144 77q54 0 92 -41t38 -91t-29 -91.5t-82 -63.5q79 -181 129.5 -404t50.5 -394q0 -201 -20 -321q-55 -2 -108.5 -27t-87.5 -64l-6 -27q92 38 113.5 43t42.5 5q38 0 140 -35q84 -29 112 -29q33 0 57 12t34 23q48 54 59 59.5t23 5.5
q23 0 35.5 -17t12.5 -45q0 -37 -30 -71t-78 -55.5t-91 -21.5q-25 0 -127 22q-109 26 -148 26q-25 0 -50.5 -9t-51.5 -18q-56 -22 -80 -26q-42 -203 -42 -334l4 -77l-292 157q22 50 52.5 139.5t36.5 136.5q-28 -1 -44.5 -12t-27 -27t-19.5 -58l-2 -27h-200l-2 27
q-9 42 -19.5 59t-29 27.5t-46.5 10.5q-29 0 -107 -13q-70 -12 -105 -12q-34 0 -105 29q-70 27 -102 27q-40 0 -149 -26q-102 -22 -126 -22q-68 0 -133.5 45.5t-65.5 102.5q0 28 12.5 45t35.5 17q20 0 35.5 -14.5t29.5 -31.5l17 -19q10 -11 34 -23t57 -12q25 0 112 29
q102 35 140 35q23 0 47.5 -6.5t112.5 -43.5zM950 252q0 100 70 170.5t171 70.5q100 0 170.5 -70t70.5 -171q0 -88 -54 -152h7q34 0 109 -16v1q72 -16 105 -16h9q22 89 36.5 203.5t14.5 214.5q0 255 -107 696l-46 194l-265 20l-53 -109l-63 -119q-131 -245 -195 -398.5
t-109 -361.5t-48 -340h8q33 0 105 16q60 15 109 15h9q-54 64 -54 152zM1251 1545q-20 45 -51.5 72.5t-69.5 27.5q-45 0 -75.5 -26t-30.5 -65q0 -27 19.5 -52t45.5 -38l25 -15q-396 -635 -488 -1078q75 -51 126 -125q25 162 64 308.5t97 279t176 353.5q105 199 131 261t31 97
zM1699 487q0 -148 -29 -311q66 54 147 62q17 143 17 263q0 137 -25 276.5t-70.5 291.5t-98.5 280q57 11 90.5 45.5t33.5 79.5q0 37 -27 64.5t-63 27.5q-86 0 -143 -111l34 -151q79 -342 106.5 -519.5t27.5 -297.5zM990 252q0 -83 59.5 -142t141.5 -59q81 0 141 60.5
t60 140.5q0 83 -59.5 142t-141.5 59q-83 0 -142 -59.5t-59 -141.5zM1171 -68q-13 51 -64 89.5t-112 38.5q-36 0 -101 -15q-72 -16 -113 -16q-26 0 -100 30q-76 31 -108 31q-29 0 -128 -33q-96 -31 -124 -31q-37 0 -71 15t-50 34q-23 26 -33.5 38.5t-18.5 12.5t-8 -22
q0 -40 50 -74t109 -34q16 0 118 22q116 26 157 26q29 0 58.5 -10t58.5 -21q58 -25 90 -25q29 0 99 12q78 13 113 13q41 0 67 -14t41.5 -37t25.5 -73h126q11 53 26.5 75t41 35.5t66.5 13.5q35 0 113 -13q70 -12 99 -12q32 0 89 25q29 11 58.5 21t59.5 10q33 0 157 -26
q102 -22 118 -22q58 0 108.5 33.5t50.5 74.5q0 22 -8 22q-6 0 -15 -10l-37 -41q-17 -20 -51 -34.5t-70 -14.5q-31 0 -124 31q-102 33 -128 33q-32 0 -108 -31q-28 -11 -53 -20.5t-47 -9.5q-41 0 -113 16q-65 15 -101 15q-55 0 -105.5 -35.5t-70.5 -92.5h-38zM1293 1565
q0 -18 -6 -42l194 -15q15 66 80.5 121.5t215.5 112.5q-24 11 -73 11q-44 0 -95 -24.5t-122 -88.5l1 19q0 50 -13.5 121.5t-31.5 98.5q-24 -24 -60.5 -89t-48.5 -109q-39 48 -99 87t-113 45q72 -49 121.5 -121.5t49.5 -126.5zM1423 -29q-6 -48 -33 -132.5t-44 -122.5
l196 -107q0 140 40 340q-25 1 -159 22zM1276 1484l-19 -48l240 -18v2l-10 48zM1173 12l17 -24l16 23h-22z" />
  </g>

</svg>
