<?xml version="1.0" standalone="no"?>
<!DOCTYPE svg PUBLIC "-//W3C//DTD SVG 1.1//EN" "http://www.w3.org/Graphics/SVG/1.1/DTD/svg11.dtd" >
<svg xmlns="http://www.w3.org/2000/svg" xmlns:xlink="http://www.w3.org/1999/xlink" version="1.1" viewBox="-10 0 1188 2048">
  <g transform="matrix(1 0 0 -1 0 1638)">
   <path fill="currentColor"
d="M589 2050q181 0 279 -114.5t98 -334.5q0 -125 -45 -286l-73 -250l53 -26q-23 -61 -38.5 -148t-15.5 -168v-23q28 -52 90 -122q79 -89 110 -135.5t31 -71.5q0 -64 -80 -64q-37 0 -88 31l-63 42v-145q0 -78 -15.5 -133.5t-43 -91t-72.5 -55t-127 -19.5q-139 0 -198.5 75.5
t-59.5 223.5v145l-63 -42q-51 -31 -88 -31q-80 0 -80 64q0 24 29.5 69t111.5 138q41 47 58 71.5t32 50.5v23q0 74 -14.5 159.5t-39.5 156.5l52 26l-72 250q-45 161 -45 286q0 221 98.5 335t278.5 114zM609 1691q6 -237 54.5 -389t148.5 -216l71 241q43 147 43 274
q0 200 -87 304.5t-250 104.5t-250 -105t-87 -304q0 -127 43 -274l70 -242q100 64 149 215t55 391h40zM589 978q-38 0 -71.5 -32t-65 -95.5t-35.5 -74.5q-20 -44 -46 -87v-454q0 -96 26 -151.5t69.5 -81.5t122.5 -26q80 0 123 25.5t69 81.5t26 152v454q-26 43 -46 87
q-48 101 -70.5 133.5t-47 50.5t-54.5 18zM327 1020q37 -128 42 -248l11 22q56 115 82 150t57 54.5t70 19.5q41 0 74 -21.5t62 -63.5t83 -161q3 66 16 138t27 110q-107 43 -171.5 149.5t-90.5 261.5q-14 -82 -37 -146t-52 -112.5t-69.5 -86.5t-103.5 -66zM180 347q30 0 66 24
l85 57v199q-16 -22 -60 -75q-131 -149 -131 -176q0 -29 40 -29zM847 627v-199l85 -57q36 -24 66 -24q40 0 40 29q0 27 -131 176q-34 39 -60 75z" />
  </g>

</svg>
