<?xml version="1.0" standalone="no"?>
<!DOCTYPE svg PUBLIC "-//W3C//DTD SVG 1.1//EN" "http://www.w3.org/Graphics/SVG/1.1/DTD/svg11.dtd" >
<svg xmlns="http://www.w3.org/2000/svg" xmlns:xlink="http://www.w3.org/1999/xlink" version="1.1" viewBox="-10 0 2524 2048">
  <g transform="scale(1, -1)" transform-origin="center">
   <path fill="currentColor"
d="M700 806l-3 910q0 27 4 47l-8 15h-12q-59 0 -111 70t-52 141l3 34l-77 46q13 36 61 64.5t101 28.5q20 0 42 -4l-26 -79q57 -14 102.5 -66t49.5 -119q85 67 210 67q126 0 209 -66q4 64 47 116.5t105 67.5l-26 79q22 4 42 4q53 0 101 -28.5t61 -64.5l-77 -46l3 -34
q0 -70 -51.5 -140.5t-111.5 -70.5h-12l-7 -14q2 -11 3 -22.5t4 -935.5h468q-74 36 -74 77q0 37 60.5 73.5t138.5 48.5v75q0 89 -42.5 140.5t-116.5 51.5q-64 0 -122 -75q-27 -35 -51 -35q-35 0 -35 45q0 28 34.5 68.5t81 64.5t92.5 24q47 0 87.5 -17.5t81.5 -66.5
q-18 182 -169 182q-44 0 -73.5 -25.5t-55.5 -59.5q-18 -25 -44 -25q-35 0 -35 35q0 34 33 77.5t79 68t96 24.5q125 0 177 -80v485q0 57 -6 77t-21 32.5t-43 12.5q-26 0 -41.5 -11t-25 -29t-14.5 -65q0 -52 -46 -52q-18 0 -29 15t-11 33q0 48 20.5 97t58.5 74t88 25
q86 0 121.5 -50t35.5 -142v-502q50 80 178 80q49 0 96 -25.5t78.5 -69t31.5 -79.5q0 -10 -8.5 -20.5t-25.5 -10.5q-27 0 -52 35q-30 38 -47.5 50t-36 18.5t-38.5 6.5q-71 0 -114.5 -43t-53.5 -139q65 84 170 84q45 0 90.5 -23.5t80.5 -64.5t35 -69q0 -45 -34 -45
q-14 0 -25.5 6.5t-26.5 28.5q-55 75 -122 75q-74 0 -116.5 -52t-42.5 -140v-74q84 -12 141.5 -48t57.5 -75q0 -42 -75 -77h292v-133h-832q53 -86 53 -151q0 -86 -52.5 -131.5t-155.5 -45.5q-39 0 -81 14v-214h1077v-40h-225v-170h225v-40h-225v-170h225v-40h-2295v40h230
v170h-230v40h230v170h-230v40h1098v274q-61 39 -132.5 102.5t-119.5 115.5l-34 36h-351q-42 -54 -113 -90t-143 -36q-73 0 -122 31.5t-75.5 83.5t-26.5 108q0 119 42.5 185.5t117.5 66.5q62 0 151.5 -65t156.5 -151h132zM983 1317l241 453q-19 72 -84.5 111.5t-155.5 39.5
q-92 0 -158 -40.5t-83 -111.5zM214 766q7 -16 35 -53h2116v53h-2151zM1006 1274l228 -428l-3 851zM737 1695l3 -837l220 416zM1032 943q69 -12 140 -67l-189 354l-188 -354q71 55 140 67l6 -40q-74 -15 -168 -97h420q-87 81 -167 97zM839 -275h410v170h-410v-170zM389 -275
h410v170h-410v-170zM1739 -275h410v170h-410v-170zM839 -65h410v170h-410v-170zM389 -65h410v170h-410v-170zM1289 -65h410v170h-410v-170zM1289 -275h410v170h-410v-170zM1739 -65h410v170h-410v-170zM1928 1010h12l12 -1v71q0 58 23 110.5t65 86t108 33.5q83 0 143 -90
q19 -30 31 -30q3 0 3 7q0 13 -15 34q-6 7 -19 23t-33.5 32.5t-47.5 29t-60 12.5q-61 0 -106.5 -29t-66.5 -80l-35 6v44q0 63 24 115t70 84t112 32q84 0 143 -89q21 -32 31 -32q3 0 3 7q0 12 -15 34q-6 7 -19 23.5t-33.5 33t-47.5 29t-60 12.5q-61 0 -111 -29.5t-73 -79.5
l-30 4v566q0 80 -28.5 118t-92.5 38q-58 0 -94.5 -47.5t-36.5 -112.5q0 -20 4 -20q8 0 10 12q8 64 20.5 89.5t35.5 44t61 18.5q51 0 78.5 -32.5t27.5 -114.5v-559l-31 -4q-22 50 -71 79.5t-111 29.5q-43 0 -81 -21.5t-66.5 -59t-28.5 -54.5q0 -4 3 -4q8 0 31 33
q22 34 62.5 61t79.5 27q64 0 109.5 -31t70 -83.5t24.5 -116.5v-44l-32 -6q-29 59 -72.5 84t-99.5 25q-40 0 -79.5 -22t-68 -57.5t-28.5 -51.5q0 -7 5 -7q8 0 29 32q25 39 62.5 63.5t79.5 24.5q57 0 100.5 -29t69 -85t25.5 -116v-71zM1928 970q-77 0 -148.5 -28t-71.5 -59
q0 -30 71 -53.5t149 -23.5q79 0 149.5 24t70.5 53q0 32 -69 59.5t-151 27.5zM1563 490q0 32 -58 90.5t-125 92.5h-43v-171q36 -24 68 -36.5t71 -12.5q38 0 62.5 10.5t24.5 26.5zM681 1818q23 0 38 18t15 49q0 60 -43 108.5t-93 48.5q-40 0 -40 -53q0 -56 39.5 -113.5
t83.5 -57.5zM1286 1818q44 0 83.5 57t39.5 114q0 53 -40 53q-50 0 -93 -48t-43 -109q0 -31 15 -49t38 -18zM1556 433q-36 -19 -93 -19q-56 0 -126.5 37.5t-151 107t-111.5 114.5h-75q21 -21 49.5 -50t62 -61t71 -63.5t77 -57t80 -41t79.5 -15.5q96 0 138 48zM180 885
q0 -31 22 -79h198q-66 70 -104 95t-66 25q-50 0 -50 -41zM343 617q-67 0 -122 66t-75 159q-4 -30 -4 -58q0 -89 52.5 -143t134.5 -54q50 0 102.5 22.5t93.5 63.5h-53q-20 -25 -53.5 -40.5t-75.5 -15.5zM260 982q-41 0 -69 -30q21 9 51 9q35 0 101 -49t110 -106h63
q-72 83 -141 129.5t-115 46.5zM1297 375l-40 20v-250h40v230zM1257 560l40 -30v143h-40v-113zM1585 539q-6 28 -23 67t-36 67h-72q86 -65 131 -134zM1132 673q26 -28 85 -80v80h-85zM343 657q40 0 67 16h-124q24 -16 57 -16z" />
  </g>

</svg>
