<?xml version="1.0" standalone="no"?>
<!DOCTYPE svg PUBLIC "-//W3C//DTD SVG 1.1//EN" "http://www.w3.org/Graphics/SVG/1.1/DTD/svg11.dtd" >
<svg xmlns="http://www.w3.org/2000/svg" xmlns:xlink="http://www.w3.org/1999/xlink" version="1.1" viewBox="-10 0 3066 2048">
  <g transform="matrix(1 0 0 -1 0 1638)">
   <path fill="currentColor"
d="M140 196q0 -89 86 -136t268 -63q396 -34 1264 -103.5t871 -69.5h25q131 0 196.5 55t65.5 149v402q0 94 -65.5 149t-196.5 55h-25l-2135 -173q-182 -15 -268 -63t-86 -136v-66zM100 262q0 106 87.5 162t284 75.5t1604.5 130.5l551 44h27q150 0 226 -66.5t76 -177.5v-402
q0 -111 -76 -177.5t-226 -66.5h-27l-2137 173q-214 18 -302 74t-88 165v66zM291 237q0 48 67.5 69.5t230.5 32.5t1961 122h20q104 0 149.5 -40t45.5 -125v-134q0 -85 -45.5 -125t-149.5 -40h-20l-1961 122q-163 11 -230.5 32.5t-67.5 69.5v16zM331 221q0 -26 65.5 -40.5
t194.5 -21.5t1960 -122h19q84 0 119.5 31t35.5 94v134q0 65 -37 95t-118 30h-19l-1960 -122q-151 -10 -205.5 -24t-54.5 -38v-16z" />
  </g>

</svg>
