<?xml version="1.0" standalone="no"?>
<!DOCTYPE svg PUBLIC "-//W3C//DTD SVG 1.1//EN" "http://www.w3.org/Graphics/SVG/1.1/DTD/svg11.dtd" >
<svg xmlns="http://www.w3.org/2000/svg" xmlns:xlink="http://www.w3.org/1999/xlink" version="1.1" viewBox="-10 0 2524 2048">
  <g transform="scale(1, -1)" transform-origin="center">
   <path fill="currentColor"
d="M832 806l-408 786q-34 65 -34 127q0 57 34 93t87 36q57 0 91 -27.5t34 -73.5q0 -30 -27 -99l370 -434l-193 -231l92 -177h115q29 41 113 48l125 9q23 147 23 164q0 39 -7.5 81.5t-20 85t-65.5 194.5l-106 142q-82 106 -82 189v113q0 45 -11.5 60t-34.5 15
q-24 0 -36 -10.5t-14 -17.5h-35v34q0 66 46 102q22 18 62 56q19 33 64.5 51t109.5 18q63 0 108 -18.5t79 -56t73 -119.5l92 -49q115 -109 333 -414l14 -16q178 -216 203 -235q24 -20 208 -193l-48 -45l-67 42l-87 51l112 -166l-180 -115h441v-133h-832q53 -86 53 -151
q0 -86 -52.5 -131.5t-155.5 -45.5q-39 0 -81 14v-214h1077v-40h-225v-170h225v-40h-225v-170h225v-40h-2295v40h230v170h-230v40h230v170h-230v40h1098v274q-61 39 -132.5 102.5t-119.5 115.5l-34 36h-351q-42 -54 -113 -90t-143 -36q-73 0 -122 31.5t-75.5 83.5t-26.5 108
q0 119 42.5 185.5t117.5 66.5q62 0 151.5 -65t156.5 -151h264zM990 2011q0 14 10.5 25.5t27.5 11.5h66q42 0 70 -26t28 -65q0 -16 -7.5 -30t-22.5 -29t-67 -46l-14 -2q-10 0 -12 11h-12v-19h-25q0 45 -22.5 79.5t-59.5 34.5q-15 0 -36 -18h5l8 1q40 0 62.5 -26.5t22.5 -80.5
v-113q0 -46 36.5 -110t125.5 -171.5t148 -169.5q75 -81 100.5 -149t25.5 -114l-10 -168q-53 0 -121 -8v-23h277v23q-68 8 -114 8v183q43 -10 105 -43v242q124 0 210 -154l134 -240l171 107l-128 192q-271 156 -773 411q-67 30 -116 87.5t-49 111.5q0 58 70 105.5t172 53.5
l2 -33q-89 -6 -147.5 -44.5t-58.5 -81.5q0 -44 43.5 -91.5t104.5 -79.5q710 -360 956 -526l8 9l-189 164q-33 28 -219 259q-154 207 -216 281t-114 125l-94 51q-41 84 -69 115t-66.5 46.5t-92.5 15.5q-57 0 -96 -12t-46 -32l-46 -44q-17 -15 -35 -33t-23 -53q38 51 81 51
q24 0 51 -22l7 -1q9 0 9 9l-1 9q-14 0 -24.5 10.5t-10.5 25.5zM432 1719q0 -56 28 -109l306 -589l161 193l-366 430q35 66 35 103q0 22 -19.5 41.5t-65.5 19.5q-39 0 -59 -26t-20 -63zM214 766q7 -16 35 -53h2116v53h-2151zM389 -275h410v170h-410v-170zM839 -65h410v170
h-410v-170zM389 -65h410v170h-410v-170zM1289 -65h410v170h-410v-170zM1289 -275h410v170h-410v-170zM1739 -65h410v170h-410v-170zM839 -275h410v170h-410v-170zM1739 -275h410v170h-410v-170zM1699 806h198l-135 247q-28 53 -69 87t-73 34v-267q-71 57 -105 64v-99
q69 -3 110 -13.5t74 -52.5zM1563 490q0 32 -58 90.5t-125 92.5h-43v-171q36 -24 68 -36.5t71 -12.5q38 0 62.5 10.5t24.5 26.5zM1270 863l43 2l29 168q33 -4 67 -27l1 22q0 44 -32 104t-83 114l-70 81q24 -70 45.5 -147t21.5 -153v-19zM1556 433q-36 -19 -93 -19
q-56 0 -126.5 37.5t-151 107t-111.5 114.5h-75q21 -21 49.5 -50t62 -61t71 -63.5t77 -57t80 -41t79.5 -15.5q96 0 138 48zM180 885q0 -31 22 -79h198q-66 70 -104 95t-66 25q-50 0 -50 -41zM343 617q-67 0 -122 66t-75 159q-4 -30 -4 -58q0 -89 52.5 -143t134.5 -54
q50 0 102.5 22.5t93.5 63.5h-53q-20 -25 -53.5 -40.5t-75.5 -15.5zM260 982q-41 0 -69 -30q21 9 51 9q35 0 101 -49t110 -106h63q-72 83 -141 129.5t-115 46.5zM1297 375l-40 20v-250h40v230zM1125 1909q0 -10 -4 -14q42 33 42 62t-22.5 48.5t-55.5 19.5h-24q5 -10 5 -16
q0 -19 -17 -30l6 -16q0 -18 -28 -25q19 -29 23 -47l-1 14q0 17 10.5 29.5t27.5 12.5q20 0 29 -14t9 -24zM1411 964q-24 15 -42 20l-21 -117l58 5zM1257 560l40 -30v143h-40v-113zM1585 539q-6 28 -23 67t-36 67h-72q86 -65 131 -134zM1132 673q26 -28 85 -80v80h-85z
M343 657q40 0 67 16h-124q24 -16 57 -16zM1087 1924q-17 0 -17 -21q0 -11 5.5 -17.5t11.5 -6.5q16 0 16 24q0 21 -16 21zM1011 2011q0 -16 15 -16q17 0 17 16q0 6 -5 10.5t-12 4.5q-15 0 -15 -15zM1138 827q-23 0 -42 -21h42v21zM1294 827q-23 0 -35 -21h35v21zM1170 806
q11 16 33 29l-40 -6v-23h7zM1244 826q-28 0 -46 -20h26q8 11 20 20zM1081 826q-27 0 -45 -20h26zM1616 825v-19h36q-10 10 -34 19h-2z" />
  </g>

</svg>
