<?xml version="1.0" standalone="no"?>
<!DOCTYPE svg PUBLIC "-//W3C//DTD SVG 1.1//EN" "http://www.w3.org/Graphics/SVG/1.1/DTD/svg11.dtd" >
<svg xmlns="http://www.w3.org/2000/svg" xmlns:xlink="http://www.w3.org/1999/xlink" version="1.1" viewBox="-10 0 990 2048">
  <g transform="matrix(1 0 0 -1 0 1638)">
   <path fill="currentColor"
d="M100 -438q86 340 132.5 647.5t46.5 526.5q0 118 -42 185.5t-116 69.5v95h146q-17 72 -56 108t-90 38v95h147q-17 75 -56 112t-91 39v95h147q-17 75 -56 112t-91 39v95h232v99h274v-99h232v-95q-52 -2 -91.5 -39t-56.5 -112h148v-95q-52 -2 -91.5 -39t-56.5 -112h148v-95
q-51 -2 -90.5 -38t-56.5 -108h147v-95q-75 -2 -116.5 -69.5t-41.5 -185.5q0 -225 49 -544t130 -630h-780zM830 -398q-81 318 -125 617.5t-44 516.5q0 126 41.5 202.5t116.5 89.5v18h-658v-18q75 -13 116.5 -89t41.5 -203q0 -211 -43.5 -509t-125.5 -625h680zM670 1327
q16 87 55.5 133t93.5 55v18h-658v-18q54 -9 93.5 -55.5t55.5 -132.5h360zM161 1761q54 -9 93.5 -55.5t55.5 -132.5h360q16 87 55.5 133t93.5 55v18h-658v-18zM671 1086q31 164 148 183v18h-658v-18q114 -19 148 -183h362zM393 1819h194v59h-194v-59z" />
  </g>

</svg>
