<?xml version="1.0" standalone="no"?>
<!DOCTYPE svg PUBLIC "-//W3C//DTD SVG 1.1//EN" "http://www.w3.org/Graphics/SVG/1.1/DTD/svg11.dtd" >
<svg xmlns="http://www.w3.org/2000/svg" xmlns:xlink="http://www.w3.org/1999/xlink" version="1.1" viewBox="-10 0 2268 2048">
  <g transform="matrix(1 0 0 -1 0 1638)">
   <path fill="currentColor"
d="M2158 718l-88 -78q-216 182 -311 353q-51 -17 -118 -28t-124 -11q-90 0 -199 29q-8 -31 -22 -53q90 -53 141.5 -101t98 -114.5t73.5 -124.5l-44 -44q-58 27 -127 75.5t-120.5 106t-94.5 132.5q-20 -12 -46 -18l-1 -67v-68q0 -260 18 -575t46 -580h-222q28 267 46 584
t18 571l-2 135q-26 6 -46 18q-41 -75 -92.5 -132.5t-122 -107t-126.5 -74.5l-44 44q26 58 74.5 126.5t103.5 118.5t134 95q-15 26 -21 53q-109 -29 -199 -29q-117 0 -242 39q-43 -77 -124.5 -170.5t-186.5 -182.5l-88 78q202 237 274 421l50 137q52 158 84 238t69.5 142
t95.5 105.5t128 67.5t150 27l19 115h318l19 -115q123 -5 222 -58.5t149 -137.5q38 -63 69.5 -140t87.5 -244l49 -137q72 -184 274 -421zM1552 1501q-47 85 -128.5 125.5t-224.5 45.5l-70 68l-70 -68q-145 -5 -226.5 -46.5t-127.5 -124.5q75 -40 136 -88t108 -108.5
t74 -109.5q32 18 57 25l-8 35q-22 86 -22 172q0 133 48 266h62q48 -133 48 -266q0 -98 -31 -207q28 -7 57 -25q64 110 138 180t180 126zM1109 1931h-107l-17 -115q-121 0 -221 -47t-150 -129q-41 -68 -76.5 -156.5t-79.5 -229.5q-35 -112 -72.5 -188t-93 -160.5
t-134.5 -181.5l30 -31q82 68 165.5 167t125.5 183q37 75 88 226q64 189 99.5 252t87 104.5t121.5 62.5t172 24l62 63v156zM1149 1775l62 -63q159 -5 251 -58.5t144 -160.5q31 -64 85 -224q58 -171 98 -246t121 -169.5t160 -160.5l30 31q-179 219 -254 401q-25 63 -46 129
q-46 144 -79.5 229t-71 148t-95 103t-129.5 61t-152 21l-17 115h-107v-156zM974 1031q0 -65 44.5 -110t110.5 -45q65 0 110 44.5t45 110.5q0 65 -44.5 110t-110.5 45q-65 0 -110 -44.5t-45 -110.5zM1136 707v64l1 65h-16l1 -65v-64q0 -242 -17 -551.5t-43 -563.5h134
q-25 245 -42.5 556.5t-17.5 558.5zM665 1412q-33 -81 -61 -163.5t-62 -163.5q100 27 199 27q87 0 199 -30q6 21 17 42q-110 64 -176 132t-116 156zM1517 1112q98 0 198 -27q-33 81 -61 163.5t-61 163.5q-62 -103 -125.5 -165.5t-167.5 -123.5q13 -26 17 -41q105 30 200 30z
M1138 1226q30 110 30 201q0 104 -36 226h-6q-36 -99 -36 -226q0 -25 2 -50t7 -57t21 -94h18zM1278 1156q88 53 138.5 98t97.5 109.5t59 95.5l-3 6q-48 -22 -114 -72.5t-114.5 -110t-76.5 -112.5zM934 1044q-13 3 -33 8t-45.5 9.5t-54.5 7.5t-59 3q-109 0 -220 -34l-4 -8
l-1 -1q31 -13 99 -24t126 -11q94 0 192 28v22zM992 1170q-76 126 -154.5 194t-150.5 101l-3 -6q23 -45 71.5 -110.5t109.5 -114.5t114 -78zM1324 1022q28 -9 82.5 -18.5t109.5 -9.5q52 0 114.5 9.5t109.5 25.5v1l-4 8q-110 34 -220 34q-36 0 -77 -5t-116 -23l1 -13v-9z
M1273 899l-17 -17q54 -93 123 -161t178 -127l4 4q-34 76 -105.5 155.5t-182.5 145.5zM1002 882l-17 16q-109 -63 -181 -143t-107 -157l4 -4q99 53 171 120.5t130 167.5z" />
  </g>

</svg>
