<?xml version="1.0" standalone="no"?>
<!DOCTYPE svg PUBLIC "-//W3C//DTD SVG 1.1//EN" "http://www.w3.org/Graphics/SVG/1.1/DTD/svg11.dtd" >
<svg xmlns="http://www.w3.org/2000/svg" xmlns:xlink="http://www.w3.org/1999/xlink" version="1.1" viewBox="-10 0 1402 2048">
  <g transform="matrix(1 0 0 -1 0 1638)">
   <path fill="currentColor"
d="M563 -120q32 267 167 267q42 0 67 -27t25 -73q0 -27 -11 -81q-12 -54 -12 -81q0 -83 23.5 -151.5t62 -108.5t76.5 -40q13 0 17.5 10.5t4.5 17.5q0 12 -17 46q-48 95 -67.5 185t-19.5 188q0 73 17.5 151t55.5 173t45 110q66 157 93 244.5t42.5 176.5t15.5 188
q0 83 -21 197q-27 146 -27 182q0 21 16 46.5t38 56.5q55 76 76.5 128t21.5 97q0 43 -27.5 67t-78.5 24q-56 0 -88 -50t-39 -130q-7 -82 -24.5 -125t-63.5 -93t-178 -162q-189 -159 -280 -257.5t-158.5 -202t-106.5 -207.5t-53 -216t-14 -250q140 -6 227 -79.5t106 -220.5h89
zM436 -160q0 82 -39.5 155t-108.5 110.5t-157 37.5l-30 -1q0 212 21 345.5t92 271.5t191 277t320 307q120 101 165.5 149t62 84.5t26.5 125.5q23 211 167 211q67 0 106.5 -34.5t39.5 -96.5q0 -39 -10.5 -75t-28 -70.5t-67.5 -103.5q-46 -63 -46 -79q0 -27 16 -114
q32 -179 32 -265q0 -98 -15.5 -189.5t-42.5 -179.5t-97 -256q-68 -160 -91 -251t-23 -167q0 -88 18.5 -173.5t64.5 -181.5q9 -19 15 -34t6 -38q0 -28 -17 -44t-45 -16q-49 0 -97 44.5t-76.5 122t-28.5 173.5q0 27 12 81q11 54 11 81t-14 43.5t-38 16.5q-49 0 -81 -60
t-50 -207h-163z" />
  </g>

</svg>
