<?xml version="1.0" standalone="no"?>
<!DOCTYPE svg PUBLIC "-//W3C//DTD SVG 1.1//EN" "http://www.w3.org/Graphics/SVG/1.1/DTD/svg11.dtd" >
<svg xmlns="http://www.w3.org/2000/svg" xmlns:xlink="http://www.w3.org/1999/xlink" version="1.1" viewBox="-10 0 2524 2048">
  <g transform="scale(1, -1)" transform-origin="center">
   <path fill="currentColor"
d="M1945 1903h-457l299 -866q56 31 120 77q29 21 56.5 37.5t55.5 16.5q29 0 42.5 -20t13.5 -44q0 -60 -140.5 -155.5t-331.5 -142.5h518v586h-175q0 70 52 135.5t124 82.5v47l-100 126l186 244q-24 33 -24 73q0 36 29 63t73 27q98 0 98 -93q0 -44 -34 -129l-135 -307v-49
q80 -16 131.5 -81.5t53.5 -138.5h-175v-586h180v-133h-832q53 -86 53 -151q0 -86 -52.5 -131.5t-155.5 -45.5q-39 0 -81 14v-214h1077v-40h-225v-170h225v-40h-225v-170h225v-40h-2295v40h230v170h-230v40h230v170h-230v40h1098v274q-61 39 -132.5 102.5t-119.5 115.5
l-34 36h-351q-42 -54 -113 -90t-143 -36q-73 0 -122 31.5t-75.5 83.5t-26.5 108q0 119 42.5 185.5t117.5 66.5q62 0 151.5 -65t156.5 -151h354q-195 47 -337 142t-142 156q0 23 13.5 43.5t42.5 20.5q28 0 55.5 -16.5t56.5 -37.5q227 -164 496 -203l-342 992h-66l62 -121
l-430 141l430 141l-62 -121h1246v-40zM1264 900q93 0 182 15l-340 988h-298l344 -998q68 -5 112 -5zM1485 922q135 29 266 95l-306 886h-297zM214 766q7 -16 35 -53h2116v53h-2151zM1264 806q133 0 262 26.5t239.5 73t190 108.5t79.5 88t-16 26q-24 0 -88 -46
q-138 -104 -318 -163t-349 -59q-173 0 -357 60t-320 162q-64 46 -88 46q-16 0 -16 -26q0 -27 80 -89t191.5 -109t242 -72.5t267.5 -25.5zM1249 -65v170h-410v-170h410zM1249 -275v170h-410v-170h410zM1699 -275v170h-410v-170h410zM799 -275v170h-410v-170h410zM2149 -65
v170h-410v-170h410zM1699 -65v170h-410v-170h410zM2149 -275v170h-410v-170h410zM799 -65v170h-410v-170h410zM2175 1667l139 317q3 8 8.5 21t10 29t8 32.5t3.5 30.5q0 53 -58 53q-27 0 -44.5 -15t-17.5 -35q0 -52 25 -71l-185 -246l98 -112v-55h13v51zM2173 1576
q-74 0 -125.5 -42.5t-58.5 -101.5h368q-16 63 -68 103.5t-116 40.5zM1563 490q0 32 -58 90.5t-125 92.5h-43v-171q36 -24 68 -36.5t71 -12.5q38 0 62.5 10.5t24.5 26.5zM1556 433q-36 -19 -93 -19q-56 0 -126.5 37.5t-151 107t-111.5 114.5h-75q21 -21 49.5 -50t62 -61
t71 -63.5t77 -57t80 -41t79.5 -15.5q96 0 138 48zM180 885q0 -31 22 -79h198q-66 70 -104 95t-66 25q-50 0 -50 -41zM343 617q-67 0 -122 66t-75 159q-4 -30 -4 -58q0 -89 52.5 -143t134.5 -54q50 0 102.5 22.5t93.5 63.5h-53q-20 -25 -53.5 -40.5t-75.5 -15.5zM2161 806h24
v586h-24v-586zM260 982q-41 0 -69 -30q21 9 51 9q35 0 101 -49t110 -106h63q-72 83 -141 129.5t-115 46.5zM1297 375l-40 20v-250h40v230zM632 1903h-56v40h56l49 53l-220 -73l220 -73zM1257 560l40 -30v143h-40v-113zM1585 539q-6 28 -23 67t-36 67h-72q86 -65 131 -134z
M1132 673q26 -28 85 -80v80h-85zM343 657q40 0 67 16h-124q24 -16 57 -16z" />
  </g>

</svg>
