<?xml version="1.0" standalone="no"?>
<!DOCTYPE svg PUBLIC "-//W3C//DTD SVG 1.1//EN" "http://www.w3.org/Graphics/SVG/1.1/DTD/svg11.dtd" >
<svg xmlns="http://www.w3.org/2000/svg" xmlns:xlink="http://www.w3.org/1999/xlink" version="1.1" viewBox="-10 0 2480 2048">
  <g transform="matrix(1 0 0 -1 0 1638)">
   <path fill="currentColor"
d="M152 750q43 -143 165.5 -253t315 -175t398.5 -65h511q130 0 294 44.5t294 114.5t197 148l2 14l-8 66q-20 130 -20 223q0 116 19 293h-49q-37 -228 -37 -379q0 -65 7 -116q-18 -27 -84 -68t-181.5 -79.5t-283 -66.5t-389.5 -28q-415 0 -677.5 75t-431.5 252h-42zM2115 217
h-1684v-226h1684v226zM1303 463q166 0 302 16v406q0 58 -30 100t-81 65.5t-109 23.5h-166q-58 0 -109 -23.5t-81 -65.5t-30 -100v-411q150 -11 304 -11zM715 257q-506 117 -615 533h112q135 -140 308.5 -215t438.5 -98v408q0 70 35.5 121.5t95 79.5t129.5 28h166
q69 0 129 -28t95.5 -79.5t35.5 -121.5v-401q136 18 248 49t193.5 70t112.5 75q-5 50 -5 102q0 144 44 420h128q-25 -242 -25 -333q0 -87 20 -217q9 -50 9 -72q0 -23 -11 -38q-70 -92 -210 -165.5t-317 -117.5h323v-306h-1764v306h324z" />
  </g>

</svg>
