<?xml version="1.0" standalone="no"?>
<!DOCTYPE svg PUBLIC "-//W3C//DTD SVG 1.1//EN" "http://www.w3.org/Graphics/SVG/1.1/DTD/svg11.dtd" >
<svg xmlns="http://www.w3.org/2000/svg" xmlns:xlink="http://www.w3.org/1999/xlink" version="1.1" viewBox="-10 0 1660 2048">
  <g transform="matrix(1 0 0 -1 0 1638)">
   <path fill="currentColor"
d="M100 730l95 2q53 109 170 250t264 274l-282 308q-41 44 -60.5 86t-19.5 96q0 69 54 121t130 52q51 0 89 -20.5t59.5 -54.5t21.5 -69q0 -60 -34 -95t-91 -35q-44 0 -68.5 23.5t-24.5 60.5q0 31 24 52t64 27l4 -40q-22 -3 -37 -13.5t-15 -25.5q0 -20 15 -32t38 -12
q38 0 61.5 24t23.5 66q0 43 -37 73.5t-93 30.5q-60 0 -102 -41t-42 -92t20.5 -87t49.5 -68l283 -308l130 112q127 108 144 130q16 24 29 106q13 86 19 117.5t15 51.5h-1q27 69 65.5 95.5t95.5 26.5q153 0 153 -125q0 -44 -21 -95.5t-81 -142.5q-56 -83 -56 -105
q0 -21 21 -118q31 -148 37 -205l228 778h112l-236 -1019q-57 -242 -76.5 -376t-19.5 -246q0 -96 17 -249.5t29 -201.5l13 -43q37 -117 37 -149q0 -33 -14.5 -51.5t-37.5 -18.5q-41 0 -74.5 38.5t-65.5 145.5t-47 215q-7 79 -28 111t-59 32q-45 0 -71 -27t-26 -80v-130h-205
q-5 71 -32 135.5t-70.5 102.5t-136 53.5t-224.5 15.5l-74 -1l2 45q0 151 -46 485zM148 690q43 -295 44 -483h31q163 0 247.5 -16.5t132.5 -55t79 -100t41 -135.5h128v90q0 70 35 108.5t102 38.5q54 0 85 -39t42 -140q11 -102 53 -232.5t94 -130.5q14 0 14 25t-37 142
q-23 69 -42 243t-19 263q0 199 65 485l33 147l-1 -1l225 970h-32l-303 -1032q-147 -143 -1017 -147zM240 733q405 10 593 37.5t297 87.5l44 151l1 20v20q0 88 -28 216q-35 154 -35 189q0 25 18.5 57t43.5 70q54 81 75 130t21 86q0 85 -113 85q-44 0 -73 -21.5t-51 -76.5
q-10 -21 -23 -113q-17 -102 -27 -133t-33 -54.5t-134 -118.5q-127 -107 -232.5 -207t-200.5 -217.5t-143 -207.5z" />
  </g>

</svg>
