<?xml version="1.0" standalone="no"?>
<!DOCTYPE svg PUBLIC "-//W3C//DTD SVG 1.1//EN" "http://www.w3.org/Graphics/SVG/1.1/DTD/svg11.dtd" >
<svg xmlns="http://www.w3.org/2000/svg" xmlns:xlink="http://www.w3.org/1999/xlink" version="1.1" viewBox="-10 0 892 2048">
  <g transform="matrix(1 0 0 -1 0 1638)">
   <path fill="currentColor"
d="M342 1088v592q0 78 -11 111.5t-44 61.5q-21 18 -47 46t-26 53q0 43 38 70.5t108 27.5q86 0 142.5 -63.5t56.5 -162.5v-739q87 -18 155 -61.5t68 -82.5q0 -20 -14.5 -31.5t-39.5 -11.5q-15 0 -41 11q-27 11 -37 11q-29 0 -45 -23.5t-18 -50.5l-3 -34q-5 -51 -33.5 -80.5
t-64.5 -40.5l37 -446l6 -107q0 -112 -21 -157t-67 -45q-47 0 -67.5 45.5t-20.5 156.5l6 107l37 446q-37 11 -65 40.5t-33 80.5l-3 34q-2 27 -18 50.5t-45 23.5q-17 0 -36.5 -11t-41.5 -11q-25 0 -39.5 11.5t-14.5 31.5q0 41 73 86t169 61zM441 1096q30 0 78 -5v733
q0 81 -46 133.5t-113 52.5q-50 0 -78 -16t-28 -42q0 -15 42 -52q46 -42 59.5 -62.5t20 -49t6.5 -63.5v-632zM441 725q42 0 70.5 23.5t32.5 63.5l3 39q4 47 28.5 78t64.5 31q20 0 49 -11q28 -11 39 -11q14 0 14 6q0 9 -32 33.5t-73 42t-89.5 27t-106.5 9.5q-56 0 -105 -9.5
t-90.5 -26.5t-73.5 -41.5t-32 -34.5q0 -6 14 -6l20 4q25 9 39.5 13.5t28.5 4.5q40 0 64.5 -31t28.5 -78l3 -39q3 -39 32 -63t71 -24zM435 685q-4 -31 -13 -133t-13.5 -157t-8.5 -119t-5.5 -92.5t-1.5 -45.5q0 -74 8 -118t40 -44t40 44t8 118q0 96 -27 382l-15 165h-12z" />
  </g>

</svg>
