<?xml version="1.0" standalone="no"?>
<!DOCTYPE svg PUBLIC "-//W3C//DTD SVG 1.1//EN" "http://www.w3.org/Graphics/SVG/1.1/DTD/svg11.dtd" >
<svg xmlns="http://www.w3.org/2000/svg" xmlns:xlink="http://www.w3.org/1999/xlink" version="1.1" viewBox="-10 0 2155 2048">
  <g transform="matrix(1 0 0 -1 0 1638)">
   <path fill="currentColor"
d="M100 628l111 -11q149 138 149 313q0 55 -15.5 101.5t-42.5 87t-93 104.5l-109 -10v124q91 12 320 29t434 22l4 236h149l-4 -234l65 1h76l-3 233h149l3 -236q215 -5 422.5 -20t329.5 -31v-125q-32 5 -179 17q54 -68 84 -149.5t30 -149.5q0 -197 -98 -317q147 13 163 16
v-140q-123 -16 -327.5 -31t-407.5 -20l2 -132l-173 -190l34 -560h-198l34 560l-173 190l2 133q-173 4 -404.5 20t-333.5 30v139zM1068 1264q-319 0 -805 -36q77 -77 107 -147.5t30 -150.5q0 -89 -36 -171t-101 -146q486 -36 805 -36q332 0 756 31q116 116 116 322
q0 72 -37 158.5t-97 144.5q-418 31 -738 31zM140 525q162 -20 444 -35t484 -15q232 0 510.5 14.5t426.5 34.5v59q-163 -18 -454.5 -32t-482.5 -14q-188 0 -452 13t-476 33v-58zM948 436l-71 1l-1 -114l175 -191l-34 -536h114l-34 536l175 191l-2 114l-70 -1l1 -89l-127 -148
l-127 148zM140 1258q204 19 466.5 32.5t461.5 13.5q187 0 480 -14t457 -32v44q-190 23 -453.5 36t-483.5 13q-213 0 -491.5 -15.5t-436.5 -34.5v-43zM1219 1389h34l-3 195h-69l2 -194zM894 1389h36l34 1l3 194h-69zM987 384h173l-1 51h-172v-51zM1146 344h-145l73 -84z" />
  </g>

</svg>
