<?xml version="1.0" standalone="no"?>
<!DOCTYPE svg PUBLIC "-//W3C//DTD SVG 1.1//EN" "http://www.w3.org/Graphics/SVG/1.1/DTD/svg11.dtd" >
<svg xmlns="http://www.w3.org/2000/svg" xmlns:xlink="http://www.w3.org/1999/xlink" version="1.1" viewBox="-10 0 2524 2048">
  <g transform="matrix(1 0 0 -1 0 1638)">
   <path fill="currentColor"
d="M978 806q31 41 80 51l102 16q29 5 52 24.5t34 39.5l65 129l-59 173l-83 58q-100 60 -160.5 126t-60.5 121q0 76 97 180q60 68 74 93.5t14 51.5l-1 12q-92 -5 -168 -60t-158 -182h-53q0 83 37.5 155t125.5 139t136 85q8 40 45 66t92 26q50 0 87 -40t37 -100
q0 -49 -36 -119l-78 -148q-15 -26 -15 -33q0 -4 4 -4q6 0 13 5q39 28 71 46t67 18q62 0 132 -29t176 -113l111 -85q94 -72 127 -94.5t230 -140.5q-15 -38 -44 -43q-9 -32 -49.5 -57.5t-116.5 -25.5q-52 0 -88.5 7t-58.5 7h-11q-88 -8 -138 -8v-39l13 -68l-3 -40l-4 -58
q0 -24 10 -77q25 -31 41 -65h739v-133h-832q53 -86 53 -151q0 -86 -52.5 -131.5t-155.5 -45.5q-39 0 -81 14v-214h1077v-40h-225v-170h225v-40h-225v-170h225v-40h-2295v40h230v170h-230v40h230v170h-230v40h1098v274q-61 39 -132.5 102.5t-119.5 115.5l-34 36h-351
q-42 -54 -113 -90t-143 -36q-73 0 -122 31.5t-75.5 83.5t-26.5 108q0 119 42.5 185.5t117.5 66.5q62 0 151.5 -65t156.5 -151h410zM1590 1233q11 -17 15 -41l154 9l64 -7q49 -7 70 -7q54 0 81.5 5t51.5 23l-775 215q-51 14 -78.5 38t-27.5 69q0 30 26.5 53.5t66 40
t70.5 20.5l4 -39q-52 -9 -89.5 -30.5t-37.5 -45.5q0 -53 72 -71l767 -217l9 -1q12 0 23 7l9 8l-142 84q-75 42 -190 129.5t-141 109.5q-139 111 -253 111q-36 0 -66 -19q-84 -54 -93 -54q-17 1 -25.5 14.5t-8.5 28.5t19 53l75 144q33 66 33 113q0 40 -23.5 67t-60.5 27
q-47 0 -74.5 -22.5t-27.5 -61.5q0 -25 18.5 -45t60.5 -40l4 -31q0 -34 -20.5 -71t-72.5 -93q-43 -48 -66 -89.5t-23 -63.5q0 -50 64.5 -114t172.5 -131l209 -130q65 -44 94.5 -116.5t33.5 -190.5q0 -20 -25 -25l-120 -19q-12 -2 -22 -8l-10 -7l3 -3l16 -3h220q-6 17 -38 52
q-8 67 -8 90l5 98l-15 70q-2 82 -14 103zM214 766q7 -16 35 -53h2116v53h-2151zM389 -275h410v170h-410v-170zM1289 -275h410v170h-410v-170zM839 -275h410v170h-410v-170zM1739 -275h410v170h-410v-170zM839 -65h410v170h-410v-170zM389 -65h410v170h-410v-170zM1289 -65
h410v170h-410v-170zM1739 -65h410v170h-410v-170zM1563 490q0 32 -58 90.5t-125 92.5h-43v-171q36 -24 68 -36.5t71 -12.5q38 0 62.5 10.5t24.5 26.5zM1306 846q15 -18 19 -40h16q28 41 80 51l94 16q11 3 11 5v2q-6 100 -24 150t-52 82l-32 -49l7 -27l-36 -42zM1556 433
q-36 -19 -93 -19q-56 0 -126.5 37.5t-151 107t-111.5 114.5h-75q21 -21 49.5 -50t62 -61t71 -63.5t77 -57t80 -41t79.5 -15.5q96 0 138 48zM1039 812l4 -3q4 -3 21 -3h214l2 4q0 9 -24 33l11 17q29 43 86 151l30 32l-8 23l48 75l-119 75l49 -153l-64 -124q-15 -32 -44.5 -60
t-65.5 -34l-110 -18q-14 -2 -24 -8zM180 885q0 -31 22 -79h198q-66 70 -104 95t-66 25q-50 0 -50 -41zM343 617q-67 0 -122 66t-75 159q-4 -30 -4 -58q0 -89 52.5 -143t134.5 -54q50 0 102.5 22.5t93.5 63.5h-53q-20 -25 -53.5 -40.5t-75.5 -15.5zM260 982q-41 0 -69 -30
q21 9 51 9q35 0 101 -49t110 -106h63q-72 83 -141 129.5t-115 46.5zM1297 375l-40 20v-250h40v230zM779 1663q14 53 58.5 116.5t102.5 108.5t122 60q-5 9 -10 34q-76 -40 -135 -87t-97 -115t-41 -117zM1257 560l40 -30v143h-40v-113zM1098 1907l-20 20q-77 -14 -148 -76
t-117 -154q54 86 129 142.5t156 67.5zM1585 539q-6 28 -23 67t-36 67h-72q86 -65 131 -134zM1132 673q26 -28 85 -80v80h-85zM1124 2005q0 12 9 21.5t23 9.5q13 0 22.5 -9.5t9.5 -21.5q0 -14 -9.5 -24t-22.5 -10q-14 0 -23 10t-9 24zM343 657q40 0 67 16h-124q24 -16 57 -16
zM1144 2005q0 -13 12 -13q11 0 11 13q0 11 -11 11q-12 0 -12 -11z" />
  </g>

</svg>
