<?xml version="1.0" standalone="no"?>
<!DOCTYPE svg PUBLIC "-//W3C//DTD SVG 1.1//EN" "http://www.w3.org/Graphics/SVG/1.1/DTD/svg11.dtd" >
<svg xmlns="http://www.w3.org/2000/svg" xmlns:xlink="http://www.w3.org/1999/xlink" version="1.1" viewBox="-10 0 1722 2048">
  <g transform="matrix(1 0 0 -1 0 1638)">
   <path fill="currentColor"
d="M856 -221q-44 0 -84.5 29t-64 81t-23.5 123q0 159 128 223q-62 39 -95 94.5t-33 111.5q0 133 136 224q-60 37 -84 60.5t-36.5 52t-12.5 66.5q0 55 29.5 105.5t103.5 103.5q-63 43 -97.5 98.5t-34.5 114.5q0 56 23 113t60 96q-43 14 -78 37q-7 -54 -29.5 -105.5t-56.5 -88
t-76 -53.5t-66 -20q70 -105 70 -210q0 -84 -39.5 -146.5t-128.5 -101.5q62 -62 85.5 -123.5t23.5 -131.5q0 -73 -34.5 -133.5t-115.5 -112.5q55 -42 78.5 -76.5t36.5 -79.5t13 -101q0 -89 -26.5 -146t-69 -86.5t-92.5 -29.5q-78 0 -122 66.5t-44 181.5q0 69 17 118.5
t46.5 85t89.5 70.5q-65 37 -93 97.5t-28 144.5q0 188 160 268q-51 42 -71 91t-20 118q0 92 51 158t150 100q-58 79 -58 156q0 65 32 119t84.5 95.5t108.5 59.5q-6 28 -6 60q0 121 85 207.5t208 86.5q122 0 208 -85.5t86 -208.5q0 -32 -6 -60q100 -37 162 -112.5t62 -161.5
q0 -77 -58 -156q99 -34 150 -100t51 -158q0 -68 -20 -117.5t-71 -91.5q160 -80 160 -268q0 -86 -29 -146.5t-92 -95.5q60 -36 88.5 -71t46.5 -85t18 -118q0 -85 -22 -139t-59 -81.5t-85 -27.5q-50 0 -92.5 29.5t-69 86.5t-26.5 146q0 80 28 141.5t100 115.5
q-81 51 -115.5 111.5t-34.5 134.5q0 71 23.5 132t85.5 123q-88 39 -128 101t-40 147q0 105 70 210q-28 3 -73.5 23t-82.5 67t-56.5 106.5t-16.5 70.5q-33 -23 -77 -37q38 -43 60.5 -98t22.5 -111q0 -58 -34 -113.5t-98 -99.5q74 -53 103.5 -103.5t29.5 -105.5
q0 -38 -12.5 -66t-36.5 -51.5t-85 -61.5q137 -91 137 -224q0 -57 -33 -112t-96 -94q63 -32 96 -89.5t33 -133.5q0 -71 -23.5 -123t-63.5 -81t-85 -29zM603 1756q0 -105 73.5 -179t179.5 -74q104 0 179 73.5t75 179.5q0 105 -74.5 179.5t-179.5 74.5q-106 0 -179.5 -74.5
t-73.5 -179.5zM414 29q0 73 -26 128.5t-98 106.5q-62 -34 -90.5 -66t-44 -76.5t-15.5 -106.5q0 -98 34 -153.5t94 -55.5q37 0 71 27t54.5 75.5t20.5 120.5zM1298 29q0 -72 20.5 -120t54 -75.5t71.5 -27.5q61 0 94.5 55.5t33.5 153.5q0 63 -16 107.5t-45 76.5t-89 65
q-72 -51 -98 -106t-26 -129zM1540 531q0 78 -36 139t-118 100q-110 -91 -110 -238q0 -135 145 -221l24 14q39 21 67 76t28 130zM172 531q0 -65 17 -106t38 -65.5t40 -35t24 -13.5q145 86 145 221q0 70 -24.5 127.5t-85.5 110.5q-154 -69 -154 -239zM988 12q0 146 -132 199
q-64 -23 -98 -75t-34 -124q0 -87 36.5 -140t95.5 -53q36 0 66.5 23.5t48 66t17.5 103.5zM495 1037q0 96 -70 197q-184 -58 -184 -226q0 -46 9.5 -78.5t25 -55.5t57.5 -57q64 26 94.5 54t49 69t18.5 97zM1217 1037q0 -58 18.5 -98.5t49.5 -68t94 -53.5q42 34 57.5 57t25 55
t9.5 79q0 168 -184 226q-70 -101 -70 -197zM856 1463l-38 2q-38 -30 -64 -88t-26 -111q0 -100 128 -188q128 88 128 188q0 54 -26 111t-64 88zM724 441q0 -56 35 -106t97 -81q66 36 99 84.5t33 102.5q0 50 -28 98t-104 103q-53 -39 -77 -65.5t-39.5 -60.5t-15.5 -75z
M656 1542q-53 50 -77 117q-42 -12 -89 -47.5t-76.5 -84t-29.5 -105.5q0 -63 58 -143l67 20q56 20 96.5 85.5t50.5 157.5zM1133 1659q-24 -68 -77 -118q6 -84 47 -153t100 -89l67 -20q58 80 58 143q0 57 -28 103.5t-72.5 81.5t-94.5 52zM985 844q0 35 -11 61.5t-29.5 47.5
t-88.5 74q-68 -51 -87.5 -73t-30.5 -49t-11 -61q0 -38 25 -72.5t104 -84.5q78 49 103.5 84t25.5 73z" />
  </g>

</svg>
