<?xml version="1.0" standalone="no"?>
<!DOCTYPE svg PUBLIC "-//W3C//DTD SVG 1.1//EN" "http://www.w3.org/Graphics/SVG/1.1/DTD/svg11.dtd" >
<svg xmlns="http://www.w3.org/2000/svg" xmlns:xlink="http://www.w3.org/1999/xlink" version="1.1" viewBox="-10 0 2524 2048">
  <g transform="matrix(1 0 0 -1 0 1638)">
   <path fill="currentColor"
d="M1802 1807q0 34 23.5 57.5t57.5 23.5q30 0 52 -19l13 104q8 62 37 94.5t71 32.5q43 0 71.5 -33t36.5 -94l12 -104q22 19 53 19q34 0 57.5 -23.5t23.5 -57.5q26 18 43 18q61 0 61 -86v-217h-288q42 -71 67.5 -146.5t25.5 -127.5q0 -45 -24 -73t-83 -39v-330h293v-133h-832
q53 -86 53 -151q0 -86 -52.5 -131.5t-155.5 -45.5q-39 0 -81 14v-214h1077v-40h-225v-170h225v-40h-225v-170h225v-40h-2295v40h230v170h-230v40h230v170h-230v40h1098v274q-61 39 -132.5 102.5t-119.5 115.5l-34 36h-351q-42 -54 -113 -90t-143 -36q-73 0 -122 31.5
t-75.5 83.5t-26.5 108q0 119 42.5 185.5t117.5 66.5q62 0 151.5 -65t156.5 -151h1431v330q-59 10 -83 38.5t-24 73.5q0 58 26.5 132t66.5 142h-287v217q0 86 61 86q17 0 43 -18zM1557 865v639q0 89 -68 151t-182 68v-858h-40v1137h-164v-1137h-40v1137h-164v-1137h-40v858
q-112 -6 -181 -67.5t-69 -151.5v-639h-40v639q0 106 80 180t210 80v278h448v-278q129 -5 209.5 -79t80.5 -181v-639h-40zM214 766q7 -16 35 -53h2116v53h-2151zM2056 1623q-50 0 -103.5 25t-135.5 95q-49 42 -58 42q-21 0 -21 -46v-177h636v177q0 46 -21 46q-9 0 -58 -42
q-81 -70 -135.5 -95t-103.5 -25zM839 -275h410v170h-410v-170zM389 -65h410v170h-410v-170zM839 -65h410v170h-410v-170zM1739 -275h410v170h-410v-170zM1289 -65h410v170h-410v-170zM389 -275h410v170h-410v-170zM1739 -65h410v170h-410v-170zM1289 -275h410v170h-410v-170
zM2056 1663q51 0 101 28l-33 278q-5 41 -23.5 66t-44.5 25q-27 0 -45 -25t-23 -66l-34 -278q52 -28 102 -28zM1563 490q0 32 -58 90.5t-125 92.5h-43v-171q36 -24 68 -36.5t71 -12.5q38 0 62.5 10.5t24.5 26.5zM1556 433q-36 -19 -93 -19q-56 0 -126.5 37.5t-151 107
t-111.5 114.5h-75q21 -21 49.5 -50t62 -61t71 -63.5t77 -57t80 -41t79.5 -15.5q96 0 138 48zM2039 806h33v716h-33v-716zM180 885q0 -31 22 -79h198q-66 70 -104 95t-66 25q-50 0 -50 -41zM343 617q-67 0 -122 66t-75 159q-4 -30 -4 -58q0 -89 52.5 -143t134.5 -54
q50 0 102.5 22.5t93.5 63.5h-53q-20 -25 -53.5 -40.5t-75.5 -15.5zM2179 1248q0 94 -67 222v-294q67 12 67 72zM1932 1248q0 -60 67 -72v294q-67 -128 -67 -222zM260 982q-41 0 -69 -30q21 9 51 9q35 0 101 -49t110 -106h63q-72 83 -141 129.5t-115 46.5zM1297 375l-40 20
v-250h40v230zM2188 1807q0 -17 12 -29t29 -12t29 12t12 29t-12 29t-29 12t-29 -12t-12 -29zM1842 1807q0 -17 12 -29t29 -12t29 12t12 29t-12 29t-29 12t-29 -12t-12 -29zM1257 560l40 -30v143h-40v-113zM1585 539q-6 28 -23 67t-36 67h-72q86 -65 131 -134zM1132 673
q26 -28 85 -80v80h-85zM343 657q40 0 67 16h-124q24 -16 57 -16zM1919 1734l-21 -7l19 -13zM2195 1714l19 13l-22 7z" />
  </g>

</svg>
