<?xml version="1.0" standalone="no"?>
<!DOCTYPE svg PUBLIC "-//W3C//DTD SVG 1.1//EN" "http://www.w3.org/Graphics/SVG/1.1/DTD/svg11.dtd" >
<svg xmlns="http://www.w3.org/2000/svg" xmlns:xlink="http://www.w3.org/1999/xlink" version="1.1" viewBox="-10 0 1340 2048">
  <g transform="matrix(1 0 0 -1 0 1638)">
   <path fill="currentColor"
d="M100 -55q0 125 62 233t170 170.5t232 62.5q125 0 233 -62t170.5 -170t62.5 -234q0 -124 -62.5 -232t-170 -170t-233.5 -62q-124 0 -232 62.5t-170 170.5t-62 231zM173 1200l210 5q197 4 290 13t155 27l-480 518q-54 59 -54 124q0 58 39.5 99.5t99.5 41.5q56 0 91.5 -32.5
t35.5 -82.5q0 -41 -23.5 -68.5t-60.5 -27.5q-38 0 -57.5 20.5t-19.5 46.5q0 25 17.5 41t44.5 16h5v-40h-2q-25 0 -25 -20q0 -8 9 -16t25 -8q21 0 34 16t13 40q0 29 -22 52t-65 23t-71 -29.5t-28 -71.5q0 -47 44 -96l492 -530q21 9 39 21l219 750h102l-168 -729
q-42 -183 -55 -276.5t-13 -167.5q0 -66 12 -181t21 -141l20 -69q15 -49 15 -68q0 -24 -15.5 -37t-32.5 -13q-37 0 -67.5 39t-51 115t-26.5 131q-7 56 -19 74t-31 18q-33 0 -51.5 -19.5t-18.5 -57.5v-93h-146q-6 79 -43 135.5t-113 70t-176 13.5h-63l1 35q0 58 -10.5 169
t-21.5 194zM219 1162q30 -230 31 -347h75q97 0 159 -18.5t103.5 -73.5t52.5 -127h69v65q0 47 31 76t79 29q38 0 59.5 -27t29.5 -101q11 -69 36.5 -158.5t67.5 -89.5q10 0 10 17q0 20 -25 93q-14 42 -28.5 162.5t-14.5 196.5q0 165 69 452l158 682h-22l-216 -737
q-53 -51 -231.5 -72.5t-492.5 -21.5zM325 297q-68 -47 -113 -114l239 -238l-238 -238q48 -69 113 -113l238 238l238 -238q66 44 114 112l-239 239l239 239q-45 68 -113 113l-239 -239zM564 371q-111 0 -205 -53l205 -204l204 204q-95 53 -204 53zM990 -55q0 109 -53 204
l-204 -204l204 -204q53 92 53 204zM564 -479q109 0 203 52l-203 203l-203 -203q94 -52 203 -52zM140 -55q0 -107 52 -203l203 203l-204 203q-51 -92 -51 -203z" />
  </g>

</svg>
