<?xml version="1.0" standalone="no"?>
<!DOCTYPE svg PUBLIC "-//W3C//DTD SVG 1.1//EN" "http://www.w3.org/Graphics/SVG/1.1/DTD/svg11.dtd" >
<svg xmlns="http://www.w3.org/2000/svg" xmlns:xlink="http://www.w3.org/1999/xlink" version="1.1" viewBox="-10 0 2725 2048">
  <g transform="matrix(1 0 0 -1 0 1638)">
   <path fill="currentColor"
d="M508 212q0 -114 35 -235q53 85 153 133.5t227 48.5q51 0 324 -36q590 -79 736 -93.5t217 -14.5q177 0 276 51t99 146t-99 146t-276 51q-146 0 -563 -55q-531 -71 -610 -80t-104 -9q-126 0 -226.5 48.5t-153.5 133.5q-35 -121 -35 -235zM140 187q115 -32 211 -82.5
t145 -101.5q-28 108 -28 209t28 209q-50 -52 -147 -102.5t-209 -81.5v-50zM100 267q147 37 260 103t138 131h62q49 -94 143.5 -145t219.5 -51q68 0 681 86q414 58 579 58q214 0 323 -57t109 -180t-110 -180t-322 -57q-165 0 -579 58q-613 86 -681 86q-125 0 -219.5 -51
t-143.5 -145h-62q-24 65 -137 130.5t-261 103.5v110z" />
  </g>

</svg>
