<?xml version="1.0" standalone="no"?>
<!DOCTYPE svg PUBLIC "-//W3C//DTD SVG 1.1//EN" "http://www.w3.org/Graphics/SVG/1.1/DTD/svg11.dtd" >
<svg xmlns="http://www.w3.org/2000/svg" xmlns:xlink="http://www.w3.org/1999/xlink" version="1.1" viewBox="-10 0 2524 2048">
  <g transform="matrix(1 0 0 -1 0 1638)">
   <path fill="currentColor"
d="M1411 2116q27 46 95 46q46 0 79 -32t33 -79q0 -84 -71 -159l-143 -153q21 -13 39 -31q21 16 46 16q69 0 69 -56q0 -35 -25 -61.5t-56 -26.5l-29 4q-7 -61 -44 -126t-83 -100l29 -552h1055v-133h-832q53 -86 53 -151q0 -86 -52.5 -131.5t-155.5 -45.5q-39 0 -81 14v-214
h1077v-40h-225v-170h225v-40h-225v-170h225v-40h-2295v40h230v170h-230v40h230v170h-230v40h1098v274q-61 39 -132.5 102.5t-119.5 115.5l-34 36h-351q-42 -54 -113 -90t-143 -36q-73 0 -122 31.5t-75.5 83.5t-26.5 108q0 119 42.5 185.5t117.5 66.5q62 0 151.5 -65
t156.5 -151h620l29 553q-47 36 -82.5 100.5t-42.5 124.5q-14 -4 -29 -4q-31 0 -56 26.5t-25 61.5q0 56 69 56q25 0 46 -16q14 16 36 31l-144 153q-71 75 -71 159q0 47 33 79t79 32q68 0 95 -46l-4 23h294zM214 766q7 -16 35 -53h2116v53h-2151zM1270 1739q-96 0 -172 -91
q-22 36 -47 36q-29 0 -29 -16q0 -20 13 -34t28 -14q19 0 67 24q0 -54 22.5 -117.5t56.5 -106.5t61 -43q26 0 59.5 42.5t57 106.5t23.5 118q48 -24 67 -24q15 0 28 14t13 34q0 16 -29 16q-26 0 -47 -36q-76 91 -172 91zM389 -65h410v170h-410v-170zM1289 -65h410v170h-410
v-170zM1739 -65h410v170h-410v-170zM389 -275h410v170h-410v-170zM1289 -275h410v170h-410v-170zM839 -275h410v170h-410v-170zM839 -65h410v170h-410v-170zM1739 -275h410v170h-410v-170zM1270 1779q21 0 41 -4l56 324h-198l56 -324q22 4 45 4zM1186 1765l-45 256
q-8 -28 -27 -45t-44 -17q-36 0 -56 27.5t-20 71.5l40 -2q0 -57 36 -57q15 0 25.5 16t10.5 39q0 30 -21.5 49t-53.5 19t-52.5 -19.5t-20.5 -51.5q0 -66 61 -131l151 -161zM1350 1766l16 -7l151 161q61 65 61 131q0 32 -20.5 51.5t-52.5 19.5q-33 0 -54 -19.5t-21 -48.5
q0 -23 10.5 -39t25.5 -16q36 0 36 57l40 2q0 -45 -20 -72t-56 -27q-25 0 -44 17t-27 45zM1563 490q0 32 -58 90.5t-125 92.5h-43v-171q36 -24 68 -36.5t71 -12.5q38 0 62.5 10.5t24.5 26.5zM1270 1337l-14 2l-28 -533h82l-28 532zM1556 433q-36 -19 -93 -19
q-56 0 -126.5 37.5t-151 107t-111.5 114.5h-75q21 -21 49.5 -50t62 -61t71 -63.5t77 -57t80 -41t79.5 -15.5q96 0 138 48zM1270 1532q14 0 14 19q0 17 -5 29t-5 35q0 18 18 32.5t44 14.5q30 0 62 -18q0 -24 -5 -39l-16 1q-40 0 -67 -13q7 -15 13 -40.5t6 -31.5
q0 -15 -16 -25t-43 -10q-25 0 -42 9t-17 25q0 7 6 33.5t13 39.5q-27 13 -67 13l-16 -1q-5 15 -5 39q32 18 62 18q26 0 44 -14.5t18 -32.5q0 -23 -5 -35t-5 -29q0 -19 14 -19zM180 885q0 -31 22 -79h198q-66 70 -104 95t-66 25q-50 0 -50 -41zM343 617q-67 0 -122 66t-75 159
q-4 -30 -4 -58q0 -89 52.5 -143t134.5 -54q50 0 102.5 22.5t93.5 63.5h-53q-20 -25 -53.5 -40.5t-75.5 -15.5zM260 982q-41 0 -69 -30q21 9 51 9q35 0 101 -49t110 -106h63q-72 83 -141 129.5t-115 46.5zM1297 375l-40 20v-250h40v230zM1257 560l40 -30v143h-40v-113z
M1585 539q-6 28 -23 67t-36 67h-72q86 -65 131 -134zM1226 1473q19 -10 42 -10q26 0 46 10l18 -36q-31 -14 -64 -14q-32 0 -60 14zM1132 673q26 -28 85 -80v80h-85zM343 657q40 0 67 16h-124q24 -16 57 -16z" />
  </g>

</svg>
