<?xml version="1.0" standalone="no"?>
<!DOCTYPE svg PUBLIC "-//W3C//DTD SVG 1.1//EN" "http://www.w3.org/Graphics/SVG/1.1/DTD/svg11.dtd" >
<svg xmlns="http://www.w3.org/2000/svg" xmlns:xlink="http://www.w3.org/1999/xlink" version="1.1" viewBox="-10 0 2747 2048">
  <g transform="matrix(1 0 0 -1 0 1638)">
   <path fill="currentColor"
d="M1245 372q-167 0 -312 35.5t-236.5 99t-105.5 138.5q-210 -36 -330.5 -187t-120.5 -387l3 -71h-40l-3 71q0 251 129 413.5t361 201.5q9 75 99 140t239.5 102.5t316.5 37.5q59 0 144 -10.5t296 -51.5q339 -70 497 -70q67 0 137 13.5t133.5 32t184.5 67.5v-556
q-121 49 -185.5 68t-134.5 32t-135 13q-158 0 -497 -70q-206 -40 -293.5 -51t-146.5 -11zM629 669q0 -59 80.5 -119t223.5 -99t312 -39q90 0 201 19t231 43q129 26 258 48t247 22q186 0 415 -93v436q-229 -93 -415 -93q-118 0 -247 22t-258 48q-120 24 -231 43t-201 19
q-168 0 -311.5 -39t-224 -99.5t-80.5 -118.5z" />
  </g>

</svg>
