<?xml version="1.0" standalone="no"?>
<!DOCTYPE svg PUBLIC "-//W3C//DTD SVG 1.1//EN" "http://www.w3.org/Graphics/SVG/1.1/DTD/svg11.dtd" >
<svg xmlns="http://www.w3.org/2000/svg" xmlns:xlink="http://www.w3.org/1999/xlink" version="1.1" viewBox="-10 0 2755 2048">
  <g transform="matrix(1 0 0 -1 0 1638)">
   <path fill="currentColor"
d="M804 82q-104 0 -176.5 54.5t-95.5 142.5q-152 -33 -242 -155t-90 -287q0 -17 -12.5 -32.5t-36.5 -15.5q-51 0 -51 73v26q0 169 79 306t216 195q-136 54 -215.5 188t-79.5 313v26q0 73 51 73q26 0 37.5 -16t11.5 -32q0 -163 89 -285t243 -158q24 90 96 144t176 54h1137
q104 0 176 -54.5t96 -143.5q154 35 243 157.5t89 285.5q0 16 11.5 32t37.5 16q51 0 51 -73v-26q0 -178 -79.5 -312.5t-215.5 -188.5q137 -58 216 -195t79 -306v-26q0 -73 -51 -73q-24 0 -36.5 15.5t-12.5 32.5q0 165 -90.5 287t-241.5 155q-24 -88 -96 -142.5t-176 -54.5
h-1137zM1941 122q110 0 176.5 68t66.5 170v58q0 102 -67 170t-176 68h-1137q-110 0 -176.5 -68t-66.5 -170v-58q0 -102 67 -170t176 -68h1137zM2224 360l-3 -41q166 -37 265 -169.5t99 -312.5q0 -8 9 -8q8 0 9.5 14.5t1.5 20.5v24q0 178 -89.5 311t-242.5 173v34
q152 40 242 173t90 311v25q0 34 -11 34q-9 0 -9 -8q0 -180 -98.5 -313t-265.5 -170l3 -40v-58zM521 418l3 40q-167 37 -265.5 170t-98.5 313q0 8 -9 8q-11 0 -11 -34v-25q0 -178 89.5 -311t242.5 -173v-34q-152 -40 -242 -173t-90 -311v-24q0 -11 1.5 -23t9.5 -12q9 0 9 8
q0 182 99 313.5t265 168.5l-3 41v58z" />
  </g>

</svg>
