<?xml version="1.0" standalone="no"?>
<!DOCTYPE svg PUBLIC "-//W3C//DTD SVG 1.1//EN" "http://www.w3.org/Graphics/SVG/1.1/DTD/svg11.dtd" >
<svg xmlns="http://www.w3.org/2000/svg" xmlns:xlink="http://www.w3.org/1999/xlink" version="1.1" viewBox="-10 0 2382 2048">
  <g transform="matrix(1 0 0 -1 0 1638)">
   <path fill="currentColor"
d="M1186 736q59 0 106.5 -30t88 -84t106.5 -187q50 -103 78 -144t57.5 -63.5t61.5 -22.5t64.5 25.5t65 68.5t103.5 166q79 137 133.5 187.5t105.5 50.5q55 0 85.5 -29.5t30.5 -81.5v-778h-2172v778q0 52 30 81.5t86 29.5q53 0 109 -52.5t131 -185.5q69 -119 102 -165
t65.5 -70.5t64.5 -24.5q46 0 89.5 49t106.5 181q66 135 106.5 189t87.5 83t108 29zM1186 696q-49 0 -91 -28.5t-80 -81.5t-95 -169q-74 -152 -125.5 -202t-106.5 -50q-42 0 -79.5 27t-74 74.5t-112.5 178.5q-72 126 -118.5 172t-87.5 46q-36 0 -56 -19.5t-20 -51.5v-738
h2092v738q0 32 -20 51.5t-56 19.5q-41 0 -87.5 -47t-117.5 -171q-78 -135 -114 -181t-73.5 -72.5t-79.5 -26.5q-43 0 -77.5 24t-66.5 68.5t-89 159.5q-67 134 -101.5 180.5t-74.5 72.5t-89 26z" />
  </g>

</svg>
