<?xml version="1.0" standalone="no"?>
<!DOCTYPE svg PUBLIC "-//W3C//DTD SVG 1.1//EN" "http://www.w3.org/Graphics/SVG/1.1/DTD/svg11.dtd" >
<svg xmlns="http://www.w3.org/2000/svg" xmlns:xlink="http://www.w3.org/1999/xlink" version="1.1" viewBox="-10 0 2112 2048">
  <g transform="matrix(1 0 0 -1 0 1638)">
   <path fill="currentColor"
d="M375 1298q0 51 8 87.5t28.5 60.5t56 35.5t90.5 11.5h3q-15 79 -47 135t-83 91.5t-120 51.5t-157 16q-8 0 -17.5 3.5t-17.5 10.5t-13.5 17.5t-5.5 23.5q0 20 13.5 35.5t36.5 17.5q13 2 25.5 2h25.5q101 0 187.5 -26.5t152.5 -78t108 -127t53 -172.5h698q11 97 52.5 172.5
t107.5 127t153 78t188 26.5h25.5t25.5 -2q23 -2 36.5 -17.5t13.5 -35.5q0 -13 -5.5 -23.5t-13.5 -17.5t-17.5 -10.5t-17.5 -3.5q-89 0 -158 -16t-119.5 -51.5t-82.5 -91.5t-47 -135h3q55 0 90.5 -11.5t56 -35.5t28.5 -60.5t8 -87.5v-1147q0 -51 -8 -87.5t-28.5 -60.5
t-56 -35.5t-90.5 -11.5h-3q15 -80 47 -135.5t82.5 -91t119.5 -51.5t158 -16q8 0 17.5 -3.5t17.5 -10.5t13.5 -17.5t5.5 -23.5q0 -20 -13.5 -35.5t-36.5 -17.5q-13 -2 -25.5 -2h-25.5q-101 0 -188 26.5t-153 78t-107.5 126.5t-52.5 173h-698q-11 -98 -53 -173t-108 -126.5
t-152.5 -78t-187.5 -26.5h-25.5t-25.5 2q-23 2 -36.5 17.5t-13.5 35.5q0 13 5.5 23.5t13.5 17.5t17.5 10.5t17.5 3.5q88 0 157 16t120 51.5t83 91t47 135.5h-3q-55 0 -90.5 11.5t-56 35.5t-28.5 60.5t-8 87.5v1147zM1544 -4q43 0 70.5 9t43.5 28t22.5 48.5t6.5 69.5v311
l-1229 -442q33 -24 100 -24h986zM415 988l1227 442q-32 23 -98 23h-986q-43 0 -70.5 -9t-43.5 -28t-22.5 -48.5t-6.5 -69.5v-310zM415 514l1176 425h-1176v-425zM1687 1298q0 65 -17 99l-1160 -418h1177v319zM415 151q0 -31 3.5 -55.5t12.5 -42.5l1160 418h-1176v-320z
M1687 930l-1163 -419h1163v419zM1899 1857q-82 0 -158.5 -21.5t-138 -66t-103.5 -113.5t-55 -163h51q15 88 52 151.5t95 104t134.5 59.5t171.5 19q6 0 9.5 5t3.5 10q1 5 -2.5 8.5t-8.5 4.5q-12 2 -24.5 2h-26.5zM154 1827q94 0 171 -19t134.5 -59.5t95 -104t52.5 -151.5h50
q-13 94 -55 163t-103.5 113.5t-137.5 66t-158 21.5h-26.5t-24.5 -2q-5 -1 -8.5 -4.5t-2.5 -8.5q0 -5 3.5 -10t9.5 -5zM203 -408q82 0 158 21.5t137.5 66t103.5 113t55 163.5h-50q-15 -89 -52.5 -152t-95 -103.5t-134.5 -59.5t-171 -19q-6 0 -9.5 -5t-3.5 -10q-1 -5 2.5 -8.5
t8.5 -4.5q12 -2 24.5 -2h26.5zM1948 -378q-95 0 -171.5 19t-134.5 59.5t-95 103.5t-52 152h-51q13 -95 55 -163.5t103.5 -113t138 -66t158.5 -21.5h26.5t24.5 2q5 1 8.5 4.5t2.5 8.5q0 5 -3.5 10t-9.5 5zM609 1481q2 0 2 0.5t-2 0.5v-1zM1493 -32q-2 0 -2 -0.5t2 -0.5v1z
M1493 1482q-2 0 -2 -0.5t2 -0.5v1zM609 -33q2 0 2 0.5t-2 0.5v-1z" />
  </g>

</svg>
