<?xml version="1.0" standalone="no"?>
<!DOCTYPE svg PUBLIC "-//W3C//DTD SVG 1.1//EN" "http://www.w3.org/Graphics/SVG/1.1/DTD/svg11.dtd" >
<svg xmlns="http://www.w3.org/2000/svg" xmlns:xlink="http://www.w3.org/1999/xlink" version="1.1" viewBox="-10 0 2288 2048">
  <g transform="matrix(1 0 0 -1 0 1638)">
   <path fill="currentColor"
d="M1200 1298l61 -64v-103l42 -70h-121l-27 59v71l-15 17l-14 -17v-71l-27 -59h-121l42 70v103l61 64v614q0 76 -3 125t-19 69q-45 -87 -62.5 -145.5t-24.5 -146.5h-85q-7 70 -7 130q0 87 17.5 166t43.5 139.5t44 92.5t51 84q41 62 52.5 91.5t19.5 101.5t6 93h59
q32 -31 51 -77t19 -100q0 -141 -112 -309q35 -23 52 -80t17 -177v-671zM1056 380q0 63 39 164q-53 2 -98 9q8 -49 8 -103q0 -79 -30 -126t-70 -47q-34 0 -54 26t-20 69q0 47 22 93.5t60 104.5q-49 16 -82 32q0 -51 -13 -114.5t-46.5 -101t-69.5 -37.5q-31 0 -49 23t-18 60
q0 48 28.5 97.5t93.5 114.5l-61 45q-13 -54 -39 -110.5t-62 -85t-69 -29.5q-26 0 -46 19t-20 52q0 101 174 206l-37 34q-68 59 -90 72.5t-43.5 20.5t-48.5 7q-55 0 -87.5 -55t-32.5 -139v-652h-195v775q0 111 58.5 174t157.5 63h1646q99 0 157.5 -63t58.5 -174v-775h-195
v652q0 85 -32.5 139.5t-87.5 54.5q-25 0 -46.5 -6.5t-43.5 -19.5t-92 -74l-37 -34l27 -17q147 -95 147 -189q0 -33 -20 -52t-46 -19q-33 0 -69.5 29.5t-63 88t-37.5 107.5l-62 -45q65 -65 94 -115t29 -97q0 -38 -18.5 -60.5t-48.5 -22.5q-37 0 -70 37.5t-46 99.5t-13 116
q-31 -15 -83 -32q84 -115 84 -198q-1 -43 -20.5 -69t-54.5 -26q-40 0 -69.5 47.5t-29.5 125.5q0 51 7 103q-47 -8 -99 -9q40 -104 40 -164q0 -54 -23 -89.5t-60 -35.5t-60 35t-23 90zM1139 584q108 0 190.5 21.5t153 64t220.5 178.5q74 67 151 67q81 0 125 -62.5t44 -171.5
v-612h115v735q0 92 -46.5 144.5t-129.5 52.5h-1646q-82 0 -129 -52t-47 -145v-735h115v612q0 111 44.5 172.5t124.5 61.5q77 0 151 -67q150 -136 220 -178t151.5 -64t192.5 -22zM1153 2672q0 -44 -8.5 -96.5t-26 -87.5t-86.5 -144q-28 -45 -60 -125.5t-43.5 -163.5
t-11.5 -170l1 -31h16q8 71 28.5 133.5t84.5 178.5l43 70q113 160 113 299q0 68 -46 137h-4zM1121 1282l-61 -63v-85l-13 -31h25l14 32v77l54 58l55 -58v-77l14 -32h25l-13 31v85l-61 63v666q0 115 -13 168.5t-40 73.5l-21 -37q23 -25 29 -85t6 -156v-630zM787 625
q-59 -65 -86 -111t-27 -87q0 -38 29 -38q30 0 57.5 53t36.5 178zM1132 544q-36 -101 -36 -164q0 -34 11.5 -59.5t31.5 -25.5t31.5 25.5t11.5 59.5q0 60 -37 164h-13zM1481 620q9 -123 35.5 -177t58.5 -54q29 0 30 38q0 42 -29.5 88.5t-85.5 109.5zM1312 480q0 -64 8 -94.5
t23 -50t31 -19.5q34 0 34 55q0 70 -80 190l-12 -2zM949 561q-31 -46 -55 -98t-24 -92q0 -55 34 -55q24 0 43 38.5t19 124.5l-5 80zM661 717q-29 -18 -73.5 -53.5t-66.5 -67.5t-23 -60q0 -15 9 -23.5t20 -8.5q31 0 65.5 44t74.5 165zM1611 713q40 -121 74.5 -165t65.5 -44
q12 0 20 8.5t9 23.5q0 41 -45.5 88t-118.5 93zM1020 2268l40 -19l-53 -116l-40 19z" />
  </g>

</svg>
