<?xml version="1.0" standalone="no"?>
<!DOCTYPE svg PUBLIC "-//W3C//DTD SVG 1.1//EN" "http://www.w3.org/Graphics/SVG/1.1/DTD/svg11.dtd" >
<svg xmlns="http://www.w3.org/2000/svg" xmlns:xlink="http://www.w3.org/1999/xlink" version="1.1" viewBox="-10 0 2524 2048">
  <g transform="scale(1, -1)" transform-origin="center">
   <path fill="currentColor"
d="M2405 806v-133h-832q53 -86 53 -151q0 -86 -52.5 -131.5t-155.5 -45.5q-39 0 -81 14v-214h1077v-40h-225v-170h225v-40h-225v-170h225v-40h-2295v40h230v170h-230v40h230v170h-230v40h1098v274q-61 39 -132.5 102.5t-119.5 115.5l-34 36h-351q-42 -54 -113 -90t-143 -36
q-73 0 -122 31.5t-75.5 83.5t-26.5 108q0 119 42.5 185.5t117.5 66.5q62 0 151.5 -65t156.5 -151h1837zM214 766q7 -16 35 -53h2116v53h-2151zM389 -65h410v170h-410v-170zM389 -275h410v170h-410v-170zM839 -65h410v170h-410v-170zM1289 -65h410v170h-410v-170zM1739 -65
h410v170h-410v-170zM1289 -275h410v170h-410v-170zM839 -275h410v170h-410v-170zM1739 -275h410v170h-410v-170zM1563 490q0 32 -58 90.5t-125 92.5h-43v-171q36 -24 68 -36.5t71 -12.5q38 0 62.5 10.5t24.5 26.5zM1556 433q-36 -19 -93 -19q-56 0 -126.5 37.5t-151 107
t-111.5 114.5h-75q21 -21 49.5 -50t62 -61t71 -63.5t77 -57t80 -41t79.5 -15.5q96 0 138 48zM180 885q0 -31 22 -79h198q-66 70 -104 95t-66 25q-50 0 -50 -41zM343 617q-67 0 -122 66t-75 159q-4 -30 -4 -58q0 -89 52.5 -143t134.5 -54q50 0 102.5 22.5t93.5 63.5h-53
q-20 -25 -53.5 -40.5t-75.5 -15.5zM260 982q-41 0 -69 -30q21 9 51 9q35 0 101 -49t110 -106h63q-72 83 -141 129.5t-115 46.5zM1297 375l-40 20v-250h40v230zM1257 560l40 -30v143h-40v-113zM1585 539q-6 28 -23 67t-36 67h-72q86 -65 131 -134zM1132 673q26 -28 85 -80v80
h-85zM343 657q40 0 67 16h-124q24 -16 57 -16zM981 1103q0 118 84 202t202 84t202 -84t84 -202t-84 -202t-202 -84t-202 84t-84 202zM1021 1103q0 -102 72 -174t174 -72t174 72t72 174t-72 174t-174 72t-174 -72t-72 -174zM1226 1263v-316h-40v316h40zM1348 1263v-316h-40
v316h40zM1132 1418v156q-66 15 -101 48.5t-35 80.5q0 55 31 160q13 44 13 51q0 4 -18 19q-15 12 -29 28t-14 44q0 32 21 51.5t56 19.5q54 0 85 -47t31 -126v-485h-40zM1132 1903q0 58 -19 95.5t-57 37.5q-17 0 -27 -8.5t-10 -22.5q0 -21 29 -42q13 -11 22.5 -21.5t9.5 -27.5
q0 -15 -15 -63q-29 -93 -29 -148q0 -27 25.5 -52t70.5 -34v286zM1362 1418v485q0 79 31 126t85 47q35 0 56 -19.5t21 -51.5q0 -28 -14 -44t-29 -28q-18 -15 -18 -19l4 -20q31 -109 35.5 -137t4.5 -54q0 -48 -35 -81t-101 -48v-156h-40zM1402 1617q45 9 70.5 34t25.5 52
q0 55 -29 148q-15 48 -15 63q0 17 9.5 27.5t22.5 21.5q29 21 29 42q0 14 -10 22.5t-27 8.5q-38 0 -57 -37.5t-19 -95.5v-286z" />
  </g>

</svg>
