<?xml version="1.0" standalone="no"?>
<!DOCTYPE svg PUBLIC "-//W3C//DTD SVG 1.1//EN" "http://www.w3.org/Graphics/SVG/1.1/DTD/svg11.dtd" >
<svg xmlns="http://www.w3.org/2000/svg" xmlns:xlink="http://www.w3.org/1999/xlink" version="1.1" viewBox="-10 0 2530 2048">
  <g transform="matrix(1 0 0 -1 0 1638)">
   <path fill="currentColor"
d="M363 1775l-78 275h432l-79 -275h484l-78 275h432l-79 -275h484l-78 275h432l-79 -275h264v-633l-237 229h-104q71 -253 101 -460t30 -415q0 -193 -26 -359.5t-71 -262t-94 -95.5q-50 0 -94.5 96t-70.5 262t-26 359q0 410 130 875h-638q71 -253 101 -460t30 -415
q0 -193 -26 -359.5t-71 -262t-94 -95.5q-50 0 -94.5 96t-70.5 262t-26 359q0 410 130 875h-638q71 -253 101 -460t30 -415q0 -193 -26 -359.5t-71 -262t-94 -95.5q-50 0 -94.5 96t-70.5 262t-26 359q0 410 130 875h-103l-237 -229v633h263zM140 1735v-499l181 175h1878
l181 -175v499h-2240zM2170 496q0 389 -132 875h-39q-131 -482 -131 -875q0 -172 23 -330t57.5 -249.5t70.5 -91.5t70.5 91.5t57.5 250t23 329.5zM652 496q0 389 -132 875h-39q-131 -482 -131 -875q0 -172 23 -330t57.5 -249.5t70.5 -91.5t70.5 91.5t57.5 250t23 329.5z
M1411 496q0 389 -132 875h-39q-131 -482 -131 -875q0 -172 23 -330t57.5 -249.5t70.5 -91.5t70.5 91.5t57.5 250t23 329.5zM1097 2010l66 -235h192l67 235h-325zM1856 2010l66 -235h192l67 235h-325zM338 2010l66 -235h192l67 235h-325z" />
  </g>

</svg>
