<?xml version="1.0" standalone="no"?>
<!DOCTYPE svg PUBLIC "-//W3C//DTD SVG 1.1//EN" "http://www.w3.org/Graphics/SVG/1.1/DTD/svg11.dtd" >
<svg xmlns="http://www.w3.org/2000/svg" xmlns:xlink="http://www.w3.org/1999/xlink" version="1.1" viewBox="-10 0 1008 2048">
  <g transform="matrix(1 0 0 -1 0 1638)">
   <path fill="currentColor"
d="M700 45q0 214 -94 377l31 -734q0 -75 -19 -100.5t-66 -25.5h-40q-48 0 -67 27t-19 91l34 813q-84 -14 -107 -15t-32 -1q-99 0 -160 40.5t-61 111.5q0 62 41 94t101 32q110 0 224 -97l8 174q-76 17 -105 79q-11 25 -19 96q-8 69 -23 99.5t-57.5 47t-103.5 16.5v74
q17 10 72 24l39 494q10 101 46 140.5t97 39.5q80 0 112 -68q32 68 112 68q61 0 97 -39.5t46 -140.5l39 -494l72 -24v-74q-61 0 -102 -16.5t-56 -41.5t-25 -105q-10 -74 -20 -96q-29 -62 -106 -79l12 -294q79 -11 134.5 -55.5t85 -111.5t29.5 -146h-40q0 64 -24 122.5
t-68.5 97.5t-108.5 51q131 -191 131 -451h-40zM532 866q98 0 125 66q10 24 20 98q9 74 22 99.5t37 42t57.5 25.5t64.5 9v8q-75 43 -326 43t-326 -43v-8q43 0 86 -17t63.5 -44.5t32.5 -114.5q10 -81 23 -106.5t43.5 -41.5t77.5 -16zM512 1297v457q0 148 -92 148
q-91 0 -103 -144l-38 -481q93 18 233 20zM785 1277l-38 481q-12 144 -103 144q-92 0 -92 -148v-457q139 -2 233 -20zM464 605q-115 110 -222 110q-44 0 -73 -21.5t-29 -64.5q0 -50 48 -81t133 -31q17 0 32.5 1t107.5 16zM514 826l-9 -204l55 -61l-11 265h-35zM467 -336
q1 -62 45 -62h40q44 0 46 62l-1 44l-34 780q-3 6 -11.5 17t-18 23t-18.5 22t-12 14l-36 -856v-44z" />
  </g>

</svg>
