<?xml version="1.0" standalone="no"?>
<!DOCTYPE svg PUBLIC "-//W3C//DTD SVG 1.1//EN" "http://www.w3.org/Graphics/SVG/1.1/DTD/svg11.dtd" >
<svg xmlns="http://www.w3.org/2000/svg" xmlns:xlink="http://www.w3.org/1999/xlink" version="1.1" viewBox="-10 0 2684 2048">
  <g transform="matrix(1 0 0 -1 0 1638)">
   <path fill="currentColor"
d="M1235 592q0 30 11 77l10 167l-72 9l2 -83q0 -129 -15.5 -173.5t-44 -62.5t-54.5 -18q-44 0 -72.5 26t-28.5 77q0 41 29 99t79 137l10 18q-57 15 -97 31l-3 -24q-29 -187 -64.5 -237t-85.5 -50q-39 0 -69.5 27t-30.5 71q0 41 26 83.5t124 152.5l15 18q-56 31 -85 52
q-74 -197 -114.5 -239.5t-86.5 -42.5q-36 0 -66.5 28.5t-30.5 69.5q0 39 31.5 80.5t167.5 139.5l25 19l-54 46q-108 96 -131.5 111.5t-47.5 23.5t-51 8q-55 0 -87.5 -55t-32.5 -139v-1010h-241v1205q0 108 67.5 172.5t172.5 64.5h935v61q-100 35 -170 160.5t-70 268.5
q0 76 29.5 131.5t79 91.5t108.5 48v83h170v-83q58 -11 107.5 -47t79.5 -91.5t30 -132.5q0 -143 -70 -268.5t-170 -160.5v-61h935q104 0 172 -65t68 -172v-1205h-241v1010q0 85 -32.5 139.5t-87.5 54.5q-35 0 -68 -15t-66 -43.5t-96 -84.5l-54 -46l13 -9q98 -69 154 -122
t57 -108q0 -41 -30.5 -69.5t-66.5 -28.5q-52 0 -96 53q-49 71 -105 229l-86 -52q97 -109 122 -143.5t34.5 -61.5t9.5 -49q0 -44 -30.5 -71t-69.5 -27q-62 0 -100 74q-25 57 -54 237q-40 -16 -97 -31q74 -122 96.5 -168.5t22.5 -85.5q0 -50 -28.5 -76.5t-72.5 -26.5
q-27 0 -55 18t-43 62.5t-15 173.5v56v27l-72 -9l10 -162q12 -58 12 -82q0 -22 -5 -42l13 -255l7 -175q0 -250 -117 -250t-117 250l6 176l13 256q-4 16 -4 40zM1337 874q129 0 239.5 33t207 88.5t221.5 167.5q62 57 87.5 74.5t51.5 26.5t60 9q81 0 125 -62.5t44 -171.5v-970
h161v1165q0 90 -55.5 143.5t-144.5 53.5h-1994q-89 0 -144.5 -53.5t-55.5 -143.5v-1165h161v970q0 111 44.5 172.5t124.5 61.5q77 0 151 -67q163 -148 261.5 -206t211 -92t243.5 -34zM1337 1562q67 0 127.5 56.5t97.5 151.5t37 191q0 70 -27.5 115.5t-64 71.5t-72.5 36
t-53 10v81h-90v-81q-17 0 -53 -10t-72.5 -36t-64 -71.5t-27.5 -115.5q0 -97 37 -191.5t97.5 -151t127.5 -56.5zM1337 472q-36 0 -61 19q-16 -309 -16 -371q0 -210 77 -210t77 210q0 21 -1.5 66t-15.5 305q-23 -19 -60 -19zM786 1012l-9 7l-34 -27q-71 -47 -126 -96.5
t-55 -90.5q0 -25 17.5 -41t38.5 -16q24 0 46 18t43.5 60.5t78.5 185.5zM1896 1019l-8 -7q59 -147 80 -187.5t42.5 -58.5t45.5 -18q21 0 39 16t18 41q-1 27 -23 56q-49 57 -159 131zM1275 592q0 -37 17 -58.5t45 -21.5t45 21.5t17 58.5q0 47 -57 242h-11l-11 -41
q-45 -154 -45 -201zM941 918l-22 -26q-63 -67 -101.5 -119.5t-38.5 -87.5q0 -28 17.5 -43.5t39.5 -15.5q37 0 61.5 41t51.5 211l6 34zM1719 912l6 -34q27 -169 51.5 -210.5t61.5 -41.5q23 0 39.5 15.5t17.5 43.5q0 31 -35 82t-105 125l-23 26zM1130 855l-17 -29
q-32 -48 -67 -113.5t-35 -100.5q0 -31 16.5 -47.5t42.5 -16.5q37 0 56.5 39.5t19.5 175.5l-1 54v35zM1529 852v-35l-1 -54q0 -108 9 -145t27 -53t40 -17q26 0 42.5 16.5t16.5 47.5q0 28 -23 76t-79 138l-17 29zM1326 1522l-11 1v-52h44v52l-10 -1h-23z" />
  </g>

</svg>
