<?xml version="1.0" standalone="no"?>
<!DOCTYPE svg PUBLIC "-//W3C//DTD SVG 1.1//EN" "http://www.w3.org/Graphics/SVG/1.1/DTD/svg11.dtd" >
<svg xmlns="http://www.w3.org/2000/svg" xmlns:xlink="http://www.w3.org/1999/xlink" version="1.1" viewBox="-10 0 2952 2048">
  <g transform="matrix(1 0 0 -1 0 1638)">
   <path fill="currentColor"
d="M2842 1011v-899h-377v-635h-1988v635h-377v899h156q-33 38 -54.5 88t-21.5 102q0 42 19.5 87.5t54.5 83.5q-90 16 -90 67q0 39 45.5 65.5t108.5 26.5q82 0 129.5 -45t47.5 -122q0 -29 -12 -59.5t-33.5 -60.5t-28.5 -40q-45 -59 -45 -84q0 -49 56 -109h209
q-33 38 -54.5 88t-21.5 102q0 42 19.5 87.5t54.5 83.5q-90 16 -90 67q0 39 45.5 65.5t108.5 26.5q82 0 129.5 -45t47.5 -122q0 -29 -12 -59.5t-33.5 -60.5t-28.5 -40q-45 -59 -45 -84q0 -49 56 -109h209q-33 38 -54.5 88t-21.5 102q0 42 19.5 87.5t54.5 83.5q-90 16 -90 67
q0 39 45.5 65.5t108.5 26.5q82 0 129.5 -45t47.5 -122q0 -29 -12 -59.5t-33.5 -60.5t-28.5 -40q-45 -59 -45 -84q0 -49 56 -109h209q-33 38 -54.5 88t-21.5 102q0 42 19.5 87.5t54.5 83.5q-90 16 -90 67q0 39 45.5 65.5t108.5 26.5q82 0 129.5 -45t47.5 -122
q0 -29 -12 -59.5t-33.5 -60.5t-28.5 -40q-45 -59 -45 -84q0 -49 56 -109h209q-33 38 -54.5 88t-21.5 102q0 42 19.5 87.5t54.5 83.5q-90 16 -90 67q0 39 45.5 65.5t108.5 26.5q82 0 129.5 -45t47.5 -122q0 -29 -12 -59.5t-33.5 -60.5t-28.5 -40q-45 -59 -45 -84
q0 -49 56 -109h209q-33 38 -54.5 88t-21.5 102q0 42 19.5 87.5t54.5 83.5q-90 16 -90 67q0 39 45.5 65.5t108.5 26.5q82 0 129.5 -45t47.5 -122q0 -29 -12 -59.5t-33.5 -60.5t-28.5 -40q-45 -59 -45 -84q0 -49 56 -109h209q-33 38 -54.5 88t-21.5 102q0 42 19.5 87.5
t54.5 83.5q-90 16 -90 67q0 39 45.5 65.5t108.5 26.5q82 0 129.5 -45t47.5 -122q0 -29 -12 -59.5t-33.5 -60.5t-28.5 -40q-45 -59 -45 -84q0 -49 56 -109h100zM2728 971q-37 36 -59.5 76t-22.5 73q0 27 15.5 53t37.5 55q38 51 52 80.5t14 55.5q0 59 -36.5 93t-100.5 34
q-55 0 -84.5 -16.5t-29.5 -35.5q0 -17 32 -26t79 -9v-31q-42 -31 -68.5 -81.5t-26.5 -90.5q0 -57 35.5 -120.5t89.5 -109.5h-312q-37 36 -59.5 76t-22.5 73q0 27 15.5 53t37.5 55q38 51 52 80.5t14 55.5q0 59 -36.5 93t-100.5 34q-55 0 -84.5 -16.5t-29.5 -35.5
q0 -17 32 -26t79 -9v-31q-42 -31 -68.5 -81.5t-26.5 -90.5q0 -57 35.5 -120.5t89.5 -109.5h-312q-37 36 -59.5 76t-22.5 73q0 27 15.5 53t37.5 55q38 51 52 80.5t14 55.5q0 59 -36.5 93t-100.5 34q-55 0 -84.5 -16.5t-29.5 -35.5q0 -17 32 -26t79 -9v-31
q-42 -31 -68.5 -81.5t-26.5 -90.5q0 -57 35.5 -120.5t89.5 -109.5h-312q-37 36 -59.5 76t-22.5 73q0 27 15.5 53t37.5 55q38 51 52 80.5t14 55.5q0 59 -36.5 93t-100.5 34q-55 0 -84.5 -16.5t-29.5 -35.5q0 -17 32 -26t79 -9v-31q-42 -31 -68.5 -81.5t-26.5 -90.5
q0 -57 35.5 -120.5t89.5 -109.5h-312q-37 36 -59.5 76t-22.5 73q0 27 15.5 53t37.5 55q38 51 52 80.5t14 55.5q0 59 -36.5 93t-100.5 34q-55 0 -84.5 -16.5t-29.5 -35.5q0 -17 32 -26t79 -9v-31q-42 -31 -68.5 -81.5t-26.5 -90.5q0 -57 35.5 -120.5t89.5 -109.5h-312
q-37 36 -59.5 76t-22.5 73q0 27 15.5 53t37.5 55q38 51 52 80.5t14 55.5q0 59 -36.5 93t-100.5 34q-55 0 -84.5 -16.5t-29.5 -35.5q0 -17 32 -26t79 -9v-31q-42 -31 -68.5 -81.5t-26.5 -90.5q0 -57 35.5 -120.5t89.5 -109.5h-312q-37 36 -59.5 76t-22.5 73q0 27 15.5 53
t37.5 55q38 51 52 80.5t14 55.5q0 59 -36.5 93t-100.5 34q-55 0 -84.5 -16.5t-29.5 -35.5q0 -17 32 -26t79 -9v-31q-42 -31 -68.5 -81.5t-26.5 -90.5q0 -57 35.5 -120.5t89.5 -109.5h-205v-819h377v-635h1908v635h377v819h-74zM2296 465v-825h-1650v825h1650zM686 425v-745
h1570v745h-1570zM2673 839v-571h-248v315h-1908v-315h-248v571h2404zM309 799v-491h168v315h1988v-315h168v491h-2324z" />
  </g>

</svg>
