<?xml version="1.0" standalone="no"?>
<!DOCTYPE svg PUBLIC "-//W3C//DTD SVG 1.1//EN" "http://www.w3.org/Graphics/SVG/1.1/DTD/svg11.dtd" >
<svg xmlns="http://www.w3.org/2000/svg" xmlns:xlink="http://www.w3.org/1999/xlink" version="1.1" viewBox="-10 0 2940 2048">
  <g transform="matrix(1 0 0 -1 0 1638)">
   <path fill="currentColor"
d="M603 215h402q-243 45 -460.5 139t-444.5 265l39 67q165 -108 407.5 -198.5t492.5 -134.5q0 77 23.5 142t91.5 97t197 44q92 11 114 19.5t40 21.5t44.5 42t55.5 64h-1q74 91 114 117.5t80 26.5q126 0 126 -160v-408q90 17 176 39v587l-175 317l39 23l38 20l98 -177v94h88
v-254l272 -491q198 82 331 169l39 -67q-156 -118 -315 -203l67 -120q33 -7 78 -48.5t65.5 -94.5t20.5 -107q0 -87 -50 -87q-56 0 -126 75.5t-70 178.5q0 28 5 42l-68 122q-238 -114 -509 -162h428v-264h-1753v264zM643 -9h1673v184h-1673v-184zM1465 314q207 0 419 37v416
q0 120 -86 120q-29 0 -63.5 -24.5t-99.5 -105.5q-33 -41 -69 -78.5t-71 -54.5t-140 -28q-101 -10 -149.5 -26t-75 -40.5t-39 -71t-12.5 -112.5q190 -32 386 -32zM1465 215q362 0 687 96.5t623 308.5l-6 10q-251 -160 -608 -258t-696 -98q-341 0 -697 98t-607 258l-6 -10
q296 -211 622 -308t688 -97zM2188 826v-404q91 26 189 63zM2488 402l-23 -11l73 -131l-3 -47q0 -55 24 -102t63.5 -83t64.5 -36q28 0 28 47q0 53 -31 119t-100 103l-25 13zM1990 1302l-21 -12l438 -794l24 10zM2132 406l24 7v471l-24 43v-521zM2132 1110l24 -44v164h-24
v-120z" />
  </g>

</svg>
