<?xml version="1.0" standalone="no"?>
<!DOCTYPE svg PUBLIC "-//W3C//DTD SVG 1.1//EN" "http://www.w3.org/Graphics/SVG/1.1/DTD/svg11.dtd" >
<svg xmlns="http://www.w3.org/2000/svg" xmlns:xlink="http://www.w3.org/1999/xlink" version="1.1" viewBox="-10 0 1489 2048">
  <g transform="matrix(1 0 0 -1 0 1638)">
   <path fill="currentColor"
d="M1339 918q0 65 -25.5 94t-79.5 29q-55 0 -103 -43.5t-92 -116t-132 -273.5q-74 -170 -114 -240t-83 -125t-85.5 -88t-104 -61t-203.5 -66q-95 -25 -121.5 -37t-41 -27t-14.5 -35q0 -49 79 -49h1120v1038zM1379 -160h-1160q-119 0 -119 89q0 45 39.5 74.5t167.5 62.5
q157 39 240 85t159 154t165 319q94 212 142.5 289t102.5 122.5t118 45.5q74 0 109.5 -38.5t35.5 -124.5v-1078z" />
  </g>

</svg>
