<?xml version="1.0" standalone="no"?>
<!DOCTYPE svg PUBLIC "-//W3C//DTD SVG 1.1//EN" "http://www.w3.org/Graphics/SVG/1.1/DTD/svg11.dtd" >
<svg xmlns="http://www.w3.org/2000/svg" xmlns:xlink="http://www.w3.org/1999/xlink" version="1.1" viewBox="-10 0 2684 2048">
  <g transform="matrix(1 0 0 -1 0 1638)">
   <path fill="currentColor"
d="M2334 1471q104 0 172 -65t68 -172v-1205h-241v1010q0 85 -32.5 139.5t-87.5 54.5q-35 0 -68 -15t-66 -43.5t-96 -84.5l-54 -46l13 -9q98 -69 154 -122t57 -108q0 -41 -30.5 -69.5t-66.5 -28.5q-52 0 -96 53q-49 71 -105 229l-86 -52q97 -109 122 -143.5t34.5 -61.5
t9.5 -49q0 -44 -30.5 -71t-69.5 -27q-62 0 -100 74q-25 57 -54 237q-40 -16 -97 -31q74 -122 96.5 -168.5t22.5 -85.5q0 -24 -11 -50.5t-37 -39.5t-53 -13l-28 4l-2 -21q-15 -177 -25 -347t-10 -201q0 -41 39 -247q-10 -62 -28 -97.5t-43 -57.5h-148q-34 0 -131 23t-118 23
q-32 0 -108 -21q-82 -24 -117 -25h-525v168q70 3 174 32q30 8 126 49q90 38 130 49q106 31 158 50.5t79 39.5q88 66 117 126.5t29 164.5l-11 345q-31 -57 -88 -57q-44 0 -72.5 26.5t-28.5 76.5q0 41 29 99t79 137l10 18q-57 15 -97 31l-3 -24q-29 -187 -64.5 -237t-85.5 -50
q-39 0 -69.5 27t-30.5 71q0 41 26 83.5t124 152.5l15 18q-56 31 -85 52q-74 -197 -114.5 -239.5t-86.5 -42.5q-36 0 -66.5 28.5t-30.5 69.5q0 39 31.5 80.5t167.5 139.5l25 19l-54 46q-108 96 -131.5 111.5t-47.5 23.5t-51 8q-55 0 -87.5 -55t-32.5 -139v-1010h-241v1205
q0 108 67.5 172.5t172.5 64.5h779l-20 446h539l-12 -446h708zM1337 874q129 0 239.5 33t207 88.5t221.5 167.5q62 57 87.5 74.5t51.5 26.5t60 9q81 0 125 -62.5t44 -171.5v-970h161v1165q0 90 -55.5 143.5t-144.5 53.5h-1994q-89 0 -144.5 -53.5t-55.5 -143.5v-1165h161v970
q0 111 44.5 172.5t124.5 61.5q77 0 151 -67q163 -148 261.5 -206t211 -92t243.5 -34zM1291 835q-54 1 -104 9q24 -518 24 -626q0 -122 -35.5 -197.5t-124.5 -134.5q-28 -20 -89.5 -40t-169.5 -50q-33 -9 -130 -50q-92 -40 -121 -47q-101 -28 -144 -28v-86l473 1q32 0 121 23
q88 22 117 22q28 0 127 -23q98 -23 129 -23h117q19 17 34.5 50t18.5 63q-8 30 -22.5 126.5t-14.5 118.5q0 110 9 272t22 280l4 44q-24 27 -33.5 69t-9.5 154v56v27q-50 -8 -106 -10q56 -187 56 -243q0 -55 -28 -87.5t-74 -32.5t-74 32.5t-28 87.5q0 49 32 159zM1159 1471
h427l10 402h-454zM786 1012l-9 7l-34 -27q-71 -47 -126 -96.5t-55 -90.5q0 -25 17.5 -41t38.5 -16q24 0 46 18t43.5 60.5t78.5 185.5zM1896 1019l-8 -7q59 -147 80 -187.5t42.5 -58.5t45.5 -18q21 0 39 16t18 41q-1 27 -23 56q-49 57 -159 131zM1275 592q0 -37 17 -58.5
t45 -21.5t45 21.5t17 58.5q0 47 -57 242h-11l-11 -41q-45 -154 -45 -201zM941 918l-22 -26q-63 -67 -101.5 -119.5t-38.5 -87.5q0 -28 17.5 -43.5t39.5 -15.5q37 0 61.5 41t51.5 211l6 34zM1719 912l6 -34q27 -169 51.5 -210.5t61.5 -41.5q23 0 39.5 15.5t17.5 43.5
q0 31 -35 82t-105 125l-23 26zM1130 855l-17 -29q-32 -48 -67 -113.5t-35 -100.5q0 -31 16.5 -47.5t42.5 -16.5q37 0 56.5 39.5t19.5 175.5l-1 54v35zM1529 852v-35l-1 -54q0 -108 9 -145t27 -53t40 -17q26 0 42.5 16.5t16.5 47.5q0 28 -23 76t-79 138l-17 29z" />
  </g>

</svg>
