<?xml version="1.0" standalone="no"?>
<!DOCTYPE svg PUBLIC "-//W3C//DTD SVG 1.1//EN" "http://www.w3.org/Graphics/SVG/1.1/DTD/svg11.dtd" >
<svg xmlns="http://www.w3.org/2000/svg" xmlns:xlink="http://www.w3.org/1999/xlink" version="1.1" viewBox="-10 0 1128 2048">
  <g transform="matrix(1 0 0 -1 0 1638)">
   <path fill="currentColor"
d="M758 1292l180 351q40 77 40 128q0 40 -21 70t-56 30q-37 0 -57 -18t-20 -49q0 -15 7.5 -29t20.5 -14q15 0 23.5 11t8.5 26l40 -2q0 -29 -20 -52t-52 -23q-28 0 -48 24.5t-20 58.5q0 48 31.5 77.5t85.5 29.5q50 0 83.5 -40.5t33.5 -99.5q0 -61 -44 -146l-172 -336v-73
l-43 -57l13 -8l5 -3q53 0 86.5 -20t33.5 -53t-24.5 -55.5t-90.5 -40.5q-25 -151 -80 -227l225 -887h-237l47 -314h-356l46 314h-236l224 887q-60 84 -79 226q-73 23 -94 44.5t-21 52.5q0 34 31.5 53.5t87.5 19.5l17 12l-41 56v73l-172 336q-44 85 -44 146q0 59 33 99.5
t84 40.5q54 0 85.5 -29t31.5 -78q0 -34 -19.5 -58.5t-48.5 -24.5q-33 0 -52.5 22.5t-19.5 52.5l40 2q0 -15 8.5 -26t23.5 -11q13 0 20.5 14t7.5 29q0 31 -20.5 49t-56.5 18q-35 0 -56 -30t-21 -70q0 -51 40 -128l180 -351h398zM559 671q-64 0 -113 45l-205 -811h636
l-206 811q-47 -45 -112 -45zM559 711q68 0 117 77t70 223q53 15 82 28t29 36q0 30 -71 33l-23 -1q-39 34 -93.5 53t-110.5 19q-58 0 -111.5 -19t-92.5 -53l-22 1q-72 -3 -72 -33q0 -23 29 -36t82 -28q20 -145 69 -222.5t118 -77.5zM468 -135l-41 -274h264l-42 274h-181z
M559 1219q74 0 164 -42l39 52v23h-406v-23l36 -49q81 39 167 39zM558 915q8 0 13 7.5t5 17.5q0 16 -7 39q-7 22 -7 46q0 25 24.5 43.5t59.5 18.5q26 0 49.5 -9t32.5 -15q0 -27 -7 -51l-18 1q-55 0 -92 -17q9 -18 17 -53.5t8 -41.5q0 -23 -24 -35.5t-54 -12.5q-31 0 -54.5 12
t-23.5 34q0 12 7.5 44t17.5 53q-37 17 -94 17l-17 -1q-7 24 -7 51q40 24 83 24q34 0 59 -18.5t25 -43.5q0 -20 -12 -65l-3 -20q0 -10 5.5 -17.5t13.5 -7.5zM500 836q26 -14 56 -14q32 0 60 14l24 -49q-40 -17 -84 -17q-42 0 -81 17z" />
  </g>

</svg>
