<?xml version="1.0" standalone="no"?>
<!DOCTYPE svg PUBLIC "-//W3C//DTD SVG 1.1//EN" "http://www.w3.org/Graphics/SVG/1.1/DTD/svg11.dtd" >
<svg xmlns="http://www.w3.org/2000/svg" xmlns:xlink="http://www.w3.org/1999/xlink" version="1.1" viewBox="-10 0 1882 2048">
  <g transform="matrix(1 0 0 -1 0 1638)">
   <path fill="currentColor"
d="M617 286l-459 483q-27 28 -42.5 55t-15.5 68q0 46 33.5 80t86.5 34q49 0 81.5 -29.5t32.5 -68.5q0 -36 -20 -64l374 -229l-33 -29q-56 -49 -56 -105q0 -49 27 -109q12 48 28 75l-1 83l96 97q23 146 23 163q0 59 -19 137.5t-76 231.5l-44 56q-93 111 -130.5 179t-37.5 122
v140q0 52 -46 52q-25 0 -37 -10.5t-14 -17.5h-36v34q0 68 47 105q22 18 63 57q19 34 67 52t111 18q64 0 110 -19.5t81 -58t74 -120.5l94 -50q99 -94 261 -314l79 -108l16 -18q30 -38 120.5 -143t104.5 -116q60 -50 212 -196l-49 -46l-69 43l-88 51l114 -169l-236 -146
l-153 281q-28 53 -68.5 88t-76.5 35v-272q-71 57 -107 65v-139q79 -48 79 -142q0 -23 -5 -47q18 -56 18 -119h-138v-334h-113v334h-23v-724h-113v724h-127zM874 568q140 0 209 -104v4q0 23 -14.5 49t-34.5 43t-31 17v206q34 -8 107 -44v247q127 0 214 -157l137 -245l174 109
l-130 196q-141 82 -525 290l-284 150q-67 30 -117.5 87.5t-50.5 115.5q0 61 73 108.5t174 53.5l2 -34q-88 -6 -149 -44t-61 -84q0 -43 40 -89.5t111 -85.5q744 -386 995 -557l8 10l-193 167q-10 9 -37 39t-206 245q-226 310 -337 415l-96 52q-44 89 -73 119.5t-67 45.5
t-92 15q-59 0 -98.5 -12t-46.5 -33l-47 -45l-18 -15q-36 -29 -41 -72q39 52 82 52q26 0 52 -23l7 -1q10 0 10 9l-1 10q-14 0 -25 10.5t-11 25.5q0 14 11 26t28 12h67q42 0 71 -26.5t29 -66.5q0 -24 -17.5 -46.5t-46.5 -40.5t-36.5 -20t-13.5 -2q-10 0 -12 11h-12v-19h-25
q0 47 -24 81.5t-60 34.5q-16 0 -37 -18h5l9 1q86 0 86 -109v-116q0 -53 47.5 -129t142 -185.5t147.5 -165.5q63 -68 95.5 -137.5t32.5 -130.5l-10 -172l-31 1q-33 0 -69 -5.5t-54 -30.5q37 7 68 7zM140 892q0 -29 13.5 -50.5t34.5 -44.5l388 -409q-17 45 -17 93q0 75 62 128
l-378 232q51 31 51 67q0 20 -19.5 39t-54.5 19q-38 0 -59 -22.5t-21 -51.5zM874 528q-97 0 -154.5 -55.5t-62.5 -146.5h434q-5 94 -62.5 148t-154.5 54zM862 796q34 -4 68 -27l1 22q0 45 -31.5 105t-85.5 118l-71 82q24 -71 46 -149.5t22 -156.5v-20l-2 -20l-21 -127
q-72 -88 -95 -111l4 -8q24 22 55 38q25 40 79 80zM784 -398h33v684h-33v-684zM920 -8h33v294h-33v-294zM621 1710q0 -10 -4 -14q42 33 42 63q0 29 -22.5 49.5t-56.5 20.5h-25q5 -10 5 -17q0 -19 -17 -30l6 -17q0 -18 -28 -25q18 -28 23 -48l-1 14q0 18 10.5 30.5t28.5 12.5
q20 0 29.5 -14t9.5 -25zM868 624q18 6 58 6l6 96q-24 15 -42 20q-7 -27 -22 -122zM582 1726q-18 0 -18 -22q0 -11 6 -17.5t12 -6.5q16 0 16 24q0 7 -4 14.5t-12 7.5zM504 1814q0 -16 16 -16q17 0 17 16t-17 16q-16 0 -16 -16z" />
  </g>

</svg>
