<?xml version="1.0" standalone="no"?>
<!DOCTYPE svg PUBLIC "-//W3C//DTD SVG 1.1//EN" "http://www.w3.org/Graphics/SVG/1.1/DTD/svg11.dtd" >
<svg xmlns="http://www.w3.org/2000/svg" xmlns:xlink="http://www.w3.org/1999/xlink" version="1.1" viewBox="-10 0 1299 2048">
  <g transform="matrix(1 0 0 -1 0 1638)">
   <path fill="currentColor"
d="M100 -55q0 125 62 233t170 170.5t232 62.5q125 0 233 -62t170.5 -170t62.5 -234q0 -124 -62.5 -232t-170 -170t-233.5 -62q-124 0 -232 62.5t-170 170.5t-62 231zM325 297q-68 -47 -113 -114l239 -238l-238 -238q48 -69 113 -113l238 238l238 -238q66 44 114 112
l-239 239l239 239q-45 68 -113 113l-239 -239zM990 -55q0 109 -53 204l-204 -204l204 -204q53 92 53 204zM564 371q-111 0 -205 -53l205 -204l204 204q-95 53 -204 53zM140 -55q0 -107 52 -203l203 203l-204 203q-51 -92 -51 -203zM564 -479q109 0 203 52l-203 203
l-203 -203q94 -52 203 -52zM660 598q18 188 116 188q34 0 52 -22t18 -61q0 -27 -8 -57t-8 -57q0 -88 34.5 -145t79.5 -57q14 0 14 21l-3 14q-69 127 -69 271q0 54 15.5 116t67.5 188q64 150 85.5 242.5t21.5 187.5q0 50 -22 182q-12 62 -12 84q0 14 10 30t51 75
q46 65 46 119q0 30 -19.5 47.5t-54.5 17.5q-78 0 -89 -126q-6 -55 -19.5 -86t-49.5 -69t-119 -108q-151 -128 -210.5 -193t-104 -134t-68.5 -136t-36 -154.5t-12 -168.5q69 -2 118 -31t78.5 -76t35.5 -102h61zM564 557q0 58 -27.5 108.5t-76 78t-112.5 27.5l-21 -1
q0 108 13 216.5t56.5 201t125 192t241.5 235.5q100 81 137.5 124.5t40.5 96.5q6 91 42.5 138.5t91.5 47.5q48 0 81 -28t33 -71q0 -77 -75 -175q-32 -44 -32 -55q0 -23 11 -80q23 -118 23 -186q0 -94 -21 -187.5t-88 -252.5q-31 -74 -55.5 -147.5t-24.5 -146.5
q0 -135 58 -251q16 -32 16 -52q0 -10 -14 -25.5t-41 -15.5q-37 0 -73 31t-59 86.5t-23 122.5q0 26 7.5 56t7.5 58q0 14 -4.5 27.5t-25.5 13.5q-35 0 -55.5 -42.5t-30.5 -144.5h-126z" />
  </g>

</svg>
