<?xml version="1.0" standalone="no"?>
<!DOCTYPE svg PUBLIC "-//W3C//DTD SVG 1.1//EN" "http://www.w3.org/Graphics/SVG/1.1/DTD/svg11.dtd" >
<svg xmlns="http://www.w3.org/2000/svg" xmlns:xlink="http://www.w3.org/1999/xlink" version="1.1" viewBox="-10 0 1318 2048">
  <g transform="matrix(1 0 0 -1 0 1638)">
   <path fill="currentColor"
d="M515 668q-8 13 -12 30q-66 -21 -147 -21h-11q-41 0 -96 10.5t-99 26.5v65q96 35 206 38q79 0 148 -22l9 22q-72 41 -131.5 102.5t-106.5 159.5l22 24l23 22q82 -40 148 -96.5t114 -141.5l31 12q-27 68 -27 167t38 206h64q38 -118 38 -206q0 -86 -27 -167l31 -12
q78 149 262 238l23 -22l22 -24q-46 -95 -104.5 -157t-134.5 -105l10 -22q69 22 148 22q107 -3 206 -38v-65q-105 -37 -195 -37q-92 0 -158 21q-3 -13 -13 -30q84 -47 140.5 -112t99.5 -151l-46 -46q-98 48 -160 107.5t-104 134.5l-26 -10q4 -551 56 -1039h-200
q47 477 56 1039l-27 10q-85 -156 -263 -242l-46 46q47 95 104 157t135 106zM100 1085q58 64 144.5 124.5t180.5 97.5q-18 66 -28.5 157t-10.5 155q0 178 40.5 273t118.5 95q76 0 109 -125q33 125 109 125q78 0 118.5 -95t40.5 -273q0 -150 -39 -312q90 -35 176.5 -95
t148.5 -127l-30 -28q-108 117 -250.5 186t-273.5 69t-273 -69t-251 -186zM654 1352q95 0 191 -32q37 148 37 299q0 161 -30.5 244.5t-88.5 83.5q-42 0 -64.5 -70.5t-24.5 -179.5h-40q-2 111 -24.5 180.5t-64.5 69.5q-58 0 -88.5 -83t-30.5 -245q0 -155 36 -299q98 32 192 32
zM536 745q0 -49 35 -84.5t85 -35.5q49 0 84.5 35t35.5 85q0 49 -35 84.5t-85 35.5q-49 0 -84.5 -35t-35.5 -85zM652 585q-9 -558 -52 -993h112q-45 461 -52 993h-8zM659 905q27 70 27 161q0 62 -26 166h-8q-26 -75 -26 -166q0 -50 9.5 -97t16.5 -64h7zM762 864l14 -14
q66 37 116.5 88t96.5 133l-6 6q-146 -76 -221 -213zM535 850l14 14q-76 137 -220 213l-6 -6q46 -83 97 -134.5t115 -86.5zM816 737q63 -20 140 -20q75 0 166 26v8q-85 26 -165 26q-69 0 -142 -20l1 -12v-8zM496 757q-73 20 -141 20q-80 0 -165 -26v-8q91 -26 166 -26
q77 0 140 20v20zM760 623q31 -59 82 -111t140 -104l6 5q-76 146 -215 222zM539 635q-139 -76 -215 -222l6 -5q88 52 138.5 103t83.5 112z" />
  </g>

</svg>
