<?xml version="1.0" standalone="no"?>
<!DOCTYPE svg PUBLIC "-//W3C//DTD SVG 1.1//EN" "http://www.w3.org/Graphics/SVG/1.1/DTD/svg11.dtd" >
<svg xmlns="http://www.w3.org/2000/svg" xmlns:xlink="http://www.w3.org/1999/xlink" version="1.1" viewBox="-10 0 2695 2048">
  <g transform="matrix(1 0 0 -1 0 1638)">
   <path fill="currentColor"
d="M100 977q147 37 260 103t138 131h62q21 -44 54 -79v849h1518v-823l38 1q201 0 308 -62t107 -175q0 -118 -105 -177.5t-310 -59.5h-17l-21 1v-1219h-1518v1245q-33 -35 -54 -79h-62q-24 65 -137 130.5t-261 103.5v110zM1251 -389h737v1086q-124 12 -586 74
q-416 58 -479 58q-89 0 -165 -26v-250h493v-942zM758 1041q76 -26 165 -26q63 0 479 58q432 58 586 73v691h-1230v-796zM923 975q-126 0 -226.5 48.5t-153.5 133.5q-35 -121 -35 -243q0 -121 35 -226q47 86 148.5 133.5t231.5 47.5q47 0 485 -58q636 -86 762 -86
q375 0 375 197q0 95 -99 146t-276 51q-123 0 -610 -65q-583 -79 -637 -79zM1147 -389h64v902h-493v273q-39 -20 -64 -39v-1240h1438v1181l-64 6v-1123h-1310v878h429v-838zM758 -389h349v798h-349v-798zM1378 1571q142 0 242 -103.5t100 -258.5h-684q0 155 100 258.5
t242 103.5zM654 1096q27 -21 64 -38v819h1310v-727l64 6v785h-1438v-845zM1678 1249q-6 73 -46.5 138t-107.5 104.5t-146 39.5q-77 0 -144.5 -39t-108.5 -104t-47 -139h600zM140 897q109 -32 204 -79t148 -100q-24 87 -24 196t28 217q-50 -52 -147 -102.5t-209 -81.5v-50z
" />
  </g>

</svg>
