<?xml version="1.0" standalone="no"?>
<!DOCTYPE svg PUBLIC "-//W3C//DTD SVG 1.1//EN" "http://www.w3.org/Graphics/SVG/1.1/DTD/svg11.dtd" >
<svg xmlns="http://www.w3.org/2000/svg" xmlns:xlink="http://www.w3.org/1999/xlink" version="1.1" viewBox="-10 0 2594 2048">
  <g transform="matrix(1 0 0 -1 0 1638)">
   <path fill="currentColor"
d="M2236 863q-251 149 -567 214q-27 -9 -69 -36.5t-59 -45.5v1q-52 -58 -70 -147q-8 -42 -38 -74t-72 -43l31 -154q74 -368 74 -635q0 -228 -47 -363.5t-127 -135.5t-127 135t-47 364q0 267 74 635l31 154q-42 11 -72 43t-38 74q-18 89 -70 147v-1q-18 19 -59.5 46t-68.5 36
q-316 -65 -567 -214v-1396h-248v1531q314 193 601 280.5t591 87.5q303 0 590 -87.5t602 -280.5v-1531h-248v1396zM1292 1158q253 0 515.5 -74t468.5 -199v-1378h168v1469q-309 187 -585 268.5t-567 81.5q-301 0 -579 -85t-573 -265v-1469h168v1378q208 126 470 199.5
t514 73.5zM1292 -516q55 0 94.5 128.5t39.5 330.5q0 296 -113 823q47 5 79.5 30.5t38.5 60.5q8 38 26.5 81.5t48 77.5t98.5 74q-150 28 -312 28t-312 -28q67 -39 93 -68q59 -65 80 -165q6 -35 38.5 -60.5t79.5 -30.5q-113 -527 -113 -823q0 -204 39.5 -331.5t94.5 -127.5z
" />
  </g>

</svg>
