<?xml version="1.0" standalone="no"?>
<!DOCTYPE svg PUBLIC "-//W3C//DTD SVG 1.1//EN" "http://www.w3.org/Graphics/SVG/1.1/DTD/svg11.dtd" >
<svg xmlns="http://www.w3.org/2000/svg" xmlns:xlink="http://www.w3.org/1999/xlink" version="1.1" viewBox="-10 0 2524 2048">
  <g transform="matrix(1 0 0 -1 0 1638)">
   <path fill="currentColor"
d="M657 1309q0 59 25 190q13 65 13 104l-2 36q-16 -8 -35 -8q-30 0 -54 26.5t-24 58.5q0 48 29 77.5t84 29.5q67 0 103.5 -58.5t36.5 -177.5q0 -50 -15 -130v1q-17 -99 -17 -149t17 -149v1q15 -80 15 -130q0 -89 -22.5 -147t-64.5 -78h1659v-133h-832q53 -86 53 -151
q0 -86 -52.5 -131.5t-155.5 -45.5q-39 0 -81 14v-214h1077v-40h-225v-170h225v-40h-225v-170h225v-40h-2295v40h230v170h-230v40h230v170h-230v40h1098v274q-61 39 -132.5 102.5t-119.5 115.5l-34 36h-351q-42 -54 -113 -90t-143 -36q-73 0 -122 31.5t-75.5 83.5t-26.5 108
q0 119 42.5 185.5t117.5 66.5q62 0 151.5 -65t156.5 -151h68q-56 27 -56 96q0 33 24 59t54 26q19 0 35 -8l2 36q0 39 -13 104q-25 131 -25 190zM2301 2145q103 0 103 -122v-67q0 -60 -24 -91t-79 -31h-2020q-55 0 -79 31t-24 91v67q0 122 103 122h2020zM2206 1276
q63 0 107 -24.5t67.5 -66t23.5 -91.5v-43q0 -83 -53.5 -132.5t-144.5 -49.5h-1056q-91 0 -144.5 49.5t-53.5 132.5v43q0 49 23.5 91t67 66.5t107.5 24.5h1056zM281 2105q-63 0 -63 -82v-67q0 -82 63 -82h2020q63 0 63 82v67q0 82 -63 82h-2020zM1150 1236
q-73 0 -115.5 -40.5t-42.5 -101.5v-43q0 -64 43 -103t115 -39h1056q73 0 115.5 39.5t42.5 102.5v43q0 60 -42.5 101t-115.5 41h-1056zM1671 1739q125 0 213 -92t99 -230h-624q11 138 99 230t213 92zM214 766q7 -16 35 -53h2116v53h-2151zM1671 1699q-102 0 -174 -67
t-92 -175h531q-20 108 -91 175t-174 67zM697 1309q0 -51 25 -182q12 -65 12 -118q0 -45 -11 -90h-25q-13 30 -40 30q-17 0 -27.5 -15.5t-10.5 -31.5q0 -26 17 -46.5t56 -20.5q48 0 74 49t26 147q0 43 -15 123q-17 99 -17 155t17 155q15 80 15 123q0 99 -26.5 147.5
t-73.5 48.5q-39 0 -56 -20.5t-17 -46.5q0 -16 10.5 -31.5t27.5 -15.5q27 0 40 30h25q11 -45 11 -90q0 -53 -12 -118q-25 -131 -25 -182zM389 -275h410v170h-410v-170zM1289 -275h410v170h-410v-170zM839 -275h410v170h-410v-170zM839 -65h410v170h-410v-170zM1739 -275h410
v170h-410v-170zM1289 -65h410v170h-410v-170zM389 -65h410v170h-410v-170zM1739 -65h410v170h-410v-170zM1563 490q0 32 -58 90.5t-125 92.5h-43v-171q36 -24 68 -36.5t71 -12.5q38 0 62.5 10.5t24.5 26.5zM1556 433q-36 -19 -93 -19q-56 0 -126.5 37.5t-151 107
t-111.5 114.5h-75q21 -21 49.5 -50t62 -61t71 -63.5t77 -57t80 -41t79.5 -15.5q96 0 138 48zM180 885q0 -31 22 -79h198q-66 70 -104 95t-66 25q-50 0 -50 -41zM343 617q-67 0 -122 66t-75 159q-4 -30 -4 -58q0 -89 52.5 -143t134.5 -54q50 0 102.5 22.5t93.5 63.5h-53
q-20 -25 -53.5 -40.5t-75.5 -15.5zM260 982q-41 0 -69 -30q21 9 51 9q35 0 101 -49t110 -106h63q-72 83 -141 129.5t-115 46.5zM1297 375l-40 20v-250h40v230zM1257 560l40 -30v143h-40v-113zM1585 539q-6 28 -23 67t-36 67h-72q86 -65 131 -134zM1132 673q26 -28 85 -80v80
h-85zM343 657q40 0 67 16h-124q24 -16 57 -16z" />
  </g>

</svg>
