<?xml version="1.0" standalone="no"?>
<!DOCTYPE svg PUBLIC "-//W3C//DTD SVG 1.1//EN" "http://www.w3.org/Graphics/SVG/1.1/DTD/svg11.dtd" >
<svg xmlns="http://www.w3.org/2000/svg" xmlns:xlink="http://www.w3.org/1999/xlink" version="1.1" viewBox="-10 0 2506 2048">
  <g transform="matrix(1 0 0 -1 0 1638)">
   <path fill="currentColor"
d="M1147 806v171q-231 35 -360.5 179t-136.5 368h69q45 -160 126.5 -251t213.5 -126q20 13 61 17l84 6q16 110 16 123q0 84 -59 243l-10 29q-91 119 -106.5 144.5t-25 51t-9.5 50.5v86q0 16 -2.5 31t-21.5 15q-30 0 -38 -21h-37v35q0 48 35 78q23 19 47 41q10 20 49.5 36
t91.5 16q68 0 116 -31t88 -114l70 -38q55 -53 189 -233q79 -107 152 -185l62 -70q15 30 28 67h58q0 -74 -13 -135l84 -77l-32 -50l-83 53l-10 -21l55 -81l-174 -108l-7 11q-120 -104 -300 -136v-174h979v-133h-841q53 -86 53 -151q0 -86 -52.5 -131.5t-155.5 -45.5
q-39 0 -81 14v-214h1077v-40h-225v-170h225v-40h-225v-170h225v-40h-2295v40h230v170h-230v40h230v170h-230v40h1098v274q-61 39 -132.5 102.5t-119.5 115.5l-34 36h-813v133h1047zM1923 1301l4 6q-61 46 -152 140.5t-153 176.5q-159 220 -247 305l-70 38q-33 67 -53.5 88.5
t-48 33t-69.5 11.5q-35 0 -58.5 -5.5t-36.5 -13t-13 -14.5l-33 -33q-13 -11 -26.5 -24.5t-17.5 -39.5q17 37 61 37q22 0 36 -16l6 -1q8 0 8 7l-1 8q-11 0 -21 7.5t-10 18.5q0 14 10 23t27 9h46q33 0 55.5 -22t22.5 -51q0 -25 -25 -48.5t-52 -30.5h-10q-8 0 -10 7h-9v-13h-22
q0 34 -16 59t-42 25q-14 0 -27 -13h3l7 1q62 0 62 -80v-86q0 -49 75 -137l33 -42q84 -105 137 -158q93 -103 93 -201l-7 -123q-65 0 -101 -6v-20q112 0 186 18v2l-64 6v147q34 -7 69 -32v181q52 0 98 -31.5t79 -92.5l91 -161l113 66l-99 147l-187 102l-375 199
q-46 20 -84.5 63t-38.5 86q0 44 53.5 79t127.5 38l2 -33q-69 -5 -107 -29t-38 -53q0 -35 31 -70t81 -60q513 -259 692 -385zM2356 713v53h-2216v-53h2216zM821 -275h410v170h-410v-170zM371 -275h410v170h-410v-170zM1721 -65h410v170h-410v-170zM821 -65h410v170h-410v-170
zM1271 -275h410v170h-410v-170zM371 -65h410v170h-410v-170zM1721 -275h410v170h-410v-170zM1271 -65h410v170h-410v-170zM1273 1007q254 0 422 150l-23 33q-141 -106 -399 -106q-240 0 -380 98t-203 302q9 -144 80 -250.5t204 -166.5t299 -60zM1545 490q0 32 -58 90.5
t-125 92.5h-43v-171q36 -24 68 -36.5t71 -12.5q38 0 62.5 10.5t24.5 26.5zM1187 806h190v168q-51 -6 -104 -6q-44 0 -86 4v-166zM1514 1156q84 26 142 73l-44 84q-22 41 -52 65.5t-54 24.5v-200q-54 43 -79 48v-75q8 0 63 -10zM1538 433q-36 -19 -93 -19q-56 0 -126.5 37.5
t-151 107t-111.5 114.5h-75q21 -21 49.5 -50t62 -61t71 -63.5t77 -57t80 -41t79.5 -15.5q96 0 138 48zM1243 1170l31 2l23 126q26 -5 50 -20l1 16q0 67 -86 163l-53 60q50 -142 50 -224v-15l-1 -15zM1279 375l-40 20v-250h40v230zM1239 560l40 -30v143h-40v-113zM1137 1958
v-6l-2 -6q27 24 27 44q0 23 -16.5 37.5t-40.5 14.5h-19q4 -4 4 -13q0 -13 -14 -22l5 -11q0 -13 -21 -20q13 -17 17 -35l-1 10q0 14 8.5 23.5t21.5 9.5q18 0 24.5 -9.5t6.5 -16.5zM1567 539q-6 28 -23 67t-36 67h-72q86 -65 131 -134zM1114 673q26 -28 85 -80v80h-85z
M1348 1245q-14 12 -31 15l-15 -87l42 3zM1106 1966q-14 0 -14 -16q0 -8 4.5 -13t9.5 -5q11 0 11 18q0 16 -11 16zM1835 1424l13 -12q4 16 10 72zM1047 2031q0 -11 13 -11q12 0 12 11q0 12 -12 12q-13 0 -13 -12zM1235 1125l13 -1h13v19q-12 0 -26 -18zM1162 1128l7 -1
q7 14 23 21l-30 -4v-16zM1223 1142q-19 0 -35 -16l18 -1zM1144 1131v12q-14 0 -24 -8zM1823 1324l3 5l-12 8zM1101 1142l-11 -1l7 -1z" />
  </g>

</svg>
