<?xml version="1.0" standalone="no"?>
<!DOCTYPE svg PUBLIC "-//W3C//DTD SVG 1.1//EN" "http://www.w3.org/Graphics/SVG/1.1/DTD/svg11.dtd" >
<svg xmlns="http://www.w3.org/2000/svg" xmlns:xlink="http://www.w3.org/1999/xlink" version="1.1" viewBox="-10 0 2560 2048">
  <g transform="matrix(1 0 0 -1 0 1638)">
   <path fill="currentColor"
d="M2370 790q-43 -180 -183 -312l30 -43q28 0 41 -6q22 -8 107 -102t85 -126q0 -41 -30 -71.5t-68 -30.5q-32 0 -56 21t-89.5 115t-65.5 111q0 31 5 36l-27 39q-150 -111 -364 -164h324v-306h-1764v306h323q-177 43 -319 118t-208 165q-11 15 -11 38l1 6l8 66q20 130 20 217
q0 91 -25 333h128q44 -276 44 -420q0 -52 -5 -102q30 -35 110.5 -74t191.5 -70t252 -50v401q0 70 35.5 121.5t95 79.5t129.5 28h166q69 0 129 -28t95.5 -79.5t35.5 -121.5v-408q191 19 337 61v282l-157 231l71 51l86 -126v123h88v-251l142 -209q87 53 180 151h112zM2276 750
q-170 -178 -434 -252.5t-675 -74.5q-222 0 -389.5 28t-283 66.5t-181.5 79.5t-84 68q7 51 7 116q0 151 -37 379h-49q19 -177 19 -293q0 -93 -20 -223l-8 -66l2 -14q68 -79 197.5 -148.5t293.5 -114t294 -44.5h511q205 0 397 64.5t314 173t168 255.5h-42zM355 -9h1684v226
h-1684v-226zM1167 463q154 0 304 11v411q0 58 -30 100t-81 65.5t-109 23.5h-166q-58 0 -109 -23.5t-81 -65.5t-30 -100v-406q136 -16 302 -16zM2163 457l-19 -16l39 -56l-3 -12l-3 -27q0 -13 50.5 -82.5t79 -104t47.5 -28.5q26 0 44 19.5t18 47.5q0 24 -70.5 102.5
t-101.5 95.5l-44 7zM1880 548l24 8v511h-24v-519zM2050 623l-114 169v-44l93 -137zM1735 1043l113 -166v44l-93 136zM1936 568l64 28l-64 95v-123z" />
  </g>

</svg>
