<?xml version="1.0" standalone="no"?>
<!DOCTYPE svg PUBLIC "-//W3C//DTD SVG 1.1//EN" "http://www.w3.org/Graphics/SVG/1.1/DTD/svg11.dtd" >
<svg xmlns="http://www.w3.org/2000/svg" xmlns:xlink="http://www.w3.org/1999/xlink" version="1.1" viewBox="-10 0 2524 2048">
  <g transform="matrix(1 0 0 -1 0 1638)">
   <path fill="currentColor"
d="M2405 806v-133h-832q53 -86 53 -151q0 -86 -52.5 -131.5t-155.5 -45.5q-39 0 -81 14v-214h1077v-40h-225v-170h225v-40h-225v-170h225v-40h-2295v40h230v170h-230v40h230v170h-230v40h1098v274q-61 39 -132.5 102.5t-119.5 115.5l-34 36h-351q-42 -54 -113 -90t-143 -36
q-73 0 -122 31.5t-75.5 83.5t-26.5 108q0 119 42.5 185.5t117.5 66.5q62 0 151.5 -65t156.5 -151h1837zM1464 2001h212l-8 -887q0 -41 12 -112q9 -63 9 -101t-31.5 -60.5t-79.5 -22.5q-32 0 -108 14q-51 11 -71 11q-27 0 -123 -27h-97q-40 2 -68.5 20t-31.5 38v50
q32 23 147 55l85 24q52 14 103 56t53 81zM1507 1140q0 -36 -27.5 -71t-73 -64t-84.5 -40q-163 -45 -203 -62v-20q0 -10 25.5 -18.5t42.5 -8.5h83q28 9 69.5 18t59.5 9q28 0 79 -11q76 -14 100 -14q31 0 51 11.5t20 31.5q0 34 -9 95q-12 71 -12 117l8 849h-132zM836 1018
q38 -10 58 -37t20 -59q0 -29 -24.5 -54.5t-67.5 -42.5l-22 23q34 26 34 62q0 15 -13.5 25.5t-29.5 10.5t-29.5 -10.5t-13.5 -25.5q0 -38 34 -62l-22 -23q-42 16 -67 42t-25 55q0 32 20 59t58 37v712q-105 -93 -118 -230h-37q-13 70 -13 153q0 75 15 116t38 76
q66 100 85.5 139.5t20.5 90.5h28q18 -19 30 -65.5t12 -93.5q0 -78 -28 -133l16 -10q41 -23 41 -118v-637zM2168 1018q38 -10 58 -37t20 -59q0 -29 -24.5 -54.5t-67.5 -42.5l-22 23q34 26 34 62q0 15 -13.5 25.5t-29.5 10.5t-29.5 -10.5t-13.5 -25.5q0 -38 34 -62l-22 -23
q-42 16 -67 42t-25 55q0 32 20 59t58 37v712q-105 -93 -118 -230h-37q-13 70 -13 153q0 75 15 116t38 76q66 100 85.5 139.5t20.5 90.5h28q18 -19 30 -65.5t12 -93.5q0 -78 -28 -133l16 -10q41 -23 41 -118v-637zM214 766q7 -16 35 -53h2116v53h-2151zM389 -275h410v170
h-410v-170zM1289 -275h410v170h-410v-170zM839 -275h410v170h-410v-170zM839 -65h410v170h-410v-170zM1739 -275h410v170h-410v-170zM1289 -65h410v170h-410v-170zM389 -65h410v170h-410v-170zM1739 -65h410v170h-410v-170zM1563 490q0 32 -58 90.5t-125 92.5h-43v-171
q36 -24 68 -36.5t71 -12.5q38 0 62.5 10.5t24.5 26.5zM1556 433q-36 -19 -93 -19q-56 0 -126.5 37.5t-151 107t-111.5 114.5h-75q21 -21 49.5 -50t62 -61t71 -63.5t77 -57t80 -41t79.5 -15.5q96 0 138 48zM789 978q36 0 53.5 -17.5t17.5 -41.5q0 -35 -18 -49l4 -5
q34 21 34 54q0 31 -19 53t-60 25v679q0 27 -7 37t-11 10l-3 -2l-2 -9l3 -46v-668q-42 -2 -62.5 -24.5t-20.5 -54.5q0 -33 34 -54l4 5q-18 14 -18 49q0 24 17.5 41.5t53.5 17.5zM2121 978q36 0 53.5 -17.5t17.5 -41.5q0 -35 -18 -49l4 -5q34 21 34 54q0 31 -19 53t-60 25v679
q0 27 -7 37t-11 10l-3 -2l-2 -9l3 -46v-668q-42 -2 -62.5 -24.5t-20.5 -54.5q0 -33 34 -54l4 5q-18 14 -18 49q0 24 17.5 41.5t53.5 17.5zM180 885q0 -31 22 -79h198q-66 70 -104 95t-66 25q-50 0 -50 -41zM343 617q-67 0 -122 66t-75 159q-4 -30 -4 -58q0 -89 52.5 -143
t134.5 -54q50 0 102.5 22.5t93.5 63.5h-53q-20 -25 -53.5 -40.5t-75.5 -15.5zM260 982q-41 0 -69 -30q21 9 51 9q35 0 101 -49t110 -106h63q-72 83 -141 129.5t-115 46.5zM1297 375l-40 20v-250h40v230zM2078 1959q-5 -36 -47 -99q-37 -57 -60.5 -117t-23.5 -99h15
q8 54 77 162q54 81 54 153h-15zM746 1959q-5 -36 -47 -99q-37 -57 -60.5 -117t-23.5 -99h15q8 54 77 162q54 81 54 153h-15zM1257 560l40 -30v143h-40v-113zM1585 539q-6 28 -23 67t-36 67h-72q86 -65 131 -134zM1132 673q26 -28 85 -80v80h-85zM343 657q40 0 67 16h-124
q24 -16 57 -16z" />
  </g>

</svg>
