<?xml version="1.0" standalone="no"?>
<!DOCTYPE svg PUBLIC "-//W3C//DTD SVG 1.1//EN" "http://www.w3.org/Graphics/SVG/1.1/DTD/svg11.dtd" >
<svg xmlns="http://www.w3.org/2000/svg" xmlns:xlink="http://www.w3.org/1999/xlink" version="1.1" viewBox="-10 0 2567 2048">
  <g transform="matrix(1 0 0 -1 0 1638)">
   <path fill="currentColor"
d="M2414 1039q-35 20 -51.5 56.5t-16.5 73.5q0 28 15 99l-20 128l-33 -132l16 -110l-33 -348h114v-133h-832q53 -86 53 -151q0 -86 -52.5 -131.5t-155.5 -45.5q-39 0 -81 14v-214h1077v-40h-225v-170h225v-40h-225v-170h225v-40h-2295v40h230v170h-230v40h230v170h-230v40
h1098v274q-61 39 -132.5 102.5t-119.5 115.5l-34 36h-351q-42 -54 -113 -90t-143 -36q-73 0 -122 31.5t-75.5 83.5t-26.5 108q0 119 42.5 185.5t117.5 66.5q62 0 151.5 -65t156.5 -151h286l24 48l14 9l84 133l59 194q-62 46 -97 125l-80 170l-240 -31l-54 49l-51 80l2 32
l150 149q-32 15 -65.5 72.5t-33.5 110.5q0 24 16 63.5t55 80.5l28 -8q-8 -48 -8 -86q0 -106 114 -157q24 15 55 15q16 0 40 -7q61 31 83 80t22 172l21 9q59 -77 59 -144q0 -89 -53 -146l39 11l8 -13l-13 -44l184 -40q232 -53 339 -53q50 0 223 25q173 24 235 24
q160 0 242 -38.5t97 -125.5l55 -291l16 -34q34 -69 34 -130q0 -32 -11 -69zM1363 1323l27 -83l-6 -21l440 -23l204 62l-104 162l40 16l113 -178l139 -102l-15 -300l56 -17l28 317l-17 108l54 206l-13 85q-9 53 -42 80.5t-96 41.5t-158 14q-51 0 -144 -13q-265 -37 -313 -37
q-110 0 -298 42q-215 48 -234 50l-14 -42l-84 -8l-11 29l68 14l21 69l-112 -54l-15 26q142 69 142 200q0 18 -18 63q0 -91 -39.5 -146.5t-106.5 -77.5l-12 20q-36 0 -58.5 -13t-48.5 -38l-183 -177l39 -67l91 20l13 -23l-90 -22l29 -13l241 31l85 70l25 -24l-82 -73l69 -162
q66 -146 237 -176l-61 83q-36 49 -52 100t-16 124h40q0 -70 14.5 -117t50.5 -95l75 -102l-55 -296l40 -14l104 386l-27 82zM1276 806h379l24 48l14 9l84 133l51 158l-93 -30l-13 27l38 12l-384 19zM214 766q7 -16 35 -53h2116v53h-2151zM1818 806h306l24 48l14 9l14 276
l-120 85l-37 -13l-46 -126zM839 -275h410v170h-410v-170zM839 -65h410v170h-410v-170zM1739 -275h410v170h-410v-170zM1289 -65h410v170h-410v-170zM389 -275h410v170h-410v-170zM389 -65h410v170h-410v-170zM1739 -65h410v170h-410v-170zM1289 -275h410v170h-410v-170z
M1563 490q0 32 -58 90.5t-125 92.5h-43v-171q36 -24 68 -36.5t71 -12.5q38 0 62.5 10.5t24.5 26.5zM1009 806h120l24 48l13 9l50 259l-41 9l-11 -46zM1556 433q-36 -19 -93 -19q-56 0 -126.5 37.5t-151 107t-111.5 114.5h-75q21 -21 49.5 -50t62 -61t71 -63.5t77 -57t80 -41
t79.5 -15.5q96 0 138 48zM1732 856l56 -14l151 257l31 98l-94 -30l-56 -178zM931 856l48 -14l151 257l5 41q-26 9 -64 32l-52 -183zM180 885q0 -31 22 -79h198q-66 70 -104 95t-66 25q-50 0 -50 -41zM343 617q-67 0 -122 66t-75 159q-4 -30 -4 -58q0 -89 52.5 -143
t134.5 -54q50 0 102.5 22.5t93.5 63.5h-53q-20 -25 -53.5 -40.5t-75.5 -15.5zM260 982q-41 0 -69 -30q21 9 51 9q35 0 101 -49t110 -106h63q-72 83 -141 129.5t-115 46.5zM1297 375l-40 20v-250h40v230zM728 1818q-54 25 -79.5 70.5t-25.5 129.5q-14 -31 -16.5 -42t-2.5 -29
q0 -65 25.5 -107t66.5 -52zM1257 560l40 -30v143h-40v-113zM1585 539q-6 28 -23 67t-36 67h-72q86 -65 131 -134zM717 1647l-9 40l11 25l78 17l6 -27l-43 -21l-21 -29zM1132 673q26 -28 85 -80v80h-85zM639 1588l-34 -30l-28 47l48 11zM343 657q40 0 67 16h-124
q24 -16 57 -16zM1703 806h54l4 10l-48 12zM902 806h54l4 10l-48 12zM2164 806h54l4 10l-48 12zM1169 806h54l3 10l-47 12zM422 1444q48 0 116 -44v1q98 0 152.5 -25.5t54.5 -73.5q0 -49 -38 -79q43 -71 43 -123q0 -66 -31.5 -102t-85.5 -36q-59 0 -129 46q-92 0 -146 25.5
t-54 73.5q0 46 35 76q-42 71 -42 125q0 69 29 102.5t96 33.5zM422 1404q-46 0 -65.5 -23.5t-19.5 -72.5q0 -54 50.5 -130.5t118.5 -126t127 -49.5q35 0 56 26t21 72q0 57 -53 133t-118.5 123.5t-116.5 47.5zM592 1359q51 -45 93 -104q20 14 20 47q0 47 -113 57zM448 1051
q-46 41 -88 100q-16 -16 -16 -44q0 -46 104 -56z" />
  </g>

</svg>
