<?xml version="1.0" standalone="no"?>
<!DOCTYPE svg PUBLIC "-//W3C//DTD SVG 1.1//EN" "http://www.w3.org/Graphics/SVG/1.1/DTD/svg11.dtd" >
<svg xmlns="http://www.w3.org/2000/svg" xmlns:xlink="http://www.w3.org/1999/xlink" version="1.1" viewBox="-10 0 2524 2048">
  <g transform="matrix(1 0 0 -1 0 1638)">
   <path fill="currentColor"
d="M703 806l2 7q2 13 19.5 23.5t51.5 13.5l15 93l2 27q0 91 -73 283l-51 70l-30 39q-61 74 -61 135v87l1 18q0 34 -25 34q-32 0 -36 -14l-2 -6h-38v38q0 22 5.5 38.5t17 31t67.5 58.5q7 20 43 37t92 17q68 0 117.5 -35.5t92.5 -126.5l70 -39q124 -124 254 -307l11 -13
q21 -28 83 -103.5t84 -93.5l144 -137l-47 -36l-111 66l78 -115l-136 -90h198l2 7q2 13 19.5 23.5t51.5 13.5l15 93l2 27q0 91 -73 283l-51 70l-30 39q-61 74 -61 135v87l1 18q0 34 -25 34q-32 0 -36 -14l-2 -6h-38v38q0 22 5.5 38.5t17 31t67.5 58.5q7 20 43 37t92 17
q68 0 117.5 -35.5t92.5 -126.5l70 -39q124 -124 254 -307l11 -13q21 -28 83 -103.5t84 -93.5l144 -137l-47 -36l-111 66l78 -115l-136 -90h224v-133h-832q53 -86 53 -151q0 -86 -52.5 -131.5t-155.5 -45.5q-39 0 -81 14v-214h1077v-40h-225v-170h225v-40h-225v-170h225v-40
h-2295v40h230v170h-230v40h230v170h-230v40h1098v274q-61 39 -132.5 102.5t-119.5 115.5l-34 36h-351q-42 -54 -113 -90t-143 -36q-73 0 -122 31.5t-75.5 83.5t-26.5 108q0 119 42.5 185.5t117.5 66.5q62 0 151.5 -65t156.5 -151h135zM599 1724q0 15 9.5 25t22.5 10h42
q44 0 65.5 -20.5t21.5 -50.5q0 -41 -76 -87l-13 -2q-8 0 -10 8h-8v-15h-22q0 35 -16 60.5t-43 25.5q-19 0 -28 -11h10q64 0 64 -83v-87q0 -52 65 -130l32 -42q73 -93 141 -161q99 -113 99 -214l-6 -121q-51 0 -90 -6v-17h193v17l-77 6v136q41 -9 73 -29v187q41 0 71 -14.5
t51 -34t34 -40.5t21 -34l95 -164l113 73l-88 126l-584 334q-60 30 -93 66.5t-33 72.5q0 50 51 84.5t134 40.5v-38q-145 -11 -145 -87q0 -26 20.5 -50.5t69 -52t745.5 -424.5l4 5l-147 128l-12.5 12.5t-80.5 95.5l-74 94q-138 189 -252 303l-71 39q-32 66 -53.5 90.5
t-49.5 37t-71 12.5t-72.5 -10t-35.5 -27l-51 -44q-27 -19 -27 -56l6 10q17 30 52 30q21 0 42 -18h3q9 0 9 7l-1 7q-10 0 -19.5 7t-9.5 20zM1437 1724q0 15 9.5 25t22.5 10h42q44 0 65.5 -20.5t21.5 -50.5q0 -41 -76 -87l-13 -2q-8 0 -10 8h-8v-15h-22q0 35 -16 60.5
t-43 25.5q-19 0 -28 -11h10q64 0 64 -83v-87q0 -52 65 -130l32 -42q73 -93 141 -161q99 -113 99 -214l-6 -121q-51 0 -90 -6v-17h193v17l-77 6v136q41 -9 73 -29v187q41 0 71 -14.5t51 -34t34 -40.5t21 -34l95 -164l113 73l-88 126l-584 334q-60 30 -93 66.5t-33 72.5
q0 50 51 84.5t134 40.5v-38q-145 -11 -145 -87q0 -26 20.5 -50.5t69 -52t745.5 -424.5l4 5l-147 128l-12.5 12.5t-80.5 95.5l-74 94q-138 189 -252 303l-71 39q-32 66 -53.5 90.5t-49.5 37t-71 12.5t-72.5 -10t-35.5 -27l-51 -44q-27 -19 -27 -56l6 10q17 30 52 30
q21 0 42 -18h3q9 0 9 7l-1 7q-10 0 -19.5 7t-9.5 20zM214 766q7 -16 35 -53h2116v53h-2151zM839 -65h410v170h-410v-170zM1289 -65h410v170h-410v-170zM1739 -275h410v170h-410v-170zM1739 -65h410v170h-410v-170zM839 -275h410v170h-410v-170zM389 -65h410v170h-410v-170z
M389 -275h410v170h-410v-170zM1289 -275h410v170h-410v-170zM1985 806h146l-103 185q-23 40 -53.5 67t-53.5 27v-208q-51 40 -77 45v-65q25 0 68.5 -7.5t72.5 -43.5zM1147 806h146l-103 185q-23 40 -53.5 67t-53.5 27v-208q-51 40 -77 45v-65q25 0 68.5 -7.5t72.5 -43.5z
M1563 490q0 32 -58 90.5t-125 92.5h-43v-171q36 -24 68 -36.5t71 -12.5q38 0 62.5 10.5t24.5 26.5zM1556 433q-36 -19 -93 -19q-56 0 -126.5 37.5t-151 107t-111.5 114.5h-75q21 -21 49.5 -50t62 -61t71 -63.5t77 -57t80 -41t79.5 -15.5q96 0 138 48zM180 885q0 -31 22 -79
h198q-66 70 -104 95t-66 25q-50 0 -50 -41zM343 617q-67 0 -122 66t-75 159q-4 -30 -4 -58q0 -89 52.5 -143t134.5 -54q50 0 102.5 22.5t93.5 63.5h-53q-20 -25 -53.5 -40.5t-75.5 -15.5zM1653 850l32 2l23 123q23 -3 46 -21l1 18q0 36 -24.5 82t-61.5 84l-50 56
q17 -55 34.5 -109.5t17.5 -114.5q0 -12 -18 -120zM815 850l32 2l23 123q23 -3 46 -21l1 18q0 36 -24.5 82t-61.5 84l-50 56q17 -55 34.5 -109.5t17.5 -114.5q0 -12 -18 -120zM260 982q-41 0 -69 -30q21 9 51 9q35 0 101 -49t110 -106h63q-72 83 -141 129.5t-115 46.5z
M1297 375l-40 20v-250h40v230zM1542 1645l-2 -11q11 8 21 23t10 31q0 22 -17 34.5t-42 12.5h-17q3 -3 3 -12q0 -12 -11 -23l4 -12l-1 -8q-4 -10 -22 -13q11 -16 18 -36l-1 10q0 14 7.5 24t20.5 10q15 0 22 -11t7 -19zM704 1645l-2 -11q11 8 21 23t10 31q0 22 -17 34.5
t-42 12.5h-17q3 -3 3 -12q0 -12 -11 -23l4 -12l-1 -8q-4 -10 -22 -13q11 -16 18 -36l-1 10q0 14 7.5 24t20.5 10q15 0 22 -11t7 -19zM1257 560l40 -30v143h-40v-113zM1585 539q-6 28 -23 67t-36 67h-72q86 -65 131 -134zM1132 673q26 -28 85 -80v80h-85zM1760 921l-17 10
l-10 6l-17 -84l40 4zM922 921l-17 10l-10 6l-17 -84l40 4zM343 657q40 0 67 16h-124q24 -16 57 -16zM1513 1657q-13 0 -13 -16q0 -18 13 -18q12 0 12 18q0 16 -12 16zM675 1657q-13 0 -13 -16q0 -18 13 -18q12 0 12 18q0 16 -12 16zM1455 1724q0 -12 12 -12q5 0 9.5 3.5
t4.5 8.5t-4.5 8.5t-9.5 3.5q-12 0 -12 -12zM617 1724q0 -12 12 -12q5 0 9.5 3.5t4.5 8.5t-4.5 8.5t-9.5 3.5q-12 0 -12 -12zM833 821q-18 0 -28 -15h28v15zM1671 821q-18 0 -28 -15h28v15zM762 825q-30 0 -33 -19h14q10 14 19 19zM1600 825q-30 0 -33 -19h14q10 14 19 19z
M1079 806h27q-11 8 -27 14v-14zM1917 806h27q-11 8 -27 14v-14zM1633 820q-20 0 -34 -14h18zM795 820q-20 0 -34 -14h18z" />
  </g>

</svg>
