<?xml version="1.0" standalone="no"?>
<!DOCTYPE svg PUBLIC "-//W3C//DTD SVG 1.1//EN" "http://www.w3.org/Graphics/SVG/1.1/DTD/svg11.dtd" >
<svg xmlns="http://www.w3.org/2000/svg" xmlns:xlink="http://www.w3.org/1999/xlink" version="1.1" viewBox="-10 0 2524 2048">
  <g transform="scale(1, -1)" transform-origin="center">
   <path fill="currentColor"
d="M689 806l133 195v751h-465q-96 0 -145.5 32t-49.5 90q0 37 21 62.5t57 25.5q70 0 83 -64q76 3 163 32q68 21 104 21q83 0 94 -83q5 -32 22.5 -48t37.5 -28h78v211h40v-1002l133 -195h143q30 41 115 49l128 9q23 151 23 167q0 59 -19 137.5t-76 231.5l-68 91
q-71 89 -97.5 145.5t-26.5 100.5v140q0 52 -46 52q-25 0 -37 -10.5t-14 -17.5h-36v34q0 68 47 105q22 18 63 57q19 34 67 52t111 18q64 0 110 -19.5t81 -58t74 -120.5l94 -50q99 -94 261 -314l79 -108l14 -17q183 -222 207 -240q60 -50 212 -196l-49 -46l-69 43l-88 51
l114 -169l-183 -117h276v-133h-832q53 -86 53 -151q0 -86 -52.5 -131.5t-155.5 -45.5q-39 0 -81 14v-214h1077v-40h-225v-170h225v-40h-225v-170h225v-40h-2295v40h230v170h-230v40h230v170h-230v40h1098v274q-61 39 -132.5 102.5t-119.5 115.5l-34 36h-351
q-42 -54 -113 -90t-143 -36q-73 0 -122 31.5t-75.5 83.5t-26.5 108q0 119 42.5 185.5t117.5 66.5q62 0 151.5 -65t156.5 -151h121zM1135 2035q0 14 11 26t28 12h67q42 0 71 -26.5t29 -66.5q0 -24 -17.5 -46.5t-46.5 -40.5t-36.5 -20t-13.5 -2q-10 0 -12 11h-12v-19h-25
q0 47 -24 81.5t-60 34.5q-16 0 -37 -18h5l9 1q86 0 86 -109v-116q0 -43 32 -102.5t120 -168t165 -189.5q63 -68 95.5 -137.5t32.5 -130.5l-10 -172q-56 0 -124 -8v-23h283v23q-72 8 -116 8v187q34 -8 107 -44v247q127 0 214 -157l137 -245l174 109l-130 196
q-162 95 -515 280l-274 140q-67 30 -117.5 87.5t-50.5 115.5q0 61 73 108.5t174 53.5l2 -34q-88 -6 -149 -44t-61 -84q0 -43 40 -89.5t111 -85.5q731 -371 975 -537l8 10l-193 167q-31 26 -223 264q-226 310 -337 415l-96 52q-44 89 -73 119.5t-67 45.5t-92 15
q-59 0 -98.5 -12t-46.5 -33l-47 -45l-18 -15q-36 -29 -41 -72q39 52 82 52q26 0 52 -23l7 -1q10 0 10 9l-1 10q-14 0 -25 10.5t-11 25.5zM214 766q7 -16 35 -53h2116v53h-2151zM1858 806h202l-137 252q-37 62 -75.5 92.5t-69.5 30.5v-272q-71 57 -107 65v-101q40 -2 81.5 -8
t62.5 -18t43 -41zM839 -65h410v170h-410v-170zM389 -65h410v170h-410v-170zM1739 -275h410v170h-410v-170zM839 -275h410v170h-410v-170zM389 -275h410v170h-410v-170zM1289 -275h410v170h-410v-170zM1289 -65h410v170h-410v-170zM1739 -65h410v170h-410v-170zM202 1874
q0 -39 42 -60.5t113 -21.5h322q-28 28 -35 70q-8 49 -54 49q-33 0 -92 -19q-114 -34 -212 -34q0 30 -13 47t-33 17q-18 0 -28 -14t-10 -34zM1563 490q0 32 -58 90.5t-125 92.5h-43v-171q36 -24 68 -36.5t71 -12.5q38 0 62.5 10.5t24.5 26.5zM1421 864l43 2l30 171
q34 -4 68 -27l1 22q0 45 -31.5 105t-85.5 118l-71 82q24 -71 46 -149.5t22 -156.5v-20zM1556 433q-36 -19 -93 -19q-56 0 -126.5 37.5t-151 107t-111.5 114.5h-75q21 -21 49.5 -50t62 -61t71 -63.5t77 -57t80 -41t79.5 -15.5q96 0 138 48zM180 885q0 -31 22 -79h198
q-66 70 -104 95t-66 25q-50 0 -50 -41zM343 617q-67 0 -122 66t-75 159q-4 -30 -4 -58q0 -89 52.5 -143t134.5 -54q50 0 102.5 22.5t93.5 63.5h-53q-20 -25 -53.5 -40.5t-75.5 -15.5zM260 982q-41 0 -69 -30q21 9 51 9q35 0 101 -49t110 -106h63q-72 83 -141 129.5
t-115 46.5zM1273 1931q0 -10 -4 -14q42 33 42 63q0 29 -22.5 49.5t-56.5 20.5h-25q5 -10 5 -17q0 -19 -17 -30l6 -17q0 -18 -28 -25q18 -28 23 -48l-1 14q0 18 10.5 30.5t28.5 12.5q20 0 29.5 -14t9.5 -25zM1297 375l-40 20v-250h40v230zM1564 967q-24 15 -42 20
q-8 -31 -22 -119l59 5zM822 806v123l-84 -123h84zM862 806h84l-84 123v-123zM1257 560l40 -30v143h-40v-113zM1585 539q-6 28 -23 67t-36 67h-72q86 -65 131 -134zM1132 673q26 -28 85 -80v80h-85zM343 657q40 0 67 16h-124q24 -16 57 -16zM1234 1947q-18 0 -18 -22
q0 -11 6 -17.5t12 -6.5q16 0 16 24q0 7 -4 14.5t-12 7.5zM1156 2035q0 -16 16 -16q17 0 17 16t-17 16q-16 0 -16 -16zM1286 827q-24 0 -43 -21h43v21zM1445 827q-24 0 -36 -21h36v21zM1319 806q11 16 33 29l-41 -6v-23h8zM1394 826q-29 0 -47 -20h27q8 11 20 20zM1228 826
q-28 0 -46 -20h26zM1774 825v-19h36q-10 10 -34 19h-2z" />
  </g>

</svg>
