<?xml version="1.0" standalone="no"?>
<!DOCTYPE svg PUBLIC "-//W3C//DTD SVG 1.1//EN" "http://www.w3.org/Graphics/SVG/1.1/DTD/svg11.dtd" >
<svg xmlns="http://www.w3.org/2000/svg" xmlns:xlink="http://www.w3.org/1999/xlink" version="1.1" viewBox="-10 0 2137 2048">
  <g transform="matrix(1 0 0 -1 0 1638)">
   <path fill="currentColor"
d="M609 330q20 110 20 259q0 121 -35.5 320t-89.5 363t-120 274q-93 -16 -134.5 -88t-41.5 -198v-851q0 -69 -54 -69t-54 69v855q0 193 85.5 294t257.5 101h1241q172 0 257.5 -101t85.5 -294v-855q0 -69 -54 -69t-54 69v851q0 122 -39.5 194t-128.5 91
q-65 -108 -117.5 -267.5t-89 -362.5t-36.5 -326q0 -149 20 -259h-919zM428 1551q65 -113 118 -276t88 -362.5t35 -323.5q0 -84 -14 -219h827q-14 102 -14 219q0 122 36 326.5t88 365t116 269.5l-13 1h-1267zM1682 1591q144 0 210.5 -85t66.5 -246v-851q0 -30 14 -30t14 30
v855q0 355 -303 355h-1241q-303 0 -303 -355v-855q0 -30 14 -30t14 30v851q0 160 66.5 245.5t210.5 85.5h1237z" />
  </g>

</svg>
