<?xml version="1.0" standalone="no"?>
<!DOCTYPE svg PUBLIC "-//W3C//DTD SVG 1.1//EN" "http://www.w3.org/Graphics/SVG/1.1/DTD/svg11.dtd" >
<svg xmlns="http://www.w3.org/2000/svg" xmlns:xlink="http://www.w3.org/1999/xlink" version="1.1" viewBox="-10 0 1500 2048">
  <g transform="scale(1, -1)" transform-origin="center">
   <path fill="currentColor"
d="M100 871h104q17 131 27 173l-107 40l148 366l97 -36q36 59 65 92l-65 94l328 220l66 -99q48 8 135 11v114h394v-113h98v-116h-510q-158 0 -290.5 -120t-206.5 -334.5t-74 -488.5q0 -276 74 -490t206.5 -333.5t290.5 -119.5h510v-116h-98v-113h-394v114q-97 3 -135 10
l-66 -98l-328 220l65 94q-37 45 -66 92l-96 -36l-148 365l107 41q-6 29 -16 91t-11 82h-104v394zM240 517q2 -34 14.5 -117t22.5 -122l-101 -37l118 -291l94 35q16 -29 48 -75.5t49 -63.5l-60 -86l260 -176l59 88q72 -16 194 -16v-114h314v113h98v36h-470
q-169 0 -310.5 124.5t-221 348.5t-79.5 510q0 288 80 511.5t221.5 347.5t309.5 124h470v36h-98v113h-314v-114q-128 0 -195 -15l-58 87l-260 -176l60 -86q-49 -54 -97 -139l-94 35l-118 -290l101 -38q-10 -40 -22 -122t-15 -117h-100v-314h100z" />
  </g>

</svg>
