<?xml version="1.0" standalone="no"?>
<!DOCTYPE svg PUBLIC "-//W3C//DTD SVG 1.1//EN" "http://www.w3.org/Graphics/SVG/1.1/DTD/svg11.dtd" >
<svg xmlns="http://www.w3.org/2000/svg" xmlns:xlink="http://www.w3.org/1999/xlink" version="1.1" viewBox="-10 0 2524 2048">
  <g transform="matrix(1 0 0 -1 0 1638)">
   <path fill="currentColor"
d="M1770 1677v-871h635v-133h-832q53 -86 53 -151q0 -86 -52.5 -131.5t-155.5 -45.5q-39 0 -81 14v-214h1077v-40h-225v-170h225v-40h-225v-170h225v-40h-2295v40h230v170h-230v40h230v170h-230v40h1098v274q-61 39 -132.5 102.5t-119.5 115.5l-34 36h-351q-42 -54 -113 -90
t-143 -36q-73 0 -122 31.5t-75.5 83.5t-26.5 108q0 119 42.5 185.5t117.5 66.5q62 0 151.5 -65t156.5 -151h377q-24 41 -24 88q0 43 16.5 76.5t40.5 47.5q-39 32 -65.5 102.5t-26.5 180.5v206q0 104 22.5 182.5t67.5 113.5q-25 16 -40 48.5t-15 74.5q0 37 15 72t39 59
l28 -28q-18 -18 -30 -47t-12 -56q0 -46 21.5 -73.5t57.5 -27.5q37 0 58 28t21 73q0 57 -42 103l28 28q54 -58 54 -131q0 -42 -15 -75t-40 -48q45 -35 67.5 -113.5t22.5 -182.5v-206q0 -110 -27 -180.5t-65 -102.5q25 -16 41 -48t16 -76q0 -43 -24 -88h504v911l52 51
q95 94 95 119q0 31 -30 31q-29 0 -73 -82q-30 -53 -46.5 -69t-42.5 -16q-29 0 -46.5 19t-17.5 43q0 36 36.5 101.5t83 100t99.5 34.5q77 0 122.5 -41.5t45.5 -110.5q0 -78 -83 -161zM1040 1785q-54 0 -84 -77t-30 -201v-206q0 -115 31.5 -190.5t82.5 -75.5t82.5 76t31.5 190
v206q0 125 -30 201.5t-84 76.5zM214 766q7 -16 35 -53h2116v53h-2151zM1877 1897q0 48 -33.5 80t-94.5 32q-48 0 -87.5 -34t-65.5 -84t-26 -78q0 -9 6.5 -15.5t17.5 -6.5q17 0 39 38q41 73 55 90.5t31.5 28t36.5 10.5q70 0 70 -71q0 -45 -147 -186v-895h51v888l76 71
q71 65 71 132zM389 -275h410v170h-410v-170zM1289 -65h410v170h-410v-170zM1289 -275h410v170h-410v-170zM839 -275h410v170h-410v-170zM1739 -275h410v170h-410v-170zM839 -65h410v170h-410v-170zM389 -65h410v170h-410v-170zM1739 -65h410v170h-410v-170zM1563 490
q0 32 -58 90.5t-125 92.5h-43v-171q36 -24 68 -36.5t71 -12.5q38 0 62.5 10.5t24.5 26.5zM1556 433q-36 -19 -93 -19q-56 0 -126.5 37.5t-151 107t-111.5 114.5h-75q21 -21 49.5 -50t62 -61t71 -63.5t77 -57t80 -41t79.5 -15.5q96 0 138 48zM961 894q0 -50 29 -88h99
q30 36 30 88q0 46 -21.5 73.5t-57.5 27.5t-57.5 -28t-21.5 -73zM180 885q0 -31 22 -79h198q-66 70 -104 95t-66 25q-50 0 -50 -41zM343 617q-67 0 -122 66t-75 159q-4 -30 -4 -58q0 -89 52.5 -143t134.5 -54q50 0 102.5 22.5t93.5 63.5h-53q-20 -25 -53.5 -40.5t-75.5 -15.5
zM260 982q-41 0 -69 -30q21 9 51 9q35 0 101 -49t110 -106h63q-72 83 -141 129.5t-115 46.5zM1297 375l-40 20v-250h40v230zM1257 560l40 -30v143h-40v-113zM1585 539q-6 28 -23 67t-36 67h-72q86 -65 131 -134zM1132 673q26 -28 85 -80v80h-85zM343 657q40 0 67 16h-124
q24 -16 57 -16z" />
  </g>

</svg>
