<?xml version="1.0" standalone="no"?>
<!DOCTYPE svg PUBLIC "-//W3C//DTD SVG 1.1//EN" "http://www.w3.org/Graphics/SVG/1.1/DTD/svg11.dtd" >
<svg xmlns="http://www.w3.org/2000/svg" xmlns:xlink="http://www.w3.org/1999/xlink" version="1.1" viewBox="-10 0 2460 2048">
  <g transform="matrix(1 0 0 -1 0 1638)">
   <path fill="currentColor"
d="M2350 1131h-755q-40 -54 -107 -77q126 -209 193 -338q50 -108 97 -215.5t88.5 -204t50.5 -136.5l31 -109q0 -26 -20 -60.5t-55 -63.5h-102q-28 0 -73 16t-61 16q-28 0 -86 -14q-59 -15 -93 -18h-252v126q167 40 248 68.5t118 53.5t37 60q0 38 -89 163q-104 145 -128 190
l-23 43q-126 225 -139 264q-7 -20 -45 -102.5t-74 -154.5t-71.5 -135t-190.5 -263q-8 -32 -8 -70q0 -37 24 -119q-13 -78 -68 -124h-86q-29 0 -73 16t-61 16q-28 0 -86 -14q-60 -15 -92 -18h-261v126q100 23 210 56.5t154 62.5q94 61 228 418l26 68q41 111 204 396
q-66 24 -105 77h-755v162h755q72 91 193 91q68 0 116 -36.5t61 -94.5q13 58 61 94.5t116 36.5q122 0 193 -91h755v-162zM1048 1040q-28 0 -52 4q-169 -295 -203 -398q-16 -47 -68 -179t-100 -212.5t-92.5 -112t-211.5 -82.5l-146 -40v-53h212q27 0 97 16q69 15 93 15
q17 0 68 -15q51 -16 73 -16h64q14 10 26.5 33.5t15.5 52.5q-4 11 -13.5 54.5t-9.5 62.5q0 38 13 83q121 160 158 215t90.5 160.5t97.5 201t44 98.5v1h51l18 -36q113 -224 156 -290l110 -164q78 -115 97.5 -157.5t19.5 -65.5q0 -15 -12 -30t-44.5 -38.5t-90.5 -46.5t-130 -43
t-144 -38v-53h211q28 0 98 16q70 15 93 15q19 0 69 -15q49 -16 71 -16h80q44 28 51 86q-31 119 -122 336t-167 362t-166 293q-24 -4 -51 -4q-66 0 -114.5 35t-62.5 96q-14 -61 -62.5 -96t-114.5 -35zM140 1171h733q41 -50 82.5 -70.5t92.5 -20.5q60 0 101 36.5t41 95.5
t-41.5 95.5t-100.5 36.5q-50 0 -91 -20t-84 -71h-733v-82zM2310 1253h-733l-25 28q-60 63 -150 63q-60 0 -101 -36.5t-41 -95.5t41 -95.5t101 -36.5q90 0 150 64l25 27h733v82z" />
  </g>

</svg>
