<?xml version="1.0" standalone="no"?>
<!DOCTYPE svg PUBLIC "-//W3C//DTD SVG 1.1//EN" "http://www.w3.org/Graphics/SVG/1.1/DTD/svg11.dtd" >
<svg xmlns="http://www.w3.org/2000/svg" xmlns:xlink="http://www.w3.org/1999/xlink" version="1.1" viewBox="-10 0 2682 2048">
  <g transform="matrix(1 0 0 -1 0 1638)">
   <path fill="currentColor"
d="M100 624h2472v-776h-2472v776zM509 -14l102 -98h208l-102 98l124 120l-124 126l123 108l-121 121l111 123h-211l-111 -121l125 -125l-123 -108l122 -124zM1569 -14l102 -98h208l-102 98l124 120l-124 126l123 108l-121 121l111 123h-211l-111 -121l125 -125l-123 -108
l122 -124zM1514 461l111 123h-211l-111 -121l125 -125l-123 -108l122 -124l-123 -120l102 -98h208l-102 98l124 120l-124 126l123 108zM1039 -14l102 -98h208l-102 98l124 120l-124 126l123 108l-121 121l111 123h-211l-111 -121l125 -125l-123 -108l122 -124zM2099 -14
l102 -98h208l-102 98l124 120l-124 126l123 108l-121 121l111 123h-211l-111 -121l125 -125l-123 -108l122 -124zM454 461l111 123h-211l-111 -121l125 -125l-123 -108l122 -124l-123 -120l102 -98h208l-102 98l124 120l-124 126l123 108zM984 461l111 123h-211l-111 -121
l125 -125l-123 -108l122 -124l-123 -120l102 -98h208l-102 98l124 120l-124 126l123 108zM2044 461l111 123h-211l-111 -121l125 -125l-123 -108l122 -124l-123 -120l102 -98h208l-102 98l124 120l-124 126l123 108zM2474 584l-111 -121l125 -125l-123 -108l122 -124
l-123 -120l102 -98h66v696h-58zM140 -112h149l-102 98l124 120l-124 126l123 108l-121 121l111 123h-160v-696z" />
  </g>

</svg>
