<?xml version="1.0" standalone="no"?>
<!DOCTYPE svg PUBLIC "-//W3C//DTD SVG 1.1//EN" "http://www.w3.org/Graphics/SVG/1.1/DTD/svg11.dtd" >
<svg xmlns="http://www.w3.org/2000/svg" xmlns:xlink="http://www.w3.org/1999/xlink" version="1.1" viewBox="-10 0 2257 2048">
  <g transform="matrix(1 0 0 -1 0 1638)">
   <path fill="currentColor"
d="M586 1020q-102 -67 -148 -174.5t-46 -299.5q0 -97 23 -216h-239v62q0 164 31 290l-107 33q29 179 119.5 289t251.5 160q-333 138 -333 349q0 47 22 90t63 69t104 26q57 0 110.5 -37t96.5 -104.5t64 -123.5l15 -41h1021q24 77 71.5 153t101.5 114.5t113 38.5q62 0 103 -26
t63.5 -69t22.5 -90q0 -108 -87 -196t-247 -153q159 -49 250 -158t122 -291l-108 -33q32 -130 32 -290v-62h-239q23 119 23 216q0 192 -46.5 299.5t-147.5 174.5h-1075zM589 1353l-1 -1q-45 133 -115 219.5t-146 86.5q-49 0 -81.5 -20.5t-50 -54t-17.5 -70.5q0 -98 86 -178
t241 -140v26q-264 170 -264 290q0 39 26 65.5t67 26.5q61 0 123 -92t87 -163h1v-250q-114 -91 -170.5 -164t-90 -152t-51 -175.5t-17.5 -214.5v-22h149q-13 79 -13 164q0 210 52 329.5t170 196.5l1 -2v2h1097v-2l1 2q117 -76 169.5 -196t52.5 -330q0 -85 -13 -164h149v22
q0 110 -14.5 197.5t-40 157t-59.5 123.5t-73 98.5t-142 129.5v250q21 60 69.5 135t79.5 97.5t62 22.5q40 0 66.5 -26.5t26.5 -65.5q0 -110 -226 -264l-38 -26v-26q155 60 241 140t86 178q0 36 -17.5 70t-50 54.5t-81.5 20.5q-77 0 -147 -88t-114 -218l-1 1v-1h-1069v1z
M588 1309h1071v-202h-1071v202zM628 1147h991v122h-991v-122zM2101 743q-27 150 -120.5 252t-238.5 138v-17q109 -91 150 -140t76 -111t60 -145zM146 743l72 -23q25 83 61.5 147.5t82.5 117.5t143 131v17q-146 -36 -238.5 -136.5t-120.5 -253.5zM1742 1336v-66
q117 83 150.5 114.5t53.5 63.5t20 63q0 24 -13.5 38t-39.5 14q-42 0 -94.5 -79.5t-76.5 -147.5zM281 1511q0 -33 21.5 -65.5t58 -66t144.5 -109.5v66q-22 63 -75 145t-96 82q-26 0 -39.5 -14t-13.5 -38z" />
  </g>

</svg>
