<?xml version="1.0" standalone="no"?>
<!DOCTYPE svg PUBLIC "-//W3C//DTD SVG 1.1//EN" "http://www.w3.org/Graphics/SVG/1.1/DTD/svg11.dtd" >
<svg xmlns="http://www.w3.org/2000/svg" xmlns:xlink="http://www.w3.org/1999/xlink" version="1.1" viewBox="-10 0 2524 2048">
  <g transform="matrix(1 0 0 -1 0 1638)">
   <path fill="currentColor"
d="M2405 806v-133h-832q53 -86 53 -151q0 -86 -52.5 -131.5t-155.5 -45.5q-39 0 -81 14v-214h1077v-40h-225v-170h225v-40h-225v-170h225v-40h-2295v40h230v170h-230v40h230v170h-230v40h1098v274q-61 39 -132.5 102.5t-119.5 115.5l-34 36h-351q-42 -54 -113 -90t-143 -36
q-73 0 -122 31.5t-75.5 83.5t-26.5 108q0 119 42.5 185.5t117.5 66.5q62 0 151.5 -65t156.5 -151h1837zM214 766q7 -16 35 -53h2116v53h-2151zM389 -65h410v170h-410v-170zM389 -275h410v170h-410v-170zM839 -65h410v170h-410v-170zM1289 -65h410v170h-410v-170zM1739 -65
h410v170h-410v-170zM1289 -275h410v170h-410v-170zM839 -275h410v170h-410v-170zM1739 -275h410v170h-410v-170zM1563 490q0 32 -58 90.5t-125 92.5h-43v-171q36 -24 68 -36.5t71 -12.5q38 0 62.5 10.5t24.5 26.5zM1556 433q-36 -19 -93 -19q-56 0 -126.5 37.5t-151 107
t-111.5 114.5h-75q21 -21 49.5 -50t62 -61t71 -63.5t77 -57t80 -41t79.5 -15.5q96 0 138 48zM180 885q0 -31 22 -79h198q-66 70 -104 95t-66 25q-50 0 -50 -41zM343 617q-67 0 -122 66t-75 159q-4 -30 -4 -58q0 -89 52.5 -143t134.5 -54q50 0 102.5 22.5t93.5 63.5h-53
q-20 -25 -53.5 -40.5t-75.5 -15.5zM260 982q-41 0 -69 -30q21 9 51 9q35 0 101 -49t110 -106h63q-72 83 -141 129.5t-115 46.5zM1297 375l-40 20v-250h40v230zM1257 560l40 -30v143h-40v-113zM1585 539q-6 28 -23 67t-36 67h-72q86 -65 131 -134zM1132 673q26 -28 85 -80v80
h-85zM343 657q40 0 67 16h-124q24 -16 57 -16zM764 1036q-131 0 -176 17t-65 59t-24 130q-64 6 -101.5 36t-37.5 73q0 38 39.5 65t101.5 34q12 111 69.5 158t173.5 47t279 -7q195 -8 318 -8q169 0 484 63q193 36 242 36t77 -27t41.5 -90t13.5 -168q0 -106 -11 -185.5
t-31 -132t-49.5 -79t-80.5 -26.5q-49 0 -290 27q-141 15 -224 15q-136 0 -636 -32zM537 1356q0 -136 14 -187.5t51 -72t162 -20.5l112 5q487 32 637 32q88 0 228 -15q238 -27 286 -27h16l10 1q-36 36 -86 104t-75 125.5t-25 99.5q0 35 26.5 83.5t82.5 109t107 103.5l-20 1
q-44 0 -230 -35q-321 -63 -492 -63q-120 0 -320 8q-163 7 -277 7q-77 0 -122 -25t-65 -76t-20 -158zM2088 1094q71 93 71 360q0 167 -42 226q-25 -16 -87.5 -82t-92.5 -114.5t-30 -82.5q0 -56 50.5 -140t130.5 -167zM497 1383l1 26q-49 -10 -64.5 -17.5t-24.5 -17t-9 -23.5
q0 -26 27 -45t71 -23l-1 35v65z" />
  </g>

</svg>
