<?xml version="1.0" standalone="no"?>
<!DOCTYPE svg PUBLIC "-//W3C//DTD SVG 1.1//EN" "http://www.w3.org/Graphics/SVG/1.1/DTD/svg11.dtd" >
<svg xmlns="http://www.w3.org/2000/svg" xmlns:xlink="http://www.w3.org/1999/xlink" version="1.1" viewBox="-10 0 2940 2048">
  <g transform="matrix(1 0 0 -1 0 1638)">
   <path fill="currentColor"
d="M2327 769h-402q238 -44 457.5 -138.5t447.5 -265.5l-39 -67q-184 117 -422.5 204.5t-477.5 128.5q0 -77 -23.5 -142t-91.5 -97t-197 -44q-92 -11 -114 -19.5t-40 -21.5t-44.5 -42t-55.5 -64h1q-74 -91 -114 -117.5t-80 -26.5q-126 0 -126 160v408q-90 -17 -176 -39v-587
l175 -317l-39 -23l-38 -20l-98 177v-94h-88v254l-272 491q-198 -82 -331 -169l-39 67q156 118 315 203l-67 120q-32 7 -76.5 46.5t-66 92.5t-21.5 111q0 87 50 87q56 0 126 -75.5t70 -178.5q0 -28 -5 -42l68 -122q238 114 509 162h-428v264h1753v-264zM2287 993h-1673v-184
h1673v184zM1465 670q-207 0 -419 -37v-416q0 -120 86 -120q30 0 64 24.5t99 105.5q33 41 69 78.5t71 54.5t140 28q104 10 151 26t73.5 41t39 71.5t12.5 111.5q-190 32 -386 32zM1465 769q-368 0 -692.5 -98.5t-617.5 -306.5l6 -10q251 160 608 258t696 98q341 0 697 -98
t607 -258l6 10q-215 150 -422 236t-428.5 127.5t-459.5 41.5zM742 158v404q-91 -26 -189 -63zM442 582l23 11l-73 131l3 47q0 55 -24 102t-63.5 83t-64.5 36q-27 0 -27 -47q0 -64 34 -126.5t97 -94.5l24 -14zM940 -318l21 12l-438 794l-24 -10zM798 578l-24 -7v-471l24 -43
v521zM798 -126l-24 44v-164h24v120z" />
  </g>

</svg>
