<?xml version="1.0" standalone="no"?>
<!DOCTYPE svg PUBLIC "-//W3C//DTD SVG 1.1//EN" "http://www.w3.org/Graphics/SVG/1.1/DTD/svg11.dtd" >
<svg xmlns="http://www.w3.org/2000/svg" xmlns:xlink="http://www.w3.org/1999/xlink" version="1.1" viewBox="-10 0 2295 2048">
  <g transform="matrix(1 0 0 -1 0 1638)">
   <path fill="currentColor"
d="M1173 498l-20 -1l-7 -154q142 -166 142 -340q0 -83 -33 -185.5t-87.5 -186.5t-86.5 -84t-86 83t-87.5 185.5t-33.5 187.5q0 174 142 340l-6 139q-159 -25 -203 -29t-95 -4q-82 0 -129.5 17.5t-88.5 70.5q-85 104 -98 115.5t-24 11.5q-26 0 -52.5 -7.5t-55.5 -7.5
q-75 0 -119.5 29.5t-44.5 76.5q0 44 35 81t100 53l-112 107q-9 8 -9 21q0 15 9 25.5t23 10.5q16 0 29 -13l140 -135l141 135q13 13 30 13q13 0 22.5 -10t9.5 -24t-9 -23l-113 -107q78 -29 120 -88l52 -69q16 -21 38 -42t54 -21q37 0 87.5 15.5t118.5 37.5q88 28 131 36
l-40 853h248l-40 -854q74 -19 259 -93q85 -35 192.5 -57.5t206.5 -22.5q79 0 141.5 4t183.5 20h5q14 0 22.5 -12t8.5 -28q0 -28 -22 -40q-154 -79 -348 -79q-122 0 -368 27q-131 18 -252 21zM318 863q-46 0 -87 -15.5t-66 -41.5t-25 -51q0 -30 36.5 -48.5t90.5 -18.5
q27 0 52.5 7.5t52.5 7.5q18 0 36 -13t46 -50l62 -74q33 -43 79.5 -60.5t116.5 -17.5q59 0 117 8.5t117 17.5q153 23 248 23q70 0 255 -20q255 -29 365 -29q65 0 135.5 12t134.5 33.5t64 27.5v2q-1 3 -7 3l-7 -1q-94 -14 -156 -17.5t-155 -3.5q-228 0 -484 111
q-114 47 -166.5 59.5t-92.5 12.5q-81 0 -206 -44q-67 -22 -119.5 -38t-94.5 -16q-30 0 -57.5 16t-57.5 57l-52 70q-31 42 -78 66.5t-97 24.5zM1113 495l-64 -7l7 -159q-68 -87 -91.5 -129.5t-37 -90t-13.5 -106.5q0 -70 29 -164t71.5 -169.5t66.5 -75.5t67 76t71.5 170
t28.5 163q0 58 -13.5 105.5t-37 91t-91.5 129.5zM1080 767l45 -3l38 807h-164l37 -807zM273 807q0 12 8 21t22 9q12 0 21 -9t9 -21q0 -13 -9 -22t-21 -9q-14 0 -22 9t-8 22zM365 898l116 109q10 12 10 15q0 5 -5 5q-8 0 -14 -9l-122 -117zM141 1022q0 -3 10 -15l115 -109
l14 2l-120 118q-6 9 -13 9q-6 0 -6 -5z" />
  </g>

</svg>
