<?xml version="1.0" standalone="no"?>
<!DOCTYPE svg PUBLIC "-//W3C//DTD SVG 1.1//EN" "http://www.w3.org/Graphics/SVG/1.1/DTD/svg11.dtd" >
<svg xmlns="http://www.w3.org/2000/svg" xmlns:xlink="http://www.w3.org/1999/xlink" version="1.1" viewBox="-10 0 2620 2048">
  <g transform="matrix(1 0 0 -1 0 1638)">
   <path fill="currentColor"
d="M100 514v377l324 -27q237 158 448 240.5t369 82.5q193 0 430 -101t438.5 -266t301 -373.5t99.5 -446.5h-165q0 170 -84.5 327t-226.5 246q-451 -368 -783 -368q-223 0 -452.5 93t-375.5 242zM1364 1137v-882q103 19 207 67t203.5 111.5t255.5 187.5q153 -91 251 -248
t104 -333h84q-3 151 -50 290.5t-135.5 255.5t-205.5 209.5t-235 162.5t-244 116t-235 63zM463 556q126 -124 312.5 -207t379.5 -100v891q-134 -18 -316.5 -95t-375.5 -201v-288zM1241 1147l-46 -2v-899l28 -1h28l73 4v893zM344 574v257l-204 17v-291zM384 578l39 2v244
l-39 3v-249z" />
  </g>

</svg>
