<?xml version="1.0" standalone="no"?>
<!DOCTYPE svg PUBLIC "-//W3C//DTD SVG 1.1//EN" "http://www.w3.org/Graphics/SVG/1.1/DTD/svg11.dtd" >
<svg xmlns="http://www.w3.org/2000/svg" xmlns:xlink="http://www.w3.org/1999/xlink" version="1.1" viewBox="-10 0 624 2048">
  <g transform="matrix(1 0 0 -1 0 1638)">
   <path fill="currentColor"
d="M225 1571l57 -1242q-68 -87 -91.5 -129.5t-37 -90t-13.5 -106.5q0 -70 29 -164t71.5 -169.5t66.5 -75.5t67 76t71.5 170t28.5 163q0 58 -13.5 105.5t-37 91t-91.5 129.5l57 1242h-164zM307 -453q-32 0 -86 83t-87.5 185.5t-33.5 187.5q0 174 142 340l-59 1268h248
l-59 -1268q142 -166 142 -340q0 -83 -33 -185.5t-87.5 -186.5t-86.5 -84z" />
  </g>

</svg>
