<?xml version="1.0" standalone="no"?>
<!DOCTYPE svg PUBLIC "-//W3C//DTD SVG 1.1//EN" "http://www.w3.org/Graphics/SVG/1.1/DTD/svg11.dtd" >
<svg xmlns="http://www.w3.org/2000/svg" xmlns:xlink="http://www.w3.org/1999/xlink" version="1.1" viewBox="-10 0 2426 2048">
  <g transform="matrix(1 0 0 -1 0 1638)">
   <path fill="currentColor"
d="M1515 1053q0 67 48 115t115 48t115 -48t48 -115q0 -73 -56 -123h269l262 -930h-139l-114 400h-1710l-114 -400h-139l262 930h269q-56 50 -56 123q0 67 48 115t115 48t115 -48t48 -115q0 -73 -56 -123h256q-56 50 -56 123q0 67 48 115t115 48t115 -48t48 -115
q0 -73 -56 -123h256q-56 50 -56 123zM2093 440l111 -400h60l-238 850h-1636l-238 -850h60l111 400h1770zM1980 838l97 -346h-1738l97 346h1544zM2028 532l-76 266h-1488l-76 -266h1640zM1085 1053q0 -51 36 -87t87 -36t87 36t36 87t-36 87t-87 36t-87 -36t-36 -87zM615 1053
q0 -51 36 -87t87 -36t87 36t36 87t-36 87t-87 36t-87 -36t-36 -87zM1555 1053q0 -51 36 -87t87 -36t87 36t36 87t-36 87t-87 36t-87 -36t-36 -87z" />
  </g>

</svg>
