<?xml version="1.0" standalone="no"?>
<!DOCTYPE svg PUBLIC "-//W3C//DTD SVG 1.1//EN" "http://www.w3.org/Graphics/SVG/1.1/DTD/svg11.dtd" >
<svg xmlns="http://www.w3.org/2000/svg" xmlns:xlink="http://www.w3.org/1999/xlink" version="1.1" viewBox="-10 0 1688 2048">
  <g transform="matrix(1 0 0 -1 0 1638)">
   <path fill="currentColor"
d="M839 2050q229 0 393.5 -88t255 -270t90.5 -431v-62h-455q38 -43 38 -89q0 -36 -22 -56.5t-64 -22.5q-45 72 -88 107l-22 -11q-7 -43 -26.5 -75.5t-48.5 -46.5l37 -826v-41q0 -112 -21 -157t-67 -45q-47 0 -67.5 45.5t-20.5 156.5v40l2 67l35 760q-30 13 -50 47t-25 75
l-22 11q-43 -35 -88 -107q-43 2 -64.5 23t-21.5 56q0 46 37 89h-454v62q0 249 91 431t255.5 270t392.5 88zM839 1515q74 0 128 -32t81.5 -92.5t27.5 -122.5v-29h462v22q0 233 -82.5 404.5t-238.5 258t-378 86.5q-221 0 -377.5 -86.5t-239 -258.5t-82.5 -404v-22h462v29
q0 65 27.5 124.5t81.5 91t128 31.5zM642 1239h394v29q0 54 -23 104.5t-67.5 76.5t-106.5 26q-61 0 -106 -26t-68 -77t-23 -104v-29zM887 138q0 86 -16 414l-22 442h-21q-1 -26 -3.5 -72.5t-5.5 -106t-6 -127.5t-6 -137.5t-6 -135.5t-5 -121.5t-3.5 -96.5t-1.5 -59
q0 -74 8 -118t40 -44t40 44t8 118zM839 1034q37 0 62 33t31 88l64 31q61 -54 100 -114q25 7 25 38q0 17 -14 43t-46 46h-445q-32 -20 -45.5 -46t-13.5 -43q0 -31 25 -38q39 60 100 114l64 -31q6 -55 30.5 -88t62.5 -33z" />
  </g>

</svg>
