<?xml version="1.0" standalone="no"?>
<!DOCTYPE svg PUBLIC "-//W3C//DTD SVG 1.1//EN" "http://www.w3.org/Graphics/SVG/1.1/DTD/svg11.dtd" >
<svg xmlns="http://www.w3.org/2000/svg" xmlns:xlink="http://www.w3.org/1999/xlink" version="1.1" viewBox="-10 0 942 2048">
  <g transform="matrix(1 0 0 -1 0 1638)">
   <path fill="currentColor"
d="M832 1244v-74q-61 0 -102 -16.5t-56 -41.5t-25 -105q-10 -74 -20 -96q-29 -62 -106 -79l48 -1144q0 -75 -19 -100.5t-66 -25.5h-40q-48 0 -67 27t-19 91l48 1152q-76 17 -105 79q-11 25 -19 96q-8 69 -23 99.5t-57.5 47t-103.5 16.5v74q17 10 72 24l39 494
q10 101 46 140.5t97 39.5q80 0 112 -68q32 68 112 68q61 0 97 -39.5t46 -140.5l39 -494zM466 866q98 0 125 66q10 24 20 98q9 74 22 99.5t37 42t57.5 25.5t64.5 9v8q-75 43 -326 43t-326 -43v-8q43 0 86 -17t63.5 -44.5t32.5 -114.5q10 -81 23 -106.5t43.5 -41.5t77.5 -16z
M446 1297v457q0 148 -92 148q-91 0 -103 -144l-38 -481q93 18 233 20zM719 1277l-38 481q-12 144 -103 144q-92 0 -92 -148v-457q139 -2 233 -20zM486 -398q44 0 46 62l-1 44l-48 1118h-35l-47 -1118v-44q1 -62 45 -62h40z" />
  </g>

</svg>
