<?xml version="1.0" standalone="no"?>
<!DOCTYPE svg PUBLIC "-//W3C//DTD SVG 1.1//EN" "http://www.w3.org/Graphics/SVG/1.1/DTD/svg11.dtd" >
<svg xmlns="http://www.w3.org/2000/svg" xmlns:xlink="http://www.w3.org/1999/xlink" version="1.1" viewBox="-10 0 2770 2048">
  <g transform="matrix(1 0 0 -1 0 1638)">
   <path fill="currentColor"
d="M1632 495q178 115 335 250t242 243q-37 110 -134 206t-232 157q18 67 27 106t9 68q0 23 -20 93t-41 129h287q-36 -97 -36 -154q0 -59 51 -148t131 -167t183.5 -139t225.5 -99q-100 -161 -254.5 -314t-369 -298.5t-427.5 -245.5t-470 -163v-519h-163v485
q-275 -51 -530 -51q-105 0 -214.5 15t-131.5 22l10 84l76 -4q326 0 790 144v1497q0 131 19 196t59 105t101.5 60t148.5 20t148.5 -22t100.5 -63t59 -108.5t20 -192.5v-1192zM1139 249q170 59 330 148v1295q0 91 -16.5 132.5t-51.5 63.5t-97 22q-80 0 -122.5 -52t-42.5 -166
v-1443zM1139 203v-140q308 76 540 199q643 342 918 756q-152 55 -277 147.5t-208 216t-83 211.5q0 44 9.5 73.5t12.5 40.5h-176q19 -53 31.5 -107t12.5 -75q0 -35 -7.5 -67.5t-22.5 -84.5q136 -65 231 -170.5t132 -223.5q-104 -138 -295.5 -300t-395 -280.5t-422.5 -195.5z
M1509 420l83 50v1217q0 115 -18.5 175.5t-53 96.5t-89 55t-127.5 19q-108 0 -170 -35t-90 -99t-28 -207v-2152h83v2152q0 94 21 145t65 82t119 31q77 0 121.5 -26.5t64 -77t19.5 -154.5v-1272zM446 -26q251 0 530 53v123q-225 -68 -415.5 -103.5t-374.5 -35.5h-42l-1 -8
q174 -29 303 -29z" />
  </g>

</svg>
