<?xml version="1.0" standalone="no"?>
<!DOCTYPE svg PUBLIC "-//W3C//DTD SVG 1.1//EN" "http://www.w3.org/Graphics/SVG/1.1/DTD/svg11.dtd" >
<svg xmlns="http://www.w3.org/2000/svg" xmlns:xlink="http://www.w3.org/1999/xlink" version="1.1" viewBox="-10 0 2524 2048">
  <g transform="matrix(1 0 0 -1 0 1638)">
   <path fill="currentColor"
d="M2405 806v-133h-832q53 -86 53 -151q0 -86 -52.5 -131.5t-155.5 -45.5q-39 0 -81 14v-214h1077v-40h-225v-170h225v-40h-225v-170h225v-40h-2295v40h230v170h-230v40h230v170h-230v40h1098v274q-61 39 -132.5 102.5t-119.5 115.5l-34 36h-351q-42 -54 -113 -90t-143 -36
q-73 0 -122 31.5t-75.5 83.5t-26.5 108q0 119 42.5 185.5t117.5 66.5q62 0 151.5 -65t156.5 -151h1837zM933 944q14 -56 14 -63q0 -15 -6 -32.5t-18 -17.5q-24 0 -51.5 6t-56.5 6q-27 0 -149 -19l-5 34l16 13l-56 -6l-1 24l43 11l-47 4v21l44 10l-37 7l1 23l143 9l-1 23v25
l-72 39q-153 87 -200 110l-216 96q-31 16 -31 64q0 21 8 36l-3 2q8 22 33 50.5t36 28.5q23 0 141 -41l36 -3l144 8h19l153 336q28 59 55.5 80t62.5 21q43 0 62.5 -22.5t19.5 -48.5q0 -42 -26.5 -62.5t-63.5 -20.5h-4l-17 -277h-197l-5 -11q24 -7 48 -23q66 -44 119 -68
t137.5 -38.5t182.5 -14.5l106 3l35 -1q48 -4 148.5 -35.5t410.5 -153.5q148 -58 470 -130l-14 -90q-420 55 -537.5 66.5t-260.5 19.5v-7q12 -48 12 -64q0 -14 -5.5 -31t-16.5 -17q-24 0 -52 6t-57 6q-40 0 -147 -20l-5 34l14 14l-54 -6l-3 24l45 17l-48 1v20l29 11l-29 -2v6
l-61 -4h-50q-61 4 -182 40zM1590 1064q-33 -34 -41 -82q295 -15 774 -86l3 21q-301 69 -385 97l-61 24q-441 177 -552 187l-36 2l-104 -4q-91 0 -179.5 13t-143 37t-140.5 81q-30 19 -80 19l-144 -9l-44 3l-96 34l-28 8q-9 0 -22 -12.5t-18 -24.5l15 -11l14 -24l22 7l17 -26
l32 7l21 -30l38 10l15 -30l37 5l15 -28l24 2l118 -68l-6 -7l-116 50l-34 -2l-15 29l-37 -5l-14 25l-32 -8l-25 33l-36 -8l-12 22l-23 -7l-19 31h-3l-1 -10q0 -19 14 -24q212 -97 336 -168l130 -72q6 36 11 50l39 -7q-12 -38 -12 -87q0 -41 6 -77l-124 -4l9 -10l-17 -11
l19 -9l-13 -16h21l1 -23q78 13 107 13l43 -7l33 -7q14 0 14 16l-12 58q10 96 37 153l37 -10q-17 -40 -26 -79q130 -36 177 -38h47q51 0 63 3v4q67 10 97 10l55 -4l-2 16q0 64 39 108l31 -17q-29 -41 -29 -88l4 -57l-87 6q-36 0 -54 -8l25 -8l-15 -18l20 -8l-14 -23h22v-23
l57 8l50 4l76 -13q15 0 15 14l-13 60q1 39 14 77.5t33 60.5zM214 766q7 -16 35 -53h2116v53h-2151zM389 -275h410v170h-410v-170zM1289 -275h410v170h-410v-170zM839 -275h410v170h-410v-170zM839 -65h410v170h-410v-170zM1739 -275h410v170h-410v-170zM389 -65h410v170
h-410v-170zM1289 -65h410v170h-410v-170zM1739 -65h410v170h-410v-170zM1380 673h-43v-171q36 -24 68 -36.5t71 -12.5q38 0 62.5 10.5t24.5 26.5q0 32 -58 90.5t-125 92.5zM725 1458h140l17 283l31 -3q61 0 61 40q0 11 -10 21t-32 10q-47 0 -82 -77zM1463 414
q-56 0 -126.5 37.5t-151 107t-111.5 114.5h-75q21 -21 49.5 -50t62 -61t71 -63.5t77 -57t80 -41t79.5 -15.5q96 0 138 48q-36 -19 -93 -19zM202 806h198q-66 70 -104 95t-66 25q-50 0 -50 -41q0 -31 22 -79zM146 842q-4 -30 -4 -58q0 -89 52.5 -143t134.5 -54
q50 0 102.5 22.5t93.5 63.5h-53q-20 -25 -53.5 -40.5t-75.5 -15.5q-67 0 -122 66t-75 159zM191 952q21 9 51 9q35 0 101 -49t110 -106h63q-72 83 -141 129.5t-115 46.5q-41 0 -69 -30zM1257 395v-250h40v230zM1297 530v143h-40v-113zM1526 673h-72q86 -65 131 -134
q-6 28 -23 67t-36 67zM593 1324q18 21 43 21q24 0 38 -17.5t14 -49.5l-16 -1l-5 15q-4 -10 -22 -10q-28 2 -28 33l-6 -6zM1217 593v80h-85q26 -28 85 -80zM410 673h-124q24 -16 57 -16q40 0 67 16zM311 1372q12 19 33 19q19 0 33 -14l-17 -17q-5 7 -16 7q-8 0 -13 -8z
M654 1311q-5 9 -20 9q0 -15 10 -15q9 0 10 6z" />
  </g>

</svg>
