<?xml version="1.0" standalone="no"?>
<!DOCTYPE svg PUBLIC "-//W3C//DTD SVG 1.1//EN" "http://www.w3.org/Graphics/SVG/1.1/DTD/svg11.dtd" >
<svg xmlns="http://www.w3.org/2000/svg" xmlns:xlink="http://www.w3.org/1999/xlink" version="1.1" viewBox="-10 0 2575 2048">
  <g transform="matrix(1 0 0 -1 0 1638)">
   <path fill="currentColor"
d="M100 457h252q0 341 41 578.5t125 410.5t233 315.5t334 215.5t394 73q308 0 536 -167.5t339 -467t111 -712.5q0 -148 -19.5 -253.5t-58 -173t-101 -102t-167.5 -34.5t-165 26t-98.5 76t-59 126t-20.5 183q0 296 -32 438.5t-104 211t-196 68.5q-208 0 -306.5 -196
t-100.5 -616h246v-339h-419v-182h-345v182h-419v339zM392 457h605q2 444 111 648t336 204q139 0 219.5 -73t116.5 -223t36 -462q0 -97 17.5 -165.5t50.5 -113.5t87 -68.5t148 -23.5q76 0 118 15.5t76.5 50t59 94t38.5 148t14 215.5q0 412 -111 704.5t-330.5 447.5
t-504.5 155q-204 0 -382.5 -71t-324 -212.5t-224 -309.5t-117.5 -398.5t-39 -561.5zM140 158h1103v259h-1103v-259zM559 -24h265v142h-265v-142z" />
  </g>

</svg>
