<?xml version="1.0" standalone="no"?>
<!DOCTYPE svg PUBLIC "-//W3C//DTD SVG 1.1//EN" "http://www.w3.org/Graphics/SVG/1.1/DTD/svg11.dtd" >
<svg xmlns="http://www.w3.org/2000/svg" xmlns:xlink="http://www.w3.org/1999/xlink" version="1.1" viewBox="-10 0 2520 2048">
  <g transform="matrix(1 0 0 -1 0 1638)">
   <path fill="currentColor"
d="M2288 295q48 0 74 -10t37 -32t11 -84v-244q0 -61 -11 -83t-37.5 -32.5t-73.5 -10.5h-2066q-48 0 -74 10t-37 32t-11 84v244q0 60 10.5 82.5t36.5 33t75 10.5h2066zM222 255q-32 0 -49 -7t-25 -21t-8 -58v-244q0 -42 7.5 -56.5t24 -22t50.5 -7.5h2066q32 0 50 7.5t25 23
t7 55.5v244q0 42 -7.5 56.5t-24.5 22t-50 7.5h-2066zM269 -39l153 198l140 -177l138 177l139 -177l138 177l139 -177l137 177l140 -177l138 177l139 -177l138 177l139 -177l140 177l153 -198l-32 -24l-121 156l-140 -177l-139 177l-138 -177l-139 177l-138 -177l-140 177
l-137 -177l-139 177l-138 -177l-139 177l-138 -177l-140 177l-121 -156z" />
  </g>

</svg>
