<?xml version="1.0" standalone="no"?>
<!DOCTYPE svg PUBLIC "-//W3C//DTD SVG 1.1//EN" "http://www.w3.org/Graphics/SVG/1.1/DTD/svg11.dtd" >
<svg xmlns="http://www.w3.org/2000/svg" xmlns:xlink="http://www.w3.org/1999/xlink" version="1.1" viewBox="-10 0 2856 2048">
  <g transform="matrix(1 0 0 -1 0 1638)">
   <path fill="currentColor"
d="M840 935q-26 40 -44 98h-116q-57 -50 -124 -50q-49 0 -81 28t-32 68q0 39 31.5 67.5t81.5 28.5q67 0 124 -50h99v23q0 59 25 115t68.5 88.5t97.5 32.5q72 0 115 -49.5t43 -132.5q0 -36 -13 -77h164v23q0 59 25 115t68.5 88.5t97.5 32.5q72 0 115 -49.5t43 -132.5
q0 -36 -13 -77h164v23q0 59 25 115t68.5 88.5t97.5 32.5q72 0 115 -49.5t43 -132.5q0 -36 -13 -77h164v23q0 59 25 115t68.5 88.5t97.5 32.5q72 0 115 -49.5t43 -132.5q0 -36 -13 -77h127v-92h-176q-50 -69 -132 -119l-249 -828h561v-135h-2646q27 145 120.5 285.5
t251.5 261.5t284 158zM1340 935q-27 42 -43 98h-231q-50 -69 -132 -119l-249 -828h400zM2340 935q-26 40 -44 98h-230q-50 -69 -132 -119l-249 -828h400zM1840 935q-26 40 -44 98h-230q-50 -69 -132 -119l-249 -828h400zM218 46q28 85 109.5 187t198 196.5t201.5 127.5
l15 52q-125 -45 -260 -148.5t-219.5 -223.5t-112.5 -246h2556v55h-2488zM712 508q-117 -55 -253 -182.5t-184 -239.5h310zM1813 1125h34l-1 12v11q0 70 33.5 121t85.5 51q46 0 71 -31t25 -91q0 -55 -45 -125.5t-103 -106.5l-24 6q-11 19 -24 61h-34q21 -60 45 -94l-255 -853
h30l255 851q85 48 136.5 121.5t51.5 143.5q0 68 -33.5 108t-90.5 40q-66 0 -111.5 -60t-45.5 -142v-23zM813 1125h33v23q0 70 33.5 121t85.5 51q46 0 71 -31t25 -91q0 -55 -45 -125.5t-103 -106.5l-24 6q-17 34 -25 61h-33q22 -63 45 -94l-255 -853h30l255 851
q85 48 136.5 121.5t51.5 143.5q0 68 -33.5 108t-90.5 40q-66 0 -111.5 -60t-45.5 -142v-23zM1313 1125h34l-1 12v11q0 70 33.5 121t85.5 51q46 0 71 -31t25 -91q0 -55 -45 -125.5t-103 -106.5l-24 6q-12 20 -25 61h-33q22 -62 45 -94l-255 -853h30l255 851
q85 48 136.5 121.5t51.5 143.5q0 68 -33.5 108t-90.5 40q-66 0 -111.5 -60t-45.5 -142v-23zM2313 1125h33v11v12q0 70 33.5 121t85.5 51q46 0 71 -31t25 -91q0 -55 -45 -125.5t-103 -106.5l-24 6q-15 26 -26 61h-32q20 -57 45 -94l-255 -853h30l255 851q85 48 136.5 121.5
t51.5 143.5q0 68 -33.5 108t-90.5 40q-66 0 -111.5 -60t-45.5 -142v-23zM971 1067l17 24h-322q-23 23 -54 36.5t-56 13.5q-37 0 -58 -19.5t-21 -42.5t21 -42.5t58 -19.5q26 0 56 13t54 37h305zM1880 1125h127q20 42 20 73q0 88 -62 88q-37 0 -61 -40.5t-24 -97.5v-23z
M1380 1125h127q20 42 20 73q0 88 -62 88q-37 0 -61 -40.5t-24 -97.5v-23zM2380 1148v-11l1 -12h126q20 42 20 73q0 88 -62 88q-37 0 -61 -40.5t-24 -97.5zM880 1148v-12l1 -11h126q20 42 20 73q0 88 -62 88q-37 0 -61 -40.5t-24 -97.5zM1589 1067h382l17 24h-387zM2089 1067
h382l17 24h-387zM1089 1067h382l17 24h-387zM2589 1067h119v24h-107zM1411 1006q11 7 31 27h-42zM1911 1006q11 7 31 27h-42zM911 1006q11 7 31 27h-42zM2411 1006q11 7 31 27h-41z" />
  </g>

</svg>
