<?xml version="1.0" standalone="no"?>
<!DOCTYPE svg PUBLIC "-//W3C//DTD SVG 1.1//EN" "http://www.w3.org/Graphics/SVG/1.1/DTD/svg11.dtd" >
<svg xmlns="http://www.w3.org/2000/svg" xmlns:xlink="http://www.w3.org/1999/xlink" version="1.1" viewBox="-10 0 2376 2048">
  <g transform="matrix(1 0 0 -1 0 1638)">
   <path fill="currentColor"
d="M673 258l-1 32q0 260 164 523t439 470q125 96 168.5 138t72.5 83q24 35 50 152q24 111 48.5 159t64 74.5t100.5 26.5q65 0 106 -41.5t41 -101.5q0 -30 -22.5 -76.5t-50.5 -96.5q-90 -163 -90 -217q0 -40 10 -105q16 -112 16 -200q0 -190 -53.5 -400.5t-160.5 -419.5h691
q-32 -135 -136.5 -270t-250 -233t-324 -151t-372.5 -53q-195 0 -373.5 53t-323.5 151.5t-249.5 233t-136.5 269.5h573zM1183 -409q176 0 337.5 46t300 132t242 206.5t147.5 242.5h-2054q43 -122 147 -242t242 -206.5t299.5 -132.5t338.5 -46zM712 290l1 -32h817
q116 233 167.5 436.5t51.5 383.5q0 82 -16 194q-10 65 -10 111q0 35 21 88.5t73 148.5q27 49 48 90.5t21 62.5q0 44 -30 73.5t-77 29.5q-48 0 -79.5 -22.5t-52 -64.5t-41.5 -141q-23 -110 -50 -154t-81.5 -98t-174.5 -145q-275 -211 -431 -461t-157 -500z" />
  </g>

</svg>
