<?xml version="1.0" standalone="no"?>
<!DOCTYPE svg PUBLIC "-//W3C//DTD SVG 1.1//EN" "http://www.w3.org/Graphics/SVG/1.1/DTD/svg11.dtd" >
<svg xmlns="http://www.w3.org/2000/svg" xmlns:xlink="http://www.w3.org/1999/xlink" version="1.1" viewBox="-10 0 2525 2048">
  <g transform="matrix(1 0 0 -1 0 1638)">
   <path fill="currentColor"
d="M2405 806v-133h-832q53 -86 53 -151q0 -86 -52.5 -131.5t-155.5 -45.5q-39 0 -81 14v-214h1077v-40h-225v-170h225v-40h-225v-170h225v-40h-2295v40h230v170h-230v40h230v170h-230v40h1098v274q-61 39 -132.5 102.5t-119.5 115.5l-34 36h-351q-42 -54 -113 -90t-143 -36
q-73 0 -122 31.5t-75.5 83.5t-26.5 108q0 119 42.5 185.5t117.5 66.5q62 0 151.5 -65t156.5 -151h132l-3 910q0 27 4 47l-8 15h-12q-59 0 -111 70t-52 141l3 34l-77 46q13 36 61 64.5t101 28.5q20 0 42 -4l-26 -79q57 -14 102.5 -66t49.5 -119q85 67 210 67q126 0 209 -66
q4 64 47 116.5t105 67.5l-26 79q22 4 42 4q53 0 101 -28.5t61 -64.5l-77 -46l3 -34q0 -70 -51.5 -140.5t-111.5 -70.5h-12l-7 -14q2 -11 3 -22.5t4 -935.5h1131zM983 1317l241 453q-19 72 -84.5 111.5t-155.5 39.5q-92 0 -158 -40.5t-83 -111.5zM214 766q7 -16 35 -53h2116
v53h-2151zM1006 1274l228 -428l-3 851zM737 1695l3 -837l220 416zM1032 943q69 -12 140 -67l-189 354l-188 -354q71 55 140 67l6 -40q-74 -15 -168 -97h420q-87 81 -167 97zM839 -275h410v170h-410v-170zM389 -275h410v170h-410v-170zM1739 -275h410v170h-410v-170zM839 -65
h410v170h-410v-170zM389 -65h410v170h-410v-170zM1289 -65h410v170h-410v-170zM1289 -275h410v170h-410v-170zM1739 -65h410v170h-410v-170zM1563 490q0 32 -58 90.5t-125 92.5h-43v-171q36 -24 68 -36.5t71 -12.5q38 0 62.5 10.5t24.5 26.5zM681 1818q23 0 38 18t15 49
q0 60 -43 108.5t-93 48.5q-40 0 -40 -53q0 -56 39.5 -113.5t83.5 -57.5zM1286 1818q44 0 83.5 57t39.5 114q0 53 -40 53q-50 0 -93 -48t-43 -109q0 -31 15 -49t38 -18zM1556 433q-36 -19 -93 -19q-56 0 -126.5 37.5t-151 107t-111.5 114.5h-75q21 -21 49.5 -50t62 -61
t71 -63.5t77 -57t80 -41t79.5 -15.5q96 0 138 48zM180 885q0 -31 22 -79h198q-66 70 -104 95t-66 25q-50 0 -50 -41zM343 617q-67 0 -122 66t-75 159q-4 -30 -4 -58q0 -89 52.5 -143t134.5 -54q50 0 102.5 22.5t93.5 63.5h-53q-20 -25 -53.5 -40.5t-75.5 -15.5zM260 982
q-41 0 -69 -30q21 9 51 9q35 0 101 -49t110 -106h63q-72 83 -141 129.5t-115 46.5zM1297 375l-40 20v-250h40v230zM1257 560l40 -30v143h-40v-113zM1585 539q-6 28 -23 67t-36 67h-72q86 -65 131 -134zM1132 673q26 -28 85 -80v80h-85zM343 657q40 0 67 16h-124
q24 -16 57 -16zM2379 1290q-22 42 -102.5 120t-144.5 133q-126 -81 -262 -81q-124 0 -276 76q-43 -48 -81 -72.5t-65 -24.5q-43 0 -65.5 26t-22.5 89v25q0 63 22.5 89.5t65.5 26.5q25 0 65 -27.5t81 -69.5q133 76 276 76q56 0 126.5 -22t135.5 -59q106 92 147.5 133.5
t64.5 69.5t35 50l36 -20q-22 -40 -87 -108t-164 -151q95 -79 162 -149t89 -110zM1600 929q13 142 100.5 229t216.5 87t217 -87t100 -229h-634zM1917 1205q-106 0 -181.5 -64t-91.5 -172h545q-17 109 -94 172.5t-178 63.5zM1870 1502q59 0 119 18t107 49q-65 38 -118.5 52.5
t-107.5 14.5q-59 0 -125.5 -18t-122.5 -49q121 -67 248 -67zM1448 1481q38 0 119 88q-81 88 -119 88q-48 0 -48 -77v-23q0 -76 48 -76z" />
  </g>

</svg>
