<?xml version="1.0" standalone="no"?>
<!DOCTYPE svg PUBLIC "-//W3C//DTD SVG 1.1//EN" "http://www.w3.org/Graphics/SVG/1.1/DTD/svg11.dtd" >
<svg xmlns="http://www.w3.org/2000/svg" xmlns:xlink="http://www.w3.org/1999/xlink" version="1.1" viewBox="-10 0 2524 2048">
  <g transform="matrix(1 0 0 -1 0 1638)">
   <path fill="currentColor"
d="M1734 806q3 103 17 229l7 93q0 15 -0.5 50.5t-10.5 79t-34 90.5t-69.5 86t-117.5 64t-179 25q-89 0 -358 -28q-165 -17 -196 -17q-60 0 -103 42t-43 113q0 41 18 131q-52 -11 -88 -11q-55 0 -99.5 28.5t-44.5 65.5t26.5 71.5t75 56t107.5 21.5q58 0 98.5 -15.5t63 -43
t22.5 -56.5q0 -16 -6 -39q-32 -111 -32 -130q0 -65 59 -65l53 6q422 57 504 57q41 0 101 -5l445 351q41 32 80.5 57t81.5 25q45 0 71.5 -23t26.5 -67q0 -41 -25 -70t-65 -29q-29 0 -62 21l-198 -323q-67 96 -173 96q-32 0 -63 -8t-64 -38q121 -21 208 -76t132.5 -145
t45.5 -194q0 -45 -8 -113q-38 -324 -40 -363h507v-133h-500q8 -60 30 -130t49 -119q24 -44 24 -75q0 -36 -30 -36q-33 0 -86 56t-96.5 141t-57.5 163h-165q53 -86 53 -151q0 -86 -52.5 -131.5t-155.5 -45.5q-39 0 -81 14v-214h1077v-40h-225v-170h225v-40h-225v-170h225v-40
h-2295v40h230v170h-230v40h230v170h-230v40h1098v274q-61 39 -132.5 102.5t-119.5 115.5l-34 36h-351q-42 -54 -113 -90t-143 -36q-73 0 -122 31.5t-75.5 83.5t-26.5 108q0 119 42.5 185.5t117.5 66.5q62 0 151.5 -65t156.5 -151h1166zM1774 806h84q3 53 32 295
q16 137 16 181q0 116 -60 207t-172.5 136t-269.5 45q-68 0 -495 -57l-62 -6q-99 0 -99 105q0 26 20 93v-1q18 69 18 77q0 32 -40 53.5t-104 21.5q-48 0 -86.5 -15t-60.5 -40.5t-22 -53.5q0 -23 33 -38.5t71 -15.5q49 0 143 26q-33 -119 -33 -186q0 -51 30 -83t76 -32l129 11
q300 34 425 34q120 0 203 -30t136.5 -80.5t82.5 -127.5t29 -197q0 -27 -7 -97q-11 -103 -17 -225zM214 766q7 -16 35 -53h2116v53h-2151zM389 -275h410v170h-410v-170zM839 -65h410v170h-410v-170zM389 -65h410v170h-410v-170zM1289 -275h410v170h-410v-170zM1289 -65h410
v170h-410v-170zM1739 -65h410v170h-410v-170zM839 -275h410v170h-410v-170zM1739 -275h410v170h-410v-170zM1664 1779l45 3q88 0 148 -64l194 316q42 -45 69 -45q24 0 37 18.5t13 40.5q0 24 -16 37t-42 13q-48 0 -138 -74zM1563 490q0 32 -58 90.5t-125 92.5h-43v-171
q36 -24 68 -36.5t71 -12.5q38 0 62.5 10.5t24.5 26.5zM1556 433q-36 -19 -93 -19q-56 0 -126.5 37.5t-151 107t-111.5 114.5h-75q21 -21 49.5 -50t62 -61t71 -63.5t77 -57t80 -41t79.5 -15.5q96 0 138 48zM1864 673h-86q12 -71 48.5 -147t80 -124.5t70.5 -48.5
q-2 2 -33 60.5t-55.5 148.5t-24.5 111zM180 885q0 -31 22 -79h198q-66 70 -104 95t-66 25q-50 0 -50 -41zM343 617q-67 0 -122 66t-75 159q-4 -30 -4 -58q0 -89 52.5 -143t134.5 -54q50 0 102.5 22.5t93.5 63.5h-53q-20 -25 -53.5 -40.5t-75.5 -15.5zM260 982q-41 0 -69 -30
q21 9 51 9q35 0 101 -49t110 -106h63q-72 83 -141 129.5t-115 46.5zM1297 375l-40 20v-250h40v230zM1257 560l40 -30v143h-40v-113zM1585 539q-6 28 -23 67t-36 67h-72q86 -65 131 -134zM1132 673q26 -28 85 -80v80h-85zM593 1896q0 14 9.5 23.5t23.5 9.5t23.5 -9.5
t9.5 -23.5t-9.5 -23.5t-23.5 -9.5t-23.5 9.5t-9.5 23.5zM343 657q40 0 67 16h-124q24 -16 57 -16z" />
  </g>

</svg>
