<?xml version="1.0" standalone="no"?>
<!DOCTYPE svg PUBLIC "-//W3C//DTD SVG 1.1//EN" "http://www.w3.org/Graphics/SVG/1.1/DTD/svg11.dtd" >
<svg xmlns="http://www.w3.org/2000/svg" xmlns:xlink="http://www.w3.org/1999/xlink" version="1.1" viewBox="-10 0 2912 2048">
  <g transform="matrix(1 0 0 -1 0 1638)">
   <path fill="currentColor"
d="M1451 593q78 0 141.5 -37.5t100.5 -99.5v153h40v-174h96v119l719 -90q143 -17 198.5 -55t55.5 -98q0 -62 -57 -99t-197 -54l-719 -90v119h-96v-174h-40v153q-37 -62 -100.5 -99.5t-141.5 -37.5t-141.5 37.5t-100.5 99.5v-153h-40v174h-96v-119l-719 90q-142 17 -198 54.5
t-56 98.5t56 98.5t198 54.5l719 90v-119h96v174h40v-153q37 62 100.5 99.5t141.5 37.5zM140 311q0 -44 52 -72t168 -41l673 -84v394l-674 -84h1q-99 -14 -136.5 -27t-60.5 -33.5t-23 -52.5zM2762 311q0 32 -23 52.5t-61 33.5t-136 27h1l-674 84v-394l673 84
q117 13 168.5 40.5t51.5 72.5zM1451 69q100 0 171 71t71 171q0 103 -71.5 172.5t-170.5 69.5t-170.5 -69.5t-71.5 -172.5q0 -100 71 -171t171 -71zM1073 395v-168h96v168h-96zM1733 227h96v168h-96v-168z" />
  </g>

</svg>
