<?xml version="1.0" standalone="no"?>
<!DOCTYPE svg PUBLIC "-//W3C//DTD SVG 1.1//EN" "http://www.w3.org/Graphics/SVG/1.1/DTD/svg11.dtd" >
<svg xmlns="http://www.w3.org/2000/svg" xmlns:xlink="http://www.w3.org/1999/xlink" version="1.1" viewBox="-10 0 2594 2048">
  <g transform="matrix(1 0 0 -1 0 1638)">
   <path fill="currentColor"
d="M1440 1831h40l136 -191l454 -29v-35l-84 5q77 -51 118.5 -144t41.5 -219q0 -132 -49 -238t-130 -166l103 7v-35l-590 -39v-329q464 9 818 193l65 360h121v-428q-57 -118 -182 -206.5t-304 -135.5h462v-250h-2350v250h267l66 95q-165 80 -254 195t-89 248q0 138 107 225
t299 103l94 150q63 -52 94 -119t31 -134q0 -58 -27 -124.5t-73 -115.5l-104 152h-35q-79 0 -132.5 -37t-53.5 -100q0 -159 285 -240l225 322l46 -3q91 50 145.5 159t54.5 241q0 126 -48 219.5t-139 141.5l-59 -3v35l494 30zM2444 936h-46l-61 -345q-185 -105 -408.5 -157.5
t-526.5 -52.5q-549 0 -845.5 89t-296.5 269q0 77 62.5 124.5t156.5 47.5h56l92 -125q58 72 58 178q0 49 -19.5 101.5t-61.5 90.5l-76 -126q-109 -2 -197.5 -37.5t-139.5 -101t-51 -152.5q0 -143 118.5 -265t327.5 -197.5t442 -75.5h698q143 0 290.5 44.5t261 124
t166.5 175.5v391zM2106 1218q0 131 -52 227t-150 142l-424 27v-832l408 27q99 46 158.5 157t59.5 252zM2420 -14v180h-2270v-180h2270zM1096 1218q0 -132 -49 -238t-130 -166l523 -32v833l-507 -32q78 -51 120.5 -144.5t42.5 -220.5zM1440 418v329l-608 37l-206 -296
q287 -70 785 -70h29zM720 201q-128 28 -241 78l-54 -78h295zM1480 1649l93 -6l-93 129v-123zM1347 1644l93 6v122z" />
  </g>

</svg>
