<?xml version="1.0" standalone="no"?>
<!DOCTYPE svg PUBLIC "-//W3C//DTD SVG 1.1//EN" "http://www.w3.org/Graphics/SVG/1.1/DTD/svg11.dtd" >
<svg xmlns="http://www.w3.org/2000/svg" xmlns:xlink="http://www.w3.org/1999/xlink" version="1.1" viewBox="-10 0 2543 2048">
  <g transform="matrix(1 0 0 -1 0 1638)">
   <path fill="currentColor"
d="M2430 2005v-988h-600v136h454v695h-2038v-695h454v-136h-600v988h2330zM140 1965v-908h520v56h-454v775h2118v-775h-454v-56h520v908h-2250zM387 -483q125 0 173.5 76.5t48.5 264.5q0 157 -30.5 300.5t-82 230t-109.5 86.5q-57 0 -109 -86t-82.5 -230t-30.5 -301
q0 -188 48.5 -264.5t173.5 -76.5zM387 515q70 0 130 -86.5t96 -243.5t36 -327q0 -211 -58 -296t-204 -85t-204 84.5t-58 296.5q0 173 36.5 329.5t96.5 242t129 85.5zM1265 -478q28 0 67.5 65t65 162t25.5 203q0 81 -35 153t-93 115l52 1196h-164l52 -1196q-58 -44 -93 -116
t-35 -152q0 -106 25.5 -203t65.5 -162t67 -65zM1265 -518q-38 0 -86.5 68.5t-80 175t-31.5 226.5q0 75 29.5 145t71.5 114l27 30l-54 1215h248l-54 -1215q67 -60 97.5 -133t30.5 -156q0 -117 -31.5 -224.5t-80 -176.5t-86.5 -69zM2288 -481q26 107 65.5 267.5t39.5 246.5
q0 84 -68.5 146.5t-183.5 81.5v149h217v22h-486v-22h217v-149q-115 -18 -183.5 -79.5t-68.5 -148.5q0 -80 18 -156.5t38 -157.5l49 -200h346zM1911 -521l-56 230q-19 78 -38.5 158t-19.5 166q0 97 68.5 167.5t183.5 94.5v75h-217v102h566v-102h-217v-75q116 -24 184 -95
t68 -167q0 -83 -19 -162.5t-39 -161.5l-56 -230h-408z" />
  </g>

</svg>
