<?xml version="1.0" standalone="no"?>
<!DOCTYPE svg PUBLIC "-//W3C//DTD SVG 1.1//EN" "http://www.w3.org/Graphics/SVG/1.1/DTD/svg11.dtd" >
<svg xmlns="http://www.w3.org/2000/svg" xmlns:xlink="http://www.w3.org/1999/xlink" version="1.1" viewBox="-10 0 2866 2048">
  <g transform="matrix(1 0 0 -1 0 1638)">
   <path fill="currentColor"
d="M1428 89q-91 0 -151 66q-61 -68 -93 -144l-872 92q-99 10 -155.5 59t-56.5 133t56.5 133t155.5 59l872 92q32 -76 93 -144q62 66 151 66t151 -66q57 64 93 144l872 -92q99 -10 155.5 -59.5t56.5 -132.5q0 -84 -56 -132.5t-156 -59.5l-872 -92q-36 80 -93 144
q-62 -66 -151 -66zM1634 295q0 -58 -30 -107q53 -56 92 -135l844 90q83 9 129.5 51t46.5 101q0 63 -46.5 103t-129.5 49l-844 90q-39 -79 -92 -135q30 -49 30 -107zM1222 295q0 58 30 107q-51 51 -92 135l-844 -90q-82 -8 -129 -48.5t-47 -103.5q0 -59 46.5 -101t129.5 -51
l844 -90q41 84 92 135q-30 49 -30 107zM1262 295q0 -69 48 -117.5t118 -48.5q69 0 117.5 48t48.5 118q0 69 -48 117.5t-118 48.5q-69 0 -117.5 -48t-48.5 -118z" />
  </g>

</svg>
