<?xml version="1.0" standalone="no"?>
<!DOCTYPE svg PUBLIC "-//W3C//DTD SVG 1.1//EN" "http://www.w3.org/Graphics/SVG/1.1/DTD/svg11.dtd" >
<svg xmlns="http://www.w3.org/2000/svg" xmlns:xlink="http://www.w3.org/1999/xlink" version="1.1" viewBox="-10 0 2072 2048">
  <g transform="matrix(1 0 0 -1 0 1638)">
   <path fill="currentColor"
d="M1206 1789q71 0 135.5 -15.5t124.5 -42t159 -89.5q89 -57 133.5 -74.5t83.5 -17.5h120v-149h-216q-62 -58 -74 -136h42v-1578h222v-220h-1836l193 220h37v284q0 32 11.5 45.5t37.5 13.5t37.5 -14t11.5 -45v-284h25v284q0 32 11.5 45.5t37.5 13.5t37.5 -14t11.5 -45v-284
h25v284q0 32 11.5 45.5t37.5 13.5t37.5 -14t11.5 -45v-284h23v1139q-76 14 -183.5 60t-175.5 94.5t-68 79.5q0 44 47 44q14 0 31 -11t40 -27q107 -68 186.5 -100t122.5 -42v32q-131 36 -259 108t-128 117q0 44 47 44q14 0 31 -11t40 -27q85 -54 143.5 -81.5t125.5 -49.5v32
q-135 51 -221 107t-86 92q0 44 47 44q14 0 31 -11t40 -27q107 -68 189 -101v73h42q-10 76 -74 136h-215v149h120q55 0 108 28t109 64q97 61 157.5 88.5t125 43t136.5 15.5zM843 -313h725v1421h-725v-1421zM1206 1749q-94 0 -185 -30t-212 -111q-85 -57 -138 -77.5
t-101 -20.5h-80v-69h1432v69h-80q-49 0 -101.5 20.5t-137.5 77.5q-95 62 -149 86.5t-114.5 39.5t-133.5 15zM1608 1148v-1461h66v1538h-937v-1538h66v1461h805zM315 -353l-123 -140h1704v140h-1581zM720 1401q50 -63 60 -136h852q8 71 59 136h-971zM697 863v23
q-54 12 -140 48t-189 102q-46 32 -51 32q-11 0 -11 -8q0 -18 57.5 -56.5t157 -81t176.5 -59.5zM697 994v23q-137 43 -289 140q-46 32 -51 32q-11 0 -11 -8q0 -16 47.5 -49.5t142 -77t161.5 -60.5zM697 1126v26l-46 20q-63 27 -163 91q-46 32 -51 32q-11 0 -11 -8
q0 -18 51.5 -53.5t119.5 -66.5zM491 -313h22v286q0 19 -11 19t-11 -19v-286zM368 -313h22v286q0 19 -11 19t-11 -19v-286zM614 -313h22v286q0 19 -11 19t-11 -19v-286z" />
  </g>

</svg>
