<?xml version="1.0" standalone="no"?>
<!DOCTYPE svg PUBLIC "-//W3C//DTD SVG 1.1//EN" "http://www.w3.org/Graphics/SVG/1.1/DTD/svg11.dtd" >
<svg xmlns="http://www.w3.org/2000/svg" xmlns:xlink="http://www.w3.org/1999/xlink" version="1.1" viewBox="-10 0 2524 2048">
  <g transform="matrix(1 0 0 -1 0 1638)">
   <path fill="currentColor"
d="M2405 806v-133h-832q53 -86 53 -151q0 -86 -52.5 -131.5t-155.5 -45.5q-39 0 -81 14v-214h1077v-40h-225v-170h225v-40h-225v-170h225v-40h-2295v40h230v170h-230v40h230v170h-230v40h1098v274q-61 39 -132.5 102.5t-119.5 115.5l-34 36h-351q-42 -54 -113 -90t-143 -36
q-73 0 -122 31.5t-75.5 83.5t-26.5 108q0 119 42.5 185.5t117.5 66.5q62 0 151.5 -65t156.5 -151h1837zM214 766q7 -16 35 -53h2116v53h-2151zM1739 -65h410v170h-410v-170zM389 -275h410v170h-410v-170zM1289 -275h410v170h-410v-170zM839 -275h410v170h-410v-170zM389 -65
h410v170h-410v-170zM839 -65h410v170h-410v-170zM1739 -275h410v170h-410v-170zM1289 -65h410v170h-410v-170zM1563 490q0 32 -58 90.5t-125 92.5h-43v-171q36 -24 68 -36.5t71 -12.5q38 0 62.5 10.5t24.5 26.5zM1556 433q-36 -19 -93 -19q-56 0 -126.5 37.5t-151 107
t-111.5 114.5h-75q21 -21 49.5 -50t62 -61t71 -63.5t77 -57t80 -41t79.5 -15.5q96 0 138 48zM180 885q0 -31 22 -79h198q-66 70 -104 95t-66 25q-50 0 -50 -41zM343 617q-67 0 -122 66t-75 159q-4 -30 -4 -58q0 -89 52.5 -143t134.5 -54q50 0 102.5 22.5t93.5 63.5h-53
q-20 -25 -53.5 -40.5t-75.5 -15.5zM260 982q-41 0 -69 -30q21 9 51 9q35 0 101 -49t110 -106h63q-72 83 -141 129.5t-115 46.5zM1297 375l-40 20v-250h40v230zM1257 560l40 -30v143h-40v-113zM1585 539q-6 28 -23 67t-36 67h-72q86 -65 131 -134zM1132 673q26 -28 85 -80v80
h-85zM343 657q40 0 67 16h-124q24 -16 57 -16zM835 2083q40 0 64.5 -16.5t40.5 -47t30 -99.5l152 -662l-160 -158q-36 -36 -47 -62.5t-11 -57.5q0 -16 8.5 -41.5t42.5 -102.5h-240l30 69q21 53 21 75q0 31 -11 57.5t-47 62.5t-160 158l152 662q20 98 51 130.5t84 32.5z
M835 2043q-34 0 -56 -25.5t-39 -104.5l-148 -643l144 -142q42 -42 56 -74.5t14 -73.5q0 -21 -5 -40t-26 -64h120q-21 45 -26 63t-5 41q0 40 13.5 72.5t56.5 75.5l144 142l-148 643q-17 79 -39 104.5t-56 25.5zM1860 1247q125 0 213 -92t99 -230h-624q11 138 99 230t213 92z
M1860 1207q-102 0 -174 -67t-92 -175h531q-20 108 -91 175t-174 67zM1354 1364q10 77 40 111t78 34q51 0 102 -18q35 -14 75 -14h58q-211 216 -211 400q0 86 32.5 141t88.5 55q78 0 205 -145l43 -45l49 -42q179 -153 179 -275q0 -37 -5 -54l-3 -18q0 -11 10 -11
q25 0 65.5 32.5t60.5 81t20 113.5q0 52 -22 103.5t-49 97t-49 83t-22 63.5q0 24 17 46.5t53 22.5q40 0 83.5 -61t71 -154t27.5 -177q0 -172 -80 -268t-220 -96q-48 0 -83 18l1 -6q0 -18 -47 -18h-23h-545zM1857 1536q44 -56 94.5 -93t104.5 -37q121 0 189 89t68 239
q0 75 -23 158.5t-58 138.5t-63 55q-14 0 -21.5 -10.5t-7.5 -23.5q0 -16 21.5 -51.5t48 -82t48 -100.5t21.5 -108q0 -71 -27.5 -133.5t-75 -98t-98.5 -35.5q-40 0 -40 26l3 16q12 42 12 81q0 111 -165 245l-53 43q-97 103 -123.5 127t-51 38t-43.5 14q-36 0 -58.5 -42.5
t-22.5 -113.5q0 -182 268 -440h-155q-50 0 -89 16q-51 16 -88 16q-59 0 -72 -65h529q-58 49 -104 106z" />
  </g>

</svg>
