<?xml version="1.0" standalone="no"?>
<!DOCTYPE svg PUBLIC "-//W3C//DTD SVG 1.1//EN" "http://www.w3.org/Graphics/SVG/1.1/DTD/svg11.dtd" >
<svg xmlns="http://www.w3.org/2000/svg" xmlns:xlink="http://www.w3.org/1999/xlink" version="1.1" viewBox="-10 0 2524 2048">
  <g transform="scale(1, -1)" transform-origin="center">
   <path fill="currentColor"
d="M119 145h1098v274q-61 39 -132.5 102.5t-119.5 115.5l-34 36h-351q-42 -54 -113 -90t-143 -36q-73 0 -122 31.5t-75.5 83.5t-26.5 108q0 119 42.5 185.5t117.5 66.5q62 0 151.5 -65t156.5 -151h182v162h77v287h-77v276h77v263h-77v235h268v-50h91v50h268v-235h-77v-263
h77v-276h-77v-287h77v-162h605l15 805q-59 37 -90.5 86t-31.5 101v81q0 37 32.5 73.5t77.5 52.5v46h114v-48q47 -20 76.5 -54.5t29.5 -69.5v-81q0 -53 -32.5 -102t-90.5 -85h1l15 -805h307v-133h-832q53 -86 53 -151q0 -86 -52.5 -131.5t-155.5 -45.5q-39 0 -81 14v-214
h1077v-40h-225v-170h225v-40h-225v-170h225v-40h-2295v40h230v170h-230v40h230v170h-230v40zM952 912h223v958h-223v-958zM214 766q7 -16 35 -53h2116v53h-2151zM912 1910h66v79h-188v-155h77v-343h-77v-196h77v-367h-77v-122h177v66h-55v1038zM1160 872v-66h177v122h-77
v367h77v196h-77v343h77v155h-188v-79h66v-1038h-55zM389 -65h410v170h-410v-170zM389 -275h410v170h-410v-170zM839 -65h410v170h-410v-170zM1289 -65h410v170h-410v-170zM1739 -65h410v170h-410v-170zM1289 -275h410v170h-410v-170zM839 -275h410v170h-410v-170zM1739 -275
h410v170h-410v-170zM2040 1976q-45 0 -85 -31.5t-40 -65.5v-81q0 -46 32 -90.5t93 -76.5q61 32 93 76t32 91v81q0 35 -40 66t-85 31zM1563 490q0 32 -58 90.5t-125 92.5h-43v-171q36 -24 68 -36.5t71 -12.5q38 0 62.5 10.5t24.5 26.5zM1556 433q-36 -19 -93 -19
q-56 0 -126.5 37.5t-151 107t-111.5 114.5h-75q21 -21 49.5 -50t62 -61t71 -63.5t77 -57t80 -41t79.5 -15.5q96 0 138 48zM180 885q0 -31 22 -79h198q-66 70 -104 95t-66 25q-50 0 -50 -41zM343 617q-67 0 -122 66t-75 159q-4 -30 -4 -58q0 -89 52.5 -143t134.5 -54
q50 0 102.5 22.5t93.5 63.5h-53q-20 -25 -53.5 -40.5t-75.5 -15.5zM2022 806h36l-15 782l-3 -1l-4 1zM260 982q-41 0 -69 -30q21 9 51 9q35 0 101 -49t110 -106h63q-72 83 -141 129.5t-115 46.5zM1297 375l-40 20v-250h40v230zM1257 560l40 -30v143h-40v-113zM1585 539
q-6 28 -23 67t-36 67h-72q86 -65 131 -134zM1132 673q26 -28 85 -80v80h-85zM343 657q40 0 67 16h-124q24 -16 57 -16z" />
  </g>

</svg>
