<?xml version="1.0" standalone="no"?>
<!DOCTYPE svg PUBLIC "-//W3C//DTD SVG 1.1//EN" "http://www.w3.org/Graphics/SVG/1.1/DTD/svg11.dtd" >
<svg xmlns="http://www.w3.org/2000/svg" xmlns:xlink="http://www.w3.org/1999/xlink" version="1.1" viewBox="-10 0 2243 2048">
  <g transform="matrix(1 0 0 -1 0 1638)">
   <path fill="currentColor"
d="M1971 -84q-151 0 -289 75t-250.5 223t-162.5 315l-605 481q-13 -55 -13 -110q0 -180 165 -452q25 -38 30.5 -54.5t5.5 -31.5q0 -28 -16 -44.5t-42 -16.5q-23 0 -45.5 17t-74.5 88q-68 93 -116.5 233t-48.5 254q0 125 26 219l-368 293q-66 52 -66 112q0 34 24 57.5
t70 23.5q30 0 58.5 -20t57.5 -46l1046 -913l67 -10q110 -15 182 -39.5t154.5 -68.5t146.5 -106t112 -133.5t80.5 -154t32.5 -134.5q0 -19 -6 -26q-12 -14 -55.5 -22.5t-99.5 -8.5zM2090 -13q0 50 -52.5 158t-128 190t-163.5 128q-79 41 -150.5 66.5t-175.5 39.5l-79 12
l-1056 921q-25 22 -47.5 39t-42.5 17q-25 0 -39.5 -11.5t-14.5 -28.5q0 -42 50 -81l1112 -884q45 -156 152 -302t239.5 -220.5t276.5 -74.5q100 0 117 20zM610 900q0 69 20 136l-57 46q-23 -100 -23 -197q0 -104 46 -235t110 -220q25 -35 44.5 -62t34.5 -27q27 0 27 24
q0 14 -30 63q-172 276 -172 472z" />
  </g>

</svg>
