<?xml version="1.0" standalone="no"?>
<!DOCTYPE svg PUBLIC "-//W3C//DTD SVG 1.1//EN" "http://www.w3.org/Graphics/SVG/1.1/DTD/svg11.dtd" >
<svg xmlns="http://www.w3.org/2000/svg" xmlns:xlink="http://www.w3.org/1999/xlink" version="1.1" viewBox="-10 0 2183 2048">
  <g transform="matrix(1 0 0 -1 0 1638)">
   <path fill="currentColor"
d="M1582 -105q-9 105 -62 229.5t-117 186.5q-19 -5 -36 -5q-28 0 -78 21q-57 31 -128 31l11 68q39 16 69 22l-1 25l2 35l31 2l28 -3q8 39 24 67l69 9v-17q0 -51 26 -112q19 -44 19 -75q0 -19 -7 -40q71 -71 127 -205t63 -241l64 41l50 -37q-22 226 -108.5 429.5
t-208.5 331.5t-255 157l-55 -566q65 31 127 31q70 0 112.5 -48.5t42.5 -118.5q0 -76 -77 -200q-55 -85 -102 -265q-11 -41 -43 -69t-84 -28t-84 28t-43 69q-39 139 -73 213l-29 52q-77 124 -77 200q0 71 42.5 119t112.5 48q62 0 127 -31l-56 566q-138 -30 -262 -165
t-206 -335t-103 -418l50 37l64 -41q6 112 68.5 254t138.5 207q-6 18 -6 33l4 35l10 35q15 46 15 80l-1 18l34 29q34 -11 86 -54.5t83 -97.5t36 -86l-33 -29q-25 5 -47 5l-88 -10q-45 0 -67 12q-70 -59 -128 -191t-65 -238l118 83l-148 -426h-292l-148 425l119 -83v720
q-31 12 -53 43t-38.5 57t-45.5 48v44q22 14 72 25t85 11q36 0 85.5 -11t71.5 -25v-44q-33 -25 -66 -78q-36 -57 -71 -70v-720l62 41l54 -40q22 231 109 438t213 342.5t261 173.5q-159 65 -213 238l-22 75q-42 155 -104.5 224t-155.5 69q-94 0 -148.5 -59t-54.5 -153v-154
q35 -13 71 -69q33 -54 66 -79v-44q-22 -14 -72 -25t-85 -11q-36 0 -85.5 11t-71.5 25v44q29 22 46 48q33 53 51 72.5t40 27.5v154q0 113 65.5 182.5t177.5 69.5q109 0 179 -71t117 -244l24 -81q24 -82 75 -139.5t122 -76.5l-84 868h-424v168h1190v-168h-424l-85 -868
q71 19 122 76t75 140l24 81q47 173 117 244t179 71q77 0 131.5 -33t83 -90.5t28.5 -128.5v-145q46 -25 71 -91q9 -23 22.5 -50t48.5 -61l-56 -41q-32 11 -64 32q-15 -20 -42 -43q-27 23 -42 43q-32 -21 -64 -32l-56 41q35 34 48.5 61t22.5 50q26 66 71 91v145
q0 94 -54.5 153t-148.5 59t-156 -69t-104 -224l-22 -75q-54 -173 -213 -238h1q140 -39 268.5 -182t211 -349t103.5 -423l54 40l62 -41v680h-2v11q-48 27 -71 91q-9 23 -22.5 50t-48.5 61l56 41l20 -9l44 -23q15 20 42 43q27 -23 42 -43l44 23l20 9l56 -41q-35 -34 -48.5 -61
t-22.5 -50q-25 -65 -69 -90v-692l119 83l-148 -425h-292l-148 426zM1085 420l131 1331h-262zM1065 -407v608q-68 39 -131 39q-54 0 -84.5 -37t-30.5 -90q0 -31 14.5 -70.5t56.5 -109.5q64 -106 106 -275q17 -56 69 -65zM1236 240q-63 0 -131 -39v-608q50 9 69 65
q42 169 106 275q42 70 56.5 110t14.5 70q0 53 -30.5 90t-84.5 37zM530 1791h1110v88h-1110v-88zM339 -115l-82 -53l-61 44l99 -284h235l97 284l-60 -44l-82 53l-73 -54zM1758 -169l-73 54l-82 -53l-60 44l97 -284h235l99 284l-61 -44l-82 53zM371 781q-17 8 -50 14.5
t-64 6.5q-52 0 -110 -25q21 -19 49 -64l20 -32q15 -29 40 -29t42 29q18 29 32.5 54.5t40.5 45.5zM257 1051q-25 0 -40 -29l-20 -32q-25 -43 -49 -64q58 -25 110 -25q31 0 64 6.5t50 14.5q-26 20 -40 46q-29 50 -42 66.5t-33 16.5zM939 365l30 -2q-15 43 -51.5 90t-98.5 76
q0 -26 -7 -49l-20 -67l-5 -24q0 -17 11.5 -27.5t26.5 -10.5l21 1l56 9zM1911 1061q-34 0 -48 -53q-16 -58 -70 -109l10 -8q29 13 60.5 44.5t47.5 61.5q15 -30 46.5 -61t61.5 -45l10 8q-54 51 -69 109q-15 53 -49 53zM1911 622q34 0 49 53q15 58 69 109l-10 8
q-29 -13 -60.5 -44.5t-47.5 -61.5q-15 30 -46.5 61t-61.5 45l-10 -8q54 -51 70 -109q14 -53 48 -53zM1403 379q0 22 -13 45q-26 45 -26 104v22l-12 -1q-13 -30 -13 -83q0 -39 9 -68q-38 12 -89 12q-41 -1 -62 -11l-2 -12q70 -1 104 -20l22 -10q26 -15 48 -15q13 0 23.5 10.5
t10.5 26.5zM1301 446v14l2 16l-27 4h-8l-1 -11q0 -14 4 -24l16 2zM1911 752l22 21q-7 13 -22 27q-15 -14 -22 -27zM1911 931l-22 -21q7 -13 22 -27q15 14 22 27z" />
  </g>

</svg>
