<?xml version="1.0" standalone="no"?>
<!DOCTYPE svg PUBLIC "-//W3C//DTD SVG 1.1//EN" "http://www.w3.org/Graphics/SVG/1.1/DTD/svg11.dtd" >
<svg xmlns="http://www.w3.org/2000/svg" xmlns:xlink="http://www.w3.org/1999/xlink" version="1.1" viewBox="-10 0 2510 2048">
  <g transform="matrix(1 0 0 -1 0 1638)">
   <path fill="currentColor"
d="M1776 806v-133h-519q53 -86 53 -151q0 -86 -52.5 -131.5t-155.5 -45.5q-39 0 -81 14v-214h768v-40h-122v-170h122v-40h-122v-170h122v-40h-1670v40h120v170h-120v40h120v170h-120v40h782v274q-61 39 -132.5 102.5t-119.5 115.5l-34 36h-35q-42 -54 -113 -90t-143 -36
q-73 0 -122 31.5t-75.5 83.5t-26.5 108q0 119 42.5 185.5t117.5 66.5q62 0 151.5 -65t156.5 -151h1208zM2339 -29q-173 147 -228 147q-39 0 -90 -64.5t-106 -184.5l-72 4q20 114 49.5 400t29.5 368q0 239 -60.5 387.5t-173.5 202.5l-17 -50q-48 8 -86 8q-128 0 -264 -81
l-56 69l-159 -70l162 -50q-35 -31 -59.5 -43.5t-56 -20t-70.5 -7.5q-40 0 -95 15t-102 38q-78 -13 -237 -13q-161 0 -223 16t-62 47q0 13 19 24t19 15q0 3 -7 6q-40 16 -40 45q0 39 90 88l144 78q85 102 243 151q56 72 136.5 130.5t127.5 58.5q68 0 68 -52q0 -23 -17 -46
l-41 -51h9q165 0 295 -20t231 -56.5t180 -93.5t136 -131.5t101.5 -182t97.5 -336.5q54 -227 110.5 -395t134.5 -319zM1962 641q0 -52 -24 -278q46 -12 91 -12q95 0 168 54q-44 144 -80 301q-22 92 -47.5 186.5t-68.5 182.5t-110 164.5t-171 133.5t-252.5 90t-353.5 33
q-173 0 -303.5 -49t-192.5 -131q-26 -17 -54 -30q-32 -14 -102 -55t-66 -56q20 -3 36 -17t16 -28q0 -26 -33 -41q23 -12 62 -18t137 -6l15 146q49 37 74 49.5t56 20.5t72 8q202 0 202 -69q0 -42 -70.5 -70t-177.5 -28q-44 0 -124 10l-7 -67q50 0 137 5t174.5 30.5
t255.5 99.5q147 64 212.5 83.5t106.5 19.5q134 0 229 -73.5t144 -223.5t49 -365zM2111 158q35 0 100.5 -39.5t131.5 -99.5l5 3q-75 145 -138 342q-81 -53 -181 -53q-46 0 -95 12q-7 -74 -25 -214t-28 -201h11q45 90 79.5 142t71 80t68.5 28zM214 766q7 -16 35 -53h1487v53
h-1522zM626 -275h307v170h-307v-170zM626 -65h307v170h-307v-170zM1320 -275h307v170h-307v-170zM973 -65h307v170h-307v-170zM1320 -65h307v170h-307v-170zM279 -65h307v170h-307v-170zM279 -275h307v170h-307v-170zM973 -275h307v170h-307v-170zM1247 490q0 32 -58 90.5
t-125 92.5h-43v-171q36 -24 68 -36.5t71 -12.5q38 0 62.5 10.5t24.5 26.5zM1240 433q-36 -19 -93 -19q-56 0 -126.5 37.5t-151 107t-111.5 114.5h-75q21 -21 49.5 -50t62 -61t71 -63.5t77 -57t80 -41t79.5 -15.5q96 0 138 48zM665 1172q70 -10 120 -10q85 0 146.5 18.5
t61.5 39.5q0 10 -35.5 19.5t-99.5 9.5q-42 0 -68 -4t-50.5 -13.5t-72.5 -42.5zM180 885q0 -31 22 -79h198q-66 70 -104 95t-66 25q-50 0 -50 -41zM343 617q-67 0 -122 66t-75 159q-4 -30 -4 -58q0 -89 52.5 -143t134.5 -54q50 0 102.5 22.5t93.5 63.5h-53
q-20 -25 -53.5 -40.5t-75.5 -15.5zM900 1515q75 15 151 19l63 79v-1q9 15 9 21q0 12 -28 12q-33 0 -86.5 -36.5t-108.5 -93.5zM1540 1263q-77 0 -236 -69l27 -34q123 69 254 69h30l29 -2l6 19q-51 17 -110 17zM260 982q-41 0 -69 -30q21 9 51 9q35 0 101 -49t110 -106h63
q-72 83 -141 129.5t-115 46.5zM981 375l-40 20v-250h40v230zM1046 1083l-92 -29q71 -28 128 -28q53 0 93 18zM941 560l40 -30v143h-40v-113zM1269 539q-6 28 -23 67t-36 67h-72q86 -65 131 -134zM816 673q26 -28 85 -80v80h-85zM494 1220q0 14 10 24t24 10t24 -10t10 -24
t-10 -24t-24 -10t-24 10t-10 24zM343 657q40 0 67 16h-124q24 -16 57 -16z" />
  </g>

</svg>
