<?xml version="1.0" standalone="no"?>
<!DOCTYPE svg PUBLIC "-//W3C//DTD SVG 1.1//EN" "http://www.w3.org/Graphics/SVG/1.1/DTD/svg11.dtd" >
<svg xmlns="http://www.w3.org/2000/svg" xmlns:xlink="http://www.w3.org/1999/xlink" version="1.1" viewBox="-10 0 1304 2048">
  <g transform="matrix(1 0 0 -1 0 1638)">
   <path fill="currentColor"
d="M647 1398q145 0 269 -70.5t201 -201.5t77 -268v-907h-1094v907q0 138 77.5 269t201.5 201t268 70zM647 1358q-137 0 -251.5 -66.5t-185 -187t-70.5 -246.5v-867h508v388q0 228 133.5 367.5t370.5 145.5q-10 121 -79 229.5t-180 172.5t-246 64zM1154 -9v861
q-142 -3 -248 -62t-162 -166.5t-56 -244.5v-388h466z" />
  </g>

</svg>
