<?xml version="1.0" standalone="no"?>
<!DOCTYPE svg PUBLIC "-//W3C//DTD SVG 1.1//EN" "http://www.w3.org/Graphics/SVG/1.1/DTD/svg11.dtd" >
<svg xmlns="http://www.w3.org/2000/svg" xmlns:xlink="http://www.w3.org/1999/xlink" version="1.1" viewBox="-10 0 2682 2048">
  <g transform="matrix(1 0 0 -1 0 1638)">
   <path fill="currentColor"
d="M100 624h2472v-776h-2472v776zM140 -112h2392v696h-2392v-696zM197 527h2278v-582h-2278v582zM339 -15h1993l-192 181h-1608zM2140 306l192 181h-1992l192 -181h1608zM279 -15l236 221h1642l235 -221h43v32l-233 219l233 215v36h-43l-235 -221h-1642l-235 221h-43v-36
l233 -215l-233 -219v-32h42zM2435 74v321l-172 -159zM237 395v-321l172 162z" />
  </g>

</svg>
