<?xml version="1.0" standalone="no"?>
<!DOCTYPE svg PUBLIC "-//W3C//DTD SVG 1.1//EN" "http://www.w3.org/Graphics/SVG/1.1/DTD/svg11.dtd" >
<svg xmlns="http://www.w3.org/2000/svg" xmlns:xlink="http://www.w3.org/1999/xlink" version="1.1" viewBox="-10 0 2564 2048">
  <g transform="matrix(1 0 0 -1 0 1638)">
   <path fill="currentColor"
d="M343 897h-99q-82 0 -113 19.5t-31 57.5q0 71 117 77q-35 53 -35 85q0 26 20 44.5t44 18.5q32 0 60.5 -23.5t71.5 -78.5l36 -45h797q17 50 67 50q47 0 67 -50h590q78 0 111 -20t33 -58t-31 -57.5t-113 -19.5h-592q-15 -37 -44 -48v-253q35 -14 50 -65q219 -63 467 -98
t467 -35q96 0 133.5 -17t37.5 -61q0 -43 -37.5 -60t-133.5 -17q-217 0 -485 38.5t-464 90.5q-19 -29 -56 -29q-25 0 -45 18.5t-29 48.5l-7 3q-306 100 -508 217t-346 267zM575 897q242 -195 649 -329q11 22 35 29v250q-34 10 -43 50h-641zM248 1159q-8 0 -17 -7t-9 -16
q0 -38 100 -156.5t240.5 -219.5t316 -181t433.5 -159q5 22 5 43l-3 35l-68 21q-333 106 -538 232t-363 321q-41 52 -60.5 69.5t-36.5 17.5zM1356 486l1 -23q0 -29 -6 -53q233 -60 480 -93.5t452 -33.5q76 0 103.5 8t27.5 29q0 23 -32 30.5t-99 7.5q-474 0 -927 128z
M450 1012q37 -39 77 -75h786l4 45l-2 30h-865zM1355 1012l2 -30l-3 -45h581q104 0 104 37q0 38 -104 38h-580zM245 1012h-1q-104 0 -104 -38q0 -37 104 -37h62zM1296 897h-37q5 -12 14 -12h2q12 0 21 12zM1278 1062q-13 0 -23 -10h45q-10 10 -22 10zM1298 545q-9 13 -23 15
q-6 0 -10 -4zM1288 385l-34 10q7 -12 24 -12z" />
  </g>

</svg>
