<?xml version="1.0" standalone="no"?>
<!DOCTYPE svg PUBLIC "-//W3C//DTD SVG 1.1//EN" "http://www.w3.org/Graphics/SVG/1.1/DTD/svg11.dtd" >
<svg xmlns="http://www.w3.org/2000/svg" xmlns:xlink="http://www.w3.org/1999/xlink" version="1.1" viewBox="-10 0 1038 2048">
  <g transform="matrix(1 0 0 -1 0 1638)">
   <path fill="currentColor"
d="M514 84q-92 0 -158 31.5t-109.5 84t-58.5 116.5q-9 33 -26 33q-10 0 -16 -10.5t-6 -26.5v-283h748v283q0 16 -6 26.5t-16 10.5q-17 0 -26 -33q-31 -111 -118 -171.5t-208 -60.5zM514 124q109 0 186.5 54.5t101.5 147.5q14 63 63 63q63 0 63 -77v-323h-828v323q0 77 63 77
q49 0 63 -63q24 -92 101.5 -147t186.5 -55zM514 226q78 0 139 50t61 124l-1 21l-161 1389q-6 62 -14.5 87.5t-23.5 25.5t-23 -24.5t-14 -88.5l-162 -1389l-1 -20q0 -75 61 -125t139 -50zM514 186q-95 0 -167.5 59.5t-72.5 149.5l1 25l162 1404q7 75 25 107t52 32t51.5 -31.5
t25.5 -107.5l162 -1403l1 -25q0 -56 -32.5 -105t-89 -77t-118.5 -28z" />
  </g>

</svg>
