<?xml version="1.0" standalone="no"?>
<!DOCTYPE svg PUBLIC "-//W3C//DTD SVG 1.1//EN" "http://www.w3.org/Graphics/SVG/1.1/DTD/svg11.dtd" >
<svg xmlns="http://www.w3.org/2000/svg" xmlns:xlink="http://www.w3.org/1999/xlink" version="1.1" viewBox="-10 0 1083 2048">
  <g transform="matrix(1 0 0 -1 0 1638)">
   <path fill="currentColor"
d="M100 1708q0 85 19 164t48 123q60 -60 148.5 -95t178.5 -35q180 0 298 98v18q0 69 69 69t69 -69v-1808q43 -34 43 -89q0 -46 -33 -79t-79 -33t-79 33t-33 79q0 56 43 88v1280q-52 47 -131.5 73t-166.5 26q-85 0 -164.5 -29.5t-129.5 -71.5l-33 -29q-29 44 -48 122.5
t-19 164.5zM494 1591q175 0 298 -89v411q-51 -40 -128.5 -64t-169.5 -24q-83 0 -166.5 27.5t-147.5 79.5q-40 -91 -40 -224t40 -224q63 51 146.5 79t167.5 28zM890 1981q0 30 -29 30t-29 -30v-1831q-43 -17 -43 -66q0 -30 21 -51t51 -21t51 21t21 51q0 49 -43 66v1831z" />
  </g>

</svg>
