<?xml version="1.0" standalone="no"?>
<!DOCTYPE svg PUBLIC "-//W3C//DTD SVG 1.1//EN" "http://www.w3.org/Graphics/SVG/1.1/DTD/svg11.dtd" >
<svg xmlns="http://www.w3.org/2000/svg" xmlns:xlink="http://www.w3.org/1999/xlink" version="1.1" viewBox="-10 0 2410 2048">
  <g transform="matrix(1 0 0 -1 0 1638)">
   <path fill="currentColor"
d="M1865 1751q65 0 120.5 -28t87.5 -76v1h30q95 0 146 -56t51 -160q0 -98 -73 -185t-195 -144q-102 -270 -271 -609h-1122q-179 357 -271 609q-67 29 -134 83.5t-100.5 117t-33.5 128.5q0 103 50.5 159.5t146.5 56.5h30v-1q33 48 87.5 76t120.5 28h67v73q0 65 31.5 100.5
t112.5 35.5h908q81 0 112.5 -35.5t31.5 -100.5v-73h67zM1737 534q155 318 250 568t95 357q0 116 -56.5 184t-159.5 68h-1332q-103 0 -159.5 -68t-56.5 -184q0 -109 97 -364t248 -561h1074zM642 1751h1116v73q0 45 -22.5 70.5t-81.5 25.5h-908q-59 0 -81.5 -25.5t-22.5 -70.5
v-73zM2122 1459q0 -96 -71 -302q98 51 153.5 124t55.5 152t-38.5 127t-100.5 48h-27q28 -62 28 -149zM278 1459q0 89 27 149h-26q-62 0 -100.5 -48t-38.5 -127q0 -78 55 -151t154 -125q-71 200 -71 302z" />
  </g>

</svg>
