<?xml version="1.0" standalone="no"?>
<!DOCTYPE svg PUBLIC "-//W3C//DTD SVG 1.1//EN" "http://www.w3.org/Graphics/SVG/1.1/DTD/svg11.dtd" >
<svg xmlns="http://www.w3.org/2000/svg" xmlns:xlink="http://www.w3.org/1999/xlink" version="1.1" viewBox="-10 0 1797 2048">
  <g transform="matrix(1 0 0 -1 0 1638)">
   <path fill="currentColor"
d="M1687 0h-578v1018h256v724q0 43 -30.5 90.5t-81.5 70.5t-121 23q-69 0 -120.5 -23t-82 -70t-30.5 -91v-897h78q9 -15 9 -38q0 -34 -26 -67q68 -44 68 -142q0 -74 -58.5 -132.5t-131.5 -58.5t-131.5 58.5t-58.5 132.5q0 99 67 142q-27 35 -27 67q0 23 9 38h78v21
q-64 44 -148 80q-125 52 -206 105l-7 4v-1045h-40v1073q-90 70 -90 129q0 46 24.5 76.5t65.5 39.5v163l-12 2q-59 9 -100 71t-49 116q-11 78 -38.5 103.5t-67.5 26.5l-7 43q21 30 52.5 46t64.5 16q38 0 71 -19q36 99 106 151q70 -52 106 -151q33 19 71 19q32 0 64 -16
t53 -46l-7 -43q-40 -1 -68 -26.5t-38 -103.5q-6 -42 -35 -93.5t-61 -72.5t-65 -24v-157h4q56 0 125.5 -34.5t135.5 -96.5t96 -108v685q0 41 33 99.5t77 94t105 56.5t142 21q75 0 131.5 -18t97 -45.5t68.5 -65.5t44 -77t16 -65v-761h198v-1018zM1647 978h-498v-938h498v938z
M1132 1966q84 0 145 -28.5t94.5 -83.5t33.5 -112v-724h44v761q0 34 -26.5 83t-67 80.5t-96 49.5t-127.5 18q-69 0 -119.5 -15t-86.5 -39.5t-60.5 -56.5t-37.5 -66t-13 -54v-746q22 -36 44 -85v794q0 56 33.5 111.5t95 84t144.5 28.5zM394 1526q34 0 63 21t61 82
q18 36 30 106q9 52 32.5 74.5t63.5 35.5q-8 7 -23 18.5t-44 11.5q-53 0 -101 -48t-82 -140q-35 93 -83 140.5t-100 47.5q-29 0 -44 -11.5t-23 -18.5q71 -23 88 -76l8 -34q8 -48 16 -73t30 -62.5t49.5 -55.5t58.5 -18zM418 1293h-4v-191q86 -57 235 -122q75 -33 126 -67v107
q-35 56 -55 79q-74 89 -156 141.5t-146 52.5zM989 598q0 63 -40 98t-111 35q-70 0 -110 -34t-40 -99q0 -54 45 -102.5t105 -48.5q58 0 104.5 48t46.5 103zM1535 318q0 -57 -39.5 -97t-97.5 -40q-59 0 -98.5 41t-39.5 96q0 57 40.5 97.5t97.5 40.5q55 0 96 -39.5t41 -98.5z
M1535 700q0 -57 -39.5 -97t-97.5 -40q-59 0 -98.5 41t-39.5 96q0 57 40.5 97.5t97.5 40.5q55 0 96 -39.5t41 -98.5zM1495 700q0 41 -29.5 69.5t-67.5 28.5q-39 0 -68.5 -29.5t-29.5 -68.5t29 -68t69 -29t68.5 28.5t28.5 68.5zM394 1782q27 51 70 91q-20 71 -70 121
q-50 -50 -70 -121q43 -40 70 -91zM837 771q47 0 87 -14q22 30 22 48h-218q0 -20 23 -48q35 14 86 14zM324 1212q0 -36 50 -79v153q-50 -16 -50 -74zM815 886l43 -33l-43 93v-60z" />
  </g>

</svg>
