<?xml version="1.0" standalone="no"?>
<!DOCTYPE svg PUBLIC "-//W3C//DTD SVG 1.1//EN" "http://www.w3.org/Graphics/SVG/1.1/DTD/svg11.dtd" >
<svg xmlns="http://www.w3.org/2000/svg" xmlns:xlink="http://www.w3.org/1999/xlink" version="1.1" viewBox="-10 0 2462 2048">
  <g transform="matrix(1 0 0 -1 0 1638)">
   <path fill="currentColor"
d="M163 1062q61 -125 189.5 -243t313 -217.5t406 -177.5t537 -134.5t572.5 -56.5q76 0 103.5 8t27.5 29q0 23 -32 30.5t-99 7.5q-140 0 -296.5 17.5t-336.5 52t-362.5 90.5t-321 120.5t-249.5 135.5t-195.5 150t-99.5 113h1443q104 0 104 37q0 38 -104 38h-1600zM1763 1102
q78 0 111 -20t33 -58t-31 -57.5t-113 -19.5h-1353q50 -64 169.5 -148t282 -163.5t398 -146t486 -104t435.5 -37.5q96 0 133.5 -17t37.5 -61q0 -43 -37.5 -60t-133.5 -17q-245 0 -572.5 56.5t-569 143t-436.5 196.5t-323.5 241t-179.5 272h1663z" />
  </g>

</svg>
