<?xml version="1.0" standalone="no"?>
<!DOCTYPE svg PUBLIC "-//W3C//DTD SVG 1.1//EN" "http://www.w3.org/Graphics/SVG/1.1/DTD/svg11.dtd" >
<svg xmlns="http://www.w3.org/2000/svg" xmlns:xlink="http://www.w3.org/1999/xlink" version="1.1" viewBox="-10 0 1199 2048">
  <g transform="matrix(1 0 0 -1 0 1638)">
   <path fill="currentColor"
d="M222 0l-4 59l-114 60l142 112l-143 89l140 87l-142 88l126 82l-119 93l117 75l-125 85l118 86l-109 81l112 96l-119 95l112 97l-102 98l134 94l-124 91l149 86l-69 84q25 97 98 164.5t167 79.5v4q0 64 104 64h414q104 0 104 -64t-104 -64h-106q-36 -54 -36 -116v-79
q110 -16 158.5 -85.5t48.5 -186.5q0 -110 -111 -570q-63 -266 -81.5 -363t-18.5 -134q0 -66 54 -156.5t145 -181.5v-50h-520v50q90 92 144.5 181.5t54.5 156.5q0 38 -17.5 131t-82.5 366q-111 460 -111 570q0 117 48.5 186.5t158.5 85.5v79q0 58 -37 116h-105q-66 0 -89 23
q-55 -3 -106 -35t-88 -80.5t-41 -84.5l86 -104l-139 -77l120 -88l-140 -97l98 -96l-107 -93l118 -95l-110 -95l114 -84l-116 -84l128 -87l-121 -79l117 -93l-118 -77l142 -89l-141 -87l138 -85l-139 -110l81 -42l4 -81zM757 388q0 -124 -132 -278l-61 -70h428l-60 70
q-133 154 -133 278q0 84 67 359q144 592 144 708q0 115 -54 176t-178 61t-178 -61t-54 -176q0 -116 144 -708q67 -275 67 -359zM571 2010q-64 0 -64 -24t64 -24h414q64 0 64 24t-64 24h-414zM791 1732l12 -1v75q0 61 30 116h-111q31 -56 31 -116v-75l12 1h26z" />
  </g>

</svg>
