<?xml version="1.0" standalone="no"?>
<!DOCTYPE svg PUBLIC "-//W3C//DTD SVG 1.1//EN" "http://www.w3.org/Graphics/SVG/1.1/DTD/svg11.dtd" >
<svg xmlns="http://www.w3.org/2000/svg" xmlns:xlink="http://www.w3.org/1999/xlink" version="1.1" viewBox="-10 0 2683 2048">
  <g transform="matrix(1 0 0 -1 0 1638)">
   <path fill="currentColor"
d="M2573 943v-121h-486q98 -173 147 -453l-119 -21q-11 130 -57.5 259t-115.5 215h-585q98 -173 147 -453l-119 -21q-11 130 -57.5 259t-115.5 215h-585q98 -173 147 -453l-119 -21q-11 130 -57.5 259t-115.5 215h-382v121h300q-60 102 -83.5 179t-23.5 156
q0 162 92.5 258.5t245.5 96.5q128 0 208.5 -79.5t80.5 -202.5q0 -118 -73.5 -198.5t-184.5 -80.5q-75 0 -134.5 44.5t-96.5 122.5l105 71q22 -51 54.5 -80.5t71.5 -29.5q57 0 96 43t39 109q0 67 -46 112t-120 45q-97 0 -156 -63t-59 -168q0 -153 131 -335h583
q-60 102 -83.5 179t-23.5 156q0 162 92.5 258.5t245.5 96.5q128 0 208.5 -79.5t80.5 -202.5q0 -118 -73.5 -198.5t-184.5 -80.5q-75 0 -134.5 44.5t-96.5 122.5l105 71q22 -51 54.5 -80.5t71.5 -29.5q57 0 96 43t39 109q0 67 -46 112t-120 45q-97 0 -156 -63t-59 -168
q0 -153 131 -335h583q-60 102 -83.5 179t-23.5 156q0 162 92.5 258.5t245.5 96.5q128 0 208.5 -79.5t80.5 -202.5q0 -118 -73.5 -198.5t-184.5 -80.5q-75 0 -134.5 44.5t-96.5 122.5l105 71q22 -51 54.5 -80.5t71.5 -29.5q57 0 96 43t39 109q0 67 -46 112t-120 45
q-97 0 -156 -63t-59 -168q0 -153 131 -335h566zM140 903v-41h2393v41h-2393zM376 1278q0 123 69.5 197t185.5 74q89 0 147.5 -55t58.5 -142q0 -82 -51.5 -137t-123.5 -55q-103 0 -143 90l-36 -25q25 -53 70.5 -83t108.5 -30q94 0 156 69t62 170q0 106 -69.5 174t-179.5 68
q-136 0 -217 -86t-81 -229q0 -88 25.5 -161t87.5 -174h53q-67 101 -95 178t-28 157zM1836 1278q0 123 69.5 197t185.5 74q89 0 147.5 -55t58.5 -142q0 -82 -51.5 -137t-123.5 -55q-103 0 -143 90l-36 -25q25 -53 70.5 -83t108.5 -30q94 0 156 69t62 170q0 106 -69.5 174
t-179.5 68q-136 0 -217 -86t-81 -229q0 -88 25.5 -161t87.5 -174h53q-67 101 -95 178t-28 157zM1106 1278q0 123 69.5 197t185.5 74q89 0 147.5 -55t58.5 -142q0 -82 -51.5 -137t-123.5 -55q-103 0 -143 90l-36 -25q25 -53 70.5 -83t108.5 -30q94 0 156 69t62 170
q0 106 -69.5 174t-179.5 68q-136 0 -217 -86t-81 -229q0 -88 25.5 -161t87.5 -174h53q-67 101 -95 178t-28 157zM2146 389l46 9q-29 151 -65.5 246.5t-85.5 177.5h-51q56 -79 101.5 -207t54.5 -226zM686 389l46 9q-29 151 -65.5 246.5t-85.5 177.5h-51q56 -79 101.5 -207
t54.5 -226zM1416 389l46 9q-29 151 -65.5 246.5t-85.5 177.5h-51q56 -79 101.5 -207t54.5 -226z" />
  </g>

</svg>
