<?xml version="1.0" standalone="no"?>
<!DOCTYPE svg PUBLIC "-//W3C//DTD SVG 1.1//EN" "http://www.w3.org/Graphics/SVG/1.1/DTD/svg11.dtd" >
<svg xmlns="http://www.w3.org/2000/svg" xmlns:xlink="http://www.w3.org/1999/xlink" version="1.1" viewBox="-10 0 1090 2048">
  <g transform="matrix(1 0 0 -1 0 1638)">
   <path fill="currentColor"
d="M100 423h489q110 0 189 42.5t120.5 132.5t41.5 214q0 125 -42 214.5t-120.5 132t-188.5 42.5h-489v40h489q192 0 291.5 -111t99.5 -318q0 -206 -99.5 -317.5t-291.5 -111.5h-489v40zM100 513h475q125 0 193.5 75t68.5 224t-68.5 224t-193.5 75h-475v40h475
q147 0 224.5 -87t77.5 -252q0 -164 -77 -251.5t-225 -87.5h-475v40z" />
  </g>

</svg>
