<?xml version="1.0" standalone="no"?>
<!DOCTYPE svg PUBLIC "-//W3C//DTD SVG 1.1//EN" "http://www.w3.org/Graphics/SVG/1.1/DTD/svg11.dtd" >
<svg xmlns="http://www.w3.org/2000/svg" xmlns:xlink="http://www.w3.org/1999/xlink" version="1.1" viewBox="-10 0 2568 2048">
  <g transform="matrix(1 0 0 -1 0 1638)">
   <path fill="currentColor"
d="M152 803l112 142q106 -73 257 -147.5t319 -136.5q573 126 813.5 170.5t327.5 44.5q134 0 477 -48l-37 -187q-105 23 -229.5 39.5t-208.5 16.5q-204 0 -671 -105q-37 -8 -149 -29q133 -30 407 -74q327 -55 404 -71.5t175 -44t184 -57t90 -33.5l-64 -201
q-201 88 -504 139.5t-637 51.5q-210 0 -385.5 -19t-320.5 -49t-322 -89l-89 152q31 11 103 36.5t182 52.5l-14 56q-146 -39 -228 -73l-44 136q124 38 239 68l-42 163zM2374 258q-4 1 -45 16t-106.5 35t-149 42.5t-172.5 39.5l-175 31l-278 46q-270 45 -461 102.5t-379.5 143
t-334.5 178.5l-63 -79q192 -128 403.5 -220t466.5 -154l-5 -38q-525 -8 -916 -155l49 -84q242 81 491 116t519 35q256 0 469 -25.5t382 -65.5t266 -85zM912 636q66 -24 158 -49l187 34l60 13q216 49 391.5 76t274.5 27q140 0 410 -48l16 107q-67 11 -202.5 25.5t-225.5 14.5
q-178 0 -1069 -200zM931 437q-84 24 -172 54l-143 -25l15 -60q127 21 300 31zM168 392q74 26 195 59l-14 54q-144 -38 -199 -57zM344 680l33 -126l57 14l-19 73zM592 400l-15 60l-71 -15l15 -58zM567 498l-14 56l-71 -16l14 -55zM425 366l57 13l-14 57l-58 -13zM458 475
l-14 53l-57 -14l13 -53zM684 519l-91 37l13 -50zM462 617l10 -40l49 11z" />
  </g>

</svg>
