<?xml version="1.0" standalone="no"?>
<!DOCTYPE svg PUBLIC "-//W3C//DTD SVG 1.1//EN" "http://www.w3.org/Graphics/SVG/1.1/DTD/svg11.dtd" >
<svg xmlns="http://www.w3.org/2000/svg" xmlns:xlink="http://www.w3.org/1999/xlink" version="1.1" viewBox="-10 0 1750 2048">
  <g transform="matrix(1 0 0 -1 0 1638)">
   <path fill="currentColor"
d="M810 968v-40h-466q-86 0 -145 -68t-59 -165q0 -99 59.5 -166.5t144.5 -67.5h466v-40h-466q-106 0 -175 78.5t-69 195.5q0 119 69 196t175 77h466zM1640 968v-40h-466q-86 0 -145 -68t-59 -165q0 -99 59.5 -166.5t144.5 -67.5h466v-40h-466q-106 0 -175 78.5t-69 195.5
q0 119 69 196t175 77h466z" />
  </g>

</svg>
