<?xml version="1.0" standalone="no"?>
<!DOCTYPE svg PUBLIC "-//W3C//DTD SVG 1.1//EN" "http://www.w3.org/Graphics/SVG/1.1/DTD/svg11.dtd" >
<svg xmlns="http://www.w3.org/2000/svg" xmlns:xlink="http://www.w3.org/1999/xlink" version="1.1" viewBox="-10 0 1945 2048">
  <g transform="matrix(1 0 0 -1 0 1638)">
   <path fill="currentColor"
d="M100 717q0 54 37 83.5t95 29.5q49 0 89.5 -27.5t50.5 -65.5h1121q150 0 216 -28q32 20 57 51t33 56l36 -17q-8 -23 -26.5 -49t-62.5 -63q38 -32 38 -99q0 -63 -29 -91.5t-93.5 -43t-168.5 -14.5h-1121q-9 -39 -49.5 -65.5t-90.5 -26.5q-59 0 -95.5 29.5t-36.5 82.5
q0 54 37 83.5t95 29.5q48 0 89 -26.5t51 -65.5h1121q92 0 146.5 11.5t79.5 32.5t25 64q0 44 -24.5 65t-78.5 32.5t-148 11.5h-1121q-9 -39 -49.5 -65.5t-90.5 -26.5q-59 0 -95.5 29.5t-36.5 82.5zM140 459q0 -36 27 -54t65 -18q36 0 68 21.5t32 50.5t-33.5 51t-66.5 22
q-38 0 -65 -18.5t-27 -54.5zM143 717q0 -36 25.5 -54t63.5 -18q36 0 68 21.5t32 50.5t-33.5 51t-66.5 22q-38 0 -63.5 -18.5t-25.5 -54.5z" />
  </g>

</svg>
