<?xml version="1.0" standalone="no"?>
<!DOCTYPE svg PUBLIC "-//W3C//DTD SVG 1.1//EN" "http://www.w3.org/Graphics/SVG/1.1/DTD/svg11.dtd" >
<svg xmlns="http://www.w3.org/2000/svg" xmlns:xlink="http://www.w3.org/1999/xlink" version="1.1" viewBox="-10 0 2220 2048">
  <g transform="matrix(1 0 0 -1 0 1638)">
   <path fill="currentColor"
d="M1806 1128q81 0 124.5 -11.5t85.5 -46.5t68 -85.5t26 -108.5q0 -78 -29 -122.5t-82 -44.5q-57 0 -88 41t-31 111q0 46 9.5 81t9.5 62q0 31 -23 69l-9 15q-58 -163 -191.5 -285.5t-314.5 -187.5t-384 -65q-206 0 -392 73.5t-309 203.5t-176 301h1706zM156 1088
q2 -9 21 -50t59 -96t103.5 -117t155.5 -114.5t214 -86.5t280 -34q119 0 219 20.5t182 54.5t150.5 82t123.5 104t101 126t57 111h-1666zM2070 876q0 45 -22 88t-57.5 73.5t-73.5 41.5q8 -17 15 -34.5t7 -43.5l-3 -31q-8 -40 -12 -61t-4 -45q0 -52 22 -83.5t57 -31.5
q33 0 52 32t19 95z" />
  </g>

</svg>
