<?xml version="1.0" standalone="no"?>
<!DOCTYPE svg PUBLIC "-//W3C//DTD SVG 1.1//EN" "http://www.w3.org/Graphics/SVG/1.1/DTD/svg11.dtd" >
<svg xmlns="http://www.w3.org/2000/svg" xmlns:xlink="http://www.w3.org/1999/xlink" version="1.1" viewBox="-10 0 2466 2048">
  <g transform="matrix(1 0 0 -1 0 1638)">
   <path fill="currentColor"
d="M2005 572q-68 0 -125 28.5t-82 73.5h-1443l59 -74l-23 -27l-291 153l281 169l24 -27l-56 -76h1449q22 45 78.5 73t128.5 28q123 0 192 -80l121 46l38 -57l-67 -41l58 -13l3 -48l-59 -16l64 -40l-35 -55l-138 48q-67 -65 -177 -65zM2011 612q68 0 121.5 36t53.5 87
q0 49 -51.5 83.5t-129.5 34.5q-77 0 -129.5 -34.5t-52.5 -84.5t53 -86t135 -36zM321 753h-47l38 54l-132 -79l35 -17l102 -54l-45 57h1511v37zM2217 779q9 -23 9 -45q0 -32 -17 -63l91 -33l-69 53l69 32l-70 32l71 56z" />
  </g>

</svg>
