<?xml version="1.0" standalone="no"?>
<!DOCTYPE svg PUBLIC "-//W3C//DTD SVG 1.1//EN" "http://www.w3.org/Graphics/SVG/1.1/DTD/svg11.dtd" >
<svg xmlns="http://www.w3.org/2000/svg" xmlns:xlink="http://www.w3.org/1999/xlink" version="1.1" viewBox="-10 0 1293 2048">
  <g transform="matrix(1 0 0 -1 0 1638)">
   <path fill="currentColor"
d="M100 1001h359q-47 81 -68 149t-21 143q0 153 93 243.5t248 90.5q124 0 204 -70.5t80 -183.5q0 -109 -72.5 -180.5t-175.5 -71.5q-72 0 -123.5 30t-78.5 83l34 22q21 -46 64.5 -70.5t103.5 -24.5q87 0 147.5 60.5t60.5 151.5q0 94 -68 154t-176 60q-138 0 -219.5 -79
t-81.5 -215q0 -143 96 -292h677v-141h-578q162 -210 214 -506l-40 -6q-16 89 -35 153t-41.5 116t-52.5 106t-95 137h-455v141zM575 900h568v61h-611zM140 900h385l-41 61h-344v-61z" />
  </g>

</svg>
