<?xml version="1.0" standalone="no"?>
<!DOCTYPE svg PUBLIC "-//W3C//DTD SVG 1.1//EN" "http://www.w3.org/Graphics/SVG/1.1/DTD/svg11.dtd" >
<svg xmlns="http://www.w3.org/2000/svg" xmlns:xlink="http://www.w3.org/1999/xlink" version="1.1" viewBox="-10 0 2300 2048">
  <g transform="matrix(1 0 0 -1 0 1638)">
   <path fill="currentColor"
d="M1903 996q20 0 49.5 -0.5t61.5 -7.5t63.5 -23t56.5 -46.5t40.5 -78.5t15.5 -118q0 -68 -14.5 -114.5t-38.5 -77.5t-56.5 -48.5t-68 -25t-109.5 -7.5h-1516q-21 0 -50 0.5t-61 7.5t-63.5 23t-56.5 46t-40.5 77.5t-15.5 118.5q0 69 15 116t39.5 78t56.5 48t66 24.5t110 7.5
h1516zM1946 489q55 0 103.5 22.5t74.5 77t26 133.5q0 63 -15 106.5t-40 71t-66.5 42t-125.5 14.5h-1516q-83 0 -124.5 -14.5t-67 -42t-40.5 -71t-15 -106.5q0 -80 26 -134t75 -76.5t103 -22.5h1602z" />
  </g>

</svg>
