<?xml version="1.0" standalone="no"?>
<!DOCTYPE svg PUBLIC "-//W3C//DTD SVG 1.1//EN" "http://www.w3.org/Graphics/SVG/1.1/DTD/svg11.dtd" >
<svg xmlns="http://www.w3.org/2000/svg" xmlns:xlink="http://www.w3.org/1999/xlink" version="1.1" viewBox="-10 0 2725 2048">
  <g transform="matrix(1 0 0 -1 0 1638)">
   <path fill="currentColor"
d="M100 695q0 97 43.5 178.5t116.5 134.5q-42 12 -42 65q0 72 88 72h357q88 0 88 -72q0 -52 -42 -64q74 -53 118 -135t44 -179q0 -103 -52 -192.5t-140.5 -141t-193.5 -51.5q-104 0 -193 51.5t-140.5 140.5t-51.5 193zM140 695q0 -93 46 -173t126.5 -126t172.5 -46
q93 0 174 46.5t126.5 126t45.5 172.5q0 144 -101 245t-245 101q-93 0 -172.5 -46t-126 -126.5t-46.5 -173.5zM308 1105q-26 0 -38 -6t-12 -26q0 -16 8.5 -23t42.5 -12q86 43 176 43q92 0 176 -42q28 2 39 9.5t11 24.5q0 20 -12 26t-38 6h-353zM972 695q0 97 43.5 178.5
t116.5 134.5q-42 12 -42 65q0 72 88 72h357q88 0 88 -72q0 -52 -42 -64q74 -53 118 -135t44 -179q0 -103 -52 -192.5t-140.5 -141t-193.5 -51.5q-104 0 -193 51.5t-140.5 140.5t-51.5 193zM1012 695q0 -93 46 -173t126.5 -126t172.5 -46q93 0 174 46.5t126.5 126t45.5 172.5
q0 144 -101 245t-245 101q-93 0 -172.5 -46t-126 -126.5t-46.5 -173.5zM1180 1105q-26 0 -38 -6t-12 -26q0 -16 8.5 -23t42.5 -12q86 43 176 43q92 0 176 -42q28 2 39 9.5t11 24.5q0 20 -12 26t-38 6h-353zM1844 695q0 97 43.5 178.5t116.5 134.5q-42 12 -42 65q0 72 88 72
h357q88 0 88 -72q0 -52 -42 -64q74 -53 118 -135t44 -179q0 -103 -52 -192.5t-140.5 -141t-193.5 -51.5q-104 0 -193 51.5t-140.5 140.5t-51.5 193zM1884 695q0 -93 46 -173t126.5 -126t172.5 -46q93 0 174 46.5t126.5 126t45.5 172.5q0 144 -101 245t-245 101
q-93 0 -172.5 -46t-126 -126.5t-46.5 -173.5zM2052 1105q-26 0 -38 -6t-12 -26q0 -16 8.5 -23t42.5 -12q86 43 176 43q92 0 176 -42q28 2 39 9.5t11 24.5q0 20 -12 26t-38 6h-353z" />
  </g>

</svg>
