<?xml version="1.0" standalone="no"?>
<!DOCTYPE svg PUBLIC "-//W3C//DTD SVG 1.1//EN" "http://www.w3.org/Graphics/SVG/1.1/DTD/svg11.dtd" >
<svg xmlns="http://www.w3.org/2000/svg" xmlns:xlink="http://www.w3.org/1999/xlink" version="1.1" viewBox="-10 0 790 2048">
  <g transform="matrix(1 0 0 -1 0 1638)">
   <path fill="currentColor"
d="M470 -69q-105 0 -160.5 61t-55.5 177v368l1 26q0 76 -22 142l-83 252q-36 108 -36 143q0 33 18 51t49 18q40 0 83 -45l270 -284v825q0 108 -14.5 154.5t-48 71.5t-91.5 25q-54 0 -118 -21q-65 -21 -99 -21q-27 0 -45 17t-18 42q0 48 89 82.5t202 34.5q97 0 162 -38
t96 -119t31 -228v-1496q0 -121 -49.5 -179.5t-160.5 -58.5zM294 165q0 -94 47 -144t129 -50q92 0 131 49t39 145v1500q0 135 -25 201.5t-78 105t-146 38.5q-79 0 -165 -26.5t-86 -50.5q0 -19 25 -19q27 0 94 21q66 21 121 21q74 0 115 -30.5t60 -84t19 -176.5l-3 -923
l-333 351q-21 23 -32 29.5t-25 6.5q-27 0 -27 -29q0 -30 34 -132l76 -233q20 -59 25 -99.5t5 -97.5v-373z" />
  </g>

</svg>
