<?xml version="1.0" standalone="no"?>
<!DOCTYPE svg PUBLIC "-//W3C//DTD SVG 1.1//EN" "http://www.w3.org/Graphics/SVG/1.1/DTD/svg11.dtd" >
<svg xmlns="http://www.w3.org/2000/svg" xmlns:xlink="http://www.w3.org/1999/xlink" version="1.1" viewBox="-10 0 1414 2048">
  <g transform="scale(1, -1)" transform-origin="center">
   <path fill="currentColor"
d="M697 186q-95 0 -167.5 59.5t-72.5 149.5l1 25l49 423l-201 75q-102 40 -154 101t-52 132q0 73 50.5 120.5t119.5 47.5q66 0 108 -35.5t42 -96.5q0 -55 -30 -86.5t-77 -31.5q-58 0 -82 59l38 14q13 -33 44 -33q29 0 48 21.5t19 56.5q0 43 -30 67.5t-78 24.5
q-55 0 -93.5 -37t-38.5 -91q0 -59 45 -110.5t129 -84.5l198 -72l108 940q7 75 25 107t52 32t51.5 -31.5t25.5 -107.5l125 -1084q108 -45 171.5 -82.5t127 -98t106.5 -124.5l-32 -23q-69 94 -147.5 159.5t-220.5 122.5l32 -273l1 -25q0 -56 -32.5 -105t-89 -77t-118.5 -28z
M697 226q78 0 139 50t61 124l-1 21l-161 1389q-6 62 -14.5 87.5t-23.5 25.5t-23 -24.5t-14 -88.5l-162 -1389l-1 -20q0 -75 61 -125t139 -50zM697 124q109 0 186.5 54.5t101.5 147.5q14 63 63 63q63 0 63 -77v-323h-828v323q0 77 63 77q49 0 63 -63q24 -92 101.5 -147
t186.5 -55zM697 84q-92 0 -158 31.5t-109.5 84t-58.5 116.5q-9 33 -26 33q-10 0 -16 -10.5t-6 -26.5v-283h748v283q0 16 -6 26.5t-16 10.5q-17 0 -26 -33q-31 -111 -118 -171.5t-208 -60.5z" />
  </g>

</svg>
