<?xml version="1.0" standalone="no"?>
<!DOCTYPE svg PUBLIC "-//W3C//DTD SVG 1.1//EN" "http://www.w3.org/Graphics/SVG/1.1/DTD/svg11.dtd" >
<svg xmlns="http://www.w3.org/2000/svg" xmlns:xlink="http://www.w3.org/1999/xlink" version="1.1" viewBox="-10 0 938 2048">
  <g transform="matrix(1 0 0 -1 0 1638)">
   <path fill="currentColor"
d="M385 205q-162 138 -162 375q0 117 34.5 205t86.5 138l-174 122q-33 23 -51.5 41.5t-18.5 46.5q0 22 17.5 39t44.5 17t50 -13t172 -118l-143 992h446l-143 -992l115 81q29 20 53.5 35t53.5 15q27 0 44.5 -17t17.5 -39q0 -28 -18.5 -46.5t-51.5 -41.5l-174 -122
q52 -50 86.5 -138t34.5 -205q0 -237 -162 -375l67 -205h-292zM554 40l-58 179q169 139 169 361q0 98 -27.5 180t-74.5 130.5t-99 48.5q-51 0 -98 -47.5t-75 -129t-28 -182.5q0 -222 169 -361l-58 -179h180zM464 979l27 -3l150 1034h-354l149 -1034zM530 962l22 -12l184 128
q23 16 37.5 28t14.5 23q0 20 -27 20q-21 0 -59 -28l-166 -118zM375 950l23 12l-6 41l-154.5 109.5t-70.5 36.5q-27 0 -27 -20q0 -11 14.5 -23t220.5 -156z" />
  </g>

</svg>
