<?xml version="1.0" standalone="no"?>
<!DOCTYPE svg PUBLIC "-//W3C//DTD SVG 1.1//EN" "http://www.w3.org/Graphics/SVG/1.1/DTD/svg11.dtd" >
<svg xmlns="http://www.w3.org/2000/svg" xmlns:xlink="http://www.w3.org/1999/xlink" version="1.1" viewBox="-10 0 2979 2048">
  <g transform="matrix(1 0 0 -1 0 1638)">
   <path fill="currentColor"
d="M2394 0q-171 0 -301 107.5t-164 270.5l-327 95l34 132l-1081 292q-21 -55 -69.5 -116.5t-104.5 -107.5l-261 198l-20 93h101l167 -96q33 36 52.5 94.5t19.5 131.5l-6 43l-5 25l-176 -36l-87 69l73 55l275 87q27 -33 52 -116.5t25 -152.5v-17l-1 -18l1082 -292l102 390
q28 104 100 189q-88 65 -234 164q-156 105 -214.5 183t-58.5 169q0 55 32 105.5t87.5 79.5t125.5 29q109 0 177 -45.5t146 -175.5l213 -357q54 10 118 10q71 0 130.5 -12t144.5 -45l268 -104l-164 -443q105 -67 164.5 -172.5t59.5 -230.5q0 -127 -64 -237.5t-174.5 -174
t-236.5 -63.5zM1959 475q0 -117 58.5 -217.5t159 -159t217.5 -58.5t217.5 58.5t159 159t58.5 217.5t-58.5 217.5t-159 159t-217.5 58.5t-217.5 -58.5t-159 -159t-58.5 -217.5zM2009 474q0 104 51.5 193t141 141t192.5 52t193 -52t141.5 -142t51.5 -192q0 -103 -52 -192.5
t-140.5 -141t-193.5 -51.5q-104 0 -193 51.5t-140.5 140.5t-51.5 193zM1903 1350q85 82 205 113l-207 346q-69 115 -133 158t-156 43q-87 0 -146 -53t-59 -123q0 -80 56.5 -150t204.5 -170q151 -101 235 -164zM1919 475q0 161 96.5 287.5t245.5 168.5q-110 141 -184.5 215.5
t-171.5 150.5q-72 -82 -94 -180l-160 -616l271 -79zM2610 898l147 399l-236 92q-63 24 -121.5 38.5t-133.5 14.5q-42 0 -96 -7l294 -490q77 -12 146 -47zM381 724q107 96 147 221l1118 -302l16 60l-1116 301l5 64q0 56 -14.5 120t-37.5 103l-242 -77l-25 -20l30 -24l194 38
q24 -69 24 -114q0 -87 -27.5 -158.5t-78.5 -115.5l-182 104h-42l8 -32zM2394 950h11l11 -1l-286 478q-116 -25 -197 -101q142 -110 265 -254l105 -131q43 9 91 9zM2414 129q146 10 242 119l-222 178q-10 -8 -20 -11v-286zM2133 247q95 -108 241 -118v286q-9 2 -18 10z
M2224 775q-123 -69 -162 -204l280 -63l7 9zM2049 474q0 -109 60 -196l225 180l-2 11l-278 63zM2740 474q0 31 -6 60l-277 -64l-2 -10l226 -180q59 89 59 194zM2351 817q-49 -6 -92 -24l125 -257l10 1l7 -1l64 134zM2726 572q-39 132 -159 202l77 -129q-88 -77 -96 -80
l-56 70l-56 -115l11 -12zM2395 820l87 -116l36 76l-13 22q-58 18 -110 18zM2542 740l-34 -71q33 -45 39 -57l47 41zM2372 474q0 -9 6.5 -15.5t15.5 -6.5q10 0 16.5 6.5t6.5 15.5q0 10 -6.5 16.5t-16.5 6.5q-9 0 -15.5 -6.5t-6.5 -16.5z" />
  </g>

</svg>
