<?xml version="1.0" standalone="no"?>
<!DOCTYPE svg PUBLIC "-//W3C//DTD SVG 1.1//EN" "http://www.w3.org/Graphics/SVG/1.1/DTD/svg11.dtd" >
<svg xmlns="http://www.w3.org/2000/svg" xmlns:xlink="http://www.w3.org/1999/xlink" version="1.1" viewBox="-10 0 960 2048">
  <g transform="matrix(1 0 0 -1 0 1638)">
   <path fill="currentColor"
d="M534 1418v-1023q58 -19 92 -68t34 -109v-2h154v-40h-159q-13 -63 -59.5 -116t-95.5 -71q45 94 48 187h-147q7 -102 49 -187q-50 17 -96.5 71.5t-59.5 115.5h-158v40h154v2q0 61 35 110t91 67v615h-121q44 194 49 408h-244v47q0 71 42 140t117 114t179 52q74 26 175 114.5
t123 158.5l38 -12q-16 -54 -88.5 -129.5t-163.5 -131.5q103 -9 176 -54t112.5 -112t39.5 -140v-47h-316zM475 1733q-96 0 -160 -29.5t-103 -71t-55.5 -85t-16.5 -71.5v-18h670v18q0 28 -16.5 71.5t-55.5 85t-103 71t-160 29.5zM475 405l19 -1v1014h-38v-1014zM384 1418
q-2 -171 -39 -368h71v368h-32zM475 329q48 0 79.5 -30t34.5 -83h31v2q0 60 -41.5 103.5t-103.5 43.5q-61 0 -103 -44t-42 -103v-2h31q2 50 33.5 81.5t80.5 31.5zM475 289q-28 0 -48.5 -18t-24.5 -55h146q-5 37 -25 55t-48 18zM386 79q-19 54 -24 97h-28q14 -59 52 -97z
M564 79q40 42 51 97h-28q-3 -31 -23 -97z" />
  </g>

</svg>
