<?xml version="1.0" standalone="no"?>
<!DOCTYPE svg PUBLIC "-//W3C//DTD SVG 1.1//EN" "http://www.w3.org/Graphics/SVG/1.1/DTD/svg11.dtd" >
<svg xmlns="http://www.w3.org/2000/svg" xmlns:xlink="http://www.w3.org/1999/xlink" version="1.1" viewBox="-10 0 613 2048">
  <g transform="matrix(1 0 0 -1 0 1638)">
   <path fill="currentColor"
d="M297 286q0 20 -29 67v-1q-39 60 -39 102q0 44 44 104q30 46 30 60t-28 57q-16 24 -30.5 52t-14.5 65q0 35 15 65t31 56q30 52 30 71q0 20 -31 64q-17 25 -32 52.5t-15 61.5q0 47 45 132q35 65 35 94q0 20 -15 47t-53 66q-61 -121 -84 -202l-19 -61l-36 7v89q0 145 20 227
q17 64 104 227q35 63 48.5 92t19 68t5.5 62l-1 21l28 19q16 -5 37 -30.5t35.5 -62.5t14.5 -88q0 -87 -104 -251l-7 -10q64 -59 97.5 -116t33.5 -104q0 -45 -16 -81t-33 -65q-12 -21 -21.5 -40t-9.5 -40q0 -20 10 -35.5t22 -31.5q17 -21 31.5 -47t14.5 -64q0 -56 -44 -118
q-12 -19 -22 -36.5t-10 -37.5q0 -29 32 -74q15 -22 28 -45.5t13 -54.5q0 -32 -14 -57t-31 -48q-29 -37 -29 -59q0 -14 8 -27t18 -28q16 -23 29 -49t13 -64q0 -69 -32 -127l74 -82l-14 -86l54 -81h-133l-34 61l8 70l-13 11l-20 -23l-24 -118l-144 1l38 65l24 107l52 59
q40 96 40 143zM213 -48l40 -1l20 93l54 67l60 -54l-9 -79l14 -28h35l-20 31l14 84l-79 83q39 78 39 138q0 41 -36 90q-12 18 -22 35t-10 43q0 25 11.5 44t25.5 39q37 48 37 81q0 31 -33 78q-15 22 -27.5 44.5t-12.5 51.5q0 30 12 52t26 44q14 21 26 44t12 52q0 41 -38 87
q-15 20 -27.5 40.5t-12.5 50.5q0 28 11.5 51t25.5 49q43 70 43 126q0 39 -30 89t-82 97l-20 -35l-1 -1l17 -16q29 -28 50.5 -65.5t21.5 -68.5q0 -34 -39 -112q-41 -79 -41 -114q0 -36 39 -92q15 -22 27 -42t12 -44q0 -23 -11 -45t-25 -46q-14 -23 -27 -48t-13 -53t12.5 -51
t26.5 -44q13 -20 23.5 -38.5t10.5 -40.5q0 -23 -11.5 -42.5t-25.5 -40.5q-37 -50 -37 -81q0 -33 33 -81q13 -22 24 -43t11 -44q0 -27 -45 -162l-52 -61zM372 1869q0 73 -35 119q-6 -65 -16 -96t-60 -123q-20 -36 -57.5 -110t-46.5 -119t-14 -149q13 39 56 119.5t75 129.5
q98 152 98 229zM229 1593l-26 -66l-28 11l26 66z" />
  </g>

</svg>
