<?xml version="1.0" standalone="no"?>
<!DOCTYPE svg PUBLIC "-//W3C//DTD SVG 1.1//EN" "http://www.w3.org/Graphics/SVG/1.1/DTD/svg11.dtd" >
<svg xmlns="http://www.w3.org/2000/svg" xmlns:xlink="http://www.w3.org/1999/xlink" version="1.1" viewBox="-10 0 752 2048">
  <g transform="matrix(1 0 0 -1 0 1638)">
   <path fill="currentColor"
d="M561 -11q-4 0 -36.5 102t-50 185t-22.5 145h-163q-8 -99 -42.5 -230.5t-65.5 -201.5h-40q42 107 76.5 250.5t34.5 242.5q0 103 -74 473q-54 280 -66 370.5t-12 141.5q0 155 36 294t97 214t138 75q76 0 137 -74t97.5 -213.5t36.5 -295.5q0 -108 -50 -366l-28 -146
q-74 -370 -74 -473q0 -69 18 -165.5t53.5 -212t39.5 -115.5h-40zM371 1885q-40 0 -74 -138.5t-34 -295.5q0 -136 44 -368.5t64 -232.5q11 0 38.5 108.5t48.5 251.5t21 241q0 156 -34 295t-74 139zM224 1413h-82q8 -108 52 -326q82 -409 94 -534h165q10 103 49 300
q89 450 97 560h-81q-4 -118 -30 -270.5t-57.5 -245.5t-59.5 -93q-27 0 -59.5 96.5t-58 248t-29.5 264.5zM371 1925q57 0 96.5 -106.5t48.5 -275.5h83q-19 199 -83.5 333t-144.5 134q-56 0 -105.5 -66.5t-82 -179t-40.5 -221.5h82q9 163 48.5 272.5t97.5 109.5zM292 483
l-1 -22h159v52h-159l1 -15v-15zM518 1503l1 -50h83v32l-1 18h-83zM223 1453v25l1 25h-84v-50h83z" />
  </g>

</svg>
