<?xml version="1.0" standalone="no"?>
<!DOCTYPE svg PUBLIC "-//W3C//DTD SVG 1.1//EN" "http://www.w3.org/Graphics/SVG/1.1/DTD/svg11.dtd" >
<svg xmlns="http://www.w3.org/2000/svg" xmlns:xlink="http://www.w3.org/1999/xlink" version="1.1" viewBox="-10 0 1894 2048">
  <g transform="matrix(1 0 0 -1 0 1638)">
   <path fill="currentColor"
d="M100 1607q0 54 37 83.5t95 29.5q49 0 89.5 -27.5t50.5 -65.5h1121q108 0 171.5 -15t91.5 -44t28 -90q0 -63 -29 -91.5t-93.5 -43t-168.5 -14.5h-436q52 -70 125.5 -192.5t122.5 -218.5q26 -51 71.5 -159.5t68 -163.5t51.5 -164v-3q0 -20 -14 -43t-34 -38h-73
q-23 0 -54 12q-31 11 -43 11q-32 0 -62 -10.5t-67 -12.5h-183v79q180 45 238 73.5t58 59.5q0 27 -66 123q-77 110 -94 141q-30 52 -71 129t-48 96l-14 -35q-56 -135 -122 -254q-34 -57 -140 -190q-5 -15 -5 -51q0 -19 16 -87q-7 -51 -48 -84h-62q-23 0 -54 12q-31 11 -44 11
q-19 0 -61 -11t-67 -12h-184v79q207 51 264 89q67 42 165 311l35 89q81 178 230 414h-520q-9 -39 -49.5 -65.5t-90.5 -26.5q-59 0 -95.5 29.5t-36.5 82.5q0 54 37 83.5t95 29.5q48 0 89 -26.5t51 -65.5h1121q92 0 146.5 11.5t79.5 32.5t25 64q0 44 -24.5 65t-78.5 32.5
t-148 11.5h-1121q-9 -39 -49.5 -65.5t-90.5 -26.5q-59 0 -95.5 29.5t-36.5 82.5zM1302 551q0 -16 -24 -43.5t-54 -42.5t-89 -34t-148 -41v-3l153 1q28 0 70 11q46 11 68 11q16 0 49 -11q33 -12 52 -12h58q17 12 17 28l2 17l-51 155q-105 252 -139 320q-57 110 -130 230.5
t-127 191.5h-71q-170 -273 -235 -422q-74 -199 -100.5 -255.5t-54 -100.5t-52 -64t-95.5 -44.5t-163 -46.5v-12l133 4q28 0 70 11q46 11 67 11q18 0 50 -11q31 -12 52 -12h45q11 8 16 16t7 29q-16 64 -16 86l4 61q116 152 148 207q69 125 147 308h44l14 -28
q86 -178 158 -286q101 -151 113 -180t12 -49zM140 1349q0 -36 27 -54t65 -18q36 0 68 21.5t32 50.5t-33.5 51t-66.5 22q-38 0 -65 -18.5t-27 -54.5zM143 1607q0 -36 25.5 -54t63.5 -18q36 0 68 21.5t32 50.5t-33.5 51t-66.5 22q-38 0 -63.5 -18.5t-25.5 -54.5z" />
  </g>

</svg>
