<?xml version="1.0" standalone="no"?>
<!DOCTYPE svg PUBLIC "-//W3C//DTD SVG 1.1//EN" "http://www.w3.org/Graphics/SVG/1.1/DTD/svg11.dtd" >
<svg xmlns="http://www.w3.org/2000/svg" xmlns:xlink="http://www.w3.org/1999/xlink" version="1.1" viewBox="-10 0 1387 2048">
  <g transform="matrix(1 0 0 -1 0 1638)">
   <path fill="currentColor"
d="M258 1211l-22 19q-39 30 -39 78q0 44 27.5 64.5t91.5 20.5h745q64 0 91.5 -20.5t27.5 -64.5q0 -30 -11 -47.5t-46 -45.5q-57 -46 -57 -169q0 -55 20 -116t52 -122t55 -91q38 -14 61 -43.5t23 -65.5q0 -50 -31.5 -77t-85.5 -27h-943q-55 0 -86 27t-31 77q0 36 22.5 65
t61.5 44q25 33 56 93.5t51 120.5t20 115q0 112 -51 163h-2v2zM351 1046q0 -70 -33.5 -160.5t-88.5 -174.5h269l191 372l190 -372h269q-58 89 -90 178t-32 157q0 107 41 165l-756 -2q40 -56 40 -163zM140 608q0 -64 77 -64h943q77 0 77 64q0 41 -39 63h-1019q-39 -19 -39 -63
zM237 1308q0 -20 10.5 -32.5t26.5 -26.5l830 2q15 14 25.5 25.5t10.5 31.5q0 23 -18 34t-61 11h-745q-43 0 -61 -11t-18 -34zM543 711h35l111 208l110 -208h35l-145 284zM624 711h130l-65 122z" />
  </g>

</svg>
