<?xml version="1.0" standalone="no"?>
<!DOCTYPE svg PUBLIC "-//W3C//DTD SVG 1.1//EN" "http://www.w3.org/Graphics/SVG/1.1/DTD/svg11.dtd" >
<svg xmlns="http://www.w3.org/2000/svg" xmlns:xlink="http://www.w3.org/1999/xlink" version="1.1" viewBox="-10 0 2603 2048">
  <g transform="matrix(1 0 0 -1 0 1638)">
   <path fill="currentColor"
d="M101 14v1303q0 35 16.5 73.5t56 60t92.5 21.5h55q43 123 173 143v57q0 26 -9 59t-22 52h-31q-43 0 -67 16t-24 45q0 30 24 45.5t67 15.5l120 127l120 -127q43 0 67 -16t24 -45q0 -30 -24 -45.5t-67 -15.5h-31q-8 -11 -18 -43t-10 -68v-57q88 -13 133.5 -74t53.5 -151
q8 90 55 151t135 74v57q0 26 -9 59t-22 52h-31q-43 0 -67 16t-24 45q0 30 24 45.5t67 15.5l120 127l120 -127q43 0 67 -16t24 -45q0 -30 -24 -45.5t-67 -15.5h-31q-8 -11 -18 -43t-10 -68v-57q88 -13 133.5 -74t53.5 -151q8 90 55 151t135 74v57q0 26 -9 59t-22 52h-31
q-43 0 -67 16t-24 45q0 30 24 45.5t67 15.5l120 127l120 -127q43 0 67 -16t24 -45q0 -30 -24 -45.5t-67 -15.5h-31q-8 -11 -18 -43t-10 -68v-57q88 -13 133.5 -74t53.5 -151q8 90 55 151t135 74v57q0 26 -9 59t-22 52h-31q-43 0 -67 16t-24 45q0 30 24 45.5t67 15.5l120 127
l120 -127q43 0 67 -16t24 -45q0 -30 -24 -45.5t-67 -15.5h-31q-8 -11 -18 -43t-10 -68v-57q128 -19 171 -143h55q55 0 93.5 -21.5t55 -60.5t16.5 -73v-1303h-40v1298q0 27 -12.5 57t-42.5 46.5t-70 16.5h-45q8 -38 8 -77q0 -64 -33.5 -242t-71.5 -338q-88 -362 -88 -435
q0 -60 46.5 -136.5t124.5 -154.5v-49h-455v49q83 85 127 160.5t44 130.5q0 61 -56 298q-118 498 -136 685q-5 -69 -32.5 -217t-70.5 -331q-88 -362 -88 -435q0 -60 46.5 -136.5t124.5 -154.5v-49h-455v49q83 85 127 160.5t44 130.5q0 61 -56 298q-118 498 -136 685
q-5 -69 -32.5 -217t-70.5 -331q-88 -362 -88 -435q0 -60 46.5 -136.5t124.5 -154.5v-49h-455v49q83 85 127 160.5t44 130.5q0 61 -56 298q-118 498 -136 685q-5 -69 -32.5 -217t-70.5 -331q-88 -362 -88 -435q0 -60 46.5 -136.5t124.5 -154.5v-49h-455v49q83 85 127 160.5
t44 130.5q0 61 -56 298q-137 577 -137 717q0 43 7 77h-44q-42 0 -71.5 -17t-41.5 -46.5t-12 -56.5v-1298h-40zM536 340q0 -106 -114 -240l-50 -60h361l-49 60q-115 134 -115 240q0 81 58 315q57 229 96 437.5t39 262.5q0 108 -53.5 166t-156.5 58t-156 -59t-53 -165
q0 -56 40 -269t95 -431q58 -234 58 -315zM1032 340q0 -106 -114 -240l-50 -60h361l-49 60q-115 134 -115 240q0 81 58 315q57 229 96 437.5t39 262.5q0 108 -53.5 166t-156.5 58t-156 -59t-53 -165q0 -56 40 -269t95 -431q58 -234 58 -315zM2024 340q0 -106 -114 -240
l-50 -60h361l-49 60q-115 134 -115 240q0 81 58 315q57 229 96 437.5t39 262.5q0 108 -53.5 166t-156.5 58t-156 -59t-53 -165q0 -56 40 -269t95 -431q58 -234 58 -315zM1528 340q0 -106 -114 -240l-50 -60h361l-49 60q-115 134 -115 240q0 81 58 315q57 229 96 437.5
t39 262.5q0 108 -53.5 166t-156.5 58t-156 -59t-53 -165q0 -56 40 -269t95 -431q58 -234 58 -315zM1869 1844q0 -21 55 -21h232q55 0 55 21q0 10 -21 15.5t-46 5.5l-102 113l-110 -113q-63 0 -63 -21zM877 1844q0 -21 55 -21h232q55 0 55 21q0 10 -21 15.5t-46 5.5l-102 113
l-110 -113q-63 0 -63 -21zM381 1844q0 -21 55 -21h232q55 0 55 21q0 10 -21 15.5t-46 5.5l-102 113l-110 -113q-63 0 -63 -21zM1373 1844q0 -21 55 -21h232q55 0 55 21q0 10 -21 15.5t-46 5.5l-102 113l-110 -113q-63 0 -63 -21zM2060 1672q0 59 29 111h-98q31 -51 31 -111
v-53h38v53zM1068 1672q0 59 29 111h-98q31 -51 31 -111v-53h38v53zM572 1672q0 59 29 111h-98q31 -51 31 -111v-53h38v53zM1564 1672q0 59 29 111h-98q31 -51 31 -111v-53h38v53z" />
  </g>

</svg>
