<?xml version="1.0" standalone="no"?>
<!DOCTYPE svg PUBLIC "-//W3C//DTD SVG 1.1//EN" "http://www.w3.org/Graphics/SVG/1.1/DTD/svg11.dtd" >
<svg xmlns="http://www.w3.org/2000/svg" xmlns:xlink="http://www.w3.org/1999/xlink" version="1.1" viewBox="-10 0 2069 2048">
  <g transform="matrix(1 0 0 -1 0 1638)">
   <path fill="currentColor"
d="M1036 2049q39 0 65 -22t32 -63q80 -20 121 -70t41 -123q0 -121 -41 -231.5t-104 -170.5q260 -4 415.5 -49.5t230.5 -131t75 -207.5q0 -63 -24 -195q-25 -132 -25 -220q0 -161 38.5 -320t98.5 -246l-66 -48q-66 30 -121.5 115.5t-86.5 198t-31 222.5l5 68q26 213 26 253
q0 177 -139.5 268.5t-435.5 100.5l13 -290q242 -15 354 -113t112 -280l-5 -126q0 -203 115 -369l-67 -45q-86 64 -132 132.5t-66.5 136t-20.5 162.5q0 113 -26 177t-84.5 95.5t-170.5 39.5l19 -417l3 -107q0 -118 -27.5 -160t-90.5 -42q-64 0 -91 42.5t-27 159.5l3 107
l19 423q-77 -1 -267 -22q-176 -20 -208 -20q-59 0 -97.5 38.5t-38.5 100.5q0 105 18 156q-74 -16 -106 -16q-63 0 -100 25.5t-37 67.5q0 59 59 95.5t150 36.5q82 0 130.5 -34t48.5 -88q0 -28 -11 -67q-11 -38 -11 -55q0 -46 21.5 -68.5t56.5 -22.5q25 0 159 22
q148 24 241 32l13 295q-189 -2 -316.5 -11t-185.5 -9q-64 0 -101.5 37t-37.5 101q0 68 19 130q-46 -12 -95 -12q-65 0 -104.5 26t-39.5 70q0 62 58.5 100.5t143.5 38.5q87 0 136.5 -32t49.5 -91q0 -32 -16 -80q-17 -48 -17 -80q0 -60 52 -60q23 0 160 22q158 25 260 34
q-66 60 -108 170.5t-42 236.5q0 72 40 122t121 71q6 42 32.5 63.5t65.5 21.5zM1020 1936q-45 0 -96.5 -18.5t-79 -56.5t-27.5 -90q0 -104 29.5 -195t75.5 -148.5t83 -57.5h61q36 0 83 58t76.5 147.5t29.5 195.5q0 53 -28 91.5t-79.5 56t-92.5 17.5h-35zM1830 981
q0 168 -171 255.5t-556 93.5l5 -112q324 -9 470.5 -110.5t146.5 -296.5q0 -43 -15 -173q-16 -130 -16 -159q0 -138 55 -282t141 -198l13 10q-58 94 -89.5 236.5t-31.5 312.5q0 89 24 230t24 193zM1114 174l-21 543l-29 613h-56l-28 -609l-22 -547q0 -103 18.5 -132.5
t59.5 -29.5t59.5 29.5t18.5 132.5zM467 1200q63 0 186.5 9t309.5 11l5 106q-153 -9 -394 -50q-44 -8 -65 -8q-94 0 -94 100q0 30 17 88q16 58 16 72q0 34 -42 58.5t-104 24.5q-76 0 -118.5 -29.5t-42.5 -71.5q0 -25 32 -39t71 -14q71 0 119 19l22 -35q-25 -86 -25 -145
q0 -45 30.5 -70.5t76.5 -25.5zM473 702q34 0 198 20q177 21 271 22l4 100q-81 -8 -238 -32q-133 -21 -158 -21q-58 0 -89 34t-31 97q0 9 19 97l3 25q0 33 -39.5 57.5t-99.5 24.5q-74 0 -121 -27.5t-47 -66.5q0 -22 29 -36.5t67 -14.5q64 0 129 25l21 -33q-22 -78 -22 -174
q0 -41 29 -69t75 -28zM1550 467q0 184 -97.5 276.5t-327.5 104.5l5 -111q126 -11 194.5 -44.5t98.5 -97t30 -208.5q0 -88 17 -144.5t55 -118.5t108 -125l13 10q-102 138 -102 338zM244 1551q0 31 32 31q31 0 31 -31q0 -30 -31 -30q-32 0 -32 30zM256 1071q0 29 31 29
q29 0 29 -29t-29 -29q-31 0 -31 29zM1052 1976l39 -4q-12 37 -55 37t-55 -37l41 4h30z" />
  </g>

</svg>
