<?xml version="1.0" standalone="no"?>
<!DOCTYPE svg PUBLIC "-//W3C//DTD SVG 1.1//EN" "http://www.w3.org/Graphics/SVG/1.1/DTD/svg11.dtd" >
<svg xmlns="http://www.w3.org/2000/svg" xmlns:xlink="http://www.w3.org/1999/xlink" version="1.1" viewBox="-10 0 1806 2048">
  <g transform="matrix(1 0 0 -1 0 1638)">
   <path fill="currentColor"
d="M645 1173q-24 -13 -76 -13q-73 0 -160.5 33.5t-162.5 89t-110.5 104.5t-35.5 110q0 63 39 129q-24 34 -24 65q0 42 34.5 75t76.5 33q28 0 62 -24q68 39 129 39q55 0 102 -30.5t108.5 -111.5t95 -171t33.5 -167q0 -40 -14 -66l780 -712q101 -93 124.5 -121.5t36.5 -53.5
t13 -51q0 -38 -37.5 -75t-74.5 -37q-28 0 -54.5 14t-57.5 41t-113 118zM140 1497q0 -63 53 -114q83 -83 183.5 -133t190.5 -50q61 0 81 22l46 46q22 22 22 79q0 80 -43.5 175.5t-116 173.5t-140.5 78q-58 0 -122.5 -43t-109 -109t-44.5 -125zM715 1238l-40 -39l412 -451
q312 -344 374 -406q35 -36 65 -60t57 -24q24 0 48.5 24.5t24.5 48.5q0 27 -24.5 56.5t-59.5 65.5l-145 136zM252 1751q-16 8 -30 8q-22 0 -44.5 -22.5t-22.5 -44.5q0 -18 9 -29q33 46 88 88z" />
  </g>

</svg>
