<?xml version="1.0" standalone="no"?>
<!DOCTYPE svg PUBLIC "-//W3C//DTD SVG 1.1//EN" "http://www.w3.org/Graphics/SVG/1.1/DTD/svg11.dtd" >
<svg xmlns="http://www.w3.org/2000/svg" xmlns:xlink="http://www.w3.org/1999/xlink" version="1.1" viewBox="-10 0 2720 2048">
  <g transform="matrix(1 0 0 -1 0 1638)">
   <path fill="currentColor"
d="M971 1154q-20 13 -36 30l-751 698q-84 73 -84 105q0 28 19.5 45.5t54.5 17.5q29 0 116 -30l1944 -709q73 -30 159 -128.5t151.5 -233.5t65.5 -223q0 -37 -35.5 -69.5t-97 -52t-97.5 -19.5q-22 21 -31.5 62.5t-13.5 112.5q-8 148 -70 242q-15 22 -56.5 46t-77.5 34
q-125 -39 -301 -60l327 -1155h-1549zM1559 1044q149 0 303.5 21t271.5 58q64 -18 109.5 -49t69 -74t39 -99.5t27.5 -181.5q7 -76 19 -93q58 6 115 36.5t57 63.5q0 77 -60.5 202t-142.5 222.5t-147 122.5l-1948 710q-20 7 -34 12t-25.5 8.5t-20.5 5t-19 1.5q-33 0 -33 -23
q0 -14 75 -79l733 -682q89 -84 253.5 -133t357.5 -49zM1004 1120l-342 -1213h423l258 899zM1790 1017q-39 -5 -153 -11l-215 -200l258 -899h423zM1126 -93h512l-256 888zM1578 1004q-276 0 -477 81l281 -261z" />
  </g>

</svg>
