<?xml version="1.0" standalone="no"?>
<!DOCTYPE svg PUBLIC "-//W3C//DTD SVG 1.1//EN" "http://www.w3.org/Graphics/SVG/1.1/DTD/svg11.dtd" >
<svg xmlns="http://www.w3.org/2000/svg" xmlns:xlink="http://www.w3.org/1999/xlink" version="1.1" viewBox="-10 0 832 2048">
  <g transform="matrix(1 0 0 -1 0 1638)">
   <path fill="currentColor"
d="M618 2050q104 0 104 -64t-104 -64h-106q-36 -54 -36 -116v-79q110 -16 158.5 -85.5t48.5 -186.5q0 -110 -111 -570q-63 -266 -81.5 -363t-18.5 -134q0 -66 54 -156.5t145 -181.5v-50h-520v50q90 92 144.5 181.5t54.5 156.5q0 38 -17.5 131t-82.5 366q-111 460 -111 570
q0 117 48.5 186.5t158.5 85.5v79q0 58 -37 116h-105q-104 0 -104 64t104 64h414zM390 388q0 -124 -132 -278l-61 -70h428l-60 70q-133 154 -133 278q0 84 67 359q144 592 144 708q0 115 -54 176t-178 61t-178 -61t-54 -176q0 -116 144 -708q67 -275 67 -359zM204 2010
q-64 0 -64 -24t64 -24h414q64 0 64 24t-64 24h-414zM424 1732l12 -1v75q0 61 30 116h-111q31 -56 31 -116v-75l12 1h26z" />
  </g>

</svg>
