<?xml version="1.0" standalone="no"?>
<!DOCTYPE svg PUBLIC "-//W3C//DTD SVG 1.1//EN" "http://www.w3.org/Graphics/SVG/1.1/DTD/svg11.dtd" >
<svg xmlns="http://www.w3.org/2000/svg" xmlns:xlink="http://www.w3.org/1999/xlink" version="1.1" viewBox="-10 0 1626 2048">
  <g transform="matrix(1 0 0 -1 0 1638)">
   <path fill="currentColor"
d="M100 168q0 70 49.5 119t118.5 49q70 0 119 -49.5t49 -118.5q0 -70 -49.5 -119t-118.5 -49q-70 0 -119 49.5t-49 118.5zM140 168q0 -54 37 -91t91 -37t91 37t37 91t-37 91t-91 37t-91 -37t-37 -91zM640 168q0 70 49.5 119t118.5 49q70 0 119 -49.5t49 -118.5
q0 -70 -49.5 -119t-118.5 -49q-70 0 -119 49.5t-49 118.5zM680 168q0 -54 37 -91t91 -37t91 37t37 91t-37 91t-91 37t-91 -37t-37 -91zM1180 168q0 70 49.5 119t118.5 49q70 0 119 -49.5t49 -118.5q0 -70 -49.5 -119t-118.5 -49q-70 0 -119 49.5t-49 118.5zM1220 168
q0 -54 37 -91t91 -37t91 37t37 91t-37 91t-91 37t-91 -37t-37 -91z" />
  </g>

</svg>
