<?xml version="1.0" standalone="no"?>
<!DOCTYPE svg PUBLIC "-//W3C//DTD SVG 1.1//EN" "http://www.w3.org/Graphics/SVG/1.1/DTD/svg11.dtd" >
<svg xmlns="http://www.w3.org/2000/svg" xmlns:xlink="http://www.w3.org/1999/xlink" version="1.1" viewBox="-10 0 2585 2048">
  <g transform="matrix(1 0 0 -1 0 1638)">
   <path fill="currentColor"
d="M1999 694q29 63 93 98.5t140 35.5q64 0 129.5 -25t113.5 -65l-78 -99q-30 20 -79 38t-82 18q-123 0 -123 -83t123 -83q34 0 84 18.5t77 37.5l78 -99q-45 -39 -112 -64.5t-131 -25.5q-75 0 -139 34t-94 100h-1423q-30 -66 -95 -100t-138 -34q-65 0 -131.5 25.5
t-111.5 64.5q47 61 78 99q30 -20 79 -38t82 -18q123 0 123 83t-123 83q-34 0 -84 -18.5t-77 -37.5l-78 99q49 41 114 65.5t129 24.5q77 0 140.5 -35.5t92.5 -98.5h1423zM2029 570q13 -59 72 -96.5t129 -37.5q96 0 189 58l-31 39q-85 -44 -152 -44q-76 0 -119.5 32.5
t-43.5 90.5t43.5 90.5t119.5 32.5q65 0 152 -45l31 40q-93 58 -189 58q-72 0 -130.5 -38.5t-71.5 -95.5h-1481q-13 58 -72.5 96t-129.5 38q-96 0 -189 -58l31 -40q87 45 152 45q76 0 119.5 -32.5t43.5 -90.5t-43.5 -90.5t-119.5 -32.5q-67 0 -152 44l-31 -39q93 -58 189 -58
q70 0 129 37.5t72 96.5h1483z" />
  </g>

</svg>
