<?xml version="1.0" standalone="no"?>
<!DOCTYPE svg PUBLIC "-//W3C//DTD SVG 1.1//EN" "http://www.w3.org/Graphics/SVG/1.1/DTD/svg11.dtd" >
<svg xmlns="http://www.w3.org/2000/svg" xmlns:xlink="http://www.w3.org/1999/xlink" version="1.1" viewBox="-10 0 2385 2048">
  <g transform="matrix(1 0 0 -1 0 1638)">
   <path fill="currentColor"
d="M102 965l33 30q81 76 201.5 157t254 129t250.5 48q142 0 285 -54.5t361 -210.5q74 -54 143 -75q76 110 83 199q-149 6 -213 15.5t-104.5 25t-60.5 36.5q0 50 60 358q48 243 55 399q70 28 170 28q41 0 94 -9t88 -24q-34 -144 -69 -317t-35 -213q56 -19 126.5 -28.5
t202.5 -9.5h121q69 0 98 -19t29 -58q0 -103 -114 -272t-310.5 -366.5t-329.5 -295.5q-302 -227 -673 -390q-169 -73 -385 -134.5t-289 -61.5q-42 0 -58 9t-16 36q0 22 38 47.5t224 107.5q142 62 258 125.5t222.5 134t302.5 221t301.5 250t160.5 174.5q-58 18 -107 50
q-45 -17 -210 -59.5t-272.5 -62t-165.5 -19.5q-149 0 -665 119q-52 -45 -55 -50zM1620 2010q-76 0 -129 -16q-9 -143 -56 -386q-56 -288 -58 -321q30 -27 131.5 -43t245.5 -16q0 -274 -532 -687q-282 -220 -461.5 -328.5t-382.5 -196.5q-123 -54 -180.5 -81t-57.5 -38
q0 -5 34 -5q74 0 298 65.5t397.5 145.5t333.5 173.5t271 175.5q93 67 249 216t274.5 288t178 244.5t59.5 171.5q0 24 -24.5 30.5t-60.5 6.5h-124q-253 0 -377 49q3 42 45.5 253.5t59.5 278.5q-42 20 -134 20zM650 1098q0 -79 54.5 -135.5t135.5 -56.5q80 0 137 56t57 136
q0 78 -57 134.5t-137 56.5t-135 -56.5t-55 -134.5zM1460 1035q-43 29 -96 65t-114 71t-129 63.5t-141 42.5q94 -68 94 -179q0 -114 -91 -179q209 37 413 98zM610 1098q0 111 87 175q-112 -28 -223.5 -87t-246.5 -167q287 -72 471 -98q-88 72 -88 177z" />
  </g>

</svg>
