<?xml version="1.0" standalone="no"?>
<!DOCTYPE svg PUBLIC "-//W3C//DTD SVG 1.1//EN" "http://www.w3.org/Graphics/SVG/1.1/DTD/svg11.dtd" >
<svg xmlns="http://www.w3.org/2000/svg" xmlns:xlink="http://www.w3.org/1999/xlink" version="1.1" viewBox="-10 0 1523 2048">
  <g transform="scale(1, -1)" transform-origin="center">
   <path fill="currentColor"
d="M990 351q107 0 198.5 40.5t138 117t46.5 182.5q0 157 -46 330.5t-128 298.5t-195.5 187.5t-251.5 62.5q-200 0 -350 -91t-243 -275h325q86 158 215 158q81 0 122.5 -50.5t41.5 -134.5q0 -50 -10.5 -96.5t-29 -91.5t-63.5 -125q-47 -83 -63 -122.5t-24.5 -80t-8.5 -84.5
q0 -109 82.5 -167.5t243.5 -58.5zM990 311q-181 0 -273.5 69.5t-92.5 196.5q0 65 22 135.5t80 171.5q58 102 77.5 166.5t19.5 126.5q0 66 -31.5 105.5t-92.5 39.5q-59 0 -106 -38.5t-88 -119.5h-405q74 208 244 327t408 119q146 0 266.5 -65t208 -194.5t137 -311.5
t49.5 -348q0 -117 -51.5 -202.5t-152.5 -131.5t-219 -46z" />
  </g>

</svg>
