<?xml version="1.0" standalone="no"?>
<!DOCTYPE svg PUBLIC "-//W3C//DTD SVG 1.1//EN" "http://www.w3.org/Graphics/SVG/1.1/DTD/svg11.dtd" >
<svg xmlns="http://www.w3.org/2000/svg" xmlns:xlink="http://www.w3.org/1999/xlink" version="1.1" viewBox="-10 0 2212 2048">
  <g transform="matrix(1 0 0 -1 0 1638)">
   <path fill="currentColor"
d="M1068 59q0 35 17 63q-200 169 -296.5 341t-133.5 372q-144 6 -307 50t-248 100v439q74 7 173 36.5t198.5 75.5t187.5 109q179 -64 336.5 -96t271.5 -32q120 0 314.5 46.5t405.5 122.5q54 -103 84.5 -228t30.5 -244q0 -128 -41 -269t-108 -257q-215 71 -414 109t-354 38
h-491q21 -117 74 -242.5t142 -238t198 -202.5q36 34 86 34q52 0 89.5 -37.5t37.5 -89.5q0 -53 -38.5 -89.5t-88.5 -36.5q-52 0 -89 37t-37 89zM734 1250q-23 -47 -37.5 -124t-14.5 -165q0 -41 6 -86h497q160 0 357 -37t394 -102q57 103 91.5 234t34.5 244q0 102 -26 218
t-66 204q-259 -86 -427 -122.5t-276 -36.5q-259 0 -603 122q-111 -77 -256 -136t-268 -75v-381q103 -54 248.5 -90.5t259.5 -40.5q-6 46 -6 87q0 174 55 301zM1108 59q0 -35 25.5 -60.5t60.5 -25.5t61 26t26 60q0 35 -26 61t-61 26q-34 0 -60 -26.5t-26 -60.5z" />
  </g>

</svg>
