<?xml version="1.0" standalone="no"?>
<!DOCTYPE svg PUBLIC "-//W3C//DTD SVG 1.1//EN" "http://www.w3.org/Graphics/SVG/1.1/DTD/svg11.dtd" >
<svg xmlns="http://www.w3.org/2000/svg" xmlns:xlink="http://www.w3.org/1999/xlink" version="1.1" viewBox="-10 0 2264 2048">
  <g transform="matrix(1 0 0 -1 0 1638)">
   <path fill="currentColor"
d="M1058 1981q0 69 69 69t69 -69v-199h49l111 136l282 -83q29 58 73 58q32 0 62.5 -27.5t30.5 -63.5q0 -22 -11 -40.5t-24.5 -28.5t-21.5 -10h-236v-56h470l173 -962h-384l151 841h-410v-216h71l19 -40l-29 -49q11 -11 16 -23l27 26l29 -49l-42 -31l1 -8v-9
q0 -83 -30.5 -126t-85.5 -43q-54 0 -85 42.5t-31 126.5v17l-41 31l29 49l26 -26l17 23l-29 49l19 40h79v216h-275v-968h125q12 -105 55 -215.5t127 -241.5h77v-121h-906v121h77q85 133 127 241.5t55 215.5h125v968h-725l151 -841h-384l173 962h785v314zM293 1546h-2
l-143 -801h288zM1963 1546h-2l-143 -801h288zM1098 121h58v1425h-58v-1425zM714 81v-41h826v41h-826zM1726 1763q17 0 27.5 12t10.5 27q0 17 -17 34t-35 17q-17 0 -30 -17.5t-19 -40.5h-29l-263 77l-88 -109h443zM1196 448v-327h167q-107 169 -137 327h-30zM1028 448
q-29 -156 -138 -327h168v327h-30zM1196 538v-50h65q8 -79 41 -163t109 -204h44q-138 209 -169 417h-90zM968 538q-35 -212 -170 -417h45q75 118 108.5 204.5t41.5 162.5h65v50h-90zM1098 1667h58v314q0 30 -29 30t-29 -30v-314zM1511 1586h417l8 41h-425v-41zM1196 1667h275
v56h-275v-56zM1411 1158v-11q0 -52 15 -85q14 60 61 60t61 -60q15 33 15 85l-1 12l-27 -18q-13 27 -48 27t-48 -27zM1487 1232q-67 0 -75 -66q22 39 75 39q52 0 75 -41q-8 68 -75 68zM1487 1018q18 0 29 7q-3 57 -29 57q-27 0 -30 -57q13 -7 30 -7zM1487 1272q26 0 54 -10
l20 28h-148l20 -28q26 10 54 10zM1471 1586v41h-1153l7 -41h1146z" />
  </g>

</svg>
