<?xml version="1.0" standalone="no"?>
<!DOCTYPE svg PUBLIC "-//W3C//DTD SVG 1.1//EN" "http://www.w3.org/Graphics/SVG/1.1/DTD/svg11.dtd" >
<svg xmlns="http://www.w3.org/2000/svg" xmlns:xlink="http://www.w3.org/1999/xlink" version="1.1" viewBox="-10 0 2165 2048">
  <g transform="matrix(1 0 0 -1 0 1638)">
   <path fill="currentColor"
d="M1078 492q-145 0 -266 26t-220.5 71t-184 109.5t-151 142.5t-111 165t-44.5 122h1954q0 -35 -48.5 -127t-113.5 -167t-149 -138t-182.5 -107.5t-219.5 -70.5t-264 -26zM152 1088q3 -11 24 -56t65.5 -107t115 -131t172.5 -127.5t238 -96.5t311 -38t311 38t238 96.5
t172.5 127.5t115 131t65.5 107t24 56h-1852z" />
  </g>

</svg>
