<?xml version="1.0" standalone="no"?>
<!DOCTYPE svg PUBLIC "-//W3C//DTD SVG 1.1//EN" "http://www.w3.org/Graphics/SVG/1.1/DTD/svg11.dtd" >
<svg xmlns="http://www.w3.org/2000/svg" xmlns:xlink="http://www.w3.org/1999/xlink" version="1.1" viewBox="-10 0 2840 2048">
  <g transform="matrix(1 0 0 -1 0 1638)">
   <path fill="currentColor"
d="M1579 439q143 0 346.5 29.5t328.5 69.5q53 -20 100.5 -55t73 -83.5t38.5 -101.5t28 -184q5 -43 21 -74q61 6 118 37.5t57 63.5q0 77 -60.5 202t-142.5 222.5t-147 122.5l-2102 722q-42 15 -65 15q-33 0 -33 -23q0 -15 74 -79l823 -719q88 -77 226 -121t316 -44zM100 1402
q0 28 19.5 45.5t54.5 17.5q28 0 116 -30l2064 -709q73 -30 159 -128.5t151.5 -233.5t65.5 -223q0 -36 -33.5 -67.5t-91.5 -52.5t-95 -21q-24 5 -38 43t-23 114q-10 80 -24.5 138t-35 94t-64 67.5t-75.5 40.5q-129 -38 -327.5 -68t-343.5 -30q-168 0 -317.5 43.5
t-237.5 118.5l-800 700q-87 78 -105.5 101.5t-18.5 39.5z" />
  </g>

</svg>
