<?xml version="1.0" standalone="no"?>
<!DOCTYPE svg PUBLIC "-//W3C//DTD SVG 1.1//EN" "http://www.w3.org/Graphics/SVG/1.1/DTD/svg11.dtd" >
<svg xmlns="http://www.w3.org/2000/svg" xmlns:xlink="http://www.w3.org/1999/xlink" version="1.1" viewBox="-10 0 2670 2048">
  <g transform="matrix(1 0 0 -1 0 1638)">
   <path fill="currentColor"
d="M2310 1596q115 0 178 -69.5t63 -198.5q0 -193 -170 -306q76 -82 127.5 -200.5t51.5 -226.5q0 -112 -42 -197.5t-118.5 -134.5t-165.5 -49q-156 0 -243 83t-87 237q0 75 26 175.5t61 184.5q-180 -27 -427 -27l-125 2v-339h-40v341q-178 10 -321 35l-1 -1050h-40l1 1057
q-180 32 -353 89.5t-328.5 137t-206 124t-50.5 84.5q0 37 28 59.5t77 22.5q59 0 203 -56q163 -65 244 -88.5t177.5 -44.5t208.5 -34l1 605q0 113 51 175.5t148 62.5q74 0 117 -29t63.5 -78t20.5 -144v-613q185 2 304.5 18.5t190.5 49.5t116 117q67 125 89.5 151t50 42.5
t56 24t64.5 7.5zM2310 1556q-62 0 -107.5 -31.5t-91.5 -122.5q-44 -84 -68 -114q-41 -50 -110.5 -77.5t-191 -45t-302.5 -19.5v-237l125 -2q479 0 713 104.5t234 316.5q0 71 -24 123t-70.5 78.5t-106.5 26.5zM1078 1202q142 -16 321 -16v613q0 114 -41 162.5t-120 48.5
q-73 0 -116 -49t-43 -135zM1038 954v213q-142 18 -276 49.5t-296 92.5l-71 28q-137 53 -188 53q-31 0 -49 -11.5t-18 -30.5q0 -63 284.5 -198t613.5 -196zM2118 918l-82 -16q-39 -91 -65.5 -195t-26.5 -173q0 -128 76.5 -204t208.5 -76q80 0 147.5 43t105.5 120.5t38 177.5
q0 69 -23 144.5t-68.5 150t-82.5 111.5q-32 -18 -71 -34q73 -73 112 -172t39 -204q0 -64 -14.5 -108t-38 -73t-60.5 -46t-93 -17q-90 6 -136.5 57t-46.5 139q0 71 21 171t60 204zM2234 952q-35 -14 -75 -24l5 -2q-41 -103 -64 -204.5t-23 -178.5q0 -54 21.5 -87t53.5 -50.5
t68 -17.5h18q35 0 71 20t56.5 66.5t20.5 116.5q0 103 -40.5 199.5t-111.5 161.5zM1987 1110l17 8q67 31 118.5 81.5t51.5 104.5v23q0 74 37 115.5t100 41.5t98 -42t35 -115q0 -107 -97.5 -183t-234.5 -76l-125 4v38zM1078 947q150 -26 321 -36v235q-179 0 -321 16v-215z
M2214 1306q0 -43 -23.5 -82t-63 -71.5t-70.5 -44.5l29 -1q101 0 170.5 30.5t108.5 82t39 111.5q0 49 -23.5 81t-71.5 32q-45 0 -70 -31t-25 -85v-22z" />
  </g>

</svg>
