<?xml version="1.0" standalone="no"?>
<!DOCTYPE svg PUBLIC "-//W3C//DTD SVG 1.1//EN" "http://www.w3.org/Graphics/SVG/1.1/DTD/svg11.dtd" >
<svg xmlns="http://www.w3.org/2000/svg" xmlns:xlink="http://www.w3.org/1999/xlink" version="1.1" viewBox="-10 0 1774 2048">
  <g transform="matrix(1 0 0 -1 0 1638)">
   <path fill="currentColor"
d="M883 546q-152 0 -269 35.5t-204 89t-146.5 118t-95.5 122t-51.5 100t-15.5 53.5h1563q0 -11 -16 -53.5t-52 -100t-95 -122t-145.5 -118t-203.5 -89t-269 -35.5zM164 1024q1 -9 17.5 -45t51 -84.5t90 -103t134.5 -100t184.5 -75.5t241.5 -30t242.5 30.5t188 77t142.5 108
t101.5 124t48.5 98.5h-1442z" />
  </g>

</svg>
