<?xml version="1.0" standalone="no"?>
<!DOCTYPE svg PUBLIC "-//W3C//DTD SVG 1.1//EN" "http://www.w3.org/Graphics/SVG/1.1/DTD/svg11.dtd" >
<svg xmlns="http://www.w3.org/2000/svg" xmlns:xlink="http://www.w3.org/1999/xlink" version="1.1" viewBox="-10 0 1090 2048">
  <g transform="matrix(1 0 0 -1 0 1638)">
   <path fill="currentColor"
d="M509 383q-87 0 -147.5 13t-102.5 52v-65h-159v858h159v-65q42 39 102.5 52t147.5 13h471v-130h-486q-125 0 -193.5 -75t-68.5 -224t68.5 -224t193.5 -75h486v-130h-471zM140 423h79v129q39 -68 109 -98.5t202 -30.5h410v50h-446q-147 0 -224.5 87t-77.5 252
q0 164 77 251.5t225 87.5h446v50h-410q-144 0 -208 -30t-103 -99v129h-79v-778z" />
  </g>

</svg>
