<?xml version="1.0" standalone="no"?>
<!DOCTYPE svg PUBLIC "-//W3C//DTD SVG 1.1//EN" "http://www.w3.org/Graphics/SVG/1.1/DTD/svg11.dtd" >
<svg xmlns="http://www.w3.org/2000/svg" xmlns:xlink="http://www.w3.org/1999/xlink" version="1.1" viewBox="-10 0 2422 2048">
  <g transform="matrix(1 0 0 -1 0 1638)">
   <path fill="currentColor"
d="M1721 1148q109 0 207.5 -17t177.5 -38.5t133 -42.5t73 -28v-677q-117 -49 -283 -82.5t-308 -33.5q-150 0 -311 33.5t-279 82.5v677q19 7 73 28t133 42.5t177.5 38.5t206.5 17zM2264 988q-122 51 -257.5 80t-261.5 32v-823q123 1 265.5 29t253.5 71v611zM1179 379
q110 -43 255 -72t263 -30v823q-123 -3 -258 -31.5t-260 -80.5v-609zM543 783q208 -38 327.5 -129t168.5 -203l-30 -35q-102 19 -196.5 56t-177 112t-121.5 163zM336 459q96 -20 193 -55.5t181 -113t121 -164.5l-30 -35q-91 16 -190 54t-182.5 114.5t-121.5 163.5zM129 134
q102 -19 197 -56t177.5 -112t120.5 -164l-30 -35q-103 19 -196.5 56t-176 112.5t-121.5 162.5zM366 411q36 -80 141 -154.5t221 -104.5l45 -13q-28 58 -85 109t-126.5 89.5t-195.5 73.5zM159 86q36 -79 141.5 -153.5t220.5 -104.5l45 -13q-18 38 -51.5 75.5t-88.5 77.5
t-109 65t-158 53zM573 735q36 -79 145.5 -156t216.5 -103l45 -12q-21 46 -64 89t-120 93t-223 89z" />
  </g>

</svg>
