<?xml version="1.0" standalone="no"?>
<!DOCTYPE svg PUBLIC "-//W3C//DTD SVG 1.1//EN" "http://www.w3.org/Graphics/SVG/1.1/DTD/svg11.dtd" >
<svg xmlns="http://www.w3.org/2000/svg" xmlns:xlink="http://www.w3.org/1999/xlink" version="1.1" viewBox="-10 0 800 2048">
  <g transform="matrix(1 0 0 -1 0 1638)">
   <path fill="currentColor"
d="M552 1919v131h138v-2119h-138l-373 634h351l-87 61q-154 104 -213 155.5t-91 100t-32 95.5q0 68 40 109.5t103 41.5q57 0 90.5 -33.5t33.5 -84.5q0 -43 -28.5 -70.5t-74.5 -27.5q-42 0 -70.5 22.5t-28.5 73.5h40q0 -29 17.5 -42.5t43.5 -13.5q31 0 46 18t15 40
q0 34 -23 56t-61 22q-46 0 -74.5 -30t-28.5 -81q0 -41 33 -85.5t101 -100t271 -193.5v976l-452 -1v118l452 1v109l-452 -1v118zM650 2011h-58v-2040h58v2040zM552 10v515h-303zM139 1878v-38l413 1v38zM139 1651v-38l413 1v38z" />
  </g>

</svg>
