<?xml version="1.0" standalone="no"?>
<!DOCTYPE svg PUBLIC "-//W3C//DTD SVG 1.1//EN" "http://www.w3.org/Graphics/SVG/1.1/DTD/svg11.dtd" >
<svg xmlns="http://www.w3.org/2000/svg" xmlns:xlink="http://www.w3.org/1999/xlink" version="1.1" viewBox="-10 0 681 2048">
  <g transform="matrix(1 0 0 -1 0 1638)">
   <path fill="currentColor"
d="M100 1298q0 117 55.5 184.5t160.5 72.5v495h40v-495q102 -5 158.5 -72t56.5 -185q0 -113 -58.5 -181.5t-156.5 -74.5v-1042h-40v1041q-100 5 -158 74t-58 183zM140 1298q0 -97 53 -157t142 -60t142.5 59.5t53.5 157.5q0 104 -50 161t-146 57t-145.5 -57t-49.5 -161z" />
  </g>

</svg>
