<?xml version="1.0" standalone="no"?>
<!DOCTYPE svg PUBLIC "-//W3C//DTD SVG 1.1//EN" "http://www.w3.org/Graphics/SVG/1.1/DTD/svg11.dtd" >
<svg xmlns="http://www.w3.org/2000/svg" xmlns:xlink="http://www.w3.org/1999/xlink" version="1.1" viewBox="-10 0 1406 2048">
  <g transform="matrix(1 0 0 -1 0 1638)">
   <path fill="currentColor"
d="M217 1165q60 131 188.5 261t300.5 232q-140 39 -326.5 105.5t-244.5 98.5l-35 19l82 156q155 -54 305.5 -145t269.5 -195q23 50 68 87t89 37q46 0 75 -27t29 -72q0 -42 -35.5 -71.5t-96.5 -29.5q-21 0 -54 6q130 -135 210 -247.5t129 -214.5h124v-7q0 -251 -72.5 -435
t-201.5 -272.5t-303 -88.5q-172 0 -302 87t-208 272.5t-81 443.5h90zM167 1125q0 -95 33 -236t104 -255.5t176.5 -173t237.5 -58.5q131 0 234.5 57.5t170 165.5t99.5 246t33 254h-1088zM761 1643q-168 -95 -301.5 -222t-197.5 -256h862q-60 122 -159 251t-202 226zM694 1700
q-108 88 -239 165t-253 122l-47 -88q51 -30 232.5 -96.5t306.5 -102.5zM914 1781q-57 0 -125 -106q54 -14 97 -14q47 0 69.5 19t22.5 42t-16 41t-48 18z" />
  </g>

</svg>
