<?xml version="1.0" standalone="no"?>
<!DOCTYPE svg PUBLIC "-//W3C//DTD SVG 1.1//EN" "http://www.w3.org/Graphics/SVG/1.1/DTD/svg11.dtd" >
<svg xmlns="http://www.w3.org/2000/svg" xmlns:xlink="http://www.w3.org/1999/xlink" version="1.1" viewBox="-10 0 2502 2048">
  <g transform="matrix(1 0 0 -1 0 1638)">
   <path fill="currentColor"
d="M1010 -144l1 997l-805 707q-63 54 -84.5 82.5t-21.5 52.5q0 31 18 46t44 15q41 0 145 -37l704 -259l1 352q0 113 51 175.5t148 62.5q74 0 117 -29t63.5 -78t20.5 -144v-486l632 -232q138 -50 243 -178t105 -246q0 -90 -40 -135t-114 -45q-103 0 -182 81.5t-103 217.5
q-211 -86 -463 -86l-78 3v-163h-40v167q-181 23 -321 125l-1 -966h-40zM1412 1270v-537l78 -3q119 0 227 19.5t266 80.5q26 -144 96.5 -228.5t157.5 -84.5q115 0 115 140q0 64 -46.5 140.5t-128.5 149.5t-147 96zM1011 905v512l-718 264q-37 13 -58 20.5t-33.5 10.5t-19 3.5
t-14.5 0.5q-28 0 -28 -21q0 -19 21.5 -42t68.5 -64l262 -228zM1051 1445l321 -117v471q0 114 -41 162.5t-120 48.5q-73 0 -116 -49t-43 -135zM1051 871q141 -109 321 -134v547l-321 118v-531z" />
  </g>

</svg>
