<?xml version="1.0" standalone="no"?>
<!DOCTYPE svg PUBLIC "-//W3C//DTD SVG 1.1//EN" "http://www.w3.org/Graphics/SVG/1.1/DTD/svg11.dtd" >
<svg xmlns="http://www.w3.org/2000/svg" xmlns:xlink="http://www.w3.org/1999/xlink" version="1.1" viewBox="-10 0 1291 2048">
  <g transform="matrix(1 0 0 -1 0 1638)">
   <path fill="currentColor"
d="M1069 271l112 -271h-328l111 271h-647l111 -271h-328l111 271h-24q-24 0 -41 16.5t-17 45.5t17 45.5t41 16.5h46q-31 140 -31 304q0 124 41 279t115 305t179 273q-47 47 -115.5 90.5t-150 75t-171.5 39.5l10 173q81 -3 184.5 -55.5t203.5 -142.5l-66 307h420l-110 -486
q105 -121 180.5 -273.5t116 -307t40.5 -277.5q0 -159 -32 -304h47q24 0 41 -16.5t17 -45.5t-17 -45.5t-41 -16.5h-25zM992 395h14q33 148 33 304q0 119 -45.5 286t-115 303t-159.5 240h-39l12 -343q6 -202 85 -409t215 -381zM242 699q0 -159 32 -304h15q134 173 213.5 379.5
t86.5 410.5l11 343h-39q-88 -100 -160 -241.5t-115.5 -307t-43.5 -280.5zM338 395h604q-132 177 -208.5 388t-81.5 402l-12 343l-11 -343q-7 -193 -80.5 -397t-210.5 -393zM574 1568h131l97 435h-320zM1094 311q18 0 18 22t-18 22h-907q-18 0 -18 -22t18 -22h907zM1030 271
h-27l-90 -231h208zM277 271h-27l-90 -231h208zM142 1796q96 -14 196.5 -59t183.5 -114l-9 42q-82 86 -183 148t-183 75z" />
  </g>

</svg>
