<?xml version="1.0" standalone="no"?>
<!DOCTYPE svg PUBLIC "-//W3C//DTD SVG 1.1//EN" "http://www.w3.org/Graphics/SVG/1.1/DTD/svg11.dtd" >
<svg xmlns="http://www.w3.org/2000/svg" xmlns:xlink="http://www.w3.org/1999/xlink" version="1.1" viewBox="-10 0 1937 2048">
  <g transform="matrix(1 0 0 -1 0 1638)">
   <path fill="currentColor"
d="M1705 2050q43 0 67 -16t24 -45q0 -30 -24 -45.5t-67 -15.5h-93q-28 -38 -28 -101v-57q181 -26 181 -240q0 -90 -97 -500q-88 -362 -88 -435q0 -60 46.5 -136.5t124.5 -154.5v-49h-455v49q83 85 127 160.5t44 130.5q0 61 -56 298q-85 357 -107 472t-22 165q0 214 183 240
v57q0 55 -31 101h-92q-43 0 -67 16t-24 45q0 30 24 45.5t67 15.5h363zM625 1426q0 -71 -38 -124.5t-97 -78.5q59 -25 97 -79t38 -123q0 -42 -15 -79t-44 -82l-137 -211l252 -383l-33 -24l-244 371l-244 -371l-33 24l252 383l-137 211q-29 44 -44 80t-15 82q0 70 37 124
t97 78q-60 25 -97 79t-37 124t37 124t97 77q-64 28 -99 83.5t-35 119.5q0 95 65 157t156 62t156 -64.5t65 -154.5q0 -71 -38 -125t-97 -79q62 -26 98.5 -81t36.5 -120zM1507 595q0 -106 -114 -240l-50 -60h361l-49 60q-115 134 -115 240q0 81 58 315q41 163 84 359.5
t43 260.5q0 101 -46.5 152.5t-155.5 51.5q-108 0 -154.5 -52t-46.5 -152q0 -61 42.5 -255.5t84.5 -364.5q58 -234 58 -315zM1110 248q44 0 84.5 -20t66.5 -55h566v-115h-566q-31 -35 -71 -55t-80 -20q-107 0 -147 77q-15 -31 -50.5 -54t-95.5 -23q-39 0 -79.5 20t-71.5 55
h-566v115h566q27 36 67 55.5t84 19.5q106 0 146 -77q40 77 147 77zM404 685l126 192q55 85 55 143q0 73 -53.5 127.5t-127.5 54.5q-75 0 -128 -54.5t-53 -125.5q0 -61 51 -138zM585 1427q0 70 -53.5 125.5t-127.5 55.5q-76 0 -128.5 -54.5t-52.5 -125.5q0 -73 53 -129.5
t128 -56.5q72 0 126.5 55t54.5 130zM585 1831q0 71 -54 125.5t-127 54.5q-74 0 -127.5 -54t-53.5 -125q0 -73 53 -128.5t128 -55.5t128 55t53 128zM687 98q56 -75 130 -75q53 0 86.5 27.5t33.5 65.5q0 36 -31.5 64t-88.5 28q-76 -2 -130 -75h-547v-35h547zM1787 98v35h-547
q-54 73 -130 75q-56 0 -88 -27.5t-32 -64.5q0 -39 33.5 -66t86.5 -27q74 0 130 75h547zM1346 2010q-55 0 -55 -21t55 -21h355q55 0 55 21t-55 21h-355zM1543 1827q0 49 29 101h-98q31 -51 31 -101v-53h38v53z" />
  </g>

</svg>
