<?xml version="1.0" standalone="no"?>
<!DOCTYPE svg PUBLIC "-//W3C//DTD SVG 1.1//EN" "http://www.w3.org/Graphics/SVG/1.1/DTD/svg11.dtd" >
<svg xmlns="http://www.w3.org/2000/svg" xmlns:xlink="http://www.w3.org/1999/xlink" version="1.1" viewBox="-10 0 2331 2048">
  <g transform="matrix(1 0 0 -1 0 1638)">
   <path fill="currentColor"
d="M122 1058q41 -26 231.5 -105.5t316.5 -115.5l-5 711q0 134 77 254.5t203.5 183.5t283.5 63q183 0 314.5 -57.5t204.5 -175.5t73 -275v-37q0 -181 29.5 -508.5t56.5 -439.5q38 -165 121 -317t193 -250l-29 -27q-110 98 -195.5 253t-129.5 337q-30 124 -58 472t-28 511
q0 151 -66 259.5t-190.5 161.5t-295.5 53q-149 0 -267 -60t-187.5 -171t-69.5 -230l5 -710q101 90 205 137.5t197 47.5q104 0 161.5 -36.5t57.5 -101.5q0 -73 -64.5 -116.5t-177.5 -43.5q-132 0 -327 47q82 -119 126 -229t44 -193q0 -91 -34.5 -156t-95 -98.5t-137.5 -33.5
q-111 0 -180.5 76t-69.5 198q0 96 62 214t177 235l12 13q-96 27 -231.5 78.5t-334.5 146.5zM892 350q0 171 -184 432q-119 -111 -186 -229.5t-67 -216.5q0 -104 57 -169t153 -65q63 0 114.5 29t82 84t30.5 135zM1112 983q-83 0 -177.5 -44t-188.5 -123q202 -51 343 -51
q94 0 148 31.5t54 88.5q0 45 -48.5 71.5t-130.5 26.5z" />
  </g>

</svg>
