<?xml version="1.0" standalone="no"?>
<!DOCTYPE svg PUBLIC "-//W3C//DTD SVG 1.1//EN" "http://www.w3.org/Graphics/SVG/1.1/DTD/svg11.dtd" >
<svg xmlns="http://www.w3.org/2000/svg" xmlns:xlink="http://www.w3.org/1999/xlink" version="1.1" viewBox="-10 0 1404 2048">
  <g transform="matrix(1 0 0 -1 0 1638)">
   <path fill="currentColor"
d="M1294 1028q0 -160 -79 -298t-219 -219h256v-174h-1110v174h256q-140 81 -219 219.5t-79 297.5q0 160 80 298t218 218.5t299 80.5q160 0 298 -80t218.5 -218t80.5 -299zM785 478q130 22 238.5 102t169.5 198.5t61 249.5q0 148 -75.5 277.5t-205.5 204.5t-276 75
q-148 0 -277.5 -75.5t-204.5 -205.5t-75 -276q0 -132 61 -251t170 -198.5t238 -100.5v-7h-427v-94h1030v94h-427v7zM248 1028q0 120 60 224.5t165 164.5t224 60q120 0 224.5 -60t164.5 -165t60 -224q0 -120 -60 -224.5t-165 -164.5t-224 -60q-120 0 -224.5 60t-164.5 165
t-60 224zM287 1028q0 -109 55 -204.5t151 -150.5t204 -55q109 0 204.5 55t150.5 151t55 204q0 109 -55 204.5t-151 150.5t-204 55q-109 0 -204.5 -55t-150.5 -151t-55 -204z" />
  </g>

</svg>
