<?xml version="1.0" standalone="no"?>
<!DOCTYPE svg PUBLIC "-//W3C//DTD SVG 1.1//EN" "http://www.w3.org/Graphics/SVG/1.1/DTD/svg11.dtd" >
<svg xmlns="http://www.w3.org/2000/svg" xmlns:xlink="http://www.w3.org/1999/xlink" version="1.1" viewBox="-10 0 1214 2048">
  <g transform="matrix(1 0 0 -1 0 1638)">
   <path fill="currentColor"
d="M865 1473q0 -82 -45.5 -148t-117.5 -94q76 -31 119.5 -94t43.5 -143q0 -89 -68 -191l-170 -260l344 -521l-35 -28l-333 511l-333 -511l-35 28l343 521l-169 260q-68 102 -68 191q0 84 44.5 146.5t116.5 90.5q-75 31 -118 98t-43 145q0 35 7 63l-248 154q63 162 193.5 260
t308.5 98q177 0 308 -98t194 -260l-247 -153q8 -34 8 -65zM151 1707l210 -131q31 73 96 115t146 42q76 0 142 -42t98 -114l210 130q-60 139 -178.5 220.5t-272.5 81.5q-155 0 -273 -81.5t-178 -220.5zM603 580l165 248q57 86 57 166q0 84 -66 150t-156 66q-88 0 -155 -63
t-67 -153q0 -80 57 -166zM825 1474q0 87 -65 154t-157 67t-157 -65t-65 -155q0 -94 65.5 -159.5t156.5 -65.5t156.5 66.5t65.5 157.5z" />
  </g>

</svg>
