<?xml version="1.0" standalone="no"?>
<!DOCTYPE svg PUBLIC "-//W3C//DTD SVG 1.1//EN" "http://www.w3.org/Graphics/SVG/1.1/DTD/svg11.dtd" >
<svg xmlns="http://www.w3.org/2000/svg" xmlns:xlink="http://www.w3.org/1999/xlink" version="1.1" viewBox="-10 0 3182 2048">
  <g transform="matrix(1 0 0 -1 0 1638)">
   <path fill="currentColor"
d="M266 1133q34 -74 140 -74q58 0 102 48t44 113q0 70 -51 116t-128 46q-106 0 -169.5 -58.5t-63.5 -165.5q0 -83 33.5 -157.5t106.5 -167.5q135 -173 175 -408l-35 -6q-27 125 -68.5 217.5t-106.5 180.5q-57 77 -88 133.5t-44 100t-13 107.5q0 120 75.5 191t197.5 71
q98 0 158.5 -56t60.5 -144q0 -79 -55 -139t-131 -60q-128 0 -172 93zM886 1133q34 -74 140 -74q58 0 102 48t44 113q0 70 -51 116t-128 46q-106 0 -169.5 -58.5t-63.5 -165.5q0 -83 33.5 -157.5t106.5 -167.5q135 -173 175 -408l-35 -6q-27 125 -68.5 217.5t-106.5 180.5
q-57 77 -88 133.5t-44 100t-13 107.5q0 120 75.5 191t197.5 71q98 0 158.5 -56t60.5 -144q0 -79 -55 -139t-131 -60q-128 0 -172 93zM1506 1133q34 -74 140 -74q58 0 102 48t44 113q0 70 -51 116t-128 46q-106 0 -169.5 -58.5t-63.5 -165.5q0 -83 33.5 -157.5t106.5 -167.5
q135 -173 175 -408l-35 -6q-27 125 -68.5 217.5t-106.5 180.5q-57 77 -88 133.5t-44 100t-13 107.5q0 120 75.5 191t197.5 71q98 0 158.5 -56t60.5 -144q0 -79 -55 -139t-131 -60q-128 0 -172 93zM2126 1133q34 -74 140 -74q58 0 102 48t44 113q0 70 -51 116t-128 46
q-106 0 -169.5 -58.5t-63.5 -165.5q0 -83 33.5 -157.5t106.5 -167.5q135 -173 175 -408l-35 -6q-27 125 -68.5 217.5t-106.5 180.5q-57 77 -88 133.5t-44 100t-13 107.5q0 120 75.5 191t197.5 71q98 0 158.5 -56t60.5 -144q0 -79 -55 -139t-131 -60q-128 0 -172 93z
M2746 1133q34 -74 140 -74q58 0 102 48t44 113q0 70 -51 116t-128 46q-106 0 -169.5 -58.5t-63.5 -165.5q0 -83 33.5 -157.5t106.5 -167.5q135 -173 175 -408l-35 -6q-27 125 -68.5 217.5t-106.5 180.5q-57 77 -88 133.5t-44 100t-13 107.5q0 120 75.5 191t197.5 71
q98 0 158.5 -56t60.5 -144q0 -79 -55 -139t-131 -60q-128 0 -172 93z" />
  </g>

</svg>
