<?xml version="1.0" standalone="no"?>
<!DOCTYPE svg PUBLIC "-//W3C//DTD SVG 1.1//EN" "http://www.w3.org/Graphics/SVG/1.1/DTD/svg11.dtd" >
<svg xmlns="http://www.w3.org/2000/svg" xmlns:xlink="http://www.w3.org/1999/xlink" version="1.1" viewBox="-10 0 859 2048">
  <g transform="matrix(1 0 0 -1 0 1638)">
   <path fill="currentColor"
d="M425 2050q112 0 185 -61.5t73 -159.5q0 -43 -12 -89.5t-45 -113.5q-18 -35 -29.5 -57t-11.5 -41q0 -18 22.5 -45.5t73.5 -66.5t68 -47h-252q70 -140 70 -372q0 -198 -26.5 -452.5t-63.5 -448.5q-12 -62 -22.5 -84.5t-29.5 -22.5t-29.5 24.5t-22.5 82.5q-36 185 -63 443
t-27 458q0 234 69 372h-252q92 61 128.5 98.5t36.5 60.5q0 19 -11 41q-48 92 -60 123t-19.5 65t-7.5 72q0 99 73.5 160t184.5 61zM633 1409q-40 27 -64 59t-24 60t12 52t32 61q33 66 43.5 107.5t10.5 80.5q0 82 -61.5 131.5t-156.5 49.5t-156.5 -49.5t-61.5 -131.5
q0 -40 11 -82t43 -106q20 -37 32 -61t12 -52q0 -29 -24.5 -61t-63.5 -58h416zM527 997q0 104 -20 203.5t-56 168.5h-53q-34 -59 -54.5 -160.5t-20.5 -211.5q0 -173 25.5 -430t76.5 -538q50 274 76 532.5t26 435.5z" />
  </g>

</svg>
