<?xml version="1.0" standalone="no"?>
<!DOCTYPE svg PUBLIC "-//W3C//DTD SVG 1.1//EN" "http://www.w3.org/Graphics/SVG/1.1/DTD/svg11.dtd" >
<svg xmlns="http://www.w3.org/2000/svg" xmlns:xlink="http://www.w3.org/1999/xlink" version="1.1" viewBox="-10 0 1404 2048">
  <g transform="matrix(1 0 0 -1 0 1638)">
   <path fill="currentColor"
d="M100 1031q0 160 80 298t218 218.5t299 80.5q160 0 298 -80t218.5 -218t80.5 -299q0 -160 -80 -298t-218 -218.5t-299 -80.5q-160 0 -298 80t-218.5 218t-80.5 299zM140 1031q0 -143 69.5 -269t194.5 -205l91 362h404l91 -362q125 79 194.5 205t69.5 269q0 148 -75 278
t-205 204.5t-277 74.5q-148 0 -278 -75t-204.5 -205t-74.5 -277zM697 474q134 0 256 63l-85 342h-342l-86 -342q122 -63 257 -63z" />
  </g>

</svg>
