<?xml version="1.0" standalone="no"?>
<!DOCTYPE svg PUBLIC "-//W3C//DTD SVG 1.1//EN" "http://www.w3.org/Graphics/SVG/1.1/DTD/svg11.dtd" >
<svg xmlns="http://www.w3.org/2000/svg" xmlns:xlink="http://www.w3.org/1999/xlink" version="1.1" viewBox="-10 0 1112 2048">
  <g transform="matrix(1 0 0 -1 0 1638)">
   <path fill="currentColor"
d="M290 1498h17q-99 189 -136 283.5t-37 136.5q0 58 34 95t89 37q59 0 85 -36v27h452v-28q27 37 85 37q55 0 89 -37t34 -95q0 -47 -48.5 -163t-125.5 -257h18v-104h-6q-34 0 -52 -28l-33 -55q21 -18 39 -42q48 21 82 21q39 0 39 -33q0 -53 -30 -83.5t-86 -33.5
q-24 -94 -70 -169.5t-111 -106.5l48 -733q0 -61 -27 -96t-73 -35t-73 34.5t-27 96.5l47 735q-59 28 -107.5 104t-68.5 170q-56 4 -86 34t-30 83q0 33 38 33q34 0 83 -21q12 18 39 42l-32 55q-18 28 -53 28h-6v104zM568 887q44 0 88.5 46t76.5 117.5t36 130.5l16 -1
q87 0 87 65q0 3 -5 3q-19 0 -86 -32q-38 57 -95.5 91.5t-117.5 34.5q-61 0 -118.5 -34.5t-94.5 -91.5q-69 32 -86 32q-5 0 -5 -3q0 -65 87 -65l16 1q4 -57 38 -129.5t78.5 -118.5t84.5 -46zM579 848h-27l-46 -722q0 -86 60 -86q61 0 61 86zM457 1498h221l-39 320h-142z
M740 1874l44 -374q9 18 26 50.5t36.5 72.5t40 84t37.5 84.5t27.5 74t10.5 52.5q0 40 -23 66t-60 26q-31 0 -46.5 -15t-15.5 -38q0 -26 11 -39t25 -13q27 0 27 26v8h40v-8q0 -30 -19 -48t-48 -18q-31 0 -53.5 23t-22.5 69v5q-10 -10 -22 -29q8 -1 9.5 -4t1.5 -14v-23
q0 -14 -4 -16t-16 -2h-6zM174 1918q0 -40 48 -152.5t129 -266.5l44 375h-5q-12 0 -16 2t-4 16v23q0 11 1 14t9 4l-21 29v-5q0 -46 -22.5 -69t-53.5 -23q-30 0 -48.5 18t-18.5 48v8h40v-8q0 -26 27 -26q14 0 25 13t11 39q0 24 -16 38.5t-46 14.5q-37 0 -60 -26t-23 -66z
M570 1050q22 0 22 15q0 12 -9 31t-9 45t27 47.5t62 21.5q37 0 53.5 -13.5t16.5 -26.5t-18.5 -21.5t-49.5 -8.5h-25l-16 1l-11 1q15 -31 23 -59t8 -40t-24 -22.5t-50 -10.5q-25 0 -49.5 10.5t-24.5 22.5t8 40.5t23 58.5l-27 -2h-25q-31 0 -49.5 8.5t-18.5 21.5t16.5 26.5
t53.5 13.5q36 0 62.5 -21.5t26.5 -47.5t-9 -45t-9 -31q0 -15 22 -15zM675 1858l43 -360h26l-45 376h-264l-43 -376h24l45 360h214zM380 1998q28 -24 45 -65h284q20 42 47 65v3h-376v-3zM330 1434h476v24h-476v-24zM568 1382q83 0 155 -47l33 59h-377l34 -59q72 47 155 47z
M511 994q26 -13 59 -13t59 13l18 -32q-30 -21 -77 -21t-77 21z" />
  </g>

</svg>
