<?xml version="1.0" standalone="no"?>
<!DOCTYPE svg PUBLIC "-//W3C//DTD SVG 1.1//EN" "http://www.w3.org/Graphics/SVG/1.1/DTD/svg11.dtd" >
<svg xmlns="http://www.w3.org/2000/svg" xmlns:xlink="http://www.w3.org/1999/xlink" version="1.1" viewBox="-10 0 1090 2048">
  <g transform="matrix(1 0 0 -1 0 1638)">
   <path fill="currentColor"
d="M980 383h-489q-192 0 -291.5 111t-99.5 318q0 206 99.5 317.5t291.5 111.5h489v-40h-489q-110 0 -189 -42.5t-120.5 -132.5t-41.5 -214q0 -125 42 -214.5t120.5 -132t188.5 -42.5h489v-40zM980 473h-475q-147 0 -224.5 87t-77.5 252q0 164 77 251.5t225 87.5h475v-40
h-475q-125 0 -193.5 -75t-68.5 -224t68.5 -224t193.5 -75h475v-40z" />
  </g>

</svg>
