<?xml version="1.0" standalone="no"?>
<!DOCTYPE svg PUBLIC "-//W3C//DTD SVG 1.1//EN" "http://www.w3.org/Graphics/SVG/1.1/DTD/svg11.dtd" >
<svg xmlns="http://www.w3.org/2000/svg" xmlns:xlink="http://www.w3.org/1999/xlink" version="1.1" viewBox="-10 0 1621 2048">
  <g transform="matrix(1 0 0 -1 0 1638)">
   <path fill="currentColor"
d="M1420 769q0 -49 -70 -84q44 -82 80 -169.5t58 -169.5t22 -113q0 -24 -33.5 -40.5t-76.5 -16.5l-27 2q-65 175 -140 302.5t-159 202t-215 120.5t-377 64q-149 11 -226 32.5t-116.5 67.5t-39.5 114q0 63 53 116t119 53q53 0 84.5 -37t35.5 -90l3 -39q56 17 160 31.5
t185 14.5q117 0 230.5 -30.5t213 -87.5t168 -128t68.5 -115zM267 1210q-45 0 -86 -41t-41 -88q0 -56 37 -92.5t106 -53.5t198 -28l105 -10q247 -25 385.5 -95.5t246 -217t182.5 -367.5h7q19 0 38.5 9t19.5 14q0 45 -38.5 160.5t-91 223.5t-103.5 159.5t-135.5 91.5
t-192 58.5t-258.5 18.5q-242 0 -277 84q-4 10 -11 65q-15 109 -91 109zM740 1090q-143 0 -325 -42q0 -14 26 -26.5t77.5 -21t132.5 -8.5q494 0 649 -226l30 -47q50 26 50 50q0 35 -63.5 97.5t-152 111.5t-196 80.5t-228.5 31.5z" />
  </g>

</svg>
