<?xml version="1.0" standalone="no"?>
<!DOCTYPE svg PUBLIC "-//W3C//DTD SVG 1.1//EN" "http://www.w3.org/Graphics/SVG/1.1/DTD/svg11.dtd" >
<svg xmlns="http://www.w3.org/2000/svg" xmlns:xlink="http://www.w3.org/1999/xlink" version="1.1" viewBox="-10 0 1072 2048">
  <g transform="matrix(1 0 0 -1 0 1638)">
   <path fill="currentColor"
d="M717 1513q-51 -22 -51 -90q0 -35 24 -74.5t97 -112.5q87 -90 114.5 -130.5t44 -85t16.5 -98.5q0 -90 -52 -250.5t-132 -332.5h-494q-83 180 -133.5 338t-50.5 245q0 53 16.5 98.5t45 87t113.5 128.5q74 74 97.5 113t23.5 74q0 33 -14.5 57t-37.5 33h-32q-24 0 -41 16.5
t-17 45.5t17 45.5t41 16.5h438q24 0 41 -16.5t17 -45.5t-17 -45.5t-41 -16.5h-33zM922 922q0 45 -18 94h-746q-18 -44 -18 -94q0 -78 46.5 -225.5t122.5 -317.5h444q79 179 124 325t45 218zM626 1423q0 57 28 90h-247q29 -31 29 -90q0 -42 -25.5 -87.5t-107.5 -127.5
q-93 -93 -126 -152h708q-24 43 -58 80t-68 72q-82 82 -107.5 127.5t-25.5 87.5zM750 1553q18 0 18 22t-18 22h-438q-18 0 -18 -22t18 -22h438z" />
  </g>

</svg>
