<?xml version="1.0" standalone="no"?>
<!DOCTYPE svg PUBLIC "-//W3C//DTD SVG 1.1//EN" "http://www.w3.org/Graphics/SVG/1.1/DTD/svg11.dtd" >
<svg xmlns="http://www.w3.org/2000/svg" xmlns:xlink="http://www.w3.org/1999/xlink" version="1.1" viewBox="-10 0 914 2048">
  <g transform="matrix(1 0 0 -1 0 1638)">
   <path fill="currentColor"
d="M452 2050q138 0 230.5 -72.5t121.5 -192.5l-31 11q-119 43 -165 43q-32 0 -51.5 -17.5t-19.5 -52.5q0 -27 18.5 -99.5t38.5 -128.5h11q61 0 96 -29t35 -82q0 -39 -15.5 -114.5t-53.5 -227.5l-47 -199q-15 -68 -29 -186.5t-22.5 -277.5t-8.5 -221q0 -232 -107 -232
t-107 232q0 50 -8 206t-22.5 284t-29.5 197l-46 198q-44 176 -57 243.5t-13 102.5q0 106 132 106h7q16 46 37 120.5t21 107.5q0 35 -19.5 52.5t-51.5 17.5q-46 0 -165 -43l-31 -11q29 121 122 193t230 72zM302 1501q-42 0 -66.5 -20.5t-24.5 -59.5q0 -26 43 -212l70 -305
q28 -130 45 -373.5t17 -320.5q0 -90 18 -144t49 -54q30 0 48.5 53t18.5 145q0 76 16.5 316t45.5 376l46 200q67 292 67 322q0 39 -24.5 58t-65.5 19h-303zM407 1769q0 -22 -9 -64t-46 -164h199q-54 180 -54 228q0 50 30.5 80t80.5 30q39 0 129 -29q-40 80 -114.5 120
t-170.5 40t-170.5 -40t-114.5 -120q90 29 129 29q49 0 80 -30t31 -80z" />
  </g>

</svg>
