<?xml version="1.0" standalone="no"?>
<!DOCTYPE svg PUBLIC "-//W3C//DTD SVG 1.1//EN" "http://www.w3.org/Graphics/SVG/1.1/DTD/svg11.dtd" >
<svg xmlns="http://www.w3.org/2000/svg" xmlns:xlink="http://www.w3.org/1999/xlink" version="1.1" viewBox="-10 0 1410 2048">
  <g transform="matrix(1 0 0 -1 0 1638)">
   <path fill="currentColor"
d="M545 1430l-445 475l176 145l526 -609q19 72 78.5 139t137 109.5t139.5 42.5q58 0 100.5 -36t42.5 -94q0 -121 -102 -194.5t-290 -88.5q8 -65 43 -255.5t67 -353.5l-184 -3v-776h-289v1499zM585 -29h209v1344h-209v-1344zM158 1902l443 -472h157l-486 564zM1227 1583
q0 -43 -40 -85.5t-113 -71t-173 -34.5v-6l2 -27q172 14 264.5 78t92.5 165q0 40 -30.5 65t-72.5 25q-68 0 -149 -52t-127.5 -122t-46.5 -141v-630l134 3q-44 222 -75.5 408t-31.5 228q0 50 49.5 118.5t115.5 111t126 42.5q75 0 75 -75zM1147 1618q-63 0 -133.5 -56.5
t-101.5 -128.5q93 7 152 30.5t91 56t32 63.5q0 35 -40 35zM794 1390h-209v-35h209v35z" />
  </g>

</svg>
