<?xml version="1.0" standalone="no"?>
<!DOCTYPE svg PUBLIC "-//W3C//DTD SVG 1.1//EN" "http://www.w3.org/Graphics/SVG/1.1/DTD/svg11.dtd" >
<svg xmlns="http://www.w3.org/2000/svg" xmlns:xlink="http://www.w3.org/1999/xlink" version="1.1" viewBox="-10 0 855 2048">
  <g transform="matrix(1 0 0 -1 0 1638)">
   <path fill="currentColor"
d="M131 1692l292 -384l291 384l31 -25l-297 -393q123 -161 167.5 -247t73 -180.5t28.5 -181.5q0 -193 -75.5 -290t-218.5 -97q-139 0 -216.5 101t-77.5 286q0 83 22.5 162t53 145t71 130.5t121.5 171.5l-297 393zM423 1239l-43 -58q-98 -126 -154.5 -264t-56.5 -252
q0 -164 66 -255.5t188 -91.5q124 0 189 91t65 256q0 104 -47.5 229t-136.5 252z" />
  </g>

</svg>
