<?xml version="1.0" standalone="no"?>
<!DOCTYPE svg PUBLIC "-//W3C//DTD SVG 1.1//EN" "http://www.w3.org/Graphics/SVG/1.1/DTD/svg11.dtd" >
<svg xmlns="http://www.w3.org/2000/svg" xmlns:xlink="http://www.w3.org/1999/xlink" version="1.1" viewBox="-10 0 2743 2048">
  <g transform="matrix(1 0 0 -1 0 1638)">
   <path fill="currentColor"
d="M347 1121h1207v-307h-1454zM184 854h1330v227h-1147zM1941 1714q79 0 171 -22q-23 -92 -23 -191q0 -119 90 -173.5t313 -54.5q82 0 111.5 -13.5t29.5 -55.5q0 -54 -92.5 -174.5t-245 -239.5t-347 -221t-369.5 -156q-657 -204 -1188 -204q-154 0 -207 18t-53 59
q0 34 30 52.5t106 18.5q131 0 314 32.5t387.5 92.5t367.5 123.5t324 157t248.5 175.5t87.5 141q0 36 -22 65t-65 51.5t-98.5 36t-75.5 13.5q54 140 54 256q0 90 -19 189q82 24 171 24zM1941 1674q-64 0 -123 -13q11 -73 11 -160q0 -91 -42 -228q117 -22 183 -73t66 -121
q0 -114 -211 -262.5t-492.5 -255t-571 -175.5t-485.5 -69q-59 0 -82 -6.5t-23 -25.5q0 -36 220 -36q326 0 740.5 88t670 204t463.5 277t298 316q30 49 30 70q0 16 -19.5 22.5t-81.5 6.5q-247 0 -345 64t-98 204q0 58 15 159q-63 14 -123 14z" />
  </g>

</svg>
