<?xml version="1.0" standalone="no"?>
<!DOCTYPE svg PUBLIC "-//W3C//DTD SVG 1.1//EN" "http://www.w3.org/Graphics/SVG/1.1/DTD/svg11.dtd" >
<svg xmlns="http://www.w3.org/2000/svg" xmlns:xlink="http://www.w3.org/1999/xlink" version="1.1" viewBox="-719 0 2348 2048">
  <g transform="matrix(1 0 0 -1 0 1638)">
   <path fill="currentColor"
d="M1443 934h-753l1 -15q0 -79 -65 -178l-152 -233l322 -486l-40 -28l-308 473l-308 -473l-40 28l321 486l-151 233q-65 100 -65 179v14h-168l-236 -70h-203l-202 95l-105 114l69 59l164 -95q25 -15 76.5 -25.5t91.5 -10.5q90 0 142 23l-6 23q-16 -3 -66 -6t-65 -3
q-83 0 -147 55l39 76q22 -7 48 -16.5t49 -9.5q45 0 89 9.5t73 14.5l170 -72l329 48q-62 27 -102 86t-40 136t40.5 136t106.5 85q-66 28 -106.5 87.5t-40.5 136.5q0 101 70 170.5t173 69.5q100 0 171.5 -71t71.5 -170q0 -78 -41.5 -137.5t-107.5 -86.5q66 -28 107.5 -87
t41.5 -134q0 -110 -81 -182l15 2h462l51 607h256zM1403 969l-49 787h-178l-48 -607h-505l-611 -92l-165 75l-32 -6q-86 -18 -134 -18q-17 0 -75 17l-10 -21q39 -31 103 -31l151 8q13 -29 24 -75q-34 -19 -85 -29.5t-102 -10.5q-113 0 -197 51l-132 80l-25 -21l89 -93
l186 -84h189l232 70h1374zM651 1810q0 81 -61.5 141.5t-141.5 60.5q-83 0 -143 -60.5t-60 -140.5q0 -86 62 -146t149 -60q77 2 136 62t59 143zM651 1365q0 81 -61.5 141.5t-141.5 60.5q-86 0 -144.5 -60.5t-58.5 -140.5q0 -84 62 -145t156 -61q80 0 134 61.5t54 143.5z
M651 920v7l-1 7h-405v-13q0 -43 15.5 -78t40.5 -73l147 -222l142 214q23 35 42 73.5t19 84.5z" />
  </g>

</svg>
