<?xml version="1.0" standalone="no"?>
<!DOCTYPE svg PUBLIC "-//W3C//DTD SVG 1.1//EN" "http://www.w3.org/Graphics/SVG/1.1/DTD/svg11.dtd" >
<svg xmlns="http://www.w3.org/2000/svg" xmlns:xlink="http://www.w3.org/1999/xlink" version="1.1" viewBox="-10 0 1156 2048">
  <g transform="matrix(1 0 0 -1 0 1638)">
   <path fill="currentColor"
d="M100 17q162 274 450 787l-145 257q-84 148 -122.5 269.5t-38.5 242.5q0 222 87.5 349.5t241.5 127.5t241.5 -127.5t87.5 -349.5q0 -119 -37 -237.5t-117.5 -263t-152.5 -268.5q351 -619 451 -787l-34 -20q-116 193 -223 384t-216 383q-109 -192 -216.5 -383t-222.5 -384z
M573 2010q-137 0 -213 -118t-76 -319q0 -59 9 -115t30 -121.5t57 -142t193 -350.5l32 56q135 235 173.5 323t61 173t22.5 177q0 201 -76.5 319t-212.5 118zM340 1712q8 101 72 163t164 62q74 0 120.5 -28.5t72.5 -66t35 -73t9 -53.5v-4h-473zM766 1752q-19 68 -70 106.5
t-120 38.5t-119 -37.5t-70 -107.5h379z" />
  </g>

</svg>
