<?xml version="1.0" standalone="no"?>
<!DOCTYPE svg PUBLIC "-//W3C//DTD SVG 1.1//EN" "http://www.w3.org/Graphics/SVG/1.1/DTD/svg11.dtd" >
<svg xmlns="http://www.w3.org/2000/svg" xmlns:xlink="http://www.w3.org/1999/xlink" version="1.1" viewBox="-10 0 1954 2048">
  <g transform="matrix(1 0 0 -1 0 1638)">
   <path fill="currentColor"
d="M100 1251q0 60 37 101.5t98 41.5q33 0 57.5 -6.5t44.5 -14t36 -14t32 -6.5q40 0 89 12t112 27t142 27t177 12q284 0 486 -82l268 63l32 -40l-8 -45q-79 -44 -143 -64q152 -123 152 -324q0 -60 -10 -161q-10 -102 -10 -135q0 -74 47.5 -202t104.5 -242l-77 -50
q-89 111 -148.5 260.5t-59.5 274.5l4 164q0 106 -22.5 165t-71.5 101t-129 68q-116 -45 -236 -76.5t-246 -31.5q-80 0 -140.5 9t-111 19.5t-97 19.5t-98.5 9q-23 0 -79 -15q-57 -15 -97 -15q-59 0 -97 43.5t-38 106.5zM140 1251q0 -45 26.5 -77.5t68.5 -32.5q35 0 92 15
q56 15 84 15q54 0 99 -9t94.5 -19.5t110 -19.5t143.5 -9q88 0 187.5 20t294.5 88q98 -32 156.5 -81.5t82 -117.5t23.5 -180l-3 -159q0 -209 176 -483l17 11q-140 298 -140 431l3 58q15 172 15 231q0 139 -85 241.5t-261 160t-397 57.5q-97 0 -175.5 -12t-142 -27t-113.5 -27
t-91 -12q-20 0 -36 6.5t-34 14t-41 14t-59 6.5q-42 0 -68.5 -30.5t-26.5 -72.5zM1469 1321l49 -28q68 15 150 59l-2 16z" />
  </g>

</svg>
