<?xml version="1.0" standalone="no"?>
<!DOCTYPE svg PUBLIC "-//W3C//DTD SVG 1.1//EN" "http://www.w3.org/Graphics/SVG/1.1/DTD/svg11.dtd" >
<svg xmlns="http://www.w3.org/2000/svg" xmlns:xlink="http://www.w3.org/1999/xlink" version="1.1" viewBox="-10 0 1650 2048">
  <g transform="matrix(1 0 0 -1 0 1638)">
   <path fill="currentColor"
d="M820 2050q63 0 115 -28t93.5 -86t59.5 -122h344q49 0 78.5 -24.5t29.5 -67.5t-16.5 -69t-38 -45t-42.5 -35t-29 -38q-56 -93 -124 -307q-39 -127 -85.5 -391t-46.5 -408q0 -201 12 -225q62 -66 62 -117q0 -49 -27 -68t-102 -19h-566q-75 0 -102 19t-27 68q0 26 17.5 58
t44.5 59q12 48 12 225q0 142 -46 406t-86 393q-68 214 -124 307q-8 22 -29 38t-42.5 35t-38 45t-16.5 69t29.5 67.5t78.5 24.5h344q19 65 60 122.5t93 85.5t115 28zM1109 40q47 0 62 12t15 35q0 32 -47 87q-21 51 -21 255q0 131 43 388.5t100 454.5h-883q49 -151 96.5 -427
t47.5 -416q0 -92 -6.5 -162t-14.5 -93q-47 -51 -47 -87q0 -23 15 -35t62 -12h578zM1468 1646h-628v-334h435q53 160 118 259q14 20 35 37.5t40 37.5zM365 1312h435v334h-628q18 -20 39.5 -37.5t35.5 -37.5q52 -80 118 -259zM208 1774q-68 0 -68 -52q0 -20 6 -36h1347
q7 19 7 36q0 52 -68 52h-1224zM820 2010q-146 0 -224 -196h448q-40 100 -98 148t-126 48z" />
  </g>

</svg>
