<?xml version="1.0" standalone="no"?>
<!DOCTYPE svg PUBLIC "-//W3C//DTD SVG 1.1//EN" "http://www.w3.org/Graphics/SVG/1.1/DTD/svg11.dtd" >
<svg xmlns="http://www.w3.org/2000/svg" xmlns:xlink="http://www.w3.org/1999/xlink" version="1.1" viewBox="-10 0 2362 2048">
  <g transform="matrix(1 0 0 -1 0 1638)">
   <path fill="currentColor"
d="M2252 780h-1042v-108l198 -270h275v-839l-491 369l-491 -369l-1 839h271l199 270v108h-324l-236 -70h-203l-202 95l-105 114l69 59l164 -95q25 -15 76.5 -25.5t91.5 -10.5q90 0 142 23l-6 23q-16 -3 -66 -6t-65 -3q-83 0 -147 55l39 76q22 -7 48 -16.5t49 -9.5
q45 0 89 9.5t73 14.5l170 -72l343 50v1059h40v-1053l224 33h462l51 607h256zM1643 -357v719h-903l1 -719l451 338zM1210 961v-146h1002l-49 787h-178l-48 -607h-505zM1170 815v140l-349 -52l-165 75l-32 -6q-85 -18 -134 -18q-17 0 -75 17l-10 -21q39 -31 103 -31l151 8
q13 -29 24 -75q-34 -19 -85 -29.5t-102 -10.5q-113 0 -197 51l-132 80l-25 -21l89 -93l186 -84h189l232 70h332zM1021 402h337l-168 230z" />
  </g>

</svg>
