<?xml version="1.0" standalone="no"?>
<!DOCTYPE svg PUBLIC "-//W3C//DTD SVG 1.1//EN" "http://www.w3.org/Graphics/SVG/1.1/DTD/svg11.dtd" >
<svg xmlns="http://www.w3.org/2000/svg" xmlns:xlink="http://www.w3.org/1999/xlink" version="1.1" viewBox="-10 0 2449 2048">
  <g transform="matrix(1 0 0 -1 0 1638)">
   <path fill="currentColor"
d="M1249 1303l209 374q-33 35 -33 98q0 103 69.5 189t157.5 86q48 0 75.5 -34.5t27.5 -91.5q0 -103 -69.5 -189t-157.5 -86q-21 0 -37 6l-197 -352h1045v-1177h-322v-450h-1598l-1 450h-317l-1 1177h1149zM1977 912h-1519v-746h1519v746zM2299 166v1097h-2158v-1097h277v786
h1599v-786h282zM1977 -284v410h-1519v-410h1519zM1536 1689q39 0 80 32.5t70 88t29 114.5q0 39 -18 62.5t-53 23.5q-39 0 -80 -32.5t-70 -88t-29 -114.5q0 -39 18 -62.5t53 -23.5z" />
  </g>

</svg>
