<?xml version="1.0" standalone="no"?>
<!DOCTYPE svg PUBLIC "-//W3C//DTD SVG 1.1//EN" "http://www.w3.org/Graphics/SVG/1.1/DTD/svg11.dtd" >
<svg xmlns="http://www.w3.org/2000/svg" xmlns:xlink="http://www.w3.org/1999/xlink" version="1.1" viewBox="-10 0 2622 2048">
  <g transform="matrix(1 0 0 -1 0 1638)">
   <path fill="currentColor"
d="M2499 199q-168 -86 -457 -141.5t-656 -55.5q-313 0 -700 48t-586 106q44 60 83.5 83.5t109.5 33.5t275 10h239q322 0 532 35.5t395.5 105t372.5 179.5t379 267l26 -30q-195 -160 -387.5 -273t-384 -184t-402 -105.5t-531.5 -34.5h-239q-229 0 -292.5 -12.5t-99.5 -52.5
q218 -56 567 -96t643 -40q348 0 636 52t457 139z" />
  </g>

</svg>
