<?xml version="1.0" standalone="no"?>
<!DOCTYPE svg PUBLIC "-//W3C//DTD SVG 1.1//EN" "http://www.w3.org/Graphics/SVG/1.1/DTD/svg11.dtd" >
<svg xmlns="http://www.w3.org/2000/svg" xmlns:xlink="http://www.w3.org/1999/xlink" version="1.1" viewBox="-10 0 3081 2048">
  <g transform="matrix(1 0 0 -1 0 1638)">
   <path fill="currentColor"
d="M100 65v40h851v-40h-851zM100 745v40h851v-40h-851zM100 405v40h851v-40h-851zM1110 65v40h851v-40h-851zM1110 745v40h851v-40h-851zM1110 405v40h851v-40h-851zM2120 65v40h851v-40h-851zM2120 745v40h851v-40h-851zM2120 405v40h851v-40h-851z" />
  </g>

</svg>
