<?xml version="1.0" standalone="no"?>
<!DOCTYPE svg PUBLIC "-//W3C//DTD SVG 1.1//EN" "http://www.w3.org/Graphics/SVG/1.1/DTD/svg11.dtd" >
<svg xmlns="http://www.w3.org/2000/svg" xmlns:xlink="http://www.w3.org/1999/xlink" version="1.1" viewBox="-10 0 1075 2048">
  <g transform="matrix(1 0 0 -1 0 1638)">
   <path fill="currentColor"
d="M753 891q-148 5 -266.5 72.5t-203 190.5t-134 300t-49.5 356q0 110 28 175t78 65q36 0 55.5 -26t19.5 -96l-6 -133q0 -161 67.5 -321t174.5 -244t239 -86l14 906h159l36 -2446h-231zM774 -356h151l-36 2366h-79zM140 1810q0 -236 80 -445.5t216.5 -318.5t316.5 -115
l3 173q-144 2 -260.5 90.5t-188.5 257t-72 343.5l3 66l4 89q0 60 -36 60q-32 0 -49 -55.5t-17 -144.5z" />
  </g>

</svg>
