<?xml version="1.0" standalone="no"?>
<!DOCTYPE svg PUBLIC "-//W3C//DTD SVG 1.1//EN" "http://www.w3.org/Graphics/SVG/1.1/DTD/svg11.dtd" >
<svg xmlns="http://www.w3.org/2000/svg" xmlns:xlink="http://www.w3.org/1999/xlink" version="1.1" viewBox="-10 0 2623 2048">
  <g transform="matrix(1 0 0 -1 0 1638)">
   <path fill="currentColor"
d="M1652 1273q48 0 75.5 -34.5t27.5 -91.5q0 -103 -69.5 -189t-157.5 -86q-21 0 -37 6l-189 -337h1211v-561h-2412l-1 561h1157l201 359q-33 35 -33 98q0 103 69.5 189t157.5 86zM2473 20v481h-2333l1 -481h2332zM1536 912q39 0 80 32.5t70 88t29 114.5q0 39 -18 62.5
t-53 23.5q-39 0 -80 -32.5t-70 -88t-29 -114.5q0 -39 18 -62.5t53 -23.5z" />
  </g>

</svg>
