<?xml version="1.0" standalone="no"?>
<!DOCTYPE svg PUBLIC "-//W3C//DTD SVG 1.1//EN" "http://www.w3.org/Graphics/SVG/1.1/DTD/svg11.dtd" >
<svg xmlns="http://www.w3.org/2000/svg" xmlns:xlink="http://www.w3.org/1999/xlink" version="1.1" viewBox="-10 0 1088 2048">
  <g transform="matrix(1 0 0 -1 0 1638)">
   <path fill="currentColor"
d="M539 2050q63 0 156.5 -159.5t159.5 -379t94.5 -396.5t28.5 -347q0 -413 -185 -563q27 -31 51.5 -72t24.5 -59q0 -74 -94 -74h-484q-94 0 -94 74q0 20 27 63.5t53 74.5q-88 74 -132.5 216.5t-44.5 339.5q0 168 28.5 345.5t94.5 397t159.5 379.5t156.5 160zM539 169
q88 0 144.5 21.5t95.5 56.5t68.5 85.5t48 107.5t29.5 135l-754 549q-31 -181 -31 -356q0 -151 23.5 -254.5t60.5 -170.5t84.5 -103.5t98.5 -53.5t132 -17zM217 1342l720 -523q-7 251 -75 520.5t-165.5 468t-157.5 198.5q-59 0 -155 -194.5t-167 -469.5zM206 1300l-28 -132
l753 -548q7 79 7 148v1zM237 74q0 -34 54 -34h484q54 0 54 34q0 18 -68 109q-41 -26 -93 -40t-129 -14q-80 0 -133.5 15t-96.5 44q-2 -3 -13.5 -17.5t-24.5 -33t-23.5 -36.5t-10.5 -27z" />
  </g>

</svg>
