<?xml version="1.0" standalone="no"?>
<!DOCTYPE svg PUBLIC "-//W3C//DTD SVG 1.1//EN" "http://www.w3.org/Graphics/SVG/1.1/DTD/svg11.dtd" >
<svg xmlns="http://www.w3.org/2000/svg" xmlns:xlink="http://www.w3.org/1999/xlink" version="1.1" viewBox="-10 0 2500 2048">
  <g transform="matrix(1 0 0 -1 0 1638)">
   <path fill="currentColor"
d="M328 1543l15 -81l13 1h421l15 80l39 -8l-13 -72h854l-13 72l39 8l14 -80h422l13 -1l15 81l39 -8l-14 -77q105 -19 154 -94t49 -200q0 -298 -267 -298h-44l-130 -714h-38l-130 714h-1072l-130 -714h-38l-130 714h-44q-267 0 -267 298q0 125 48.5 199.5t154.5 94.5l-14 77z
M716 906h1057l-94 517h-869zM1814 906h231l95 517h-420zM445 906h230l95 517h-420zM2350 1164q0 224 -170 254l-94 -512h37q227 0 227 258zM403 906l-93 512q-170 -30 -170 -254q0 -258 227 -258h36zM560 275l108 591h-216zM1930 275l108 591h-216z" />
  </g>

</svg>
