<?xml version="1.0" standalone="no"?>
<!DOCTYPE svg PUBLIC "-//W3C//DTD SVG 1.1//EN" "http://www.w3.org/Graphics/SVG/1.1/DTD/svg11.dtd" >
<svg xmlns="http://www.w3.org/2000/svg" xmlns:xlink="http://www.w3.org/1999/xlink" version="1.1" viewBox="-10 0 2801 2048">
  <g transform="matrix(1 0 0 -1 0 1638)">
   <path fill="currentColor"
d="M1437 542q-58 -16 -185 -112.5t-383 -327.5q-90 -81 -124 -105q-27 43 -53.5 73.5t-40.5 30.5q-21 0 -67 -24.5t-95 -61.5l-388 13v8q0 53 27 101t76 79.5t125 31.5q60 0 111 -14q49 -13 113 -13q112 0 214.5 49t215.5 143t243 236.5t349.5 422.5t355.5 478
q102 147 156 201q77 77 171 139.5t189.5 101t149.5 38.5q94 0 94 -303q0 -71 -5 -126.5t-21 -108.5q-33 -68 -276.5 -314.5t-520.5 -492.5t-384 -305zM1507 449q65 34 316 254.5t518 484t286 318.5q15 45 19.5 94.5t4.5 126.5q0 263 -54 263q-52 0 -138 -35t-178.5 -97
t-165.5 -135q-52 -52 -152 -195q-65 -92 -183 -253.5t-277.5 -360.5t-292 -338.5t-241 -225.5t-206.5 -127.5t-210 -41.5q-65 0 -123 15q-46 12 -101 12q-53 0 -92 -20.5t-63 -54t-26 -64.5l332 -12q120 84 171 84q33 0 105 -87l182 164q180 163 319.5 264t208.5 109z" />
  </g>

</svg>
