<?xml version="1.0" standalone="no"?>
<!DOCTYPE svg PUBLIC "-//W3C//DTD SVG 1.1//EN" "http://www.w3.org/Graphics/SVG/1.1/DTD/svg11.dtd" >
<svg xmlns="http://www.w3.org/2000/svg" xmlns:xlink="http://www.w3.org/1999/xlink" version="1.1" viewBox="-10 0 1980 2048">
  <g transform="matrix(1 0 0 -1 0 1638)">
   <path fill="currentColor"
d="M100 234v100q0 169 82.5 324.5t211 238.5t280.5 83q32 0 52 -5q125 119 320 119q209 0 416 -134q20 31 57.5 49.5t85.5 18.5q87 0 153 -65.5t66 -155.5q0 -102 -70 -150q116 -192 116 -388q-2 -200 -128 -325.5t-327 -125.5q-213 0 -415 134q-49 -68 -143 -68
q-87 0 -153 65.5t-66 155.5q0 102 70 150q-116 193 -116 384q0 176 101 300l-27 2q-141 0 -260 -83t-192.5 -232t-73.5 -310v-82h-40zM632 639q0 -135 64.5 -277.5t181.5 -259t259.5 -181t276.5 -64.5q65 0 146.5 21t154.5 94t94 155t21 146q0 135 -64.5 277.5t-181.5 259
t-259.5 181t-276.5 64.5q-65 0 -146.5 -21t-154.5 -94t-94 -155t-21 -146zM1730 695q25 11 40 42t15 67q0 75 -56 129.5t-124 54.5q-36 0 -65 -13.5t-42 -39.5q53 -39 109.5 -92.5t122.5 -147.5zM732 217q-24 -10 -39.5 -40t-15.5 -69q0 -75 56 -129.5t124 -54.5
q36 0 65 13.5t42 39.5q-53 39 -109.5 92.5t-122.5 147.5z" />
  </g>

</svg>
