<?xml version="1.0" standalone="no"?>
<!DOCTYPE svg PUBLIC "-//W3C//DTD SVG 1.1//EN" "http://www.w3.org/Graphics/SVG/1.1/DTD/svg11.dtd" >
<svg xmlns="http://www.w3.org/2000/svg" xmlns:xlink="http://www.w3.org/1999/xlink" version="1.1" viewBox="-10 0 2559 2048">
  <g transform="matrix(1 0 0 -1 0 1638)">
   <path fill="currentColor"
d="M2449 756v-147l-222 1v-234h222v-147l-1710 4v-30q0 -95 -22 -162t-65 -102.5t-98 -35.5q-65 0 -105.5 47t-40.5 127q0 66 37 170q-73 18 -131.5 61.5t-146.5 156.5l-67 89l118 92l66 -89q66 -91 111.5 -127t105.5 -47q58 122 127 237q-87 13 -157.5 64t-153.5 161
l-67 89l118 92l66 -89q82 -112 140.5 -146.5t161.5 -34.5h1713zM1247 376h770v234l-770 2v-236zM724 716q-47 0 -83.5 7.5t-70 24.5t-66 46t-148.5 177l-51 -42l44 -59q98 -132 175.5 -174t193.5 -42l1691 -5v67h-1685zM737 336l1 -63l1671 -4v67h-1672zM720 614
q10 -99 15 -238h302v237zM484 239q-36 -95 -36 -162q0 -61 30 -97.5t76 -36.5q42 0 76.5 31.5t51.5 90t17 138.5v30q-84 1 -136 1t-79 5zM1077 376h130v236l-130 1v-237zM2057 376h130v234h-130v-234zM459 284l25 61q-58 14 -103.5 47.5t-126.5 137.5l-48 61l-51 -42
q97 -131 135.5 -169.5t78.5 -61.5t90 -34zM695 376q-4 132 -16 239h-7q-58 -93 -129 -238l22 -1h130zM499 278q15 -2 30.5 -3t168.5 -2l-1 63h-123l-49 2z" />
  </g>

</svg>
