<?xml version="1.0" standalone="no"?>
<!DOCTYPE svg PUBLIC "-//W3C//DTD SVG 1.1//EN" "http://www.w3.org/Graphics/SVG/1.1/DTD/svg11.dtd" >
<svg xmlns="http://www.w3.org/2000/svg" xmlns:xlink="http://www.w3.org/1999/xlink" version="1.1" viewBox="-10 0 3089 2048">
  <g transform="matrix(1 0 0 -1 0 1638)">
   <path fill="currentColor"
d="M640 1454q-180 0 -311.5 37t-228.5 105l33 110q51 -11 108 -11q71 0 123.5 14t96.5 49l40 32q75 59 160 76l-3 131q0 76 45 218l21 74q31 -58 64 -135t45 -121q25 52 25 97q0 83 -24 134q63 -53 108.5 -133t45.5 -143q0 -73 -55 -172q42 -44 42 -124q0 -94 -44.5 -147.5
t-132.5 -74.5v-159q0 -171 59.5 -294.5t183 -192t295.5 -68.5h135v517h956v-517h552v-147l-222 1v-234h222v-147l-1811 5q-97 0 -174 31q-28 -179 -85 -256.5t-135 -77.5q-64 0 -106.5 41t-42.5 106q0 67 42.5 157.5t121.5 210.5q-62 103 -94 268t-32 445v295h-23zM1511 756
h876v477h-876v-477zM763 961l32 -50q72 -127 195.5 -192t298.5 -65l1650 -5v67h-1615q-265 0 -415.5 157t-150.5 430v159q-27 -5 -55 -6v-318q0 -240 28 -397.5t83 -257.5l40 58q-79 155 -91 420zM1827 376h720v234l-720 2v-236zM749 1808l7 26h-11q-49 0 -89 -11t-72.5 -27
t-82.5 -57q-58 -47 -118 -65.5t-137 -18.5q-31 0 -47 4l-5 -13q48 -21 135 -21q70 0 167 18l8 -40q-97 -18 -175 -18q-88 0 -148 24l-4 -12q177 -103 463 -103q147 0 221 45.5t74 152.5q0 51 -25 85l-15 -21l-5 -8l-32 24l22 33q-38 23 -86 27l-10 -35zM1043 650
q-7 -107 -24 -230q52 -31 106 -37.5t105 -6.5h387v237l-307 1q-63 0 -130.5 5t-136.5 31zM1012 373l-11 -68q74 -31 167 -31l1771 -5v67h-1765q-86 0 -162 37zM957 281q-81 42 -144 128q-148 -225 -148 -326q0 -48 29.5 -80t72.5 -32q62 0 107 60t67 167zM1657 376h130v236
l-130 1v-237zM2587 376h130v234h-130v-234zM767 1874q16 60 37 102q-12 72 -69 204q-11 -45 -24 -88.5t-13 -94.5l3 -126l44 3h22zM807 1871q58 -8 94 -29q47 84 47 146q0 50 -54 158l2 -19q0 -60 -51 -157q-20 -39 -38 -99zM883 580l80 107q-84 49 -152 136
q27 -148 72 -243zM982 446q13 99 22 220l-5 2l-95 -127q35 -60 78 -95zM964 324l11 72q-57 40 -99 107l-39 -58q52 -78 127 -121zM570 1719q0 23 15 38.5t38 15.5t38.5 -15.5t15.5 -38.5t-15.5 -38t-38.5 -15t-38 15t-15 38z" />
  </g>

</svg>
