<?xml version="1.0" standalone="no"?>
<!DOCTYPE svg PUBLIC "-//W3C//DTD SVG 1.1//EN" "http://www.w3.org/Graphics/SVG/1.1/DTD/svg11.dtd" >
<svg xmlns="http://www.w3.org/2000/svg" xmlns:xlink="http://www.w3.org/1999/xlink" version="1.1" viewBox="-10 0 2222 2048">
  <g transform="matrix(1 0 0 -1 0 1638)">
   <path fill="currentColor"
d="M190 708q50 0 50 70v264h303q27 -176 74.5 -265t134 -147t223 -95t330.5 -59q130 -15 217 -36t149.5 -52.5t110.5 -81t118 -165.5l24 -42q62 -120 108 -120q23 0 31.5 12.5t8.5 22.5q0 38 -38.5 118t-88.5 146t-107.5 117.5t-123.5 81.5t-161.5 51.5t-327.5 58.5
q-218 35 -313 70.5t-149.5 92.5t-86 150.5t-43.5 241.5h-493v-364q0 -70 50 -70zM190 668q-90 0 -90 110v404h570q12 -162 40.5 -254t80 -146t142.5 -88t298 -67q248 -39 334.5 -58.5t152 -48.5t112.5 -66.5t92.5 -88.5t85 -108.5t72 -128.5t32.5 -114q0 -32 -22 -53.5
t-58 -21.5q-68 0 -138 128q-73 133 -120 188t-102 86q-111 63 -377 95q-199 24 -339.5 63.5t-230.5 99.5t-140.5 151t-75.5 252h-229v-224q0 -110 -90 -110z" />
  </g>

</svg>
