<?xml version="1.0" standalone="no"?>
<!DOCTYPE svg PUBLIC "-//W3C//DTD SVG 1.1//EN" "http://www.w3.org/Graphics/SVG/1.1/DTD/svg11.dtd" >
<svg xmlns="http://www.w3.org/2000/svg" xmlns:xlink="http://www.w3.org/1999/xlink" version="1.1" viewBox="-10 0 860 2048">
  <g transform="matrix(1 0 0 -1 0 1638)">
   <path fill="currentColor"
d="M599 2050q59 0 91.5 -11t32.5 -51q0 -30 -18.5 -43t-52.5 -17q31 -54 31 -122q0 -46 -11.5 -97t-45.5 -127q-18 -38 -29.5 -62.5t-11.5 -45.5q0 -56 149 -164l15 -11h-237q75 -123 75 -352q0 -325 -93 -770l-17 -81q-12 -62 -22.5 -84.5t-29.5 -22.5q-10 0 -16.5 5
t-12.5 18t-12 34.5t-42 200t-60 389.5t-19 311q0 224 74 352h-237l15 11q150 109 150 164q0 21 -11 46q-52 109 -62.5 141.5t-17.5 69t-7 75.5q0 70 30 123q-32 4 -49 17t-17 42q0 40 32.5 51t91.5 11h344zM547 947q0 104 -21 196t-62 156h-78q-40 -57 -61.5 -150
t-21.5 -202q0 -298 94 -765l28 -153l29 153q93 467 93 765zM643 1808q0 66 -37 118h-364q-35 -49 -35 -118q0 -44 10.5 -90.5t43.5 -119.5q19 -41 31.5 -68t12.5 -58q0 -33 -25 -69.5t-63 -63.5h416q-38 28 -63 64t-25 69q0 35 26 89q45 92 58.5 143.5t13.5 103.5zM171 1988
q0 -15 21 -18.5t63 -3.5h344q42 0 63 3.5t21 18.5q0 16 -21 19t-63 3h-344q-42 0 -63 -3t-21 -19z" />
  </g>

</svg>
