<?xml version="1.0" standalone="no"?>
<!DOCTYPE svg PUBLIC "-//W3C//DTD SVG 1.1//EN" "http://www.w3.org/Graphics/SVG/1.1/DTD/svg11.dtd" >
<svg xmlns="http://www.w3.org/2000/svg" xmlns:xlink="http://www.w3.org/1999/xlink" version="1.1" viewBox="-10 0 1048 2048">
  <g transform="matrix(1 0 0 -1 0 1638)">
   <path fill="currentColor"
d="M728 1285q-77 0 -148 43v-908q55 -18 90.5 -64t35.5 -112v-2h154v-40h-159q-13 -63 -59.5 -116t-95.5 -71q45 94 48 187h-147q7 -102 49 -187q-50 17 -96.5 71.5t-59.5 115.5h-158v40h154v2q0 66 36 112t90 64v910q-74 -45 -152 -45q-89 0 -149.5 49t-60.5 122
q0 77 57.5 155t145 117.5t202.5 43.5v1q38 8 113 60.5t128.5 112.5t65.5 102l38 -12q-19 -60 -96 -137.5t-166 -129.5q106 -12 184 -60t122 -117t44 -136q0 -73 -61 -122t-149 -49zM540 1357l-21 17l-17 -14v-970q-52 -4 -89 -47.5t-37 -98.5q0 -81 56 -139q-25 77 -25 128
q0 55 31.5 88.5t82.5 33.5t82.5 -33.5t31.5 -88.5q0 -51 -25 -128q56 58 56 139q0 55 -36 98t-90 48v967zM581 1374q23 -19 64.5 -34t82.5 -15q70 0 120 37l-172 137l-125 -100l31 -24zM310 1325q77 0 146 49v1l31 24l-123 98l-172 -137q45 -35 118 -35zM501 1732
q-155 -4 -258 -87l121 -97l137 109v75zM795 1645q-100 82 -254 87v-75l135 -107zM140 1456q0 -36 23 -67l169 134l-119 94q-38 -42 -55.5 -85.5t-17.5 -75.5zM898 1456q0 32 -17.5 75.5t-56.5 85.5l-116 -93l168 -133q22 30 22 65zM501 1439v167l-105 -83zM541 1606v-164
l103 82zM521 315q-28 0 -48.5 -18t-24.5 -55h146q-5 37 -25 55t-48 18z" />
  </g>

</svg>
