<?xml version="1.0" standalone="no"?>
<!DOCTYPE svg PUBLIC "-//W3C//DTD SVG 1.1//EN" "http://www.w3.org/Graphics/SVG/1.1/DTD/svg11.dtd" >
<svg xmlns="http://www.w3.org/2000/svg" xmlns:xlink="http://www.w3.org/1999/xlink" version="1.1" viewBox="-10 0 1038 2048">
  <g transform="matrix(1 0 0 -1 0 1638)">
   <path fill="currentColor"
d="M544 196q74 0 124.5 49t50.5 125l-123 1355q-11 114 -28.5 160.5t-47 74t-74.5 42t-105 14.5q-73 0 -137 -26.5t-64 -60.5q0 -11 9 -15t14 -4q14 0 48 17q22 11 51.5 23t77.5 12q87 0 130.5 -42t43.5 -131l-3 -52l-141 -1346l-1 -24q0 -74 50.5 -122.5t124.5 -48.5z
M544 156q-91 0 -153.5 58t-62.5 147l2 29l141 1347l3 48q0 137 -134 137q-57 0 -109 -30q-42 -22 -68 -22q-27 0 -45 17t-18 42q0 52 69.5 89.5t171.5 37.5q133 0 205 -65t84 -203.5t128 -1396.5l1 -25q0 -89 -61.5 -149.5t-153.5 -60.5zM544 34q-115 0 -189 54t-107 178
q-9 33 -26 33q-10 0 -16 -10.5t-6 -26.5q0 -77 42.5 -142.5t120.5 -103t181 -37.5t181 37.5t120.5 103.5t42.5 142q0 16 -6 26.5t-16 10.5q-17 0 -26 -33q-22 -84 -59.5 -133t-98 -74t-138.5 -25zM544 74q77 0 127 24.5t81 64.5t50 113q14 63 63 63q63 0 63 -77
q0 -89 -47.5 -163.5t-135 -117t-201.5 -42.5q-115 0 -202.5 43t-134.5 117.5t-47 162.5q0 77 63 77q49 0 63 -63q28 -108 92.5 -155t165.5 -47z" />
  </g>

</svg>
