<?xml version="1.0" standalone="no"?>
<!DOCTYPE svg PUBLIC "-//W3C//DTD SVG 1.1//EN" "http://www.w3.org/Graphics/SVG/1.1/DTD/svg11.dtd" >
<svg xmlns="http://www.w3.org/2000/svg" xmlns:xlink="http://www.w3.org/1999/xlink" version="1.1" viewBox="-10 0 2405 2048">
  <g transform="matrix(1 0 0 -1 0 1638)">
   <path fill="currentColor"
d="M540 1522q26 0 40 -13.5t14 -32.5q0 -23 -17 -42l-102 -115q58 -30 140 -118q32 -33 58.5 -57t48.5 -24q32 0 115 26q153 49 281 56v71q-48 16 -87 60t-63 115t-29 134h-53v18q0 66 33 127t95 100t153 43v80h-74v40h74v60h40v-60h74v-40h-74v-80q87 -4 141.5 -36
t85.5 -74.5t42.5 -87t11.5 -72.5v-18h-53q-5 -64 -29 -133.5t-63 -114.5t-87 -61v-74q81 -11 151.5 -39.5t133.5 -57.5q137 -62 229 -62q47 0 141 11q107 13 162 13q93 0 157.5 -18.5t64.5 -48.5q0 -36 -33 -56.5t-97.5 -30t-240.5 -9.5q-77 0 -244 18q-275 24 -424 28v-947
q0 -69 -69 -69t-69 69v936l-74 -13q-183 -38 -286 -38q-54 0 -109.5 33t-128.5 120q-27 32 -48 53t-39 21l-20 -2q-65 -13 -105 -13q-83 0 -133.5 30t-50.5 81q0 35 30 68.5t80 51.5l-96 109q-17 19 -17 42q0 19 14 32.5t40 13.5q28 0 47 -21l137 -155l125 142q28 31 56 31z
M1118 977v185q-129 -7 -269 -54q-89 -28 -127 -28q-25 0 -56.5 21.5t-78.5 71.5q-77 80 -125.5 107.5t-94.5 27.5q-63 0 -108 -13.5t-70 -37t-25 -49.5q0 -33 40.5 -52t102.5 -19q46 0 78.5 7.5t49.5 7.5q29 0 56 -25.5t59 -62.5q54 -62 83.5 -86t61 -38.5t63.5 -14.5
q66 0 204 23zM1187 1302q82 0 136 70.5t71 209.5h-415q19 -142 72.5 -211t135.5 -69zM1187 1831q-106 0 -175 -54t-84 -155h518q-16 101 -85.5 155t-173.5 54zM1256 1159v-172q153 -4 428 -28q169 -18 240 -18q320 0 320 53q0 11 -48 20.5t-124 9.5l-74 -4
q-97 -10 -146.5 -15t-96.5 -5q-87 0 -230 66q-60 28 -126.5 55t-142.5 38zM1187 -30q29 0 29 30v1264l-29 -2l-29 2v-1264q0 -30 29 -30zM309 1345l-109 123q-16 18 -27 18l-7 -2l-3 -8q0 -4 3 -9.5t111 -126.5zM308 1251q0 11 12.5 19.5t31.5 8.5t32 -8.5t13 -19.5t-13 -19
t-32 -8t-31.5 8t-12.5 19zM408 1344l29 -8l99 111q16 18 16 26l-3 8l-7 2q-11 0 -27 -18z" />
  </g>

</svg>
