<?xml version="1.0" standalone="no"?>
<!DOCTYPE svg PUBLIC "-//W3C//DTD SVG 1.1//EN" "http://www.w3.org/Graphics/SVG/1.1/DTD/svg11.dtd" >
<svg xmlns="http://www.w3.org/2000/svg" xmlns:xlink="http://www.w3.org/1999/xlink" version="1.1" viewBox="-10 0 1657 2048">
  <g transform="matrix(1 0 0 -1 0 1638)">
   <path fill="currentColor"
d="M239 1751l-90 90q-49 49 -49 89q0 25 17.5 46.5t49.5 21.5q40 0 91 -48q10 52 28 76.5t52 24.5q37 0 55 -28.5t18 -75.5l-4 -62l-7 -75l565 -560q18 9 37 9q24 0 45 -20.5t21 -46.5q0 -18 -8 -36l419 -415q41 -41 54.5 -65.5t13.5 -44.5q0 -24 -21.5 -45.5t-45.5 -21.5
q-43 0 -110 67l-423 417q-21 -9 -35 -9q-15 0 -27 6l-179 -181q6 -12 6 -27q0 -20 -17 -51q79 -141 178.5 -283.5t210.5 -273t183 -197.5q88 -86 88 -131q0 -26 -20.5 -46.5t-45.5 -20.5q-43 0 -131 88q-148 146 -312 360t-273 399l-12 -1q-26 0 -46 20t-20 46q0 30 14 52
l-4 8q-106 211 -155.5 347.5t-80 280t-30.5 293.5v24zM404 1587q34 -310 231 -690l19 3q14 0 24 -7l177 178q-7 11 -7 26q0 21 11 39zM356 1718q0 59 7 136l7 103q0 54 -34 54q-19 0 -29.5 -31t-20 -121t-7.5 -132q0 -203 65 -427t207 -494l41 -76q33 21 57 53
q-87 155 -157 323.5t-103 317.5t-33 294zM669 747q-25 -33 -57 -52q117 -195 271 -396.5t303 -348.5q74 -74 101 -74q11 0 18.5 8t7.5 18q0 26 -75 101q-123 123 -206.5 222.5t-178.5 231.5t-184 290zM396 1727l2 -78l559 -552q26 16 54 52l-615 609v-31zM1040 1121
q-25 -31 -55 -52l414 -409q18 -21 41.5 -38t39.5 -17q11 0 18.5 8t7.5 19q0 12 -9.5 28.5t-45.5 52.5zM251 1902q-54 54 -84 54q-11 0 -18.5 -7t-7.5 -18q0 -14 13 -33t87 -93l8 83zM997 1219l31 -31v3q0 14 -9.5 21t-18.5 7h-3zM916 1080l-27 26l-1 -8q0 -18 24 -18h4z
M670 830l1 6q0 7 -4 15t-12 9zM549 723l-16 29v-4q0 -17 16 -25z" />
  </g>

</svg>
