<?xml version="1.0" standalone="no"?>
<!DOCTYPE svg PUBLIC "-//W3C//DTD SVG 1.1//EN" "http://www.w3.org/Graphics/SVG/1.1/DTD/svg11.dtd" >
<svg xmlns="http://www.w3.org/2000/svg" xmlns:xlink="http://www.w3.org/1999/xlink" version="1.1" viewBox="-10 0 3557 2048">
  <g transform="scale(1, -1)"  transform-origin="center">
   <path fill="currentColor"
d="M647 340h-40v466q0 86 -68 145t-165 59q-99 0 -166.5 -59.5t-67.5 -144.5v-466h-40v466q0 106 78.5 175t195.5 69q119 0 196 -69t77 -175v-466zM1347 340h-40v466q0 86 -68 145t-165 59q-99 0 -166.5 -59.5t-67.5 -144.5v-466h-40v466q0 106 78.5 175t195.5 69
q119 0 196 -69t77 -175v-466zM2047 340h-40v466q0 86 -68 145t-165 59q-99 0 -166.5 -59.5t-67.5 -144.5v-466h-40v466q0 106 78.5 175t195.5 69q119 0 196 -69t77 -175v-466zM2747 340h-40v466q0 86 -68 145t-165 59q-99 0 -166.5 -59.5t-67.5 -144.5v-466h-40v466
q0 106 78.5 175t195.5 69q119 0 196 -69t77 -175v-466zM3447 340h-40v466q0 86 -68 145t-165 59q-99 0 -166.5 -59.5t-67.5 -144.5v-466h-40v466q0 106 78.5 175t195.5 69q119 0 196 -69t77 -175v-466z" />
  </g>

</svg>
