<?xml version="1.0" standalone="no"?>
<!DOCTYPE svg PUBLIC "-//W3C//DTD SVG 1.1//EN" "http://www.w3.org/Graphics/SVG/1.1/DTD/svg11.dtd" >
<svg xmlns="http://www.w3.org/2000/svg" xmlns:xlink="http://www.w3.org/1999/xlink" version="1.1" viewBox="-10 0 2580 2048">
  <g transform="matrix(1 0 0 -1 0 1638)">
   <path fill="currentColor"
d="M1285 465q-214 0 -406.5 44t-328.5 127q-28 -37 -86.5 -54.5t-183.5 -17.5h-180v40h180q117 0 168 16t75.5 53t24.5 104q0 62 -26 98t-77.5 52.5t-164.5 16.5h-180v40h180q114 0 172.5 -15.5t92.5 -53.5q106 61 207 95t233 57t300 23t299.5 -23t232 -57t207.5 -95
q32 37 92.5 53t173.5 16h180v-40h-180q-113 0 -165 -16.5t-77.5 -53t-25.5 -97.5q0 -66 24.5 -103.5t75.5 -53.5t168 -16h180v-40h-180q-124 0 -184 17.5t-87 54.5q-136 -83 -327 -127t-407 -44zM588 777q0 -64 -18 -106q127 -78 317.5 -122t397.5 -44q205 0 396 44t318 122
q-17 45 -17 106q0 62 20 104q-139 83 -326.5 126t-390.5 43q-208 0 -398.5 -44.5t-318.5 -124.5q20 -42 20 -104z" />
  </g>

</svg>
