<?xml version="1.0" standalone="no"?>
<!DOCTYPE svg PUBLIC "-//W3C//DTD SVG 1.1//EN" "http://www.w3.org/Graphics/SVG/1.1/DTD/svg11.dtd" >
<svg xmlns="http://www.w3.org/2000/svg" xmlns:xlink="http://www.w3.org/1999/xlink" version="1.1" viewBox="-10 0 906 2048">
  <g transform="matrix(1 0 0 -1 0 1638)">
   <path fill="currentColor"
d="M691 1364q0 -78 -41.5 -137.5t-107.5 -86.5q66 -28 107.5 -87t41.5 -134q0 -79 -65 -178l-152 -233l322 -486l-40 -28l-308 473l-308 -473l-40 28l321 486l-151 233q-65 100 -65 179q0 77 40.5 136t106.5 85q-66 28 -106.5 87.5t-40.5 136.5t40.5 136t106.5 85
q-66 28 -106.5 87.5t-40.5 136.5q0 101 70 170.5t173 69.5q100 0 171.5 -71t71.5 -170q0 -78 -41.5 -137.5t-107.5 -86.5q66 -28 107.5 -87t41.5 -134zM448 548l142 214q23 35 42 73.5t19 84.5q0 81 -61.5 141.5t-141.5 60.5q-83 0 -143 -60.5t-60 -140.5q0 -43 15.5 -78
t40.5 -73zM651 1365q0 81 -61.5 141.5t-141.5 60.5q-86 0 -144.5 -60.5t-58.5 -140.5q0 -84 60.5 -145t142.5 -61q83 0 143 62t60 143zM651 1810q0 81 -61.5 141.5t-141.5 60.5q-83 0 -143 -60.5t-60 -140.5q0 -84 60.5 -145t142.5 -61t142.5 59.5t60.5 145.5z" />
  </g>

</svg>
