<?xml version="1.0" standalone="no"?>
<!DOCTYPE svg PUBLIC "-//W3C//DTD SVG 1.1//EN" "http://www.w3.org/Graphics/SVG/1.1/DTD/svg11.dtd" >
<svg xmlns="http://www.w3.org/2000/svg" xmlns:xlink="http://www.w3.org/1999/xlink" version="1.1" viewBox="-10 0 1354 2048">
  <g transform="matrix(1 0 0 -1 0 1638)">
   <path fill="currentColor"
d="M182 2035q155 -54 305.5 -145t269.5 -195q23 50 68 87t89 37q46 0 75 -27t29 -72q0 -42 -35.5 -71.5t-96.5 -29.5q-21 0 -54 6q196 -196 304 -393.5t108 -357.5q0 -153 -62.5 -268t-183.5 -179.5t-263 -64.5q-182 0 -314.5 68.5t-196.5 191.5t-64 293q0 128 64.5 260.5
t193 258.5t288.5 222q-140 39 -326.5 105.5t-244.5 98.5l-35 19zM761 1641q-158 -90 -289.5 -210t-201.5 -254t-70 -262q0 -159 60 -273.5t183 -177t292 -62.5q136 0 246.5 61t166.5 166.5t56 244.5q0 159 -125 373t-316 393zM694 1698q-108 88 -239 165t-253 122l-47 -88
q51 -30 232.5 -96.5t306.5 -102.5zM914 1779q-57 0 -125 -106q54 -14 97 -14q47 0 69.5 19t22.5 42t-16 41t-48 18z" />
  </g>

</svg>
