<?xml version="1.0" standalone="no"?>
<!DOCTYPE svg PUBLIC "-//W3C//DTD SVG 1.1//EN" "http://www.w3.org/Graphics/SVG/1.1/DTD/svg11.dtd" >
<svg xmlns="http://www.w3.org/2000/svg" xmlns:xlink="http://www.w3.org/1999/xlink" version="1.1" viewBox="-10 0 1102 2048">
  <g transform="matrix(1 0 0 -1 0 1638)">
   <path fill="currentColor"
d="M551 2050q142 0 220.5 -71t78.5 -206q0 -48 -23 -113.5t-92 -189.5q-51 -93 -62 -123q127 -3 193 -46t96 -133.5t30 -236.5v-366q0 -142 -13.5 -219t-43.5 -109.5t-91 -32.5q-44 0 -72 18q25 -70 82 -182l4 -40h-614l4 40q59 117 85 192q-33 -28 -85 -28q-62 0 -92 34
t-43 112t-13 215v366q0 151 32 241t96.5 131.5t199.5 43.5q-12 35 -61 123q-69 125 -92 189.5t-23 113.5q0 135 78.5 206t220.5 71zM229 389v660q0 94 42.5 137t162.5 54v67q-121 0 -180 -37t-86.5 -119t-27.5 -220v-366q0 -178 23 -249.5t85 -71.5q57 0 86 52.5t29 144.5
l-1 79l-36 429v8q0 89 21.5 124.5t86.5 45.5v72q-92 -8 -128.5 -41.5t-36.5 -108.5v-660h-40zM952 931q0 138 -27.5 219t-84.5 118t-172 39v-67q120 -11 162.5 -54t42.5 -137v-660h-40v660q0 74 -37.5 108t-127.5 42v-73q55 -10 76.5 -45.5t21.5 -123.5v-8l-36 -429l-1 -79
q0 -92 29.5 -144.5t85.5 -52.5q44 0 66 32t32 104t10 185v366zM531 40v1053l-57 -2v-19q0 -190 -9 -335.5t-28.5 -266.5t-50 -215t-91.5 -215h236zM628 1090l-57 3v-1053h236q-63 126 -93 219t-49 213.5t-28 266t-9 333.5v18zM409 1738q0 -71 38 -165t104 -188
q65 92 103.5 187t38.5 166q0 144 -142 144t-142 -144zM551 1922q95 0 138.5 -48.5t43.5 -135.5q0 -76 -37.5 -172t-96.5 -182h45q20 47 55 106q58 107 74.5 145t26.5 73.5t10 64.5q0 115 -68.5 176t-190.5 61t-190.5 -61t-68.5 -176q0 -78 72 -211q80 -148 93 -178h45
q-60 89 -96.5 184t-36.5 170q0 88 44 136t138 48zM402 522q32 200 32 550v13q-37 -9 -52.5 -35t-15.5 -93v-8zM726 957q0 58 -12.5 86t-45.5 39v-10q0 -304 25 -512l33 389v8zM551 1244l77 -2v91l2 11h-159l3 -22v-80zM546 1133l82 -2v71l-77 2l-77 -2v-71z" />
  </g>

</svg>
