<?xml version="1.0" standalone="no"?>
<!DOCTYPE svg PUBLIC "-//W3C//DTD SVG 1.1//EN" "http://www.w3.org/Graphics/SVG/1.1/DTD/svg11.dtd" >
<svg xmlns="http://www.w3.org/2000/svg" xmlns:xlink="http://www.w3.org/1999/xlink" version="1.1" viewBox="-10 0 1310 2048">
  <g transform="matrix(1 0 0 -1 0 1638)">
   <path fill="currentColor"
d="M630 233q0 -114 -47.5 -178t-133.5 -64q-96 0 -140 64.5t-44 189.5q0 150 164 409l-67 112q-51 78 -124.5 204t-105.5 244.5t-32 258.5q0 287 139 432t409 145q271 0 411.5 -147t140.5 -430q0 -116 -20.5 -210t-55.5 -175.5t-124 -225.5q-68 -102 -125 -206
q91 -143 128 -240t37 -171q0 -119 -47 -186.5t-142 -67.5q-91 0 -132 61.5t-41 180.5q0 151 150 420l-95 137l-81 112l-81 -109l-95 -137q85 -150 119.5 -249t34.5 -174zM889 1463q0 -115 -48 -239t-163 -286l93 -133l80 -112l177 294q61 97 96.5 222.5t35.5 263.5
q0 537 -512 537q-250 0 -379 -131t-129 -389q0 -270 133 -496l60 -103l121 -197q32 50 173 242q-214 307 -214 527q0 78 27.5 134t83 87t124.5 31q114 0 177.5 -66t63.5 -186zM453 1463q0 -98 46.5 -216t153.5 -274q109 156 152.5 270t43.5 220q0 102 -52 157t-149 55
q-92 0 -143.5 -54t-51.5 -158zM449 31q66 0 103.5 54t37.5 148q0 134 -140 384q-145 -230 -145 -372q0 -100 36 -157t108 -57zM1000 245q0 65 -39 161t-108 207q-135 -249 -135 -380q0 -95 33.5 -148.5t99.5 -53.5q71 0 110 54.5t39 159.5z" />
  </g>

</svg>
