<?xml version="1.0" standalone="no"?>
<!DOCTYPE svg PUBLIC "-//W3C//DTD SVG 1.1//EN" "http://www.w3.org/Graphics/SVG/1.1/DTD/svg11.dtd" >
<svg xmlns="http://www.w3.org/2000/svg" xmlns:xlink="http://www.w3.org/1999/xlink" version="1.1" viewBox="-10 0 1151 2048">
  <g transform="matrix(1 0 0 -1 0 1638)">
   <path fill="currentColor"
d="M100 376h130q40 121 158 186q-43 15 -43 55q0 62 81 62h53q-43 133 -100.5 348.5t-86 367t-28.5 231.5q0 125 40 221t112 149.5t157 53.5t157 -53.5t112 -150t40 -220.5q0 -119 -59 -376t-156 -571h53q81 0 81 -62q0 -43 -46 -56q115 -67 155 -185h131v-40h-120
q7 -28 7 -65q0 -58 -18 -107h131v-40h-149q-47 -90 -133 -140.5t-189 -50.5q-102 0 -189.5 51t-132.5 140h-148v40h131q-18 49 -18 107q0 33 6 65h-119v40zM304 1626q0 -116 57.5 -368.5t159.5 -578.5h104q87 279 152 549t65 398q0 113 -35 200t-97.5 135.5t-136.5 48.5
t-136.5 -48.5t-97.5 -135.5t-35 -200zM253 271q0 -56 20 -107h594q21 53 21 107q0 31 -8 65h-620q-7 -28 -7 -65zM570 570q-96 0 -178 -51.5t-119 -142.5h594q-36 89 -117.5 141.5t-179.5 52.5zM570 -27q90 0 162.5 41t114.5 110h-554q41 -69 114 -110t163 -41zM385 617
q0 -19 45 -34q66 27 140 27q75 0 145 -29l-2 2q48 15 48 34q0 13 -8.5 17.5t-29.5 4.5h-300q-21 0 -29.5 -4.5t-8.5 -17.5z" />
  </g>

</svg>
