<?xml version="1.0" standalone="no"?>
<!DOCTYPE svg PUBLIC "-//W3C//DTD SVG 1.1//EN" "http://www.w3.org/Graphics/SVG/1.1/DTD/svg11.dtd" >
<svg xmlns="http://www.w3.org/2000/svg" xmlns:xlink="http://www.w3.org/1999/xlink" version="1.1" viewBox="-10 0 1561 2048">
  <g transform="matrix(1 0 0 -1 0 1638)">
   <path fill="currentColor"
d="M1048 1513q-55 -21 -55 -81q0 -36 29.5 -68.5t71.5 -65.5q75 -60 115 -107q25 20 64 34.5t75 14.5q43 0 73 -25.5t30 -66.5q0 -48 -46.5 -88t-117.5 -57v-1q0 -122 -180 -666h-663q-180 544 -180 666v1q-70 17 -117 57t-47 88q0 41 30 66.5t73 25.5q42 0 80 -16.5
t58 -32.5q44 49 116 107q42 33 71.5 65.5t29.5 68.5q0 29 -15 50t-40 31h-24q-24 0 -41 16.5t-17 45.5t17 45.5t41 16.5h593q24 0 41 -16.5t17 -45.5t-17 -45.5t-41 -16.5h-24zM1079 376q168 511 168 626q0 64 -40 126t-139 140q-66 53 -90.5 89.5t-24.5 74.5q0 48 28 81
h-411q28 -33 28 -81q0 -39 -24.5 -75.5t-90.5 -88.5q-99 -78 -139 -139.5t-40 -126.5q0 -115 168 -626h607zM1072 1553q18 0 18 22t-18 22h-593q-18 0 -18 -22t18 -22h593zM268 1044q9 58 49 116q-21 16 -54.5 28t-57.5 12q-29 0 -47 -14.5t-18 -37.5q0 -33 36 -61t92 -43z
M1233 1160q38 -54 50 -116q56 15 92 42.5t36 61.5q0 24 -18 38t-47 14q-23 0 -57 -12t-56 -28z" />
  </g>

</svg>
