<?xml version="1.0" standalone="no"?>
<!DOCTYPE svg PUBLIC "-//W3C//DTD SVG 1.1//EN" "http://www.w3.org/Graphics/SVG/1.1/DTD/svg11.dtd" >
<svg xmlns="http://www.w3.org/2000/svg" xmlns:xlink="http://www.w3.org/1999/xlink" version="1.1" viewBox="-10 0 2014 2048">
  <g transform="matrix(1 0 0 -1 0 1638)">
   <path fill="currentColor"
d="M1399 1949q70 0 97 -22t27 -63q0 -52 -42 -73q22 -28 78.5 -110.5t106.5 -166.5h77q72 0 116.5 -45t44.5 -120q0 -57 -24 -98.5t-62 -64t-75 -22.5h-65q-81 -145 -182 -294.5t-134 -195.5q46 -5 68.5 -29t22.5 -60q0 -34 -17.5 -58t-47.5 -33h-772q-30 8 -47.5 32.5
t-17.5 58.5q0 42 26 65.5t65 23.5q-66 89 -164.5 240.5t-151.5 249.5h-65q-38 0 -76 23t-61.5 65t-23.5 97q0 75 44.5 120t116.5 45h77q64 114 184 277q-41 18 -41 73q0 41 27 63t97 22h794zM688 675h627l-1 1q177 249 282 423t105 225q0 100 -261 456l-21 -2h-834l-22 2
q-260 -355 -260 -456q0 -52 105 -226.5t282 -421.5zM521 1864q0 -19 8 -28.5t22.5 -13.5t53.5 -4h794q55 0 69.5 10.5t14.5 35.5q0 24 -14 34.5t-70 10.5h-794q-57 0 -70.5 -11t-13.5 -34zM591 585q0 -37 34 -51h754q34 15 34 51q0 25 -16 37.5t-68 12.5h-664
q-44 0 -59 -12.5t-15 -37.5zM140 1349q0 -61 37 -103t86 -42h42q-42 82 -42 120q0 51 53 150h-53q-53 0 -88 -34.5t-35 -90.5zM1864 1349q0 57 -35 91t-88 34h-53q53 -104 53 -150q0 -38 -42 -120h42q49 0 86 42t37 103z" />
  </g>

</svg>
