<?xml version="1.0" standalone="no"?>
<!DOCTYPE svg PUBLIC "-//W3C//DTD SVG 1.1//EN" "http://www.w3.org/Graphics/SVG/1.1/DTD/svg11.dtd" >
<svg xmlns="http://www.w3.org/2000/svg" xmlns:xlink="http://www.w3.org/1999/xlink" version="1.1" viewBox="-10 0 1096 2048">
  <g transform="matrix(1 0 0 -1 0 1638)">
   <path fill="currentColor"
d="M543 1931q50 0 87 -17t63.5 -48.5t44.5 -76.5t31 -101.5t37 -221.5q29 -207 68 -336.5t81 -150.5h31l-193 -565h-500l-193 565h31q83 44 149 487q31 219 60 299.5t77 123t126 42.5zM189 979h707q-41 54 -70.5 168.5t-59.5 312.5q-29 210 -54 281.5t-64.5 110.5t-104.5 39
t-105 -39.5t-65 -111.5t-53 -280q-30 -202 -60.5 -315.5t-70.5 -165.5zM929 939h-772l166 -485h440z" />
  </g>

</svg>
