<?xml version="1.0" standalone="no"?>
<!DOCTYPE svg PUBLIC "-//W3C//DTD SVG 1.1//EN" "http://www.w3.org/Graphics/SVG/1.1/DTD/svg11.dtd" >
<svg xmlns="http://www.w3.org/2000/svg" xmlns:xlink="http://www.w3.org/1999/xlink" version="1.1" viewBox="-10 0 1657 2048">
  <g transform="matrix(1 0 0 -1 0 1638)">
   <path fill="currentColor"
d="M203 469h1304v42h-1191q-81 0 -115 66q-14 33 -22.5 50.5t-17.5 14.5q-21 0 -21 -47q0 -61 41 -102l-28 -28q-24 24 -38.5 59t-14.5 71q0 87 61 87q29 0 43 -19t23 -44l-1 1l11 -25q22 -44 79 -44h79l-30 23v713l-44 155v136l56 125l82 74l55 -48l-68 -113
q-11 -17 -12.5 -45.5t-1.5 -59.5q0 -57 16 -93l17 4q-7 42 -7 75q0 59 40 106l60 -29q-18 -54 -18 -69q0 -32 7 -54.5t10 -43.5l-48 -106l69 -321v-236l20 -25h291l32 -19l32 19h291l20 25v236l69 321l-48 106q3 21 10 43.5t7 54.5q0 15 -18 69l60 29q40 -47 40 -106
q0 -33 -7 -75l17 -4q16 36 16 93q0 31 -1.5 59.5t-12.5 45.5l-68 113l55 48l82 -74l56 -125v-136l-44 -155v-713l-31 -23h101v-122h-566v-808h-120v528l-215 280h-176l-38 -77h-156l-38 77h-35v40zM921 661l-32 19h-317l-34 41v261l-66 322l53 104q-2 19 -9 43.5t-7 57.5
q0 17 12 53l-15 7q-22 -26 -22 -73t6 -89l-60 -18q-28 52 -28 125v33q0 54 25 93l50 84l-19 15l-55 -55l-49 -113v-127l50 -152v-699l56 -42h922l56 42v699l50 152v127l-49 113l-55 55l-19 -15l50 -84q25 -42 25 -93v-33q0 -73 -28 -125l-60 18q6 42 6 89t-22 73l-15 -7
q12 -36 12 -53q0 -33 -7 -57.5t-9 -43.5l53 -104l-66 -322v-261l-34 -41h-317zM901 -339h40v768h-40v-768zM861 205v45l-136 179h-37zM766 429l95 -123v123h-95zM410 388l20 41h-152l20 -41h112z" />
  </g>

</svg>
