<?xml version="1.0" standalone="no"?>
<!DOCTYPE svg PUBLIC "-//W3C//DTD SVG 1.1//EN" "http://www.w3.org/Graphics/SVG/1.1/DTD/svg11.dtd" >
<svg xmlns="http://www.w3.org/2000/svg" xmlns:xlink="http://www.w3.org/1999/xlink" version="1.1" viewBox="-10 0 1142 2048">
  <g transform="matrix(1 0 0 -1 0 1638)">
   <path fill="currentColor"
d="M581 1114l-9 37l-36 -13l-59 -91l-60 50l84 69l-23 65l-47 2l76 173l-2 14q0 32 31.5 56.5t78.5 37.5v1l-22 3q-14 0 -30.5 -8.5t-34.5 -8.5q-12 0 -37 15q-26 14 -43 14q-19 0 -43 -11q-25 -12 -36 -12q-29 0 -47 19.5t-18 55.5h25q2 -14 8 -24.5t32 -10.5q8 0 35 13
q26 12 43 12q18 0 31.5 -9t27.5 -16l30 386q9 90 92 99q46 -11 64 -42q29 37 70 42q75 -21 75 -97v-15l-30 -379q12 0 39 16q26 15 42 15t63 -21l16 -4q25 0 31.5 10.5t8.5 24.5h25q0 -36 -18 -55.5t-47 -19.5q-11 0 -35 12q-25 11 -44 11q-18 0 -43 -14q-26 -15 -38 -15
q-17 0 -33.5 8.5t-30.5 8.5l-18 -2l-4 -1q62 -14 98.5 -54t36.5 -97q0 -44 -23.5 -86.5t-62.5 -100.5v-58l70 -27q28 -11 43 -27t21 -35.5t6 -67.5q0 -55 -59 -256q-17 -62 -34.5 -126t-24.5 -127l29 -3v-302l72 -55l124 -24v-69h-143l-187 56q-199 -28 -303.5 -42
t-142.5 -14q-58 0 -99.5 35t-41.5 89q0 70 97 118l296 148l29 113l-52 439l-2 33q0 31 10 64t54 54zM510 978l1 -35l51 -439l-26 -104l217 51q7 63 27 135l36 130q53 212 53 246q0 47 -12.5 68.5t-38.5 32.5l-89 36v72l-71 64q37 55 42.5 66.5t5.5 16.5q0 23 -16 23t-30 -20
l-124 76l-60 -142l29 -2l31 -86l64 23l24 -98l-56 -21q-27 -10 -42.5 -35t-15.5 -58zM784 417h-12l-248 -57l-310 -155l50 -73l520 31v254zM977 51l-107 14l-84 65l-537 -32l-66 91q-43 -25 -43 -62q0 -40 30.5 -65t77.5 -25q18 0 62 4.5t381 49.5l187 -58h99v18zM743 1204
q29 43 51 82t22 85q0 49 -47 82t-106 33q-38 0 -76.5 -17t-44.5 -42l116 -71q18 16 35 16q19 0 31.5 -13.5t12.5 -33.5q0 -31 -22 -56l-19 -25zM694 1780q33 -8 57 -33.5t31 -59.5l19 236v10q0 52 -42 63q-26 -3 -39 -24.5t-15 -44.5zM555 1704q11 34 39.5 55t63.5 24
l11 147q0 53 -44 67q-47 -5 -52 -67zM584 1665q0 -35 25 -58.5t59 -23.5q33 0 56.5 25.5t23.5 57.5q0 34 -24 57.5t-59 23.5q-31 0 -55 -22t-26 -54v-6zM612 1559h5q-53 22 -67 84l-8 -101q17 4 35 10.5t35 6.5zM571 1307q-24 0 -50 19q11 15 38 15q16 0 26 -6.5t20 -23.5z
M724 1559q13 0 49 -11l5 77q-18 -47 -62 -67zM673 1549l-34 3l21 -14h16l4 4l13 8l-10 -1h-10z" />
  </g>

</svg>
