<?xml version="1.0" standalone="no"?>
<!DOCTYPE svg PUBLIC "-//W3C//DTD SVG 1.1//EN" "http://www.w3.org/Graphics/SVG/1.1/DTD/svg11.dtd" >
<svg xmlns="http://www.w3.org/2000/svg" xmlns:xlink="http://www.w3.org/1999/xlink" version="1.1" viewBox="-10 0 2627 2048">
  <g transform="matrix(1 0 0 -1 0 1638)">
   <path fill="currentColor"
d="M100 119l58 48l131 -3l107 -9l309 53l51 174l-18 32l-24 44q-16 31 -29 81l-28 102q-39 142 -68.5 184.5t-87.5 42.5q-43 0 -108 -30q-53 -23 -72 -23q-25 0 -43 11l-15 -14l-8 -8l-59 85q95 114 199 186l31 26q58 54 100 69l15 4l-171 193l118 89l187 -254l4 1l187 256
l124 -97l-164 -180q-11 -12 -16 -21t-5 -26q0 -22 85 -156q108 -173 127 -209q65 -123 269 -123q102 0 285 34t280 34q62 0 116.5 -11t110.5 -17q41 19 76 65t53.5 133t100.5 579l94 77h43l72 -98l-35 -129q-86 -340 -167.5 -507t-177.5 -227l32 -149q19 -99 32 -128l30 -49
q72 -114 72 -157t-29.5 -70t-72.5 -27l-403 12l-152 12v-25h-179v89q12 24 42 42.5t58 18.5q41 0 127 -9q214 4 306 24l-51 33q-85 49 -123.5 75.5t-58.5 51.5q-67 -20 -140 -47q-149 -52 -230 -67.5t-153 -15.5q-61 0 -141.5 11t-108.5 20q-78 -94 -123 -176l-84 -42
l-311 19l-168 -26l-160 1l-48 70v48zM773 434l46 157l38 -10q-28 -98 -121 -409l-338 -57l-112 9l-115 5l-26 -19l34 3l2 -23l-42 -3v-10l3 -4l41 3l2 -23l-28 -2l9 -13h139l169 28l307 -20l62 29q67 109 124.5 171.5t117.5 100.5l24 -32q-7 -4 -14.5 -8.5t-63.5 -47.5
q100 -25 213 -25q148 0 369 81l130 43q-21 44 -27 134h40q4 -91 27 -128q21 -36 55.5 -60.5t73.5 -46l78 -43t69 -50.5v-26q-144 -29 -365 -36l-37 3q-34 4 -90 4q-39 0 -70 -39v-31h32v28h23v-28h16v28h23v-28h24v23l76 -5q49 -3 506 -17q66 0 66 57q0 33 -66 135l-32 53
q-14 29 -37 146l-36 168q104 55 189 217t164 496l32 124l-16 19l-59 -200l-22 6l63 218l-19 23h-6l-3 1l-15 -13l-39 -227h-22l31 202l-24 -21q-73 -440 -109 -597q-36 -139 -153 -201q-60 8 -116.5 18.5t-116.5 10.5q-77 0 -282 -34q-206 -34 -283 -34q-88 0 -147 20
t-97 51t-68 91q-33 62 -80 136q-129 199 -129 228q0 30 9 45t25 31l136 152l-57 47q-138 -196 -187 -245q-37 -4 -92 -15.5t-82 -26t-71 -54.5l-31 -23q-82 -51 -180 -160l21 -35q38 38 113 85l15 -20q-8 -4 -44.5 -28.5t-38.5 -29.5l13 -2q24 0 67 20q26 11 57 22.5
t63 11.5q42 0 78.5 -19.5t63.5 -69t51 -150.5q26 -115 36 -143t43 -92zM634 1195l-154 211l-55 -43l156 -179zM491 1037q3 10 15 25t34 15q25 0 38 -10q-22 -41 -55 -41q-18 0 -32 11z" />
  </g>

</svg>
