<?xml version="1.0" standalone="no"?>
<!DOCTYPE svg PUBLIC "-//W3C//DTD SVG 1.1//EN" "http://www.w3.org/Graphics/SVG/1.1/DTD/svg11.dtd" >
<svg xmlns="http://www.w3.org/2000/svg" xmlns:xlink="http://www.w3.org/1999/xlink" version="1.1" viewBox="-10 0 2785 2048">
  <g transform="matrix(1 0 0 -1 0 1638)">
   <path fill="currentColor"
d="M1579 1134q47 0 277 31q229 30 290 30q194 0 293 -46.5t116 -155.5l59 -361l19 -41q42 -83 42 -161q0 -43 -14 -85l-29 -3q-44 25 -64.5 70t-20.5 91q0 25 19 122l-24 158l-41 -163l20 -136l-42 -430l-35 3l-24 -57l-109 -10l-47 24l49 100l17 11l17 340l-149 106
l-54 -17l-57 -155l-198 -345l-15 3l-24 -57l-109 -10l-47 24l49 100l17 11l105 164l62 195l-114 -36l-17 32l47 15l-484 24l-126 -465l-19 3l-24 -57l-109 -10l-47 24l49 100l17 11l61 319l-51 12l-13 -57l-198 -345l-15 3l-24 -57l-109 -10l-47 24l49 100l17 11l105 164
l72 240q-77 57 -120 154l-63 142l-114 -155l-83 -14l-115 23l-19 18l-2 285q-38 -22 -87 -22q-45 0 -86 16.5t-74 43.5t-56.5 77.5t-27.5 121.5l27 15q66 -85 108.5 -111t92.5 -26q49 0 107 24q11 56 73 92q13 44 13 80q-1 48 -31.5 97t-117.5 132l10 26q131 -12 196 -86.5
t69 -153.5l23 43l19 -3l38 -67l57 5q38 0 93 -10.5t70 -15.5q302 -81 423 -103.5t209 -22.5zM774 1248l-27 -3l18 -31l-57 -87l-36 14l46 73l-45 78l-47 -147l-35 10q20 60 20 115q0 78 -41 137.5t-109 82.5q102 -97 102 -211q0 -57 -26 -111l-28 6q-27 -29 -36.5 -57.5
t-9.5 -81.5l3 -316l94 -21l59 98l32 -8l-57 -98l36 13l177 243l10 137l36 2l-11 -154l-48 -66l67 -157q79 -181 293 -217l-75 102q-44 58 -64.5 122.5t-20.5 154.5h40q0 -87 17.5 -144t62.5 -118l92 -127l-67 -365l69 -17l128 476l-32 102l39 17l33 -113l-7 -26l554 -28
l247 75l-134 211l39 20l140 -220l172 -126l-18 -371l79 -20l34 391l-21 133l67 255l-16 105q-14 95 -105 136t-261 41q-59 0 -288 -30q-230 -31 -277 -31q-186 0 -515 92q-128 36 -189.5 48t-102.5 12zM1799 116l69 -17l187 318l38 120l-116 -37l-70 -219zM809 116l69 -17
l187 318l6 50q-39 12 -90 40l-64 -226zM431 1079q-54 -20 -101 -20q-95 0 -181 82q16 -45 38 -68.5t50.5 -40t55.5 -23.5t52 -7q49 0 86 24v53zM549 788l-2 -56l-66 15l31 53zM844 67l-59 15l-21 -47h69zM1174 67l-59 15l-21 -47h69zM1834 67l-59 15l-21 -47h69zM2404 67
l-59 15l-21 -47h69zM569 924l-47 16l-19 28l33 94l32 -12l-5 -59l16 -41z" />
  </g>

</svg>
