<?xml version="1.0" standalone="no"?>
<!DOCTYPE svg PUBLIC "-//W3C//DTD SVG 1.1//EN" "http://www.w3.org/Graphics/SVG/1.1/DTD/svg11.dtd" >
<svg xmlns="http://www.w3.org/2000/svg" xmlns:xlink="http://www.w3.org/1999/xlink" version="1.1" viewBox="-10 0 2415 2048">
  <g transform="matrix(1 0 0 -1 0 1638)">
   <path fill="currentColor"
d="M309 604l-28 -48l-52 44l53 32zM1231 1966l-2 -18q37 28 80 28q54 0 85.5 -35t31.5 -89q0 -43 -30 -75t-70 -32q-22 0 -51 12l-77 -469l-250 62q85 -74 85 -184q0 -88 -46 -141q144 86 311 115v-79q-61 -20 -103.5 -46t-85.5 -55q-56 -38 -116 -74t-130 -53
q29 -30 67 -64.5t57.5 -45t78.5 -28.5l766 784l369 -575l-32 -20l-32 49l-81 -24l17 -53l-36 -12l-18 54l-85 -25l8 -49l-38 -6l-88 590l-708 -724q82 -20 177 -20q97 0 311 32q160 25 225 25q155 0 277 -76.5t192 -204.5l14 -240q0 -44 -25 -98t-68 -102h-531l-87 23h-479
l-175 -23h-708l-123 40l-8 90l98 71l448 53l-23 152l-56 144l-25 -23l-103 12l-84 -52l-85 3q-37 2 -78.5 42t-47.5 74q2 15 52 88.5t136.5 181t101.5 116.5h42q-23 72 -23 142q0 46 27 147q26 96 26 210q0 50 -4 102h67q28 -150 28 -222l-3 -54q72 95 193 95q35 0 67 -10
l-178 200l352 288q-17 15 -26 38.5t-9 45.5q0 44 35 78.5t89 34.5q47 0 80.5 -34.5t33.5 -86.5zM579 1166q0 -68 39 -121t98 -75q45 -11 84 -11q77 0 136 61t59 146q0 86 -61 147t-147 61t-147 -61t-61 -147zM922 1396l244 -62l81 492q13 -13 38.5 -28t40.5 -15q26 0 44 21
t18 48q0 39 -22 62.5t-57 23.5q-33 0 -62 -24.5t-73 -97.5zM1193 1966q0 35 -22 59t-54 24q-37 0 -61.5 -22.5t-24.5 -52.5q0 -35 49 -81l-347 -295l162 -174l244 408q54 88 54 134zM1929 910l187 56l-254 395zM541 1166q0 28 6 54q4 36 9.5 72.5t5.5 75.5q0 45 -5 84t-8 65
h-11l1 -52q0 -109 -25 -194q-23 -74 -23 -137q0 -74 26 -142h90q-29 36 -47.5 81.5t-18.5 92.5zM797 920q-81 0 -146 34h-203q-36 -32 -147 -174.5t-119 -171.5q6 -24 35 -51t55 -29l74 -3l85 51l99 -12l73 70l26 -28l-30 -27l62 -164l24 -187l-476 -65l-70 -46l5 -48
l93 -31h698l175 23h487l86 -24l512 1q29 29 50 74t21 85l-14 235q-74 124 -184.5 187.5t-246.5 63.5q-57 0 -219 -25q-201 -31 -303 -31q-174 0 -317 57q-44 19 -167 142l-35 -7l23 -12l47 -106h-130l-67 56l24 28l56 -46h59l-18 42l-49 29l-45 -6l-4 38l57 3
q96 12 167.5 40t186.5 103q84 55 160 87v20q-107 -25 -219 -88q-76 -43 -128.5 -65t-102.5 -22zM421 760v50l20 27h99v-34l-57 -15l-34 -28h-28z" />
  </g>

</svg>
