<?xml version="1.0" standalone="no"?>
<!DOCTYPE svg PUBLIC "-//W3C//DTD SVG 1.1//EN" "http://www.w3.org/Graphics/SVG/1.1/DTD/svg11.dtd" >
<svg xmlns="http://www.w3.org/2000/svg" xmlns:xlink="http://www.w3.org/1999/xlink" version="1.1" viewBox="-10 0 1584 2048">
  <g transform="matrix(1 0 0 -1 0 1638)">
   <path fill="currentColor"
d="M1163 1496v-39l134 -37q53 -14 76 -92l101 -357l-49 -267l27 -49v-61l-54 -102l-47 15l29 79l-15 36l-31 -53l-47 10l22 113l22 274l-88 270l-66 -233l-7 -133l30 -175q0 -53 -26 -85.5t-71 -35.5l-66 -4q-194 -12 -258 -21q49 -90 93 -218.5t64 -244.5l-272 -88l-27 84
l102 59q44 25 44 54q0 20 -10 36q-132 191 -154.5 226t-38.5 99l-186 -556h-294v89l138 19q31 6 45.5 32t22.5 55l65 287l8 79q25 89 35 105q41 58 131.5 101.5t189.5 69.5q134 35 168 78l4 62l-79 253l-379 -135l-52 31l-11 61l275 336l24 52l49 37l114 10l12 -42l-80 -22
l-20 -32l60 5l16 -39l-114 -54l-116 -153l154 84q43 43 135 64l71 17v69l-68 -5l-13 105l-46 14l99 125v106h320q-47 51 -63.5 81.5t-16.5 53.5t18 40t48 17q27 0 45.5 -13t18.5 -35q0 -26 -34 -49l-17 21l10 7q10 8 10 16q0 22 -33 22q-32 0 -32 -31q0 -39 86 -130h1
l99 187h61zM1146 1663q0 21 -23 21h-5v51h-164l-72 -92l28 -8l10 -93l74 7v-124l-100 -22q-33 -7 -65.5 -22.5t-49.5 -34.5l-224 -119l-10 19l162 209l101 49l-3 9l-73 -7l-8 11l34 51l75 23l-2 11l-85 -14l-41 -35l-26 -54l-259 -320l4 -30l36 -19l396 145l88 -294l-6 -84
q-21 -26 -62 -45.5t-111 -38.5q-201 -56 -292 -139q163 -26 284 -92l339 26q19 2 32 11t20.5 21.5t10.5 27t3 27.5l-30 170l10 145l79 258h44l98 -299l-27 -274l-17 -100l9 -3l37 63h13l23 -57l-25 -75l10 -4l38 78l-5 53l-28 53l45 275l-100 340q-11 36 -22.5 51t-24.5 19
l-168 42v60l-27 54q52 80 52 119zM569 620q-53 24 -120 29q-16 -33 -32 -92l-11 -79l-67 -295q-22 -92 -82 -102l-122 -17v-27h240zM605 608q3 -22 14.5 -63.5t19.5 -55.5l48 -74l115 -172q16 -22 16 -51q0 -42 -67 -79l-76 -43l9 -27l212 70q-18 104 -61 225t-94 210
q-52 39 -136 60zM1150 1735v-31q29 0 29 -31q0 -33 -17 -66t-32 -62l12 -26l166 313h-339v-67h192v-30h-11zM1029 1665q-36 2 -53.5 11t-31.5 27q7 7 25 7q28 0 40 -11t20 -34z" />
  </g>

</svg>
