<?xml version="1.0" standalone="no"?>
<!DOCTYPE svg PUBLIC "-//W3C//DTD SVG 1.1//EN" "http://www.w3.org/Graphics/SVG/1.1/DTD/svg11.dtd" >
<svg xmlns="http://www.w3.org/2000/svg" xmlns:xlink="http://www.w3.org/1999/xlink" version="1.1" viewBox="-10 0 1870 2048">
  <g transform="matrix(1 0 0 -1 0 1638)">
   <path fill="currentColor"
d="M100 2050h658v-87h445v-129h-869v-40l102 -79l31 -76v-23l227 -359l-170 409l42 24l55 -58l3 50l-59 91l40 33l96 -114l19 -81l-8 -88l126 -237l173 43l-15 65l-100 -28l-22 123h-61l73 177l10 35q15 55 62 89t116 34q88 0 156 -53t68 -129q0 -37 -25.5 -93.5
t-66.5 -112.5l16 -71q72 -11 130 -43t90.5 -81t79.5 -154t92 -233q146 -180 146 -297q0 -87 -50.5 -133.5t-144.5 -46.5q-61 0 -158 26.5t-210 75t-147 74.5v-1l3 -16q30 -134 32 -199l-2 -99q0 -29 17.5 -80t37.5 -97l-74 -61h-324v92l150 25l53 57l-43 143l-45 144
l-79 -195l-50 -137l-18 -129h-392v92l166 24l77 24l40 57l77 318q38 162 69 214.5t78 67.5q8 17 40.5 30.5t58.5 13.5q62 0 123.5 -16.5t117 -40t155.5 -81.5l5 5l-92 176l-117 94l-147 163l-274 -62l-67 5l-240 423l-52 45v-564h-136v393h-98v669zM977 1184l168 -187
l123 -100l111 -226l-30 -23l-84 46q-192 108 -336 108q-80 0 -80 -111q0 -57 47 -232t89 -299l-77 -77l-127 -16v-29h265l47 40q-45 97 -45 143l3 83q0 45 -10.5 112.5t-41.5 179.5l28 15q46 -35 148 -82.5t213.5 -79.5t181.5 -32q69 0 109.5 40.5t40.5 99.5
q0 51 -48.5 141.5t-87.5 128.5q-31 93 -86 221t-95 186q-57 79 -210 101l-26 115l-75 35q39 101 39 113q0 28 -23 28q-17 0 -24.5 -8t-14.5 -22l-157 45l-51 -124h41l18 -111l98 27l29 -124l-365 -96l-244 390l-2 34l-24 65l-78 55v-17l58 -71l-14 -58h-44v-17l75 -63
l243 -412l34 -3zM138 1419h98v-393h60v846h869v53h-443v87h-584v-593zM355 67v-29h319l14 97l52 144l102 245q-33 115 -33 181l4 44q-21 -14 -39 -48t-40 -111l-101 -409l-52 -71l-86 -23zM1164 1606q0 -21 -32 -101l56 -28q72 101 72 165q0 55 -57.5 99.5t-132.5 44.5
q-42 0 -72 -15t-47.5 -37t-19.5 -42l-6 -19l130 -38q18 25 54 25q21 0 38 -16t17 -38zM804 1276l-119 233l6 102l-14 72l-69 88l-12 -11l57 -88l-7 -81l-15 -5l-63 71l-8 -6l170 -394zM1027 1553l-48 -5q-41 0 -71 26q6 8 23 13.5t31 5.5q23 0 37 -9t28 -31zM334 1702v-69
h25l6 30z" />
  </g>

</svg>
