<?xml version="1.0" standalone="no"?>
<!DOCTYPE svg PUBLIC "-//W3C//DTD SVG 1.1//EN" "http://www.w3.org/Graphics/SVG/1.1/DTD/svg11.dtd" >
<svg xmlns="http://www.w3.org/2000/svg" xmlns:xlink="http://www.w3.org/1999/xlink" version="1.1" viewBox="-10 0 1636 2048">
  <g transform="matrix(1 0 0 -1 0 1638)">
   <path fill="currentColor"
d="M413 0l-79 13l-77 -13h-99l-58 94l249 506l156 393q74 117 193.5 185t256.5 68q133 0 261 -40.5t217 -109.5q43 -116 68 -232t25 -196q0 -168 -73 -497q-29 -87 -107 -127.5t-220 -43.5h-713zM415 189h88l31 -96l-40 -53h632q252 4 290 146q1 6 7 31t14 63t16.5 86
t15.5 100t12 104t5 98q0 152 -87 406q-84 63 -201.5 97.5t-242.5 34.5t-233.5 -59t-177.5 -166l-158 -396l-243 -486l37 -59h78l74 13l96 -13h25l41 57l-18 54h-61v38zM492 594q78 113 162 178t159 65q49 0 123 -26.5t227 -108.5q114 -62 138 -62q59 0 92 20l14 -38
q-41 -22 -106 -22q-22 0 -69 21q-44 -19 -177.5 -56t-210.5 -37q-49 0 -105 11t-118.5 31t-77.5 27l-17 -25zM523 794q75 77 152.5 121.5t145.5 44.5q95 0 213 -44t231 -116l-20 -34q-109 65 -224 109.5t-200 44.5q-62 0 -137 -46t-139 -114zM734 682q0 -42 29 -71t71 -29
t71 29t29 71t-29 71t-71 29t-71 -29t-29 -71zM1183 645q-171 92 -235 118q26 -37 26 -81q0 -63 -49 -106q92 16 258 69zM694 682q0 53 34 91q-72 -36 -160 -143q12 -5 64.5 -22.5t106.5 -28.5q-45 43 -45 103z" />
  </g>

</svg>
