<?xml version="1.0" standalone="no"?>
<!DOCTYPE svg PUBLIC "-//W3C//DTD SVG 1.1//EN" "http://www.w3.org/Graphics/SVG/1.1/DTD/svg11.dtd" >
<svg xmlns="http://www.w3.org/2000/svg" xmlns:xlink="http://www.w3.org/1999/xlink" version="1.1" viewBox="-10 0 1181 2048">
  <g transform="matrix(1 0 0 -1 0 1638)">
   <path fill="currentColor"
d="M627 1888q0 61 42.5 103.5t103.5 42.5t103.5 -42.5t42.5 -103.5q0 -74 -59 -118q29 18 43 43.5t20 73.5q10 67 20.5 102t29.5 62l51 -11q-19 -24 -28.5 -62t-13.5 -104q-6 -91 -48.5 -145t-103.5 -61v-8h56v-34q-14 -23 -17 -79q122 -40 128 -163l33 -691h-90v-567
l131 -54v-72h-971v72l178 72l-81 311q-18 83 -18 117q0 52 30 80.5t70 28.5q31 0 55 -12t64 -58l164 -192l38 300l-78 110l161 241l-22 128l-70 -8l-32 74l-51 2l82 180l3 21q16 63 83 86q-2 49 -16 73v34h56v8q-60 7 -103 60.5t-49 145.5q-4 68 -13.5 104.5t-28.5 61.5
l51 11q19 -27 30 -63t20 -101q5 -47 19.5 -74.5t42.5 -42.5q-58 45 -58 118zM568 828l68 -91l-48 -386l-21 -8l-193 241q-47 58 -91 58q-30 0 -48 -20t-18 -51q0 -12 2.5 -28t5.5 -33t6.5 -33t5.5 -27l81 -322l-179 -74v-22h893v22l-129 52v587h-161l41 605l5 12
q26 36 26 43q0 23 -22 23q-20 0 -31 -21l-141 80l-65 -145l31 -1l26 -70l75 10l36 -165zM788 733h201l-30 650q-3 64 -57 103t-149 39q-102 0 -124 -63l128 -74q11 18 40 18q27 0 39.5 -16t12.5 -35q0 -25 -29 -54zM647 1888q0 -52 37 -89t89 -37t89 37t37 89t-37 89t-89 37
t-89 -37t-37 -89zM743 1660h17v57q-60 10 -98.5 40t-47.5 70l-8 48q-16 116 -41 153l-14 -4q17 -25 24.5 -58.5t11.5 -92.5q4 -75 47 -120.5t109 -58.5v-34zM786 1660h17v34q65 13 108.5 58t48.5 121q3 60 10 93.5t25 57.5l-14 4q-25 -37 -40 -153q-9 -67 -30 -92
t-50.5 -41.5t-74.5 -24.5v-57zM752 1564q43 0 83 -8q0 38 10 68h-144q6 -21 10 -63zM698 1345l-38 -4q-34 0 -57 21q15 15 44 15q18 0 29 -7t22 -25z" />
  </g>

</svg>
