<?xml version="1.0" standalone="no"?>
<!DOCTYPE svg PUBLIC "-//W3C//DTD SVG 1.1//EN" "http://www.w3.org/Graphics/SVG/1.1/DTD/svg11.dtd" >
<svg xmlns="http://www.w3.org/2000/svg" xmlns:xlink="http://www.w3.org/1999/xlink" version="1.1" viewBox="-10 0 2425 2048">
  <g transform="matrix(1 0 0 -1 0 1638)">
   <path fill="currentColor"
d="M1131 656q118 -76 216 -213t169.5 -331.5t98.5 -394.5h-40q-27 203 -105.5 407t-185 337t-233.5 195h-890q-20 24 -40.5 71.5t-20.5 83.5q0 40 23.5 55t71.5 15h1579q86 0 157.5 -52.5t109.5 -137.5q107 -195 179.5 -463.5t94.5 -510.5h-40q-22 244 -92.5 500.5
t-167.5 438.5h-410q89 -72 169 -232t139.5 -379t68.5 -328h-40q-7 89 -52.5 264t-104 318.5t-123.5 234t-130 122.5h-401zM140 809q0 -54 41 -113h1803q-5 24 -40.5 61.5t-83.5 60.5t-104 23h-1534l-34 1q-28 0 -38 -8t-10 -25z" />
  </g>

</svg>
