<?xml version="1.0" standalone="no"?>
<!DOCTYPE svg PUBLIC "-//W3C//DTD SVG 1.1//EN" "http://www.w3.org/Graphics/SVG/1.1/DTD/svg11.dtd" >
<svg xmlns="http://www.w3.org/2000/svg" xmlns:xlink="http://www.w3.org/1999/xlink" version="1.1" viewBox="-10 0 1674 2048">
  <g transform="matrix(1 0 0 -1 0 1638)">
   <path fill="currentColor"
d="M410 1269l3 19l10 7l-16 28l59 41l-69 348l-102 -408l-35 8l14 56l-42 8l-18 -54l-37 9l21 53l-36 8l-28 -51l-34 8l305 499l98 -468l482 -20l9 95q7 79 92 143l42 32l-8 74l-30 -11l-77 -103l-48 41l89 82l-24 71l-43 3l70 164l2 17q10 40 46 61.5t90 21.5
q86 0 146 -40.5t74 -111.5l28 -522h-89v-199l35 19h99l76 -41v-332q-24 -32 -52.5 -104t-28.5 -108q0 -61 56 -147l18 -32l-21 -273l-33 -48l-13 -112h-171l106 215l3 159l-105 277h-511l-28 -64l-20 -427l-33 -48l-13 -112h-185l111 203l-32 412l47 113q-30 -5 -48.5 -23.5
t-32.5 -67.5t-20 -129q-8 -91 -11.5 -114.5t-16 -87t-28.5 -131.5l-12 -175h-371v88l168 23q26 3 51 36.5t28 67.5l2 475q5 79 57.5 140t136.5 78l388 68l3 39l-317 43l-50 -53l-60 -6l-67 29l-22 46l39 83l35 -9l-12 53l-54 10zM962 1106l-260 6l-148 31l4 -20l8 -13
l-7 -15l-66 35l-27 -55l7 -22l53 -29l51 8l53 59l366 -46l26 6l195 180l25 -22l-207 -192l-42 -6l-7 -69l-406 -68q-72 -14 -119.5 -72t-50.5 -129l-4 -470q-4 -45 -36.5 -82.5t-65.5 -39.5l-153 -17v-27h304l10 137l44 233l7 58q10 116 14.5 144t21 68t32.5 57t39.5 26.5
t59.5 9.5h631v607h-135l48 452q15 11 21 24.5t6 18.5q0 20 -16 20q-17 0 -29 -18l-118 68l-57 -136l27 -1l27 -82l65 21l16 -129q-79 -55 -104 -88.5t-29 -71.5l-26 -263l163 175l23 -22l-191 -207zM1375 34h77l13 93l32 47l19 249q-43 67 -58.5 111t-15.5 78q0 75 82 223
l-1 293l-50 29h-68l-51 -28v-432l115 -316l-3 -174zM1215 1916q17 15 34 15q47 0 47 -57q0 -30 -31 -52l-39 -405h174l-24 482q-22 111 -180 111q-73 0 -90 -31zM654 603l31 -408l-81 -161h77l13 93l32 47l19 417l42 100h527v39h-607zM699 1143l265 1l6 60l-373 52l-21 -13
l-25 -33l-11 -5l8 -38zM973 1237l9 90l-472 23l3 -20l32 -8l25 -41l18 8zM370 1732l-177 -308l90 -21zM1124 1862q-30 0 -48 18q11 13 37 13q16 0 25 -6.5t19 -21.5zM557 1256l-24 41l-18 6l-36 -5l-41 -23l20 -37l35 -11l41 2zM446 1308l28 14l-4 18l-31 -20z" />
  </g>

</svg>
