<?xml version="1.0" standalone="no"?>
<!DOCTYPE svg PUBLIC "-//W3C//DTD SVG 1.1//EN" "http://www.w3.org/Graphics/SVG/1.1/DTD/svg11.dtd" >
<svg xmlns="http://www.w3.org/2000/svg" xmlns:xlink="http://www.w3.org/1999/xlink" version="1.1" viewBox="-10 0 1269 2048">
  <g transform="matrix(1 0 0 -1 0 1638)">
   <path fill="currentColor"
d="M525 1588v53l-88 6l-16 104l-48 6l65 142l-3 27v13q0 47 52 79.5t138 32.5q87 0 139 -49t52 -125q0 -57 -42 -126l-32 -58v-101l55 -5q72 -5 124 -37.5t75 -92.5l127 -258l28 -339l8 -163l-20 -63l-51 -62l-52 31l40 57l4 57l-9 52l-7 -1l-8 -29l9 -53l-62 -8l-12 84
l46 135l-49 252l-149 240h-6l-34 -268q46 -66 64 -125.5t18 -127.5q0 -34 -9 -94l-3 -43q0 -46 13 -96l8 -38q59 -247 59 -452q0 -75 -10 -145h-324v88l113 23q60 12 60 45q0 24 -11 55l-123 387l-12 74h-6l-20 -75l-199 -597h-317v88q86 15 132.5 22.5t61.5 82.5l63 240
l-3 86l28 78l132 485l-74 307h-7l-121 -247l-36 -218l14 -142l-31 -79l-58 22l20 50l-1 30l-7 2l-20 -49l-9 -56l26 -65l-58 -18l-35 72l-6 66l45 157l21 278l100 265q19 50 56 83.5t90 38.5zM555 1070l-33 -119q72 13 147 62.5t93 95.5l2 -1l40 321h55l163 -270l47 -272
l-55 -136l8 -52l17 1l-5 41l22 71l32 3l18 -94l-6 -66l-35 -46l17 -9l33 47l18 55l-19 150l-29 325l-125 258q-22 62 -63 88t-119 33l-67 7v95l-87 77l38 62q6 9 14.5 27.5t8.5 26.5q0 34 -27 34q-14 0 -25 -11h-172l-40 -93l27 -4l15 -104l96 -6v-110l-119 -9
q-90 -8 -127 -113l-98 -265l-24 -272l-53 -142l5 -58l22 -53l18 5l-23 53l8 65l39 88l31 -10l5 -75l-14 -38l16 -5l20 49l-23 145l36 230l135 277h56zM392 37l188 560l9 55q-10 -7 -63 -25.5t-104 -29.5l-30 -83v-85l-65 -248q-13 -49 -33 -71t-49 -29l-113 -17v-27h260z
M684 666l10 -67l117 -382q14 -48 14 -62q0 -57 -87 -74l-85 -17v-27h252q8 45 8 118q0 190 -63 442l-31 11q-90 31 -135 58zM839 641q-10 41 -10 79q0 35 11 103l2 43q0 112 -56 203q-35 -51 -112.5 -97.5t-149.5 -60.5q30 -75 62 -117t93.5 -81t159.5 -72zM704 1705l44 68
q30 46 30 98q0 62 -42.5 101.5t-107.5 39.5q-71 0 -111 -22.5t-40 -51.5l3 -29h158q10 10 31 10q26 0 40 -20t14 -42q0 -15 -6.5 -34t-16.5 -31l-34 -51zM625 700q-80 58 -126 165l-63 -231q117 30 189 66zM560 1837q-24 -17 -48 -17q-45 0 -45 20q0 10 13 16t27 6
q28 0 53 -25z" />
  </g>

</svg>
