<?xml version="1.0" standalone="no"?>
<!DOCTYPE svg PUBLIC "-//W3C//DTD SVG 1.1//EN" "http://www.w3.org/Graphics/SVG/1.1/DTD/svg11.dtd" >
<svg xmlns="http://www.w3.org/2000/svg" xmlns:xlink="http://www.w3.org/1999/xlink" version="1.1" viewBox="-10 0 1428 2048">
  <g transform="matrix(1 0 0 -1 0 1638)">
   <path fill="currentColor"
d="M1247 66l-160 70v773q0 108 -46 168t-130 60q-67 0 -108.5 -56t-53.5 -159l-53 -446l-25 -10l-240 298q-22 27 -49.5 50t-62.5 23q-38 0 -60.5 -25t-22.5 -63q0 -37 19 -117l103 -468l-218 -98v-26h1107v26zM1130 1615q0 71 -19 150t-42 110q39 30 39 60q0 26 -18 44.5
t-45 18.5q-25 0 -44 -18t-19 -44q0 -15 13 -48q-76 -37 -144 -127.5t-103 -194.5l256 -62l-36 -200l74 -17q88 192 88 328zM914 1177q32 0 62 -9l13 92l-64 16l35 199l-233 57l-71 -158l39 -2l42 -113l92 30l18 -126q34 14 67 14zM1077 1269q65 -42 99 -104t34 -154v-72h68
v66q0 112 -49.5 177t-146.5 98zM836 1448l-48 -5q-41 0 -71 26q6 8 23 13.5t31 5.5q23 0 37 -9t28 -31zM710 1576q16 53 53.5 122.5t83 123t99.5 85.5l-4 29q0 42 30.5 72t72.5 30q44 0 73.5 -31t29.5 -72q0 -43 -27 -70q20 -42 34.5 -110.5t14.5 -139.5q0 -131 -75 -305
q84 -28 132 -70t69.5 -97t21.5 -152v-87h-148v98q0 155 -109 241l-32 7l-13 -101q109 -66 109 -241v-751l162 -68v-89h-1187v89l212 90l-93 425q-21 98 -21 146q0 55 34 91t82 36q44 0 71 -14.5t68 -64.5l213 -262l42 390q17 159 107 220l-12 98l-45 -16l-112 -153l-72 61
l131 119l-34 89l-64 3l88 195q-64 26 -64 57q0 17 7.5 26t7.5 16q0 10 -13 10h-19q-15 0 -15 8q0 5 16.5 16.5t46.5 11.5q23 0 34 -13t11 -25q0 -15 -10 -25q-11 -11 -11 -21q0 -19 24 -27z" />
  </g>

</svg>
