<?xml version="1.0" standalone="no"?>
<!DOCTYPE svg PUBLIC "-//W3C//DTD SVG 1.1//EN" "http://www.w3.org/Graphics/SVG/1.1/DTD/svg11.dtd" >
<svg xmlns="http://www.w3.org/2000/svg" xmlns:xlink="http://www.w3.org/1999/xlink" version="1.1" viewBox="-10 0 2400 2048">
  <g transform="matrix(1 0 0 -1 0 1638)">
   <path fill="currentColor"
d="M1195 -261q-256 0 -468 70t-371 199.5t-256 311.5h488v57l126 60q28 106 61 565l6 79l-22 56q-48 114 -53 160q-24 96 -43.5 129.5t-43.5 45.5t-53 12q-37 0 -98 -28q-53 -23 -72 -23q-25 0 -43 11l-15 -14l-8 -8l-49 65q111 133 204 189q24 14 37 27q50 50 67.5 59
t52.5 17.5t59 9.5l99 258l119 -35l-44 -93l67 76l101 -80l-146 -146q-29 -27 -29 -42q0 -19 98 -153q115 -159 139 -206q47 -54 233 -146l156 -77q79 -40 140 -119.5t88 -178.5l2 97q0 96 -7 245l-13 304l81 88h36l80 -81q-36 -404 -49 -530t-25.5 -223.5t-25.5 -182
t-24 -136.5q-5 -23 -26.5 -53.5t-51.5 -54.5h591q-97 -182 -256 -311.5t-371 -199.5t-468 -70zM1764 1498l-20 -24q17 -231 17 -495q0 -194 -11 -301l-31 1q-2 124 -74.5 253.5t-164.5 175.5q-219 108 -301 158t-111 85q-24 54 -140 214q-103 141 -103 161q0 30 23 52
l140 136l-43 37q-124 -145 -199 -197q-103 -15 -133.5 -28t-51.5 -36q-27 -30 -61 -48q-30 -16 -59 -39t-53 -46.5t-41.5 -44t-26.5 -30.5l11 -15q38 38 113 85l15 -20q-8 -4 -44.5 -28.5t-38.5 -29.5l13 -2q24 0 67 20q26 11 52 21.5t58 10.5q43 0 79.5 -20t58 -62.5
t42.5 -138.5l12 -51l22 -51l22 -50q19 77 45 122l36 -15q-46 -80 -63 -192l-7 -88q-19 -331 -59 -563l-129 -61v-34h18v27h23v-27h17v27h22v-27h22l75 33l53 241q29 76 87 197.5t93 173.5l35 -11l-48 -79q66 -12 155 -42q70 -28 123 -74q4 96 62 152l31 -22
q-22 -21 -37.5 -61.5t-15.5 -91.5q0 -41 23.5 -82.5t56.5 -81t68.5 -76t59.5 -66.5q-160 -33 -350 -56q-60 12 -97 12q-17 0 -33.5 -10t-24.5 -24v-31h20v28h23v-28h16v28h23v-28h13l6 16l4 7q84 -21 131 -21h331q40 0 80 38t47 73q35 180 68.5 475.5t56.5 571.5l-22 23
l-10 -198l-20 2l12 217l-17 18h-7l-15 -20l12 -215l-20 -2zM1195 -221q336 0 602.5 131t413.5 370h-2032q148 -240 415 -370.5t601 -130.5zM1468 459l-46 50q-95 94 -125 199q-17 24 -62.5 51.5t-109.5 47.5t-117 30q-90 -195 -113 -254l-57 -247l-30 -16h205v50
q13 26 36.5 41t51.5 15q27 0 97 -14zM748 1794q39 32 74 69l53 121l-53 15zM576 1635q3 10 15 25t34 15q25 0 38 -10q-22 -41 -55 -41q-18 0 -32 11z" />
  </g>

</svg>
