<?xml version="1.0" standalone="no"?>
<!DOCTYPE svg PUBLIC "-//W3C//DTD SVG 1.1//EN" "http://www.w3.org/Graphics/SVG/1.1/DTD/svg11.dtd" >
<svg xmlns="http://www.w3.org/2000/svg" xmlns:xlink="http://www.w3.org/1999/xlink" version="1.1" viewBox="-10 0 1631 2048">
  <g transform="matrix(1 0 0 -1 0 1638)">
   <path fill="currentColor"
d="M1185 157l162 -68v-89h-1247v89l212 90l-103 465q-17 79 -17 146q0 50 35.5 88.5t86.5 38.5q37 0 63 -11t48 -35.5t241 -294.5l42 495h-97v66q0 67 27 137.5t73 129.5q64 81 81.5 109t21.5 52q-32 -23 -91 -23q-31 0 -174 23l-62 7q-26 -30 -26 -71h-66q-9 19 -9 50l2 31
q-34 7 -58.5 18.5t-24.5 57.5q0 32 12 44q75 72 203 115q94 69 189 98v5l-8 3l-35 3q-13 0 -59 -17q-47 -17 -68 -17q-22 0 -72 28q-52 28 -85 28q-36 0 -84 -22q-49 -23 -70 -23q-57 0 -91.5 38.5t-34.5 109.5h49q3 -39 21 -54t56 -15q16 0 68 24t85 24q37 0 85 -29
q47 -30 74 -30q22 0 80 18q57 17 83 17q44 0 92 -41h32q45 41 93 41q26 0 84 -17q57 -18 79 -18q27 0 75 30q47 29 84 29q33 0 86 -24q51 -24 67 -24q38 0 56 15t21 54h49q0 -71 -34.5 -109.5t-91.5 -38.5q-21 0 -69 23q-49 22 -85 22q-33 0 -85 -28q-50 -28 -72 -28
q-21 0 -67 17q-47 17 -60 17l-35 -3l-8 -3v-5q175 -43 270.5 -185t95.5 -358v-301h-95v-914zM1147 136v916q0 120 -54.5 189t-151.5 69q-78 0 -129 -61.5t-63 -183.5l-53 -549l-25 -10l-240 298q-22 27 -49.5 50t-62.5 23q-38 0 -63.5 -25t-25.5 -63q0 -48 22 -151l106 -474
l-218 -98v-26h1167v26zM1240 1111v261q0 148 -56.5 271.5t-152 184.5t-220.5 64q-51 0 -100 -17t-87 -37.5t-61.5 -37.5t-23.5 -18q-116 -36 -194 -108v-15h169v-30h-160q79 -16 208 -31.5t153 -15.5q49 0 85 19t51 38q6 -27 6 -50q0 -72 -66 -149q-80 -93 -110 -162.5
t-30 -140.5v-26h61q18 111 81 175t151 64q94 0 158.5 -64t78.5 -175h59zM789 1766q-39 -31 -78 -31q-44 0 -85 26q41 39 83 39q44 0 80 -34z" />
  </g>

</svg>
