<?xml version="1.0" standalone="no"?>
<!DOCTYPE svg PUBLIC "-//W3C//DTD SVG 1.1//EN" "http://www.w3.org/Graphics/SVG/1.1/DTD/svg11.dtd" >
<svg xmlns="http://www.w3.org/2000/svg" xmlns:xlink="http://www.w3.org/1999/xlink" version="1.1" viewBox="-10 0 2647 2048">
  <g transform="matrix(1 0 0 -1 0 1638)">
   <path fill="currentColor"
d="M109 1577l177 6q28 36 94.5 79t103.5 47q29 85 29 246h47q42 -67 61 -139q12 77 12 139h47q55 -106 55 -181q0 -63 -35 -129q45 -62 99 -181l24 -61q43 -108 64.5 -143t40.5 -46.5t72 -19.5t160 -8q56 0 181 23q120 22 207.5 36.5t163.5 14.5q157 0 297.5 -93.5t261 -278
t193.5 -411t73 -418.5q0 -42 -7 -89q-64 29 -112.5 79.5t-87 121t-98.5 240.5q-17 47 -56 191q-49 174 -77 249t-54 109h-6l84 -271q8 -29 8 -40q0 -76 -97 -76h-312l-18 -2q-63 -9 -128 -9q-88 0 -148 10l-9 -21h-193v91q17 35 49.5 54.5t67.5 19.5q48 0 137 -26
q35 5 103.5 18t165.5 19q-39 28 -85 72.5t-79 89.5q-51 -37 -133.5 -74.5t-165 -59t-156.5 -21.5h-60v-44q0 -45 -20.5 -70t-55 -35.5t-108.5 -10.5h-230l-251 -14q-41 0 -116 17l-18 -26h-171v105q23 31 58 50t72 19q41 0 97 -26l441 54l-8 62q-37 25 -79.5 69t-61.5 82
t-50.5 147t-62.5 241l-288 74q-49 12 -79 36.5t-30 56.5v56zM633 1622q26 28 44 68.5t18 83.5q0 40 -24 106q-14 -164 -78 -260l-34 22l14 28q-87 0 -145 -27.5t-119 -97.5l-160 -2v-22l1 -9l143 -2v-26l-101 -6q15 -8 36 -12l312 -80q23 -102 50.5 -203.5t45 -151t46 -86.5
t73.5 -74l-1 17v17q0 97 24 155l36 -16q-20 -45 -20 -139q0 -8 0.5 -17t16.5 -163l-494 -68q-42 28 -87 28q-48 0 -90 -42v-52h21v35h23v-35h29v35h23v-35h13l22 32q76 -23 134 -23l251 14h230q62 0 87 7.5t41 23t16 45.5v222h40v-138h60q91 0 205.5 39.5t227.5 112.5
q-9 15 -22.5 61t-13.5 68h40q0 -31 18 -83t106 -139t136 -105l-6 -35q-136 0 -285 -31l-66 -12q-78 26 -127 26q-22 0 -42.5 -12.5t-34.5 -32.5v-40h26v35h23v-35h29v35h23v-35h24l12 30q68 -19 173 -19q61 0 142 11h316q57 0 57 36l-6 28l-82 261q0 78 20 98
q53 -53 95.5 -142.5t89.5 -257.5l30 -110q19 -69 67 -200.5t91 -196t100 -97.5l1 14v13q0 184 -73 409t-188 401.5t-248 263.5t-276 87q-89 0 -302 -40q-190 -34 -250 -34q-159 0 -234 25q-77 30 -152 249q-8 23 -39 88.5t-56 102.5l-20 -21zM552 1887q-4 -108 -27 -177h58
q4 22 4 49q0 24 -10.5 62t-24.5 66zM446 1589q0 8 8 14t21 6t22 -6t9 -14q0 -9 -9 -15t-22 -6t-21 6t-8 15z" />
  </g>

</svg>
