<?xml version="1.0" standalone="no"?>
<!DOCTYPE svg PUBLIC "-//W3C//DTD SVG 1.1//EN" "http://www.w3.org/Graphics/SVG/1.1/DTD/svg11.dtd" >
<svg xmlns="http://www.w3.org/2000/svg" xmlns:xlink="http://www.w3.org/1999/xlink" version="1.1" viewBox="-10 0 2787 2048">
  <g transform="matrix(1 0 0 -1 0 1638)">
   <path fill="currentColor"
d="M1423 574q0 47 -28 72.5t-71 25.5q-50 0 -125 -10t-127 -22h171l91 -167l-15 -17l-175 30l-102 39l-672 -19l-92 24l3 110q43 45 108 71.5t223 56.5q72 11 187 39l-244 248q-58 55 -74 124q-45 -50 -77 -113q-98 -204 -195 -204q-55 0 -81.5 27.5t-26.5 98.5q0 48 22 102
l82 308l14 114l85 143l6 65l-83 117l32 24l85 -121l211 -3l79 123l34 -22l-77 -120l70 -99l163 84q91 50 157 80t80 30q40 0 60.5 -12.5t20.5 -52.5q0 -83 -167 -184l-216 -130q13 -15 74.5 -84.5t96.5 -94t63.5 -38t45.5 -13.5q26 0 129 37l354 -3q239 -3 375.5 -13
t258 -57t214 -118.5t158.5 -169.5t89.5 -203t26.5 -177l33 -489l-40 -2l-33 489l-10 78l-109 -2l-39 -48l-647 -30l-78 -18l-176 52l83 62l88 49q-14 5 -40 14t-57 9q-86 0 -118 -95l-42 -133l-40 8zM318 564l61 -18l669 18l104 -40l120 -19l-55 95l-251 5h-452
q-58 0 -81 -36l-34 22q17 24 47.5 39t67.5 15h426q230 67 383 67q64 0 100 -26t45 -84q40 102 148 102q56 0 190 -55l376 -25l44 17l3 14l-222 151q-56 37 -85 80.5t-29 84.5q0 53 42 88t110 35q38 0 100 -18t118 -43l-18 -36q-125 57 -200 57q-52 0 -82 -24t-30 -59
q0 -65 96 -132l246 -170l-18 -54l-71 -31l-426 31l-91 -45l-37 -30l91 -22l70 17l626 27l30 33l-188 245q-25 33 -25 66q0 46 42 54l6 -40q-8 -2 -8 -14q0 -24 16 -42l193 -250l103 2l-9 46q-24 121 -106.5 229t-212.5 184t-291 102q-145 22 -792 25q-24 -10 -71.5 -24
t-65.5 -14q-29 0 -85 30t-92 66l-139 155l-46 -27l-20 31l297 179q68 42 107.5 83t39.5 67q0 16 -10.5 20.5t-30.5 4.5q-18 0 -175 -83l-237 -123l-96 133l-205 1l-6 -57l-84 -143l-13 -107l-84 -317q-20 -43 -20 -89q0 -48 16.5 -67t51.5 -19q34 0 75 46t84 136
q26 53 81 118t91 82l18 -36q-20 -11 -39 -30q8 -84 64 -133q69 -66 134.5 -138t136.5 -139q55 116 118.5 182t120.5 66q48 0 79 -24l-26 -30l-12 7q-24 7 -41 7q-45 0 -100 -63t-109 -174l-19 -5l-245 -46q-140 -26 -200.5 -49t-97.5 -59zM291 1389q0 18 12.5 30.5
t30.5 12.5t30.5 -12.5t12.5 -30.5t-12.5 -30.5t-30.5 -12.5t-30.5 12.5t-12.5 30.5z" />
  </g>

</svg>
