<?xml version="1.0" standalone="no"?>
<!DOCTYPE svg PUBLIC "-//W3C//DTD SVG 1.1//EN" "http://www.w3.org/Graphics/SVG/1.1/DTD/svg11.dtd" >
<svg xmlns="http://www.w3.org/2000/svg" xmlns:xlink="http://www.w3.org/1999/xlink" version="1.1" viewBox="-10 0 2361 2048">
  <g transform="matrix(1 0 0 -1 0 1638)">
   <path fill="currentColor"
d="M582 1143l739 -977q81 -110 162 -217t162 -192t160.5 -137t157.5 -52q112 0 180 65.5t68 168.5q0 66 -27.5 121t-79 88t-125.5 33q-59 0 -103 -26.5t-74 -66t-38 -73.5l-38 10q10 39 49.5 91t92 78.5t111.5 26.5q83 0 144 -38t94.5 -103t33.5 -141q0 -75 -36 -138.5
t-102 -99.5t-150 -36q-58 0 -114.5 24.5t-113 67t-112 101t-111.5 126.5t-111.5 143.5t-111.5 151.5q-159 220 -341 455t-366 479v-1553h-115q-22 210 -85.5 455.5t-135 392t-146.5 189.5v116q138 0 210.5 39.5t104 130.5t31.5 297h136zM542 -437v1540h-56
q0 -173 -33.5 -271t-106 -144t-203.5 -49v-42q127 -132 220 -398.5t141 -635.5h38z" />
  </g>

</svg>
