<?xml version="1.0" standalone="no"?>
<!DOCTYPE svg PUBLIC "-//W3C//DTD SVG 1.1//EN" "http://www.w3.org/Graphics/SVG/1.1/DTD/svg11.dtd" >
<svg xmlns="http://www.w3.org/2000/svg" xmlns:xlink="http://www.w3.org/1999/xlink" version="1.1" viewBox="-10 0 2725 2048">
  <g transform="matrix(1 0 0 -1 0 1638)">
   <path fill="currentColor"
d="M664 934l-54 91q-19 36 -54.5 161t-58.5 227l-288 74q-49 12 -79 36.5t-30 56.5v56l177 6q28 36 94.5 79t103.5 47q29 85 29 246h47q42 -67 61 -139q12 77 12 139h47q55 -106 55 -181q0 -63 -35 -129q35 -48 76 -132t72 -180q24 -75 46 -120t40 -54.5t67.5 -17
t158.5 -7.5q56 0 181 23q120 22 207.5 36.5t163.5 14.5q115 0 229.5 -51.5t222 -153.5t201.5 -245t152.5 -297.5t82.5 -253.5t24 -170q0 -42 -7 -89q-106 49 -186 151.5t-142 279.5l-46 134q-100 297 -165 383h-6q16 -108 69 -245.5t107 -214.5q-3 -197 -20 -330l-5 -93
l-108 -72h-159v85l140 105l1 23v19q0 99 -20 249l-22 23l6 -39l-167 -381l-122 -84h-159v85l179 111l72 283v44q-125 151 -180 262q-64 59 -99 111q-81 -58 -214.5 -105t-240.5 -50l-74 -2l43 -77l10 -138l-1 -52q0 -141 13 -226l10 -70h1v-1l-2 -101l-115 -74h-159v85
l128 96q-11 57 -51.5 209t-91.5 260l-5 -28q-106 -258 -117 -301q-12 -43 -24 -99t-38 -125l-137 -97h-159v85l192 121zM906 38v35h23v-35h29v35h23v-35h13l89 59l1 79q-4 12 -14.5 91t-10.5 195l1 63l-3 54q-3 59 -7 81l-125 205l40 2l62 -88l94 2q90 1 207 41.5t226 110.5
q-9 15 -22.5 61t-13.5 68h40q0 -25 15 -73t63 -107t114 -115.5t128 -94.5q103 -63 150.5 -99t77.5 -76q22 -165 22 -265v-31l-1 -30l-144 -104v-29h23v35h23v-35h29v35h23v-35h13l82 57l5 91q15 121 18 298q-53 85 -100.5 207.5t-71.5 241.5q0 78 20 98q124 -126 221 -429
q82 -259 149 -370t157 -163l1 14v13q0 50 -12 109t-30.5 121t-68 194t-136 267.5t-188.5 236t-213.5 152t-223.5 51.5q-89 0 -302 -40q-190 -34 -250 -34q-203 0 -248.5 33t-98.5 186q-73 209 -134 298l-20 -21l-26 32q26 28 44 68.5t18 83.5q0 40 -24 106
q-14 -164 -78 -260l-34 22l14 28q-87 0 -145 -27.5t-119 -97.5l-160 -2v-22l1 -9l143 -2v-26l-101 -6q15 -8 36 -12l312 -80l42 -172q42 -159 64 -209.5t88 -153.5q109 -174 161 -292t87.5 -255t44.5 -200h-1l-134 -96v-29h23zM801 710q-44 81 -105 175l-120 -700l-188 -118
v-29h23v35h23v-35h29v35h23v-35h13l115 82l58 211q14 57 115 298zM1770 702q29 -45 61 -83.5t64 -83.5l-1 -61l-79 -300l-175 -107v-29h23v35h23v-35h29v35h23v-35h13l100 69l28 59l131 303l-10 76q-33 26 -117 80q-80 51 -113 77zM544 1950q-4 -108 -27 -177h58q4 22 4 49
q0 24 -10.5 62t-24.5 66zM437 1648q0 8 8 14t21 6t22 -6t9 -14q0 -9 -9 -15t-22 -6t-21 6t-8 15z" />
  </g>

</svg>
