<?xml version="1.0" standalone="no"?>
<!DOCTYPE svg PUBLIC "-//W3C//DTD SVG 1.1//EN" "http://www.w3.org/Graphics/SVG/1.1/DTD/svg11.dtd" >
<svg xmlns="http://www.w3.org/2000/svg" xmlns:xlink="http://www.w3.org/1999/xlink" version="1.1" viewBox="-10 0 1995 2048">
  <g transform="matrix(1 0 0 -1 0 1638)">
   <path fill="currentColor"
d="M1148 1121q46 -66 64 -125.5t18 -127.5q0 -34 -5 -62q-7 -41 -7 -102q0 -17 9 -51l12 -56q59 -247 59 -452q0 -75 -10 -145h-294v88l113 23q60 12 60 48v11q0 4 -104 366l-9 61h-163l-190 -597h-287v88q86 15 132.5 22.5t61.5 82.5l63 240l-3 86l28 78h-22l214 485
l-74 309l-355 -11l-239 324l-82 76l-31 78l58 24l20 -50l21 -22l6 3l-19 50l-30 47l-63 30l30 52l74 -28l49 -46l68 -129l195 -245l184 15q48 16 200 33v49l-88 6l-16 104l-48 6l65 142l-3 27v13q0 53 43 82.5t122 29.5q87 0 139 -49t52 -125q0 -57 -42 -126l-32 -58v-92
q37 -4 144 -37l233 -20l195 245l68 129l49 46l74 28l30 -52l-63 -30l-30 -47l-19 -50l6 -3l21 22l20 50l58 -24l-31 -78l-82 -76l-239 -324l-349 10zM1061 1566v92l-87 77l38 62q6 9 14.5 27.5t8.5 26.5q0 34 -27 34q-14 0 -25 -11h-147l-40 -93l27 -4l15 -104l96 -6v-104
q-59 -5 -124 -17t-93 -22l-219 -19l-212 271l-53 126l-43 40l-53 23l-9 -15l53 -25l38 -51l30 -93l-29 -13l-55 51l-14 37l-16 -6l19 -49l90 -74l238 -309l361 12l76 -330l194 35l29 295l361 -12l238 309l90 74l19 49l-16 6l-14 -37l-55 -51l-29 13l30 93l38 51l53 25l-9 15
l-53 -23l-43 -40l-53 -126l-212 -271l-268 24q-50 20 -79.5 26.5t-78.5 10.5zM1194 633q-17 38 -17 61q0 56 12 129l2 43q0 54 -17.5 118t-61.5 118l-191 -36l-183 -433h456zM676 37l179 560h-119l-30 -83v-85l-65 -248q-13 -49 -33 -71t-49 -29l-113 -17v-27h230zM1094 597
l9 -59l100 -355l3 -28q0 -59 -89 -74l-85 -17v-27h222q8 45 8 118q0 190 -63 442h-105zM1054 1705l44 68q30 46 30 98q0 62 -42.5 101.5t-107.5 39.5q-61 0 -93.5 -19.5t-32.5 -54.5l3 -29h133q10 10 31 10q26 0 40 -20t14 -42q0 -15 -6.5 -34t-16.5 -31l-34 -51zM935 1837
q-24 -17 -48 -17q-45 0 -45 20q0 10 13 16t27 6q28 0 53 -25z" />
  </g>

</svg>
