<?xml version="1.0" standalone="no"?>
<!DOCTYPE svg PUBLIC "-//W3C//DTD SVG 1.1//EN" "http://www.w3.org/Graphics/SVG/1.1/DTD/svg11.dtd" >
<svg xmlns="http://www.w3.org/2000/svg" xmlns:xlink="http://www.w3.org/1999/xlink" version="1.1" viewBox="-10 0 1671 2048">
  <g transform="matrix(1 0 0 -1 0 1638)">
   <path fill="currentColor"
d="M346 1111h-38l-26 13l-156 -116l-26 36l144 106l-6 9l-11 71l22 49l95 14l60 -23l419 311l-34 60l-86 6l-16 104l-48 6l65 142l-3 27v13q0 53 43 82.5t122 29.5q87 0 139 -49t52 -125q0 -57 -42 -126l-44 -60l374 278l26 -36l-23 -18q19 -42 48 -77t84 -81
q41 -35 61 -70.5t20 -81.5q0 -64 -38.5 -105.5t-103.5 -41.5q-76 0 -117.5 58t-41.5 171q0 45 6 91.5t8 82.5l-274 -204q55 -2 102 -31t75 -79l199 -357q60 -110 71.5 -148.5t11.5 -77.5q0 -32 -18 -132q-13 -69 -13 -115v-24q0 -76 4 -96q59 -247 59 -452q0 -75 -10 -145
h-294v88l113 23q60 12 60 48v11q0 4 -104 366l-9 61h-119l-190 -597h-287v88q86 15 132.5 22.5t61.5 82.5l67 240l-7 86l28 78h-22l167 463l-202 248l15 -271l-65 -30l-393 94l-26 17zM960 1628l-201 -151q-14 -84 -14 -95l33 -208l-33 -15l-299 43l-71 43l-37 13l-66 -9
l-14 -28l9 -47l9 -12l35 -17l34 -3l57 9l31 -17l395 -90l25 12l-21 304l36 14l237 -286l218 113l-183 335q-48 86 -180 92zM1391 633l-1 37v37q0 62 20 170q10 58 10 85q0 43 -14.5 83.5t-64.5 115.5l-233 -117l-136 -411h419zM913 37l179 560h-119l-30 -83v-85l-65 -248
q-13 -49 -33 -71t-49 -29l-113 -17v-27h230zM1287 597l9 -59l100 -355l3 -28q0 -59 -89 -74l-85 -17v-27h222q8 45 8 118q0 190 -63 442h-105zM1297 1690q0 -92 32 -143t89 -51q46 0 74.5 29.5t28.5 79.5q0 43 -23 73.5t-55.5 59.5t-66 63t-54.5 85l-8 -6q-17 -153 -17 -190
zM926 1851q0 34 -27 34q-14 0 -25 -11h-147l-40 -93l27 -4l15 -104l84 -6l37 -66l85 63l-55 81l23 52q6 9 14.5 27.5t8.5 26.5zM736 1193l-27 166l-3 22q0 28 15 69l-278 -206l11 -7zM946 1706l43 67q30 46 30 98q0 62 -42.5 101.5t-107.5 39.5q-61 0 -93.5 -19.5
t-32.5 -54.5l3 -29h133q10 10 31 10q26 0 40 -20t14 -42q0 -15 -6.5 -34t-16.5 -31l-22 -46zM826 1837q-24 -17 -48 -17q-45 0 -45 20q0 10 13 16t27 6q28 0 53 -25z" />
  </g>

</svg>
