<?xml version="1.0" standalone="no"?>
<!DOCTYPE svg PUBLIC "-//W3C//DTD SVG 1.1//EN" "http://www.w3.org/Graphics/SVG/1.1/DTD/svg11.dtd" >
<svg xmlns="http://www.w3.org/2000/svg" xmlns:xlink="http://www.w3.org/1999/xlink" version="1.1" viewBox="-10 0 1458 2048">
  <g transform="matrix(1 0 0 -1 0 1638)">
   <path fill="currentColor"
d="M114 809q55 344 55 562q0 105 -36 259q-33 150 -33 225q0 88 65 142t167 54h7q-17 -81 -17 -149q0 -43 24 -165q42 -240 42 -353q0 -201 -60 -575h-214zM292 849q56 351 56 535q0 94 -28 247q-9 49 -26 156l-13 -1q-32 0 -59 19.5t-27 69.5q0 61 24 116q-33 -11 -56 -50
t-23 -86q0 -69 34 -221q35 -175 35 -263q0 -182 -50 -522h133zM294 2011l-35 -8q-28 -60 -28 -128q0 -50 48 -50h7q-5 36 -5 76q0 46 13 110zM594 809q55 344 55 562q0 105 -36 259q-33 150 -33 225q0 88 65 142t167 54h7q-17 -81 -17 -149q0 -43 24 -165q42 -240 42 -353
q0 -201 -60 -575h-214zM772 849q56 351 56 535q0 94 -28 247q-9 49 -26 156l-13 -1q-32 0 -59 19.5t-27 69.5q0 61 24 116q-33 -11 -56 -50t-23 -86q0 -69 34 -221q35 -175 35 -263q0 -182 -50 -522h133zM774 2011l-35 -8q-28 -60 -28 -128q0 -50 48 -50h7q-5 36 -5 76
q0 46 13 110zM1074 809q55 344 55 562q0 105 -36 259q-33 150 -33 225q0 88 65 142t167 54h7q-17 -81 -17 -149q0 -43 24 -165q42 -240 42 -353q0 -201 -60 -575h-214zM1252 849q56 351 56 535q0 94 -28 247q-9 49 -26 156l-13 -1q-32 0 -59 19.5t-27 69.5q0 61 24 116
q-33 -11 -56 -50t-23 -86q0 -69 34 -221q35 -175 35 -263q0 -182 -50 -522h133zM1254 2011l-35 -8q-28 -60 -28 -128q0 -50 48 -50h7q-5 36 -5 76q0 46 13 110zM114 -600q55 344 55 562q0 105 -36 259q-33 150 -33 225q0 88 65 142t167 54h7q-17 -81 -17 -149q0 -43 24 -165
q42 -240 42 -353q0 -201 -60 -575h-214zM292 -560q56 351 56 535q0 94 -28 247q-9 49 -26 156l-13 -1q-32 0 -59 19.5t-27 69.5q0 61 24 116q-33 -11 -56 -50t-23 -86q0 -69 34 -221q35 -175 35 -263q0 -182 -50 -522h133zM294 602l-35 -8q-28 -60 -28 -128q0 -50 48 -50h7
q-5 36 -5 76q0 46 13 110zM594 -600q55 344 55 562q0 105 -36 259q-33 150 -33 225q0 88 65 142t167 54h7q-17 -81 -17 -149q0 -43 24 -165q42 -240 42 -353q0 -201 -60 -575h-214zM772 -560q56 351 56 535q0 94 -28 247q-9 49 -26 156l-13 -1q-32 0 -59 19.5t-27 69.5
q0 61 24 116q-33 -11 -56 -50t-23 -86q0 -69 34 -221q35 -175 35 -263q0 -182 -50 -522h133zM774 602l-35 -8q-28 -60 -28 -128q0 -50 48 -50h7q-5 36 -5 76q0 46 13 110zM1074 -600q55 344 55 562q0 105 -36 259q-33 150 -33 225q0 88 65 142t167 54h7q-17 -81 -17 -149
q0 -43 24 -165q42 -240 42 -353q0 -201 -60 -575h-214zM1252 -560q56 351 56 535q0 94 -28 247q-9 49 -26 156l-13 -1q-32 0 -59 19.5t-27 69.5q0 61 24 116q-33 -11 -56 -50t-23 -86q0 -69 34 -221q35 -175 35 -263q0 -182 -50 -522h133zM1254 602l-35 -8q-28 -60 -28 -128
q0 -50 48 -50h7q-5 36 -5 76q0 46 13 110z" />
  </g>

</svg>
