<?xml version="1.0" standalone="no"?>
<!DOCTYPE svg PUBLIC "-//W3C//DTD SVG 1.1//EN" "http://www.w3.org/Graphics/SVG/1.1/DTD/svg11.dtd" >
<svg xmlns="http://www.w3.org/2000/svg" xmlns:xlink="http://www.w3.org/1999/xlink" version="1.1" viewBox="-10 0 1376 2048">
  <g transform="matrix(1 0 0 -1 0 1638)">
   <path fill="currentColor"
d="M733 1540l-65 6l31 406q9 90 92 99q46 -11 64 -42q29 37 70 42q75 -21 75 -97v-15l-33 -417l-65 5l-2 -20q143 -33 216.5 -153t73.5 -320v-268h-70v-615l146 -61v-90h-1076v90l192 81l-85 374q-19 95 -19 131t12 58l-51 131l15 22l34 -7l-43 136l-95 -62l-32 72l97 27
l-65 59q-50 48 -50 97q0 33 20 59t62 26q53 0 73 -39t20 -110v-71l86 59l33 -69l-114 -29l91 -171l62 -10l23 -79q21 -13 53 -56l192 -235l30 282h-81v58q0 71 26 148.5t56 112.5l-255 225h-42l159 130q69 57 137 73zM1081 819q0 100 -40 153.5t-117 53.5q-58 0 -95.5 -49
t-48.5 -146l-47 -401l-33 -9l-216 268q-20 24 -42.5 44.5t-54.5 20.5q-34 0 -49.5 -22.5t-15.5 -56.5q0 -18 5 -58t14 -77l88 -388l-203 -88v-23h999v23l-144 63v692zM689 806h46q10 96 36 148.5t66.5 80t89.5 27.5q92 0 142.5 -63.5t50.5 -180.5v-12h31v228q0 184 -70 298
t-212 145q20 -17 32.5 -56.5t12.5 -73.5q0 -44 -16.5 -85t-58.5 -98l-59 -79q-91 -122 -91 -279zM602 1310h-68l219 -194l69 88q22 30 36.5 73.5t14.5 73.5q0 67 -29 100t-80 33q-44 0 -77.5 -21.5t-62.5 -44.5l-90 -74h68v-34zM857 1799q33 -8 57 -33.5t31 -59.5l19 236v10
q0 52 -42 63q-26 -3 -39 -24.5t-15 -44.5zM718 1723q11 34 39.5 55t63.5 24l11 147q0 53 -44 67q-47 -5 -52 -67zM747 1684q0 -35 25 -58.5t59 -23.5q33 0 56.5 25.5t23.5 57.5q0 34 -24 57.5t-59 23.5q-31 0 -55 -22t-26 -54v-6zM181 1255q-18 0 -30.5 -13.5t-12.5 -34.5
q0 -32 39 -69l61 -56l-1 66q0 55 -11.5 81t-44.5 26zM317 763q29 27 65 27l33 -2l-10 34l-119 18zM663 1385q0 14 10 24t24 10q15 0 25 -10t10 -24q0 -15 -10 -25t-25 -10q-14 0 -24 10t-10 25zM795 1572q-32 9 -54 33.5t-28 56.5l-6 -84zM934 1561l7 83q-11 -30 -36.5 -51
t-58.5 -25zM768 1519l8 1h9q42 0 80 -6l1 15l-97 8z" />
  </g>

</svg>
