<?xml version="1.0" standalone="no"?>
<!DOCTYPE svg PUBLIC "-//W3C//DTD SVG 1.1//EN" "http://www.w3.org/Graphics/SVG/1.1/DTD/svg11.dtd" >
<svg xmlns="http://www.w3.org/2000/svg" xmlns:xlink="http://www.w3.org/1999/xlink" version="1.1" viewBox="-10 0 3001 2048">
  <g transform="matrix(1 0 0 -1 0 1638)">
   <path fill="currentColor"
d="M2062 766l41 22q-87 -17 -169 -17q-94 0 -289 34l-2 -75l149 -521l-81 -138l-16 -71h-171l56 115l65 118l-5 81q-3 28 -140 315q-12 -20 -54 -85.5t-64 -94.5q-49 -56 -95 -159l-71 -175l-63 -58l-9 -57h-178l60 122l86 86l101 264l138 357q-49 14 -91 39t-60 51
q-37 49 -91 168.5t-61 143.5q-16 50 -47 103v-29q0 -17 -8 -33.5t-27 -16.5q-12 0 -21.5 17t-9.5 52v56h-4q-10 0 -25 -5t-67 -34l2 -92q0 -34 -6.5 -48t-20.5 -14q-37 0 -37 52l-4 83q-40 9 -74.5 37t-34.5 58q0 35 40.5 88t123 124t123.5 94q-24 24 -40 24q-20 0 -80 -21
q-85 -30 -133 -30q-33 0 -106 25q-69 24 -94 24q-24 0 -95 -21q-89 -28 -143 -28q-99 0 -160 130l53 44q24 -36 58 -57t64 -21q23 0 116 30q38 12 73.5 23t61.5 11q29 0 84 -23q60 -24 94 -24q33 0 91 21q84 28 141 28q80 0 140 -78q60 78 140 78q57 0 141 -28
q58 -21 91 -21q34 0 94 24q55 23 84 23q26 0 61.5 -11t73.5 -23q93 -30 116 -30q31 0 64.5 21t57.5 57l53 -44q-39 -73 -77.5 -101.5t-82.5 -28.5t-142 28q-73 21 -96 21q-25 0 -94 -24q-73 -25 -106 -25q-48 0 -133 30q-60 21 -80 21q-25 0 -53 -39l40 -26
q45 -35 210 -135.5t208 -113.5q83 -29 285 -29q167 0 306 16q92 10 145 10q73 0 148 -12.5t104.5 -31.5t53.5 -48t31 -54q69 -45 101.5 -108t32.5 -158q0 -57 -10 -120q-11 -63 -20.5 -151t-6.5 -91q0 -90 75 -351l-56 -16q-36 39 -101 201l-14 -170l9 -182l-49 -74l-9 -64
h-189l61 120q61 168 61 197t-25 117t-53 160q-14 -35 -44 -35q-17 0 -39 18l-12 -12l-37 -99l-182 -361l-61 -62l-6 -43h-189l61 120v-1l90 96l260 640l-3 9l-117 -38l-165 -96zM1301 1076q7 -51 56 -134.5t126 -174.5l197 -424l4 -118l-71 -115l64 -26l75 133l-148 516
l4 92q-89 160 -94 237l38 10q6 -47 36.5 -120.5t45.5 -103.5q210 -35 344 -35q64 0 167.5 24t210.5 65q-28 59 -122 190l44 8q97 -133 144.5 -211.5t102.5 -194t87 -225t32 -156.5q0 -21 -25.5 -100.5t-36.5 -108.5l74 -30l33 73l-9 174l19 246l-62 186l2 57l24 92
q40 147 40 253l-2 47q33 -16 57 -66t24 -100l-1 -13l-11 -98q-32 -222 -32 -274q0 -71 38 -177t73 -148q-29 102 -49 198t-20 132q0 64 18 185q19 134 19 187q0 67 -36 135t-91 88q-27 94 -110 116t-198 23q-52 0 -150 -10q-114 -12 -174 -14l-171 -2q-162 0 -253 31
q-47 14 -191.5 101.5t-221.5 141.5q-10 -89 -48 -148t-86 -59q-17 0 -34.5 20.5t-17.5 65.5q0 57 91 176q-41 13 -87 13q-39 0 -71 -21t-69 -49q-195 -148 -195 -219q0 -16 21 -32l54 30l36 9l4 -21l-29 -15l-32 -21q17 -7 29 -7l18 8q34 19 76 40t66 21q32 0 70 -49.5
t69 -136.5q10 -31 52 -124t70.5 -140.5t62.5 -70.5t89 -42q-89 133 -98 205zM1396 816l-249 -628l-78 -84l58 -23l54 58l68 163q21 46 50 96.5t49 71.5q79 117 129 205l-46 95zM2061 102l72 -29l45 54q129 263 176 350l29 82q-26 10 -26 86q0 34 12 79.5t27 78.5l10 22l-5 9
l-261 -640zM1151 1726q31 37 51.5 49t38.5 12q19 0 42.5 -7.5t49.5 -15.5q76 -28 121 -28q22 0 94 23q78 26 106 26q21 0 48 -7q117 -33 141.5 -37.5t48.5 -4.5q35 0 64 18t55 64l-9 10q-51 -73 -123 -73q-43 0 -130 29q-93 32 -123 32q-28 0 -68 -19q-64 -28 -110 -28
q-41 0 -105 23q-27 9 -56.5 17.5t-70.5 8.5q-65 0 -117 -74l1 -1l-3 -1v-1q28 -4 54 -15zM1052 1746q-50 72 -116 72q-41 0 -70.5 -8.5t-56.5 -17.5q-64 -23 -105 -23q-46 0 -110 28q-40 19 -68 19q-30 0 -123 -32q-87 -29 -130 -29q-72 0 -123 73l-9 -10q17 -38 49 -60
t70 -22q46 0 132 26q31 8 58 15.5t48 7.5q28 0 106 -26q72 -23 94 -23q45 0 121 28q26 8 49.5 15.5t42.5 7.5q41 0 79 -48q26 7 49 7h13zM1164 1676q-57 -76 -73 -108t-16 -51q0 -46 12 -46q37 0 65 64.5t31 128.5zM2706 676q5 61 22 180q19 133 19 176q0 32 -8 60
q-15 -106 -61 -286l-1 -52zM2431 782q-34 -77 -34 -137q0 -17 4 -34.5t10 -17.5q29 0 29 64h22v-11q0 -47 20 -47q14 0 20 49zM928 1568v41l17 22h80v-27l-46 -13l-28 -23h-23zM2105 53l-64 16l-16 -29h80v13zM1112 53l-64 16l-16 -29h80v13zM1668 53l-64 16l-16 -29h80v13z
M786 1459l-33 -39l-24 24l42 34zM2632 49l-64 20l-16 -29h80v9z" />
  </g>

</svg>
