<?xml version="1.0" standalone="no"?>
<!DOCTYPE svg PUBLIC "-//W3C//DTD SVG 1.1//EN" "http://www.w3.org/Graphics/SVG/1.1/DTD/svg11.dtd" >
<svg xmlns="http://www.w3.org/2000/svg" xmlns:xlink="http://www.w3.org/1999/xlink" version="1.1" viewBox="-10 0 3128 2048">
  <g transform="matrix(1 0 0 -1 0 1638)">
   <path fill="currentColor"
d="M1292 0h-60l-642 44l-155 -44h-136l-125 56l-74 82l48 55l113 -68q17 -11 45.5 -12.5t59.5 -1.5q57 0 93 16l-4 17q-42 -7 -75 -7q-59 0 -106 40l29 60q54 -18 69 -18q32 0 54.5 7t43.5 10l106 -48l321 26l256 -3l25 20l185 527q55 155 196 155t196 -155l185 -527l25 -20
l256 3l321 -26l106 48q21 -3 43.5 -10t54.5 -7q15 0 69 18l29 -60q-47 -40 -106 -40q-33 0 -75 7l-4 -17q36 -16 93 -16q31 0 59.5 1.5t45.5 12.5l113 68l48 -55l-74 -82l-125 -56h-136l-155 44l-642 -44h-60l-60 42l-207 512l-207 -512zM1573 623l233 -564l33 -22h41
l653 46l152 -50h127l113 49l55 55l-15 19l-84 -50q-39 -25 -93 -25h-33q-73 0 -125 28l18 60q42 -6 89 -6t73 22l-7 15q-36 -12 -53 -12q-33 0 -57.5 7t-43.5 9l-104 -53l-322 23l-281 -3l-41 34l-186 547q0 1 -8 20t-26.5 41.5t-48 41t-73.5 18.5t-73.5 -18.5t-48 -41
t-26.5 -41.5t-8 -20l-186 -547l-41 -34l-281 3l-322 -23l-104 53q-19 -2 -43.5 -9t-57.5 -7q-17 0 -53 12l-7 -15q26 -22 73 -22q41 0 89 6l18 -60q-52 -28 -125 -28q-35 0 -63.5 2t-62.5 23l-84 50l-15 -19l55 -55l113 -49h127l152 50l653 -46h41l33 22l233 564h28z" />
  </g>

</svg>
