<?xml version="1.0" standalone="no"?>
<!DOCTYPE svg PUBLIC "-//W3C//DTD SVG 1.1//EN" "http://www.w3.org/Graphics/SVG/1.1/DTD/svg11.dtd" >
<svg xmlns="http://www.w3.org/2000/svg" xmlns:xlink="http://www.w3.org/1999/xlink" version="1.1" viewBox="-10 0 2653 2048">
  <g transform="matrix(1 0 0 -1 0 1638)">
   <path fill="currentColor"
d="M2483 1501l-55 6l-63 37l-57 18l-32 35l-93 -604q18 -65 18 -134q0 -44 -9.5 -71.5t-28.5 -49t-44 -36.5l12 -405l3 -21l13 -140l13 -25l62 -80l-10 -31h-146l-39 75l6 33l-15 61l19 58l-11 135l-15 158l-78 -225l-4 -159l13 -25l62 -80l-10 -31h-139l-39 75l6 33l-15 61
l23 58v129l35 135q35 133 38 174q-29 -26 -58.5 -43t-73.5 -20l-90 -305l21 -187l47 -87l-13 -23h-97l-46 81l6 35l-30 173l10 102l-51 -120l1 -161l47 -87l-13 -23h-97l-46 81l6 35l-10 147l21 179q-51 94 -51 169l1 22q-11 -37 -11 -72l10 -206q0 -63 -28 -63
q-24 0 -37 26q-11 -26 -36 -26q-14 0 -19.5 14.5t-5.5 64.5v48l5 68l4 63q0 39 -13 83v-16q0 -39 -8 -74t-42 -101l21 -179l-10 -147l6 -35l-46 -81h-97l-13 23l47 87l1 161l-51 120l10 -102l-30 -173l6 -35l-46 -81h-97l-13 23l47 87l21 187l-90 305q-44 3 -73.5 20
t-58.5 43q3 -41 39 -174l34 -135v-129l23 -58l-15 -61l6 -33l-39 -75h-139l-10 31l62 80l13 25l-4 159l-78 225l-15 -158l-11 -135l19 -58l-15 -61l6 -33l-39 -75h-146l-10 31l62 80l13 25q0 37 14 140l2 21l12 405q-25 15 -43.5 36t-28.5 49t-10 72q0 69 18 134l-93 604
l-32 -35l-57 -18l-63 -37l-55 -6l-51 14l-9 24l32 91l75 87l55 67l48 37q-51 10 -51 53q0 19 16 37q56 -7 77 -67l35 1l-3 21q-15 47 -15 58q0 8 5.5 14.5t13.5 6.5q24 0 28 -36q1 -11 2 -30t5 -30h6l12 32l7 25q13 53 38 53q9 0 14.5 -8t5.5 -19q0 -21 -15 -46
q-17 -28 -22 -50l37 -15q16 19 43 35.5t49 18.5q5 -15 6 -32q0 -26 -7 -44t-19.5 -27.5t-58.5 -9.5q7 -12 17 -54l7 2l84 -40l291 -9l267 114q22 13 73 13l22 1v27l-60 3l-9 61l-28 3l38 81l-3 24q0 24 25.5 44t79.5 20q51 0 85.5 -28t34.5 -72q0 -35 -24 -72l-28 -35v-56
q20 -2 42.5 -3t42.5 -11l272 -112l251 9l53 28l31 12l23 -5v1q10 38 18 54q-45 0 -58 9t-19.5 27.5t-6.5 44.5q0 17 5 32q22 -2 49.5 -18.5t42.5 -35.5l37 15q-5 22 -22 50q-15 25 -15 46q0 11 5.5 19t14.5 8q25 0 38 -53q7 -33 19 -57h6q4 11 5 30q2 36 8 51t22 15
q8 0 13.5 -6.5t5.5 -14.5q0 -11 -15 -58l-3 -21l35 -1q21 60 77 67q16 -18 16 -37q0 -43 -51 -53l48 -37l55 -67l75 -87l32 -91l-9 -24zM1417 710l-1 -24q0 -63 17 -133.5t41 -109.5l-21 -180l11 -149l-6 -30l25 -56h49l-38 71l3 188l132 320q15 76 15 88l-2 28q0 8 4.5 14
t11.5 6q9 0 14 -9.5t5 -43.5l-1 -34v-16l59 -5q76 0 173 66l2 26l-1 12q0 25 16 25q8 0 14.5 -11.5t6.5 -35.5l-5 -64v-3q-6 -44 -38 -150q-32 -103 -38 -146l-1 -134l-23 -52l17 -59l-5 -28l28 -53h69l-7 25l-30 36l-19 34v178l151 419q65 6 93 43.5t28 107.5q0 67 -19 128
l103 656l47 -27l25 -34l55 -19l54 -33l47 -7l27 12l-28 76l-75 78l-44 59q-30 21 -59.5 39.5t-67.5 18.5q-32 0 -52 -22t-37 -97q-74 -402 -111 -465q-52 -90 -150 -172.5t-186 -106.5q-68 -18 -141.5 -54t-115.5 -81t-59.5 -80.5t-27.5 -82.5t-10 -109l2 -64q-6 -42 -6 -92
q0 -25 4.5 -51.5t13.5 -26.5t9 27l-2 57l-9 174q3 105 64 138zM1226 710q61 -33 65 -138l-3 -51l-9 -180q0 -27 9 -27t13.5 27.5t4.5 50.5q0 8 -6 92l2 64q0 32 -2 57t-12.5 67t-24.5 70.5t-55.5 74.5t-115.5 83t-144 55q-86 22 -185 105t-151 174q-32 53 -112 466
q-13 57 -22.5 75.5t-25 30.5t-40.5 12q-38 0 -67.5 -18.5t-59.5 -39.5l-44 -59l-75 -78l-28 -76l27 -12l47 7l54 33l55 19l25 34l47 27l103 -656q-19 -51 -19 -128q0 -70 28 -107.5t93 -43.5l151 -419v-178l-19 -34l-30 -36l-7 -25h69l28 53l-5 28l17 59l-23 52l-1 134
q-6 43 -37 146q-33 106 -39 150v3l-5 64q0 24 6.5 35.5t14.5 11.5q16 0 16 -25l-1 -12l2 -26q97 -66 173 -66l59 5l-1 16v34q0 34 5 43.5t14 9.5q7 0 11.5 -6t4.5 -14l-2 -28q0 -12 15 -88l132 -320l3 -188l-38 -71h49l25 56l-6 30l11 149l-21 180q24 39 40.5 108.5
t17.5 134.5zM928 1552l-341 38l-15 11l-16 -2q37 -183 55.5 -253.5t32.5 -93.5q46 -79 142 -164t168 -102l11 -3l18 41l87 -20q8 0 14 7.5t56 116.5l9 41l15 45h-13l117 280l-55 164zM2086 1599l-15 9l-18 2l-14 -8l-301 -38l-289 103l-10 -150l206 -542l44 11
q69 16 163 97.5t147 168.5q19 33 43.5 136.5t43.5 210.5zM929 1629l-312 10l-57 37l-19 5l11 -55l21 6l25 -16l323 -30l316 113l59 -190l112 20l13 182l324 -113l283 27l25 9l36 -14l13 64v2l-12 2l-29 -8l-52 -39l-272 -10l-269 115q-21 12 -77 14l-28 1v65l-51 44l33 36
q13 22 13 31q0 19 -15 19q-8 0 -10.5 -7t-3.5 -9h-89l-19 -43l15 -2l9 -61l55 -3v-70q-87 -6 -107 -15zM1321 650q9 76 45.5 134.5t107.5 112.5l-20 42l54 40q21 15 21 31l-2 9l-90 156l-17 39h-121l-154 -302q69 -41 117 -107.5t59 -154.5zM1510 1245l-98 254l-115 -20
l-93 -234h306zM1606 289l31 -175l-6 -30l25 -56h49l-38 71l-17 214l79 289l-57 7l-44 -105zM971 609l-57 -7l79 -289l-17 -214l-38 -71h49l25 56l-6 30l31 175l-22 215zM2042 609l16 -195l13 -194l-19 -52l17 -59l-5 -28l28 -53h76l-7 25l-30 36l-19 34l-16 180l-15 393
l-5 -4zM562 696l-15 -393l-16 -180l-19 -34l-30 -36l-7 -25h76l28 53l-5 28l17 59l-19 52l13 194l16 195l-34 83zM1116 928l150 286h-69l-17 -47l-10 -42l-49 -104q-21 -44 -47 -44q-4 0 -73 20l-6 -15l53 -24q36 -12 68 -30zM1453 1214l17 -38q77 -132 88 -149l4 -16
q0 -21 -32 -45l-41 -29l8 -14l117 53l-94 238h-67zM1368 1853l26 38q18 28 18 58q0 29 -21.5 50t-65.5 21q-41 0 -56.5 -8t-15.5 -25l1 -17h77q6 6 18 6q14 0 22.5 -11.5t8.5 -23.5q0 -23 -13 -38l-20 -30zM2270 1704q23 14 53 14h15q38 0 43 -16q0 -14 -15 -17t-33 -3
q-30 0 -63 22zM373 1704q-33 -22 -63 -22q-18 0 -33 3t-15 17q5 16 43 16h15q30 0 53 -14zM2123 1793q-19 23 -57 48q0 -35 12.5 -41.5t31.5 -7.5zM520 1793l13 -1q25 0 34.5 9.5t9.5 39.5q-38 -25 -57 -48zM1300 1919q-12 -10 -27 -10q-26 0 -26 12q0 5 7.5 8.5t15.5 3.5
q18 0 30 -14zM282 1885l-2 -10q0 -12 12 -21.5t33 -13.5q-18 33 -43 45zM2361 1885q-25 -12 -43 -45q22 3 33.5 14t11.5 21z" />
  </g>

</svg>
