<?xml version="1.0" standalone="no"?>
<!DOCTYPE svg PUBLIC "-//W3C//DTD SVG 1.1//EN" "http://www.w3.org/Graphics/SVG/1.1/DTD/svg11.dtd" >
<svg xmlns="http://www.w3.org/2000/svg" xmlns:xlink="http://www.w3.org/1999/xlink" version="1.1" viewBox="-10 0 2252 2048">
  <g transform="matrix(1 0 0 -1 0 1638)">
   <path fill="currentColor"
d="M1447 114l76 148l47 347l-194 -28l-295 -8l20 -48l-24 -95l51 -338l-23 -23v-12l-25 -57l-109 -10l-47 24l49 100h15l9 39l-79 263l-11 11l-120 -247l-15 -87l-34 -24l2 -12l-24 -57l-109 -10l-47 24l49 100l67 83l69 370q-54 8 -83.5 38.5t-84.5 108.5h1l-43 58v-1
l-122 152l-149 -25q-54 17 -97.5 43.5t-60.5 53.5l-6 82q65 140 134.5 237t123.5 124h114l57 -42l27 32q13 16 54 26t90 10l19 -1q9 -7 16 -29t8 -38l-2 -16l-95 -79q42 -36 93.5 -73t69.5 -37q93 0 187 -10.5t192 -10.5q61 0 271 46q244 50 320 50q169 0 248.5 -56
t80.5 -153q0 -57 -17 -212l-11 -94q3 -30 23 -115q26 -112 32 -164t7 -97q-2 -65 -24 -65q-24 0 -47 67.5t-30 154.5t-7 135l3 75l9 92q8 79 12.5 143t6.5 94q0 17 -11.5 39t-28.5 37l21 -90l-92 -355l83 -220l18 -426l-28 4l-25 -60l-109 -10l-47 24l49 100h8l28 101
l-10 187l-157 165l-146 -358l-36 -152l-15 3l-25 -60l-109 -10l-47 24l49 100h12zM452 1304l53 64l-43 32h-93q-50 -26 -111.5 -113.5t-120.5 -215.5l7 -64q13 -19 64 -45l128 57l16 -34l-98 -44l11 -4l163 28l137 -171l70 -95q51 -72 78 -85.5t53 -15.5q-16 48 -28 114.5
t-12 95.5q0 62 19 150l36 -6q-17 -78 -17 -132l2 -32q8 -83 26 -142l16 -55l142 -155l87 -288l-9 -32h1l58 -15l-48 331l25 91q-34 68 -48 111t-18 118l32 2q1 -22 9 -68t23 -76l309 9h-2l305 46l-130 239l34 18l132 -241l249 -263l9 -207l-26 -96l80 -15l-23 374l-84 224
l95 360l-33 130q-15 15 -69 27t-129 13q-79 0 -312 -50q-204 -46 -279 -46q-94 0 -188 10.5t-191 10.5q-42 0 -192 124l-15 -13l-89 -13zM1705 629l-95 -14l-49 -364l-80 -136l73 -15l26 109q0 7 155 389zM660 117l71 -18l18 89l130 268l-98 99l-69 -373zM505 1309l20 -18
l63 10l112 92l3 14q0 9 -4 14.5t-22 5.5q-26 0 -57 -9.5t-41 -20.5zM262 1055l-28 -48l-52 44l53 32zM1526 67l-59 15l-21 -47h69zM700 67l-59 15l-21 -47h69zM1986 67l-60 13l-20 -45h69zM1064 67l-61 11l-19 -43h69zM271 1159v50l20 27h99v-34l-57 -15l-34 -28h-28z" />
  </g>

</svg>
