<?xml version="1.0" standalone="no"?>
<!DOCTYPE svg PUBLIC "-//W3C//DTD SVG 1.1//EN" "http://www.w3.org/Graphics/SVG/1.1/DTD/svg11.dtd" >
<svg xmlns="http://www.w3.org/2000/svg" xmlns:xlink="http://www.w3.org/1999/xlink" version="1.1" viewBox="-10 0 2706 2048">
  <g transform="matrix(1 0 0 -1 0 1638)">
   <path fill="currentColor"
d="M483 170l129 314l-25 45l-14 34l-133 4l-105 -117l-46 -16q-36 0 -119 44l-38 17l-32 41v119q31 107 69 145q10 10 44 32q0 58 17 89t48 31q19 0 33 -16q18 30 46 30q35 0 54 -35q176 52 264 52q41 0 232 -45q177 -43 227 -43h494q200 -7 313 -124q41 -43 161 -193
q140 -177 216 -250t127 -73q35 0 68 15q32 14 51 14q12 0 22 -13.5t10 -29.5q0 -27 -46.5 -58.5t-107.5 -31.5q-58 0 -119.5 35t-116.5 100l-316 377q6 -173 67 -203q76 -44 181 -115l-7 -173l16 -75l-32 -65h-83l-81 -32l-71 14l-42 90l58 66h91l-18 88q-14 2 -95 32
t-115 44l-9 -58l-40 -112l-19 -110l-93 -22l-81 -32l-71 14l-42 90l58 66h112l16 156l-17 19q-31 31 -74 106q-196 -37 -289 -37q-65 0 -280 23l21 -41l4 -83l64 -216l-32 -65h-83l-81 -32l-71 14l-42 90l58 66h68l-32 71l-61 78q-24 -25 -61 -80t-43 -67q-5 -12 -32.5 -62
t-42.5 -59l-81 -19l-61 -32l-71 14l-42 90l58 66h116zM292 816l2 23q-66 -37 -88.5 -58.5t-40 -60.5t-25.5 -67v-16l-2 -70q16 16 30 16q20 0 20 -15q0 -8 -9 -12q-17 -9 -17 -31l60 -28q16 30 53 50l14 -23q-23 -18 -32 -42l24 -9l32 13l92 102q24 32 26 87l40 -2
q-2 -40 -11 -65l106 -3q-5 40 -5 68v13l40 -2q0 -32 4.5 -67t18.5 -76l30 -52l187 -242l48 -103l-12 -14h-91l-30 -33l3 -6l50 23l7 -15l-50 -24l7 -14l50 23l7 -15l-44 -21l33 -6l77 30h66l15 27l-62 212l-4 78l-87 174l42 -4l41 -80q59 -10 158 -17.5t145 -7.5
q104 0 327 46q-53 74 -53 233h40q0 -89 26.5 -165t92.5 -125t163 -90t195 -68l28 -142l-9 -13h-106l-30 -33l3 -6l50 23l7 -15l-50 -24l7 -14l50 23l7 -15l-44 -21l33 -6l77 30h66l15 27l-14 67l11 158l-165 102q-80 44 -87 290l31 19l357 -425q41 -51 98.5 -85t105.5 -34
q43 0 79 16.5t36 33.5l-1 2l-1 1q-20 -11 -43.5 -20t-66.5 -9q-52 0 -101.5 37.5t-116 111.5t-212.5 256q-86 107 -102 123q-101 105 -286 112h-493q-62 0 -237 45q-177 43 -222 43q-32 0 -75.5 -7.5t-177.5 -43.5l1 -23q0 -32 -16 -71h-42q18 36 18 83q0 50 -24 50
q-15 0 -25 -30.5t-10 -83.5zM1721 347q-33 14 -79 49t-77 69l-31 -7q34 -59 91 -122l-20 -202l-125 -4l-30 -33l3 -6l50 23l7 -15l-50 -24l7 -14l50 23l7 -15l-44 -21l33 -6l77 30l68 17l17 81l38 108zM385 130l-30 -33l3 -6l50 23l7 -15l-50 -24l7 -14l50 23l7 -15l-44 -21
l33 -6l57 30l65 13q8 8 27.5 42t27.5 50q23 44 58.5 93.5t64.5 79.5l-80 101l-134 -321h-119zM293 881q0 31 -15 31q-19 0 -25 -54zM212 737h91v-6q-39 -16 -51 -65q-13 0 -26.5 21t-13.5 44v6z" />
  </g>

</svg>
