<?xml version="1.0" standalone="no"?>
<!DOCTYPE svg PUBLIC "-//W3C//DTD SVG 1.1//EN" "http://www.w3.org/Graphics/SVG/1.1/DTD/svg11.dtd" >
<svg xmlns="http://www.w3.org/2000/svg" xmlns:xlink="http://www.w3.org/1999/xlink" version="1.1" viewBox="-10 0 1248 2048">
  <g transform="matrix(1 0 0 -1 0 1638)">
   <path fill="currentColor"
d="M534 1366l169 12q2 56 18.5 117.5t42.5 96.5v77l-53 3l-50 -101l-67 46l83 84l-10 70l-45 6l61 132l-3 21v10q0 50 43.5 80.5t119.5 30.5q93 0 150.5 -56.5t57.5 -140.5q0 -51 -7.5 -77t-24 -50.5t-48.5 -40.5v-78q34 -13 53 -35.5t28 -54.5t9 -96q0 -22 -13 -242l13 -41
q27 -73 27 -172q0 -30 -10.5 -73t-23 -94.5t-24 -109.5t-12.5 -119q8 -156 8 -339q0 -52 -6 -101h118v-131h-1038l91 131h98q56 9 72.5 32.5t16.5 60.5h23v797l-38 16l-25 13l-14 71l26 50l51 9v47l-23 8l-23 11l-20 64l4 20l9 3l-4 34l57 19v203q0 128 -75 154
q-38 -63 -51 -112t-13 -103h-53q-12 30 -19 67t-7 62q0 36 18.5 88.5t51.5 106.5q47 78 57.5 115t10.5 74v10h53q32 -51 32 -122q0 -34 -11.5 -64.5t-36.5 -73.5q45 -21 71 -76.5t26 -131.5v-190l28 -2zM672 131v48l96 22q26 4 66.5 21.5t40.5 34.5l-58 356l-14 55l-61 362
l-220 -7l-24 13h-27l-15 -18h-1v-794h22q0 -20 8 -42t25 -32.5t33 -14.5t23 -4h106zM976 1321l31 -20l-161 -268l-66 -2l60 -363l16 -52l52 -327l4 -36q0 -26 -36.5 -48.5t-86.5 -31.5l-81 -16v-26h278q7 36 7 111q0 169 -12 329q7 117 58 342q9 40 9 54q0 90 -28 162
l-11 34l17 277q0 42 -17 72q-60 -63 -144 -63q-57 0 -108 29q-15 -49 -15 -97q0 -51 18 -207l131 251l32 -18l-147 -276l-248 -22l-61 35l-35 11l-60 -13l-12 -27l11 -42l8 -10l35 -14h31l13 19l34 2l28 -12l308 13zM170 38h930v55h-892zM938 1684q-81 0 -81 74q0 31 31 69
q14 2 19.5 10t5.5 28q0 31 -25 31q-14 0 -24 -10h-160l-37 -87l25 -3l14 -97l89 -6v-99q19 -4 39 -4q66 0 104 29v65zM940 1717q38 0 55.5 31.5t17.5 105.5q0 69 -50 115t-117 46q-58 0 -92.5 -22t-34.5 -53q0 -15 3 -21h147q12 9 29 9q24 0 37 -19t13 -39q0 -23 -8 -42.5
t-23 -20.5q-3 -1 -13.5 -14t-10.5 -36q0 -19 13 -29.5t34 -10.5zM532 1144l191 18l-10 82l-175 5l-30 11l-20 -8l-19 -23l-14 -4v-44l25 -6zM704 1343l-169 -11l-62 28l-37 7l-37 -10l-28 -11l2 -12l61 15l44 -20l11 -40l20 7l25 -11l175 -5zM768 1513q45 -29 92 -29
q42 0 76 17.5t56 42.5q-22 24 -55 33q-44 -23 -103 -23q-24 0 -48 4zM351 1984q-3 -54 -53 -137q-47 -77 -61.5 -120t-14.5 -100q0 -27 4 -50h10l-1 15q0 56 37 142q9 24 48 82q43 65 43 127l-3 41h-9zM367 1302l11 -32l12 -9l35 -11l26 5l14 17l-14 38l-17 9zM796 1851
q-23 -15 -44 -15q-42 0 -42 18q0 9 11.5 15t25.5 6q27 0 49 -24zM397 131h61q-19 21 -25 46h-12q-4 -25 -24 -46z" />
  </g>

</svg>
