<?xml version="1.0" standalone="no"?>
<!DOCTYPE svg PUBLIC "-//W3C//DTD SVG 1.1//EN" "http://www.w3.org/Graphics/SVG/1.1/DTD/svg11.dtd" >
<svg xmlns="http://www.w3.org/2000/svg" xmlns:xlink="http://www.w3.org/1999/xlink" version="1.1" viewBox="-10 0 2264 2048">
  <g transform="matrix(1 0 0 -1 0 1638)">
   <path fill="currentColor"
d="M328 265q-78 0 -122 36.5t-63.5 100t-19.5 205.5q0 133 93 183q-39 0 -66 16.5t-27 35.5q0 38 38.5 62t98.5 24q62 0 96 -32t34 -88q0 -78 -47 -181q-38 -82 -58.5 -128.5t-16.5 -66.5q0 -41 19 -55t61 -14h174v82h101q0 206 -26.5 336.5t-97.5 263.5q-14 20 -41 105.5
t-49 164.5l-224 53q-85 20 -85 65v60l147 4q27 31 75.5 59t76.5 32q25 73 25 166h37q38 -60 49 -100q8 61 8 100h36q22 -31 37.5 -67.5t15.5 -62.5q0 -40 -26 -92q64 -80 116 -221q23 -63 39 -93t30 -34q53 -16 163 -16q105 0 191 15q155 25 251 25q91 0 188 -52t192 -152
t179.5 -230.5t136.5 -247.5q52 -130 69.5 -201.5t17.5 -131.5q0 -34 -6 -68q-178 75 -265 309l-27 73q-136 379 -189 442h-4q25 -168 109 -283v-303h93v-98h-671v-734h-143v734h-723zM560 407v-44h17v26h19v-26h21v26h18v-26h78v127q2 94 10 165q12 110 12 188l-5 88h40
l5 -60h68q108 0 216 30t185 79q-8 12 -18 43.5t-10 48.5h32q0 -14 9.5 -46.5t38 -71.5t80.5 -79.5t196 -127.5q57 -35 101 -80q19 -95 19 -164v-96h-114v-44h18v26h18v-26h23v26h17v-26h78v295q-52 76 -77.5 162t-25.5 121q0 56 25 72q89 -74 237 -486q46 -127 75.5 -182.5
t64.5 -91.5t84 -61q0 110 -58 253t-145.5 284t-180.5 240t-184.5 149t-175.5 50q-107 0 -245 -25q-110 -15 -197 -15q-128 0 -182 18q-40 13 -86 150q-28 81 -49 120t-59 91l-14 -15l-21 23q21 20 35 49.5t14 59.5q0 36 -20 76q-3 -56 -20 -106t-40 -80l-27 15l12 21
q-68 0 -113.5 -20t-93.5 -70l-125 -2v-16l1 -6l113 -1v-19l-80 -4l28 -9l245 -56q57 -235 88 -287q46 -78 77 -174.5t41 -211t11 -228.5v-39h-104zM753 363h787v82h112v58q0 69 -19 153q-35 33 -85.5 66t-104 67.5t-104 72t-85.5 80.5q-183 -110 -406 -110h-74l-6 -110
q-13 -143 -15 -232v-127zM163 587q0 -139 29.5 -205t96.5 -66v11q-61 19 -61 105q0 29 16 67.5t36 83.5q25 54 47.5 111.5t22.5 113.5q0 80 -90 80q-44 0 -70.5 -13.5t-26.5 -31.5q0 -12 34.5 -18.5t75.5 -6.5h18v-39q-60 -11 -94 -59.5t-34 -132.5zM1154 -429v694h-63v-694
h63zM456 1708q-4 -68 -21 -117h45l2 25q0 43 -26 92zM373 1492q0 5 6.5 9.5t15.5 4.5q23 0 23 -14q0 -16 -23 -16q-22 0 -22 16z" />
  </g>

</svg>
