<?xml version="1.0" standalone="no"?>
<!DOCTYPE svg PUBLIC "-//W3C//DTD SVG 1.1//EN" "http://www.w3.org/Graphics/SVG/1.1/DTD/svg11.dtd" >
<svg xmlns="http://www.w3.org/2000/svg" xmlns:xlink="http://www.w3.org/1999/xlink" version="1.1" viewBox="-10 0 2501 2048">
  <g transform="matrix(1 0 0 -1 0 1638)">
   <path fill="currentColor"
d="M614 1956l-6 -283l156 -289q21 -41 83 -67t147 -26q126 0 280 22l125 16q237 30 344 30q73 0 159.5 -15.5t151.5 -36.5q61 17 102 50.5t41 71.5q0 85 -127 85q-15 0 -22.5 8.5t-7.5 19.5t7.5 20t21.5 9q91 0 139.5 -32t48.5 -109q0 -54 -42 -97t-119 -67q71 -120 76 -176
q10 -101 36.5 -199t53.5 -133q24 -33 129 -152l-99 -606h-197v118h101l47 455l-61 66q-114 122 -164 221l-31 60q-22 -98 -22 -169q0 -45 11 -105.5t22 -83.5q-76 -84 -281 -562h-184v118h115q36 95 100 238.5t79 174.5q-27 77 -75.5 265t-66.5 280q-180 -21 -671 -123
q50 -159 135 -399l34 -554h-225v118h95q-14 314 -29 382q-9 39 -83 152.5t-141 201.5q-80 -156 -196 -430t-171 -424h-186v118h117l136 392l195 551l-241 501l-354 34v73l323 93l80 175h20l6 -82l69 101h16zM994 1251q-206 0 -266 113l-160 299l5 195l-78 -114l-362 -99v-19
l345 -31l342 -700l20 -27q70 -93 139.5 -201.5t82.5 -156.5q20 -86 31 -432h-95v-38h143l-32 508l-147 435q633 136 770 136q109 0 188.5 -54.5t137.5 -186.5q22 -50 57.5 -98t106.5 -122l63 -69l-59 -511h-91v-38h126l89 553q-73 77 -120 141q-29 41 -56 140.5t-42 211.5
q-5 31 -28.5 83.5t-53.5 97.5q-68 23 -151.5 37.5t-155.5 14.5q-100 0 -338 -30q-147 -19 -236.5 -28.5t-174.5 -9.5zM1573 78v-38h123q57 140 131.5 295t124.5 235q-9 22 -18 79t-9 102q0 46 11.5 111t21.5 104q-84 113 -226 113h-7q15 -82 66 -279.5t80 -270.5
q-22 -42 -85 -179.5t-121 -271.5h-92zM385 78h-98v-38h122q57 160 185 455.5t182 396.5l-57 118zM430 1691q0 8 8 14t21 6t22 -6t9 -14q0 -9 -9 -15t-22 -6t-21 6t-8 15zM500 1813v48l-38 -93l7 1z" />
  </g>

</svg>
