<?xml version="1.0" standalone="no"?>
<!DOCTYPE svg PUBLIC "-//W3C//DTD SVG 1.1//EN" "http://www.w3.org/Graphics/SVG/1.1/DTD/svg11.dtd" >
<svg xmlns="http://www.w3.org/2000/svg" xmlns:xlink="http://www.w3.org/1999/xlink" version="1.1" viewBox="-10 0 1534 2048">
  <g transform="matrix(1 0 0 -1 0 1638)">
   <path fill="currentColor"
d="M100 2000q16 21 54 35.5t70 14.5q61 0 99 -42q35 42 101 42q39 0 66 -16t45.5 -39.5t30 -51t20.5 -49.5l128 -338l10 1l7 -10l-15 -79l101 -221l-64 -3l-34 -89l131 -119l-72 -61l-112 153l-45 16l-12 -98q90 -61 107 -220l37 -340l218 312q27 39 64 62l25 88l59 10
l16 50l-17 152l26 34l63 -37q24 54 36.5 116t12.5 104q0 70 -13.5 119.5t-53.5 125.5l15 17q220 -59 220 -273q0 -55 -16 -116.5t-41 -109.5l-102 48l-21 -52l93 -53l-161 -96l-10 -20l85 15l16 -22l-57 -146q16 -30 16 -64q0 -38 -9 -86t-105 -485l212 -90v-89h-1187v89
l162 68v651q0 175 109 241l-13 101l-32 -7l-54 180q-19 7 -35 7q-37 0 -53.5 -27t-16.5 -67v-1036l-40 -7v1049q0 61 27.5 93.5t74.5 32.5l30 -2zM177 66v-26h1107v26l-218 98l96 434q26 121 26 151q0 38 -22.5 63t-60.5 25q-35 0 -62.5 -23t-49.5 -50l-245 -348l-25 10
l-48 396q-12 105 -54.5 160t-107.5 55q-84 0 -130 -60.5t-46 -167.5v-673zM287 1541l188 7l-130 340q-26 69 -52 96.5t-63 27.5q-29 0 -51 -9.5t-30 -20.5zM510 1077q33 0 67 -14l18 126l92 -30l42 113l39 2l-71 158l-194 -57q-20 26 -42 26q-23 0 -23 -29q0 -8 8.5 -27
t29.5 -36l23 -133l-64 -16l13 -92q30 9 62 9zM516 1549l156 6l-126 333q-26 69 -52.5 96.5t-63.5 27.5q-63 0 -80 -39zM388 1187l72 18l-19 94q-17 11 -28 33.5t-11 42.5q0 23 15 42.5t41 19.5q23 0 49 -21l170 51l9 52l-388 -15zM1237 1595q59 -92 59 -218q0 -73 -21 -152
l73 -35q36 88 36 172q0 88 -35 142.5t-112 90.5zM1076 874l34 3q43 0 75 -30l34 85l-132 -20zM1261 1079l-97 56l9 -107zM588 1348q14 22 28 31t37 9q15 0 31 -5.5t23 -13.5q-30 -26 -71 -26z" />
  </g>

</svg>
