<?xml version="1.0" standalone="no"?>
<!DOCTYPE svg PUBLIC "-//W3C//DTD SVG 1.1//EN" "http://www.w3.org/Graphics/SVG/1.1/DTD/svg11.dtd" >
<svg xmlns="http://www.w3.org/2000/svg" xmlns:xlink="http://www.w3.org/1999/xlink" version="1.1" viewBox="-10 0 2035 2048">
  <g transform="matrix(1 0 0 -1 0 1638)">
   <path fill="currentColor"
d="M1910 622h-52l67 -622h-357v92l141 24q57 9 57 50l-3 23l-121 433h-80l-185 -622h-314v92l141 24q59 9 74 85l53 251l-8 89l35 81h-111l251 450l-20 131l-66 -59l-24 -6l-271 91l-85 -6l-70 16l-80 88l7 7h-22v-175h148v-255h-148v-178h148v-257h-148v-194h137v-275h-270
v126h-353v-126h-270v275h137v194h-148v257h148v178h-148v255h148v175h-148v269h148v170h-137v264h270v-137h353v137h270v-260l61 -23l40 -59l31 -87l190 -181l66 92q28 43 41 54.5t30.5 19.5t80.5 15l-12 38l-70 -17l-51 99l-57 2l89 195l3 25q26 100 164 100
q101 0 170.5 -49.5t69.5 -128.5q0 -60 -44 -122l-60 -86v-58l45 -27q53 -33 53 -108v-7l-1 -10l-34 -349zM827 1865h-539v-1704h539v1704zM1804 1465q0 66 -38 87l-58 33v72l-86 74q47 63 53 74t6 18q0 20 -17 20t-35 -22l-157 88l-68 -150l32 -2l44 -89l79 26l28 -118
l-74 -8q-31 -4 -47.5 -16t-35.5 -46l-82 -118l-26 -7l-215 203l-28 99l-33 50l-71 30l-6 -15l56 -37l34 -84l-12 -11l-65 28l-4 -8l125 -102l192 -242l66 -15l152 164l25 -22l-171 -176l-204 51l-122 68l-6 -6l49 -51l-6 -15l-90 2l-55 38l-12 -11l54 -55l58 -13l103 10
l260 -92l232 217l95 14l10 -30l-80 -11l-143 -128l24 -149l240 55zM1316 662h545l-92 433l-258 -61zM1354 38l171 584h-128l-37 -88l5 -87l-55 -258q-19 -90 -102 -104l-106 -18v-29h252zM1816 622h-133l119 -431l4 -29q0 -35 -24 -52t-69 -25l-106 -18v-29h277zM1721 1691
l55 79q36 52 36 110q0 54 -62.5 91.5t-137.5 37.5q-104 0 -128 -64l141 -82q21 17 42 17q23 0 36.5 -17t13.5 -38t-51 -85zM341 35v91h-93v114h-97v-205h190zM964 35v205h-97v-114h-93v-91h190zM867 1900v-92h97v194h-190v-102h93zM341 1900v102h-190v-194h97v92h93z
M1015 1565v-179l12 17l155 -83l65 -16l-164 202zM975 1369v199h-108v-199h108zM248 1369v199h-108v-199h108zM248 504v187h-108v-187h108zM975 504v187h-108v-187h108zM975 939v185h-108v-185h108zM248 939v185h-108v-185h108zM867 1603h104l-36 31l27 41l50 -20l-20 52
l-62 37l13 29h-76v-170zM1576 1811l-48 -5q-41 0 -71 26q6 8 23 13.5t31 5.5q23 0 37 -9t28 -31zM969 1334l21 -15l54 -2l-29 29v-12h-46z" />
  </g>

</svg>
