<?xml version="1.0" standalone="no"?>
<!DOCTYPE svg PUBLIC "-//W3C//DTD SVG 1.1//EN" "http://www.w3.org/Graphics/SVG/1.1/DTD/svg11.dtd" >
<svg xmlns="http://www.w3.org/2000/svg" xmlns:xlink="http://www.w3.org/1999/xlink" version="1.1" viewBox="-10 0 1580 2048">
  <g transform="matrix(1 0 0 -1 0 1638)">
   <path fill="currentColor"
d="M613 1490q4 24 27 24h9l7 -2q-7 -11 -14.5 -15.5t-28.5 -6.5zM614 0v721q-34 -14 -47 -50.5t-27 -156.5q-31 -272 -63 -385l-6 -129h-371v88l168 23q28 4 52.5 38t26.5 66l2 475q0 51 29.5 103t85.5 85l-47 143l-10 -53l-48 9l2 72l-13 -30l-20 -89l-50 5l6 130l39 63
l45 52l42 53l41 51q20 46 58 68l33 23l3 21q-35 20 -59.5 52t-24.5 65q0 52 32.5 85.5t87.5 33.5q34 0 59 -21t33 -59l47 -67l-17 -10l2 -9l298 139l40 16l-9 35l-68 -22l-41 109h-52l83 187l3 22q27 98 155 98q122 0 176.5 -46t59.5 -136l33 -606h-60l-29 -156q17 5 36 5
q44 0 67.5 -26t23.5 -96v-82q0 -58 49 -100l-26 -32q-63 56 -63 132v82q0 46 -13 64t-38 18t-38 -17t-13 -65v-989h-665zM860 40v501h379v216q-34 -27 -88 -27h-135l4 -19l111 -43l-16 -65l-166 42l-38 85h-40l6 -78l127 -31l-11 -62l-192 28l-35 143h-30v-690h124z
M1166 1745v-450h174l-23 466q-3 57 -6.5 103.5t-21.5 78.5t-57.5 49.5t-115.5 17.5q-87 0 -109 -57l121 -75q20 17 40 17q22 0 36 -18.5t14 -37.5q0 -11 -6.5 -27t-45.5 -67zM995 1226l131 163v359l40 52q18 21 18 36q0 24 -18 24q-20 0 -35 -21l-142 80l-67 -151l32 -2
l34 -92l72 24l25 -102l-87 -31l-284 -132l3 -11l-35 -20l2 -11l58 -41l227 101l35 -13l-82 -129zM592 1018l167 29q-27 14 -27 61v140h16l80 -136l-1 -50l28 5l-3 83l-62 136l-127 89l-7 36l36 22l-13 51l12 7l-39 53l-81 -42l-3 7q-7 7 -12 7q-16 0 -16 -14q0 -21 32 -21
l32 -70l-37 -16v-35l-41 -28q-17 -13 -27.5 -24t-17 -27t-28.5 -97t-25 -106l64 -199l-8 -58l33 -71l12 6l-24 69l36 15l21 -47l11 4l-30 71l-31 22l-42 178l59 176h28zM559 873l34 -83l-36 -15l-22 46l-11 -5l25 -71l-41 -20l-50 91l1 9q-36 -33 -52 -75.5t-16 -76.5
l-4 -470q-4 -45 -36.5 -82.5t-65.5 -39.5l-153 -17v-27h304l6 89q23 106 44 288q22 195 31 238q21 118 141 118h99l-13 55l-130 61l-24 -1zM1239 40v379h-257v-379h257zM1233 1262l-266 -296l-38 -8l36 -24l41 -164h132q39 0 60.5 10.5t31 33t9.5 89.5v86l3 53l42 220h-51z
M595 919l347 71l242 272h-58v72l-236 -294l-296 -51l-24 -13l-4 -15l6 -32zM900 40h42v419h297v42h-339v-461zM654 40h42v690h-42v-690zM783 930l-133 -27l124 -60l54 -235l148 -25l3 19l-127 33l-22 261zM883 1087l91 113l-100 108l61 93l-160 -73l39 -27l66 -143z
M1100 631l5 22l-111 42l-56 224l-46 30l-73 -12l38 -27l113 -245zM432 1214l-32 -46l-54 -59l-36 -55l-12 -100l14 -3l20 92l41 48l10 -6l-6 -84l16 -1l9 68l-4 14zM539 967l4 30l22 15l-29 179l-39 -123l35 -166l10 -8l25 11l-19 13zM760 1108v-3q0 -41 40 -46l2 45l-43 74
zM1069 1828l-40 -4q-33 0 -58 21q14 16 45 16q19 0 30.5 -7.5t22.5 -25.5zM869 770h19l-27 60z" />
  </g>

</svg>
