<?xml version="1.0" standalone="no"?>
<!DOCTYPE svg PUBLIC "-//W3C//DTD SVG 1.1//EN" "http://www.w3.org/Graphics/SVG/1.1/DTD/svg11.dtd" >
<svg xmlns="http://www.w3.org/2000/svg" xmlns:xlink="http://www.w3.org/1999/xlink" version="1.1" viewBox="-10 0 3152 2048">
  <g transform="matrix(1 0 0 -1 0 1638)">
   <path fill="currentColor"
d="M660 1107q-44 19 -100 30l-77 -151l74 -224l130 -9l262 -162l1018 46l628 -9l25 20l54 839h324l44 -1062l-62 -82h-2054l-205 -68q48 -120 91 -201l-172 -52q-24 167 -42 251h-181l-143 106v208l49 57h-50l-12 97l186 21l-65 196l-151 79q-39 -39 -63 -76l-38 34
q35 53 82 93v18q0 90 -32 259t-80 335l256 74q105 -353 141 -450t60 -134q53 -7 117 -33zM623 620l-89 24h-159l-61 -73v-167l121 -91h281l205 70h2040l42 59l-40 1005h-251l-53 -825l-41 -34l-653 9l-1033 -43l-268 162l-94 6l18 -54l35 -9v-39zM322 1711l-160 -44
q37 -127 69.5 -290.5t36.5 -247.5q103 62 225 64q-47 85 -171 518zM278 1075l150 -82l75 149h-8q-123 0 -217 -67zM300 679l173 3l-14 42l-162 -16z" />
  </g>

</svg>
