<?xml version="1.0" standalone="no"?>
<!DOCTYPE svg PUBLIC "-//W3C//DTD SVG 1.1//EN" "http://www.w3.org/Graphics/SVG/1.1/DTD/svg11.dtd" >
<svg xmlns="http://www.w3.org/2000/svg" xmlns:xlink="http://www.w3.org/1999/xlink" version="1.1" viewBox="-10 0 1760 2048">
  <g transform="matrix(1 0 0 -1 0 1638)">
   <path fill="currentColor"
d="M331 1267q-126 59 -178.5 130t-52.5 215q0 103 40 312l38 13l212 -646l21 7l334 -88l136 267q27 51 71 83t98 35v46l-98 6l-16 104l-48 6l65 142l-3 27v13q0 53 43 82.5t122 29.5q87 0 139 -49t52 -125q0 -57 -42 -126l-32 -58v-69q71 0 104 -8.5t61.5 -26.5t45.5 -51
l106 -201l33 -335l44 -34l24 -56l-7 -116h-45l-7 81l-25 23l-6 -59h-41l-30 108l-44 285l-95 177l9 -290q46 -66 64 -125.5t18 -127.5q0 -21 -12 -55q-23 -64 -23 -136q0 -52 4 -80q59 -247 59 -452q0 -75 -10 -145h-294v88l113 23q60 12 60 48v11q0 4 -104 366l-9 61h-163
l-190 -597h-287v88l135 23q23 5 36.5 20.5t22.5 61.5l67 240l-7 86l28 78h-22l254 485l-101 263l-197 -299l-319 88l-27 -7l-8 -7l11 -33l-39 -12l-8 23h-39l-66 34l-20 72l8 18l14 4l-10 31zM1016 1405l114 -305l194 35l-11 317l40 17l123 -224l42 -287l18 -97h8l6 73l14 5
l42 -41l8 -77h10l5 82l-27 48l-47 36l-37 331l-113 208q-20 35 -61 48.5t-112 13.5h-31v70l-87 77l38 62q6 9 14.5 27.5t8.5 26.5q0 34 -27 34q-14 0 -25 -11h-147l-40 -93l27 -4l15 -104l106 -6v-104q-55 0 -100.5 -28.5t-69.5 -75.5l-148 -289l-366 96l-68 -22l5 -10
l61 13l48 -28l13 -54l21 -1l309 -73l205 314h22zM1369 633l-1 17v17q0 38 4 71.5t17 70.5t13 57q0 145 -73 235l-200 -35l-223 -433h463zM847 37l179 560h-119l-30 -83v-85l-65 -248q-13 -83 -82 -100l-113 -17v-27h230zM1265 597l9 -59l100 -355l3 -28q0 -59 -89 -74
l-85 -17v-27h222q8 45 8 118q0 190 -63 442h-105zM344 1304l-178 540q-26 -151 -26 -234q0 -130 44 -190t160 -116zM1194 1705l44 68q30 46 30 98q0 62 -42.5 101.5t-107.5 39.5q-61 0 -93.5 -19.5t-32.5 -54.5l3 -29h133q10 10 31 10q26 0 40 -20t14 -42q0 -15 -6.5 -34
t-16.5 -31l-34 -51zM317 1200l12 -45l58 -30l22 1l30 20l-15 56l-30 16zM1075 1837q-24 -17 -48 -17q-45 0 -45 20q0 10 13 16t27 6q28 0 53 -25z" />
  </g>

</svg>
