<?xml version="1.0" standalone="no"?>
<!DOCTYPE svg PUBLIC "-//W3C//DTD SVG 1.1//EN" "http://www.w3.org/Graphics/SVG/1.1/DTD/svg11.dtd" >
<svg xmlns="http://www.w3.org/2000/svg" xmlns:xlink="http://www.w3.org/1999/xlink" version="1.1" viewBox="-10 0 2106 2048">
  <g transform="matrix(1 0 0 -1 0 1638)">
   <path fill="currentColor"
d="M457 1893h42l166 -736l529 -24l-5 93q0 102 128 191l65 48l-13 109l-45 -16l-112 -153l-72 61l131 119l-34 89l-64 3l102 226l4 27q15 58 57 89t122 31q124 0 203.5 -58.5t99.5 -164.5l44 -767h-112l-24 -283l18 -189l37 -5v-389l99 -72l173 -30v-92h-182l-277 78
l-481 -59q-127 -19 -208 -19q-82 0 -134.5 44.5t-52.5 119.5q0 83 136 146l402 193l24 245l-22 -3l-384 -9l-231 2l-4 50l71 20l-24 15l-128 -14l-13 66l154 35l39 -11l-13 61l-17 -3l-60 11l-38 65l3 21l11 7l-18 31l76 56l-145 643l-107 -598l-39 11l8 44l-68 21l-16 -42
l-40 12l16 42l-71 22l-23 -40l-40 12zM787 814l-77 51l-70 18l-119 -23l4 -23l114 14l68 -39l-1 -13l-93 -25v-7l204 1l388 16l18 4l302 258l23 -31l-286 -250l-25 -254l412 74l-19 192l23 283h-199l52 665q21 17 29.5 36t8.5 27q0 29 -23 29q-22 0 -42 -26l-175 99
l-82 -186l39 -2l42 -113l96 30l22 -177q-95 -65 -127 -95.5t-48 -61.5t-16 -63l15 -247l156 166l27 -31l-249 -258zM1686 553h-17l-450 -81l-424 -202l86 -107l805 41v349zM1475 1832q26 21 49 21q26 0 41 -19.5t15 -42.5q0 -20 -12 -43t-28 -33l-37 -615h260l-40 726
q-14 82 -86 134t-177 52q-117 0 -145 -88zM1951 67l-142 18l-119 86l-830 -43l-102 124q-59 -31 -59 -85q0 -58 40 -92.5t112 -34.5q33 0 70 2.5t637 70.5l261 -75h132v29zM1209 936l-3 28l-446 53l-23 -14l-27 -36l-2 -1l18 -77l-3 -1l63 -44l382 49zM349 1289l85 479
l-249 -428zM750 1055l453 -53l-6 93l-524 27l6 -25l24 -6l27 -45zM1402 1778l-48 -5q-41 0 -71 26q6 8 23 13.5t31 5.5q23 0 37 -9t28 -31zM644 1067l-15 -2l-46 -26l23 -41l39 -12h17l39 13l15 18l-26 46zM593 1076l31 15l-4 20l-35 -22z" />
  </g>

</svg>
