<?xml version="1.0" standalone="no"?>
<!DOCTYPE svg PUBLIC "-//W3C//DTD SVG 1.1//EN" "http://www.w3.org/Graphics/SVG/1.1/DTD/svg11.dtd" >
<svg xmlns="http://www.w3.org/2000/svg" xmlns:xlink="http://www.w3.org/1999/xlink" version="1.1" viewBox="-10 0 1661 2048">
  <g transform="matrix(1 0 0 -1 0 1638)">
   <path fill="currentColor"
d="M1376 1937q52 0 117 -25l-7 -14q-12 -6 -23 -18t-14 -23t-3 -47v-6q0 -42 -50 -53v-1631h155v-120h-1448v120h123v1467q-50 11 -50 53v6q0 38 -3.5 48.5t-14.5 22.5t-22 17l-6 12q-30 2 -30 28v16h45l147 174q73 87 175 87l75 -7l812 -108zM182 1766v-1q30 8 64 8
q52 0 117 -25l-7 -14q-12 -6 -23 -18t-14 -23t-3 -47v-6q0 -42 -50 -53v-1467h211q25 23 41 59.5t16 72.5v697l-32 16l-13 65l23 45l22 4v57l-17 9l-18 58l4 19l8 3l-4 31l21 8q-8 33 -30 63h-21v24h20v15h-20v24h20v15h-20v24h20v15h-20v24h71v80q0 42 -25 53
q-59 -88 -59 -197h-49l-11 33q-13 39 -13 81q0 78 65 183q45 78 53.5 107.5t8.5 66.5v9h49q29 -55 29 -112q0 -32 -11 -60.5t-33 -66.5q41 -19 43 -91l1 -86h71v-24h-20v-15h20v-24h-20v-15h20v-24h-20v-15h20v-24h-21q-17 -22 -26 -48l15 -1l47 -23l155 11q2 55 18.5 113.5
t37.5 82.5v71l-49 3l-46 -93l-61 42l76 78l-9 64l-41 5l56 122l-3 18v10q0 46 41 74t109 28q84 0 137.5 -51.5t53.5 -129.5q0 -47 -7 -71t-22 -46t-45 -37v-72q43 -17 63 -53t20 -117q0 -20 -12 -223l12 -37q25 -69 25 -159q0 -33 -31 -154q-33 -127 -34 -209q8 -140 8 -312
q0 -47 -6 -93h228v1631q-50 11 -50 53v6q0 38 -3.5 48.5t-14.5 22.5t-22 17l-5 10l-673 90q-85 12 -125 12q-45 0 -76.5 -17.5t-67.5 -61.5zM610 935v-683q0 -38 15.5 -73.5t41.5 -58.5h141v44l89 21q34 6 66 22.5t32 28.5l-53 327l-13 51l-56 332l-202 -6l-22 12h-25z
M571 964h10l29 14l2 3l31 2l26 -11l283 12l136 229l28 -18l-148 -246l-60 -2l3 -22l52 -311l14 -48l48 -301l4 -33q0 -16 -16 -30.5t-41.5 -25.5t-129.5 -32v-24h255q6 36 6 102q0 105 -11 303q8 120 54 314q8 36 8 49q0 75 -26 149l-10 31l16 251q0 39 -16 70
q-55 -58 -133 -58q-53 0 -98 27q-14 -43 -14 -88q0 -38 16 -192l121 231l29 -17l-135 -253l-228 -20l-56 32l-10 3l-29 5l-47 -10l-12 -25l10 -38l2 -3l29 -16zM138 35h1378v50h-1378v-50zM1053 1547q-75 0 -75 68q0 13 8.5 32t20.5 31q12 2 17.5 9t5.5 26q0 29 -23 29
q-13 0 -22 -9h-147l-34 -80l23 -3l13 -89l81 -6v-91l36 -3q61 0 96 26v60zM1055 1577q35 0 51 29t16 97q0 60 -44.5 104t-109.5 44q-51 0 -83.5 -19.5t-32.5 -49.5l2 -19h135q16 8 27 8q22 0 34 -17t12 -36q0 -22 -7 -39.5t-21 -18.5q-3 -1 -13 -13t-10 -33q0 -37 44 -37z
M610 1125v-43l22 -3l48 -28l175 16l-9 76l-161 4l-27 10l-19 -7l-17 -21zM563 269q0 -46 -14 -86t-37 -63h120q-24 24 -37.5 64.5t-13.5 84.5v668l-18 1v-669zM534 1225l48 12l45 -16l13 -37l19 7l23 -11l160 -4l-4 58l-155 -10l-57 25l-42 5l-52 -18zM1376 1777q42 0 42 27
v41q0 17 9 32l17 21q-24 11 -68 11t-68 -11q26 -26 26 -53v-41q0 -27 42 -27zM246 1613q42 0 42 27v41q0 17 9 32l17 21q-24 11 -68 11t-68 -11q26 -26 26 -53v-41q0 -27 42 -27zM897 1390q41 -26 86 -26q68 0 119 54q-18 21 -50 31q-42 -21 -95 -21l-44 3zM546 1823
q-3 -48 -49 -126q-52 -88 -61 -123.5t-9 -74.5q0 -28 4 -50h9l-1 15q0 37 19 90t44 90q55 81 55 142l-3 37h-8zM618 1168l-9 32l-24 12l-57 -16l8 -28l24 -16l21 -4l29 11zM530 1327q20 -36 25 -54l36 8q10 28 22 46h-83zM922 1700q-21 -13 -40 -13q-39 0 -39 16
q0 8 11 13.5t23 5.5q25 0 45 -22zM526 1351h92v15h-92v-15zM526 1390h92v15h-92v-15zM526 1429h92v15h-92v-15zM563 1084h18v42l-18 1v-43z" />
  </g>

</svg>
