<?xml version="1.0" standalone="no"?>
<!DOCTYPE svg PUBLIC "-//W3C//DTD SVG 1.1//EN" "http://www.w3.org/Graphics/SVG/1.1/DTD/svg11.dtd" >
<svg xmlns="http://www.w3.org/2000/svg" xmlns:xlink="http://www.w3.org/1999/xlink" version="1.1" viewBox="-10 0 2064 2048">
  <g transform="matrix(1 0 0 -1 0 1638)">
   <path fill="currentColor"
d="M215 1033q-35 0 -55 -23t-20 -59q0 -28 36 -54.5t129 -60.5l104 -40q108 -52 296 -186q68 -49 129.5 -92t117.5 -68q79 -36 318 -100q232 -62 323 -104l53 -32q58 -41 100 -60t76 -19q47 0 69.5 21t22.5 53q0 37 -51 69.5t-150 65.5q-83 27 -142 64.5t-188 131.5
q-111 80 -192 130.5t-183 89t-373 109.5q-62 16 -123 35.5t-96 41.5q-86 54 -124.5 70.5t-76.5 16.5zM215 1073q38 0 73 -13t69 -32t67.5 -39.5t67.5 -35.5l148 -42q335 -94 473 -153q90 -39 260 -162q189 -138 270 -183l49 -20l65 -23q109 -37 153 -76t44 -85
q0 -49 -33 -81.5t-99 -32.5q-39 0 -81.5 19t-103.5 61q-54 36 -136 65.5t-253 76.5q-252 69 -314 97q-67 31 -267 174q-194 137 -274 172l-55 22q-112 39 -153 61.5t-63 49t-22 58.5q0 56 32 89t83 33z" />
  </g>

</svg>
