<?xml version="1.0" standalone="no"?>
<!DOCTYPE svg PUBLIC "-//W3C//DTD SVG 1.1//EN" "http://www.w3.org/Graphics/SVG/1.1/DTD/svg11.dtd" >
<svg xmlns="http://www.w3.org/2000/svg" xmlns:xlink="http://www.w3.org/1999/xlink" version="1.1" viewBox="-10 0 2853 2048">
  <g transform="matrix(1 0 0 -1 0 1638)">
   <path fill="currentColor"
d="M657 -9l6 9h-79l-26 -36l-38 27l6 9h-362l-26 -36l-38 27l57 80q27 44 97 44h275v483q0 104 -17.5 233.5t-50.5 233.5l-152 182q-64 78 -92 130t-43 111t-15 131q0 220 77 431h492l34 -98l31 98h492q74 -188 83 -368q61 -19 135 -62t127 -92q97 -37 164 -130l949 -1331
l-104 -87l-271 277l112 -244l-413 34l-203 393l-106 64l39 -210l-38 -15l-163 87v-251h197q70 0 98 -44l56 -80l-41 -27l-23 36h-742l-26 -36l-38 27l6 9h-362l-26 -36zM1439 1557q52 0 96 -6q-132 85 -207 107q0 76 -19.5 171t-52.5 181h-434q-66 -194 -66 -403
q0 -81 30 -159t109 -173l471 -570q62 -76 86 -149t24 -177v-264l-43 -35h-234l-32 -45h690l-32 45h-221l-48 35v284l19 27l172 -93l-39 211l24 21l166 -98l199 -380l314 -28l-126 277l-1008 760q-70 50 -110.5 116t-40.5 139q0 95 85 150.5t228 55.5zM1086 598
q-2 113 -19 235l-347 263q-70 50 -110.5 116t-40.5 139q0 129 153 182q-6 40 -6 86q0 130 26 253q-23 89 -43 138h-434q-66 -194 -66 -403q0 -81 30 -159t109 -173l471 -570q62 -76 86 -149t24 -177v-264h80v284l19 27l68 -37v209zM2693 76l-930 1298q-101 145 -313 145
q-140 0 -212 -46t-72 -128q0 -63 40.5 -120.5t170.5 -153.5l942 -705l324 -336zM521 992q48 -162 48 -380v-497l-43 -35h-304l-32 -45h362l23 33q26 41 74 45v362l36 26l194 -158v38q0 98 -22 165.5t-76 132.5zM1078 992q48 -162 48 -380v-497l-43 -35h-304l-32 -45h362
l23 33q26 41 74 45v362l36 26l194 -158v38q0 98 -22 165.5t-76 132.5zM729 1495q-120 -39 -120 -150q0 -63 40.5 -120.5t170.5 -153.5l238 -179q-20 110 -40 173l-152 182q-49 58 -84.5 116t-52.5 132zM879 115v172l-190 156v-328h190zM1436 115v172l-190 156v-328h190z
M551 1841q0 29 20.5 50t50.5 21q29 0 50 -21t21 -50q0 -30 -21 -50.5t-50 -20.5q-30 0 -50.5 20.5t-20.5 50.5zM271 1841q0 29 20.5 50t50.5 21q29 0 50 -21t21 -50q0 -30 -21 -50.5t-50 -20.5q-30 0 -50.5 20.5t-20.5 50.5zM828 1841q0 29 20.5 50t50.5 21q29 0 50 -21
t21 -50q0 -30 -21 -50.5t-50 -20.5q-30 0 -50.5 20.5t-20.5 50.5zM1108 1841q0 29 20.5 50t50.5 21q29 0 50 -21t21 -50q0 -30 -21 -50.5t-50 -20.5q-30 0 -50.5 20.5t-20.5 50.5zM1114 1771l-58 -186h-32l-67 182l36 15l47 -127l40 127zM557 1771l-58 -186h-32l-67 182
l36 15l47 -127l40 127zM1086 115v226l-47 25v-251h47zM304 1841q0 -16 11 -27t27 -11q15 0 26.5 11t11.5 27q0 15 -11.5 26.5t-26.5 11.5q-16 0 -27 -11.5t-11 -26.5zM1141 1841q0 -16 11 -27t27 -11q15 0 26.5 11t11.5 27q0 15 -11.5 26.5t-26.5 11.5q-16 0 -27 -11.5
t-11 -26.5zM861 1841q0 -16 11 -27t27 -11q15 0 26.5 11t11.5 27q0 15 -11.5 26.5t-26.5 11.5q-16 0 -27 -11.5t-11 -26.5zM584 1841q0 -16 11 -27t27 -11q15 0 26.5 11t11.5 27q0 15 -11.5 26.5t-26.5 11.5q-16 0 -27 -11.5t-11 -26.5zM609 35h80l31 45h-78z" />
  </g>

</svg>
