<?xml version="1.0" standalone="no"?>
<!DOCTYPE svg PUBLIC "-//W3C//DTD SVG 1.1//EN" "http://www.w3.org/Graphics/SVG/1.1/DTD/svg11.dtd" >
<svg xmlns="http://www.w3.org/2000/svg" xmlns:xlink="http://www.w3.org/1999/xlink" version="1.1" viewBox="-10 0 2298 2048">
  <g transform="matrix(1 0 0 -1 0 1638)">
   <path fill="currentColor"
d="M318 1666l24 -33l-63 -49h288q-8 59 -29 129t-72 191q100 48 241.5 78t277.5 30q139 0 279.5 -30t239.5 -78q-82 -182 -101 -320h303q23 38 72 62t110 24q57 0 104.5 -21.5t72.5 -56.5l83 42l18 -36l-83 -42l2 -9h103v-40h-103l-2 -9l83 -42l-18 -36l-83 42
q-25 -35 -72.5 -56.5t-104.5 -21.5q-61 0 -110 24t-72 62h-306q4 -107 21 -201t67 -236l27 -80q-51 21 -194 119t-257 189q30 -142 54 -336.5t24 -336.5q0 -155 -24 -307.5t-60 -240.5t-74 -88t-74 88t-60 240.5t-24 307.5q0 143 24 341.5t52 328.5q-120 -95 -256.5 -187.5
t-190.5 -117.5l27 80q50 143 66.5 235t21.5 202h-291l63 -49l-24 -33l-218 126v26zM985 1326l-32 -27q-37 -150 -62 -360t-25 -351q0 -206 40 -401t78 -195t78 195.5t40 400.5q0 153 -25.5 355t-62.5 358zM1730 1527q0 -41 45.5 -72t112.5 -31q66 0 112.5 31t46.5 72t-46 72
t-113 31t-112.5 -31.5t-45.5 -71.5zM571 1510v17l-1 17h-352l11 26l-80 -43l80 -43l-11 26h353zM1160 1544v40h203q15 130 89 300q-90 41 -213.5 64.5t-253.5 23.5q-127 0 -251.5 -23t-215.5 -65q93 -217 93 -374q-4 -130 -22 -239t-64 -238q115 72 258 181t202 168
q51 -53 207.5 -172.5t252.5 -176.5q-44 124 -62 221t-23 216h-200v40h531l-1 8v18l1 8h-531z" />
  </g>

</svg>
