<?xml version="1.0" standalone="no"?>
<!DOCTYPE svg PUBLIC "-//W3C//DTD SVG 1.1//EN" "http://www.w3.org/Graphics/SVG/1.1/DTD/svg11.dtd" >
<svg xmlns="http://www.w3.org/2000/svg" xmlns:xlink="http://www.w3.org/1999/xlink" version="1.1" viewBox="-10 0 1839 2048">
  <g transform="matrix(1 0 0 -1 0 1638)">
   <path fill="currentColor"
d="M898 1522h32q28 56 53 56q43 0 107.5 -91t64.5 -204v-40q39 -14 52 -44l-1 1l26 -80h161q-43 108 -88.5 200t-135.5 206t-169 201l12 43l41 -13q-5 28 -5 86q0 36 31 87t63 77l65 -36q-65 -99 -65 -150q0 -38 12 -79l39 62l23 -7l45 -168l29 63l16 -5l38 -177l18 25
l17 -6l118 -359q19 -57 19 -92q0 -38 -20 -55.5t-68 -17.5h-164q20 -87 20 -120q0 -41 -19 -64q45 -6 67 -23q12 -9 32 -72q86 -25 252 -159l-48 -9l56 -56l-31 -10l97 -105l-21 -1h-39q15 -36 42 -67t57 -52l-52 -65q-95 63 -122 126l-23 -12l-20 73q-34 121 -117 199
q13 -78 13 -157q0 -72 -14 -134q13 -11 24.5 -26.5t26 -41.5t27 -54.5t28.5 -72.5t48 -158l-21 -18l-40 35l35 -108l-23 -17l-31 32l26 -112l-20 -21l-24 8q37 -58 116 -140l-36 -52q-117 67 -196 166l-61 -12l-13 13q108 203 108 299q0 58 -32 132q-95 -159 -284 -225
q-21 -45 -64.5 -90.5t-73.5 -45.5t-73 44t-65 92q-188 66 -283 224q-32 -67 -32 -131q0 -96 108 -299l-13 -13l-61 12q-79 -99 -196 -166l-36 52q79 82 116 140l-24 -8l-20 21l26 112l-31 -32l-23 17l35 108l-40 -35l-21 18q71 276 153 352q-14 64 -14 135q0 84 12 155
q-46 -44 -76.5 -100t-58.5 -170l-23 12q-27 -63 -122 -126l-52 65q29 19 56.5 51.5t42.5 67.5h-39l-21 1l97 105l-31 10l56 56l-48 9q72 58 141 102.5t110 56.5q20 62 32 72q22 17 67 23q-19 23 -19 64q0 42 20 120h-163q-48 0 -68 17.5t-20 55.5q0 35 19 92l118 359l17 6
l18 -25l38 177l16 5l29 -63l45 168l23 7l39 -62q12 41 12 79q0 45 -65 150l65 36q32 -27 63 -78t31 -86q0 -58 -5 -86l41 13l12 -43q-76 -81 -167.5 -198.5t-138.5 -211t-87 -197.5h160l26 80l-1 -1q13 30 52 44v40q0 114 64.5 204.5t107.5 90.5q11 0 25.5 -15t27.5 -41z
M1368 431q0 73 -10 143t-25.5 126t-26.5 66q-23 17 -82 17h-21q-127 -25 -197 -80t-70 -130v-634q112 12 219 82t160 175t53 235zM460 431q0 -130 53 -235t159.5 -174.5t219.5 -82.5v634q0 74 -69.5 129.5t-197.5 80.5h-21q-59 0 -82 -17q-11 -11 -27 -66.5t-25.5 -126
t-9.5 -142.5zM914 1158q-93 0 -144.5 9t-98.5 29q-10 -5 -13 -12q-18 -45 -46 -149t-28 -150q0 -48 94.5 -76.5t235.5 -28.5t235.5 28.5t94.5 76.5q0 45 -28.5 151t-45.5 148q-3 7 -13 12q-47 -20 -98.5 -29t-144.5 -9zM1108 1821q0 27 17 69.5t34 68.5l-13 8
q-28 -30 -46 -63.5t-18 -60.5q0 -50 15 -136l-60 21q150 -166 210 -248t111 -191t81 -203h-197l13 -47h173q54 0 54 39q0 32 -38.5 148t-82.5 248l-23 -38l-14 3l-36 166l-25 -61l-15 3l-53 197l-39 -61l-18 3q-30 90 -30 135zM673 1683l-39 61l-53 -197l-15 -3l-25 61
l-36 -166l-14 -3l-23 38l-104 -314q-17 -53 -17 -82q0 -39 54 -39h171l14 47h-196q32 101 95 234t218 308l89 100l-60 -21l7 47q8 53 8 89q0 26 -18.5 61t-45.5 63l-13 -8q18 -28 34.5 -70t16.5 -68q0 -45 -30 -135zM1403 -207l54 -29l-32 141l17 17l39 -33l-33 96l22 18
l34 -23q-65 209 -120 279q-10 -34 -28 -72q46 -92 46 -170q0 -46 -18 -106t-71 -167l39 9q36 -48 72 -88t88 -70l7 9q-43 35 -74 82t-58 95zM442 -219q-27 -48 -58 -95t-74 -82l7 -9q52 30 88 70t72 88l39 -9q-53 106 -71 166t-18 107q0 78 45 168q-16 32 -28 73
q-54 -68 -119 -278l34 23l22 -18l-33 -96l39 33l17 -17l-32 -141l54 29zM957 1482h-86q-21 56 -26 56q-14 0 -46.5 -37.5t-52.5 -76.5q38 -26 88.5 -43t79.5 -17q26 0 75 16t93 44q-18 37 -51 75.5t-48 38.5q-5 0 -26 -56zM914 1324q-36 0 -91.5 20t-92.5 43
q-17 -49 -17 -104v-54q78 40 201 40t201 -40v54q0 55 -17 104q-41 -25 -95.5 -44t-88.5 -19zM1387 640q68 -54 104 -120.5t58 -147.5l15 5q19 -66 107 -129l14 17q-37 25 -65.5 74t-30.5 85l38 -7l-73 83l26 9l-62 60l28 13q-95 72 -171 103l11 -46zM452 685
q-72 -29 -169 -103l28 -13l-62 -60l26 -9l-73 -83l38 7q-5 -44 -33 -90t-63 -69l14 -17q88 63 107 129l15 -5q22 81 58 147.5t104 120.5zM914 1240q-101 0 -166 -28q64 -14 166 -14t166 14q-65 28 -166 28zM914 -178q18 0 44 26.5t47 61.5q-48 -13 -91 -13q-41 0 -92 13
q23 -38 49 -63t43 -25zM914 740l-50 -1l-23 1q52 -37 73 -82q21 45 73 82l-23 -1zM775 1352q17 0 28.5 -11.5t11.5 -28.5t-11.5 -29t-28.5 -12t-29 12t-12 29t12 28.5t29 11.5zM775 1296q6 0 11 5t5 11t-5 11t-11 5t-11 -5t-5 -11t5 -11t11 -5zM1054 1352q17 0 28.5 -11.5
t11.5 -28.5t-11.5 -29t-28.5 -12t-29 12t-12 29t12 28.5t29 11.5zM1054 1296q6 0 11 5t5 11t-5 11t-11 5t-11 -5t-5 -11t5 -11t11 -5z" />
  </g>

</svg>
