<?xml version="1.0" standalone="no"?>
<!DOCTYPE svg PUBLIC "-//W3C//DTD SVG 1.1//EN" "http://www.w3.org/Graphics/SVG/1.1/DTD/svg11.dtd" >
<svg xmlns="http://www.w3.org/2000/svg" xmlns:xlink="http://www.w3.org/1999/xlink" version="1.1" viewBox="-10 0 2119 2048">
  <g transform="matrix(1 0 0 -1 0 1638)">
   <path fill="currentColor"
d="M2009 25l-548 -5q-129 -2 -282 -59v-20q0 -61 49 -229h-338q49 181 49 229q0 45 -7 83q-424 -186 -619 -186q-48 0 -102 13t-95 35v72q88 -15 161 -15q44 0 99 12q-106 94 -181 208t-95 217h77q38 -95 149 -209t203 -164q61 20 118.5 44.5t186.5 86.5q-146 68 -253 188
l37 60q76 -47 172 -93q-80 80 -189 140l-51 29l298 1378q19 105 74 156.5t137 51.5q83 0 137.5 -52t73.5 -156l298 -1378l-76 -43q-178 -104 -257 -249q77 -8 186 -8q54 0 126 4t202 14.5t230 22.5zM597 481q125 -75 183 -124t99 -102q146 -57 311 -79q73 149 250 255l81 50
l-291 1351q-15 65 -34.5 97.5t-52 55.5t-84.5 23t-84.5 -23t-52 -55.5t-34.5 -97.5zM1945 159q-125 -14 -286 -25.5t-238 -11.5q-239 0 -424.5 51.5t-366.5 159.5l-1 -2q107 -114 309 -188q-199 -95 -268.5 -124.5t-145.5 -53.5q-90 44 -209 160t-161 205
q28 -93 113.5 -200.5t191.5 -190.5q-108 -36 -182 -36q-60 0 -121 7v-1q65 -31 157 -31q211 0 727 238l200 -30l2 -35q-106 -34 -189 -101q214 107 408 110l500 5zM1174 -248q-35 140 -35 189v4q-44 -18 -105 -50l-31 65q88 64 165 99l-124 15l-73 -33q8 -46 8 -100
q0 -33 -35 -189h230z" />
  </g>

</svg>
