<?xml version="1.0" standalone="no"?>
<!DOCTYPE svg PUBLIC "-//W3C//DTD SVG 1.1//EN" "http://www.w3.org/Graphics/SVG/1.1/DTD/svg11.dtd" >
<svg xmlns="http://www.w3.org/2000/svg" xmlns:xlink="http://www.w3.org/1999/xlink" version="1.1" viewBox="-10 0 2047 2048">
  <g transform="matrix(1 0 0 -1 0 1638)">
   <path fill="currentColor"
d="M465 997q0 29 -34.5 65.5t-86.5 60.5l112 61l-7 13l-125 -68v691l80 35q-24 8 -44 27.5t-20 47.5q0 20 19.5 36t41.5 20q-49 26 -123 26q-63 0 -100.5 -20.5t-37.5 -62.5q0 -57 70 -79l13 -4q41 -17 53.5 -27t12.5 -30v-660l-125 68l-7 -13l112 -61q-53 -25 -87 -61
t-34 -65h317zM104 957q0 57 26 99.5t71 64.5l-87 48l41 72l97 -53v581q0 13 -12 22t-56 26q-84 31 -84 112q0 60 49 91.5t129 31.5q52 0 108 -17t103 -47q-109 -23 -109 -58q0 -23 30.5 -44t77.5 -30l-127 -54v-614l97 53l41 -72l-87 -48q45 -22 71 -64.5t26 -99.5h-405z
M941 997q0 29 -34.5 65.5t-86.5 60.5l112 61l-7 13l-125 -68v691l80 35q-24 8 -44 27.5t-20 47.5q0 20 19.5 36t41.5 20q-49 26 -123 26q-63 0 -100.5 -20.5t-37.5 -62.5q0 -57 70 -79q49 -15 64 -25.5t15 -35.5v-660l-125 68l-7 -13l112 -61q-53 -25 -87 -61t-34 -65h317z
M580 957q0 57 26 99.5t71 64.5l-87 48l41 72l97 -53v581q0 13 -12 22t-56 26q-84 31 -84 112q0 60 49 91.5t129 31.5q52 0 108 -17t103 -47q-109 -23 -109 -58q0 -23 30.5 -44t77.5 -30l-127 -54v-614l97 53l41 -72l-87 -48q45 -22 71 -64.5t26 -99.5h-405zM1417 997
q0 29 -34.5 65.5t-86.5 60.5l112 61l-7 13l-125 -68v691l80 35q-24 8 -44 27.5t-20 47.5q0 20 19.5 36t41.5 20q-49 26 -123 26q-63 0 -100.5 -20.5t-37.5 -62.5q0 -57 70 -79q49 -15 64 -25.5t15 -35.5v-660l-125 68l-7 -13l112 -61q-53 -25 -87 -61t-34 -65h317zM1056 957
q0 57 26 99.5t71 64.5l-87 48l41 72l97 -53v581q0 13 -12 22t-56 26q-84 31 -84 112q0 60 49 91.5t129 31.5q52 0 108 -17t103 -47q-109 -23 -109 -58q0 -23 30.5 -44t77.5 -30l-127 -54v-614l97 53l41 -72l-87 -48q45 -22 71 -64.5t26 -99.5h-405zM731 -137
q0 29 -34.5 65.5t-86.5 60.5l112 61l-7 13l-125 -68v691l80 35q-24 8 -44 27.5t-20 47.5q0 20 19.5 36t41.5 20q-49 26 -123 26q-63 0 -100.5 -20.5t-37.5 -62.5q0 -57 70 -79l13 -4q41 -17 53.5 -27t12.5 -30v-660l-125 68l-7 -13l112 -61q-53 -25 -87 -61t-34 -65h317z
M370 -177q0 57 26 99.5t71 64.5l-87 48l41 72l97 -53v581q0 13 -12 22t-56 26q-84 31 -84 112q0 60 49 91.5t129 31.5q52 0 108 -17t103 -47q-109 -23 -109 -58q0 -23 30.5 -44t77.5 -30l-127 -54v-614l97 53l41 -72l-87 -48q45 -22 71 -64.5t26 -99.5h-405zM1207 -137
q0 29 -34.5 65.5t-86.5 60.5l112 61l-7 13l-125 -68v691l80 35q-24 8 -44 27.5t-20 47.5q0 20 19.5 36t41.5 20q-49 26 -123 26q-63 0 -100.5 -20.5t-37.5 -62.5q0 -57 70 -79l13 -4q41 -17 53.5 -27t12.5 -30v-660l-125 68l-7 -13l112 -61q-53 -25 -87 -61t-34 -65h317z
M846 -177q0 57 26 99.5t71 64.5l-87 48l41 72l97 -53v581q0 13 -12 22t-56 26q-84 31 -84 112q0 60 49 91.5t129 31.5q52 0 108 -17t103 -47q-109 -23 -109 -58q0 -23 30.5 -44t77.5 -30l-127 -54v-614l97 53l41 -72l-87 -48q45 -22 71 -64.5t26 -99.5h-405zM1683 -137
q0 29 -34.5 65.5t-86.5 60.5l112 61l-7 13l-125 -68v691l80 35q-24 8 -44 27.5t-20 47.5q0 20 19.5 36t41.5 20q-49 26 -123 26q-63 0 -100.5 -20.5t-37.5 -62.5q0 -57 70 -79l13 -4q41 -17 53.5 -27t12.5 -30v-660l-125 68l-7 -13l112 -61q-53 -25 -87 -61t-34 -65h317z
M1322 -177q0 57 26 99.5t71 64.5l-87 48l41 72l97 -53v581q0 13 -12 22t-56 26q-84 31 -84 112q0 60 49 91.5t129 31.5q52 0 108 -17t103 -47q-109 -23 -109 -58q0 -23 30.5 -44t77.5 -30l-127 -54v-614l97 53l41 -72l-87 -48q45 -22 71 -64.5t26 -99.5h-405zM1893 997
q0 29 -34.5 65.5t-86.5 60.5l112 61l-7 13l-125 -68v691l80 35q-24 8 -44 27.5t-20 47.5q0 20 19.5 36t41.5 20q-49 26 -123 26q-63 0 -100.5 -20.5t-37.5 -62.5q0 -57 70 -79q49 -15 64 -25.5t15 -35.5v-660l-125 68l-7 -13l112 -61q-53 -25 -87 -61t-34 -65h317zM1532 957
q0 57 26 99.5t71 64.5l-87 48l41 72l97 -53v581q0 13 -12 22t-56 26q-84 31 -84 112q0 60 49 91.5t129 31.5q52 0 108 -17t103 -47q-109 -23 -109 -58q0 -23 30.5 -44t77.5 -30l-127 -54v-614l97 53l41 -72l-87 -48q45 -22 71 -64.5t26 -99.5h-405z" />
  </g>

</svg>
