<?xml version="1.0" standalone="no"?>
<!DOCTYPE svg PUBLIC "-//W3C//DTD SVG 1.1//EN" "http://www.w3.org/Graphics/SVG/1.1/DTD/svg11.dtd" >
<svg xmlns="http://www.w3.org/2000/svg" xmlns:xlink="http://www.w3.org/1999/xlink" version="1.1" viewBox="-10 0 2599 2048">
  <g transform="matrix(1 0 0 -1 0 1638)">
   <path fill="currentColor"
d="M1136 -20q-39 0 -39 25q0 11 11 22l-56 -20q-13 -5 -32 -5q-39 0 -39 27q0 10 7.5 20t37.5 25l-2 4l-147 -69q-21 -10 -43 -10q-19 0 -30.5 7t-11.5 18q0 12 11 25l-66 -22l-18 -3q-20 0 -30.5 10.5t-10.5 24.5q0 25 43 37q-23 3 -23 22q0 5 8.5 16t38.5 16l271 45
q44 39 69.5 70t25.5 40q0 13 -36 56.5t-58 62.5q-136 48 -275 150t-219.5 211t-80.5 193q0 108 81 165t230 57h141q85 0 85 16q0 22 -53 22q-43 0 -85.5 -4.5t-90.5 -4.5h-74q-63 0 -79 6l-354 8q-39 0 -60 -3t-25 -17h-58v19q3 73 128 100l345 83q55 38 153 38
q112 0 207.5 -33t150.5 -88t55 -112q0 -178 -240 -178q-82 0 -121.5 -4t-39.5 -24q0 -10 19 -17t38 -7l35 3q130 15 176 15q106 0 197.5 -17t174.5 -44.5t160 -62t154 -69.5q120 -55 198.5 -83.5t140.5 -42.5t454 -87l4 -69l-63 -2q23 -12 23 -29v-126q0 -39 -25.5 -62
t-73.5 -23l-24 2l-547 78l-216 -3q-74 0 -130 14q45 -60 45 -85q0 -22 -55 -125t-64 -118l-177 -77q-17 -7 -46 -7zM1397 298q0 -23 -88 -170l-257 -74q-39 -11 -39 -23q0 -6 13 -6q9 0 19.5 2t195.5 61v-22q-53 -21 -80 -31t-27 -17t14 -7t29 6l148 64l35 65q78 144 78 161
q0 23 -89 126l24 28q46 -25 92 -34t98 -9h51l171 3l556 -79h9q59 0 59 44v107q0 22 -34.5 32.5t-120.5 10.5l-766 -20q-208 0 -386 44.5t-282.5 119.5t-104.5 152q0 42 36.5 76t86.5 34q31 0 55 -5q24 -6 44 -6q39 0 120 27l12 -38q-32 -11 -73 -20t-59 -9q-28 0 -53 6
q-26 5 -46 5q-31 0 -57 -21t-26 -49q0 -68 98 -133t267.5 -104t367.5 -39l776 11v1l2 -1l191 4v11l-56 11q-351 60 -398 72q-129 33 -317 120q-207 95 -297 126t-183.5 49t-199.5 18l-49 -3l-162 -15q-32 0 -64.5 18t-32.5 46q0 38 35.5 53t148.5 15q78 0 119 12.5
t69.5 41.5t28.5 84q0 44 -55 90.5t-142 74.5t-176 28q-53 0 -88.5 -11t-55.5 -30t-20 -39q0 -74 188 -74q44 0 87 4.5t89 4.5q43 0 68 -18t25 -44q0 -56 -125 -56h-141q-129 0 -200 -46.5t-71 -135.5q0 -61 53 -141t159.5 -172.5t223.5 -154.5t208 -74q106 -13 188.5 -57.5
t82.5 -80.5zM1151 305q0 -16 -31.5 -55t-79.5 -80l-301 -92q-28 -9 -28 -17q0 -9 17 -9l25 4l183 54v-22q-103 -33 -109.5 -37.5t-6.5 -13.5q0 -10 16 -10q20 0 44 13l158 84q114 109 141.5 141.5t27.5 43.5q0 30 -33 81l-42 8l-46 6q65 -76 65 -99zM1357 298
q0 9 -39.5 33.5t-90.5 43.5q20 -42 20 -66q0 -21 -24.5 -50t-128.5 -129l180 18q83 135 83 150zM522 1343q0 16 8 33l-289 -63q-103 -22 -112 -68h13q21 63 217 63q128 0 172 -3q-9 16 -9 38zM561 1269l-8 7q-105 7 -192 7q-96 0 -153 -13zM735 118q0 -5 8 -5l213 46v3
l-207 -34q-14 -2 -14 -10zM1049 92q0 -6 12 -6l30 5l111 28l-1 2l-121 -15q-31 -3 -31 -14zM628 1352q0 17 12.5 29.5t30.5 12.5q17 0 29.5 -12.5t12.5 -29.5q0 -18 -12.5 -30.5t-29.5 -12.5q-18 0 -30.5 12.5t-12.5 30.5zM655 1352q0 -16 16 -16q15 0 15 16q0 15 -15 15
q-16 0 -16 -15z" />
  </g>

</svg>
