<?xml version="1.0" standalone="no"?>
<!DOCTYPE svg PUBLIC "-//W3C//DTD SVG 1.1//EN" "http://www.w3.org/Graphics/SVG/1.1/DTD/svg11.dtd" >
<svg xmlns="http://www.w3.org/2000/svg" xmlns:xlink="http://www.w3.org/1999/xlink" version="1.1" viewBox="-10 0 2222 2048">
  <g transform="matrix(1 0 0 -1 0 1638)">
   <path fill="currentColor"
d="M876 108q29 -39 29 -123h-39l-6 15h-64l-45 5l-85 6q-41 0 -136 -11q-33 0 -44 14q-14 -14 -18 -29h-39q9 47 48.5 83.5t97.5 46.5l127 26q77 16 106 102l102 273l-84 297q-137 78 -244 163t-157.5 161.5t-50.5 141.5q0 51 19.5 98.5t80.5 120.5q39 47 93.5 134.5
t61.5 108.5q-40 13 -61 29q-75 -17 -159.5 -74.5t-146 -134t-78.5 -147.5h-84v55q0 84 52.5 174t145.5 163t209 111q11 66 64 107t128 41q85 0 135.5 -40t50.5 -119q0 -81 -212 -444l20 -25q117 27 182 27q112 0 290.5 -82.5t394.5 -230.5l155 -106q81 -50 397 -196l-26 -57
l-88 -2l61 -21l4 -58q-157 -68 -228 -68q-24 0 -130 26q-107 25 -135 25q-24 0 -96 -12q-72 -13 -93 -13q-15 0 -42 10q18 -62 18 -96l-6 -129l-17 -309q45 -50 82 -160h-40l-6 15h-63l-55 5l-95 6q-42 0 -126 -11q-33 0 -44 14q-14 -14 -18 -29h-39q9 47 49 82t97 48
l116 26q21 5 21 19l-3 356q-22 35 -118 115l-40 -90l-2 -49zM1292 129l13 217l12 232q0 55 -42 163l35 17q35 -49 71 -49l35 4q115 21 154 21q29 0 134 -25q105 -26 131 -26q80 0 186 46v10q-27 24 -146 59q-183 16 -355 48t-261 63q-260 90 -353.5 129.5t-152.5 72.5
t-96.5 64.5t-54 59t-16.5 53.5q0 42 77.5 75t171.5 40l2 -39q-73 -4 -142 -30.5t-69 -50.5q0 -22 16.5 -44t54.5 -50t94.5 -57t149.5 -66.5t332 -118.5q135 -46 346 -80.5t438 -47.5v11q-313 149 -363 181l-154 104q-455 309 -665 309q-87 0 -204 -33l-44 60
q85 145 151.5 279.5t66.5 175.5q0 60 -40 89.5t-106 29.5q-69 0 -111.5 -38t-42.5 -93q0 -36 13 -59t38.5 -37t94.5 -28l-111 -196q-25 -42 -54 -75t-54 -66t-41.5 -69.5t-16.5 -84.5q0 -176 395 -409l101 -60q86 -50 193 -137l7 -3l-1 -2q111 -91 141 -141l3 -384
q0 -30 -38 -39l-144 -30q-29 -8 -50 -26q8 -8 40 -8q61 11 97 11l121 -6l75 -5q-21 50 -62 89zM1010 499v10l1 17l1 23l49 108q-101 77 -186 128l77 -273l-99 -267q-46 -125 -143 -144l-140 -27q-40 -5 -50 -26q8 -8 40 -8q77 11 107 11l111 -6l65 -5q11 5 11 16
q0 17 -28 43zM135 1454q39 142 136 243.5t243 151.5l-6 28q-160 -56 -265 -175t-108 -248zM537 1799q-8 9 -14 25q-126 -39 -226.5 -142t-144.5 -228h6q30 101 144 203.5t235 141.5zM607 1920q0 20 14.5 34.5t35.5 14.5q20 0 34.5 -14.5t14.5 -34.5q0 -21 -14.5 -35.5
t-34.5 -14.5q-21 0 -35.5 14.5t-14.5 35.5zM638 1920q0 -19 19 -19q18 0 18 19q0 18 -18 18q-19 0 -19 -18z" />
  </g>

</svg>
