<?xml version="1.0" standalone="no"?>
<!DOCTYPE svg PUBLIC "-//W3C//DTD SVG 1.1//EN" "http://www.w3.org/Graphics/SVG/1.1/DTD/svg11.dtd" >
<svg xmlns="http://www.w3.org/2000/svg" xmlns:xlink="http://www.w3.org/1999/xlink" version="1.1" viewBox="-10 0 2626 2048">
  <g transform="matrix(1 0 0 -1 0 1638)">
   <path fill="currentColor"
d="M2299 489q6 -7 9 -19l203 29l5 -25l-204 -46l-2 -12l167 -173l-16 -16l-188 158l-9 -2l32 -122l-17 -3l-52 123l-31 7l29 -119l-21 -5l-57 137l-28 7l11 -122l-17 -5l-53 142l-20 5l13 -119l-17 -6l-45 137l-20 4l3 -114l-20 -1l-28 125l-36 7l21 -120l-20 -7l-68 140
l-37 5l21 -113l-16 -4l-65 126l-26 3l33 -125l-16 -8l-86 139l-9 1h-9l28 -134l-19 -5l-60 141h-19l11 -132l-15 -2l-57 133l-14 -1l8 -139l-18 -3l-45 139l-35 -2l42 -123l-22 -11l-80 130l-34 -3l44 -118l-18 -5l-90 117l-29 -3l46 -122l-17 -4l-94 119l-25 -3l49 -135
l-25 -8l-86 135l-33 -4l70 -120l-17 -16l-123 127l-36 -4l82 -134l-26 -8l-109 135l-30 -4l42 -136l-25 -9l-74 138l-49 -4l35 -136l-23 -7l-78 143l-37 5l48 -136l-22 -11l-104 164q-47 -22 -92 -22q-36 0 -71 22.5t-51 57.5q-120 -31 -150 -195q-3 -19 -9 -36t-26 -17
q-23 0 -27 13.5t-4 32.5q0 94 57.5 170t151.5 101v4q-75 33 -121 103t-46 154q0 32 5.5 53t26.5 21q17 0 24.5 -10t9.5 -47q10 -171 136 -213q38 36 89 36q48 0 93 -32l89 188l25 -8l-31 -142l43 13l51 136l24 -5l-17 -118l23 3l61 131l23 -1l-21 -122l38 3l82 145l26 -11
l-38 -130l35 2l65 138l24 -8l-27 -127l13 1h12l69 136l26 -10l-36 -123h14l14 1l61 139l25 -1l-22 -136l17 1h18l84 138l22 -7l-33 -129h28l65 137l20 -3l-27 -134l43 -1l68 137l20 -7l-29 -132h14l13 -1l66 138l21 -8l-26 -133l24 -2l73 141l23 -9l-35 -137l21 -3l82 128
l21 -7l-46 -128l31 -4l85 123l17 -8l-46 -125l39 -8l70 125l19 -5l-33 -133l18 -5l90 114l17 -13l-48 -118l30 -11l75 119l21 -11l-47 -126l17 -7l85 100l13 -7l-53 -113l17 -8l127 76l3 -10l-86 -88l22 -11l109 59l9 -13l-76 -71l21 -14l117 46l4 -17zM538 564
q43 -17 107 -17q21 0 211 25l149 20q302 41 451 41q488 0 810 -169q-24 40 -178 107t-339 95.5t-415 28.5q-125 0 -243.5 -6t-226.5 -11q-305 -20 -326 -114zM2235 420h11l11 2q-155 83 -358 127t-443 44q-147 0 -445 -41q-327 -45 -366 -45q-63 0 -108 16q3 -36 39 -50
t112 -14q39 0 200 22q269 35 416 47t249 12q192 0 492 -74zM496 549q0 31 12 53q-34 28 -75 28q-34 0 -60.5 -25t-26.5 -60q0 -33 28 -59t64 -26t69 15q-11 22 -11 74zM324 610q-134 50 -144 236q-3 30 -4 30h-1q-2 0 -2.5 -7.5t-3.5 -44.5q0 -74 42 -134.5t108 -89.5z
M307 528l-1 11q-81 -25 -129.5 -91.5t-48.5 -152.5q0 -15 3 -15l4 10q16 104 58 160.5t114 77.5z" />
  </g>

</svg>
