<?xml version="1.0" standalone="no"?>
<!DOCTYPE svg PUBLIC "-//W3C//DTD SVG 1.1//EN" "http://www.w3.org/Graphics/SVG/1.1/DTD/svg11.dtd" >
<svg xmlns="http://www.w3.org/2000/svg" xmlns:xlink="http://www.w3.org/1999/xlink" version="1.1" viewBox="-10 0 2202 2048">
  <g transform="matrix(1 0 0 -1 0 1638)">
   <path fill="currentColor"
d="M2042 -21q-151 89 -237 232t-86 323q0 51 17 193q16 142 16 208q0 203 -53.5 314.5t-171 160.5t-357.5 49q-131 0 -485 -39q-128 -14 -159 -14q-66 0 -102 53.5t-36 147.5q0 92 29 187q-72 -20 -133 -20q-85 0 -126 25t-58 76q3 54 41.5 93.5t99.5 61.5t124 22
q118 0 172 -33.5t54 -102.5q0 -43 -13 -95q-14 -53 -14 -81q0 -110 70 -110q32 0 155 21q224 38 326 49t171 11q266 0 415.5 -61t219.5 -186.5t70 -313.5q0 -78 -31 -242q-31 -165 -31 -276q0 -183 43.5 -337.5t119.5 -264.5zM2042 42q-78 125 -115.5 263.5t-37.5 315.5
q0 118 31 288q31 171 31 241q0 264 -157 393t-498 129q-153 0 -501 -57q-122 -20 -159 -20q-110 0 -110 145q0 17 21 141l4 35q0 51 -46.5 73.5t-139.5 22.5q-77 0 -150 -42t-75 -91q11 -28 57 -46.5t87 -18.5q52 0 163 30l12 -19q-33 -120 -33 -220q0 -67 30.5 -113
t77.5 -46q36 0 102 9q346 44 534 44q259 0 385 -51.5t181 -170t56 -340.5q0 -71 -16 -216q-17 -145 -17 -198q0 -145 78.5 -286.5t195.5 -205.5zM352 1984q13 0 21.5 -9t8.5 -23q0 -13 -8.5 -21.5t-21.5 -8.5q-14 0 -23 8.5t-9 21.5q0 14 9 23t23 9z" />
  </g>

</svg>
