<?xml version="1.0" standalone="no"?>
<!DOCTYPE svg PUBLIC "-//W3C//DTD SVG 1.1//EN" "http://www.w3.org/Graphics/SVG/1.1/DTD/svg11.dtd" >
<svg xmlns="http://www.w3.org/2000/svg" xmlns:xlink="http://www.w3.org/1999/xlink" version="1.1" viewBox="-10 0 1764 2048">
  <g transform="matrix(1 0 0 -1 0 1638)">
   <path fill="currentColor"
d="M197 1526q0 77 54.5 131t130.5 54q54 0 98 -28t67 -73q23 45 67 73t98 28t98 -28t67 -73q23 45 67 73t98 28t98 -28t67 -73q23 45 67 73t98 28q77 0 131 -54.5t54 -130.5q0 -89 -72 -146h169l-348 -1138h-858l-348 1138h168q-71 58 -71 146zM154 1340l324 -1058h798
l324 1058h-1446zM1187 1526q-2 60 -43.5 102.5t-101.5 42.5t-101.5 -42.5t-43.5 -102.5q0 -60 42.5 -102.5t102.5 -42.5t101.5 42.5t43.5 102.5zM857 1526q-2 60 -43.5 102.5t-101.5 42.5t-101.5 -42.5t-43.5 -102.5q0 -60 42.5 -102.5t102.5 -42.5t102.5 42.5t42.5 102.5z
M1227 1526q0 -60 42.5 -102.5t102.5 -42.5t102.5 42.5t42.5 102.5t-42.5 102.5t-102.5 42.5t-102.5 -42t-42.5 -103zM237 1526q0 -60 42.5 -102.5t102.5 -42.5t102.5 42.5t42.5 102.5q0 61 -42.5 103t-102.5 42t-102.5 -42.5t-42.5 -102.5zM1207 1442q-20 -39 -52 -62h103
q-33 26 -51 62zM547 1442q-20 -39 -52 -62h103q-33 26 -51 62zM928 1380q-33 26 -51 62q-20 -39 -52 -62h103z" />
  </g>

</svg>
