<?xml version="1.0" standalone="no"?>
<!DOCTYPE svg PUBLIC "-//W3C//DTD SVG 1.1//EN" "http://www.w3.org/Graphics/SVG/1.1/DTD/svg11.dtd" >
<svg xmlns="http://www.w3.org/2000/svg" xmlns:xlink="http://www.w3.org/1999/xlink" version="1.1" viewBox="-10 0 2223 2048">
  <g transform="matrix(1 0 0 -1 0 1638)">
   <path fill="currentColor"
d="M1871 -33q-142 85 -218.5 216t-76.5 291q0 49 15 176q15 128 15 189q0 185 -47.5 285.5t-154.5 144.5t-324 44q-126 0 -336 -23q-210 -24 -253 -24q-59 0 -95 50t-36 136q0 95 22 166q-59 -18 -111 -18q-140 0 -171 97q3 48 38 85.5t91.5 58.5t115.5 21q116 0 163 -31.5
t47 -96.5q0 -38 -11 -87q-12 -50 -12 -73q0 -93 63 -93q30 0 95 11q349 59 495 59q92 0 160 -7l493 408q80 67 151 67q58 0 91 -28.5t33 -77.5q0 -58 -30 -85t-75 -27q-38 0 -72 21l-223 -336q-39 37 -113 72.5t-129 38.5l-72 -60q223 -33 327.5 -157t104.5 -345
q0 -54 -9 -108.5t-19.5 -112.5t-19 -120t-8.5 -131q0 -168 39.5 -308.5t108.5 -241.5zM1875 24q-73 118 -107 242.5t-34 286.5q0 71 9 136.5t19.5 126t19.5 115.5t9 104q0 243 -143 359.5t-454 116.5q-132 0 -457 -52q-112 -18 -145 -18q-101 0 -101 133q0 20 20 128l4 32
q0 47 -42.5 67.5t-127.5 20.5q-71 0 -137 -38t-68 -83q8 -25 49 -42.5t82 -17.5q44 0 148 27l11 -16q-30 -118 -30 -202q0 -60 27.5 -102t71.5 -42q33 0 93 8q316 39 488 39q236 0 349.5 -46.5t164.5 -154.5t52 -311q0 -66 -15 -196t-15 -181q0 -135 73 -264.5t178 -185.5z
M1517 1635q87 -17 188 -88l219 329q45 -35 84 -35q65 0 65 72q0 24 -19 45t-65 21q-58 0 -135 -65zM333 1796q12 0 19.5 -8.5t7.5 -20.5t-7.5 -20t-19.5 -8q-13 0 -21.5 8t-8.5 20t8.5 20.5t21.5 8.5z" />
  </g>

</svg>
