<?xml version="1.0" standalone="no"?>
<!DOCTYPE svg PUBLIC "-//W3C//DTD SVG 1.1//EN" "http://www.w3.org/Graphics/SVG/1.1/DTD/svg11.dtd" >
<svg xmlns="http://www.w3.org/2000/svg" xmlns:xlink="http://www.w3.org/1999/xlink" version="1.1" viewBox="-10 0 1730 2048">
  <g transform="matrix(1 0 0 -1 0 1638)">
   <path fill="currentColor"
d="M1219 1861q111 0 205 -43.5t145 -119.5t51 -165q0 -46 -9.5 -104.5t-25.5 -128t-78 -282.5q-52 -166 -80 -354t-28 -361v-238h-361v72q0 116 42 289.5t122 375.5q111 278 111 317q0 148 -230 148q-65 0 -119.5 -21t-84.5 -63l-132 -193l-245 -364q-22 -29 -45.5 -45
t-49.5 -23t-89 -7q-26 -10 -53 -10q-64 0 -114.5 48.5t-50.5 113.5q0 47 38 107.5t133 151.5l454 416h-1q70 64 82 122q20 99 78.5 186.5t143.5 131t191 43.5zM1047 1559q0 35 24.5 59.5t59.5 24.5t59.5 -24.5t24.5 -59.5t-24.5 -59.5t-59.5 -24.5q-39 0 -66 31l-61 -27
q-7 -38 -7 -77q0 -70 8 -102q40 7 78 7q136 0 203 -46t67 -142q0 -47 -98 -292q-75 -177 -126 -370.5t-51 -319.5v-32h281v198q0 312 77 608l33 119q111 372 111 503q0 124 -102.5 206t-258.5 82q-91 0 -166 -37t-128.5 -112t-73.5 -158l131 -2l66 30l-1 8v9zM967 1291
q-10 47 -10 111q0 38 4 70l-120 2q-17 -56 -90 -126l-453 -416h1q-77 -69 -118 -129t-41 -100q0 -51 39.5 -86.5t85.5 -35.5q80 0 184 134l317 412q57 75 102.5 111t98.5 53zM1084 1559q0 -19 14 -33t33 -14t32.5 14t13.5 33t-13.5 32.5t-32.5 13.5t-33 -13.5t-14 -32.5z
M395 598q27 1 42 13t38 45l308 439l-4 2l-298 -406q-37 -51 -86 -93z" />
  </g>

</svg>
