<?xml version="1.0" standalone="no"?>
<!DOCTYPE svg PUBLIC "-//W3C//DTD SVG 1.1//EN" "http://www.w3.org/Graphics/SVG/1.1/DTD/svg11.dtd" >
<svg xmlns="http://www.w3.org/2000/svg" xmlns:xlink="http://www.w3.org/1999/xlink" version="1.1" viewBox="-10 0 758 2048">
  <g transform="matrix(1 0 0 -1 0 1638)">
   <path fill="currentColor"
d="M113 2051h535v-140h-162l-88 -1296q38 18 101 18q68 0 108.5 -45.5t40.5 -110.5q0 -43 -21.5 -89.5t-46.5 -91.5q-39 -71 -45 -100q-24 -107 -38 -137t-32.5 -48.5t-39.5 -27t-51 -8.5q-27 0 -47.5 7t-39.5 25t-33 45.5t-29 91.5t-24 86t-17.5 38.5t-18.5 32t-37.5 73.5
t-27.5 103q0 65 41 110.5t108 45.5q57 0 101 -18l-89 1296h-148v140zM374 775l73 1136h-146zM394 17q64 15 93 153q14 55 19 66l-1 -1q9 25 41 81q62 113 62 161t-30.5 82t-78.5 34q-68 0 -104 -24zM249 593q-48 0 -78.5 -33.5t-30.5 -82.5q0 -48 62 -161q29 -49 41 -81
l-1 1q5 -11 19 -66q17 -79 39.5 -112.5t53.5 -40.5l-1 551q-34 25 -104 25zM153 1951h455v60h-455v-60z" />
  </g>

</svg>
