<?xml version="1.0" standalone="no"?>
<!DOCTYPE svg PUBLIC "-//W3C//DTD SVG 1.1//EN" "http://www.w3.org/Graphics/SVG/1.1/DTD/svg11.dtd" >
<svg xmlns="http://www.w3.org/2000/svg" xmlns:xlink="http://www.w3.org/1999/xlink" version="1.1" viewBox="-10 0 2501 2048">
  <g transform="matrix(1 0 0 -1 0 1638)">
   <path fill="currentColor"
d="M584 488q94 0 148.5 71.5t54.5 199.5q0 51 -23 246q-22 184 -22 240q0 402 262 402q130 0 199.5 -80.5t69.5 -236.5q0 -53 -42 -370q-23 -168 -23 -223q0 -105 16.5 -151.5t53 -72t101.5 -25.5q92 0 143.5 75t51.5 220q0 62 -18 224t-18 225q0 160 28 246.5t87 127.5
t147 41q270 0 270 -311q0 -91 -26 -303q-40 -316 -40 -354q0 -101 35.5 -156t96.5 -55q87 0 165 32l58 23l32 -55q-43 -53 -115.5 -88t-140.5 -35q-128 0 -201 89t-73 245q0 76 31 288l13 93q22 163 22 241q0 114 -30 158.5t-92 44.5t-93 -54.5t-31 -189.5q0 -55 18 -230
q18 -177 18 -234q0 -229 -86 -340t-245 -111q-83 0 -142 22.5t-97.5 64.5t-60 111.5t-21.5 191.5q0 79 23 230q21 142 33 230t9 104q0 99 -30 152t-89 53q-61 0 -93.5 -65.5t-32.5 -174.5q0 -38 13 -145l16 -135q16 -139 16 -206q0 -136 -47 -232.5t-130 -148.5t-183 -52
q-164 0 -245 82t-81 240l4 193q0 104 -28 184q-26 73 -26 125q0 147 81 226l-47 -5q-54 0 -91 21.5t-37 56.5q0 41 30 80t81.5 62.5t118.5 23.5q63 0 116 -27t116 -90t97.5 -127t34.5 -117q0 -54 -12.5 -103t-34.5 -99t-90 -170q-64 -116 -82.5 -170t-18.5 -102
q0 -69 29 -105t99 -36zM288 860l-4 -193q0 -277 285 -282q93 3 165.5 50t114 135t41.5 208q0 70 -25 276q-20 158 -20 210q0 130 43.5 205t122.5 75q159 0 159 -245q0 -60 -42 -341q-23 -149 -23 -223q0 -191 70 -270.5t211 -79.5t216 103.5t75 307.5q0 53 -18 230
q-18 175 -18 234q0 109 16.5 165t51.5 87.5t96 31.5q84 0 123 -54t39 -189q0 -83 -22 -246q-44 -315 -44 -376q0 -135 62 -214.5t172 -79.5q60 0 118 24t91 61l-4 7q-74 -32 -116 -40.5t-88 -8.5q-81 0 -126.5 65.5t-45.5 185.5q0 43 40 359q26 212 26 298q0 271 -230 271
q-75 0 -125.5 -38.5t-73.5 -116.5t-23 -220q0 -59 18 -221t18 -228q0 -162 -61 -248.5t-174 -86.5q-80 0 -125 29.5t-65.5 84t-20.5 175.5q0 59 23 229q42 320 42 364q0 137 -59.5 207t-169.5 70q-222 0 -222 -362q0 -46 22 -236q23 -201 23 -250q0 -87 -28.5 -157.5
t-82 -112t-130.5 -41.5q-84 0 -127 43t-43 140q0 104 103 286l47 83q88 152 88 273q0 42 -15.5 78.5t-40 69t-107.5 106.5q-46 40 -82.5 53.5t-78.5 13.5q-56 0 -98.5 -18.5t-67 -48t-24.5 -59.5q0 -17 28 -27.5t68 -10.5q14 0 58 7.5t53 11.5q28 11 75 11q45 0 72 -11
l-8 -40q-36 11 -64 11q-83 0 -135.5 -62t-52.5 -189q0 -56 23 -114q31 -83 31 -195zM231 1520q0 10 6.5 17t17.5 7t17.5 -7t6.5 -17q0 -22 -24 -22t-24 22z" />
  </g>

</svg>
