<?xml version="1.0" standalone="no"?>
<!DOCTYPE svg PUBLIC "-//W3C//DTD SVG 1.1//EN" "http://www.w3.org/Graphics/SVG/1.1/DTD/svg11.dtd" >
<svg xmlns="http://www.w3.org/2000/svg" xmlns:xlink="http://www.w3.org/1999/xlink" version="1.1" viewBox="-10 0 1424 2048">
  <g transform="matrix(1 0 0 -1 0 1638)">
   <path fill="currentColor"
d="M100 635q0 163 81 303.5t221.5 222t304.5 81.5q163 0 303.5 -81t222 -221.5t81.5 -304.5q0 -163 -81 -303.5t-221.5 -222t-304.5 -81.5q-163 0 -303.5 81t-222 221.5t-81.5 304.5zM707 1202q-149 0 -277.5 -72t-206.5 -200t-83 -275h1133q-5 148 -83 275t-206 199.5
t-277 72.5zM707 68q148 0 276.5 72t206.5 199.5t83 275.5h-1133q5 -149 83.5 -276.5t207.5 -199t276 -71.5z" />
  </g>

</svg>
