<?xml version="1.0" standalone="no"?>
<!DOCTYPE svg PUBLIC "-//W3C//DTD SVG 1.1//EN" "http://www.w3.org/Graphics/SVG/1.1/DTD/svg11.dtd" >
<svg xmlns="http://www.w3.org/2000/svg" xmlns:xlink="http://www.w3.org/1999/xlink" version="1.1" viewBox="-10 0 1080 2048">
  <g transform="matrix(1 0 0 -1 0 1638)">
   <path fill="currentColor"
d="M942 1359q0 14 -17.5 38t-62.5 45l74 40l-5 8l-82 -44v453l53 23q-17 5 -30 18t-13 31q0 15 14 24.5t26 11.5q-30 18 -80 18q-90 0 -90 -55q0 -35 45 -52q15 -3 28 -8.5t19 -11.5t6 -19v-433l-83 44l-5 -8l74 -40q-45 -21 -62 -45t-17 -38h208zM705 1333q0 77 63 107
l-57 32l28 47l63 -34v381q0 6 -5.5 11.5t-32.5 16.5l-6 3q-32 14 -44 31.5t-12 41.5q0 40 32 60.5t85 20.5q69 0 138 -42q-33 -6 -52 -16.5t-19 -21.5q0 -16 21.5 -29.5t48.5 -19.5l-82 -35v-402l63 34l27 -47l-58 -32q64 -30 64 -107h-265zM641 1359q0 14 -17.5 38
t-62.5 45l74 40l-5 8l-82 -44v453l53 23q-17 5 -30 18t-13 31q0 15 14 24.5t26 11.5q-30 18 -80 18q-90 0 -90 -55q0 -35 45 -52q15 -3 28 -8.5t19 -11.5t6 -19v-433l-83 44l-5 -8l74 -40q-45 -21 -62 -45t-17 -38h208zM404 1333q0 77 63 107l-57 32l28 47l63 -34v381
q0 6 -5.5 11.5t-32.5 16.5l-6 3q-32 14 -44 31.5t-12 41.5q0 40 32 60.5t85 20.5q69 0 138 -42q-33 -6 -52 -16.5t-19 -21.5q0 -16 21.5 -29.5t48.5 -19.5l-82 -35v-402l63 34l27 -47l-58 -32q64 -30 64 -107h-265zM340 1359q0 14 -17.5 38t-62.5 45l74 40l-5 8l-82 -44v453
l53 23q-17 5 -30 18t-13 31q0 15 14 24.5t26 11.5q-30 18 -80 18q-90 0 -90 -55q0 -35 45 -52q15 -3 28 -8.5t19 -11.5t6 -19v-433l-83 44l-5 -8l74 -40q-45 -21 -62 -45t-17 -38h208zM103 1333q0 77 63 107l-57 32l28 47l63 -34v381q0 6 -5.5 11.5t-32.5 16.5l-6 3
q-32 14 -44 31.5t-12 41.5q0 40 32 60.5t85 20.5q69 0 138 -42q-33 -6 -52 -16.5t-19 -21.5q0 -16 21.5 -29.5t48.5 -19.5l-82 -35v-402l63 34l27 -47l-58 -32q64 -30 64 -107h-265zM942 604q0 14 -17.5 38t-62.5 45l74 40l-5 8l-82 -44v453l53 23q-17 5 -30 18t-13 31
q0 15 14 24.5t26 11.5q-30 18 -80 18q-90 0 -90 -55q0 -35 45 -52q15 -3 28 -8.5t19 -11.5t6 -19v-433l-83 44l-5 -8l74 -40q-45 -21 -62 -45t-17 -38h208zM705 578q0 77 63 107l-57 32l28 47l63 -34v381q0 6 -5.5 11.5t-32.5 16.5l-6 3q-32 14 -44 31.5t-12 41.5
q0 40 32 60.5t85 20.5q69 0 138 -42q-33 -6 -52 -16.5t-19 -21.5q0 -16 21.5 -29.5t48.5 -19.5l-82 -35v-402l63 34l27 -47l-58 -32q64 -30 64 -107h-265zM641 604q0 14 -17.5 38t-62.5 45l74 40l-5 8l-82 -44v453l53 23q-17 5 -30 18t-13 31q0 15 14 24.5t26 11.5
q-30 18 -80 18q-90 0 -90 -55q0 -35 45 -52q15 -3 28 -8.5t19 -11.5t6 -19v-433l-83 44l-5 -8l74 -40q-45 -21 -62 -45t-17 -38h208zM404 578q0 77 63 107l-57 32l28 47l63 -34v381q0 6 -5.5 11.5t-32.5 16.5l-6 3q-32 14 -44 31.5t-12 41.5q0 40 32 60.5t85 20.5
q69 0 138 -42q-33 -6 -52 -16.5t-19 -21.5q0 -16 21.5 -29.5t48.5 -19.5l-82 -35v-402l63 34l27 -47l-58 -32q64 -30 64 -107h-265zM340 604q0 14 -17.5 38t-62.5 45l74 40l-5 8l-82 -44v453l53 23q-17 5 -30 18t-13 31q0 15 14 24.5t26 11.5q-30 18 -80 18q-90 0 -90 -55
q0 -35 45 -52q15 -3 28 -8.5t19 -11.5t6 -19v-433l-83 44l-5 -8l74 -40q-45 -21 -62 -45t-17 -38h208zM103 578q0 77 63 107l-57 32l28 47l63 -34v381q0 6 -5.5 11.5t-32.5 16.5l-6 3q-32 14 -44 31.5t-12 41.5q0 40 32 60.5t85 20.5q69 0 138 -42q-33 -6 -52 -16.5
t-19 -21.5q0 -16 21.5 -29.5t48.5 -19.5l-82 -35v-402l63 34l27 -47l-58 -32q64 -30 64 -107h-265zM942 -151q0 14 -17.5 38t-62.5 45l74 40l-5 8l-82 -44v453l53 23q-17 5 -30 18t-13 31q0 15 14 24.5t26 11.5q-30 18 -80 18q-90 0 -90 -55q0 -35 45 -52q15 -3 28 -8.5
t19 -11.5t6 -19v-433l-83 44l-5 -8l74 -40q-45 -21 -62 -45t-17 -38h208zM705 -177q0 77 63 107l-57 32l28 47l63 -34v381q0 6 -5.5 11.5t-32.5 16.5l-6 3q-32 14 -44 31.5t-12 41.5q0 40 32 60.5t85 20.5q69 0 138 -42q-33 -6 -52 -16.5t-19 -21.5q0 -16 21.5 -29.5
t48.5 -19.5l-82 -35v-402l63 34l27 -47l-58 -32q64 -30 64 -107h-265zM641 -151q0 14 -17.5 38t-62.5 45l74 40l-5 8l-82 -44v453l53 23q-17 5 -30 18t-13 31q0 15 14 24.5t26 11.5q-30 18 -80 18q-90 0 -90 -55q0 -35 45 -52q15 -3 28 -8.5t19 -11.5t6 -19v-433l-83 44
l-5 -8l74 -40q-45 -21 -62 -45t-17 -38h208zM404 -177q0 77 63 107l-57 32l28 47l63 -34v381q0 6 -5.5 11.5t-32.5 16.5l-6 3q-32 14 -44 31.5t-12 41.5q0 40 32 60.5t85 20.5q69 0 138 -42q-33 -6 -52 -16.5t-19 -21.5q0 -16 21.5 -29.5t48.5 -19.5l-82 -35v-402l63 34
l27 -47l-58 -32q64 -30 64 -107h-265zM340 -151q0 14 -17.5 38t-62.5 45l74 40l-5 8l-82 -44v453l53 23q-17 5 -30 18t-13 31q0 15 14 24.5t26 11.5q-30 18 -80 18q-90 0 -90 -55q0 -35 45 -52q15 -3 28 -8.5t19 -11.5t6 -19v-433l-83 44l-5 -8l74 -40q-45 -21 -62 -45
t-17 -38h208zM103 -177q0 77 63 107l-57 32l28 47l63 -34v381q0 6 -5.5 11.5t-32.5 16.5l-6 3q-32 14 -44 31.5t-12 41.5q0 40 32 60.5t85 20.5q69 0 138 -42q-33 -6 -52 -16.5t-19 -21.5q0 -16 21.5 -29.5t48.5 -19.5l-82 -35v-402l63 34l27 -47l-58 -32q64 -30 64 -107
h-265z" />
  </g>

</svg>
