<?xml version="1.0" standalone="no"?>
<!DOCTYPE svg PUBLIC "-//W3C//DTD SVG 1.1//EN" "http://www.w3.org/Graphics/SVG/1.1/DTD/svg11.dtd" >
<svg xmlns="http://www.w3.org/2000/svg" xmlns:xlink="http://www.w3.org/1999/xlink" version="1.1" viewBox="-10 0 2241 2048">
  <g transform="matrix(1 0 0 -1 0 1638)">
   <path fill="currentColor"
d="M2131 702v-290h-596q-152 2 -275 45.5t-224 145.5q-25 25 -92 105l-137 160l4 -21q0 -22 -52 -80q-43 -48 -43 -70q0 -16 12 -35q34 -55 44 -77t10 -45q0 -17 -30 -49q-29 -30 -29 -43t12 -31q24 -37 37.5 -63t13.5 -46q0 -29 -40 -74q-37 -42 -37 -61q0 -17 30 -69
q26 -47 26 -56v-1v-77h-40v71q-3 13 -12 27.5t-18.5 31t-17.5 35t-8 39.5q0 16 12 36t26.5 39t26.5 35.5t12 27.5q0 17 -30 65q-33 51 -33 78q0 18 29 45q30 29 30 45q0 18 -33 76q-34 57 -34 75t15 39.5t33 42t33 39t15 30.5q0 13 -28 58q-35 53 -42 78q-136 143 -235 209
q-155 102 -307 166q-24 9 -41 30t-17 47q0 53 62 53q31 0 67 -8t112 -39.5t148.5 -71t142.5 -92t173 -142.5q7 9 7 14q0 19 -30 69q-31 50 -31 71q0 16 18 37.5t40 42.5t40 38.5t18 26.5q0 12 -6 28q-25 57 -25 75q0 26 22 38.5t75 27.5q79 23 85 31t6 30l-7 99
q0 13 4.5 21.5t25.5 9.5l89 -1q24 0 34 14t23 58q15 49 28 56l10 2q39 0 188 -58l20 -6l10 -1q21 0 46.5 12t51.5 21q-14 35 -36 77l32 18l32 -65q30 36 93 59t139 23q106 0 180.5 -41.5t74.5 -97.5t-74.5 -97.5t-180.5 -41.5q-77 0 -140 23.5t-92 58.5q-15 -40 -32 -65
l-32 18q34 60 41 92q-24 -10 -62.5 -21.5t-53.5 -11.5q-16 0 -104 32q-67 24 -82 24l-7 -2q-9 -12 -26 -59q-15 -41 -26 -51t-30 -10l-79 3q-14 0 -17 -9t-3 -23l4 -85q0 -25 -7.5 -32.5t-30.5 -13.5q-111 -33 -127 -42.5t-16 -28.5l3 -14l11 -30q14 -33 14 -44
q0 -19 -26 -42q-61 -56 -78.5 -75t-17.5 -31q0 -18 32 -72q28 -48 28 -70q0 -14 -17 -36q78 -72 245 -238q112 -113 189.5 -140.5t244.5 -27.5h617zM2091 452v210h-570q-140 0 -224.5 19.5t-151.5 76.5l-45 38l-43 40q-176 172 -251 243l-24 -21q-44 -37 -44 -50v-3
q97 -104 271 -310q112 -132 239.5 -187.5t302.5 -55.5h540zM1808 1962q-77 0 -138 -24t-70 -59h-23v-30h24q14 -36 72 -59.5t135 -23.5q90 0 150.5 29.5t60.5 68.5t-60.5 68.5t-150.5 29.5zM776 1106q-135 118 -193.5 160t-141 85t-157 69.5t-115.5 26.5q-28 0 -28 -11
q0 -22 52 -46q98 -38 196.5 -97t168 -115.5t148.5 -139.5q13 20 70 68z" />
  </g>

</svg>
