<?xml version="1.0" standalone="no"?>
<!DOCTYPE svg PUBLIC "-//W3C//DTD SVG 1.1//EN" "http://www.w3.org/Graphics/SVG/1.1/DTD/svg11.dtd" >
<svg xmlns="http://www.w3.org/2000/svg" xmlns:xlink="http://www.w3.org/1999/xlink" version="1.1" viewBox="-10 0 1228 2048">
  <g transform="matrix(1 0 0 -1 0 1638)">
   <path fill="currentColor"
d="M609 2048q83 0 137.5 -52t73.5 -156l298 -1378l-70 -40q-319 -185 -319 -481q0 -61 49 -229h-338q49 181 49 229q0 296 -318 481l-71 40l298 1378q19 105 74 156.5t137 51.5zM724 -248q-35 140 -35 189q0 157 76 278.5t232 215.5l74 46l-291 1351q-15 65 -34.5 97.5
t-52 55.5t-84.5 23t-84.5 -23t-52 -55.5t-34.5 -97.5l-291 -1351l75 -46q155 -94 231 -215.5t76 -278.5q0 -33 -35 -189h230z" />
  </g>

</svg>
