<?xml version="1.0" standalone="no"?>
<!DOCTYPE svg PUBLIC "-//W3C//DTD SVG 1.1//EN" "http://www.w3.org/Graphics/SVG/1.1/DTD/svg11.dtd" >
<svg xmlns="http://www.w3.org/2000/svg" xmlns:xlink="http://www.w3.org/1999/xlink" version="1.1" viewBox="-10 0 2577 2048">
  <g transform="matrix(1 0 0 -1 0 1638)">
   <path fill="currentColor"
d="M1501 166q98 -31 148 -96t50 -149q0 -68 -21 -118t-59 -90t-145 -109l-25 24q54 97 71 158.5t17 125.5q0 46 -32 77.5t-84 31.5q-53 0 -84.5 -31.5t-31.5 -77.5q0 -69 20 -136t68 -148l-25 -24q-108 70 -145.5 109.5t-58.5 89t-21 118.5q0 85 49.5 150t147.5 95v899
l-302 -267v856h-566l-372 -336v667h2367v-666l-372 335h-896v-481l302 267v-1274zM140 1945v-538l318 287h1651l318 -287v538h-2287zM1461 1351l-302 -267v570h-81v-767l302 267v-1023q-44 0 -91.5 -28.5t-76.5 -75.5t-29 -106q0 -72 29.5 -126.5t103.5 -107.5
q-51 106 -51 225q0 63 43.5 106t112.5 43q68 0 112 -43.5t44 -105.5q0 -119 -51 -225q74 53 103.5 107t29.5 127q0 59 -28.5 105.5t-77 75.5t-92.5 29v1220z" />
  </g>

</svg>
