<?xml version="1.0" standalone="no"?>
<!DOCTYPE svg PUBLIC "-//W3C//DTD SVG 1.1//EN" "http://www.w3.org/Graphics/SVG/1.1/DTD/svg11.dtd" >
<svg xmlns="http://www.w3.org/2000/svg" xmlns:xlink="http://www.w3.org/1999/xlink" version="1.1" viewBox="-10 0 2014 2048">
  <g transform="matrix(1 0 0 -1 0 1638)">
   <path fill="currentColor"
d="M1004 712q0 56 -25 113t-60 88l-188 -105q-162 -91 -226 -91q-42 0 -86 34.5t-101 104.5l-178 219q-40 49 -40 96q0 58 54 118l299 337q199 224 318 247q35 75 87 126t93 51q51 0 75 -53l26 -57q60 31 114 31q26 0 54.5 -41t37.5 -95q177 -70 322.5 -231.5t234.5 -386
t89 -439.5v-778h-900v712zM1058 1633q84 125 84 298q-69 -15 -125.5 -61t-104.5 -136l-31 16q17 48 57 97h-72q-62 0 -117.5 -22.5t-110 -66t-167.5 -167.5l-297 -330q-34 -37 -34 -91q0 -41 25 -73l173 -213q132 74 156 93l17 -30l-62 -38l-89 -51q52 -59 82 -81.5
t63 -22.5q22 0 66.5 17t169.5 85l241 135q139 77 213 149t74 153q0 61 -24 130h40q24 -72 24 -130q0 -60 -30 -111t-97.5 -105t-227.5 -144q41 -37 65.5 -97.5t24.5 -123.5v-677h820v738q0 190 -80 406t-217.5 379.5t-305.5 235.5q-3 -84 -58 -249l-37 14q55 165 55 249
q0 27 -12.5 60t-26.5 49q0 -170 -93 -302zM529 1411l58 30q-30 19 -30 59q0 37 30 58l-58 31l19 29l194 -105v-26l-194 -105zM819 1882q38 5 92 5h65q19 18 42 33l-26 60q-14 30 -44 30q-24 0 -65 -42t-64 -86zM222 1103l17 56l-39 39l25 24l55 -53l-20 -79zM590 1500
q0 -16 11 -27t27 -11q15 0 26.5 11t11.5 27q0 15 -11.5 26.5t-26.5 11.5q-16 0 -27 -11.5t-11 -26.5z" />
  </g>

</svg>
