<?xml version="1.0" standalone="no"?>
<!DOCTYPE svg PUBLIC "-//W3C//DTD SVG 1.1//EN" "http://www.w3.org/Graphics/SVG/1.1/DTD/svg11.dtd" >
<svg xmlns="http://www.w3.org/2000/svg" xmlns:xlink="http://www.w3.org/1999/xlink" version="1.1" viewBox="-10 0 858 2048">
  <g transform="matrix(1 0 0 -1 0 1638)">
   <path fill="currentColor"
d="M463 1293h-37l-161 -77q-11 -4 -27 -4q-44 0 -91 24.5t-47 47.5t96 175t121 180q-35 38 -59 95t-24 131q-2 59 -5.5 71t-22.5 31.5t-49 43.5l25 46q57 -10 95.5 -46t56.5 -158q6 -42 16.5 -68.5t23.5 -50t29 -41.5q27 6 62 6l39 -3q46 53 63 129q4 42 17.5 96t30.5 77
t47 38.5t61 20.5l25 -46q-46 -35 -66 -63q-8 -11 -11 -83q0 -82 -32 -146h109q-13 -83 -117 -138q27 -49 27 -89q0 -35 -11 -77.5t-26 -74.5v-1340h-158v1293zM501 38h82v1308q37 86 37 146q0 36 -24 73l-44 -15l-10 34q43 11 91 41t60 58h-56l-101 -88l-24 28l22 19
q-18 19 -69 19q-50 0 -74.5 -10.5t-47.5 -39.5t-111.5 -166.5t-88.5 -152.5q0 -10 23 -23.5t52 -17.5l42 51l22 -19l-21 -27l156 74h49l31 47l30 -20l-26 -42v-1277zM344 1664l25 17q-22 27 -41.5 69t-22.5 69l-4 27q-9 73 -29.5 115.5t-71.5 59.5l-2 -6q16 -10 36 -31.5
t26 -46.5t7 -72q0 -124 77 -201zM540 1687q17 -10 22 -19q65 69 73 147l3 50q2 53 8.5 76.5t26 44t34.5 29.5l-2 6q-37 -12 -57 -35.5t-32 -74.5t-16 -92q-5 -27 -22.5 -66t-37.5 -66zM345 1474q29 57 64 57q21 0 37.5 -17.5t22.5 -43.5l-26 -6l-3 8q-16 -8 -31 -8t-36 9
l-5 -8zM171 1310l8 12q10 13 24 13q23 0 33 -21l-17 -17l-4 4q-5 5 -12 5q-8 0 -17 -13zM409 1508q-9 0 -22 -13q6 -5 22 -5q14 0 22 4q-11 14 -22 14z" />
  </g>

</svg>
