<?xml version="1.0" standalone="no"?>
<!DOCTYPE svg PUBLIC "-//W3C//DTD SVG 1.1//EN" "http://www.w3.org/Graphics/SVG/1.1/DTD/svg11.dtd" >
<svg xmlns="http://www.w3.org/2000/svg" xmlns:xlink="http://www.w3.org/1999/xlink" version="1.1" viewBox="-10 0 2739 2048">
  <g transform="matrix(1 0 0 -1 0 1638)">
   <path fill="currentColor"
d="M762 139q-16 0 -35.5 6.5t-29.5 14.5l-7 4q-161 0 -289 69.5t-214.5 209.5t-86.5 306q0 68 19 92q25 30 112 62q62 23 93 39t50 38l58 101q22 38 75 76l47 34q59 44 63 49l3 9l-5 23q-17 24 -17 48t22 45.5t54 32.5q35 10 66 40q63 61 104 97t91 64q11 72 40.5 122.5
t62.5 50.5q27 0 62.5 -24t64.5 -63q87 20 161 20q70 0 125 -10.5t111 -42.5q18 -14 76 -31q158 -46 299 -113.5t255 -146t229.5 -204t207.5 -265.5q-148 -55 -359.5 -199.5t-397 -318t-319.5 -348.5q-49 28 -71.5 51.5t-39 88.5t-16.5 122v3l1 6q-77 7 -107 48l-33 -5
q-19 0 -35 15t-16 35v6q-35 -15 -56 -15q-10 0 -24 8t-19 18q-47 -14 -79 -33q-33 -22 -129 -125q-102 -110 -167 -110zM1142 684q-67 -23 -117.5 -83.5t-85.5 -120.5q-32 -86 -53.5 -128.5t-62.5 -92.5t-84 -76l24 -3h7q39 3 152 121q72 81 112.5 106.5t117.5 44.5
q49 23 91.5 76.5t60.5 110.5l38 -12q-23 -69 -68 -125t-94 -81l15 -2q36 0 78.5 13t84.5 46t102 113l32 -24q-101 -146 -219 -177q5 -9 15 -9q23 0 54 15q46 13 90 42.5t57 51.5l34 -20q-19 -31 -65 -62.5t-90 -45.5q30 -21 87 -26q74 7 134 47l22 -32q-65 -45 -143 -54
l-1 -11v-9q0 -33 7.5 -73.5t19.5 -71.5t44 -51q135 174 309.5 336.5t372 297.5t347.5 197q-116 170 -247.5 295t-295 213.5t-297.5 131.5l-100 31q-60 19 -74 27q-54 29 -81.5 37.5t-64.5 13t-81 4.5q-111 0 -239 -44.5t-196 -97.5l-63 -57l-30 -29q-62 -62 -108 -75
q-28 -13 -47 -30q-4 -6 -4 -12q0 -11 10 -28q12 -26 12 -45q0 -15 -11.5 -29.5t-116.5 -91.5l-39 -31q-25 -22 -71 -114q-13 -25 -42.5 -50t-101.5 -52q-111 -40 -128 -62q-11 -15 -11 -68q0 -150 81 -282.5t199 -197.5t261 -65q47 0 112.5 80.5t107.5 208.5q40 74 98 139
t131 90zM673 1125q5 49 36.5 96t84 76t124.5 29q62 0 109 -20.5t77 -54t35 -64.5l-40 -6q-2 23 -26 47.5t-64 41t-91 16.5q-61 0 -105.5 -25t-71 -64t-28.5 -76zM462 422q0 35 24.5 59.5t59.5 24.5t59.5 -24.5t24.5 -59.5t-24.5 -59.5t-59.5 -24.5t-59.5 24.5t-24.5 59.5z
M223 693q0 35 24.5 59.5t59.5 24.5t59.5 -24.5t24.5 -59.5t-24.5 -59.5t-59.5 -24.5t-59.5 24.5t-24.5 59.5zM1183 1358v7q0 73 35.5 148.5t75.5 75.5q41 0 96 -57t72 -125l-40 -8q-11 49 -53 99.5t-75 50.5q-26 0 -48.5 -62t-22.5 -120v-9h-40zM764 1088q2 34 21 68
t51 55.5t77 21.5q50 0 88 -28.5t48 -73.5l-40 -6q-4 27 -30 47.5t-66 20.5q-45 0 -75.5 -32.5t-33.5 -76.5zM858 1091q0 26 17.5 43.5t43.5 17.5t43.5 -17.5t17.5 -43.5t-17.5 -43.5t-43.5 -17.5t-43.5 17.5t-17.5 43.5zM980 1622q75 33 143 52q-22 26 -45.5 42t-39.5 16
q-15 0 -31 -31t-27 -79zM502 422q0 -18 13 -31t31 -13t31 13t13 31t-13 31t-31 13t-31 -13t-13 -31zM263 693q0 -18 13 -31t31 -13t31 13t13 31t-13 31t-31 13t-31 -13t-13 -31zM898 1091q0 -9 6 -15t15 -6t15 6t6 15t-6 15t-15 6t-15 -6t-6 -15z" />
  </g>

</svg>
