<?xml version="1.0" standalone="no"?>
<!DOCTYPE svg PUBLIC "-//W3C//DTD SVG 1.1//EN" "http://www.w3.org/Graphics/SVG/1.1/DTD/svg11.dtd" >
<svg xmlns="http://www.w3.org/2000/svg" xmlns:xlink="http://www.w3.org/1999/xlink" version="1.1" viewBox="-10 0 2499 2048">
  <g transform="matrix(1 0 0 -1 0 1638)">
   <path fill="currentColor"
d="M680 561q50 77 164 109q-16 128 -16 291q0 278 72.5 517.5t204 389t303.5 185.5l-15 -830q437 532 740 532q88 0 256 -21l-505 -763q-108 -138 -304 -323q-149 67 -256 67q-98 0 -174 -50q136 -41 193 -123q40 69 140 69q155 0 332.5 -103.5t300 -254.5t122.5 -260
q0 -66 -29 -153h-59q0 45 -16 91t-41 69.5t-106 36t-164 21.5q42 -46 139 -117q44 -33 54 -77l-13 -12q-19 17 -38 17q-21 0 -34 -26q-101 67 -157.5 121t-93.5 119q-102 33 -196.5 87t-161.5 119q-17 -17 -41 -33q38 -73 38 -98q0 -126 -51 -323h-111q-19 0 -26.5 3.5
t-12.5 4.5l-3 -8h-128q-45 0 -60 21l-7 -15l-3 -6h-110q-33 0 -50 13l-8 -13h-118q-70 0 -70 52q0 23 21.5 37t51.5 14h47q98 157 98 216q0 11 -26 64.5t-40 78.5l-20 19q-12 -60 -33.5 -106.5t-42.5 -66.5h-36q-84 78 -127.5 168.5t-43.5 179.5q0 92 7 148l2 14l-2 13
q0 5 -52 73q-150 194 -186 253t-57.5 114t-21.5 102q0 79 9 142h61q11 -150 58.5 -239.5t137.5 -200.5q39 -48 73 -99l-12 84q-9 52 -52 215q-39 142 -39 193q0 45 16.5 89.5t40.5 69.5l45 -15q-12 -60 -12 -105q0 -28 38 -156q58 -192 73 -345q9 -99 42 -164t101 -116z
M935 585l41 64q-132 -2 -212 -59.5t-80 -150.5q0 -117 171 -171l-15 24l-6 10l34 22q87 -141 87 -170q0 -34 -26.5 -108t-61.5 -148h-57q-33 0 -33 -10q0 -13 30 -13h87l18 45q67 150 67 238q0 33 -89 175l34 22l64 -112l27 -2h25q71 0 122 12l-28 49l34 22q87 -141 87 -170
q0 -40 -13.5 -125t-30.5 -131h-71q-33 0 -33 -10q0 -13 30 -13h96q46 150 46 283q0 33 -89 175l34 22l38 -63q23 16 35 30l-3 36l228 21l16 -1q23 -3 37.5 -14.5t54 -86t69.5 -141.5q31 -71 85.5 -130t142.5 -116q10 13 23 13l9 -1l-51 40q-108 81 -139 128q-36 52 -82 155
q-48 106 -87 163q-12 17 -63 17q-66 0 -221 -21l-4 40l6 1l18 2v9q0 63 -60.5 118t-164.5 81q-28 -24 -87 -86l-30 28q85 90 127 118t91.5 44t111.5 16q93 0 248 -59q180 172 277 295l471 711q-110 13 -187 13q-207 0 -494 -280.5t-670 -871.5zM1003 689q205 307 349 484
l16 827q-145 -42 -257 -183.5t-177.5 -368.5t-65.5 -487q0 -146 16 -282q49 10 104 10h15zM1367 494q10 -30 11 -63q122 14 158 14q30 0 55.5 -4.5t39.5 -25.5q39 -63 80 -152q46 -102 79 -159l90 -12q147 -19 186 -32q92 -29 119 -163q13 52 13 96q0 106 -119.5 248.5
t-285 236t-310.5 93.5q-50 0 -80.5 -21.5t-35.5 -55.5zM644 439q0 46 16 86q-62 51 -87 86q-59 83 -76 226q-14 143 -71 337q-35 120 -35 161q0 19 8 55l-5 1q-18 -36 -18 -88q0 -49 39 -196l20 -78q34 -131 54 -316l-26 -9q-33 63 -79 122q-114 142 -157.5 213t-61 134
t-22.5 137h-5l-4 -66v-34q0 -36 15 -76.5t40 -85t96 -140.5q168 -216 173 -241l2 -16l-3 -18q-7 -56 -7 -142q0 -79 33.5 -155t97.5 -141v83h40v-64q31 59 39 150q-16 35 -16 75zM1347 321q49 -51 137 -104.5t169 -82.5l-82 171q-14 23 -24 28t-28 5l-171 -15zM779 255
q40 -80 40 -101q0 -56 -120 -256h-65q-33 0 -33 -11q0 -12 30 -12h95l11 19q3 17 17 28q89 146 89 236q0 18 -30 83zM1024 201l-17 1q12 -34 12 -44q0 -31 -11.5 -80t-47.5 -144l30 4h42q14 49 23.5 112t9.5 98q0 7 -24 53h-17zM1183 217l-29 -7q15 -28 15 -52
q0 -90 -27 -220h40q14 49 23.5 112t9.5 98q0 12 -32 69zM1088 202q17 -34 17 -48q0 -40 -13.5 -125t-30.5 -131h-71q-33 0 -33 -11q0 -12 30 -12h81l-1 7v6q0 30 32 42q30 115 30 228q0 13 -16 47zM864 224q19 -47 19 -66q0 -70 -75 -220h35q46 104 59 147t13 69
q0 11 -32 65zM528 420q-11 0 -11 -25q0 -26 16 -26q10 0 10 25q0 26 -15 26zM528 450q48 0 48 -56q0 -28 -13 -41.5t-30 -13.5q-27 0 -38 19t-11 37t10.5 36.5t33.5 18.5z" />
  </g>

</svg>
