<?xml version="1.0" standalone="no"?>
<!DOCTYPE svg PUBLIC "-//W3C//DTD SVG 1.1//EN" "http://www.w3.org/Graphics/SVG/1.1/DTD/svg11.dtd" >
<svg xmlns="http://www.w3.org/2000/svg" xmlns:xlink="http://www.w3.org/1999/xlink" version="1.1" viewBox="-10 0 1924 2048">
  <g transform="matrix(1 0 0 -1 0 1638)">
   <path fill="currentColor"
d="M404 700q30 41 115 49l128 9q23 151 23 167q0 59 -19 137.5t-76 231.5l-68 91q-71 89 -97.5 145.5t-26.5 100.5v140q0 52 -46 52q-25 0 -37 -10.5t-14 -17.5h-36v34q0 68 47 105q22 18 63 57q19 34 67 52t111 18q64 0 110 -19.5t81 -58t74 -120.5l94 -50q99 -94 261 -314
l79 -108l14 -17q183 -222 207 -240q60 -50 212 -196l-49 -46l-69 43l-88 51l114 -169l-183 -117h419v-56h-517v-667h-56v291l-460 376h-203l-31 -129h-243l-27 113q-76 23 -126.5 82.5t-50.5 129.5q0 68 30.5 107.5t87.5 39.5q44 0 75 -30.5t31 -78.5q0 -30 -26 -73
q-16 -25 -16 -36q0 -25 23.5 -47t45.5 -22h53zM401 1929q0 14 11 26t28 12h67q42 0 71 -26.5t29 -66.5q0 -24 -17.5 -46.5t-46.5 -40.5t-36.5 -20t-13.5 -2q-10 0 -12 11h-12v-19h-25q0 47 -24 81.5t-60 34.5q-16 0 -37 -18h5l9 1q86 0 86 -109v-116q0 -43 32 -102.5
t120 -168t165 -189.5q63 -68 95.5 -137.5t32.5 -130.5l-10 -172q-56 0 -124 -8v-23h283v23q-72 8 -116 8v187q34 -8 107 -44v247q127 0 214 -157l137 -245l174 109l-130 196q-162 95 -515 280l-274 140q-67 30 -117.5 87.5t-50.5 115.5q0 61 73 108.5t174 53.5l2 -34
q-88 -6 -149 -44t-61 -84q0 -43 40 -89.5t111 -85.5q731 -371 975 -537l8 10l-193 167q-31 26 -223 264q-226 310 -337 415l-96 52q-44 89 -73 119.5t-67 45.5t-92 15q-59 0 -98.5 -12t-46.5 -33l-47 -45l-18 -15q-36 -29 -41 -72q39 52 82 52q26 0 52 -23l7 -1q10 0 10 9
l-1 10q-14 0 -25 10.5t-11 25.5zM1124 700h202l-137 252q-37 62 -75.5 92.5t-69.5 30.5v-272q-71 57 -107 65v-101q40 -2 81.5 -8t62.5 -18t43 -41zM863 644l378 -309v309h-378zM687 758l43 2l30 171q34 -4 68 -27l1 22q0 45 -31.5 105t-85.5 118l-71 82q24 -71 46 -149.5
t22 -156.5v-20zM140 840q0 -59 46.5 -106.5t118.5 -65.5v7q-63 30 -63 94q0 24 22 58q20 31 20 51q0 31 -20 50t-46 19q-38 0 -58 -29.5t-20 -77.5zM517 555l20 89h-224l21 -89h183zM539 1825q0 -10 -4 -14q42 33 42 63q0 29 -22.5 49.5t-56.5 20.5h-25q5 -10 5 -17
q0 -19 -17 -30l6 -17q0 -18 -28 -25q18 -28 23 -48l-1 14q0 18 10.5 30.5t28.5 12.5q20 0 29.5 -14t9.5 -25zM830 861q-24 15 -42 20q-8 -31 -22 -119l59 5zM500 1841q-18 0 -18 -22q0 -11 6 -17.5t12 -6.5q16 0 16 24q0 7 -4 14.5t-12 7.5zM422 1929q0 -16 16 -16
q17 0 17 16t-17 16q-16 0 -16 -16zM552 721q-24 0 -43 -21h43v21zM711 721q-24 0 -36 -21h36v21zM585 700q11 16 33 29l-41 -6v-23h8zM660 720q-29 0 -47 -20h27q8 11 20 20zM494 720q-28 0 -46 -20h26zM1040 719v-19h36q-10 10 -34 19h-2z" />
  </g>

</svg>
