<?xml version="1.0" standalone="no"?>
<!DOCTYPE svg PUBLIC "-//W3C//DTD SVG 1.1//EN" "http://www.w3.org/Graphics/SVG/1.1/DTD/svg11.dtd" >
<svg xmlns="http://www.w3.org/2000/svg" xmlns:xlink="http://www.w3.org/1999/xlink" version="1.1" viewBox="-10 0 2371 2048">
  <g transform="matrix(1 0 0 -1 0 1638)">
   <path fill="currentColor"
d="M100 901h242l154 742h40l-154 -742h297l154 742h40l-154 -742h297l154 742h40l-154 -742h297l154 742h40l-154 -742h192q152 0 273.5 -43.5t209 -124t140.5 -198t53 -234.5q0 -97 -27.5 -174.5t-74 -120.5t-96.5 -43q-67 0 -123.5 58t-56.5 136q0 48 30 163
q29 108 29 166q0 87 -63 195t-152 163q-34 17 -136 17h-206l-138 -668h-40l138 668h-297l-138 -668h-40l138 668h-297l-138 -668h-40l138 668h-297l-138 -668h-40l138 668h-234v40zM2221 301q0 114 -51 223.5t-144.5 191t-217.5 120.5q92 -95 133 -180t41 -170
q0 -55 -31 -176q-28 -104 -28 -153q0 -63 44 -108.5t96 -45.5q40 0 77 37.5t59 106.5t22 154z" />
  </g>

</svg>
