<?xml version="1.0" standalone="no"?>
<!DOCTYPE svg PUBLIC "-//W3C//DTD SVG 1.1//EN" "http://www.w3.org/Graphics/SVG/1.1/DTD/svg11.dtd" >
<svg xmlns="http://www.w3.org/2000/svg" xmlns:xlink="http://www.w3.org/1999/xlink" version="1.1" viewBox="-10 0 2733 2048">
  <g transform="matrix(1 0 0 -1 0 1638)">
   <path fill="currentColor"
d="M1515 513l-142 246q-50 9 -209 49q-51 -29 -121 -52t-117 -23q-120 0 -176.5 71t-56.5 216v45q-45 9 -77 24q-84 -15 -176 -56t-165 -111.5t-109 -134.5h-66q5 54 44.5 135.5t93.5 147t152 131.5t194.5 103.5t165.5 37.5t108 -34.5t39 -93.5q0 -33 -34 -119
q-32 -85 -32 -109q0 -45 62 -45q38 0 86 67q122 172 189 231.5t146 91t177 31.5q66 0 133.5 -13t137 -35t214.5 -81q95 -39 145 -56t485 -156l-5 -49l-78 -20l100 -32q-35 -63 -91.5 -99t-123.5 -36q-69 0 -219 13q-123 -56 -285 -56q61 -106 64 -169q-20 -363 -20 -428
q47 -52 87 -160h-40l-6 15h-63l-55 5l-95 6q-42 0 -126 -11q-34 0 -44 14q-14 -14 -18 -29h-39q9 47 49 82t97 48l118 26q21 5 21 19l-9 289l-5 62q-7 61 -148 163l-12 -160l-175 -406q29 -39 29 -123h-39l-6 15h-64l-50 5l-89 6q-41 0 -136 -11q-33 0 -44 14
q-14 -14 -18 -29h-39q9 47 48.5 83.5t97.5 46.5l127 26q44 9 66 30t37 60zM1874 143q0 -30 -38 -39l-146 -30q-29 -8 -50 -26q8 -8 40 -8q60 11 97 11l121 -6l75 -5q-18 42 -67 89q4 146 22 445q-5 81 -108 215l25 22l29 -29l41 -1q77 0 154 17t112 40q163 -13 227 -13
q38 0 80 21t73 54l-123 36q-87 -15 -214 -27.5t-223 -12.5q-466 0 -647.5 37t-181.5 114q0 40 43 98q35 50 49 90l38 -12q-14 -42 -55 -100q-14 -20 -24.5 -38t-10.5 -38q0 -55 172 -83t617 -28q130 0 301 17.5t257 40.5l-205 66l-256 83l-138 53q-139 58 -206 79t-132.5 34
t-130.5 13q-89 0 -163 -30t-139 -88.5t-151 -181.5q-46 -67 -79 -94t-66 -27q-42 0 -72 20t-30 65q0 34 34 123q32 87 32 105q0 41 -29 64.5t-78 23.5q-52 0 -117 -23q-17 -11 -31.5 -35t-14.5 -53q0 -32 38 -56t112 -36l-4 -79q0 -121 45.5 -184t147.5 -63q90 0 233 77
q169 -42 210.5 -49.5t89 -10t130.5 -5.5l60 -44q63 -45 117.5 -94t74.5 -81t24 -115zM1120 48q8 -8 40 -8q77 11 107 11l116 -6l69 -5q11 5 11 16q0 17 -28 43l185 421l12 180l-59 45q-57 0 -149 8l136 -238l-107 -275q-47 -121 -143 -139l-140 -27q-40 -5 -50 -26zM181 915
q54 82 142.5 151.5t223.5 122.5q0 30 11 59q-86 -41 -171.5 -100.5t-128 -111.5t-77.5 -121zM373 1045q90 49 199 76q-15 17 -19 30q-250 -83 -361 -258q80 98 181 153v-1zM653 1221q0 20 14.5 34.5t35.5 14.5q20 0 34.5 -14.5t14.5 -34.5q0 -21 -14.5 -35.5t-34.5 -14.5
q-21 0 -35.5 14.5t-14.5 35.5zM684 1221q0 -19 19 -19q18 0 18 19q0 18 -18 18q-19 0 -19 -18z" />
  </g>

</svg>
