<?xml version="1.0" standalone="no"?>
<!DOCTYPE svg PUBLIC "-//W3C//DTD SVG 1.1//EN" "http://www.w3.org/Graphics/SVG/1.1/DTD/svg11.dtd" >
<svg xmlns="http://www.w3.org/2000/svg" xmlns:xlink="http://www.w3.org/1999/xlink" version="1.1" viewBox="-10 0 2224 2048">
  <g transform="matrix(1 0 0 -1 0 1638)">
   <path fill="currentColor"
d="M527 1983q8 21 26 36t45 16q42 0 65.5 -27t23.5 -103q0 -33 -5 -76l-45 -411l-32 4q61 -30 100.5 -87t60.5 -149l29 -8q128 -35 218.5 -88.5t206.5 -151.5l115 -99q183 -158 272 -199q116 -53 337 -119q61 -20 111 -57.5t59 -69.5v-153h-2014v153h321q66 29 274 91
q-122 59 -223.5 138.5t-150 156.5t-48.5 150l3 30l10 60v44q0 40 -23.5 71.5t-60.5 31.5q-50 0 -63 -43h-28v30q0 59 25.5 106t68.5 65q22 43 70.5 76t115.5 44l-93 10l44 410q10 95 33.5 140t75.5 45q32 0 52 -20t24 -47zM785 470q-178 -50 -252 -76h1537q-15 24 -56 50
t-82 39q-182 56 -278.5 94.5t-167.5 88.5t-292 242q-51 43 -95 75.5t-91.5 61.5t-90.5 49t-187 62q-26 132 -93.5 193.5t-176.5 61.5q-78 0 -138 -32.5t-85 -84.5q-66 -22 -83 -107l21 11q9 56 62 56q29 0 68 -18l-2 12q-27 11 -27 42q0 19 12.5 32t32.5 13l17 -4
q21 10 55 10q49 0 79 -27.5t30 -76.5q0 -35 -24.5 -71.5t-65.5 -66.5l-17 20q18 20 23 33.5t5 31.5q0 31 -22 31q-27 0 -27 -52q0 -30 6 -54l-32 -10q-16 43 -49.5 82t-61.5 39q-20 0 -25 -16q50 -2 82 -42t32 -98v-44q0 -14 -6 -44l-7 -46q0 -71 59 -150.5t178 -163
t235 -129.5v-17zM140 281h1934v73h-1934v-73zM650 1890q0 107 -50 107q-23 0 -41.5 -26.5t-22.5 -62.5l-48 -439l117 -12l41 375zM338 1486l117 -12l48 458q0 29 -13.5 55t-40.5 26q-28 0 -46.5 -43t-24.5 -109zM393 1307l-30 -3l3 -14q0 -32 -29 -43l3 -34l-30 2
q25 -25 41 -53v11q0 73 50 73q49 0 49 -53v-8q5 5 11.5 21t6.5 31q0 31 -19.5 50.5t-55.5 19.5zM306 1290q0 -15 15 -15t15 15q0 6 -4.5 10.5t-10.5 4.5q-15 0 -15 -15z" />
  </g>

</svg>
