<?xml version="1.0" standalone="no"?>
<!DOCTYPE svg PUBLIC "-//W3C//DTD SVG 1.1//EN" "http://www.w3.org/Graphics/SVG/1.1/DTD/svg11.dtd" >
<svg xmlns="http://www.w3.org/2000/svg" xmlns:xlink="http://www.w3.org/1999/xlink" version="1.1" viewBox="-10 0 1890 2048">
  <g transform="matrix(1 0 0 -1 0 1638)">
   <path fill="currentColor"
d="M1169 1452v7l1 6h-8q-28 0 -49.5 16.5t-29.5 42.5q-24 -37 -68 -37q-25 0 -45 14q-2 -32 -26 -54t-56 -22q10 -20 10 -38q0 -26 -14 -46.5t-37 -29.5q35 -24 35 -67q0 -25 -13.5 -44.5t-33.5 -29.5q44 -24 44 -73q0 -44 -38 -69q36 -6 77 -33t77.5 -67.5t83 -122.5
t68 -193.5t21.5 -247.5q0 -153 -30 -258.5t-79 -173.5t-112 -106t-132 -55t-181 -17q-272 0 -403 156t-131 454q0 69 4.5 125.5t15.5 116.5t27.5 107t59 121.5t98.5 125.5t112 66q-35 24 -35 67q0 31 20.5 54t50.5 27q-26 8 -42 29.5t-16 49.5q0 29 18.5 51.5t46.5 28.5
q-39 25 -39 70q0 31 22 55.5t56 26.5q-49 22 -49 75q0 34 24 58t58 24t58 -24t24 -58q0 -33 -23 -56.5t-55 -25.5q22 -10 35.5 -30t13.5 -45q0 -29 -18.5 -52t-46.5 -29q39 -25 39 -69q0 -32 -20.5 -54.5t-50.5 -27.5q25 -8 41.5 -29.5t16.5 -48.5q0 -53 -49 -75
q26 -15 42 -45.5t16 -64.5q0 -56 -42 -262q-29 -139 -29 -219q0 -100 37.5 -158.5t112.5 -58.5q74 0 112 57.5t38 159.5q0 80 -28 219q-43 206 -43 262q0 34 16 65t43 45q-25 8 -41 29.5t-16 49.5q0 24 13 44t34 30q-44 24 -44 73q0 54 51 76q-35 24 -35 67q0 33 23.5 57
t57.5 25q-9 16 -9 38q0 34 24 58t58 24q22 0 45 -14q2 32 26 54t56 22q28 0 49.5 -16.5t29.5 -42.5q24 37 68 37q34 0 58 -24t24 -58l-1 -14l8 1q34 0 58 -24t24 -58q0 -27 -16 -48h256q-19 22 -19 52q0 26 14 46t36 29h-11q-34 0 -58 24t-24 58q0 30 19 52l-15 -1
q-34 0 -58 24t-24 58q0 18 8 36q-14 -7 -34 -7q-34 0 -58 24t-24 58v9l2 9q-23 -15 -48 -15q-32 0 -55 21t-27 52q-10 -21 -30 -34t-44 -13q-29 0 -50.5 17t-29.5 43q-5 -28 -28 -47t-52 -19q-48 0 -72 42q0 -34 -24 -58t-58 -24q-28 0 -49 16l4 -25q0 -34 -24 -58t-58 -24
h-9l-10 2q8 -18 8 -35q0 -34 -24 -58t-58 -24t-58 24t-24 58t24 58t58 24l19 -2q-8 16 -8 35q0 34 24 58t58 24q27 0 49 -16q-4 11 -4 25q0 34 24 58t58 24q48 0 72 -43v1q0 34 24 58t58 24q28 0 50 -17.5t29 -43.5q6 29 28.5 48t52.5 19q32 0 55 -21.5t26 -52.5
q10 21 30 34.5t45 13.5q34 0 58 -24t24 -58l-2 -19q21 16 48 16q34 0 58 -24t24 -58q0 -21 -9 -37q18 8 35 8q34 0 58 -24t24 -58q0 -31 -19 -53l15 2q34 0 58 -24t24 -58q0 -26 -14 -46t-35 -30l10 1q34 0 58 -24t24 -58q0 -26 -19 -52h81l-210 -1129q77 -28 121 -93.5
t44 -141.5q0 -104 -74.5 -178t-177.5 -74t-177 72.5t-74 179.5q0 78 44.5 143.5t118.5 91.5l-209 1126q-17 22 -17 51zM140 364q0 -146 31 -250.5t85.5 -172.5t146 -107.5t231.5 -39.5q124 0 198.5 23t128.5 66.5t91.5 113.5t56.5 158t19 209q0 59 -3 109t-10 94t-16 80
t-21.5 70.5t-56.5 109t-99.5 119t-100.5 44.5q-30 0 -49 -23t-19 -59q0 -44 43 -254q28 -141 28 -227q0 -120 -50.5 -188.5t-139.5 -68.5t-139.5 68t-50.5 189q0 86 29 227q42 210 42 254q0 37 -19 59.5t-49 22.5q-46 0 -102.5 -45.5t-95.5 -114.5q-14 -24 -33 -57t-36 -86
t-28.5 -131t-11.5 -192zM1483 291q22 0 47 -5l202 1078h-498l200 -1078q30 5 49 5zM1272 40q0 -87 61 -149.5t150 -62.5q88 0 150 61.5t62 150.5t-62.5 150t-149.5 61q-88 0 -149.5 -61.5t-61.5 -149.5zM1473 1746q0 -17 12.5 -29.5t29.5 -12.5t29.5 12.5t12.5 29.5
t-12.5 29.5t-29.5 12.5t-29.5 -12.5t-12.5 -29.5zM1365 1857q0 -17 12.5 -29.5t29.5 -12.5t29.5 12.5t12.5 29.5t-12.5 29.5t-29.5 12.5t-29.5 -12.5t-12.5 -29.5zM547 1716q0 -17 12.5 -29.5t29.5 -12.5t29.5 12.5t12.5 29.5t-12.5 29.5t-29.5 12.5t-29.5 -12.5
t-12.5 -29.5zM422 1093q0 -17 12.5 -29.5t29.5 -12.5t29.5 12.5t12.5 29.5t-12.5 29.5t-29.5 12.5t-29.5 -12.5t-12.5 -29.5zM1237 1942q0 -17 12.5 -29.5t29.5 -12.5t29.5 12.5t12.5 29.5t-12.5 29.5t-29.5 12.5t-29.5 -12.5t-12.5 -29.5zM490 1560q0 -17 12.5 -29.5
t29.5 -12.5t29.5 12.5t12.5 29.5t-12.5 29.5t-29.5 12.5t-29.5 -12.5t-12.5 -29.5zM758 1244q0 -17 12.5 -29.5t29.5 -12.5t29.5 12.5t12.5 29.5t-12.5 29.5t-29.5 12.5t-29.5 -12.5t-12.5 -29.5zM461 1403q0 -17 12.5 -29.5t29.5 -12.5t29.5 12.5t12.5 29.5t-12.5 29.5
t-29.5 12.5t-29.5 -12.5t-12.5 -29.5zM774 1387q0 -17 12.5 -29.5t29.5 -12.5t29.5 12.5t12.5 29.5t-12.5 29.5t-29.5 12.5t-29.5 -12.5t-12.5 -29.5zM846 1507q0 -17 12.5 -29.5t29.5 -12.5t29.5 12.5t12.5 29.5t-12.5 29.5t-29.5 12.5t-29.5 -12.5t-12.5 -29.5zM1081 1968
q0 -17 12.5 -29.5t29.5 -12.5t29.5 12.5t12.5 29.5t-12.5 29.5t-29.5 12.5t-29.5 -12.5t-12.5 -29.5zM973 1569q0 -17 12.5 -29.5t29.5 -12.5t29.5 12.5t12.5 29.5t-12.5 29.5t-29.5 12.5t-29.5 -12.5t-12.5 -29.5zM1120 1547q0 -17 12.5 -29.5t29.5 -12.5t29.5 12.5
t12.5 29.5t-12.5 29.5t-29.5 12.5t-29.5 -12.5t-12.5 -29.5zM921 1962q0 -17 12.5 -29.5t29.5 -12.5t29.5 12.5t12.5 29.5t-12.5 29.5t-29.5 12.5t-29.5 -12.5t-12.5 -29.5zM1209 1452q0 -17 12.5 -29.5t29.5 -12.5t29.5 12.5t12.5 29.5t-12.5 29.5t-29.5 12.5t-29.5 -12.5
t-12.5 -29.5zM767 1922q0 -17 12.5 -29.5t29.5 -12.5t29.5 12.5t12.5 29.5t-12.5 29.5t-29.5 12.5t-29.5 -12.5t-12.5 -29.5zM755 1097q0 -17 12.5 -29.5t29.5 -12.5t29.5 12.5t12.5 29.5t-12.5 29.5t-29.5 12.5t-29.5 -12.5t-12.5 -29.5zM435 1253q0 -17 12.5 -29.5
t29.5 -12.5t29.5 12.5t12.5 29.5t-12.5 29.5t-29.5 12.5t-29.5 -12.5t-12.5 -29.5zM1594 1456q0 -17 12.5 -29.5t29.5 -12.5t29.5 12.5t12.5 29.5t-12.5 29.5t-29.5 12.5t-29.5 -12.5t-12.5 -29.5zM1551 1613q0 -17 12.5 -29.5t29.5 -12.5t29.5 12.5t12.5 29.5t-12.5 29.5
t-29.5 12.5t-29.5 -12.5t-12.5 -29.5zM640 1831q0 -17 12.5 -29.5t29.5 -12.5t29.5 12.5t12.5 29.5t-12.5 29.5t-29.5 12.5t-29.5 -12.5t-12.5 -29.5z" />
  </g>

</svg>
