<?xml version="1.0" standalone="no"?>
<!DOCTYPE svg PUBLIC "-//W3C//DTD SVG 1.1//EN" "http://www.w3.org/Graphics/SVG/1.1/DTD/svg11.dtd" >
<svg xmlns="http://www.w3.org/2000/svg" xmlns:xlink="http://www.w3.org/1999/xlink" version="1.1" viewBox="-10 0 762 2048">
  <g transform="matrix(1 0 0 -1 0 1638)">
   <path fill="currentColor"
d="M376 1585q133 0 204.5 -66.5t71.5 -188.5q0 -66 -46 -194t-70 -191l-99 -237h155v-172h-136v-86h-159v86h-136v172h154l-42 101q-82 193 -96 241l-20 56q-57 149 -57 224q0 120 73.5 187.5t202.5 67.5zM358 708h36q48 112 109.5 269.5t85 236t23.5 116.5q0 102 -63 158.5
t-173 56.5t-173 -56.5t-63 -158.5q0 -22 5.5 -49.5t18.5 -69.5t29 -85.5t24 -68t141 -349.5zM175 1332q0 84 49.5 132.5t151.5 48.5q101 0 151 -48.5t50 -132.5q0 -83 -71.5 -263.5t-129.5 -316.5l-129 315q-72 180 -72 265zM376 855l91 228q24 56 47 133t23 116
q0 66 -39.5 103.5t-117.5 37.5q-82 0 -123.5 -37t-41.5 -104q0 -26 9.5 -66.5t24 -84t127.5 -326.5zM201 576h351v92h-351v-92zM337 490h79v46h-79v-46z" />
  </g>

</svg>
