<?xml version="1.0" standalone="no"?>
<!DOCTYPE svg PUBLIC "-//W3C//DTD SVG 1.1//EN" "http://www.w3.org/Graphics/SVG/1.1/DTD/svg11.dtd" >
<svg xmlns="http://www.w3.org/2000/svg" xmlns:xlink="http://www.w3.org/1999/xlink" version="1.1" viewBox="-10 0 1313 2048">
  <g transform="matrix(1 0 0 -1 0 1638)">
   <path fill="currentColor"
d="M655 1681q0 -14 11.5 -30t38.5 -16q22 0 37.5 21.5t15.5 55.5q0 44 -35 75t-89 31q-63 0 -103 -44.5t-40 -108.5q0 -46 28.5 -84.5t78 -72.5t155.5 -80q53 31 87 88t55 180l11 61q18 101 54 184t76 131l79 -28q-89 -153 -105 -347q-13 -143 -38.5 -211.5t-81.5 -124.5
q205 -118 313 -335l-36 -18q-104 209 -312 326q-70 -47 -170 -58v-28q140 -13 226 -65v-52q-26 -2 -53 -17t-41 -36l-36 -61q-42 -80 -64 -105.5t-50 -34.5q80 -667 80 -849q0 -100 -19 -180t-51.5 -125t-68.5 -45t-68.5 45.5t-51.5 126t-19 178.5q0 86 22 328t51 464l7 57
q-26 8 -45 28.5t-69 111.5q-35 63 -50 77.5t-37.5 25t-42.5 11.5v52q83 52 226 65v28q-173 19 -258 150q-50 84 -67 271q-17 197 -106 347l80 28q40 -48 75.5 -129.5t54.5 -185.5q11 -76 31 -148.5t42 -103.5q82 -111 225 -111q53 0 94 12q-251 107 -251 259
q0 78 50.5 135.5t132.5 57.5q72 0 118 -43t46 -103q0 -49 -26.5 -83t-66.5 -34q-41 0 -65.5 25t-24.5 61h40zM588 869q-3 -27 -10 -86.5t-16 -137t-18.5 -166t-17 -173t-12.5 -158t-5 -120.5q0 -85 14 -154.5t38 -112.5t47 -43t47 43t38 113t14 154q0 47 -5 120.5t-12.5 158
t-17 173t-18.5 166t-16.5 137t-10.5 86.5h-39zM608 1212q-167 0 -257 -48q47 -17 80 -63v1l38 -65q52 -96 74 -112t65 -16q58 0 84 35l93 158v-1q14 20 37 36t45 21q-99 54 -259 54zM608 1354q-84 0 -145.5 28.5t-111.5 98.5q-53 74 -81 270q-18 94 -46 165t-57 109l-8 -3
q74 -140 87 -321q15 -158 49 -231.5t113 -115.5t200 -42q122 0 205 45l-57 26q-62 -29 -148 -29zM797 1409l54 -27q59 45 83 120.5t36 198.5q13 189 86 320l-8 3q-71 -100 -102 -273l-11 -64q-13 -71 -31.5 -126t-49 -94t-57.5 -58zM627 1252l18 -1v22l-19 -1h-36l-19 1v-22
l18 1h38z" />
  </g>

</svg>
