<?xml version="1.0" standalone="no"?>
<!DOCTYPE svg PUBLIC "-//W3C//DTD SVG 1.1//EN" "http://www.w3.org/Graphics/SVG/1.1/DTD/svg11.dtd" >
<svg xmlns="http://www.w3.org/2000/svg" xmlns:xlink="http://www.w3.org/1999/xlink" version="1.1" viewBox="-10 0 1775 2048">
  <g transform="matrix(1 0 0 -1 0 1638)">
   <path fill="currentColor"
d="M1288 1854q123 -113 177 -219t54 -230v-105q0 -40 17 -104l45 -171q84 -336 84 -790v-220q-269 120 -492 366q-35 -60 -54.5 -167t-21.5 -214h-429q-2 110 -22 216.5t-54 164.5q-222 -245 -492 -366v220q0 304 18.5 479t54.5 336.5t90 326.5t101.5 279t84.5 179v211h839
v-192zM1153 1834h-658q-56 -86 -134.5 -296.5t-127.5 -405t-72.5 -400.5t-20.5 -497v-158q153 80 300 212.5t275.5 312.5t212.5 366t150.5 453.5t74.5 412.5zM904 832q140 -256 327.5 -452t393.5 -303v158q0 466 -82 778l-41 156q-23 82 -23 170v66q0 83 -25 150.5
t-60.5 120t-74.5 92t-66 66.5h-60q-6 -111 -45.5 -296.5t-99.5 -364.5t-144 -341zM1057 40q11 148 33 234t55 137q-145 167 -262 380q-117 -212 -264 -380q32 -49 53.5 -132.5t28.5 -166.5l7 -72h349zM489 1874h759v132h-759v-132z" />
  </g>

</svg>
