<?xml version="1.0" standalone="no"?>
<!DOCTYPE svg PUBLIC "-//W3C//DTD SVG 1.1//EN" "http://www.w3.org/Graphics/SVG/1.1/DTD/svg11.dtd" >
<svg xmlns="http://www.w3.org/2000/svg" xmlns:xlink="http://www.w3.org/1999/xlink" version="1.1" viewBox="-10 0 2651 2048">
  <g transform="matrix(1 0 0 -1 0 1638)">
   <path fill="currentColor"
d="M2530 1589h-278q53 -90 71.5 -149.5t18.5 -116.5q0 -56 -32 -90.5t-85 -40.5v-386h316v-133h-968q53 -86 53 -151q0 -86 -52.5 -131.5t-155.5 -45.5q-39 0 -81 14v-214h1204v-40h-352v-170h352v-40h-352v-170h352v-40h-2422v40h230v170h-230v40h230v170h-230v40h1098v274
q-61 39 -132.5 102.5t-119.5 115.5l-34 36h-351q-42 -54 -113 -90t-143 -36q-73 0 -122 31.5t-75.5 83.5t-26.5 108q0 119 42.5 185.5t117.5 66.5q62 0 151.5 -65t156.5 -151h354q-195 47 -337 142t-142 156q0 23 13.5 43.5t42.5 20.5q28 0 55.5 -16.5t56.5 -37.5
q227 -164 496 -203l-342 992h-66l62 -121l-430 141l430 141l-62 -121h1040v-40h-251l299 -866q56 31 120 77q29 21 56.5 37.5t55.5 16.5q29 0 42.5 -20t13.5 -44q0 -60 -140.5 -155.5t-331.5 -142.5h518v386q-53 3 -86.5 38t-33.5 93q0 71 26 135.5t64 130.5h-275v319h73
l29 -34q6 26 27.5 44t50.5 18q21 0 40 -11l2 49q2 99 32 147t103 48q69 0 100 -44.5t35 -150.5l1 -49q19 11 41 11q29 0 50.5 -18t26.5 -44l30 34h73v-319zM1264 900q93 0 182 15l-340 988h-298l344 -998q68 -5 112 -5zM1485 922q135 29 266 95l-306 886h-297zM214 766
q7 -16 35 -53h2252v53h-2287zM1264 806q133 0 262 26.5t239.5 73t190 108.5t79.5 88t-16 26q-24 0 -88 -46q-138 -104 -318 -163t-349 -59q-173 0 -357 60t-320 162q-64 46 -88 46q-16 0 -16 -26q0 -27 80 -89t191.5 -109t242 -72.5t267.5 -25.5zM2477 1868
q-67 -73 -148 -116t-156 -43t-156.5 43t-147.5 116h-13v-239h634v239h-13zM799 -275v170h-410v-170h410zM2149 -65v170h-410v-170h410zM1249 -65v170h-410v-170h410zM1699 -65v170h-410v-170h410zM799 -65v170h-410v-170h410zM2149 -275v170h-410v-170h410zM1249 -275v170
h-410v-170h410zM1699 -275v170h-410v-170h410zM2173 1749q42 0 100 21l-5 204q-2 82 -24.5 118.5t-70.5 36.5t-70.5 -36.5t-24.5 -118.5l-5 -204q58 -21 100 -21zM1563 490q0 32 -58 90.5t-125 92.5h-43v-171q36 -24 68 -36.5t71 -12.5q38 0 62.5 10.5t24.5 26.5zM1556 433
q-36 -19 -93 -19q-56 0 -126.5 37.5t-151 107t-111.5 114.5h-75q21 -21 49.5 -50t62 -61t71 -63.5t77 -57t80 -41t79.5 -15.5q96 0 138 48zM2185 806v783h-24v-783h24zM180 885q0 -31 22 -79h198q-66 70 -104 95t-66 25q-50 0 -50 -41zM2041 1323q0 -39 23 -63.5t57 -27.5
v327q-31 -58 -55.5 -115.5t-24.5 -120.5zM343 617q-67 0 -122 66t-75 159q-4 -30 -4 -58q0 -89 52.5 -143t134.5 -54q50 0 102.5 22.5t93.5 63.5h-53q-20 -25 -53.5 -40.5t-75.5 -15.5zM2302 1323q0 62 -24 118.5t-53 112.5v-321q32 3 54.5 26.5t22.5 63.5zM260 982
q-41 0 -69 -30q21 9 51 9q35 0 101 -49t110 -106h63q-72 83 -141 129.5t-115 46.5zM1297 375l-40 20v-250h40v230zM632 1903h-56v40h56l49 53l-220 -73l220 -73zM1257 560l40 -30v143h-40v-113zM2350 1818q16 0 27.5 11t11.5 28t-11 28t-28 11q-15 0 -27 -10t-12 -29
q0 -20 12.5 -29.5t26.5 -9.5zM1585 539q-6 28 -23 67t-36 67h-72q86 -65 131 -134zM1132 673q26 -28 85 -80v80h-85zM343 657q40 0 67 16h-124q24 -16 57 -16zM1957 1857q0 -17 11 -28t28 -11t28 11t11 28t-11 28t-28 11t-28 -11t-11 -28z" />
  </g>

</svg>
