<?xml version="1.0" standalone="no"?>
<!DOCTYPE svg PUBLIC "-//W3C//DTD SVG 1.1//EN" "http://www.w3.org/Graphics/SVG/1.1/DTD/svg11.dtd" >
<svg xmlns="http://www.w3.org/2000/svg" xmlns:xlink="http://www.w3.org/1999/xlink" version="1.1" viewBox="-10 0 1688 2048">
  <g transform="matrix(1 0 0 -1 0 1638)">
   <path fill="currentColor"
d="M839 2050q229 0 393.5 -88t255 -270t90.5 -431v-62h-689l38 -1020v-41q0 -112 -21 -157t-67 -45q-47 0 -67.5 45.5t-20.5 156.5v40l37 1021h-688v62q0 249 91 431t255.5 270t392.5 88zM599 1239q6 140 69 208t171 68t170.5 -69t68.5 -207h460v22q0 233 -82.5 404.5
t-238.5 258t-378 86.5q-221 0 -377.5 -86.5t-239 -258.5t-82.5 -404v-22h459zM887 138l-11 362l-28 699h-19l-7 -187q-31 -739 -31 -874q0 -74 8 -118t40 -44t40 44t8 118zM839 1475q-92 0 -144.5 -61.5t-55.5 -174.5h399q-13 236 -199 236z" />
  </g>

</svg>
