<?xml version="1.0" standalone="no"?>
<!DOCTYPE svg PUBLIC "-//W3C//DTD SVG 1.1//EN" "http://www.w3.org/Graphics/SVG/1.1/DTD/svg11.dtd" >
<svg xmlns="http://www.w3.org/2000/svg" xmlns:xlink="http://www.w3.org/1999/xlink" version="1.1" viewBox="-10 0 2630 2048">
  <g transform="matrix(1 0 0 -1 0 1638)">
   <path fill="currentColor"
d="M100 1484h2420v-776h-874q37 -61 76 -144t62 -144l102 -276l22 -45q56 -111 65 -137q0 -29 -13 -59t-28 -41h-79q-23 0 -54 12q-31 11 -43 11l-80 -5l-57 -6l-142 -12h-202v99q211 45 263 68q77 34 92.5 49t15.5 35q0 39 -105 221q-85 145 -134.5 231t-76.5 143h-54
q-31 -93 -67 -170.5t-78 -146t-91 -137.5t-123 -170q-5 -15 -5 -51q0 -19 16 -87q-7 -51 -48 -84h-62q-22 0 -59 12q-38 11 -50 11l-50 -3l-198 -20h-184v99q266 50 324 89q40 26 93.5 110t91.5 181q102 230 177 367h-863v776zM140 748h2340v696h-2340v-696zM197 1387h2226
v-582h-2226v582zM237 845h2146v502h-2146v-502zM1231 708h-222q-75 -133 -180 -375q-50 -117 -104.5 -203t-99.5 -116q-57 -36 -308 -83v-32l133 4q35 0 130 11q103 11 127 11q17 0 55 -11q38 -12 58 -12h45q11 8 16 16t7 29q-16 64 -16 86l4 61l61 84q113 153 183 274.5
t111 255.5zM1600 708h-220q48 -105 129 -243q103 -177 143.5 -258.5t40.5 -106.5q0 -21 -13.5 -37.5t-45.5 -34t-82 -37.5t-237 -62v-27l153 1l85 6l120 11l83 5q16 0 49 -11q33 -12 52 -12h58q12 16 18 61q-9 28 -65 129l-20 42l-103 275q-71 178 -145 299z" />
  </g>

</svg>
