<?xml version="1.0" standalone="no"?>
<!DOCTYPE svg PUBLIC "-//W3C//DTD SVG 1.1//EN" "http://www.w3.org/Graphics/SVG/1.1/DTD/svg11.dtd" >
<svg xmlns="http://www.w3.org/2000/svg" xmlns:xlink="http://www.w3.org/1999/xlink" version="1.1" viewBox="-10 0 2520 2048">
  <g transform="matrix(1 0 0 -1 0 1638)">
   <path fill="currentColor"
d="M213 1497h89q-17 51 -17 110q0 104 55.5 194t148.5 135t215 45q98 0 224 -28t317 -99l1007 -357h48v-111h-9l-128 -220q29 -3 44 -22.5t15 -48.5q0 -23 -14.5 -45t-41.5 -27v-1365h121l123 -191h-2310l123 191h121v1365q-27 5 -41.5 27t-14.5 45q0 30 16 49.5t45 21.5
l-128 220h-8v111zM2037 -342v1364h-1564v-1364h1564zM325 1607q0 -57 19 -110h1787l-900 319q-333 125 -527 125q-118 0 -203 -45t-130.5 -122t-45.5 -167zM2119 1167l126 219h-1978l127 -219h1725zM433 -382v1404h-49v-1404h-139l-71 -111h2162l-71 111h-139v1404h-49
v-1404h-1644zM358 1127q-14 0 -22 -9t-8 -23q0 -11 8 -22t22 -11h1794q14 0 22 11t8 22q0 14 -8 23t-22 9h-1794zM253 1426h2007v31h-2007v-31z" />
  </g>

</svg>
