<?xml version="1.0" standalone="no"?>
<!DOCTYPE svg PUBLIC "-//W3C//DTD SVG 1.1//EN" "http://www.w3.org/Graphics/SVG/1.1/DTD/svg11.dtd" >
<svg xmlns="http://www.w3.org/2000/svg" xmlns:xlink="http://www.w3.org/1999/xlink" version="1.1" viewBox="-10 0 1416 2048">
  <g transform="matrix(1 0 0 -1 0 1638)">
   <path fill="currentColor"
d="M754 1383l37 -1204v-41q0 -112 -21 -157t-67 -45q-47 0 -67.5 45.5t-20.5 156.5v40l37 1205h-552q0 96 42.5 229t122 234t190.5 152.5t248 51.5q136 0 247 -51t191 -152t122.5 -233.5t42.5 -230.5h-552zM1264 1423q-10 106 -55 220t-118 198t-171 126.5t-217 42.5
q-116 0 -202.5 -36.5t-149 -94.5t-106.5 -136.5t-71 -164.5t-32 -155h1122zM751 138q0 108 -16 589.5t-21 655.5h-21l-21 -639l-17 -606q0 -74 8 -118t40 -44t40 44t8 118z" />
  </g>

</svg>
