<?xml version="1.0" standalone="no"?>
<!DOCTYPE svg PUBLIC "-//W3C//DTD SVG 1.1//EN" "http://www.w3.org/Graphics/SVG/1.1/DTD/svg11.dtd" >
<svg xmlns="http://www.w3.org/2000/svg" xmlns:xlink="http://www.w3.org/1999/xlink" version="1.1" viewBox="-10 0 2609 2048">
  <g transform="matrix(1 0 0 -1 0 1638)">
   <path fill="currentColor"
d="M100 900q0 235 117.5 440t322 322.5t440.5 117.5q182 0 348 -71.5t290 -202t187 -299.5l7 3q28 163 109.5 335t182 259.5t212.5 87.5q48 0 90 -24t67.5 -69.5t25.5 -106.5q0 -133 -127.5 -273t-362.5 -265q96 -63 181.5 -172t145 -241t76.5 -248l-238 -16
q26 -126 26 -224q0 -91 -19 -186l-277 -117q55 176 73 282t18 206q0 102 -43.5 277t-101.5 315q10 -64 10 -130q0 -235 -118 -440t-323 -322.5t-439 -117.5q-235 0 -440 117.5t-322.5 322t-117.5 440.5zM140 900q0 -226 112.5 -420.5t306.5 -307t421 -112.5
q226 0 420.5 112.5t307 306.5t112.5 421q0 226 -112.5 420.5t-306.5 307t-421 112.5q-226 0 -420.5 -112.5t-307 -306.5t-112.5 -421zM1818 1168l14 -50q178 72 327.5 173.5t224.5 203.5t75 197q0 71 -40.5 115.5t-102.5 44.5q-97 0 -185.5 -75t-163.5 -226.5t-110 -321.5
l63 31q27 110 95 240t143 208.5t131 78.5q52 0 78.5 -28.5t26.5 -80.5q0 -119 -169 -264t-407 -246zM1868 1089q37 -79 77.5 -205t65 -251.5t24.5 -194.5q0 -203 -67 -418l175 74q17 82 17 159q0 309 -259 850zM2365 530q-17 101 -79.5 229.5t-147 228t-171.5 145.5l-12 -5
q237 -279 237 -610zM2289 1747q-45 0 -103.5 -60.5t-122 -176.5t-94.5 -223q176 97 280.5 201.5t104.5 189.5q0 69 -65 69zM1976 1036q127 -276 181 -489q-20 264 -181 489z" />
  </g>

</svg>
