<?xml version="1.0" standalone="no"?>
<!DOCTYPE svg PUBLIC "-//W3C//DTD SVG 1.1//EN" "http://www.w3.org/Graphics/SVG/1.1/DTD/svg11.dtd" >
<svg xmlns="http://www.w3.org/2000/svg" xmlns:xlink="http://www.w3.org/1999/xlink" version="1.1" viewBox="-10 0 2524 2048">
  <g transform="matrix(1 0 0 -1 0 1638)">
   <path fill="currentColor"
d="M861 1747l47 39q1 34 26 57.5t60 23.5q36 0 61 -25t25 -61q0 -31 -18.5 -54t-47.5 -30v-357l29 6l136 112l74 205h76q-9 34 -33 56l-58 15v59q50 36 79 50l27 282q3 29 20 41.5t37 12.5q19 0 33 -20q10 20 38 20q22 0 38 -13t16 -37l-30 -292q30 -9 50.5 -32.5t28 -78.5
t7.5 -97l88 -212l-63 -193h42v-40h-104v-60h-31l44 -318h847v-133h-832q53 -86 53 -151q0 -86 -52.5 -131.5t-155.5 -45.5q-39 0 -81 14v-214h1077v-40h-225v-170h225v-40h-225v-170h225v-40h-2295v40h230v170h-230v40h230v170h-230v40h1098v274q-61 39 -132.5 102.5
t-119.5 115.5l-34 36h-351q-42 -54 -113 -90t-143 -36q-73 0 -122 31.5t-75.5 83.5t-26.5 108q0 119 42.5 185.5t117.5 66.5q62 0 151.5 -65t156.5 -151h406v421l-49 -7v101l49 10v366q-40 10 -57 45l-30 -25zM214 766q7 -16 35 -53h2116v53h-2151zM389 -65h410v170h-410
v-170zM1289 -275h410v170h-410v-170zM1289 -65h410v170h-410v-170zM1739 -65h410v170h-410v-170zM389 -275h410v170h-410v-170zM839 -275h410v170h-410v-170zM839 -65h410v170h-410v-170zM1739 -275h410v170h-410v-170zM1297 1509l43 -94h125l24 136h28l77 -158l-56 -169h27
l63 193l-87 206h-259l-69 -191l-152 -124l-47 -11v-24l53 9l172 138l34 89h24zM1307 1391l-19 44l-15 -39l-191 -153l-68 -10v-427h35v24l108 42l3 12h-100l54 301v39h132l61 144v23zM1563 490q0 32 -58 90.5t-125 92.5h-43v-171q36 -24 68 -36.5t71 -12.5q38 0 62.5 10.5
t24.5 26.5zM1278 1224h216l14 41l-3 33l-31 77h-127l-1 -18zM1260 806h63v20l111 45l-51 253h-16zM1556 433q-36 -19 -93 -19q-56 0 -126.5 37.5t-151 107t-111.5 114.5h-75q21 -21 49.5 -50t62 -61t71 -63.5t77 -57t80 -41t79.5 -15.5q96 0 138 48zM1415 1663q60 52 60 84
q0 78 -69 78q-68 0 -132 -49v-12l41 -9q31 -26 53 -92h47zM180 885q0 -31 22 -79h198q-66 70 -104 95t-66 25q-50 0 -50 -41zM343 617q-67 0 -122 66t-75 159q-4 -30 -4 -58q0 -89 52.5 -143t134.5 -54q50 0 102.5 22.5t93.5 63.5h-53q-20 -25 -53.5 -40.5t-75.5 -15.5z
M1277 1124l-88 -282l-90 -36h121l106 318h-49zM1425 1124l55 -279l-93 -37h131l-45 316h-48zM260 982q-41 0 -69 -30q21 9 51 9q35 0 101 -49t110 -106h63q-72 83 -141 129.5t-115 46.5zM1297 375l-40 20v-250h40v230zM1359 1858l31 6l25 261q0 6 -4.5 10t-9.5 4
q-15 0 -17 -18zM1175 1184v-249l60 189h-31l25 60h-54zM1431 1863l27 -7l7 77l20 191q0 15 -13 15q-16 0 -17 -15zM948 1781q0 -20 13 -33t33 -13t33 13t13 33t-13 33t-33 13t-33 -13t-13 -33zM1517 1184h-254l-8 -20h264zM1257 560l40 -30v143h-40v-113zM1585 539
q-6 28 -23 67t-36 67h-72q86 -65 131 -134zM1132 673q26 -28 85 -80v80h-85zM1515 1747q0 -23 -13 -46t-31 -38h67q0 49 -5.5 71t-18.5 36zM1516 1460l-14 -64l30 -61l18 54zM343 657q40 0 67 16h-124q24 -16 57 -16zM955 1264l19 3v22l-19 -4v-21zM1104 921h41v263h-5z" />
  </g>

</svg>
