<?xml version="1.0" standalone="no"?>
<!DOCTYPE svg PUBLIC "-//W3C//DTD SVG 1.1//EN" "http://www.w3.org/Graphics/SVG/1.1/DTD/svg11.dtd" >
<svg xmlns="http://www.w3.org/2000/svg" xmlns:xlink="http://www.w3.org/1999/xlink" version="1.1" viewBox="-10 0 2508 2048">
  <g transform="matrix(1 0 0 -1 0 1638)">
   <path fill="currentColor"
d="M100 -313h88l220 574h406l219 -574h263v1675q-39 26 -161.5 49.5t-224.5 23.5q-220 0 -325 -25v454q113 -25 325 -25q101 0 224 18.5t175 42.5h126v-2213h142q118 74 201.5 158t158.5 198q78 121 114.5 162t79.5 66t94 25q85 0 129 -71t44 -251v-412h-2298v125z
M1647 -313h711v287q0 156 -34 219t-99 63q-42 0 -80 -24.5t-74 -66.5t-100 -144q-148 -229 -324 -334zM910 1475q95 0 217 -19.5t169 -43.5v434q-42 -16 -163 -31.5t-223 -15.5q-204 0 -285 15v-354q39 6 132.5 10.5t152.5 4.5zM1336 -313h59v2173h-59v-2173zM140 -398h2218
v45h-2218v-45zM232 -313h190l165 362l-158 155zM635 49l165 -362h190l-198 517zM465 -313h291l-145 318zM469 221l142 -140l141 140h-283z" />
  </g>

</svg>
