<?xml version="1.0" standalone="no"?>
<!DOCTYPE svg PUBLIC "-//W3C//DTD SVG 1.1//EN" "http://www.w3.org/Graphics/SVG/1.1/DTD/svg11.dtd" >
<svg xmlns="http://www.w3.org/2000/svg" xmlns:xlink="http://www.w3.org/1999/xlink" version="1.1" viewBox="-10 0 1475 2048">
  <g transform="matrix(1 0 0 -1 0 1638)">
   <path fill="currentColor"
d="M100 -386q102 117 141 220t39 223q0 343 -59 903q-29 285 -29 363q0 175 52 306.5t143.5 195t220.5 63.5q296 0 306 -313q70 -247 147 -671t77 -517q0 -82 -15 -143t-50 -126q11 -10 25 -28l267 116v-445l-261 113q-23 -36 -56 -59l114 -264h-445l113 264q-33 22 -57 58
l-259 -112v445l266 -115l19 22q-64 125 -64 279q0 89 51.5 534.5t86.5 652.5q-5 131 -71.5 200t-193.5 69q-181 0 -278.5 -140.5t-97.5 -384.5q0 -88 29 -359q59 -560 59 -907q0 -127 -42 -237.5t-148 -231.5zM939 172q56 0 103 -30q33 61 44.5 119t11.5 126
q0 48 -29.5 241.5t-78 434.5t-92.5 418q-34 -226 -78.5 -611.5t-44.5 -477.5q0 -144 56 -253q47 33 108 33zM784 -23q0 -65 44.5 -110t110.5 -45q65 0 110 44.5t45 110.5q0 65 -44.5 110t-110.5 45q-65 0 -110 -44.5t-45 -110.5zM1013 -203q-36 -15 -74 -15q-37 0 -73 15
l-88 -206h323zM1325 145l-208 -89q17 -37 17 -79q0 -37 -12 -68l203 -87v323zM744 -23q0 42 17 79l-207 89v-323l202 86q-12 33 -12 69z" />
  </g>

</svg>
