<?xml version="1.0" standalone="no"?>
<!DOCTYPE svg PUBLIC "-//W3C//DTD SVG 1.1//EN" "http://www.w3.org/Graphics/SVG/1.1/DTD/svg11.dtd" >
<svg xmlns="http://www.w3.org/2000/svg" xmlns:xlink="http://www.w3.org/1999/xlink" version="1.1" viewBox="-10 0 1429 2048">
  <g transform="matrix(1 0 0 -1 0 1638)">
   <path fill="currentColor"
d="M445 -356l234 614h132v1104q-39 26 -161.5 49.5t-224.5 23.5q-220 0 -325 -25v454q112 -25 325 -25q101 0 224 18.5t175 42.5h126v-1642h135l234 -614h-874zM425 1475q95 0 217 -19.5t169 -43.5v434q-42 -16 -163 -31.5t-223 -15.5q-204 0 -285 15v-354q39 6 132.5 10.5
t152.5 4.5zM851 258h59v1602h-59v-1602zM503 -316h190l165 362l-158 155zM906 46l165 -362h190l-198 517zM736 -316h291l-145 318zM740 218l142 -140l141 140h-283z" />
  </g>

</svg>
