<?xml version="1.0" standalone="no"?>
<!DOCTYPE svg PUBLIC "-//W3C//DTD SVG 1.1//EN" "http://www.w3.org/Graphics/SVG/1.1/DTD/svg11.dtd" >
<svg xmlns="http://www.w3.org/2000/svg" xmlns:xlink="http://www.w3.org/1999/xlink" version="1.1" viewBox="-10 0 2376 2048">
  <g transform="matrix(1 0 0 -1 0 1638)">
   <path fill="currentColor"
d="M631 854l64 1q77 174 265 341l67 60l-282 308q-41 44 -60.5 86t-19.5 96q0 69 54 121t130 52q51 0 89 -20.5t59.5 -54.5t21.5 -69q0 -60 -34 -95t-91 -35q-44 0 -68.5 23.5t-24.5 60.5q0 31 24 52t64 27l4 -40q-22 -3 -37 -13.5t-15 -25.5q0 -20 15 -32t38 -12
q38 0 61.5 24t23.5 66q0 43 -37 73.5t-93 30.5q-60 0 -102 -41t-42 -92t20.5 -87t49.5 -68l283 -308l130 112q127 108 144 130q16 24 29 106q13 86 19 117.5t15 51.5h-1q27 69 65.5 95.5t95.5 26.5q153 0 153 -125q0 -44 -21 -95.5t-81 -142.5q-56 -83 -56 -105q0 -17 7 -49
q37 -186 42.5 -218.5t8.5 -62.5l240 815h112l-411 -1681h717q-32 -135 -136.5 -270t-250 -233t-324 -151t-372.5 -53q-195 0 -373.5 53t-323.5 151.5t-249.5 233t-136.5 269.5h624v25q0 101 -25 254.5t-68 316.5zM1183 -409q176 0 337.5 46t300 132t242 206.5t147.5 242.5
h-2054q43 -122 147 -242t242 -206.5t299.5 -132.5t338.5 -46zM1509 258l401 1641h-32l-282 -958q-71 -69 -266.5 -97t-650.5 -30q34 -126 59.5 -288.5t27.5 -267.5h743zM744 856q332 8 462 18.5t212 30.5t143 57l15 51q0 103 -45 315q-21 102 -21 126q0 25 18.5 57t43.5 70
q54 81 75 130t21 86q0 85 -113 85q-44 0 -73 -21.5t-51 -76.5q-10 -21 -23 -113q-16 -97 -24.5 -125t-19.5 -44q-22 -30 -218 -194q-190 -159 -274 -256.5t-128 -195.5z" />
  </g>

</svg>
