<?xml version="1.0" standalone="no"?>
<!DOCTYPE svg PUBLIC "-//W3C//DTD SVG 1.1//EN" "http://www.w3.org/Graphics/SVG/1.1/DTD/svg11.dtd" >
<svg xmlns="http://www.w3.org/2000/svg" xmlns:xlink="http://www.w3.org/1999/xlink" version="1.1" viewBox="-10 0 1286 2048">
  <g transform="matrix(1 0 0 -1 0 1638)">
   <path fill="currentColor"
d="M357 1945q66 0 101 -51q35 51 101 51q57 0 90.5 -47t38.5 -130l30 -774q16 -30 27 -61q20 82 74 120.5t125 38.5q70 0 117.5 -40t47.5 -103q0 -150 -178 -185l89 -98l76 -88q80 -88 80 -131q0 -55 -50 -55q-31 0 -61.5 25.5t-76.5 100.5l-102 165q114 -262 114 -314
q0 -66 -63 -66q-67 0 -108 134l-31 91l18 -275h-299l34 -573q0 -65 -18.5 -91.5t-67.5 -26.5h-12q-48 0 -67 27t-19 91l32 573h-299l31 469q10 172 67 272l30 774q5 83 38.5 130t90.5 47zM742 748h-569l-30 -455h630l-28 427zM240 1051q70 76 198 82v699q-2 29 -24 51
t-57 22q-41 0 -64 -37.5t-25 -101.5zM478 1133q127 -6 197 -82l-27 715q-10 139 -89 139q-35 0 -58 -22.5t-23 -53.5v-696zM458 1094q-210 0 -266 -229h531q-31 116 -96 172.5t-169 56.5zM439 253l-31 -545v-44q1 -62 45 -62h12q44 0 46 62l-1 44l-33 545h-38zM827 750
l-42 -3q7 -45 19 -91.5t24 -87t23 -71.5t16 -46q26 -70 40 -89t30 -19q23 0 23 27q0 21 -36.5 127.5t-96.5 252.5zM773 822l5 -34q157 0 224 41t67 120q0 43 -38 73t-87 30q-74 0 -118.5 -48t-49.5 -139h30q0 76 35.5 116.5t98.5 40.5q41 0 68 -22t27 -56q0 -54 -63.5 -86.5
t-155.5 -32.5h-43v-3zM732 825h-549l-5 -37h560zM889 756l-20 -2l170 -242q53 -80 87 -80q10 0 10 15q0 23 -70 105l-33 39q-105 126 -144 165zM940 985q-42 0 -68.5 -29.5t-26.5 -76.5l1 -14h9h8q52 0 92 22.5t40 56.5q0 13 -12.5 27t-42.5 14z" />
  </g>

</svg>
