<?xml version="1.0" standalone="no"?>
<!DOCTYPE svg PUBLIC "-//W3C//DTD SVG 1.1//EN" "http://www.w3.org/Graphics/SVG/1.1/DTD/svg11.dtd" >
<svg xmlns="http://www.w3.org/2000/svg" xmlns:xlink="http://www.w3.org/1999/xlink" version="1.1" viewBox="-10 0 1304 2048">
  <g transform="matrix(1 0 0 -1 0 1638)">
   <path fill="currentColor"
d="M753 -411q-15 -17 -42.5 -31t-53.5 -14q-28 0 -56.5 15t-39.5 32l44 1038q-65 16 -105 84t-40 161q0 148 44 274l-227 -126q-82 -47 -110 -47q-31 0 -49 21.5t-18 47.5q0 35 19.5 54t54.5 32l270 97l-216 93q-38 17 -60 33.5t-22 47.5q0 20 15.5 32t36.5 12q24 0 60 -18
l308 -151h1q-102 159 -102 327q0 148 52.5 234t145.5 86t145.5 -86t52.5 -234q0 -102 -44 -213l237 126q57 32 78 32q26 0 39.5 -14t13.5 -31q0 -24 -20.5 -47t-67 -48.5t-300.5 -162.5q192 -51 294.5 -100t102.5 -84q0 -22 -19 -45t-44 -23q-18 0 -49 24q-94 75 -219 100
q81 -81 130 -203.5t49 -234.5q0 -50 -14 -77t-56 -27q-34 0 -54 25t-20 76l3 47q4 28 4 64q0 67 -55 169l4 -68q0 -99 -38.5 -171.5t-106.5 -87.5zM667 664q65 6 107 69t42 155q0 47 -5 104l-7 69l5 3q51 -54 93.5 -138.5t42.5 -138.5q0 -38 -4 -68l-3 -43q0 -61 34 -61
q30 0 30 64q0 78 -36 183t-92 185t-123 127l3 9q206 -51 291 -94q25 -14 61 -40q19 -16 25 -16q10 0 16.5 9.5t6.5 18.5q0 22 -144.5 80.5t-297.5 94.5l373 212q60 33 60 52q0 8 -13 8q-3 0 -7.5 -2t-400.5 -209q34 58 65.5 152t31.5 154q0 128 -41.5 204t-116.5 76
t-116.5 -77t-41.5 -203q0 -79 28 -164.5t81 -160.5l-49 -39l-323 152q-37 14 -44 14q-12 0 -12 -7q0 -11 16 -20.5t42 -21.5l279 -134l-333 -129q-50 -21 -50 -47q0 -13 7 -22t20 -9q14 0 39 14l363 192q-69 -159 -69 -347q0 -87 42 -147t105 -62l-46 -1054q19 -27 56 -27
q29 0 56 27zM648 1287q-113 128 -113 317q0 115 34.5 182t93.5 67q60 0 94 -68t34 -181q0 -80 -31 -169t-82 -148h-30zM657 692q-61 0 -94 49.5t-33 132.5q0 138 35 237t92 150q57 -51 92 -150t35 -237q0 -82 -33 -132t-94 -50zM657 732q41 0 64 37t23 105q0 118 -24.5 203
t-62.5 129q-87 -94 -87 -332q0 -67 23 -104.5t64 -37.5zM575 1604q0 -162 88 -273q36 45 62 121.5t26 151.5q0 96 -23 152.5t-65 56.5t-65 -56.5t-23 -152.5z" />
  </g>

</svg>
