<?xml version="1.0" standalone="no"?>
<!DOCTYPE svg PUBLIC "-//W3C//DTD SVG 1.1//EN" "http://www.w3.org/Graphics/SVG/1.1/DTD/svg11.dtd" >
<svg xmlns="http://www.w3.org/2000/svg" xmlns:xlink="http://www.w3.org/1999/xlink" version="1.1" viewBox="-10 0 2524 2048">
  <g transform="matrix(1 0 0 -1 0 1638)">
   <path fill="currentColor"
d="M395 806q-44 4 -56 21.5t-12 40.5q0 30 20 44q39 22 113 26l115 1q214 0 277 28q-21 63 -58.5 112t-65.5 49q-22 0 -64 -15q-27 -10 -43 -10q-26 0 -68 37t-42 67q0 76 65.5 150.5t209.5 150.5q69 108 193.5 168t275.5 60l189 -4h22q26 0 85 13q73 15 83 15q52 0 52 -40
q0 -13 -46 -41q41 0 41 -37q0 -17 -38 -56t-95 -68q-145 -71 -289 -77q-132 -6 -262 -42l2 -3l15 -29v1q30 -59 53 -85.5t54 -42t72 -15.5q47 0 102.5 9.5t318.5 77.5q162 42 249 42q105 0 188.5 -70.5t121.5 -191.5l20 -83q11 -56 17 -56q15 1 36 33q10 24 26 39.5t33 15.5
q23 0 38.5 -27.5t15.5 -63.5q0 -61 -39 -98.5t-102 -45.5h187v-133h-832q53 -86 53 -151q0 -86 -52.5 -131.5t-155.5 -45.5q-39 0 -81 14v-214h1077v-40h-225v-170h225v-40h-225v-170h225v-40h-2295v40h230v170h-230v40h230v170h-230v40h1098v274q-61 39 -132.5 102.5
t-119.5 115.5l-34 36h-351q-42 -54 -113 -90t-143 -36q-73 0 -122 31.5t-75.5 83.5t-26.5 108v23l1 13h294zM851 1478q63 50 153 93t162 55.5t211 27.5l129 14q46 9 93 27t47 25h-12l-44 -9q-92 -19 -124 -19h-23l-188 4q-147 0 -265 -58.5t-178 -161.5q-261 -139 -261 -269
q0 -20 29 -44l65 60l26 -30l-54 -50h4l13 3q33 11 52.5 16.5t41.5 5.5q38 0 86.5 -56.5t77.5 -133.5l42 22l21 -33q-55 -35 -136.5 -51.5t-241.5 -16.5l-116 -1q-67 -4 -92 -20l-2 -10l1 -15q9 -9 83 -9h510q118 0 142 31q4 5 4 19q0 38 -18 76l36 16q16 -40 19 -65
q30 -36 72.5 -55t86.5 -19q70 0 163 57q111 67 173 99.5t131 51.5q-20 37 -20 74q0 45 20 82l34 -20q-14 -21 -14 -62q0 -38 30.5 -81t104.5 -104l55 -52h-394q-64 0 -64 -31q0 -17 41 -17h456q33 0 50.5 7t17.5 30q0 37 -120 161l28 28q132 -139 132 -189l-2 -23
q31 -14 60 -14q59 0 96.5 27.5t37.5 78.5t-14 51q-6 0 -13 -13.5t-12 -22.5l-5 -7l4 5q-27 -50 -71 -50q-24 0 -37.5 26.5t-24.5 99.5q-5 32 -28 84t-62.5 98t-89 69.5t-103.5 23.5q-46 0 -113 -12t-220 -52q-137 -37 -210 -51t-127 -14q-51 0 -88.5 18.5t-65 48
t-74.5 124.5l-8 11h-1l-2 5q-30 48 -103 86zM207 766q13 -33 35 -53h2123v53h-2158zM389 -65h410v170h-410v-170zM1289 -65h410v170h-410v-170zM389 -275h410v170h-410v-170zM839 -65h410v170h-410v-170zM1739 -65h410v170h-410v-170zM1289 -275h410v170h-410v-170z
M839 -275h410v170h-410v-170zM1739 -275h410v170h-410v-170zM1563 490q0 32 -58 90.5t-125 92.5h-43v-171q36 -24 68 -36.5t71 -12.5q38 0 62.5 10.5t24.5 26.5zM953 1458l21 -24q144 42 283 47q67 3 131 19.5t124.5 45t93.5 56.5t35 39l-8 -2q-10 0 -76 -26
q-119 -43 -304 -83l-46 -8q-87 -14 -142 -26t-112 -38zM1556 433q-36 -19 -93 -19q-56 0 -126.5 37.5t-151 107t-111.5 114.5h-75q21 -21 49.5 -50t62 -61t71 -63.5t77 -57t80 -41t79.5 -15.5q96 0 138 48zM142 766q6 -74 60.5 -126.5t126.5 -52.5q55 0 101 18.5t95 67.5
h-53q-20 -25 -53.5 -40.5t-75.5 -15.5q-55 0 -102.5 38t-76.5 111h-22zM1879 932q-57 50 -87 89q-66 -18 -113.5 -42t-89.5 -47h290zM1013 806h522q-53 8 -53 55v5q-42 -23 -86.5 -41t-92.5 -18q-88 0 -160 60l-8 -16q-28 -36 -122 -45zM1297 375l-40 20v-250h40v230z
M959 1505q75 31 199 50q76 11 175 35t126 32q-168 -15 -281.5 -34.5t-218.5 -82.5zM719 1296q-22 0 -33.5 12t-11.5 24q0 19 18.5 29.5t50.5 10.5q36 0 62 -13v-22q-9 4 -23 4q-4 -20 -22.5 -32.5t-40.5 -12.5zM1257 560l40 -30v143h-40v-113zM1585 539q-6 28 -23 67t-36 67
h-72q86 -65 131 -134zM1132 673q26 -28 85 -80v80h-85zM343 657q40 0 67 16h-124q24 -16 57 -16zM2106 823q-15 -14 -44 -17h91q-25 3 -47 17z" />
  </g>

</svg>
