<?xml version="1.0" standalone="no"?>
<!DOCTYPE svg PUBLIC "-//W3C//DTD SVG 1.1//EN" "http://www.w3.org/Graphics/SVG/1.1/DTD/svg11.dtd" >
<svg xmlns="http://www.w3.org/2000/svg" xmlns:xlink="http://www.w3.org/1999/xlink" version="1.1" viewBox="-10 0 1565 2048">
  <g transform="matrix(1 0 0 -1 0 1638)">
   <path fill="currentColor"
d="M728 -231l-119 -216l-212 58l-7 252l-290 81l591 1772q81 243 239 243q65 0 115.5 -37t74.5 -109q63 66 148 66q83 0 135 -52.5t52 -127.5l-3 -28l-389 -1995zM1414 1699q0 60 -40.5 100t-105.5 40q-70 0 -143 -85l-535 -1906l441 -123l381 1954zM552 -141l535 1902
q-20 76 -61.5 117t-95.5 41q-65 0 -117 -55.5t-84 -159.5l-578 -1733zM587 -401l100 182l-256 71l6 -211z" />
  </g>

</svg>
