<?xml version="1.0" standalone="no"?>
<!DOCTYPE svg PUBLIC "-//W3C//DTD SVG 1.1//EN" "http://www.w3.org/Graphics/SVG/1.1/DTD/svg11.dtd" >
<svg xmlns="http://www.w3.org/2000/svg" xmlns:xlink="http://www.w3.org/1999/xlink" version="1.1" viewBox="-10 0 1090 2048">
  <g transform="matrix(1 0 0 -1 0 1638)">
   <path fill="currentColor"
d="M940 -493v814h-800v-814h800zM140 1380v-756l762 756h-762zM940 607v755l-761 -755h761zM140 484h800v83h-800v-83zM140 361h800v83h-800v-83zM140 1420h800v43h-800v-43zM612 1800q1 -66 28 -114q27 48 28 114q-1 66 -28 114q-27 -48 -28 -114zM410 1800q1 -66 28 -114
q27 48 28 114q-1 66 -28 114q-27 -48 -28 -114zM617 1595q0 -10 7 -17t17 -7t17 7t7 17t-7 17t-17 7t-17 -7t-7 -17zM415 1595q0 -10 7 -17t17 -7t17 7t7 17t-7 17t-17 7t-17 -7t-7 -17zM414 1503h49l-18 28h-13zM616 1503h49l-18 28h-13zM814 1800q1 -66 28 -114
q27 48 28 114q-1 66 -28 114q-27 -48 -28 -114zM819 1595q0 -10 7 -17t17 -7t17 7t7 17t-7 17t-17 7t-17 -7t-7 -17zM818 1503h49l-18 28h-13zM368 1503l27 45q-20 18 -20 47q0 41 37 58q-42 75 -42 147q0 41 11 78t54 109h6q44 -74 54.5 -111.5t10.5 -75.5q0 -72 -41 -147
q38 -18 38 -58q0 -29 -21 -47l28 -45h60l27 45q-20 18 -20 47q0 41 37 58q-42 75 -42 147q0 41 11 78t54 109h6q44 -74 54.5 -111.5t10.5 -75.5q0 -72 -41 -147q38 -18 38 -58q0 -29 -21 -47l28 -45h60l27 45q-20 18 -20 47q0 41 37 58q-42 75 -42 147q0 41 11 78t54 109h6
q44 -74 54.5 -111.5t10.5 -75.5q0 -72 -41 -147q38 -18 38 -58q0 -29 -21 -47l28 -45h66v-2036h-880v2036h66l27 45q-20 18 -20 47q0 41 37 58q-42 75 -42 147q0 41 11 78t54 109h6q44 -74 54.5 -111.5t10.5 -75.5q0 -72 -41 -147q38 -18 38 -58q0 -29 -21 -47l28 -45h60z
M208 1800q1 -66 28 -114q27 48 28 114q-1 66 -28 114q-27 -48 -28 -114zM213 1595q0 -10 7 -17t17 -7t17 7t7 17t-7 17t-17 7t-17 -7t-7 -17zM212 1503h49l-18 28h-13z" />
  </g>

</svg>
