<?xml version="1.0" standalone="no"?>
<!DOCTYPE svg PUBLIC "-//W3C//DTD SVG 1.1//EN" "http://www.w3.org/Graphics/SVG/1.1/DTD/svg11.dtd" >
<svg xmlns="http://www.w3.org/2000/svg" xmlns:xlink="http://www.w3.org/1999/xlink" version="1.1" viewBox="-10 0 1841 2048">
  <g transform="matrix(1 0 0 -1 0 1638)">
   <path fill="currentColor"
d="M746 1141q126 124 269 231.5t222 139.5l89 -165q133 -86 193 -194t60 -242q0 -100 -10 -148l162 -360l-117 -47l-158 356q-108 39 -188 168t-80 268q0 83 19 159l-22 43q-75 -48 -174 -131.5t-186 -171.5q297 -370 297 -617q0 -134 -45.5 -230t-137 -148t-204.5 -52
q-111 0 -204 51.5t-139 149t-46 229.5q0 138 81.5 297t236.5 328q-60 68 -138 146h-14q-107 0 -208 35.5t-152.5 94.5t-51.5 137q0 59 26 97t69.5 58t95.5 20q115 0 195.5 -89t134.5 -274zM995 430q0 100 -57.5 228.5t-193.5 302.5q-135 -152 -203 -287.5t-68 -243.5
q0 -137 72 -220t188 -83q117 0 189.5 82.5t72.5 220.5zM771 990q264 -324 264 -560q0 -106 -38.5 -183t-108.5 -118.5t-155 -41.5q-86 0 -155 41.5t-107 118.5t-38 183t56.5 230t170 262.5t271.5 277.5t272 207l45 -95q-20 -80 -20 -165q0 -131 78 -251t180 -153l149 -337
l43 19l-149 332q10 70 10 154q0 96 -31.5 169t-78 127t-135.5 112l-74 141q-116 -58 -286.5 -201t-296 -292.5t-188.5 -285t-63 -251.5q0 -121 42 -209t125 -134.5t182 -46.5q98 0 180.5 46t124.5 134.5t42 209.5q0 245 -284 590zM690 1084l29 29l-46 51q-74 78 -88 98
q-50 172 -122 256.5t-172 84.5q-68 0 -109.5 -36.5t-41.5 -98.5q0 -66 50 -118t148 -82.5t194 -30.5h12q87 -87 146 -153zM1269 1309q120 -64 186.5 -170t66.5 -243q0 -93 -18 -138q-72 24 -129.5 82.5t-93 146.5t-35.5 166q0 79 23 156zM561 1260h-43q-85 0 -176 30
t-136 74t-45 102q0 53 37.5 85t96.5 32q54 0 103.5 -34t88.5 -99.5t74 -189.5zM1482 891q0 111 -49.5 205.5t-137.5 150.5q-9 -31 -9 -94q0 -56 25 -126.5t67.5 -127t97.5 -85.5q6 30 6 77zM201 1466q0 -43 40 -78.5t120.5 -60.5t146.5 -28q-41 127 -97.5 185.5t-115.5 58.5
q-43 0 -68.5 -21t-25.5 -56z" />
  </g>

</svg>
