<?xml version="1.0" standalone="no"?>
<!DOCTYPE svg PUBLIC "-//W3C//DTD SVG 1.1//EN" "http://www.w3.org/Graphics/SVG/1.1/DTD/svg11.dtd" >
<svg xmlns="http://www.w3.org/2000/svg" xmlns:xlink="http://www.w3.org/1999/xlink" version="1.1" viewBox="-10 0 763 2048">
  <g transform="matrix(1 0 0 -1 0 1638)">
   <path fill="currentColor"
d="M400 117q0 38 16 136t40 199q-68 13 -68 68q0 33 -33 53q-33 19 -38.5 25.5t-5.5 14.5q0 16 35 34t80 25l-1 137q-43 50 -134.5 83t-190.5 34v306q0 159 34.5 312t95 262t140.5 160t153 51q44 0 73.5 -18.5t29.5 -47.5q0 -26 -19.5 -38.5t-50.5 -25.5
q-245 -108 -245 -477q0 -163 62.5 -289t164.5 -192v-257q46 -8 80.5 -25.5t34.5 -33.5q0 -11 -8 -17.5t-35 -22.5q-34 -20 -34 -53q0 -32 -21.5 -48t-47.5 -20q22 -94 39.5 -193t17.5 -142q0 -82 -25 -134t-57 -52t-57 52.5t-25 133.5zM482 676l16 -1v232q-63 42 -117 119.5
t-82 174.5t-28 209q0 198 70 328t199 185q46 21 46 28q0 26 -63 26q-67 0 -140 -50.5t-127 -153t-85 -247.5t-31 -297v-266q211 -14 326 -139v-149zM482 -29q15 0 28.5 38.5t13.5 107.5q0 46 -42 279q-17 -67 -29.5 -153t-12.5 -126q0 -69 13.5 -107.5t28.5 -38.5zM482 636
q-54 0 -84 -9t-35 -14q65 -36 65 -81q0 -18 16.5 -30t37.5 -12q22 0 38 12t16 30q0 45 65 81q-44 23 -119 23z" />
  </g>

</svg>
