<?xml version="1.0" standalone="no"?>
<!DOCTYPE svg PUBLIC "-//W3C//DTD SVG 1.1//EN" "http://www.w3.org/Graphics/SVG/1.1/DTD/svg11.dtd" >
<svg xmlns="http://www.w3.org/2000/svg" xmlns:xlink="http://www.w3.org/1999/xlink" version="1.1" viewBox="-10 0 1932 2048">
  <g transform="matrix(1 0 0 -1 0 1638)">
   <path fill="currentColor"
d="M1392 1241q94 0 160.5 -12t110.5 -53v65h159v-858h-159v65q-44 -41 -110.5 -53t-160.5 -12h-901q-192 0 -291.5 111t-99.5 318q0 206 99.5 317.5t291.5 111.5h901zM1703 1072q-39 68 -106 98.5t-205 30.5h-901q-110 0 -189 -42.5t-120.5 -132.5t-41.5 -214
q0 -125 42 -214.5t120.5 -132t188.5 -42.5h901q137 0 205 31t106 98v-129h79v778h-79v-129zM505 473q-147 0 -224.5 87t-77.5 252q0 164 77 251.5t225 87.5h923q147 0 224.5 -87t77.5 -252q0 -164 -77 -251.5t-225 -87.5h-923zM243 812q0 -149 68.5 -224t193.5 -75h923
q125 0 193.5 75t68.5 224t-68.5 224t-193.5 75h-923q-125 0 -193.5 -75t-68.5 -224z" />
  </g>

</svg>
