<?xml version="1.0" standalone="no"?>
<!DOCTYPE svg PUBLIC "-//W3C//DTD SVG 1.1//EN" "http://www.w3.org/Graphics/SVG/1.1/DTD/svg11.dtd" >
<svg xmlns="http://www.w3.org/2000/svg" xmlns:xlink="http://www.w3.org/1999/xlink" version="1.1" viewBox="-10 0 2175 2048">
  <g transform="matrix(1 0 0 -1 0 1638)">
   <path fill="currentColor"
d="M100 1364l271 -73q38 62 103 62q59 0 97 -55q248 124 551 124q112 0 246 -20t270 -56.5t192 -67.5q18 -10 18 -22q0 -11 -26 -18t-50 -7h-39q76 -88 117.5 -221t41.5 -280q0 -166 42 -310t119 -256l11 -19v-2h-142q-161 221 -161 552l1 86q0 209 -125 354
q-178 -83 -312 -111t-288 -28q-130 0 -253.5 29.5t-199.5 78.5q-17 -34 -46 -54.5t-64 -20.5q-38 0 -69 24t-48 63l-190 -99zM1609 1170q-102 117 -188 184q-161 28 -299 28q-144 0 -291 -33.5t-240 -84.5q14 -34 14 -73q0 -25 -6 -49q77 -50 193.5 -78t244.5 -28
q150 0 287 31t285 103zM1491 1342q158 -127 234.5 -258t76.5 -280l-1 -81q0 -325 146 -540h50q-145 242 -145 547q0 148 -41.5 272.5t-113 204t-135.5 112.5l-21 12zM383 1191q0 -52 27 -87t64 -35q38 0 64.5 35.5t26.5 86.5q0 52 -27 87t-64 35q-38 0 -64.5 -35.5
t-26.5 -86.5zM197 1077l147 77l-1 8v29q0 32 9 64l-202 53zM1780 1266l-142 43q15 -5 54 -34l13 -10l16 -1h22z" />
  </g>

</svg>
