<?xml version="1.0" standalone="no"?>
<!DOCTYPE svg PUBLIC "-//W3C//DTD SVG 1.1//EN" "http://www.w3.org/Graphics/SVG/1.1/DTD/svg11.dtd" >
<svg xmlns="http://www.w3.org/2000/svg" xmlns:xlink="http://www.w3.org/1999/xlink" version="1.1" viewBox="-10 0 892 2048">
  <g transform="matrix(1 0 0 -1 0 1638)">
   <path fill="currentColor"
d="M617 2050q-23 -112 -27 -155t-4 -82q0 -121 20 -301t39 -280q60 -25 98.5 -58t38.5 -61q0 -20 -14.5 -31.5t-39.5 -11.5q-15 0 -41 11q-27 11 -37 11q-29 0 -45 -23.5t-18 -50.5l-3 -34q-8 -79 -73 -111v-873q0 -69 -69 -69t-69 69v872q-68 33 -75 112l-3 34
q-2 27 -18 50.5t-45 23.5q-17 0 -36.5 -11t-41.5 -11q-25 0 -39.5 11.5t-14.5 31.5q0 30 43.5 65.5t106.5 57.5q58 367 58 577q0 44 -3.5 82t-27.5 155h340zM441 1268q85 0 160 -22q-20 119 -37.5 287t-17.5 280q0 100 23 197h-244q23 -97 23 -197q0 -105 -17 -269t-38 -294
q72 18 148 18zM441 897q42 0 70.5 23.5t32.5 63.5l3 39q4 47 28.5 78t64.5 31q20 0 49 -11q28 -11 39 -11q14 0 14 6q0 9 -32 33.5t-73 42t-89.5 27t-106.5 9.5q-56 0 -105 -9.5t-90.5 -26.5t-73.5 -41.5t-32 -34.5q0 -6 14 -6l20 4q25 9 39.5 13.5t28.5 4.5q40 0 64.5 -31
t28.5 -78l3 -39q3 -39 32 -63t71 -24zM442 -30q29 0 29 30v859l-15 -2h-15l-28 2v-859q0 -30 29 -30z" />
  </g>

</svg>
