<?xml version="1.0" standalone="no"?>
<!DOCTYPE svg PUBLIC "-//W3C//DTD SVG 1.1//EN" "http://www.w3.org/Graphics/SVG/1.1/DTD/svg11.dtd" >
<svg xmlns="http://www.w3.org/2000/svg" xmlns:xlink="http://www.w3.org/1999/xlink" version="1.1" viewBox="-10 0 718 2048">
  <g transform="matrix(1 0 0 -1 0 1638)">
   <path fill="currentColor"
d="M354 2010q-33 0 -77.5 -58.5t-74.5 -137.5t-46 -170.5t-16 -183.5q0 -94 20.5 -235t80.5 -418l26 -125q42 -204 42 -287q0 -66 -21.5 -173.5t-64.5 -238.5h262q-39 104 -62.5 216.5t-23.5 195.5q0 96 68 412q58 269 79.5 412t21.5 241q0 131 -32 256.5t-86.5 209.5
t-95.5 84zM354 2050q57 0 118 -84.5t98.5 -222t37.5 -283.5q0 -87 -18.5 -218.5t-82.5 -442.5q-68 -306 -68 -404q0 -80 27.5 -202t77.5 -250h-380q48 126 76.5 247.5t28.5 204.5q0 75 -42 281q-77 368 -92 458.5t-25 173t-10 152.5q0 148 38 285t99 221t117 84z" />
  </g>

</svg>
