<?xml version="1.0" standalone="no"?>
<!DOCTYPE svg PUBLIC "-//W3C//DTD SVG 1.1//EN" "http://www.w3.org/Graphics/SVG/1.1/DTD/svg11.dtd" >
<svg xmlns="http://www.w3.org/2000/svg" xmlns:xlink="http://www.w3.org/1999/xlink" version="1.1" viewBox="-10 0 1650 2048">
  <g transform="matrix(1 0 0 -1 0 1638)">
   <path fill="currentColor"
d="M820 2013q153 0 239 -165l157 203v-1l1 1l90 -72l-156 -202h281q49 0 78.5 -24.5t29.5 -67.5q0 -47 -22.5 -80t-72.5 -69q-21 -16 -31 -38q-22 -46 -71 -166t-75 -219.5t-53 -238.5t-42 -255t-15 -190q0 -201 12 -225q62 -66 62 -117q0 -49 -27 -68t-102 -19h-566
q-75 0 -102 19t-27 68q0 26 17.5 58t44.5 59q12 48 12 225q0 126 -44.5 375t-102.5 436.5t-109 257.5q-13 18 -34 33t-41.5 35t-35.5 48t-15 71t29.5 67.5t78.5 24.5h278l-155 202l90 72v-1l1 1l158 -204q38 79 99.5 122.5t140.5 43.5zM1109 40q47 0 62 12t15 35
q0 32 -47 87q-21 51 -21 255q0 109 32.5 310t79.5 386h-820q44 -173 78 -379.5t34 -316.5q0 -92 -6.5 -162t-14.5 -93q-47 -51 -47 -87q0 -23 15 -35t62 -12h578zM399 1165h842q26 93 80 218t71 151q10 14 42 39q29 23 36 39h-1301q16 -34 78 -78q24 -19 73.5 -141.5
t78.5 -227.5zM140 1685q0 -20 5 -33h1350q5 17 5 33q0 52 -68 52h-1224q-68 0 -68 -52zM820 1967q-69 0 -128 -48.5t-96 -141.5h447q-38 94 -96 142t-127 48zM561 1804l-147 191l-28 -23l151 -195h15zM1088 1777h13l151 195l-29 23l-145 -190z" />
  </g>

</svg>
