<?xml version="1.0" standalone="no"?>
<!DOCTYPE svg PUBLIC "-//W3C//DTD SVG 1.1//EN" "http://www.w3.org/Graphics/SVG/1.1/DTD/svg11.dtd" >
<svg xmlns="http://www.w3.org/2000/svg" xmlns:xlink="http://www.w3.org/1999/xlink" version="1.1" viewBox="-10 0 1101 2048">
  <g transform="matrix(1 0 0 -1 0 1638)">
   <path fill="currentColor"
d="M100 695q0 119 59.5 222.5t163 163.5t222.5 60t223 -60t163.5 -164t59.5 -222q0 -119 -60 -222.5t-163 -163t-223 -59.5q-119 0 -222.5 60t-163 163.5t-59.5 221.5zM140 695q0 -109 54 -203t148 -148t203 -54t203 54t148.5 148.5t54.5 202.5q0 109 -54.5 203.5
t-149.5 148.5t-202 54q-108 0 -202.5 -54.5t-148.5 -148t-54 -203.5z" />
  </g>

</svg>
