<?xml version="1.0" standalone="no"?>
<!DOCTYPE svg PUBLIC "-//W3C//DTD SVG 1.1//EN" "http://www.w3.org/Graphics/SVG/1.1/DTD/svg11.dtd" >
<svg xmlns="http://www.w3.org/2000/svg" xmlns:xlink="http://www.w3.org/1999/xlink" version="1.1" viewBox="-10 0 972 2048">
  <g transform="matrix(1 0 0 -1 0 1638)">
   <path fill="currentColor"
d="M437 1951q31 0 71 -40q20 72 31 93.5t26 33.5t37 12q67 0 67 -66q0 -13 -2 -26t-53 -194q182 -305 201 -788q21 -13 34 -30.5t13 -34.5q0 -39 -45 -59q-2 -132 -18 -286.5t-34.5 -268.5t-42.5 -211.5t-47 -141.5t-59 -44q-29 0 -48 15.5t-19 47.5q0 33 18 99l24 91
q37 140 61 335.5t24 382.5v3q-41 28 -46 63l-185 58q-17 -21 -53 -26l-142 -509q-12 -50 -35 -77t-50 -27q-36 0 -50.5 21t-14.5 48q0 34 12 73l142 507q-32 25 -32 57q0 57 66 65l171 612l-28 40q-57 75 -57 112q0 23 18.5 41.5t44.5 18.5zM673 998q-17 320 -116 559
l-132 -473q33 -24 33 -52v-3l180 -56q11 18 35 25zM771 886h6q-2 202 -28 361.5t-78.5 301t-128 252.5t-108.5 111q-20 0 -20 -20t50 -90q95 -134 149 -274t78.5 -313.5t24.5 -317.5q31 -11 55 -11zM777 846q-30 0 -61 9q0 -195 -29.5 -410t-81.5 -393q-16 -58 -16 -84
q0 -28 25 -28q17 0 28.5 23t24.5 72q49 182 78 401.5t32 409.5zM531 1614l-44 81l-187 -671q29 -13 61 -16zM162 391q7 0 12.5 3.5t11.5 11t11 20t153 544.5q-29 3 -61 16l-139 -500q-11 -40 -11 -61q0 -34 23 -34zM585 1809q21 75 32.5 116.5t11.5 56.5q0 28 -28 28
t-46 -71l-18 -62q26 -32 48 -68zM262 1061q0 -7 4 -12l10 35q-14 -5 -14 -23zM418 1031q0 6 -5 11l-9 -30q14 5 14 19zM822 916q0 9 -6 14l1 -30q5 7 5 16zM670 944q0 -9 5 -18v16l-1 16q-4 -4 -4 -14z" />
  </g>

</svg>
