<?xml version="1.0" standalone="no"?>
<!DOCTYPE svg PUBLIC "-//W3C//DTD SVG 1.1//EN" "http://www.w3.org/Graphics/SVG/1.1/DTD/svg11.dtd" >
<svg xmlns="http://www.w3.org/2000/svg" xmlns:xlink="http://www.w3.org/1999/xlink" version="1.1" viewBox="-10 0 1659 2048">
  <g transform="matrix(1 0 0 -1 0 1638)">
   <path fill="currentColor"
d="M1458 822q-144 -75 -225 -180q167 -86 214.5 -116.5t74 -59t26.5 -58.5q0 -25 -15 -39.5t-40 -14.5q-29 0 -58 24t-71 62q-238 225 -423.5 321t-354.5 96q-47 0 -93 -8.5t-97 -8.5q-125 0 -210.5 67t-85.5 174q0 67 44 118t104 51q103 0 181 -113q140 43 281 43
q124 0 218 -20t163 -47.5t144.5 -78t134 -108.5t88.5 -104zM586 897q277 0 598 -247q87 107 215 184q-68 88 -155 148t-164 91.5t-173.5 50t-196.5 16.5q-88 0 -170 -15.5t-127 -37.5q-28 53 -74.5 88t-91.5 35q-43 0 -75 -40.5t-32 -88.5q0 -90 74 -145.5t182 -55.5
q46 0 91.5 8.5t98.5 8.5zM1508 407q0 26 -68.5 74.5t-167.5 96.5l65 -57q133 -127 161 -127q10 0 10 13z" />
  </g>

</svg>
