<?xml version="1.0" standalone="no"?>
<!DOCTYPE svg PUBLIC "-//W3C//DTD SVG 1.1//EN" "http://www.w3.org/Graphics/SVG/1.1/DTD/svg11.dtd" >
<svg xmlns="http://www.w3.org/2000/svg" xmlns:xlink="http://www.w3.org/1999/xlink" version="1.1" viewBox="-10 0 1837 2048">
  <g transform="matrix(1 0 0 -1 0 1638)">
   <path fill="currentColor"
d="M330 502q-73 0 -73 88v214h53v118h336q3 -20 9 -50.5t26.5 -60t60 -52t108.5 -26.5q376 -22 518 -42q80 -11 165.5 -54t139.5 -96t54 -93q0 -24 -13.5 -43.5t-48.5 -19.5q-27 0 -49 15.5t-49 35.5q-82 59 -133 83t-96 31q-76 11 -271 22l-139 8q-135 6 -209.5 27.5
t-123.5 65.5t-67 106h-71v-99h-57v-78q0 -46 -19.5 -73t-50.5 -27zM330 542q10 0 20 13t10 47v118h57v99h140q22 -102 112.5 -148.5t267.5 -51.5l219 -12q143 -9 194.5 -18t109.5 -37.5t131 -83.5q57 -43 70 -43q26 0 26 23q0 31 -49 75t-127.5 80.5t-148.5 47.5
q-115 18 -514 42q-99 7 -160.5 55t-74.5 134h-263v-118h-53v-174q0 -48 33 -48zM322 471q32 0 54 9t36.5 24t33.5 55q16 32 26 48t32 16q14 0 27 -13t13 -47v-190h-444v190q0 34 13 47t27 13q22 0 32 -16t26 -48q18 -38 32.5 -53.5t36.5 -25t55 -9.5zM504 413v170l-22 -40
q-28 -55 -46 -72.5t-45.5 -28.5t-68.5 -11t-68.5 11t-46 28.5t-45.5 72.5l-22 40v-170h364z" />
  </g>

</svg>
