<?xml version="1.0" standalone="no"?>
<!DOCTYPE svg PUBLIC "-//W3C//DTD SVG 1.1//EN" "http://www.w3.org/Graphics/SVG/1.1/DTD/svg11.dtd" >
<svg xmlns="http://www.w3.org/2000/svg" xmlns:xlink="http://www.w3.org/1999/xlink" version="1.1" viewBox="-10 0 2477 2048">
  <g transform="matrix(1 0 0 -1 0 1638)">
   <path fill="currentColor"
d="M100 986h113v189h175v-189h136v189h175v-189h136v189h175v-189h136v189h175v-189h136v189h175v-189h136v189h175v-189h136v189h175v-189h113v-572h-2267v572zM140 454h2187v492h-2187v-492zM2119 986h95v149h-95v-149zM1186 986h95v149h-95v-149zM1497 986h95v149h-95
v-149zM1808 986h95v149h-95v-149zM875 986h95v149h-95v-149zM564 986h95v149h-95v-149zM253 986h95v149h-95v-149z" />
  </g>

</svg>
