<?xml version="1.0" standalone="no"?>
<!DOCTYPE svg PUBLIC "-//W3C//DTD SVG 1.1//EN" "http://www.w3.org/Graphics/SVG/1.1/DTD/svg11.dtd" >
<svg xmlns="http://www.w3.org/2000/svg" xmlns:xlink="http://www.w3.org/1999/xlink" version="1.1" viewBox="-10 0 1260 2048">
  <g transform="matrix(1 0 0 -1 0 1638)">
   <path fill="currentColor"
d="M1091 1839q-47 -9 -96 -52.5t-79.5 -109.5t-30.5 -142q0 -54 19.5 -105t69.5 -122q39 -60 50 -81q18 9 45 9q35 0 58 -23.5t23 -56.5q0 -29 -27 -58t-70 -67q-26 -195 -124 -537h-526q-72 174 -116 319.5t-44 227.5q0 76 20 126q-78 56 -120.5 157t-42.5 227
q0 119 31 214t87.5 143.5t134.5 48.5h738v-118zM461 1530q0 -47 -8.5 -83t-23.5 -65t-64 -96q-34 -46 -48 -77.5t-24 -79t-10 -88.5q0 -96 47.5 -239t104.5 -268h464q5 19 16 58.5t24.5 90.5t27.5 109t25 114t18.5 106.5t7.5 86.5t-15 75.5t-63 111.5q-57 84 -76 139
t-19 110q0 85 30.5 156.5t86.5 122.5h-585q84 -145 84 -284zM1051 1917h-696q-98 0 -156.5 -97.5t-58.5 -268.5q0 -112 34.5 -201t98.5 -143q12 34 29 57q-56 69 -79.5 144t-23.5 171q0 69 19.5 129t50 100.5t58.5 45.5h690l34 15v48zM421 1530q0 117 -91 278
q-42 -28 -66.5 -91t-24.5 -138q0 -91 23.5 -167t61.5 -113q7 9 23 29.5t32.5 50.5t29 68t12.5 83zM1058 1087q27 23 39.5 37.5t12.5 31.5t-11 28.5t-30 11.5t-29 -4q18 -47 18 -93v-12z" />
  </g>

</svg>
