<?xml version="1.0" standalone="no"?>
<!DOCTYPE svg PUBLIC "-//W3C//DTD SVG 1.1//EN" "http://www.w3.org/Graphics/SVG/1.1/DTD/svg11.dtd" >
<svg xmlns="http://www.w3.org/2000/svg" xmlns:xlink="http://www.w3.org/1999/xlink" version="1.1" viewBox="-10 0 725 2048">
  <g transform="matrix(1 0 0 -1 0 1638)">
   <path fill="currentColor"
d="M179 1692l298 -333v437q0 138 -163 138q-50 0 -87.5 -12.5t-49.5 -19.5l-38 129q74 35 175 35q145 0 223 -71t78 -199v-1865h-138v608l-298 -333l-30 26l288 322h-337v744h377v1l-328 367zM517 -29h58v1825q0 110 -66.5 170t-194.5 60q-72 0 -126 -19l15 -50
q58 17 111 17q98 0 150.5 -46.5t52.5 -131.5v-1825zM140 594h332l2 1l-334 284v-285zM477 645v283h-334zM140 1241v-273h322zM477 1007v251h-296z" />
  </g>

</svg>
