<?xml version="1.0" standalone="no"?>
<!DOCTYPE svg PUBLIC "-//W3C//DTD SVG 1.1//EN" "http://www.w3.org/Graphics/SVG/1.1/DTD/svg11.dtd" >
<svg xmlns="http://www.w3.org/2000/svg" xmlns:xlink="http://www.w3.org/1999/xlink" version="1.1" viewBox="-10 0 1827 2048">
  <g transform="matrix(1 0 0 -1 0 1638)">
   <path fill="currentColor"
d="M535 1308q21 0 65 7q259 41 354 50q-69 66 -109 176.5t-40 229.5q0 72 40 122t121 71q6 42 32.5 63.5t65.5 21.5t65 -22t32 -63q80 -20 121 -70t41 -123q0 -123 -42 -233.5t-107 -172.5q238 -20 346.5 -132t108.5 -322q0 -63 -24 -195q-25 -132 -25 -220q0 -277 137 -476
l-66 -48q-110 51 -174.5 171t-64.5 275l5 68q26 213 26 253q0 203 -68.5 296t-234.5 115l39 -869l3 -107q0 -118 -27.5 -160t-90.5 -42q-64 0 -91 42.5t-27 159.5l3 107l39 879h-22q-106 0 -289 -22t-229 -22q-52 0 -81 43.5t-29 118.5q0 88 18 147q-73 -19 -112 -19
q-65 0 -104.5 26t-39.5 70q0 61 65.5 100t154.5 39q91 0 139 -29.5t48 -85.5q0 -30 -12 -77q-12 -43 -12 -64q0 -40 11.5 -58.5t40.5 -18.5zM1048 1936q-45 0 -96.5 -18.5t-79 -56.5t-27.5 -90q0 -104 29.5 -195t75.5 -148.5t83 -57.5h61q36 0 83 58t76.5 147.5t29.5 195.5
q0 53 -28 91.5t-79.5 56t-92.5 17.5h-35zM1588 911q0 201 -110 303.5t-346 113.5l6 -138q189 -25 267 -128.5t78 -320.5q0 -43 -15 -173q-16 -130 -16 -159q0 -120 50.5 -225.5t145.5 -164.5l13 10q-63 103 -92 208t-29 251q0 89 24 230t24 193zM1142 174l-21 543l-29 613
h-56l-28 -609l-22 -547q0 -103 18.5 -132.5t59.5 -29.5t59.5 29.5t18.5 132.5zM990 1200l6 127q-108 -8 -273 -34q-162 -25 -186 -25q-51 0 -72.5 29t-21.5 88q0 18 12 72q11 54 11 69q0 27 -36 51t-110 24t-126.5 -29t-52.5 -72q0 -25 32 -39t71 -14q63 0 136 26l22 -35
q-24 -82 -24 -162q0 -58 21 -89t57 -31q34 0 91 7q301 37 419 37h24zM277 1545q0 31 32 31q31 0 31 -31q0 -30 -31 -30q-32 0 -32 30zM1080 1976l39 -4q-12 37 -55 37t-55 -37l41 4h30z" />
  </g>

</svg>
