<?xml version="1.0" standalone="no"?>
<!DOCTYPE svg PUBLIC "-//W3C//DTD SVG 1.1//EN" "http://www.w3.org/Graphics/SVG/1.1/DTD/svg11.dtd" >
<svg xmlns="http://www.w3.org/2000/svg" xmlns:xlink="http://www.w3.org/1999/xlink" version="1.1" viewBox="-10 0 2381 2048">
  <g transform="matrix(1 0 0 -1 0 1638)">
   <path fill="currentColor"
d="M1057 863q-35 -75 -110.5 -154t-158.5 -119.5t-163 -40.5q-105 0 -185.5 49.5t-132 151.5t-61.5 213q-33 -5 -53 -5q-43 0 -68 23t-25 58q0 54 71.5 80t227.5 26q174 0 359.5 -37t378.5 -107t412.5 -181t535.5 -309q115 -72 150.5 -106t35.5 -61q0 -51 -63 -51
q-62 0 -168 68q-2 1 -32 19.5t-79.5 48.5t-116 69t-142 81.5t-157 85t-161.5 81t-155.5 69t-139.5 48.5zM287 983q0 -48 26.5 -133.5t70.5 -143.5t105 -87.5t136 -29.5q69 0 143.5 35.5t147 109t106.5 146.5q-88 46 -266.5 79t-335.5 33q-115 0 -133 -9zM193 998q36 0 51 5
q16 18 61 23.5t115 5.5q118 0 260.5 -20t248 -51t138.5 -62q172 -49 430.5 -181t534.5 -306l30 -19q95 -60 144 -60q25 0 25 11q0 22 -68.5 69t-298.5 186.5t-425 234t-365 152t-337 88.5t-338 31q-135 0 -197 -16t-62 -50q0 -14 13.5 -27.5t39.5 -13.5z" />
  </g>

</svg>
