<?xml version="1.0" standalone="no"?>
<!DOCTYPE svg PUBLIC "-//W3C//DTD SVG 1.1//EN" "http://www.w3.org/Graphics/SVG/1.1/DTD/svg11.dtd" >
<svg xmlns="http://www.w3.org/2000/svg" xmlns:xlink="http://www.w3.org/1999/xlink" version="1.1" viewBox="-10 0 2464 2048">
  <g transform="matrix(1 0 0 -1 0 1638)">
   <path fill="currentColor"
d="M2354 656q-286 77 -438 77q-108 0 -248 -36q-135 -171 -232 -247t-211 -114t-254 -38q-128 0 -245.5 45t-219.5 121.5t-201 199.5t-152 244.5t-53 164.5q0 66 51 66q23 0 47 -30.5t96 -149.5q123 -202 291 -304t374 -102q122 0 238 50t213.5 145t160.5 204q144 4 196 8
h-1q151 11 588 148v-452zM2314 1055l-65 -20q-325 -103 -480 -115l-176 -8q-127 -203 -288 -301t-346 -98q-124 0 -229.5 33t-193 90.5t-170 151.5t-166.5 247q-12 22 -28 43t-21 21q-11 0 -11 -26q0 -23 26 -90t50 -115q38 -76 120 -179.5t186.5 -186t218 -123.5t230.5 -41
q180 0 317.5 67t280.5 238l75 88q149 42 272 42q127 0 398 -65v347z" />
  </g>

</svg>
