<?xml version="1.0" standalone="no"?>
<!DOCTYPE svg PUBLIC "-//W3C//DTD SVG 1.1//EN" "http://www.w3.org/Graphics/SVG/1.1/DTD/svg11.dtd" >
<svg xmlns="http://www.w3.org/2000/svg" xmlns:xlink="http://www.w3.org/1999/xlink" version="1.1" viewBox="-10 0 2670 2048">
  <g transform="matrix(1 0 0 -1 0 1638)">
   <path fill="currentColor"
d="M2310 1596q115 0 178 -69.5t63 -198.5q0 -193 -170 -306q76 -82 127.5 -200.5t51.5 -226.5q0 -112 -42 -197.5t-118.5 -134.5t-165.5 -49q-156 0 -243 83t-87 237q0 75 26 175.5t61 184.5q-180 -27 -427 -27q-745 0 -1330 339q-76 46 -105 79t-29 63q0 37 28 59.5
t77 22.5q59 0 203 -56q208 -82 338 -114t292 -53t352 -21q193 0 328.5 16t211 50t120.5 119q67 125 89.5 151t50 42.5t56 24t64.5 7.5zM2310 1556q-62 0 -107.5 -31.5t-91.5 -122.5q-44 -84 -68 -114q-43 -52 -120.5 -81t-209 -45t-323.5 -16q-194 0 -359 22t-299 55
t-337 114q-137 53 -188 53q-31 0 -49 -11.5t-18 -30.5q0 -43 114 -108q282 -165 619 -249t691 -84q479 0 713 104.5t234 316.5q0 71 -24 123t-70.5 78.5t-106.5 26.5zM2118 918l-82 -16q-39 -91 -65.5 -195t-26.5 -173q0 -128 76.5 -204t208.5 -76q80 0 147.5 43
t105.5 120.5t38 177.5q0 69 -23 144.5t-68.5 150t-82.5 111.5q-32 -18 -71 -34q73 -73 112 -172t39 -204q0 -64 -14.5 -108t-38 -73t-60.5 -46t-93 -17q-90 6 -136.5 57t-46.5 139q0 71 21 171t60 204zM2234 952l-68 -22q-41 -103 -65 -207t-24 -180q0 -54 21.5 -87
t53.5 -50.5t68 -17.5h18q35 0 71 20t56.5 66.5t20.5 116.5q0 103 -40.5 199.5t-111.5 161.5zM1987 1110l17 8q67 31 118.5 81.5t51.5 104.5v23q0 74 37 115.5t100 41.5t98 -42t35 -115q0 -107 -97.5 -183t-234.5 -76l-125 4v38zM2214 1306q0 -43 -23.5 -82t-63 -71.5
t-70.5 -44.5l29 -1q101 0 170.5 30.5t108.5 82t39 111.5q0 49 -23.5 81t-71.5 32q-45 0 -70 -31t-25 -85v-22z" />
  </g>

</svg>
