<?xml version="1.0" standalone="no"?>
<!DOCTYPE svg PUBLIC "-//W3C//DTD SVG 1.1//EN" "http://www.w3.org/Graphics/SVG/1.1/DTD/svg11.dtd" >
<svg xmlns="http://www.w3.org/2000/svg" xmlns:xlink="http://www.w3.org/1999/xlink" version="1.1" viewBox="-10 0 1137 2048">
  <g transform="matrix(1 0 0 -1 0 1638)">
   <path fill="currentColor"
d="M802 340q-62 0 -62 100q0 95 -14 143l-3 14q-13 62 -50 96l17 -519v-83q0 -61 -22 -90t-73 -29t-73 29t-22 90v83l17 518q-34 -39 -34 -128q0 -154 -50 -230t-143 -76q-89 0 -139.5 64t-50.5 183q0 153 75 278t205 186v97l151 57l7 210q-47 15 -95 79t-77.5 158.5
t-29.5 200.5q0 72 40 122t121 71q6 42 32.5 63.5t65.5 21.5t65 -22t32 -63q80 -20 121 -70t41 -123q0 -106 -29.5 -200.5t-78 -158.5t-95.5 -79l7 -222q85 -20 158 -70v-93q54 -38 98 -97t78.5 -149.5t34.5 -140.5q0 -25 -15 -39.5t-40 -14.5q-32 0 -49.5 25t-31.5 74
q-36 112 -90.5 178.5t-134.5 89.5l1 -31q95 -30 148.5 -137t53.5 -260q0 -106 -67 -106zM579 1936q-45 0 -96.5 -18.5t-79 -56.5t-27.5 -90q0 -104 29.5 -195t75.5 -148.5t83 -57.5h61q36 0 83 58t76.5 147.5t29.5 195.5q0 53 -28 91.5t-79.5 56t-92.5 17.5h-35zM802 380
q27 0 27 66q0 170 -62.5 269t-173.5 99q-96 0 -150.5 -66t-54.5 -178q0 -105 -26 -161t-72 -56q-54 0 -77.5 39t-23.5 116q0 113 55 209t147.5 151t194.5 55q91 0 156.5 -37t110.5 -107.5t76 -162.5q22 -69 43 -69q15 0 15 19q0 37 -34.5 128t-84.5 152.5t-119.5 94
t-156.5 32.5q-132 0 -234.5 -62t-160 -170.5t-57.5 -235.5q0 -99 39.5 -153t110.5 -54q153 0 153 266q0 106 38.5 152.5t113.5 46.5q185 0 185 -323q0 -60 22 -60zM595 723q-22 0 -40 -6q-17 -537 -17 -627q0 -44 13 -61t44 -17t44 17.5t13 60.5l-12 442l-7 185q-17 6 -38 6
zM523 876q-125 -24 -209.5 -128t-84.5 -240q0 -115 61 -115q27 0 42.5 45t15.5 132q0 104 43 178t131 97zM420 985q79 28 172 28q104 0 184 -42v52q-38 29 -98.5 45t-125.5 16h-14l-118 -46v-53zM571 1122l47 -4l-7 212h-33zM611 1976l39 -4q-12 37 -55 37t-55 -37l41 4h30z
M593 854l36 -3l-1 29l-42 3l-24 -1l-1 -30z" />
  </g>

</svg>
