<?xml version="1.0" standalone="no"?>
<!DOCTYPE svg PUBLIC "-//W3C//DTD SVG 1.1//EN" "http://www.w3.org/Graphics/SVG/1.1/DTD/svg11.dtd" >
<svg xmlns="http://www.w3.org/2000/svg" xmlns:xlink="http://www.w3.org/1999/xlink" version="1.1" viewBox="-10 0 1728 2048">
  <g transform="matrix(1 0 0 -1 0 1638)">
   <path fill="currentColor"
d="M1258 1065v-193l360 -65l-6 -37l-354 62v-832h-798v855l-349 -61l-6 37l355 64v144l-360 118l13 37l347 -113v58q61 83 160.5 135.5t218.5 57.5v357h-275q0 102 34 187t100.5 129t160.5 44q95 0 164 -44t106.5 -133t37.5 -183h-288v-357q112 -4 213 -55t166 -138v-33
l350 89l10 -38zM500 40h718v1082q-58 77 -154.5 124t-204.5 47q-109 0 -204 -48t-155 -123v-1082zM859 2009q-76 0 -133.5 -35t-89.5 -104t-32 -141h523q-4 78 -40.5 145.5t-95 101t-132.5 33.5z" />
  </g>

</svg>
