<?xml version="1.0" standalone="no"?>
<!DOCTYPE svg PUBLIC "-//W3C//DTD SVG 1.1//EN" "http://www.w3.org/Graphics/SVG/1.1/DTD/svg11.dtd" >
<svg xmlns="http://www.w3.org/2000/svg" xmlns:xlink="http://www.w3.org/1999/xlink" version="1.1" viewBox="-10 0 2198 2048">
  <g transform="matrix(1 0 0 -1 0 1638)">
   <path fill="currentColor"
d="M1094 -29q-193 0 -358 31t-295.5 86.5t-226 137t-113.5 146.5h-1v1312q0 2 41.5 30t113 69t168 87.5t207 86.5t229.5 66.5t235 26.5q209 0 470.5 -97t523.5 -269v-1312h-2q-18 -66 -113.5 -147t-225.5 -136.5t-295 -86.5t-358 -31zM240 378h796q-83 107 -83 408
q0 101 9.5 199.5t22.5 193.5t27 187t23 180q-51 9 -83.5 52t-32.5 102q0 52 -36 88t-130 60q-71 -21 -137 -46.5t-123.5 -51.5t-104 -51.5t-80 -45.5t-51 -32.5t-17.5 -15.5v-1227zM1948 1605l-44 27q-93 57 -219.5 116.5t-247.5 96.5q-86 -22 -122 -58.5t-36 -86.5
q0 -59 -32.5 -102t-83.5 -52q9 -88 23 -180t27 -187t22.5 -193.5t9.5 -199.5q0 -301 -83 -408h786v1227zM1094 1902q-127 0 -271 -35q136 -49 136 -167q0 -107 116 -129q-7 -93 -21 -188.5t-27.5 -193.5t-23.5 -199t-10 -204q0 -334 98 -408h1l2 2l2 -2h11q98 74 98 408
q0 103 -10 204t-23.5 199t-27.5 193.5t-21 188.5q116 22 116 129q0 117 129 164q-150 38 -274 38zM140 378h60v1246q0 2 34 26.5t94.5 60t144 76t183 75t211 57.5t227.5 23q212 0 447 -85t447 -233v-1246h60v1287l-46 27q-127 77 -294.5 154t-327.5 120.5t-286 43.5
q-104 0 -215 -24.5t-217.5 -62t-201.5 -81.5t-166.5 -82.5t-112.5 -64.5t-41 -30v-1287zM1135 338l158 -162l-161 -165q203 4 383 46t315 120t197 161h-892zM1053 338h-892q63 -84 197 -161.5t313.5 -119.5t383.5 -46l-160 165zM1094 26l143 150l-143 150l-143 -150z" />
  </g>

</svg>
