<?xml version="1.0" standalone="no"?>
<!DOCTYPE svg PUBLIC "-//W3C//DTD SVG 1.1//EN" "http://www.w3.org/Graphics/SVG/1.1/DTD/svg11.dtd" >
<svg xmlns="http://www.w3.org/2000/svg" xmlns:xlink="http://www.w3.org/1999/xlink" version="1.1" viewBox="-10 0 1797 2048">
  <g transform="matrix(1 0 0 -1 0 1638)">
   <path fill="currentColor"
d="M100 1018h198v761q0 39 31 96.5t75.5 94.5t106.5 58.5t144 21.5q79 0 140.5 -21t106 -56.5t77.5 -94t33 -99.5v-685q34 50 99 110t133 94.5t125 34.5h4v157q-35 2 -66.5 24t-60.5 73.5t-34 92.5q-11 78 -38.5 103.5t-67.5 26.5l-7 43q21 30 52.5 46t64.5 16q38 0 71 -19
q36 99 106 151q70 -52 106 -151q33 19 71 19q32 0 64 -16t53 -46l-7 -43q-40 -1 -68 -26.5t-38 -103.5q-6 -44 -36 -95.5t-56 -69t-69 -24.5v-163q41 -10 65.5 -40t24.5 -76q0 -59 -90 -129v-1073h-40v1045l-7 -4q-81 -53 -206 -105q-84 -36 -148 -80v-21h78q9 -15 9 -38
q0 -32 -27 -67q67 -43 67 -142q0 -74 -58.5 -132.5t-131.5 -58.5t-131.5 58.5t-58.5 132.5q0 98 68 142q-26 33 -26 67q0 23 9 38h78v897q0 43 -30.5 90.5t-81.5 70.5t-121 23q-69 0 -120.5 -23t-82 -70t-30.5 -91v-724h256v-1018h-578v1018zM140 40h498v938h-498v-938z
M655 1966q84 0 145 -28.5t94.5 -83.5t33.5 -112v-794q22 49 44 85v746q0 34 -26.5 83t-67 80.5t-96 49.5t-127.5 18q-69 0 -119.5 -15t-86.5 -39.5t-60.5 -56.5t-37.5 -66t-13 -54v-761h44v724q0 56 33.5 111.5t95 84t144.5 28.5zM1393 1526q34 0 63 21t61 82q18 36 30 106
q9 52 32.5 74.5t63.5 35.5q-8 7 -23 18.5t-44 11.5q-53 0 -101 -48t-82 -140q-35 93 -83 140.5t-100 47.5q-29 0 -44 -11.5t-23 -18.5q71 -23 88 -76l8 -34q8 -48 16 -73t30 -62.5t49.5 -55.5t58.5 -18zM1012 1020v-107q51 34 126 67q149 65 235 122v191h-4
q-64 0 -146 -52.5t-156 -141.5q-20 -23 -55 -79zM798 598q0 -55 46.5 -103t104.5 -48q60 0 105 49t45 102q0 64 -39 98.5t-111 34.5q-71 0 -111 -34.5t-40 -98.5zM252 318q0 59 41 98.5t96 39.5q57 0 97.5 -40.5t40.5 -97.5q0 -55 -39.5 -96t-98.5 -41q-57 0 -97 39.5
t-40 97.5zM252 700q0 59 41 98.5t96 39.5q57 0 97.5 -40.5t40.5 -97.5q0 -55 -39.5 -96t-98.5 -41q-57 0 -97 39.5t-40 97.5zM292 700q0 -40 28.5 -68.5t68.5 -28.5q41 0 69.5 29.5t28.5 67.5q0 39 -29.5 68.5t-68.5 29.5t-68 -29t-29 -69zM1393 1782q27 51 70 91
q-20 71 -70 121q-50 -50 -70 -121q43 -40 70 -91zM950 771q51 0 86 -14q23 28 23 48h-218q0 -18 22 -48q40 14 87 14zM1463 1212q0 58 -50 74v-153q50 43 50 79zM972 946l-43 -93l43 33v60z" />
  </g>

</svg>
