<?xml version="1.0" standalone="no"?>
<!DOCTYPE svg PUBLIC "-//W3C//DTD SVG 1.1//EN" "http://www.w3.org/Graphics/SVG/1.1/DTD/svg11.dtd" >
<svg xmlns="http://www.w3.org/2000/svg" xmlns:xlink="http://www.w3.org/1999/xlink" version="1.1" viewBox="-10 0 2426 2048">
  <g transform="matrix(1 0 0 -1 0 1638)">
   <path fill="currentColor"
d="M1208 411q-167 0 -304 28.5t-246 75.5t-193 108t-146 125.5t-104 128t-67.5 116t-36 88.5t-10.5 47h2215q0 -11 -12 -47t-39 -88.5t-70.5 -116t-106 -128t-146.5 -125.5t-192.5 -108t-243 -75.5t-298.5 -28.5zM1229 1088l268 -319l-267 -318q202 3 357 48t269 112.5
t191 146t124.5 148.5t69 120.5t24.5 61.5h-1036zM152 1088q13 -52 65.5 -139t115 -154.5t138.5 -124t160.5 -97.5t176 -68t182 -39.5t196.5 -14.5l-267 318l268 319h-1035zM971 769q52 -66 137 -168t100 -116q82 90 237 284l-237 284z" />
  </g>

</svg>
