<?xml version="1.0" standalone="no"?>
<!DOCTYPE svg PUBLIC "-//W3C//DTD SVG 1.1//EN" "http://www.w3.org/Graphics/SVG/1.1/DTD/svg11.dtd" >
<svg xmlns="http://www.w3.org/2000/svg" xmlns:xlink="http://www.w3.org/1999/xlink" version="1.1" viewBox="-10 0 2568 2048">
  <g transform="matrix(1 0 0 -1 0 1638)">
   <path fill="currentColor"
d="M575 925l72 20q236 68 347 94l-204 261h149l173 -215q18 66 64 108.5t101 42.5q52 0 96 -39t68 -112l174 215h149l-202 -261q107 -25 247 -65l173 -49h137l339 95v-479l-339 79h-131q-178 -51 -406.5 -103t-302.5 -52q-134 0 -710 155h-130l-339 -79v479l339 -95h136z
M1973 888q-18 5 -51.5 15t-77.5 22t-96 26t-106 28t-108 26.5t-102 22.5v-503q163 31 541 130v233zM1126 1028q-50 -10 -105.5 -23t-110.5 -27t-107.5 -28.5t-95.5 -26.5t-75 -21.5t-47 -13.5v-233q378 -99 541 -130v503zM1279 1050q-40 0 -113 -14v-519q70 -12 113 -12
q42 0 113 12v519q-73 14 -113 14zM140 595l277 61v234l-275 78zM2141 890v-234l277 -61l-2 373zM1277 1196q-86 0 -131 -124q94 18 133 18q46 0 128 -17q-44 123 -130 123zM457 885v-225h88v225h-88zM2013 660h88v225h-88v-225zM869 1264l166 -215l47 10l-166 205h-47z
M1474 1059l45 -10l166 215h-47z" />
  </g>

</svg>
