<?xml version="1.0" standalone="no"?>
<!DOCTYPE svg PUBLIC "-//W3C//DTD SVG 1.1//EN" "http://www.w3.org/Graphics/SVG/1.1/DTD/svg11.dtd" >
<svg xmlns="http://www.w3.org/2000/svg" xmlns:xlink="http://www.w3.org/1999/xlink" version="1.1" viewBox="-10 0 1982 2048">
  <g transform="matrix(1 0 0 -1 0 1638)">
   <path fill="currentColor"
d="M1404 1092q53 0 84.5 -37.5t31.5 -103.5q0 -99 -76 -210h38q35 39 92 63.5t115 24.5q83 0 133 -29t50 -79q0 -51 -50.5 -84t-132.5 -33q-55 0 -111.5 26t-95.5 71h-38q76 -117 76 -211q0 -65 -31 -103t-85 -38q-53 0 -84.5 37.5t-31.5 103.5q0 94 76 211h-200
q76 -117 76 -211q0 -65 -31 -103t-85 -38q-53 0 -84.5 37.5t-31.5 103.5q0 94 76 211h-200q76 -117 76 -211q0 -65 -31 -103t-85 -38q-53 0 -84.5 37.5t-31.5 103.5q0 94 76 211h-200q76 -117 76 -211q0 -65 -31 -103t-85 -38q-53 0 -84.5 37.5t-31.5 103.5q0 94 76 211h-34
q-52 -52 -104 -74.5t-103 -22.5q-82 0 -132.5 33t-50.5 84q0 50 49.5 79t133.5 29q59 0 116 -25t91 -63h34q-36 52 -56 108.5t-20 101.5q0 65 31 103t85 38q53 0 84.5 -37.5t31.5 -103.5q0 -99 -76 -210h200q-36 52 -56 108.5t-20 101.5q0 65 31 103t85 38q53 0 84.5 -37.5
t31.5 -103.5q0 -99 -76 -210h200q-36 52 -56 108.5t-20 101.5q0 65 31 103t85 38q53 0 84.5 -37.5t31.5 -103.5q0 -99 -76 -210h200q-36 52 -56 108.5t-20 101.5q0 65 31 103t85 38zM283 644q93 0 170 77q-76 68 -170 68q-60 0 -101.5 -20.5t-41.5 -47.5q0 -37 36.5 -57
t106.5 -20zM1689 644q72 0 107.5 20.5t35.5 56.5q0 27 -41.5 47.5t-101.5 20.5q-94 0 -170 -68q77 -77 170 -77zM1124 1052q-76 0 -76 -101q0 -91 76 -197q76 110 76 197q0 101 -76 101zM564 1052q-76 0 -76 -101q0 -91 76 -197q76 110 76 197q0 101 -76 101zM1404 1052
q-76 0 -76 -101q0 -91 76 -197q76 110 76 197q0 101 -76 101zM844 1052q-76 0 -76 -101q0 -91 76 -197q76 110 76 197q0 101 -76 101zM920 490q0 45 -22 99t-54 98q-76 -106 -76 -197q0 -101 76 -101t76 101zM1480 490q0 45 -22 99t-54 98q-76 -106 -76 -197q0 -101 76 -101
t76 101zM640 490q0 45 -22 99t-54 98q-76 -106 -76 -197q0 -101 76 -101t76 101zM1200 490q0 45 -22 99t-54 98q-76 -106 -76 -197q0 -101 76 -101t76 101z" />
  </g>

</svg>
