<?xml version="1.0" standalone="no"?>
<!DOCTYPE svg PUBLIC "-//W3C//DTD SVG 1.1//EN" "http://www.w3.org/Graphics/SVG/1.1/DTD/svg11.dtd" >
<svg xmlns="http://www.w3.org/2000/svg" xmlns:xlink="http://www.w3.org/1999/xlink" version="1.1" viewBox="-10 0 924 2048">
  <g transform="matrix(1 0 0 -1 0 1638)">
   <path fill="currentColor"
d="M264 -144l-164 486h223q57 67 57 181q0 48 -11.5 95.5t-32.5 97.5t-86 171q-64 118 -88 179.5t-37.5 125t-13.5 130.5q0 202 109 394.5t288 333.5v-1708h306l-164 -486h-386zM420 523q0 -108 -48 -181h96v1621q-95 -86 -169 -196t-111 -224.5t-37 -220.5q0 -72 15 -136.5
t39 -123t80 -157.5q71 -131 91 -181t32 -100.5t12 -100.5zM758 302h-602l136 -406h330z" />
  </g>

</svg>
