<?xml version="1.0" standalone="no"?>
<!DOCTYPE svg PUBLIC "-//W3C//DTD SVG 1.1//EN" "http://www.w3.org/Graphics/SVG/1.1/DTD/svg11.dtd" >
<svg xmlns="http://www.w3.org/2000/svg" xmlns:xlink="http://www.w3.org/1999/xlink" version="1.1" viewBox="-10 0 1359 2048">
  <g transform="matrix(1 0 0 -1 0 1638)">
   <path fill="currentColor"
d="M1209 229q3 -30 21 -73q19 -50 19 -80q0 -36 -26.5 -58t-69.5 -22q-23 0 -60 21q-35 19 -52 19q-14 0 -35 -5q-147 -38 -193 -38q-71 0 -131 10l-2 19q-35 -26 -89 -26q-23 0 -60 21q-35 19 -52 19q-14 0 -35 -5q-147 -38 -193 -38q-71 0 -131 10l-20 76l25 7
q293 87 324 136q19 31 31 124.5t12 220.5q0 65 24 176q12 58 12 72q0 18 -5 48q-5 28 -5 62q0 31 36 112q31 70 55.5 176t27.5 167q-54 45 -85.5 110t-31.5 144q0 91 41.5 163t110.5 117q-41 12 -41 64q0 72 88 72h318q88 0 88 -72q0 -52 -41 -64q69 -45 111 -117t42 -163
t-40.5 -162t-109.5 -116l8 -86q8 -46 8 -115l-2 -93q0 -59 7 -87q76 -285 89 -443l14 -303h-2zM560 1634q0 -128 90.5 -213t227.5 -85q138 0 228.5 85t90.5 213t-91 213.5t-228 85.5q-135 0 -226.5 -85t-91.5 -214zM828 1299q-85 11 -153 53q-6 -71 -35.5 -183.5
t-65.5 -186.5q-16 -33 -16 -62q0 -22 5 -50q5 -30 5 -55t-12 -80q-24 -111 -24 -168q0 -78 -5.5 -154.5t-15.5 -128.5t-24 -77.5t-68.5 -53.5t-157.5 -63.5t-114 -35.5l1 -20q26 -4 96 -4q29 0 68.5 9.5t73.5 17.5q69 19 93 19q22 0 72 -25q27 -15 43 -15q31 0 52 11t21 29
t-17 66q-23 59 -23 102q0 30 24 143.5t47 202.5l13 55q12 56 12 196q0 20 12 61q63 222 75 279t18 118zM1170 244l-13 286q-5 62 -28.5 185t-58.5 250q-9 36 -9 97l2 93q0 55 -9 107l-4 73q-72 -37 -166 -39q12 -34 12 -63l2 -66q0 -16 3.5 -148.5t20.5 -154.5
q27 -78 64 -254l17 -79l10 -37q46 -161 46 -211q0 -61 -25.5 -90.5t-81 -56.5t-144.5 -52t-103 -25v-1l4 -22q39 -6 97 -6q29 0 68.5 9.5t73.5 17.5q69 19 93 19q22 0 72 -25q27 -15 43 -15q26 0 39.5 11t13.5 29t-17 66q-23 59 -23 102h1zM705 96q122 28 197 58t96 55.5
t21 73.5q0 42 -39 178l-16 55l-16 79l-35 152l-15 56q-33 107 -33 136q0 148 -7 234v-6l-2 59q-17 -99 -57 -242l-25 -88q-11 -39 -11 -55q0 -150 -14 -206l-13 -54q-69 -285 -69 -337q0 -35 21 -88q16 -50 17 -60zM721 2010q-26 0 -38 -6t-12 -26q0 -16 9 -23t46 -12
q75 30 152 30q75 0 150 -30q40 8 48.5 15t8.5 20q0 20 -12 26t-38 6h-314z" />
  </g>

</svg>
