<?xml version="1.0" standalone="no"?>
<!DOCTYPE svg PUBLIC "-//W3C//DTD SVG 1.1//EN" "http://www.w3.org/Graphics/SVG/1.1/DTD/svg11.dtd" >
<svg xmlns="http://www.w3.org/2000/svg" xmlns:xlink="http://www.w3.org/1999/xlink" version="1.1" viewBox="-10 0 892 2048">
  <g transform="matrix(1 0 0 -1 0 1638)">
   <path fill="currentColor"
d="M100 532h40v-601h-40v601zM100 1292h40v-601h-40v601zM100 2052h40v-601h-40v601zM421 532h40v-601h-40v601zM421 1292h40v-601h-40v601zM421 2052h40v-601h-40v601zM742 532h40v-601h-40v601zM742 1292h40v-601h-40v601zM742 2052h40v-601h-40v601z" />
  </g>

</svg>
