<?xml version="1.0" standalone="no"?>
<!DOCTYPE svg PUBLIC "-//W3C//DTD SVG 1.1//EN" "http://www.w3.org/Graphics/SVG/1.1/DTD/svg11.dtd" >
<svg xmlns="http://www.w3.org/2000/svg" xmlns:xlink="http://www.w3.org/1999/xlink" version="1.1" viewBox="-10 0 828 2048">
  <g transform="matrix(1 0 0 -1 0 1638)">
   <path fill="currentColor"
d="M519 831q0 -134 -37.5 -352t-94.5 -448q17 6 64.5 10.5t71.5 4.5q91 0 143 -57t52 -152q0 -66 -36 -120t-102 -84t-152 -30q-153 0 -240.5 88.5t-87.5 248.5q0 92 16 195t35 215.5t35 233t16 247.5q0 128 -16 247t-35 229.5t-35 212t-16 194.5q0 158 86.5 247t241.5 89
q88 0 153.5 -30.5t101 -83.5t35.5 -119q0 -95 -52 -152t-143 -57q-27 0 -72 4.5t-64 10.5q56 -221 94 -437.5t38 -354.5zM336 1675q95 -27 187 -27q71 0 113 45.5t42 123.5q0 53 -30.5 98t-87 70t-132.5 25q-137 0 -212.5 -78t-75.5 -218q0 -81 16 -183.5t35 -217.5t35 -238
t16 -244q0 -123 -16 -246.5t-35 -239.5t-35 -219.5t-16 -185.5q0 -142 75.5 -219.5t212.5 -77.5q114 0 182 55t68 139q0 79 -42 124t-113 45q-79 0 -187 -27q143 598 143 852q0 257 -143 844z" />
  </g>

</svg>
