<?xml version="1.0" standalone="no"?>
<!DOCTYPE svg PUBLIC "-//W3C//DTD SVG 1.1//EN" "http://www.w3.org/Graphics/SVG/1.1/DTD/svg11.dtd" >
<svg xmlns="http://www.w3.org/2000/svg" xmlns:xlink="http://www.w3.org/1999/xlink" version="1.1" viewBox="-10 0 2174 2048">
  <g transform="matrix(1 0 0 -1 0 1638)">
   <path fill="currentColor"
d="M1189 793l-87 -1150h-40l-88 1150q-95 -6 -178.5 -29t-175.5 -71t-166.5 -111.5t-217.5 -216.5q-67 -71 -83 -71q-22 0 -37.5 20.5t-15.5 54.5q0 56 50 148t133 182t190 162.5t225.5 116t257.5 58.5l-76 1014h404l-77 -1014q131 -14 244.5 -53.5t224 -110.5t197 -163.5
t139 -187t52.5 -152.5q0 -35 -15.5 -55t-37.5 -20q-16 0 -83 71l-68 73q-155 165 -269 229.5t-205.5 91.5t-196.5 34zM1082 837q135 0 243 -23t214.5 -74.5t190 -121t211.5 -208.5q63 -69 70 -69q13 0 13 38q0 43 -54.5 133.5t-144.5 185t-211 165t-254.5 105t-277.5 34.5
q-148 0 -283 -35.5t-253.5 -106t-208 -164.5t-143.5 -184.5t-54 -132.5q0 -38 13 -38q7 0 71 69q128 140 211.5 209t190 121t214.5 74.5t242 22.5zM1082 1042l84 -3l75 971h-318l73 -971zM1049 797l-34 -1l67 -877l66 877l-32 1h-67z" />
  </g>

</svg>
