<?xml version="1.0" standalone="no"?>
<!DOCTYPE svg PUBLIC "-//W3C//DTD SVG 1.1//EN" "http://www.w3.org/Graphics/SVG/1.1/DTD/svg11.dtd" >
<svg xmlns="http://www.w3.org/2000/svg" xmlns:xlink="http://www.w3.org/1999/xlink" version="1.1" viewBox="-10 0 2559 2048">
  <g transform="matrix(1 0 0 -1 0 1638)">
   <path fill="currentColor"
d="M2449 51q-167 -40 -363 -40q-85 0 -350 15q-429 24 -639 24q-334 0 -997 -49q32 169 148 294.5t288 186t389 60.5q459 0 798 -58q163 -28 277 -28q124 0 238.5 34t186.5 91l24 -32q-77 -61 -197 -97t-252 -36q-115 0 -283 28q-205 34 -395.5 46t-396.5 12
q-156 0 -272 -28t-199.5 -71.5t-138.5 -97t-89 -104.5t-51 -93t-25 -63l90 7q174 13 423 25.5t434 12.5q212 0 641 -24q250 -15 348 -15q204 0 353 38z" />
  </g>

</svg>
